<?xml version="1.0" encoding="UTF-8"?><svg xmlns="http://www.w3.org/2000/svg" viewBox="0 0 245.94 380.07"><defs><style>.cls-1{fill:#0d465b;}</style></defs><title>Asset 20</title><g id="Layer_2" data-name="Layer 2"><g id="Layer_2-2" data-name="Layer 2"><path class="cls-1" d="M151.81 131c6.17-2.74 21.52-15.76 26.94-6.78 0 .06.13 0 .09-.05-5.5-9.34-21.14 4-27.09 6.72-.08 0-.01.11.06.11z" fill="#0d465b"/><path class="cls-1" d="M179.81 125.23a.11.11 0 0 0 0 .22.11.11 0 0 0 0-.22z" fill="#0d465b"/><path class="cls-1" d="M179 132.75a.35.35 0 0 0 .05-.08h.11a.43.43 0 0 0 .58.17 1.75 1.75 0 0 0 .35.18c.21.07.31-.19.19-.33a7 7 0 0 0-.76-.66l-.2-.16a.2.2 0 0 0 .05-.17c-.45-4.13-2.25-7.67-7.11-6.67-8.4 1.71-15.5 6.58-23.33 9.81a.16.16 0 0 0 .09.31 31.2 31.2 0 0 0 7.11-2.39 4.72 4.72 0 0 1-3.74 1.81c-.05 0-.07.08 0 .09a4.74 4.74 0 0 0 4.27-1.75l.66-.35a7 7 0 0 1-1.12 1.67 8.61 8.61 0 0 0 1.75-2l.21-.11a3.57 3.57 0 0 0-.24 1.11c0 .22.33.22.34 0 0-.49.31-.89.38-1.36 1.58-.82 3.5-1.78 5.53-2.63a1.58 1.58 0 0 1 .85.46c-.23 2.37 2.45 4.87 4.56 5.53.13 0 .18-.16.06-.2a5.6 5.6 0 0 1-3.65-5 9.48 9.48 0 0 1 1.45-1.19 3 3 0 0 1 1.25-.54l.34.16.3.14a2.71 2.71 0 0 0 2.27 3.27.75.75 0 0 0 .25.11.29.29 0 0 0 .31-.11c.94-.22 2.22-1.43 2-2.42a2.34 2.34 0 0 1 .42-.53 4.11 4.11 0 0 1 .57-.1.21.21 0 0 0 .18.3 5.59 5.59 0 0 1 .7.14.22.22 0 0 0 .22-.09c-.25 2.54-.89 5.63-3.9 5.79a.05.05 0 0 0 0 .11c2.58.07 4.73-3.43 4.75-6.09v-.2a5.62 5.62 0 0 1 1 1.79.11.11 0 0 0 .11.07c.11.24.22.51.33.78a1.44 1.44 0 0 0 .35.78l-.12.07h-.11a.13.13 0 0 0-.14-.12.74.74 0 0 1-.46 0c-.08-.05-.17.07-.1.13a.6.6 0 0 0 .1.06.35.35 0 0 0-.17.35c-.6.49-1.2 1-1.8 1.42a16.48 16.48 0 0 1-17.06-1.22.14.14 0 0 0 .16-.16.86.86 0 0 1 0-.33.19.19 0 0 0-.35-.15c-.13.21-.09.29 0 .52-.09-.05-.18.08-.11.15a12.65 12.65 0 0 0 2 1.52 11.79 11.79 0 0 0-2-.5c-.06 0-.11.07 0 .1 3.78 1.68 7.41 3.89 11.65 3.77 3.54-.17 6.36-2.81 8.62-5.06zm-7.83-4.82V127.91zm-1.91-.47a.5.5 0 0 0 .07.16l-.25-.11zm5.46.59zm-.09-.53a.78.78 0 0 1 0 .1v-.14zm-.12-.33a.41.41 0 0 0 0 .06.28.28 0 0 0 0 .09 2 2 0 0 0-.11-.2h.1zm-2.1 1.45a1 1 0 0 1-.12-.65.36.36 0 0 0 .05-.23 1.59 1.59 0 0 1 .45-.68h.07a.9.9 0 0 1 1.06.54 1.13 1.13 0 0 1-.15 1.2.92.92 0 0 1-1.37-.18zm1.26 1.19a.47.47 0 0 0-.1-.18h.14c-.02.03-.04.1-.05.17zm-6.46 6.81a16.08 16.08 0 0 0 2.58.16h-.42a8.42 8.42 0 0 1-2.17-.17z" fill="#0d465b"/><path class="cls-1" d="M158.37 114c-3.78 1.91-7.81 3.2-11.61 5.06-.18.09-.05.37.13.31a87.46 87.46 0 0 0 9.43-3.29c3.54-1.46 6.37-3.65 10.41-3.52a.16.16 0 0 0 .18-.15 8.22 8.22 0 0 0 1.55.89c.15.06.24-.1.2-.22a4.35 4.35 0 0 0 1.17.68c.29.1.42-.31.19-.46-.92-.64-1.92-1.17-2.85-1.79-.11-.08-.26.11-.15.19.47.36.89.78 1.34 1.16-.59-.34-1.23-.62-1.82-1a.12.12 0 0 0-.12.21l.1.06a13.92 13.92 0 0 0-8.15 1.87z" fill="#0d465b"/><path class="cls-1" d="M166.6 113a.13.13 0 0 0 0-.27h-1.9a.09.09 0 0 0 0 .18z" fill="#0d465b"/><path class="cls-1" d="M169.23 111.57c-.23-.12-.44.23-.21.36 1.29.68 2.48 1.52 3.71 2.31.35.22.69-.2.53-.53l.07.08a.37.37 0 0 0 .49-.37c.43.29.86.58 1.3.86a.43.43 0 0 0 .57-.14l.56.42a.44.44 0 0 0 .66-.3l.49.5a.5.5 0 0 0 .82-.27l.57.53a.49.49 0 0 0 .82-.27l.22.06h.06a.4.4 0 0 0 .31.08l.62.22a4.7 4.7 0 0 1-.91-.22c-.14-.05-.22.17-.1.23a5.46 5.46 0 0 0 2.34.57.41.41 0 0 0 .58.07 15.34 15.34 0 0 0 4.46 1.09.43.43 0 0 0 .3-.1.34.34 0 0 0 .48-.06.27.27 0 0 0 .31.1h.07l.15-.1a1 1 0 0 0 .41-1.33 2.45 2.45 0 0 0-.66-.89 3.42 3.42 0 0 0-.42-.34l-.13-.18c0-.05-.1 0-.13 0l-.15-.1a.29.29 0 0 0-.43.15.32.32 0 0 0-.23 0l-.22-.31c-.21-.29-.76-.12-.62.26l-.23.11c-.42-.19-.8-.33-1.07-.42l-.13-.18a.31.31 0 0 0-.57.22.52.52 0 0 0-.16.32l-.59-.73a.47.47 0 0 0-.77.14.5.5 0 0 0-.78.13l-.14-.18a.51.51 0 0 0-.87 0l-.6-.63a.51.51 0 0 0-.84.25l-.3-.25a.47.47 0 0 0-.81.31l-.59-.55a.5.5 0 0 0-.81.23l-.6-.59c-.39-.39-.93.1-.72.55l.06.16-.71-.52a.43.43 0 0 0-.63.26c-.38-.25-.77-.49-1.15-.74s-.8.23-.56.56q.63.89.21.3a.4.4 0 0 0-.44.58c-.35-.79-1.98-1.28-2.89-1.71z" fill="#0d465b"/><path class="cls-1" d="M189.32 114.48c-.07-.05-.18 0-.13.1a3.48 3.48 0 0 1 .43.77 1.91 1.91 0 0 1 0 1c0 .16.21.2.28.08a1.56 1.56 0 0 0-.58-1.95z" fill="#0d465b"/><path class="cls-1" d="M191.39 116.45a12.71 12.71 0 0 1-1.87 1.16c-.18.09 0 .35.16.27a5.29 5.29 0 0 0 1.87-1.22c.09-.11-.03-.31-.16-.21z" fill="#0d465b"/><path class="cls-1" d="M180.48 132.3a.38.38 0 0 0 0-.75h-.08c.1-2.08.13-4.21-.89-6.08 0-.06-.12 0-.09.05.88 1.94.72 4 .8 6.05a.38.38 0 0 0 .26.73z" fill="#0d465b"/><path class="cls-1" d="M182.17 129.54a.15.15 0 0 0 0-.3.15.15 0 0 0 0 .3z" fill="#0d465b"/><path class="cls-1" d="M186.77 165.69h-.07c.9 3.85 5.57 6.19 9.14 4.14.29-.17.1-.68-.24-.56-3.54 1.26-7.74.58-8.83-3.58z" fill="#0d465b"/><path class="cls-1" d="M199.92 167.69h.08a5.36 5.36 0 0 1 1.7-.47 6.14 6.14 0 0 0 3-.36c.29.19.57.41.85.63s.57-.17.41-.4a4.15 4.15 0 0 0-.7-.8.27.27 0 0 0-.18-.15c-1.46-1.13-3.14-.26-4.79.8a.13.13 0 0 0-.09.06 11.34 11.34 0 0 1-3.47 1.84.09.09 0 0 0 0 .18 7.41 7.41 0 0 0 3.19-1.33zm2.7-1.3h-.12z" fill="#0d465b"/><path class="cls-1" d="M234.43 128.09c.06.1.22 0 .16-.09a7.59 7.59 0 0 0-2.37-2.65c.83 0 1.57-.21 1.83-1a.1.1 0 0 0-.16-.1c-.93.93-2.45.31-3.66-.06a1.88 1.88 0 0 0-.78-.85l-.12-.2a.07.07 0 0 0-.11.07c-1.29-.52-3.24.33-4.65 1l-.67.22-.29.13a16.3 16.3 0 0 1 4.61-1.74.14.14 0 0 0 0-.27 9.08 9.08 0 0 0-5.59 2.46 44.16 44.16 0 0 0-4.52 3.27 20.65 20.65 0 0 1-6.23 2.63.14.14 0 0 0 0 .28 14 14 0 0 0 4.54-1.21 1.23 1.23 0 0 0-.15.73c0 .09.15.12.17 0a1.35 1.35 0 0 1 .78-.93.16.16 0 0 0 .08-.22c.8-.39 1.6-.82 2.4-1.27l1.66-.92c-.91 2.5 2.1 5.57 4.34 6.3.08 0 .14-.1.06-.14-2.22-1-4.17-3.53-3.52-5.92a1.7 1.7 0 0 1 1.71-.72 2.94 2.94 0 0 1 .83.3 3.58 3.58 0 0 0 1.6 3.52 1.53 1.53 0 0 0 2.11-.4 2.33 2.33 0 0 0 .38-.42 2.93 2.93 0 0 0 .48-1.48 3.22 3.22 0 0 0 .48-.56c.18.09.28.24.46.34s.31-.08.21-.21a.58.58 0 0 0-.64-.23 1.21 1.21 0 0 1 .17-.17.16.16 0 0 0 .15.1c.12 0 .28.2.36.27 0 2.79-.39 6.35-3.19 5.67a.08.08 0 0 0 0 .15c1.89.57 2.92-1.19 3.47-2.73a11.6 11.6 0 0 0 .66-4.34c.29.42.61.83.92 1.22.11.14.25.34.42.51a11.36 11.36 0 0 0-.54 1.49h-.1a10.08 10.08 0 0 0-.52 1.46c-2.08 6.27-11 .72-15-.5-.14 0-.2.17-.06.22 1.07.38 2.49 1.12 4 1.86a.07.07 0 0 0 0 .06c3.49 1.49 7.68 5.22 10.34.87a.2.2 0 0 0 .14-.09 8.86 8.86 0 0 0 1-3.1v.34a.07.07 0 0 0 .13 0 13.84 13.84 0 0 1 .73-2.45.8.8 0 0 0 .69.26c.11 0 .08-.19 0-.19a.65.65 0 0 1-.42-.29 4.07 4.07 0 0 0-.63-2.11 6.29 6.29 0 0 1 1.85 1.83zm-6.32.25l-.07.07-.05-.17v-.14l.23.13a.34.34 0 0 0-.11.11zm1.09-.75a.77.77 0 0 1-1.23-.44 1.38 1.38 0 0 1 .3-1.1 6.43 6.43 0 0 0 1-.05.72.72 0 0 1 .26.42 1.26 1.26 0 0 1-.33 1.17zm.83-1.77zm-6.12.36h-.08zm1.13.3h-.07zm5.12.4v.13h-.08c.06-.01.07-.06.08-.13zm-.75-2.9a8.1 8.1 0 0 0-3-.15 3.12 3.12 0 0 1 3 .17z" fill="#0d465b"/><path class="cls-1" d="M236.17 113.65a1.25 1.25 0 0 0-1.87-.54c-.08 0 0 .19.07.16.75-.28 1 .15 1.59.55.1.07.26-.05.21-.17z" fill="#0d465b"/><path class="cls-1" d="M234.88 113.43a9.39 9.39 0 0 0-1.49-.33 4 4 0 0 0 1.15-.91c.18-.22-.06-.62-.34-.43l-.39.27a.34.34 0 0 0-.56-.12c-.22.2-.45.38-.68.56a.54.54 0 0 0-.22-.12v-.18a.37.37 0 0 0-.63-.26l-.28.29a.28.28 0 0 0-.4-.2 25.47 25.47 0 0 0-2.88 1.57l-.7.16a13.32 13.32 0 0 0 1.81-1.39.23.23 0 0 0-.27-.34 33.47 33.47 0 0 0-2.82 2l-.61.13a6.19 6.19 0 0 0 .89-1c.16-.25-.19-.5-.4-.31s-.45.4-.68.59a.33.33 0 0 0-.51-.21 5.81 5.81 0 0 0-.68.59.42.42 0 0 0-.47-.1.36.36 0 0 0-.55-.32c.15-.35-.29-.79-.57-.44l-.71.87a.32.32 0 0 0-.45 0c-.2.18-.38.37-.56.57a.14.14 0 0 0-.19 0c-.22.27-.4.56-.58.85v-.21a.26.26 0 0 0-.47-.13 7.63 7.63 0 0 1-1.18 1.34h-.11v-.21a.16.16 0 0 0-.25-.14l-.4.29a.38.38 0 0 0-.36.26c-.8.58-1.59 1.16-2.4 1.72-.08.06 0 .19.08.13l2.36-1.54a.34.34 0 0 0 .12.1 7.05 7.05 0 0 1 1 .56.44.44 0 0 0 .52-.07c.12-.1.25-.18.37-.28a.15.15 0 0 0 .14-.06l.08-.11a9.1 9.1 0 0 1 2.62-1.25c0 .32.38.62.63.31l.45-.55a.38.38 0 0 0 .62 0c0-.05.07-.09.1-.14l.74-.13-.21.16c-.11.08 0 .26.11.18l.76-.45.33-.05c1.52-.25 2.88-.68 4.25-1 .06.13.21.21.32.07l.16-.17a11.31 11.31 0 0 1 4.39-.23.09.09 0 0 0 0-.19zm-15.23 2.26v.11l-.29.16zm12-2.91a.37.37 0 0 0 .21.23h-.55c.1-.06.21-.15.32-.22zm.49.23z" fill="#0d465b"/><path class="cls-1" d="M214.06 119.6a.19.19 0 0 0 .38 0 2.32 2.32 0 0 0-.29-1.22c0-.08-.18 0-.15.06a4.64 4.64 0 0 1 .06 1.16z" fill="#0d465b"/><path class="cls-1" d="M211.62 121.24c.42-.26.84-.55 1.25-.84a.14.14 0 0 0 .18-.13c.16-.12.34-.24.49-.37s-.05-.41-.23-.29l-.3.21a2.2 2.2 0 0 0-.18-.61.11.11 0 0 0-.2.08 2.38 2.38 0 0 1 .11.72 16.35 16.35 0 0 0-1.29 1c-.12.12.04.32.17.23z" fill="#0d465b"/><path class="cls-1" d="M215.31 128.45c4.14-2.3 6.85-6.36 11.47-7.91a.1.1 0 0 0-.05-.18c-4.68 1.33-7.36 5.68-11.5 8-.09 0-.01.14.08.09z" fill="#0d465b"/><path class="cls-1" d="M228.77 120.64v-.05.05z" fill="#0d465b"/><path class="cls-1" d="M234.11 122.75a6.34 6.34 0 0 0-6.36-2.35v.09a7.33 7.33 0 0 1 6.16 2.4c.09.11.28-.03.2-.14z" fill="#0d465b"/><path class="cls-1" d="M219.62 193a.19.19 0 0 0 .32-.19 2.49 2.49 0 0 0-2.95-1.36 9.28 9.28 0 0 0-1.72.46c.08-.08.17-.15.25-.23s0-.14-.08-.1a9 9 0 0 1-.86.57l-.58.21h-.06a6.79 6.79 0 0 0 1.58-1.27c0-.05 0-.12-.08-.08a10.73 10.73 0 0 1-2.14 1.37.23.23 0 0 0-.28 0 3.4 3.4 0 0 0-.58 0 .08.08 0 0 0-.08.11c-.55.08-1.09.22-1.63.35h-1c-2.35-.5-5.25.59-6.79-1.86a.08.08 0 0 0-.13.08 3.78 3.78 0 0 0 1.82 1.64l-.68-.06-.26-.1a6 6 0 0 1-1.22-.81s-.13 0-.09.07a2.45 2.45 0 0 0 .73.76c-6.13-.62-12.25-1.92-18.42-.48a.27.27 0 0 0-.31-.31 4.33 4.33 0 0 0-1.66.78 6.15 6.15 0 0 1-2.23 1 .13.13 0 0 0 0 .25 10.67 10.67 0 0 0 3.38-1.29c4.69-.92 9.42-.28 14.13 0 1.79.1 3.6.46 5.4.72a6.14 6.14 0 0 0 1.2.31h.1a11.75 11.75 0 0 0 5.15.35 7.79 7.79 0 0 0 2.85-.57 5.49 5.49 0 0 0 1.38-.55h.14c1.67-.32 4-1.77 5.4.23zm-7-.32a.16.16 0 0 0 0-.07h.12z" fill="#0d465b"/><path class="cls-1" d="M215.35 197.13c-8 5.52-16.77 1.6-25.22-.6a.07.07 0 0 0 0 .14c2.91.93 5.73 2 8.49 2.76 2.73 1.38 5.34 3.34 8.3 4h.24a5.47 5.47 0 0 1-3.45-.44 14.45 14.45 0 0 1-4.65-2.67c-.06-.05-.15 0-.09.09.8.79 4.56 3.43 7.16 3.92a6.18 6.18 0 0 1-6.24-2.07c0-.05-.12 0-.08.07 2.28 2.67 6.36 3.73 9 1.39a3.9 3.9 0 0 0 1.76-1.06 11.43 11.43 0 0 0 1.46-1.82 4.34 4.34 0 0 0 .88-1.67.2.2 0 0 0-.08-.19 18.24 18.24 0 0 0 2.68-1.61c.18-.08.02-.37-.16-.24zm-7.24 5.39v-.05c0-.05 0 0 0 0l.1.06zm-2-1.2a.37.37 0 0 0 .35.19h.24l-.08.06a5.35 5.35 0 0 1-1-.29zm1.53 1.24h.06v.06zm-4.84-2.18h-.06.06zm6.94 2.13zm1.72-2.89h-.05.07zm-9.82.55a.34.34 0 0 0-.09.1l-.48-.21zm10.25-.37a.19.19 0 0 0-.07-.26l.37-.16c-.1.09-.19.26-.28.42z" fill="#0d465b"/><path class="cls-1" d="M216.74 195.92a.17.17 0 0 0 0 .33h.16a.2.2 0 1 0 0-.38z" fill="#0d465b"/><path class="cls-1" d="M190.26 189.93c-.1 0-.05.16 0 .15a32.75 32.75 0 0 0 8.16-2.23c2.74-1.17 5.14-2.33 8.13-1a5.1 5.1 0 0 0 2.09.45c.17 0 .2-.26 0-.29-2.82-.48-4.3-1.85-7.22-1-1.85.56-3.62 1.8-5.43 2.5a30.75 30.75 0 0 1-5.73 1.42z" fill="#0d465b"/><path class="cls-1" d="M217.9 188.73c.07.09.2 0 .15-.12-.76-1.42-1.72-2.82-3.37-3.21-1.9-.44-3.06 1.76-5 1.52 0 0-.06.07 0 .08a3.23 3.23 0 0 0 2.81-.75c2.39-1.55 4.08.85 5.41 2.48z" fill="#0d465b"/><path class="cls-1" d="M132.89 215.66c-11.24-7.36-17.19-18.46-22.81-30.26 0-.1-.23 0-.18.08 4.59 12 10.8 24.57 22.79 30.54a.21.21 0 0 0 .2-.36z" fill="#0d465b"/><path class="cls-1" d="M138.36 218.88a58.07 58.07 0 0 0 7.06 3.92c.15.06.21-.16.1-.24-2.15-1.53-4.81-2.48-7.16-3.69-.01 0-.01.01 0 .01z" fill="#0d465b"/><path class="cls-1" d="M104.82 141.77a26.81 26.81 0 0 0 .67 3.1c.1.24.45.06.4-.17a26.63 26.63 0 0 0-.7-3 .2.2 0 0 0-.37.07z" fill="#0d465b"/><path class="cls-1" d="M235.57 110.14c.31 0 .34.34.35.59s.42.26.4 0c0-.45-.21-.89-.71-.93-.19-.01-.24.32-.04.34z" fill="#0d465b"/><path class="cls-1" d="M210.71 48.78a.08.08 0 0 0 0 .15.08.08 0 0 0 0-.15z" fill="#0d465b"/><path class="cls-1" d="M210.71 50.41a.14.14 0 0 0 0 .28.14.14 0 0 0 0-.28z" fill="#0d465b"/><path class="cls-1" d="M205.63 315c3.63-2.37-.07-8.73-1.44-11.22a.62.62 0 0 0-1.09 0 6 6 0 0 0-1-.47 3 3 0 0 1 2.37-2.24.69.69 0 0 0 .48-.84 6.15 6.15 0 0 0-2.48-3.34c-3.26-2.26-4.27-4.71-4.44-8.64a.16.16 0 0 0-.32 0c-.07 2.07-.28 4.43.74 6.33 1.19 2.23 3.81 3.17 4.9 5.38-1.65.6-2.38 1.74-2.78 3.63a.71.71 0 0 0 .49.86 16.59 16.59 0 0 1 2.37.87c1.81 4 3.75 8.83-2.37 9-3.19.12-6.41-.36-9.6-.42-.67 0-1.3.87-.84 1.47 13.58 17.71 33.59 40.07 27.58 64.27a.29.29 0 0 0 .56.15c6.87-23.69-10.72-46.48-25.13-63.83 3.97.38 8.81 1.16 12-.96z" fill="#0d465b"/><path class="cls-1" d="M208.41 301.2c-.7 0-1.4 0-2.09.06a.18.18 0 0 0 0 .37c.7 0 1.39.09 2.09.06a.24.24 0 0 0 0-.49z" fill="#0d465b"/><path class="cls-1" d="M245.35 218.49c1.46-5.11.08-10.26-2.41-14.76-1.56-2.82-4-5-5.71-7.73s-1.54-6.44-1.63-9.54a.22.22 0 0 0-.06-.14 2.7 2.7 0 0 1 .55-.83.31.31 0 0 0-.2-.51c3.06-10.87 5-21.82 4.45-32.93.81-7.79-2.05-14.31-3.8-21.72a55 55 0 0 0 1-7.21 9 9 0 0 0-1-6.13.16.16 0 0 0-.28.12c.75 2.85.07 5.43-.44 8.25-.29 1.61-.66 3.33 0 4.85-.09 5.92 2.37 11.64 3.39 17.56.76 13.68-2.27 27.31-6.12 40.42-2.22 7.55-4.85 15-7.1 22.51-.59 2-1.16 4-1.74 5.89q.09-1 .16-1.94c0-.21-.34-.26-.37-.05a75 75 0 0 1-1.82 8.23 66.43 66.43 0 0 1-2.55 6.21c-4 5.38-7.87 9-14.52 10.2a.18.18 0 0 0-.27-.11l-.29.2-.88.14c-6.22.8-12.67-.52-18.69-2-12-2.89-25-6.35-35.15-13.47-.18-.12-.4.17-.23.3 8.15 6.53 18.07 10.73 28.25 13.59 3.93 2.16 7.87 4.16 12 6 2.09 1 4.83 1.64 6.53 3.24a3.71 3.71 0 0 1-.13.38c0 .06-.06.11-.09.16a.24.24 0 0 0-.35.11 2.16 2.16 0 0 0-.12.53c-2.84-2.37-6.94-2.73-10.13-4.56a82.17 82.17 0 0 0-14.2-6.75c-.13 0-.19.17-.06.21a69.61 69.61 0 0 1 13.89 7.19c3.23 2 7.5 2.46 10.34 5 .38.33.92-.2.55-.55l.23-.3c-.14 1.12-.22 2.25-.29 3.32-1.75-1.49-4.23-2.38-6.17-3.25-4.22-1.88-8.2-4.36-12.59-5.84-.11 0-.16.14 0 .18 4.18 1.46 7.76 4 11.68 5.93 2.24 1.13 5.21 2.24 7.06 4.13 0 .26 0 .51-.05.75a.19.19 0 0 0 0 .07c-4-2.41-8.61-3.32-12.85-5.15-.09 0-.18.1-.08.14 4.32 2 8.88 3.33 12.87 6 0 .25-.06.49-.09.71a.37.37 0 0 0 .19.4c.05.37.13.75.21 1.12a5.82 5.82 0 0 0-4.25 0c-3 1.35-5.34 2.47-8.57.67-2.18-1.21-4.06-3.07-6.15-4.43-2.69-1.75-6.25-2.31-9.7-2.6a77.78 77.78 0 0 0-8-6.63c-3.84-3.06-6.95-7-10.54-10.38-.08-.08-.2 0-.12.12 3.23 3.11 6.22 6.46 9.31 9.7a95.53 95.53 0 0 0 7.8 7.08c-1.31-.09-2.59-.15-3.78-.25-7.12-.58-14.14-1-21.21-2.16-6-1-16.92-1.89-22.18-6.65a.49.49 0 0 0 .44-.51 33.46 33.46 0 0 0-4.66-17c-2.86-4.87-5.74-10.74-9.69-14.79 0 0-.12 0-.07.08 3.43 3.83 5.82 9.13 8.35 13.6a39.72 39.72 0 0 1 5 18 9.14 9.14 0 0 1-1.11-1.46.51.51 0 0 0 .21-.42c-.12-11-7.59-20.35-14-28.61-.07-.09-.23 0-.16.12 4.28 5.75 8 11.64 10.46 18.14-.18-.35-.35-.71-.53-1.06s-.25-.43-.39-.64c-2.7-6.28-8.9-11.28-12.7-16.81.5-6 2.33-12.42 1.83-18q.48-2.17 1-4.34a19.68 19.68 0 0 1-.87 5.11.26.26 0 0 0 .49.13c1.41-3.68 2.68-8.82-.77-11.48l.8-.12a3.92 3.92 0 0 1 2.5 2.73 12.45 12.45 0 0 1 .3 4c0 .3.41.28.45 0 .25-2 .42-5.2-1.08-6.85a5.89 5.89 0 0 1 3.48 1c.25.18.62-.18.43-.43-.87-1.17-1.85-2.38-3.53-2.3-3.63.17-6.69 1.27-10.43.73-11-1.58-13.63-10.92-19.39-18.59C70 155 66.34 142 72.63 134.75c7-8 17.76 1.71 21.93 7.53A.27.27 0 0 0 95 142a31.45 31.45 0 0 0-2.88-4.74.77.77 0 0 0 0-.4c0-.09-.07-.17-.1-.25a.89.89 0 0 0-.21-.3c.28 0 .64 0 1.21.13a15.41 15.41 0 0 1 4.85 1.74 17.39 17.39 0 0 1 4.15 3 .4.4 0 0 0 .28.26 17 17 0 0 1 1.48 1.75.37.37 0 0 0 .19.26 15.56 15.56 0 0 1 1.59 2.77c.06.13.28 0 .23-.1l-.13-.32a.07.07 0 0 0 .05-.11 1.32 1.32 0 0 1-.32-1 .06.06 0 0 0-.12 0v.14c-.24-.54-.51-1.06-.79-1.57a.42.42 0 0 0 .05-.18c.08-1.21.17-2.38.29-3.54v1.45a.12.12 0 0 0 .24 0c-.06-6.19 2.72-11.68 3.53-17.57 1.22-2.85 3.81-4.81 4.89-7.78a15.43 15.43 0 0 0 .13-11.33c-.07-.18-.35-.1-.29.08a13.71 13.71 0 0 1-1.79 12.32c1.72-4.72 1-9.42.79-15a18.2 18.2 0 0 1 .11-2.83c.93-1.91 2.53-3.38 4.13-5.27q.85-1 1.66-2a18.85 18.85 0 0 0-.15 4.13c.15 3.17 1.81 8.94-1.37 11.1-.12.08 0 .27.11.19 1.81-1.21 2-3.25 2-5.27 0-3.58-.93-7.43 0-10.92a53.8 53.8 0 0 0 3.92-5.84.67.67 0 0 0 .08-.28c.72-.75 1.47-1.47 2.24-2.16l.67-.4a.2.2 0 0 0 .11-.16c3.72-1 7.63-2.72 10.1-4.89 4.2-3.7 6.1-9 9.13-13.57h.06a3.93 3.93 0 0 0 1.42-1.56 18.78 18.78 0 0 1 6-2.4 49.12 49.12 0 0 0 9.55-2.69 7.94 7.94 0 0 0 2.43 0 .19.19 0 0 0 .15-.12c10.71-4 21.86-1.91 32.1 2 4.65 1.78 9.2 2.09 12-.59 2.3-.45 4.65-1.34 6.86-.73 4.62 3.57 6.7 10.45 9.34 15.93 1.78 5.42 3.72 10.79 5.57 16.17a.58.58 0 0 0 .29.33c1.25 6.43 1.95 13 4.33 19.15a.17.17 0 0 0 .32-.09c-1.53-7.27-2.16-14.76-4.16-21.83l-.09-.46c-.19-2.14-.23-4.32-.53-6.45.19-1.32.32-2.66.54-4 .28-1.7.54-3.36.69-5.06a16.94 16.94 0 0 0 .43-2.56c.22-2.72-1.88-3.6-1.83-6.08.19-9.07-8.87-14.51-11.36-22.64a46.69 46.69 0 0 0-3.14-13.36c-3.3-7.63-9.48-13.56-15.63-19C196.38 4 191.49.76 186 .15c-9-1-17 3.54-25.85 4.35-4.62.42-9.26.23-13.89.71S137 7 132.36 7.82a104.29 104.29 0 0 0-25.56 7.73 97.8 97.8 0 0 0-9.43 4.79A50.65 50.65 0 0 0 83.6 30.45c-5.87 6.15-10.49 13.74-15.33 20.76a1.08 1.08 0 0 0-.56.27c-4.59 4.1-9.1 8.29-13.31 12.77-3.32 3.53-7.22 7.73-8.75 12.42-2.29 7 3.28 17.08 1 24.13a40.89 40.89 0 0 0-5.16 10.38A23.1 23.1 0 0 0 39 122.55c0 10 5.18 19 11.5 26.34a4.25 4.25 0 0 0-1.1 4.11c1.07 5.79 2.26 10.48-.64 16a89.95 89.95 0 0 1-2.28 4.05c-5 6.76-11.38 13.4-12.3 20.7a14.71 14.71 0 0 0 2.21 9.8 39.17 39.17 0 0 0 2.61 3.64 8.27 8.27 0 0 1 .59 4.37v.05A68.22 68.22 0 0 0 33.4 218a16.51 16.51 0 0 0-2.48 4.68.56.56 0 0 0-.09.12c-1 2.38-.81 4.94-1.16 7.46a6.4 6.4 0 0 1-1 2.55c-5.39.12-12.18 4-16.72 6.67-2.26 1.33-2.65 3.56-2.9 6-.35 3.41.27 6.56-1.42 9.74-1.79 3.36-4.76 6.23-7.53 8.79-.27.25.1.75.4.52a32.22 32.22 0 0 0 9.29-10c2.12-3.72-.57-9.32 2.17-12.74 1.69-2.11 6-3.36 8.37-4.52s5-2.74 7.57-3.45a11.74 11.74 0 0 1-5.74 3.63.28.28 0 0 0 .07.55 12 12 0 0 0 6.23-2.22l3.23-1h.17l.9-.27h.08l.13-.05c9.53-2.75 19.89-4.88 29.79-4.12a3.89 3.89 0 0 0 1.95.2c1.07.13 2.13.28 3.19.48a46.29 46.29 0 0 0 14.6 12.7c7.52 4 16.5 3.56 24.48 6 17.77 9 31.84 23.92 30.19 45.59a.43.43 0 0 0 .84.12 36.52 36.52 0 0 0-2.85-22.12.46.46 0 0 0 0-.07 169.26 169.26 0 0 0-4.42-16.54c-.54-1.78-1.4-5.37-3-7.58a6.48 6.48 0 0 0-1.76-2.76c2.43.8 4.82 1.35 6.54 1.79 10.36 2.64 20.91 3.4 31.51 4.42 3.55.34 7.55.58 10.89 2 2.33 1 4.26 2.92 6.28 4.43a11.11 11.11 0 0 0 1 .67 21.1 21.1 0 0 1-7.53-1.89c-3.76-1.51-7.08 2.69-10.62-.32-.13-.11-.32.07-.19.19 1.72 1.63 3.56 3.1 5.68 1.37 2.47-2 7.62 2 10.3 2.63 2.36.52 5.21-.38 7.59-.74a10.23 10.23 0 0 0 3.35-.87c2.56-1.14 3.91-2 6.86-.54 2 1 1.59 4 1.86 5.83.45 3.14 2.26 5.78 4 8.44-.22.27-.44.55-.68.81a.17.17 0 0 0 .24.23c.23-.22.45-.46.67-.69.55.85 1.09 1.7 1.57 2.58l-.5.94a.2.2 0 0 0 .34.2l.42-.65a15.8 15.8 0 0 1 1.06 2.51.36.36 0 0 0 .31.27c1.77 5.1 1.39 11.43-.06 16.22-.18.6.7.81.92.25a23.24 23.24 0 0 0 1.52-12.35 22.49 22.49 0 0 0-1-4.82.19.19 0 0 0 .2-.12c1.23-3.56 3.81-6.37 5.41-9.74a.21.21 0 0 0 0-.12l.81.53a18 18 0 0 1 2.18 1.76.23.23 0 0 0-.16.06 22.77 22.77 0 0 0-2.7 3.62c-.15.22.2.41.35.21a39.61 39.61 0 0 1 2.71-3.47.24.24 0 0 0 .07-.18 30.3 30.3 0 0 1 3.81 4.61 7.18 7.18 0 0 1 .49.84 13.6 13.6 0 0 1-.63 3.6.7.7 0 0 0 0 .5 47.51 47.51 0 0 1-2.43 4.84c-1.23 2.24.18 4.66 1.55 6.77a15.84 15.84 0 0 1 .68 1.77A8.13 8.13 0 0 1 221 298c-2.16 2.63-3.55 4.92-2.46 8.44.08.25.49.21.47-.06-.41-4.51 3.35-6.7 5.5-10.09s-.13-7.93.79-11.72c.46-1 1-2 1.21-2.67 1.51-4.24 1.83-8.19.3-11.76.2-.49.28-1 .44-1.54a12.34 12.34 0 0 1 .56-1.37c5.23 3.83 11.77 7.26 16.44 4.79.31-.16.09-.59-.22-.53-7.72 1.53-14.36-5.92-20.7-9.59a4.68 4.68 0 0 1 .3-2.12c3.61-4.33 10.21-5 14.39-8.7 4.25-2.12 7.27-4.77 5.9-9-1.17-3.59-5.16-2.38-6.42-5.71-1.45-3.83 1.53-6.47 3.54-9.16a26 26 0 0 0 4.31-8.72zM67.42 140.9c0-.19-.06-.37-.09-.56s.12-.46.19-.7.4-.64.61-1a14.56 14.56 0 0 0-.71 2.26zm.24 3.69v-.93q.13-.85.33-1.66a32.09 32.09 0 0 0 0 5.71l-.11-.61a.31.31 0 0 0 0-.14c-.13-.8-.18-1.58-.21-2.37zm-.89-1.72c0 2-.19 4-.28 6a27.39 27.39 0 0 1 .29-6zm2.53 15.2a16.28 16.28 0 0 1-1.54-6.53 36.52 36.52 0 0 0 1.55 6.53zM100.85 188a15.4 15.4 0 0 0 .31-4.45 6.35 6.35 0 0 1 .87 1.25.15.15 0 0 0-.07.1 27 27 0 0 1-1 3.52zm-.07-4.87a15.3 15.3 0 0 1-.35 3.92c-.17-.33-.35-.65-.55-1a31.19 31.19 0 0 0-.28-4c.4.38.82.72 1.18 1.08zm-.7 32.88l.07.08a.51.51 0 0 0 0 .09l.06.12-.09.07c-.02-.12-.03-.24-.05-.37zm-1.17-2.09h-.05v-.18zm1 .78v-.31c.06.11.13.22.19.34a.42.42 0 0 0-.17-.03zm-1.27-.11v.81c0-.14-.08-.28-.11-.41s.09-.27.13-.4zm.54-32.54c.1 1.09.12 2.17.12 3.26-.23-.3-.48-.6-.75-.89 0-.69 0-1.38-.09-2.06v-.19zm-4.8 1l.35.32-.41-.15a1.64 1.64 0 0 0 .08-.22zm4.32 6.41a21.56 21.56 0 0 1 1 7.59 22.87 22.87 0 0 0-1.93-8.51 8.87 8.87 0 0 1 .95.91zm20.87 56l-.17-.29a18 18 0 0 0 1.59 1.44l.12.09.12.1a.62.62 0 0 0 0 .08c-.47-.47-1.06-.97-1.65-1.46zm-2.5-3.71c0-.26 0-.52-.06-.79a8.47 8.47 0 0 0 1.37 1.58 12.28 12.28 0 0 1-1.3-.83zm-14.48-55.36a6.85 6.85 0 0 1 .14 1 .18.18 0 0 0-.28.1c-.25 1-.58 2.08-.87 3.14q-.11-.58-.26-1.15c.35-1.37.72-2.73.94-4.12a6.4 6.4 0 0 1 .35.99zM98 182.23v1.69a13.63 13.63 0 0 0-1.93-1.54 17.11 17.11 0 0 0 1.93-.15zm-11.93-2.9q-.53-.15-1.06-.27a3.28 3.28 0 0 1-.83-1 18.14 18.14 0 0 0 1.93 1.28zM73.53 163.1l-.8-.77c-.55-1-1-1.93-1.48-2.91.4.73.82 1.45 1.29 2.15.34.5.66 1.01.99 1.53zm17.67-28.76l-.09-.05a10.75 10.75 0 0 0-1.11-1.58c5.51 2.34 11-2 15.08-6.42-1.77 4.3-4.74 8.1-9.76 8.73-.33 0-.36.5-.06.55-1.39-.33-3.07-.39-4.06-1.23zm27.46-51.18h1.75c-1.19.33-2.37.69-3.53 1.1.6-.33 1.19-.67 1.76-1zM116 90.24a23 23 0 0 1 1.86-2.17c-.58.71-1.21 1.43-1.86 2.17zm-13.4 50.36c-.37-.44-.76-.86-1.17-1.27a7.49 7.49 0 0 0 2.33-1.62c0 .5-.06 1-.07 1.49a2.6 2.6 0 0 1-1.06 1.4zm7.51-22.6l-.16.33a.64.64 0 0 0-.31-.25.24.24 0 0 0 .08-.1l.06-.14a.56.56 0 0 0 .36.16zm-3.47 11.05h-.09c.32-1.17.58-2.33.81-3.42h.1c-.22 1.14-.46 2.28-.79 3.43zm3.19-13.14l-.14-.09.24-.18zm-1 2.48l-.1.1zm-12.68 17.46a5.3 5.3 0 0 0-.83-.26c3.44-.17 7-2.51 9.33-5.61-.95 3.39-2.34 6.51-5.91 7.19a21.11 21.11 0 0 0-2.59-1.32zm3.57 2a6.9 6.9 0 0 0 4.45-3.12v.2a6.55 6.55 0 0 1-3.19 3.89c-.24-.22-.48-.44-.73-.65s-.37-.23-.53-.34zm3.46 3.47a2.87 2.87 0 0 0 .52-.29v1.05c-.15-.28-.33-.53-.52-.78zm10.48-46.89l.14-.13-.2.25zm49.74-38.27a.39.39 0 0 0 0-.37l.25-.2a3.38 3.38 0 0 0 2.72-.28.53.53 0 0 0 .46.19c-.8.28-1.58.58-2.32.89-.37-.07-.74-.15-1.11-.23zm21.95-3a.45.45 0 0 0 .06.1l.21.19-.89-.12zm25.37 2.11a11.55 11.55 0 0 1 1.23.29h-.05a5 5 0 0 0-1.32.05zm18.51 24.23l-.05-.14h.06zM125.92 10.66c9.49-2.09 19.35-4.05 29.05-4.33a68.37 68.37 0 0 0 10.64-1c4.18-.77 8.11-2.61 12.29-3.47 7.79-1.62 14.59.88 20.64 5.74 5.89 4.72 11.69 10.57 15.26 17.24 3.66 6.85 4.55 14.83 5.63 22.4 0 .26.48.2.46-.06l-.33-3.81c2.91 7.23 9.9 13.14 9.31 21.71a12.59 12.59 0 0 1-1.6 5c-.13.2.18.38.32.18a17.66 17.66 0 0 0 2.28-4.26c1.84 1 1.49 4.41.75 7.63-.41 1.36-.83 2.75-1.11 4.14-.17.59-.31 1.09-.39 1.43a10.21 10.21 0 0 0-.95-1.88c-.51-1.18-1-2.35-1.57-3.52-1.64-5.26-4.39-12.27-8.58-16.19a.48.48 0 0 0-.16-.37l-.18-.14c1.41-.45 2.29-2.56 2.49-3.81a.17.17 0 0 0-.33-.09 5.84 5.84 0 0 1-1.11 2 2.83 2.83 0 0 1-1.92.9.47.47 0 0 0-.34.22l-.24-.11a9 9 0 0 0-5.15-1.55 23.26 23.26 0 0 0 .81-7.64.17.17 0 0 0-.33 0 33.9 33.9 0 0 1-1.26 6.38c-3.56 8.19-11.08 4.54-17.82 1.95.56-.26.89-1 1.18-1.64.1-.2-.16-.43-.32-.24s-.87 1.32-1.33 1.12a.48.48 0 0 0-.65.34c-.58-.21-1.16-.41-1.72-.59a4.87 4.87 0 0 0 3-3c.07-.2-.23-.27-.31-.09a3.61 3.61 0 0 1-2.83 2.36 4.3 4.3 0 0 1-3-.72c3.09-.88 6.37-2.19 5.17-5.7-.06-.19-.35-.11-.3.08 1.34 4.6-5.87 4.29-8.56 5.58a.43.43 0 0 0-.25.34 39.1 39.1 0 0 0-5.68.17l2-.72c7.61 1.23 12.36-6 12.45-13.17a.12.12 0 0 0-.24 0c-.2 6.44-4 11.73-10 12.25a9.39 9.39 0 0 0 4-3.36 24.47 24.47 0 0 0 3.66-14.08 41.25 41.25 0 0 0-12.63-28.16.27.27 0 0 0-.39.39c6.52 6.65 10 15.82 11 25a25.83 25.83 0 0 1-1.9 13.49c-2.3 5.07-7 5.83-11.2 8.49a.53.53 0 0 0-.25.33A44.32 44.32 0 0 0 168.5 55c6.35-2.41 11.64-7.69 10.29-14.93 0-.21-.35-.12-.32.09 1 6.56-3.19 9.76-8 12.33a18.76 18.76 0 0 0 5.14-8.52c2.17-7.18.1-15.63-6-20.14-.09-.07-.18.09-.09.15 5.56 4.22 7.08 11.09 5.9 17.71a20.13 20.13 0 0 1-3.28 7.62 13.85 13.85 0 0 1-4.34 4 16 16 0 0 1-2.93 1.34c12.7-11.82 4-28.47-6.65-39.29-.17-.18-.44.09-.27.27 9.63 10 16.51 26.83 6.44 38.34a8.63 8.63 0 0 0 1.31-7.42.15.15 0 0 0-.3.08c1 3.78-1 7.08-4 9.1a2.5 2.5 0 0 0-.55 0 .36.36 0 0 0-.28.56 12.57 12.57 0 0 1-1.47.7c-4 1-8.21 1.34-11.93 3a.45.45 0 0 0-.19 0c-.44-3-4.1-6.16-7.09-5.73-.17 0-.12.3 0 .29 2.75-.19 6 3.39 5.69 6.27a15.06 15.06 0 0 0-2.07 1.45 18.45 18.45 0 0 0-3.31 3.75c-.83-6.15-8.86-10.51-14.84-9.6-5 .77-6.22-5.49-11.3-3.46-1 .39-1.57 1.52-2.09 2.35-2.14 3.42-7.67 2.46-10.94 4.11-.05 0 0 .11 0 .08 2.06-1 8.1-.45 9.9-2.56s3.95-6.48 7.95-2.76c1.33 1.23 1.94 2.09 3.63 2.85 2.14 1 4.81 0 7.11.62 3.52 1 9.27 4.9 10 9.18-1.08 1.67-2 3.45-3.06 5.15 0-2.26-1.35-4.55-3.78-4.37-2.93.22-6.25-4.21-8.56-5.9a9.54 9.54 0 0 0-7.36-1.69c-3.22.47-5.28 3.75-7.71 5.53-4.3 3.15-8.39-1.12-12.72-.5-3.87.56-7 3.15-10.32 5-4.45 2.53-10.51 3.12-15.49 4.16-.08 0 0 .14 0 .13 6.33-1.13 12.56-2 18.13-5.3 3.84-2.3 6.85-4.2 11.62-2.85 2.08.59 4.56 1.5 6.77.82a11.08 11.08 0 0 0 4.23-2.46c4-3.45 7.35-5.44 12.44-2.23 2.44 1.53 4.4 3.82 6.7 5.54 1.77 1.32 6.66 1.94 5.27 5.27a16.27 16.27 0 0 1-5.68 5.71c2.46-2.82.42-5.88-2.42-7.78-5.81-3.9-11.52-2.37-16.92 1.34-6.46 4.44-13 0-20 1-7.77 1.18-14.08 6.49-22.15 6.46a.13.13 0 0 0 0 .26c4.14.21 7.74-1 11.5-2.62a67.83 67.83 0 0 1 8-3.13c4.41-1.27 8.93.15 13.32.78 2.63.38 5.68.4 8-1 2.52-1.46 4.49-3.16 7.29-4.23 3.36-1.28 16.93 2.26 12.58 8.46a.42.42 0 0 0 .33.63 12.67 12.67 0 0 1-2 .83.12.12 0 0 0-.06.17l-.83.29v-.36a.46.46 0 0 0-.34-.45c-2.38-.41-3.58-2.47-5.79-3.21-2.75-.91-5.51-.17-8.22.48-.17 0-.1.3.07.26 3.31-.71 7.05-1.59 9.8 1a13 13 0 0 0 1.32 1.26c.09.06 1.63.84 1.88 1.37a41 41 0 0 1-6.15 1.35c-6.5.86-12.73-2.25-19.24-1.27-7 1-12.36 4.28-19.66 2.45a.17.17 0 0 0-.09.32c5.69 1.73 10.72.62 16.32-.91 5.4-1.47 10.67-.5 16 .11-3.67.33-7.33.74-11 .93-.05 0-.05.09 0 .08 5.28-.3 10.56-.38 15.84-.49a44.83 44.83 0 0 1-15.11 4.6c-2.62.29-6.23.39-8.17 2.45s-3.39 5.31-7.34 4.34a10.34 10.34 0 0 0-4.49-.61c-4 .55-7.91 2.33-11.56 4-.23.11 0 .44.2.34 4.63-2 10.65-4.87 15.69-3.17 2.92 1 4.38-.18 6.25-2.35 3.74-4.35 8.51-3.9 13.68-4.77a27.15 27.15 0 0 0 4.23-1.1l-.3.16c-3.18 1.87-4.51 5.36-5.71 8.64-4.69 12.81-26.21 11-37.19 14.09a.15.15 0 0 0 .08.3c11.19-2.82 24-1.44 34.21-7.63 3-1.81 4-5.6 5.13-8.65 2.39-6.48 9.16-8.46 15.15-10.52l-.67.63a29 29 0 0 0-3.84 2.87c-3.41 2.26-7.19 5.2-7.79 9.46 0 .09.11.13.14 0 .81-3.07 2.81-5 5-6.73a19.78 19.78 0 0 0-3.09 5.5 15 15 0 0 0-.77 3.23 6.19 6.19 0 0 0-.17 3.78c0 .37 0 .74.05 1.11-3.39 12.43-18.51 16.61-30.25 16.31-.11 0-.11.16 0 .17 10 .75 26.87-2.84 30.47-13.85v.48c.12 1.15.2 2.25.23 3.32a.52.52 0 0 0-.11.19 12 12 0 0 1-3 5.52 10.46 10.46 0 0 1-6.87 2.92.06.06 0 0 0 0 .12 10.89 10.89 0 0 0 4.18-.58c-4.61 3.75-11.19 5.24-17.08 5.46-11.45.44-22.33-4-32.34 3.65a.33.33 0 0 0-.11.17 11.1 11.1 0 0 0-5.6 2.21c.72-4.93 3.65-9.44 6.69-13.27.15-.2-.11-.47-.28-.28-3.44 4-6.3 8-7.67 13.18a13.55 13.55 0 0 0-.35 2.79 7.17 7.17 0 0 0 .54 5.06 32.59 32.59 0 0 0 1.06 3.38c-.52-1.11-1-2.23-1.48-3.36-1.81-4.58-1.59-9.66-.39-14.35 2.25-8.8 9.52-15.93 16.59-21.12.34-.24 0-.81-.33-.56-6.95 5.06-14 11.65-17.08 19.89-3 8-1.61 14.49 1.5 21.43-.55-.77-1.09-1.55-1.57-2.37-2.61-4.46-3.57-9.6-3.77-14.69a.18.18 0 0 0-.37 0 42 42 0 0 0 1.76 12.25c1.18 4 4.13 6.8 5.6 10.58a.86.86 0 0 0 .31.38l-.24.17a60.85 60.85 0 0 1-8.9-15.52c-1.78-11 .31-20.8 6.49-30.38A38.86 38.86 0 0 1 76.31 84.7c.49-.06.52-.79 0-.78A35.55 35.55 0 0 0 52.39 94.1a12.9 12.9 0 0 1 5.79-5.56c.2-.1.06-.46-.16-.37a12.92 12.92 0 0 0-5.92 4.61c2.2-4.35 5.14-7.56 10.1-9.21a.28.28 0 0 0-.15-.55c-4.94 1.24-10.66 5.64-11.5 11-.06.39.43.73.7.5a7.72 7.72 0 0 0-.3 1l-.7.74c.25-3.54.69-7 2.62-10.14 1.65-2.67 4.69-4.34 6.72-6.7.21-.24-.14-.6-.35-.35-2.41 2.75-5.59 4.6-7.71 7.62a15.26 15.26 0 0 0-2.28 7.17 24.51 24.51 0 0 1 .24-12.61 25.39 25.39 0 0 1 4-7 66.76 66.76 0 0 1 8.39-6.63c.19-.13 0-.45-.19-.32-1.66 1.08-3.48 2.17-5.19 3.39a94.19 94.19 0 0 0 8.07-9.34c3.37-4.86 6.62-8.21 11.86-11 4.65-2.48 9.54-4.47 14.21-6.93.34-.18 0-.67-.3-.51-6 2.81-12.06 4.32-17.39 7.14.08-.15.16-.3.23-.45C77 45.19 80 40.27 83.27 35.39l.3-.38c3.85-4.82 8.69-8.34 13.68-11.71 18.33-7.36 38-12.35 56.55-2.51.39.2.73-.38.34-.58-13.87-7.46-32.06-8.22-47.35-2.89a91.86 91.86 0 0 1 19.13-6.66zM53 146l-.11-.31a.74.74 0 0 0 .17.09c.03.05 0 .12-.06.22zm10.45-87.72l-.55.44-.15.05.94-.83zM32.94 232.46l.05-.34.27.16a1 1 0 0 1-.32.18zm24.79-12.93c-1.07 3-2.81 6.9-5.73 8.65l-1.55.45c1.33-1.12 2.52-2.52 3.85-3.81a11.17 11.17 0 0 0 3.27-5.55zm2.73 7.19l.24.25-.3-.08zM64 228.3zm-13.83.58l1.13-.32a6.32 6.32 0 0 1-1.3.44zm14-.36h-.05zm28.14 16.21l.29.11h-.25zm4.82.76l-.06-.07 1.1.44-1-.17a.8.8 0 0 0-.02-.2zm-14.24-6.19l-.29-.17.57.29zm-18.58-16.12c-.08-.23-.15-.46-.22-.69l.34.67zm13.74 15.39l.07-.11a24.73 24.73 0 0 0 3.7 2.48l.06.06c.37.24.73.45 1.1.65a36.85 36.85 0 0 1-4.93-3.08zm47.46 21.26c-1.53-5.48-7.2-7.5-11.46-10.82-3.94-3.07-7.47-6.72-11.37-9.87a41.22 41.22 0 0 0-9.52-5.48c-2.55-1.17-5.17-5.9-7.27-7.82s-4.39-3.77-5.45-6.59a3 3 0 0 0-.86-1.53c-1-.66-4.35-1.51-3.81-3.12.33-1-.17-1.77-.5-2.7a28.74 28.74 0 0 0-4.66-8.35c-.13-.16-.41.06-.29.22 2.18 2.89 5.51 7.52 4.45 11.35-.3 1.09.69 1.67 1.36 2.15 2.63 1.88 3.48 4.17 5.56 6.51 2.65 3 5.92 5.37 8 8.86a7.66 7.66 0 0 0 4.16 3c5.39 2 9.41 5.51 13.75 9.17 4.84 4.08 12.7 7.81 16.23 13.43a63.11 63.11 0 0 0-14.46-9.82c-11.52-5.71-27.25-9-37.48-17.5a.71.71 0 0 0-.45-.53l-.29-.1a27.29 27.29 0 0 1-7.95-11.69c-.14-.79-.27-1.57-.4-2.3a73.56 73.56 0 0 0-3.9-14.68c-2.12-5.44 1.88-10.31.62-16-.81-3.68-2.22-6.85-2.42-10.71-.21-4.06.22-8.15.26-12.21a.31.31 0 0 0-.62 0c-.06 4.07-.33 8.14-.37 12.21 0 3.85 1.17 7.31 2.12 11 1.19 4.64-2 7-2.49 11.05-.44 3.39 1.21 6.46 2.28 9.61s1.53 9.25 2.94 14.48L59 217.08c-.73-1.27-1.48-2.47-2.32-3.67-1.5-2.12-.21-5.31-.19-7.7 0-1.69-1.49-3.29-2.56-4.41-2.67-2.77 1.38-8.78 1-12.31 0-.22-.37-.23-.36 0 .15 3.82-3.37 6.61-3.09 10.21a5 5 0 0 0 .53 2.36c1.66 2.77 2.46 4.76 1.48 8.25-.76 2.7 1.24 4.91 2.58 7 .66 3.14-1.78 5.85-3.8 8.12-1.53 1.72-2.59 3.45-4.26 4.54l-1.91.43a8.27 8.27 0 0 0 1.63-1.57c2.76-3.59 6.09-7.09 5.59-11.84 0-.34-.55-.35-.53 0 .14 2.57-.92 4-2.62 5.74a59.22 59.22 0 0 0-3.81 5c-1.48 1.9-3.74 2.54-6 3.21 2.73-2.5 4.55-5.65 7.61-8.64 4.08-4 4.42-8.4 3.22-13.89 0-.21-.41-.17-.38.05a24.8 24.8 0 0 1-.15 7.85c-.53 2.73-4.14 4.64-5.94 6.5a57.06 57.06 0 0 0-3.39 4.69 15.38 15.38 0 0 1-4.45 3.54l.15-.29c1.13-2.33 1.13-4.23 3-6.44 1.51-1.83 3.64-3.24 5.38-4.85 2.6-2.41 3.69-6 4-9.48.41-5-1.77-11.47.48-16a.11.11 0 0 0-.2-.11c-4.55 6.94.8 15.92-4.81 23-2.07 2.62-5.13 4.31-7.28 6.89-.91 1.09-2.47 6.67-3.88 8.57-.19-.15-.38-.3-.55-.45.28-2.24.37-4.47.75-6.73.66-4 4-7.14 6.33-10.22 3.19-4.14 6.68-8.91 5.35-14.39-.09-.37-.6-.2-.55.15.55 3.58-1 6.48-3.19 9.1a14 14 0 0 0-.94-2.06l-.16-.29a13.12 13.12 0 0 0-1.47-2.31 22.75 22.75 0 0 1-2.76-5c-1.47-4.19 0-8.59 2-12.32a51.52 51.52 0 0 1 3.9-6.1c6-5.75 11.28-12.44 11-20.87a18.34 18.34 0 0 1 .89 4c0 .3.48.31.47 0a28.62 28.62 0 0 0-1.1-6.1 14.48 14.48 0 0 0-.86-2.42 14.31 14.31 0 0 0-.51-1.37c-.36-1.71-.45-3.39.7-4.21a5.41 5.41 0 0 0 1.74-2.83c1.64-4.59-2.79-9.91-4-14.07.12-2.71 2.94-3.77 5.21-4.37 3.87-1 7.81-1.06 11.19-3.44a.23.23 0 0 0-.23-.4c-2.81 1.51-6.15 1.49-9.33 1.84 9.33-6.21 19.35-2.47 29.66-1.09 4.52.61 8.79-.62 12.94-2.23.36-.14 5.58-3.24 8.19-4.85v.21c-3.48 3.44-6.26 6.56-11.2 8.21-6.3 2.11-12.65.31-19-.35-.12 0-.15.19 0 .21 6.7 1.16 12.6 3 19.39 1.43a18.08 18.08 0 0 0 7.4-3.93c-4.34 4.73-9.34 10.42-16 7a11.55 11.55 0 0 0-5.94-2.93c-.12 0-.14.18 0 .21 3 .76 5 3.06 6.71 5.5a17.69 17.69 0 0 0-2.49-2c-2.06-2.51-5.85-2.88-8.93-3.14-4.88-.41-9.39 1.61-13.12 4.6-.2.16.08.43.28.28 2.51-2 6.78-3.3 11-3.5l-.36.1c-6.23 0-11 4.35-14.62 9-.1.13.12.29.22.17a21.42 21.42 0 0 1 6.07-5.1c.55-.3 1.11-.55 1.68-.8-12.26 9.18-9.78 28.31-6.35 41.75.13.52.92.3.8-.22-1.69-7.44-2.88-15-2.22-22.62a24.1 24.1 0 0 1 1.29-6.52 31.29 31.29 0 0 0 .86 19.92c.13.32.64.19.53-.14a31.57 31.57 0 0 1 .73-22.75A36.55 36.55 0 0 0 64 153a.18.18 0 0 0 .36 0 31.18 31.18 0 0 1 1.39-9.36 32.29 32.29 0 0 0 .65 9.45.28.28 0 0 0 .11.18 19.79 19.79 0 0 0 1 5.36c1.55 4.46 6.26 7.07 9.45 10.55.46 1.24.89 2.48 1.24 3.76.81 2.92 1.05 6.39 3.07 8.83a10.77 10.77 0 0 0 6.42 3.49 21.68 21.68 0 0 1 0 11c.09-2.92.33-6-.79-8.7-1-2.41-3.21-2.67-5.28-3.88-2.91-1.7-5.17-3.28-6.32-6.74-.61-1.83-.52-4.06-1.07-6-1-3.52-5.08-5-6.67-8.19-.08-.16-.31 0-.24.14 1.41 3.24 4.44 5 5.82 8.35 1.25 3-.16 6.44 2.08 9.21 2 2.43 4.42 3.44 7.13 4.88 4.86 2.57 4.81 6.2 4.85 11.18a.23.23 0 0 0 .44.08c.07.09.23.13.28 0a21.9 21.9 0 0 0 1.55-10.37c.72 3.39 1.79 6.55 1.39 10.21A26 26 0 0 0 92 208.89a.52.52 0 0 0 1-.28c-1.2-5-.62-8.81-.06-13.79a22.75 22.75 0 0 0-.82-8.7l.6.13c2.58 6.31.51 12.37.86 19.21a.43.43 0 0 0 .85 0c.27-6.58 2-12.39.6-18.5a11.09 11.09 0 0 1 1.15.54c1.8 4.77 1.57 9.71 1.26 14.75-.13 2-.54 4.32-.8 6.6a39.47 39.47 0 0 1-.85-6.42.27.27 0 0 0-.55 0 68.6 68.6 0 0 0-.16 8.54 12.68 12.68 0 0 1-.68-2.1c-.07-.31-.52-.17-.47.13a16.08 16.08 0 0 0 1.49 4.85 28.83 28.83 0 0 1-6-5.32 27.36 27.36 0 0 1-1.36-8.88.18.18 0 0 0-.37 0 26.44 26.44 0 0 0 1.12 8.16q-.6-.79-1.15-1.64c-2.85-4.49-3.18-9.9-4.51-14.94a.41.41 0 0 0 .26-.61c-.09-.14-.2-.26-.3-.38a4.92 4.92 0 0 0-3.32-4.09.13.13 0 0 0-.1.24 4.72 4.72 0 0 1 2.36 2.54 3.89 3.89 0 0 1 .12.44c-1.91-1.38-4.41-1.5-5.7-4.39-.52-1.17-1.89-3.74-3.67-3.14-5.07 1.71-5.07-9.68-5.29-12.28-.42-5.07-.52-10.1-1.89-15a.3.3 0 0 0-.57.16c2.23 8.48.13 18.18 3.59 26.34 1.33 3.14 4.57 1.1 6.31 3.54 1.17 1.65 1.08 2.76 2.64 4.13s3.09.34 4.8 2a10.74 10.74 0 0 0 .14 1.22.26.26 0 0 0 .24.2c.89 4.36 1.22 8.79 2.89 13a20.42 20.42 0 0 0 1.08 2.25 12.55 12.55 0 0 1-4.31-7.88c-.47-4-1-8.25-5.7-8.6-.29 0-.29.42 0 .45 6.27.47 4.27 9.33 6.27 13.51 1.54 3.2 4.68 5.61 7.79 7.88l.68.76c.15.25.29.5.45.75a12.29 12.29 0 0 0 2.43 2.73c-2.79-.66-5.42-1.63-7.33-4-.08-.1-.23 0-.17.13 2.89 4.55 8.1 5.82 13.13 7.26l.85.53c1.63 1 3.36 1.85 5 2.88a28.35 28.35 0 0 1 8.73 15c-1.51-1.64-3.08-3.23-4.52-4.88a37.39 37.39 0 0 0-11.58-9.09c-.16-.08-.29.15-.14.23 4.42 2.43 7.67 5.9 10.78 9.79 1.6 2 3 4.09 4.8 5.94.53.55 1.09 1.06 1.66 1.57-3.42-2.39-7-4.61-10.29-7.33-.06-.05-.16 0-.09.09 5.23 4.81 11.4 8.39 16.29 13.6 3.25 3.46 5.32 7.55 7.16 11.78.38 1.4.78 2.79 1.25 4.17a51.6 51.6 0 0 0-4.37-4.84zm112-36.53c-1.75 3.52-6.07 6.06-8.28 9.29l-.49.71c1.13-4.55 2.84-8.43 2.44-13.39-.23-2.85-1.14-5.58-1.39-8.43a15.56 15.56 0 0 1 0-1.78c.1.53.21 1.06.34 1.6 1.58 6.62 4.6 11.74.72 18.47a.18.18 0 0 0 .31.18 15.14 15.14 0 0 0 2.71-11 64.3 64.3 0 0 0-2.11-8.05 20.57 20.57 0 0 1-.59-8c1.09 7.86 7 15.11 3.34 23.52-.12.27.26.52.41.24 4.33-8-.59-15.52-2.06-23.48.16.42.34.85.53 1.29 2.91 6.6 6.23 11.32 4.12 18.83zM226 238.16c0-1.3-.1-2.6-.19-3.92-.19-2.87 2.23-6.83 2.68-9.77.62-4.05-.14-8-.19-11.93a18.18 18.18 0 0 0 .4 2.69 46.84 46.84 0 0 1 1.39 9.9c0 3.11-1.55 6.24-2.11 9.34a21.63 21.63 0 0 0-1.98 3.69zm-16 10.19c.15 2.1-.25 3.84.32 5.9.38 1.37 1.76 2.79 2.59 3.92a16.91 16.91 0 0 1 2.4 4.66c-5-3.13-6.9-7.58-7.14-13.56a14.59 14.59 0 0 0-1-5c.68-.08 1.36-.17 2-.3a20.36 20.36 0 0 1 .83 4.38zm3.32-8.82a4.7 4.7 0 0 1-1.06.39 20 20 0 0 0 1.78-.91 3.19 3.19 0 0 1-.7.52zM200.59 259zm6.24 2.51a.59.59 0 0 0-.35-.33c-3.8-3.5-4.77-9.58-5.58-14.56q-.11-1-.2-2a.81.81 0 0 0 .26 0h.48c2.5 5.32 2 11.65 5.79 16.42.15.19.48-.07.33-.26a10.79 10.79 0 0 1-.92-1.51 38.31 38.31 0 0 0 5.16 5.38c.74.66 1.48 1.35 2.23 2a75.94 75.94 0 0 1-7.2-5.11zm6.6 3.29a28 28 0 0 1-7.31-6.69h-.06c-1.67-4.33-1-9.35-2.7-13.55l1.56-.08a16.22 16.22 0 0 1 1.31 6.09 15.92 15.92 0 0 0 1.22 5.17 14.74 14.74 0 0 0 8.13 7.94 16.16 16.16 0 0 1 .52 3c-.89-.68-1.82-1.27-2.67-1.85zm-25.74-24.5l-.17-.07zm10.92 17.8a7.27 7.27 0 0 1-.69-1.46l.12.19a7.61 7.61 0 0 0 1 1.66l-.39-.25a.5.5 0 0 0-.04-.13zm1.64 1.68a23.52 23.52 0 0 0 2.74 2.55c-.62.72-1.27 1.41-2 2.06-.08-1.55.01-3.29-.74-4.6zm23 27.78h-.17l.2-.5c-.01.18-.02.34-.02.51zm-5.83-20.93c-.21-4.26-2.66-7.93-4.91-11.49-1.67-2.65-1-6.93-1.72-10a9.68 9.68 0 0 0-.48-1.42q.59-.15 1.16-.33c.88 2.55.46 5.55 1 8.22s2.43 4.11 3.91 6.08 1.1 5.77 1.04 8.96zm-1.61-25.55l.19-.08-.19.27zm.76-1.23a.5.5 0 0 0 .18-.07l-.17.27a1.08 1.08 0 0 0-.01-.19zm18.79-46.26c0 .16.06.31.09.47 0-.15-.09-.3-.13-.45zm-34.27 71.24a19 19 0 0 0 2.35-2.15q.72.55 1.47 1.07l-.65.75-1.37 1.57-.46.51a2.11 2.11 0 0 0-.13.18.25.25 0 0 0-.27.17c-.11.27.06.54.37.46.49-.12.92-.7 1.25-1 .67-.69 1.3-1.42 1.94-2.14.67.45 1.36.88 2.05 1.3a16.91 16.91 0 0 0-4.32 5 24.88 24.88 0 0 1-2-4.47 6.91 6.91 0 0 1-.23-1.24zm1.42 2.23a.24.24 0 0 0-.15-.29c.1-.03.21-.02.15.3zm1.08 4a21 21 0 0 1 4.58-5.12l.05-.05 1.07.64a41 41 0 0 0-4.84 6.08zm1.13 2a75.09 75.09 0 0 1 5.16-6.21l1.62 1a31.83 31.83 0 0 0-5.52 7.69c-.39-.85-.81-1.66-1.26-2.46zm8.83-3.83c-1.82 3.21-4.21 6.2-5.36 9.74a6.36 6.36 0 0 0-1.44-2.29.6.6 0 0 0-.33-.16l-.16-.37a61.38 61.38 0 0 1 5.65-7.95.32.32 0 0 0 .06-.09q.84.51 1.68 1.05a.19.19 0 0 0-.09.09zm12.6-.51l-.21-.34a.42.42 0 0 0 .23-.27c.18-.61.33-1.22.51-1.82l.48.37a9.26 9.26 0 0 0-1.01 2.08zm-2.49-4.88l.79.67a4.53 4.53 0 0 0-.3 1.25c-.15-.62-.35-1.26-.49-1.91zm.9 2.71a.43.43 0 0 0 .41-.41c0-.37.09-.72.15-1.07l.81.65a6.68 6.68 0 0 0-.61 1.78q-.32-.5-.75-.94zm11.11-31.17a12.26 12.26 0 0 0 1 3.15c-2.34-.27-4.86-.75-4.3-3.06a.23.23 0 0 0-.45-.12c-1 2.52 1.07 3.63 3.19 4.35 1.54.52 3.17.78 4.74 1.16a4.15 4.15 0 0 1 3 2C245.25 253 209 254.27 223 266.8c2.62 3.77 4.09 6.85 3 11.81a50.1 50.1 0 0 1-1.9 5.57c-1.25 2-2.68 4.08-3.16 6.27-2.21-2.9 2.38-7.28 2.68-10.36v-.3c1.84-3.08.77-7.48-.94-10.37a.2.2 0 0 0-.35.2 9.22 9.22 0 0 1 1.05 6.18c0 .21-.08.41-.13.61-.29-3.52-2.14-6.75-2.71-10.67 0-.28-.51-.21-.49.07.17 2 .57 3.93.91 5.84a16.23 16.23 0 0 1-1.71-7.2c.05-2.79.21-5.27-1-7.81a8.83 8.83 0 0 0-1.42-1.68 12.06 12.06 0 0 1-3.11-6.44 18.61 18.61 0 0 0-1.53-5.36l.54-.22a.24.24 0 0 0 .24 0 6.82 6.82 0 0 0 1.45-.85 28.8 28.8 0 0 0-.55 3.48c-.36 3.93 2.77 7.58 4.8 10.58.25.36.82 0 .59-.35-1.95-3.32-4.16-6.21-4.27-10.23a11.55 11.55 0 0 1 .39-3.08 16.88 16.88 0 0 0 3.54-4 12.09 12.09 0 0 1-.14 4.42c-.37 1.62-.82 3.15-1 4.81 0 .23.35.27.4.05.53-2.53 1.78-4.83 2.22-7.39.41-2.36-.41-4.08.32-6 .7 2.67 2.32 5.34.66 7.67a14.31 14.31 0 0 0-2.69 8.39.31.31 0 0 0 .62 0c.26-6.59 6.91-8.58 3.78-15-1.41-2.91 2.18-10.23 2.91-13.31.22-.92.42-1.86.6-2.8.08 1.1.16 2.21.2 3.34.13 3.53-1.39 6.47-1.9 9.83-.35 2.37.27 5 .54 7.6a5.62 5.62 0 0 0-.07 1.12.49.49 0 0 0-.2.3c-.35 1.75-2.27 2.67-2.94 4.42-.94 2.48-.15 5.38-2.61 7.15-.09.06 0 .2.08.14 2.07-1.22 2.3-3.39 2.8-5.56a5.58 5.58 0 0 1 2.82-3.74 1.87 1.87 0 0 0 .68-.79 4.21 4.21 0 0 0 .56.54c-.78 1.63-2.63 2.56-3.28 4.34-.11.31.33.44.5.21 1-1.29 2.57-2.17 3.5-3.46.29 1.6-2.59 3.08-3.41 3.79-2.08 1.79-3.43 5.73-4.49 8.24-.12.29.38.5.51.21 1.64-3.55 3.6-6.59 6.76-8.72a.53.53 0 0 0 .42-.21l.14-.14c.17-.11.33-.22.52-.33a3.21 3.21 0 0 0 .83-.65c2.1-1.16 4.94-1.94 3.3-4.81 0-.05-.12 0-.1 0a1.77 1.77 0 0 1-1.16 2.63 3.67 3.67 0 0 0 .4-.78c.4-1.25-.57-2.47-1.34-3.33a.17.17 0 0 0-.26.2c.58.9 1.09 1.89.56 2.93a3.39 3.39 0 0 1-.73.91 6 6 0 0 0-.1-.75 2.92 2.92 0 0 0-1.24-1.63c-2.29-1.82 2.32-8.42 3.42-10.32 1.74-3 4.69-4.9 6.23-7.89a.2.2 0 0 0 .21-.13 19.09 19.09 0 0 0 .58-12.21c-.9-3.61-2.59-6.59-3.77-9.77 3.09 5.35 6.1 9.38 5.31 16.18 0 .24.38.29.42.06a20.59 20.59 0 0 0-1.37-11.86c-1.82-4.6-4.88-7.38-5-12.31 1.6 6.73 8.28 11.82 7.91 19.39 0 .2.27.18.3 0 .69-5.6-2.25-10.06-4.63-14.73 5 7.94 8.62 14.09 4.53 23.65-1.77 4.05-7.57 7.99-6.35 13z" fill="#0d465b"/><path class="cls-1" d="M38.83 233.5a.07.07 0 0 0 0 .14.07.07 0 0 0 0-.14z" fill="#0d465b"/><path class="cls-1" d="M98.16 162.06c-.59-3.25-3.48-5.34-4.74-8.37s-1.5-6.08-3.22-8.93a27.32 27.32 0 0 0-4.78-5.76c-2.77-2.58-6.44-3-9.29-.44s-1.89 7.61-1.29 10.69a.21.21 0 0 0 .41-.05c-.29-4.53-.51-13.68 7.21-10.34a13.2 13.2 0 0 1 5.18 4.83.7.7 0 0 0-.44.2 5.22 5.22 0 0 0-1.46 3.54.56.56 0 0 0 0 .07c-.18.27-.36.55-.55.82a4.91 4.91 0 0 0-1.12.72 12.29 12.29 0 0 0-3.86 8c0 .19.26.18.29 0a10.25 10.25 0 0 1 3.56-6.24 5.15 5.15 0 0 1 2.94-1.37c1.17-.1 2.1.83 3.12 1.22a.32.32 0 0 0 .14 0 6.18 6.18 0 0 0 .75.6.61.61 0 0 0 .23.09c.79 2.44 1.5 4.76 3.41 6.72a8.8 8.8 0 0 1 1 1.29 5.06 5.06 0 0 1-3 3.07 7.35 7.35 0 0 1-4.72-.38c-.1 0-.14.12 0 .16 2.94 1.09 6.81 1.28 8.31-1.85a5.19 5.19 0 0 1-.47 4.93c-.51.86-.19 1.62 0 2.49.08.4.65.22.6-.17-.37-2.45 2.17-3.49 1.79-5.54zm-7.52-11.81a.37.37 0 0 0 0-.11 3.29 3.29 0 0 0-.49-1 .44.44 0 0 0 .23-.23c.13.31.24.62.35.92l.21.62-.24-.13z" fill="#0d465b"/><path class="cls-1" d="M213.56 162.83c-4.4 1.32-7.51-.7-11.69-.54a6.28 6.28 0 0 0-2.53 1.16c-2.81 1.68-4.45 3.32-8.05 3.23 3.34.13 5.5-1.13 8.16-3.1 3.43-2.54 5.7-.08 8.9.14a12 12 0 0 0 5.25-.79c.09.02.05-.13-.04-.1z" fill="#0d465b"/><path class="cls-1" d="M220.14 163.2a3.59 3.59 0 0 0 1.66-4.25c-.24-3.25-2.8-6.9-3.94-9.51-3.67-8.39-10.75-18.27-6.74-27.6 0-.1-.1-.19-.15-.09-2.33 5.18-1.7 10.13.55 15.27 1.64 3.75 3.38 7.46 5 11.2 1.45 3.3 4.81 8.43 4.47 12.34l-.06.17a6.7 6.7 0 0 1-5.25 2.14v.06a8.54 8.54 0 0 0 4.1-.59c-1.39 1.66-3.49 2-5.23 3.28s-2.56 3.36-4.44 4.56a.08.08 0 0 0 .08.13c2.34-1 3.4-3.61 5.7-4.78a28 28 0 0 0 2.76-1.42l.15-.07c-.23.3-.47.59-.69.91-.74 1.07-.7 2.51-1.91 3.23-.06 0 0 .13.06.1 1.12-.48 1.31-1.26 1.92-2.26s1.25-1.82 1.84-2.75z" fill="#0d465b"/><path class="cls-1" d="M171 135.15l-.16-.06c-.11-.07-.22.12-.1.18a.34.34 0 0 0 .24.07c.09-.01.12-.17.02-.19z" fill="#0d465b"/><path class="cls-1" d="M168.92 128.64c-.92-.35-2.15.86-2.59 1.55-.05.08.05.2.13.13.38-.29.74-.59 1.13-.85a4.89 4.89 0 0 1 1.33-.54.15.15 0 0 0 0-.29z" fill="#0d465b"/><path class="cls-1" d="M168.21 129.55a2.13 2.13 0 0 0-1.35.85.06.06 0 0 0 .09.07 2.66 2.66 0 0 1 1.32-.68.13.13 0 0 0-.06-.24z" fill="#0d465b"/><path class="cls-1" d="M168.68 130.34c.1-.07 0-.28-.09-.22a3.48 3.48 0 0 0-1.35.89c0 .05 0 .15.08.11.43-.31.94-.48 1.36-.78z" fill="#0d465b"/><path class="cls-1" d="M168.29 132.44c.2-.25.42-.47.63-.7a.15.15 0 0 0-.21-.21 5.29 5.29 0 0 0-.64.69c-.13.15.1.38.22.22z" fill="#0d465b"/><path class="cls-1" d="M169.56 132.44c-.14.14-.17.2-.32.38s.06.26.15.15.19-.22.31-.38-.04-.25-.14-.15z" fill="#0d465b"/><path class="cls-1" d="M170.36 133.43l-.13.13c-.05.05 0 .13.08.08l.13-.13c.05-.06-.03-.14-.08-.08z" fill="#0d465b"/><path class="cls-1" d="M171.57 133.5a.13.13 0 0 0 0-.19.22.22 0 0 0-.18-.08.07.07 0 0 0-.06.07.35.35 0 0 0 0 .07c-.03.08.12.25.24.13z" fill="#0d465b"/><path class="cls-1" d="M172.59 133.69a4.71 4.71 0 0 0-.23-.58c0-.08-.16 0-.14.06a4.52 4.52 0 0 0 .16.58c.05.12.25.08.21-.06z" fill="#0d465b"/><path class="cls-1" d="M173.73 133.09a1.23 1.23 0 0 0-.13-.25c-.09-.13-.31 0-.22.13a1.18 1.18 0 0 1 .13.25c.07.14.29.01.22-.13z" fill="#0d465b"/><path class="cls-1" d="M174.07 132.3a.52.52 0 0 0 .17.3.12.12 0 0 0 .18-.14 1.1 1.1 0 0 1-.1-.23c-.04-.17-.32-.1-.25.07z" fill="#0d465b"/><path class="cls-1" d="M174.42 131.47a1 1 0 0 0 .4.47.14.14 0 0 0 .19-.19c-.07-.12-.22-.31-.26-.42a.18.18 0 1 0-.33.14z" fill="#0d465b"/><path class="cls-1" d="M174.82 130.88a1.73 1.73 0 0 0 .4.33c.12.06.2-.1.1-.17a2.7 2.7 0 0 1-.36-.31.11.11 0 0 0-.14.15z" fill="#0d465b"/><path class="cls-1" d="M175.09 130.1a3.26 3.26 0 0 0 .36.34c.13.1.26-.1.13-.17a1.48 1.48 0 0 1-.38-.28.07.07 0 0 0-.11.11z" fill="#0d465b"/><path class="cls-1" d="M175.82 129.87c.18.13.37-.21.13-.3a1.09 1.09 0 0 0-.76 0 .06.06 0 0 0 0 .12.89.89 0 0 1 .63.18z" fill="#0d465b"/><path class="cls-1" d="M223.88 127.43a1.24 1.24 0 0 0-1.44.36.08.08 0 0 0 .09.12 8.21 8.21 0 0 1 1.31-.18.15.15 0 0 0 .04-.3z" fill="#0d465b"/><path class="cls-1" d="M224 128.34c.06 0 .07-.12 0-.13a2.26 2.26 0 0 0-1.45.39c-.08 0 0 .15.07.12a5.93 5.93 0 0 1 1.38-.38z" fill="#0d465b"/><path class="cls-1" d="M223.75 129c.07 0 0-.16 0-.15a1.07 1.07 0 0 0-.68.35c-.05.05 0 .15.08.11a5.41 5.41 0 0 1 .6-.31z" fill="#0d465b"/><path class="cls-1" d="M223.42 130.07c.2-.17.42-.28.63-.42v-.1a1.8 1.8 0 0 0-.65.47s-.02.09.02.05z" fill="#0d465b"/><path class="cls-1" d="M224.44 130.65s0-.11-.06-.08a5.34 5.34 0 0 0-.46.38c-.06.05 0 .13.08.08a4.87 4.87 0 0 0 .44-.38z" fill="#0d465b"/><path class="cls-1" d="M224.67 131.58c-.05.07 0 .17.1.1a3.81 3.81 0 0 0 .32-.4c0-.06-.05-.13-.1-.08a2.5 2.5 0 0 0-.32.38z" fill="#0d465b"/><path class="cls-1" d="M225.37 132.28c-.05.06 0 .15.09.09a8.07 8.07 0 0 0 .57-.57.07.07 0 0 0-.08-.11 2 2 0 0 0-.58.59z" fill="#0d465b"/><path class="cls-1" d="M226.74 132.63a3.92 3.92 0 0 1 .13-.46.13.13 0 0 0-.21-.12.79.79 0 0 0-.28.48c-.04.24.32.34.36.1z" fill="#0d465b"/><path class="cls-1" d="M227.9 132.86a.64.64 0 0 0-.1-.46c-.07-.12-.28 0-.23.1s.12.26.18.39a.08.08 0 0 0 .15-.03z" fill="#0d465b"/><path class="cls-1" d="M228.7 132.24a2.18 2.18 0 0 0-.32-.19.1.1 0 0 0-.1.17 2 2 0 0 0 .31.19.1.1 0 0 0 .11-.17z" fill="#0d465b"/><path class="cls-1" d="M229.25 131.81c.09-.19 0-.28 0-.49s-.39-.16-.36 0a.74.74 0 0 0 .17.46.12.12 0 0 0 .19.03z" fill="#0d465b"/><path class="cls-1" d="M229.6 130.1a.94.94 0 0 0 .27.21.08.08 0 0 0 .1-.13.89.89 0 0 0-.27-.2.08.08 0 0 0-.1.12z" fill="#0d465b"/><path class="cls-1" d="M229.6 129.45a1 1 0 0 0 .61 0 .08.08 0 0 0 0-.13 1 1 0 0 0-.61 0 .1.1 0 0 0 0 .13z" fill="#0d465b"/><path class="cls-1" d="M230.48 128.57c.11-.05.05-.22-.06-.22a4.81 4.81 0 0 1-.53 0c-.19 0-.27.24-.08.29a.82.82 0 0 0 .67-.07z" fill="#0d465b"/><path class="cls-1" d="M216.15 130.93c.06 0 .12-.07.07-.11s-.32-.18-.47-.29-.06 0 0 0a1.07 1.07 0 0 0 .4.4z" fill="#0d465b"/><path class="cls-1" d="M182.11 127.29a5.41 5.41 0 0 1-.76-1.5.06.06 0 0 0-.12 0 4.17 4.17 0 0 0 .77 1.55c0 .09.15.01.11-.05z" fill="#0d465b"/><path class="cls-1" d="M182.46 128.08v.63a.07.07 0 0 0 .14 0v-.63c0-.21-.15-.08-.14 0z" fill="#0d465b"/><path class="cls-1" d="M182.4 131.53a.82.82 0 0 1 .22-.47.09.09 0 0 0-.13-.13.74.74 0 0 0-.29.57c-.01.12.18.15.2.03z" fill="#0d465b"/><path class="cls-1" d="M181 128.34a27 27 0 0 0 .08 3.55.07.07 0 0 0 .13 0 26.44 26.44 0 0 0-.17-3.55H181z" fill="#0d465b"/><path class="cls-1" d="M202 198.19l-.08-.08c0 .09 0 .07.09.09s-.01 0-.01-.01z" fill="#0d465b"/><path class="cls-1" d="M207.24 197.74a10.05 10.05 0 0 1-3.87.28 7.3 7.3 0 0 0 3.89-.23l-.02-.05z" fill="#0d465b"/><path class="cls-1" d="M210.74 197.49a.08.08 0 0 0 .11 0c.6-.55 1.44-.29 2.15-.43v-.09a3 3 0 0 0-1.91.13c-.09 0-.27.26-.37.16a.69.69 0 0 0-.27-.16c-.24-.1-.57.15-.76.24a.8.8 0 0 1 1.05.15z" fill="#0d465b"/><path class="cls-1" d="M213.49 196.81v0z" fill="#0d465b"/><path class="cls-1" d="M211.13 189.42a.08.08 0 0 0 0 .15.08.08 0 0 0 0-.15z" fill="#0d465b"/><path class="cls-1" d="M211.27 191a7.51 7.51 0 0 0 .92-1.38c0-.06-.06-.12-.1-.06a9.75 9.75 0 0 1-.93 1.32c-.06.12.05.19.11.12z" fill="#0d465b"/><path class="cls-1" d="M210.55 192c0 .09.11.13.14 0a1.18 1.18 0 0 0 .08-.53.07.07 0 0 0-.14 0 1.29 1.29 0 0 1-.08.53z" fill="#0d465b"/><path class="cls-1" d="M209.78 192.44a.07.07 0 0 0 0-.14.07.07 0 0 0 0 .14z" fill="#0d465b"/><path class="cls-1" d="M210.26 189.49a9.57 9.57 0 0 1-.54 1.93c0 .07.09.12.13.05a6.7 6.7 0 0 0 .48-2s-.07-.01-.07.02z" fill="#0d465b"/><path class="cls-1" d="M210.12 192.69a1.07 1.07 0 0 0 .28 0 .11.11 0 0 0 0-.22 1.16 1.16 0 0 0-.28 0c-.19-.09-.19.23 0 .22z" fill="#0d465b"/><path class="cls-1" d="M208.86 189.5v.17z" fill="#0d465b"/><path class="cls-1" d="M208.83 192.56a6.06 6.06 0 0 0 0-2.55 8.21 8.21 0 0 1-.13 2.52.07.07 0 0 0 .13.03z" fill="#0d465b"/><path class="cls-1" d="M208.93 192.76h.17a.11.11 0 0 0 0-.22h-.17c-.16-.06-.16.23 0 .22z" fill="#0d465b"/><path class="cls-1" d="M109.62 131.25v1.77a.11.11 0 0 0 .22 0v-1.77a.12.12 0 0 0-.22 0z" fill="#0d465b"/><path class="cls-1" d="M106.29 150.2c0 .2.28.29.31.09.23-1.48 1.58-3.71.64-5.13h-.08a3.34 3.34 0 0 1-.17 2.47 23.61 23.61 0 0 0-.7 2.57z" fill="#0d465b"/><path class="cls-1" d="M107.31 155.08c.54-1.95 1.17-3.84.73-5.87 0-.09-.15-.05-.14 0 .4 2-.32 3.84-.79 5.78a.11.11 0 0 0 .2.09z" fill="#0d465b"/><path class="cls-1" d="M108.87 153.79c0 1.52-.09 3 0 4.56a.11.11 0 0 0 .21 0c.09-1.51 0-3 0-4.56a.11.11 0 0 0-.21 0z" fill="#0d465b"/><path class="cls-1" d="M110.63 163.92a34.91 34.91 0 0 1-.24-4.05.14.14 0 0 0-.27 0 16.5 16.5 0 0 0 .27 4.09c.02.13.25.1.24-.04z" fill="#0d465b"/><path class="cls-1" d="M114 124.68a45 45 0 0 0 4.28 7.13c.05.06.16 0 .11-.09-1.61-2.27-2.84-4.74-4.34-7.07l-.05.03z" fill="#0d465b"/><path class="cls-1" d="M121.21 139.82c-.86-1.81-3.7-3.12-3.33-5.52 0 0-.06-.06-.06 0a2.79 2.79 0 0 0 1 3.13c4.08 3.77.14 6.71.63 11 .62 5.38 7.14 9.17 11.33 11.49a.05.05 0 0 0 .05-.09c-6.1-3.56-13.38-8.4-10.18-16.46.35-.95 1.07-2.47.56-3.55z" fill="#0d465b"/><path class="cls-1" d="M134.61 163.07a8.52 8.52 0 0 1-2.26-2c-.06-.08-.2 0-.14.08a8.31 8.31 0 0 0 2.3 2.07c.11.1.21-.07.1-.15z" fill="#0d465b"/><path class="cls-1" d="M116.77 120.79c-.36.42-1-.54-1.22-.75s-.21 0-.15.12c1.12 1.46 1.83.88 2-.75a25.44 25.44 0 0 0 0-4 9.6 9.6 0 0 1-.1-3c0-.13-.15-.17-.2-.05-.45 1.19.07 3.14.12 4.38a20.2 20.2 0 0 1 0 2.92 2.23 2.23 0 0 1-.45 1.13z" fill="#0d465b"/><path class="cls-1" d="M177.45 240.34l-.15-.15s-.06 0 0 0 .02.14.15.15z" fill="#0d465b"/><path class="cls-1" d="M96.16 194.31a.15.15 0 0 0 .31 0 3.53 3.53 0 0 0-.24-1.62c-.09-.22-.43 0-.33.19a3.66 3.66 0 0 1 .26 1.43z" fill="#0d465b"/><path class="cls-1" d="M96 198.62a.08.08 0 0 0 .17 0 1.14 1.14 0 0 0-.28-.82c-.07-.08-.19 0-.12.12a.93.93 0 0 1 .23.7z" fill="#0d465b"/><path class="cls-1" d="M53.94 170.93c-.4 5.16-1.16 8.75-5.77 11.71-1.51 1-1.65 2.53-1.69 4.16-.07 2.66-.23 2.86-1.69 4.73-1.22 1.57-1.18 2.45-.47 4.12.22.51 1 .14.87-.37-1.19-4.69 1.82-2.93 3-4.93a3.45 3.45 0 0 0 .09-1.44c0-2.3-.34-4.86 2-6.4 4-2.59 4.05-7.31 4.14-11.59.03-.32-.42-.31-.48.01z" fill="#0d465b"/><path class="cls-1" d="M43.88 198.29l.17.17-.17-.17z" fill="#0d465b"/><path class="cls-1" d="M45.58 199c-.73-.33-.78-1.18-.72-1.9 0-.13-.18-.18-.24-.07a2 2 0 0 0-.33 1.51 1.6 1.6 0 0 0 .95 1c.4.23.76-.36.34-.54z" fill="#0d465b"/><path class="cls-1" d="M74.14 181.79a.2.2 0 0 0 .28-.28 25 25 0 0 1-3.62-5.58c-1.56-2.95-1.69-5.71-1.7-9a.14.14 0 0 0-.27 0c-.1 5.31.99 11.2 5.31 14.86z" fill="#0d465b"/><path class="cls-1" d="M68.32 204.35a5.45 5.45 0 0 0-2.11-3.27c-3.77-3.3-.79-5.73-.53-8.95.48-5.88-3.61-12.32-6.43-17.16-.13-.21-.43 0-.33.19a71.79 71.79 0 0 1 4.78 12.65c.89 3.47 0 5.63-.9 8.9a4.46 4.46 0 0 0 .89 4.19c.87.78 1.28 1 2.31 1.82 2.51 2 .39 4.18.48 6.28a10.36 10.36 0 0 0 2.21 6.12 40.14 40.14 0 0 1 5.4 10.4c1.93 5.28 8 9.35 12.82 11.68.11.05.21-.11.1-.16a37.66 37.66 0 0 1-8.35-5.81c-3.31-3.06-4.06-6.61-5.74-10.54-1.1-2.58-2.79-4.59-4.32-6.92-2.25-3.41 0-6.15-.28-9.42z" fill="#0d465b"/><path class="cls-1" d="M96.15 223.11a37.67 37.67 0 0 1-9.73-4.88c-3.57-2.55-1.32-2.84-1.75-5.82-.71-5-6.88-4.48-7.48-9-.38-2.9 3.83-7.75-1.16-9.12a2.45 2.45 0 0 0-1.33.07c-3.24 1-4.29-1.54-5.26-3.94a54 54 0 0 0-2.63-6.29c-.08-.14-.33 0-.26.11.92 2.2 2.17 10.07 4.85 10.95 1.48.48.87.44 2.35.26 6.12-.76 2.81 4.12 2.44 5.51a6.31 6.31 0 0 0 .59 5.29c.73 1.18 2.31 1.78 3.49 2.35 3.7 1.77 2.88 4.21 2.88 7.52 0 1.36 1.89 2.29 2.8 2.93a31.4 31.4 0 0 0 10 4.74.34.34 0 0 0 .2-.68z" fill="#0d465b"/><path class="cls-1" d="M40 190.82a.18.18 0 0 0-.35-.1c-.67 2.16-1.6 4.86-1.09 7.17.63 2.84 3.53 5.35 3.49 8.21a.18.18 0 0 0 .37 0 7.54 7.54 0 0 0-1.79-4.89c-2.42-3.49-1.63-6.65-.63-10.39z" fill="#0d465b"/><path class="cls-1" d="M42.55 200.43c-.09-.07-.21.09-.12.16a4 4 0 0 1 1 1.77c.11.28.54.18.46-.13a3.69 3.69 0 0 0-1.34-1.8z" fill="#0d465b"/><path class="cls-1" d="M41.12 187.55a4.72 4.72 0 0 0 .63-1.18c0-.14-.18-.25-.25-.11a7.72 7.72 0 0 1-.65 1.13c-.13.17.15.34.27.16z" fill="#0d465b"/><path class="cls-1" d="M42.72 184.4c1.84-1.84 3.57-3.78 5.25-5.77.17-.21-.11-.5-.3-.3-1.85 1.84-3.43 3.91-5.13 5.88-.11.13.06.31.18.19z" fill="#0d465b"/><path class="cls-1" d="M49.39 177.39a9 9 0 0 1 1.43-2c.18-.25-.25-.51-.42-.24a11 11 0 0 0-1.36 2.1c-.04.27.26.36.35.14z" fill="#0d465b"/><path class="cls-1" d="M51.76 174a3.25 3.25 0 0 0 .4-.93.17.17 0 0 0-.3-.13 3.22 3.22 0 0 0-.4.93.17.17 0 0 0 .3.13z" fill="#0d465b"/><path class="cls-1" d="M54.2 168.48a8.63 8.63 0 0 0-.19-2.31c0-.14-.26-.11-.24 0 .08.76 0 1.52.07 2.28a.18.18 0 0 0 .36.03z" fill="#0d465b"/><path class="cls-1" d="M57.65 148c-.74 1.55-1.89 3.21-2 5-.15 2.09.64 4.21 1.15 6.22.07.27.51.29.56 0a10.16 10.16 0 0 0-.48-4.3c-.71-2.62.25-4.37 1.15-6.74.06-.24-.28-.39-.38-.18z" fill="#0d465b"/><path class="cls-1" d="M57.2 160.31a.46.46 0 0 0-.27.44c0 .33.49.33.51 0a.2.2 0 0 1 .06-.14.22.22 0 0 0-.3-.3z" fill="#0d465b"/><path class="cls-1" d="M59.21 171.77c-.12-1.58.42-3.11.33-4.69 0-.25-.4-.25-.39 0 .07 1.58-.47 3.11-.43 4.69 0 .33.51.32.49 0z" fill="#0d465b"/><path class="cls-1" d="M54.62 187c.23-.9-.3-1.47-.24-2.37.07-1.17.2-2.35.2-3.52a.18.18 0 0 0-.37 0c-.08 1.13-.27 2.32-.46 3.43a2.2 2.2 0 0 0-.06.83c.16.5.55.93.47 1.5-.02.32.39.46.46.13z" fill="#0d465b"/><path class="cls-1" d="M54.49 187.71c-.23-.1-.36.24-.13.3s.16.08.26.11.26-.19.11-.26-.15-.11-.24-.15z" fill="#0d465b"/><path class="cls-1" d="M57.74 146c2.33-.57 2.31-2.79 2-4.83s-.79-4-.35-6.16c.7-3.41 3.76-4.27 6.71-4.9.14 0 .08-.23-.06-.21-2.54.45-6.06 1.47-7 4.25a8.5 8.5 0 0 0-.39 4c.31 2.16 2.18 6.58-1 7.54a.17.17 0 0 0 .09.31z" fill="#0d465b"/><path class="cls-1" d="M67.83 129.69a6.55 6.55 0 0 0 1.56-.2c.19 0 .11-.34-.08-.29a7.84 7.84 0 0 1-1.48.31.09.09 0 0 0 0 .18z" fill="#0d465b"/><path class="cls-1" d="M71.65 128.67a2 2 0 0 0 1.19-1.18.08.08 0 0 0-.14-.08 2.23 2.23 0 0 1-1.09 1.1c-.11.03-.07.19.04.16z" fill="#0d465b"/><path class="cls-1" d="M74.71 127.24a2.21 2.21 0 0 1 .71-.13.17.17 0 0 0 0-.33 1.72 1.72 0 0 0-.81.12c-.2.1-.11.43.1.34z" fill="#0d465b"/><path class="cls-1" d="M61 119.75c14.73-10.4 44.7 2.61 48.71-21.63 0-.23-.31-.33-.35-.1-4.05 23.38-33.95 11-48.54 21.42-.23.14-.06.45.18.31z" fill="#0d465b"/><path class="cls-1" d="M96.49 228.33a.25.25 0 0 0-.35 0c-2.51 2.82-6.49-3.33-8.62-4.51a.14.14 0 0 0-.14.24c2.31 1.38 3.69 4.42 6.28 5.35a2.43 2.43 0 0 0 2.09-.06c1.31-.62 2.87 1.76 4 2.62.19.15.44-.17.26-.33-1.19-1.08-2.37-2.18-3.52-3.31z" fill="#0d465b"/><path class="cls-1" d="M103 233.63c-.33-.09-.66-.49-.9-.73a.23.23 0 0 0-.33.33c.32.33.68.77 1.18.8a.2.2 0 0 0 .05-.4z" fill="#0d465b"/><path class="cls-1" d="M65.19 108.05c4.61-1.8 8.77-4.68 13.87-4.77 2.79-.05 7.22.91 9.69-1 1.36-1.06 2.38-2.39 3.7-3.5s2.77-1.34 4.56-1.59c3.29-.46 8.09-6.38 10.51-8.23.28-.21 0-.69-.28-.48-2.72 1.8-8.88 9.1-12.15 7.72-1.68-.71-3.19 2-4.22 2.92-2.41 2-3.28 3.22-6.84 3.53-2.17.19-4.37 0-6.54.11-4.3.22-8.5 3.51-12.34 5.11-.15.03-.09.23.04.18z" fill="#0d465b"/><path class="cls-1" d="M138.72 44.27c-4.18-1-8.24-.7-12.07-3.14-2.72-1.73-5.06-3.65-8.16-4.67-5.54-1.81-11.62 2.44-16.14 5A125 125 0 0 1 76.6 52.72a.19.19 0 0 0 .1.37 94.61 94.61 0 0 0 18.18-7c6.55-3.19 13.8-8.74 21.35-8.57 6.17.13 9.88 6.73 16.09 7.17 4.58.32 8.4.41 12.48 3a36.91 36.91 0 0 1 9.66 8.46c.22.29.61-.12.39-.39-3.94-5.08-9.85-9.91-16.13-11.49z" fill="#0d465b"/><path class="cls-1" d="M106.8 48.77a28.56 28.56 0 0 0-4.53 3.73c-3.73 3.75-6.17 1.35-9.82.92-4.09-.47-7.76 1.09-11.41 2.77-4.5 2.07-9.9 7.16-14.85 7.44a.08.08 0 0 0 0 .17c3.24 0 5.75-2.05 8.44-3.65a55.82 55.82 0 0 1 13.19-5.87c4.3-1.21 7.64 2.07 11.78 1 4.85-1.29 8.42-11.7 15.14-6.92.15.11.34-.14.19-.25-2.93-2.31-5.2-1.29-8.13.66z" fill="#0d465b"/><path class="cls-1" d="M137 52.72c-4.81 1.36-7.44-3.37-11.75-4.24-.05 0-.08.07 0 .08 4.2 1 7.16 6 11.88 4.54a.2.2 0 0 0-.13-.38z" fill="#0d465b"/><path class="cls-1" d="M94.25 62.21c-8.59-3-15.37 3.56-23.55 5.07-8.43 1.56-13.7 10.14-19.22 15.84-.23.24.13.6.36.36 5.82-5.89 10.63-13.18 19.08-15.38 7.64-2 15.21-7.54 23.25-5.59a.15.15 0 0 0 .08-.3z" fill="#0d465b"/><path class="cls-1" d="M146.88 31.53a3.92 3.92 0 0 0-4.11-.41 11.57 11.57 0 0 0-2.17 1.78c-2.38 2.4-4.44 2.26-7.17.51-5.66-3.62-10.28-8-17.41-6.57-3.73.74-7 3.3-9.88 5.55-4.16 3.21-8.88 4.56-13.68 6.49-.22.09-.13.46.1.37 2.93-1.13 6.14-1.82 9-3.22 3.71-1.85 6.75-4.68 10.4-6.65 9.44-5.12 15.4 2 23.13 6.19 5.19 2.8 8.58-8.43 13.39-1.19.94 1.41 1.84 3.57 3.43 4.43 1.83 1 4.94-.2 6.34 1.08a.21.21 0 0 0 .29-.29c-1-1.19-1.55-1.51-3-1-5.1 1.94-5.7-5.21-8.66-7.07z" fill="#0d465b"/><path class="cls-1" d="M159.85 53.36c-3.13-2.07-1.39-6.79-3.23-9.7a2.49 2.49 0 0 0-2.54-1.24c-2.25.26-3.44 2-5.81.31-.06 0-.11.05-.05.09a3.72 3.72 0 0 0 3.61.64c1-.26 1.91-.78 3-.61 1.36.21 1.92 2.13 2.16 3.23.58 2.7-.16 6 2.58 7.72.3.2.55-.26.28-.44z" fill="#0d465b"/><path class="cls-1" d="M160.63 44.87c1.34 1.85 2 4.08 3 6.12.12.24.48 0 .36-.21-1-2.05-1.7-4.25-3.13-6.06-.13-.1-.31.04-.23.15z" fill="#0d465b"/><path class="cls-1" d="M83.58 40.93c-.67.54-1.63 1.67-2.45.74-.1-.11-.28 0-.21.16.81 1.31 2.25.29 3-.58a.23.23 0 0 0-.34-.32z" fill="#0d465b"/><path class="cls-1" d="M98.07 27.33c.13-.18-.17-.35-.3-.17a10.2 10.2 0 0 1-7.62 4 .11.11 0 0 0 0 .22 9.93 9.93 0 0 0 7.92-4.05z" fill="#0d465b"/><path class="cls-1" d="M123 18.29c6.78-1.64 12.22 1.38 18.48 3.39.23.07.32-.28.1-.35-6.27-2.15-11.92-5-18.66-3.36-.26.03-.17.37.08.32z" fill="#0d465b"/><path class="cls-1" d="M149.16 24a59.45 59.45 0 0 1 6.33 5.09c.25.21.61-.14.36-.36a41.8 41.8 0 0 0-6.51-5 .18.18 0 0 0-.18.27z" fill="#0d465b"/><path class="cls-1" d="M163.35 33.37c0 .11.21 0 .16-.1a17.12 17.12 0 0 0-6.12-7.45c-.09-.06-.17.09-.09.14a17 17 0 0 1 6.05 7.41z" fill="#0d465b"/><path class="cls-1" d="M163.27 40.37a9.23 9.23 0 0 0-3.86-6.09c-.07 0-.13.06-.07.11a9 9 0 0 1 3.57 6.07c.09.24.4.14.36-.09z" fill="#0d465b"/><path class="cls-1" d="M141.77 40.51a.11.11 0 0 0 .11-.19c-3-1.9-6.48.31-9.46-1.69-.12-.08-.22.11-.11.18 2.92 2.05 6.4.1 9.46 1.7z" fill="#0d465b"/><path class="cls-1" d="M139.39 10.27a37.57 37.57 0 0 0 6.15.28.18.18 0 0 0 0-.37 42.34 42.34 0 0 1-6-.4c-.34-.05-.48.44-.15.49z" fill="#0d465b"/><path class="cls-1" d="M162.37 7.5c4.84 1.56 7.83 5.9 10.37 10a.17.17 0 0 0 .3-.17c-2.44-4.3-5.66-8.68-10.57-10.22-.23-.04-.33.32-.1.39z" fill="#0d465b"/><path class="cls-1" d="M178.34 22.94c.12.37.71.21.58-.16-1.45-4.2-2.75-8.92-6.62-11.55-.19-.13-.37.18-.18.31 3.76 2.62 4.88 7.25 6.22 11.4z" fill="#0d465b"/><path class="cls-1" d="M183.86 37.37a.17.17 0 0 0 .33 0 8.22 8.22 0 0 0-1.39-6.92c-.12-.15-.38.05-.26.2 1.55 2.09 1.51 4.3 1.32 6.72z" fill="#0d465b"/><path class="cls-1" d="M200.92 36.09c.05.29.51.22.5-.07-.62-14.41-9.28-24.23-19.37-33.56a.18.18 0 0 0-.26.26c9.58 9.94 16.53 19.59 19.13 33.37z" fill="#0d465b"/><path class="cls-1" d="M189.69 18.09a49.07 49.07 0 0 1 5.68 17.17c0 .29.49.3.46 0a40.73 40.73 0 0 0-6-17.27.1.1 0 0 0-.14.1z" fill="#0d465b"/><path class="cls-1" d="M197.26 41.81a.15.15 0 0 0-.29.08c.67 3.71-.37 7.12-1 10.75-.08.48.63.7.74.21.9-3.69 1.61-7.32.55-11.04z" fill="#0d465b"/><path class="cls-1" d="M196.61 37.78a.27.27 0 0 0 0 .55.27.27 0 0 0 0-.55z" fill="#0d465b"/><path class="cls-1" d="M201.9 42.55c-.23-1.52-.53-3-.81-4.54 0-.23-.38-.13-.34.1.22 1.53.43 3.06.71 4.57.05.32.48.16.44-.13z" fill="#0d465b"/><path class="cls-1" d="M202.69 51.47a18.87 18.87 0 0 0-.27-4.12c-.06-.31-.52-.18-.47.13a27.65 27.65 0 0 1 .23 4 .26.26 0 0 0 .51-.01z" fill="#0d465b"/><path class="cls-1" d="M198.45 54a3 3 0 0 1-.32 1.32 1 1 0 0 1-1.24.34c-.13 0-.22.16-.09.22a1.33 1.33 0 0 0 1.46-.07 2.29 2.29 0 0 0 .56-1.8.19.19 0 0 0-.37-.01z" fill="#0d465b"/><path class="cls-1" d="M202.57 56.42l-.76.77a.16.16 0 0 0 .23.22l.76-.75c.2-.15-.08-.39-.23-.24z" fill="#0d465b"/><path class="cls-1" d="M182.3 8.8c.16.16.41-.09.25-.25A19.48 19.48 0 0 1 180 5.3a.16.16 0 0 0-.27.16 16.11 16.11 0 0 0 2.57 3.34z" fill="#0d465b"/><path class="cls-1" d="M210.05 48.18a.23.23 0 0 0 .46 0c0-15.18-4.16-27.82-14.79-38.88-.17-.17-.42.08-.26.26 9.21 10.38 14.24 24.82 14.59 38.62z" fill="#0d465b"/><path class="cls-1" d="M206.36 48.18c0 1.19-.23 2.36-.24 3.55a.11.11 0 0 0 .23 0c0-1.19.24-2.36.26-3.55a.12.12 0 0 0-.25 0z" fill="#0d465b"/><path class="cls-1" d="M206.17 40.53c-.25-1-.51-2-.8-3a.15.15 0 0 0-.3.08c.22 1 .47 2 .72 3.05a.2.2 0 0 0 .38-.13z" fill="#0d465b"/><path class="cls-1" d="M192.39 6.05c.21.22.56-.12.34-.34A8 8 0 0 0 190.34 4c-.15-.06-.27.13-.13.22a10.72 10.72 0 0 1 2.18 1.83z" fill="#0d465b"/><path class="cls-1" d="M213.83 43.12a.26.26 0 0 0 .51 0c.21-8.11-1.7-16.47-6.45-23.13-.12-.16-.38 0-.28.16 4.28 7.16 5.77 14.73 6.22 22.97z" fill="#0d465b"/><path class="cls-1" d="M213.3 46.24c-.28.59-.31 1.25-.54 1.85-.14.35.44.59.61.26.29-.59.28-1.25.54-1.86.09-.34-.46-.58-.61-.25z" fill="#0d465b"/><path class="cls-1" d="M213.44 52.48a1.31 1.31 0 0 1-.46.93.12.12 0 0 0 .18.18 1.59 1.59 0 0 0 .56-1.1c.01-.18-.27-.18-.28-.01z" fill="#0d465b"/><path class="cls-1" d="M214.67 53.8a8.27 8.27 0 0 0 1.85-3.29c0-.2-.26-.29-.31-.09a9.43 9.43 0 0 1-1.7 3.29c-.07.09.09.18.16.09z" fill="#0d465b"/><path class="cls-1" d="M218.61 52.36a7.29 7.29 0 0 0 .57-3.17.28.28 0 0 0-.57 0 6.67 6.67 0 0 1-.44 2.91c-.17.3.3.56.44.26z" fill="#0d465b"/><path class="cls-1" d="M215.86 38.75a.2.2 0 0 0 0-.39.2.2 0 0 0 0 .39z" fill="#0d465b"/><path class="cls-1" d="M203.52 14.42c.24.22.59-.13.36-.36a24.74 24.74 0 0 0-4.37-3.06c-.25-.16-.47.23-.23.39a32.81 32.81 0 0 1 4.24 3.03z" fill="#0d465b"/><path class="cls-1" d="M220.39 57.84a3.25 3.25 0 0 0 2.35-2.17c.1-.24-.28-.37-.4-.17a3.6 3.6 0 0 1-2.06 1.94c-.28.06-.15.44.11.4z" fill="#0d465b"/><path class="cls-1" d="M222.53 61.53a2.18 2.18 0 0 0 1.73-1.06c.19-.26-.25-.52-.43-.25a1.84 1.84 0 0 1-1.3 1c-.23-.02-.24.31 0 .31z" fill="#0d465b"/><path class="cls-1" d="M224.13 64.36a3.21 3.21 0 0 0 1.21-1.26c.06-.13-.1-.27-.21-.16a8.46 8.46 0 0 1-1.13 1.14c-.21.12 0 .4.13.28z" fill="#0d465b"/><path class="cls-1" d="M225.9 65.8a.23.23 0 0 0 0-.45.23.23 0 0 0 0 .45z" fill="#0d465b"/><path class="cls-1" d="M228.43 72.42a22.51 22.51 0 0 0 1-2.41c.07-.2-.22-.3-.33-.14a9.84 9.84 0 0 0-1 2.4c-.1.2.24.34.33.15z" fill="#0d465b"/><path class="cls-1" d="M225.9 68.34a.1.1 0 0 0 0 .2.1.1 0 0 0 0-.2z" fill="#0d465b"/><path class="cls-1" d="M217.87 242.92c.46-.56-.29-1.36-.81-.81-2.3 2.38-1 6.46.45 8.93a.15.15 0 0 0 .26-.15c-1.22-2.48-1.77-5.69.1-7.97z" fill="#0d465b"/><path class="cls-1" d="M15.33 249.4a.15.15 0 0 0-.29.08 7.62 7.62 0 0 0 2 3.83.22.22 0 0 0 .32-.32 9.24 9.24 0 0 1-2.03-3.59z" fill="#0d465b"/><path class="cls-1" d="M18.68 250.58a32.73 32.73 0 0 0 1.71 3.7c.13.21.5.08.41-.17a33.57 33.57 0 0 0-1.69-3.78c-.11-.33-.56-.04-.43.25z" fill="#0d465b"/><path class="cls-1" d="M22.81 250.83c.66 2.14 1.21 4.32 1.94 6.44.1.29.56.17.47-.13-.67-2.14-1.37-4.28-2.11-6.39-.11-.19-.36-.11-.3.08z" fill="#0d465b"/><path class="cls-1" d="M28.17 253.54a43.41 43.41 0 0 1 1.41 5.39c0 .17.29.1.26-.07a26.41 26.41 0 0 0-1.29-5.42c-.09-.24-.47-.13-.38.1z" fill="#0d465b"/><path class="cls-1" d="M36.19 251.7c-.14-.07-.26.13-.12.21 1.17.61 2.26 1.33 3.36 2 .16.1.29-.14.14-.25a28.88 28.88 0 0 0-3.38-1.96z" fill="#0d465b"/><path class="cls-1" d="M41.73 251.26c.25.24.58.52.63.88s.38.23.36 0A2 2 0 0 0 42 251c-.17-.18-.44.09-.27.26z" fill="#0d465b"/><path class="cls-1" d="M42.54 244.85c-.25 0-.25.37 0 .39a5.33 5.33 0 0 1 1.61.61c.18.08.33-.17.16-.27a4.52 4.52 0 0 0-1.77-.73z" fill="#0d465b"/><path class="cls-1" d="M25.85 241.09c-.89.4-1.72.95-2.64 1.28-.4.14-.23.78.18.64a16.3 16.3 0 0 0 2.76-1.43c.31-.19.03-.64-.3-.49z" fill="#0d465b"/><path class="cls-1" d="M42.54 238.36a.27.27 0 0 0 0 .54.27.27 0 0 0 0-.54z" fill="#0d465b"/><path class="cls-1" d="M52.67 235.2c-.79-.06-1.58 0-2.36-.05a.45.45 0 0 0 0 .9c.79 0 1.58 0 2.36-.05a.4.4 0 0 0 0-.8z" fill="#0d465b"/><path class="cls-1" d="M58.23 237.47a2.39 2.39 0 0 1-.56-1.2c0-.35-.57-.35-.55 0a2.44 2.44 0 0 0 .79 1.51.22.22 0 0 0 .32-.31z" fill="#0d465b"/><path class="cls-1" d="M62.8 233.85a.39.39 0 0 0 0 .78.39.39 0 0 0 0-.78z" fill="#0d465b"/><path class="cls-1" d="M66.19 238.63c.09-1.8.07-3.6 0-5.4a.39.39 0 0 0-.77 0c0 1.8-.05 3.6 0 5.4a.34.34 0 0 0 .77 0z" fill="#0d465b"/><path class="cls-1" d="M69.83 240c.05-1.12 0-2.25 0-3.38a.3.3 0 0 0-.61 0V240a.27.27 0 0 0 .61 0z" fill="#0d465b"/><path class="cls-1" d="M71.29 239.31a9 9 0 0 0 .38 3.11.26.26 0 0 0 .5-.14 11.64 11.64 0 0 1-.3-3 .29.29 0 0 0-.58.03z" fill="#0d465b"/><path class="cls-1" d="M74.25 240.66a.3.3 0 0 0-.6 0 6.29 6.29 0 0 0 1.43 3.94c.25.29.63-.08.49-.38a9.46 9.46 0 0 1-1.32-3.56z" fill="#0d465b"/><path class="cls-1" d="M78.34 242.27a.42.42 0 0 0 0 .84.42.42 0 0 0 0-.84z" fill="#0d465b"/><path class="cls-1" d="M67.76 234.81a2.32 2.32 0 0 0 .72-1.58c0-.29-.48-.38-.54-.07a2.63 2.63 0 0 1-.64 1.19c-.3.31.17.77.46.46z" fill="#0d465b"/><path class="cls-1" d="M58.14 233.67a11.71 11.71 0 0 0-2.09 0 .26.26 0 0 0 0 .52 11.89 11.89 0 0 0 2.09 0 .25.25 0 0 0 0-.52z" fill="#0d465b"/><path class="cls-1" d="M13 242.54a2.84 2.84 0 0 1 .52 2.17.35.35 0 0 0 .7 0 3.42 3.42 0 0 0-.83-2.56c-.29-.26-.66.13-.39.39z" fill="#0d465b"/><path class="cls-1" d="M18.23 241.61a.4.4 0 0 0 0 .79.4.4 0 0 0 0-.79z" fill="#0d465b"/><path class="cls-1" d="M31.71 239.56c-.14-.39-.76-.23-.63.17.31.91.69 1.8 1 2.69.14.35.68.22.57-.16-.22-.92-.65-1.79-.94-2.7z" fill="#0d465b"/><path class="cls-1" d="M37.14 238.59a.39.39 0 0 0 0 .77.39.39 0 0 0 0-.77z" fill="#0d465b"/><path class="cls-1" d="M12.15 258.77a.21.21 0 0 0 0-.43H10.8a.18.18 0 0 0 0 .37z" fill="#0d465b"/><path class="cls-1" d="M12.15 262c-.72 0-1.54.3-2.22 0a.28.28 0 1 0-.21.51 5.22 5.22 0 0 0 2.44 0 .25.25 0 0 0-.01-.51z" fill="#0d465b"/><path class="cls-1" d="M51.73 252.48v1.69a.24.24 0 0 0 .47 0v-1.69a.27.27 0 0 0-.47 0z" fill="#0d465b"/><path class="cls-1" d="M57.06 251.84a.37.37 0 0 0 0-.75.37.37 0 0 0 0 .75z" fill="#0d465b"/><path class="cls-1" d="M64.15 252.88a.27.27 0 0 0 0 .55.27.27 0 0 0 0-.55z" fill="#0d465b"/><path class="cls-1" d="M77.3 242.5c-.21-.43-.84-.05-.64.37.37.77.61 1.6 1 2.34.18.32.75.1.61-.26-.27-.81-.57-1.65-.97-2.45z" fill="#0d465b"/><path class="cls-1" d="M81.43 244.14a.4.4 0 0 0-.78-.21 2.17 2.17 0 0 0 1.35 2.81c.32.11.61-.36.34-.58a2.17 2.17 0 0 1-.91-2.02z" fill="#0d465b"/><path class="cls-1" d="M81.71 247.48a.07.07 0 0 0 0-.13.07.07 0 0 0 0 .13z" fill="#0d465b"/><path class="cls-1" d="M70.23 251.25a.21.21 0 0 0 0 .43.21.21 0 0 0 0-.43z" fill="#0d465b"/><path class="cls-1" d="M76.65 249.09a.35.35 0 0 0 0 .7.35.35 0 0 0 0-.7z" fill="#0d465b"/><path class="cls-1" d="M80.34 250.21a4 4 0 0 1 .07 2.52c-.12.33.39.53.55.23a3.74 3.74 0 0 0 .1-3c-.14-.4-.87-.21-.72.25z" fill="#0d465b"/><path class="cls-1" d="M87.45 249.78a.34.34 0 0 0 0 .68 1.07 1.07 0 0 1 .79.22c.31.26.75-.17.44-.45a1.72 1.72 0 0 0-1.23-.45z" fill="#0d465b"/><path class="cls-1" d="M96.38 249.49a20.94 20.94 0 0 1 .31 4.68.22.22 0 0 0 .44 0 21.31 21.31 0 0 0-.36-4.78c-.06-.26-.45-.15-.39.1z" fill="#0d465b"/><path class="cls-1" d="M99.8 250a3.1 3.1 0 0 0-.42 1.75 10.4 10.4 0 0 0 .25 3.21c.1.35.68.29.64-.09-.09-.87-.21-1.73-.25-2.61 0-.5-.19-1.57.1-2 .13-.26-.17-.47-.32-.26z" fill="#0d465b"/><path class="cls-1" d="M101.95 249.78a23.46 23.46 0 0 0 .34 5.5c.1.4.79.32.74-.1a42 42 0 0 1-.35-5.4.36.36 0 0 0-.73 0z" fill="#0d465b"/><path class="cls-1" d="M105.71 255.18a12.25 12.25 0 0 1 .61-4.22c.18-.4-.4-.75-.59-.35a9.11 9.11 0 0 0-.74 4.56.36.36 0 0 0 .72.01z" fill="#0d465b"/><path class="cls-1" d="M108.79 254.17c0 .69.35 1.33.39 2a.22.22 0 0 0 .44 0c0-.69-.28-1.34-.29-2 0-.36-.56-.35-.54 0z" fill="#0d465b"/><path class="cls-1" d="M112.66 257.41a7.2 7.2 0 0 0-1-1.77c-.26-.29-.7.15-.43.43a6.74 6.74 0 0 1 1 1.6c.15.33.57.04.43-.26z" fill="#0d465b"/><path class="cls-1" d="M114.09 255.52a19.49 19.49 0 0 0 .72 4.82c.12.44.72.24.66-.18a37.84 37.84 0 0 1-.63-4.64.37.37 0 0 0-.75 0z" fill="#0d465b"/><path class="cls-1" d="M116.81 258.32c.35 1 .69 2.07 1.14 3.07.13.29.55.08.49-.21-.24-1-.58-2.05-.91-3.07-.15-.45-.88-.25-.72.21z" fill="#0d465b"/><path class="cls-1" d="M119.62 260.83a9 9 0 0 1 1.05 1.56c.14.22.55.08.45-.19a6 6 0 0 0-1-1.87c-.3-.33-.81.18-.5.5z" fill="#0d465b"/><path class="cls-1" d="M125.62 267.58a17.71 17.71 0 0 0-2-4.85c-.32-.45-1.06 0-.74.43 1 1.42 1.38 3.13 2.08 4.69.17.38.79.15.66-.27z" fill="#0d465b"/><path class="cls-1" d="M128.43 271.45c.07.24.49.21.46-.06a7 7 0 0 0-2.4-4.59c-.28-.22-.68.17-.39.39 1.38 1.11 1.83 2.64 2.33 4.26z" fill="#0d465b"/><path class="cls-1" d="M130.34 274.33a.24.24 0 0 0 0-.47.24.24 0 0 0 0 .47z" fill="#0d465b"/><path class="cls-1" d="M73.52 263.62a.26.26 0 0 0-.51 0 6.94 6.94 0 0 0 .75 3.48c.13.24.47 0 .36-.21a7.69 7.69 0 0 1-.6-3.27z" fill="#0d465b"/><path class="cls-1" d="M85.07 260.24a.32.32 0 0 0-.64 0c0 2.4.07 4.83 1.45 6.89a.26.26 0 0 0 .45-.26 13.15 13.15 0 0 1-1.26-6.63z" fill="#0d465b"/><path class="cls-1" d="M95.56 261.23a.36.36 0 0 0 0 .72.36.36 0 0 0 0-.72z" fill="#0d465b"/><path class="cls-1" d="M104.77 269a.21.21 0 0 0 .07.15c.79.72 1.93.73 2.79 1.33.18.13.34-.13.21-.28-.69-.82-1.88-.7-2.65-1.4a.26.26 0 0 0-.42.15.42.42 0 0 0-.43-.43.45.45 0 0 0 0 .9.42.42 0 0 0 .43-.42z" fill="#0d465b"/><path class="cls-1" d="M100.73 270.24A30 30 0 0 0 98 279.1c0 .28.36.41.44.12a47.07 47.07 0 0 1 2.71-8.71c.18-.31-.27-.57-.42-.27z" fill="#0d465b"/><path class="cls-1" d="M102.09 276.45c0 1.8-.07 3.6 0 5.4a.23.23 0 0 0 .45 0c.07-1.8 0-3.6 0-5.4a.23.23 0 0 0-.45 0z" fill="#0d465b"/><path class="cls-1" d="M104.57 275.71c-.1-.28-.56-.16-.46.13a13.26 13.26 0 0 0 3.45 5.5.22.22 0 0 0 .31-.31 17.08 17.08 0 0 1-3.3-5.32z" fill="#0d465b"/><path class="cls-1" d="M112.56 274.31c-.15-.15-.39.09-.23.24.83.77 1.9 1.22 2.74 2 .11.1.28-.06.17-.17-.82-.8-1.88-1.28-2.68-2.07z" fill="#0d465b"/><path class="cls-1" d="M125.62 280a56.27 56.27 0 0 0 4.1-6.72c.27-.53-.53-1-.8-.47-1.19 2.35-2.59 4.56-4 6.78-.28.48.41.86.7.41z" fill="#0d465b"/><path class="cls-1" d="M123.72 284.67c.84 1.61 2.05 2.94 2.67 4.68.1.3.57.17.47-.13-.63-1.78-1.87-3.14-2.74-4.78-.12-.26-.53-.03-.4.23z" fill="#0d465b"/><path class="cls-1" d="M129.85 282.53a9.36 9.36 0 0 0 1.3 4.17c.14.27.52 0 .4-.23a10.77 10.77 0 0 1-1.4-3.94.15.15 0 0 0-.3 0z" fill="#0d465b"/><path class="cls-1" d="M133.7 284.56a.33.33 0 0 0-.65 0 3.13 3.13 0 0 0 2.29 2.92c.25.1.38-.28.17-.41-.98-.63-1.79-1.25-1.81-2.51z" fill="#0d465b"/><path class="cls-1" d="M127.42 294.25c-.55-.2-.79.68-.24.87a14.18 14.18 0 0 1 4.57 3.22.39.39 0 0 0 .54-.55 12 12 0 0 0-4.87-3.54z" fill="#0d465b"/><path class="cls-1" d="M58.19 253.43c-.66 1.71-1.94 3-2.73 4.64-.17.34.32.63.51.3.91-1.62 2.09-3 2.67-4.81.09-.3-.34-.4-.45-.13z" fill="#0d465b"/><path class="cls-1" d="M70.63 250.55c-1.75-.63-3.64-.76-5.42-1.3-.24-.07-.34.3-.1.38 1.76.59 3.6.9 5.39 1.4a.24.24 0 0 0 .13-.48z" fill="#0d465b"/><path class="cls-1" d="M65.35 265.33a6.92 6.92 0 0 1-3.24-2.57c-.23-.42-.87 0-.64.38A7.1 7.1 0 0 0 65 266c.4.17.78-.45.35-.67z" fill="#0d465b"/><path class="cls-1" d="M132.1 253.94a29.85 29.85 0 0 0 3.29 4.89c.22.26.57-.11.37-.37a43 43 0 0 1-3.29-4.74.21.21 0 0 0-.37.22z" fill="#0d465b"/><path class="cls-1" d="M137.74 257.82c.21.15.45-.18.27-.35a16.57 16.57 0 0 1-3.71-4.54c-.16-.34-.65 0-.5.29a11.45 11.45 0 0 0 3.94 4.6z" fill="#0d465b"/><path class="cls-1" d="M159.22 257.71a6.82 6.82 0 0 1-1.48-1.24.2.2 0 0 0-.28.28 7.13 7.13 0 0 0 1.56 1.3c.23.12.43-.22.2-.34z" fill="#0d465b"/><path class="cls-1" d="M148.91 258c-.12.11.06.28.18.18 1.82-1.5 3.75.14 5.38 1.1a.21.21 0 0 0 .21-.36c-1.82-1.01-3.89-2.69-5.77-.92z" fill="#0d465b"/><path class="cls-1" d="M149.93 268.49c-2.88.2-5-2.16-7.73-2.62-.16 0-.23.21-.07.24 2.75.47 4.91 3 7.8 2.78.25-.02.25-.42 0-.4z" fill="#0d465b"/><path class="cls-1" d="M157.86 268.52c.21.22.55-.12.34-.34a7.23 7.23 0 0 0-2.47-2.09c-.29-.11-.42.36-.13.47a6.81 6.81 0 0 1 2.26 1.96z" fill="#0d465b"/><path class="cls-1" d="M102.14 198.79v3a.17.17 0 0 0 .33 0v-3a.17.17 0 0 0-.33 0z" fill="#0d465b"/><path class="cls-1" d="M122.82 239.7a6.8 6.8 0 0 1 1 3 .1.1 0 0 0 .2 0 5.1 5.1 0 0 0-1-3.09c-.09-.13-.28-.03-.2.09z" fill="#0d465b"/><path class="cls-1" d="M125.13 240a12.76 12.76 0 0 0 1.69 3.08c.12.17.39 0 .28-.16a15.75 15.75 0 0 1-1.68-3c-.07-.15-.35-.08-.29.08z" fill="#0d465b"/><path class="cls-1" d="M128.14 241.38a5.56 5.56 0 0 0 1.4 2.44.18.18 0 0 0 .25-.25 6.6 6.6 0 0 1-1.31-2.29c-.07-.21-.41-.12-.34.1z" fill="#0d465b"/><path class="cls-1" d="M133.94 244.92c-.4-.82-1.08-1.46-1.44-2.31-.07-.16-.33 0-.28.12a11.3 11.3 0 0 0 1.27 2.45c.17.3.6.04.45-.26z" fill="#0d465b"/><path class="cls-1" d="M165.57 271c-.08-.15-.3 0-.23.13.44.88 1 1.68 1.54 2.52.08.13.25 0 .19-.12-.39-.91-1.07-1.67-1.5-2.53z" fill="#0d465b"/><path class="cls-1" d="M172 268.52a.44.44 0 0 0-.88 0 3 3 0 0 0 1.18 2.3.38.38 0 0 0 .54-.54 2.76 2.76 0 0 1-.84-1.76z" fill="#0d465b"/><path class="cls-1" d="M179.29 268.25a11.07 11.07 0 0 1-2.49-1.45c-.26-.24-.64.14-.39.38a9.63 9.63 0 0 0 2.57 1.59c.35.23.66-.34.31-.52z" fill="#0d465b"/><path class="cls-1" d="M188.25 264.12a.34.34 0 0 0 0 .69.34.34 0 0 0 0-.69z" fill="#0d465b"/><path class="cls-1" d="M194.08 271.49c-.45-1.49-.57-3.06-1.08-4.54a.2.2 0 0 0-.39.11c.43 1.51.47 3.08 1 4.58.06.36.57.18.47-.15z" fill="#0d465b"/><path class="cls-1" d="M203.81 293.9c-.73-1.49-1.64-2.89-2.42-4.36-.1-.18-.37 0-.28.16.73 1.49 1.54 2.95 2.31 4.42.14.26.51.03.39-.22z" fill="#0d465b"/><path class="cls-1" d="M204.08 289.29a5.06 5.06 0 0 0 1.38 3.56c.17.17.54 0 .44-.25-.48-1.15-1.28-2-1.39-3.31a.21.21 0 0 0-.43 0z" fill="#0d465b"/><path class="cls-1" d="M205.1 285.1a2.4 2.4 0 0 1 .63 1.15c0 .31.52.34.51 0a2.47 2.47 0 0 0-.73-1.56c-.26-.28-.67.14-.41.41z" fill="#0d465b"/><path class="cls-1" d="M159.55 288.79a8.42 8.42 0 0 1-3.27 2.34.2.2 0 0 0 .11.38 7.74 7.74 0 0 0 3.49-2.39.23.23 0 0 0-.33-.33z" fill="#0d465b"/><path class="cls-1" d="M165.27 288.43c-1 1-2 2-3 3.06a.23.23 0 0 0 .33.33c1-1 2-2 3.06-3a.26.26 0 0 0-.39-.39z" fill="#0d465b"/><path class="cls-1" d="M170.73 281.72a32.77 32.77 0 0 1-3 2.65c-.22.16 0 .52.22.37A16.93 16.93 0 0 0 171 282a.19.19 0 0 0-.27-.28z" fill="#0d465b"/><path class="cls-1" d="M175.79 283.32c-.73.4-1.36.65-2 0-.27-.26-.68.15-.41.41a1.93 1.93 0 0 0 2.7 0 .26.26 0 0 0-.29-.41z" fill="#0d465b"/><path class="cls-1" d="M182.08 284.28c-.39-.07-.69-.32-1.09-.38s-.41.6 0 .64.64.29 1 .31.42-.51.09-.57z" fill="#0d465b"/><path class="cls-1" d="M186.06 282.7c-.25 0-.4-.3-.68-.34s-.22.32 0 .34.39.3.68.34.21-.31 0-.34z" fill="#0d465b"/><path class="cls-1" d="M186.06 284a.17.17 0 0 0 0 .35.17.17 0 0 0 0-.35z" fill="#0d465b"/><path class="cls-1" d="M148.47 283.1c-.24.21-.47.43-.7.65s.09.42.25.25.44-.46.65-.7a.15.15 0 0 0-.2-.2z" fill="#0d465b"/><path class="cls-1" d="M178.56 296.64l-.34.33c-.1.1.05.25.15.15l.33-.34a.1.1 0 0 0-.14-.14z" fill="#0d465b"/><path class="cls-1" d="M184.71 297.18a.21.21 0 0 0 0 .43.21.21 0 0 0 0-.43z" fill="#0d465b"/><path class="cls-1" d="M191 300.68a3.61 3.61 0 0 1-1.31 1.6c-.23.13 0 .49.21.36a3.5 3.5 0 0 0 1.39-1.78c.07-.2-.21-.38-.29-.18z" fill="#0d465b"/><path class="cls-1" d="M216.71 282.46c-.32-1.1-.41-2.26-.8-3.34a.14.14 0 0 0-.28.08c.29 1.12.19 2.31.55 3.41.11.33.63.19.53-.15z" fill="#0d465b"/><path class="cls-1" d="M219.47 275.57c-.53 1.09-.92 2.26.1 3.17a.36.36 0 0 0 .51-.51c-.58-.72-.26-1.49.1-2.24.24-.48-.48-.9-.71-.42z" fill="#0d465b"/><path class="cls-1" d="M235.59 276.89c-.32-.28-.78.16-.47.47.59.6 1.39.82 2 1.37.34.3.83-.18.5-.5-.62-.6-1.4-.79-2.03-1.34z" fill="#0d465b"/><path class="cls-1" d="M233.13 280.17c0-.33-.53-.42-.59-.08a.81.81 0 0 1-.72.74c-.46 0-.45.76 0 .71a1.41 1.41 0 0 0 1.31-1.37z" fill="#0d465b"/><path class="cls-1" d="M232.83 284.84a.39.39 0 0 0 0 .78.39.39 0 0 0 0-.78z" fill="#0d465b"/><path class="cls-1" d="M229.86 273.31c-.41-.16-1.21-.13-1.25-.74 0-.45-.72-.45-.7 0a1.54 1.54 0 0 0 1.95 1.29.29.29 0 0 0 0-.55z" fill="#0d465b"/><path class="cls-1" d="M163.43 230.58a.06.06 0 0 0 0-.11.06.06 0 1 0 0 .11z" fill="#0d465b"/></g></g><metadata><rdf:RDF xmlns:rdf="http://www.w3.org/1999/02/22-rdf-syntax-ns#" xmlns:rdfs="http://www.w3.org/2000/01/rdf-schema#" xmlns:dc="http://purl.org/dc/elements/1.1/"><rdf:Description about="https://iconscout.com/legal#licenses" dc:title="arya,stark,house,of,faceless,god,winterfell" dc:description="arya,stark,house,of,faceless,god,winterfell" dc:publisher="Iconscout" dc:date="2018-03-26" dc:format="image/svg+xml" dc:language="en"><dc:creator><rdf:Bag><rdf:li>Roundicons.com</rdf:li></rdf:Bag></dc:creator></rdf:Description></rdf:RDF></metadata></svg>