<?xml version="1.0" encoding="UTF-8"?><svg xmlns="http://www.w3.org/2000/svg" viewBox="0 0 290.85 396.04"><defs><style>.cls-1{fill:#0d465b;}</style></defs><title>Asset 12</title><g id="Layer_2" data-name="Layer 2"><g id="Layer_2-2" data-name="Layer 2"><path class="cls-1" d="M146.5 147.16l.14.14a.18.18 0 0 0 .29-.17h.54c.18 0 .24-.3 0-.33s-.57-.06-.85-.08c-1.69-2.61-2.85-4.82-4.82-6.26-3-2.66-8.16-2.86-12.13-1.37a6.19 6.19 0 0 0-2.12.94 3.28 3.28 0 0 0-1.14.86l-.57.49a.11.11 0 0 0 .07.19 19 19 0 0 0-1.15 2.35 2.91 2.91 0 0 1-1.33 1.06.07.07 0 0 0 0 .14 2.47 2.47 0 0 0 1.07-.27c-.4.77-.86 1.68-1.69 1.68-.09 0-.08.13 0 .13 1.23.15 1.74-1.35 2.3-2.22a9.43 9.43 0 0 0 1.76-2.64 8.51 8.51 0 0 1 2-1.25c-1 2.48.59 5.41 2.67 6.81a.14.14 0 0 0 .12 0l.14.08c-2.5-.36-5-.9-7.48-1.1a.11.11 0 0 0 0 .22c3.7.7 7.33 1.52 11.09 1.85s7.37-.96 11.09-1.25zm-9.16.54c2.48-1 4.09-4.78 3-7.29a11.84 11.84 0 0 1 1.25.68c1.74 1.46 2.66 3.66 4.39 5.56-2.89-.06-5.7.81-8.64 1.05zm-3.28-7.51a.42.42 0 0 0 .11.12v.26a1.94 1.94 0 0 0-.11-.38zm-.35-.6l-.1-.12h.14a.54.54 0 0 0-.03.12zm-3.92.57zm-.65 1.56h.08l-.09.14c.01-.01.01-.07.02-.14zm.95-.8h.07l-.16.08zm.54-.11a.42.42 0 0 0 .1.09h-.19zm1.38-1.19l.89-.11a1.57 1.57 0 0 1 .82 1.3A1.14 1.14 0 0 1 133 142a1.18 1.18 0 0 1-1.44-.71 1.33 1.33 0 0 1 .44-1.67zm.36 2.9a.5.5 0 0 0-.07.19l-.1-.23zm1.81 1.45v.07a.56.56 0 0 0 .1.18 2.18 2.18 0 0 1-.61-.14 1.33 1.33 0 0 0 .52-.08zm1.2.06a1.63 1.63 0 0 0 .18-.22.39.39 0 0 0 .17-.11c.08-.1.15-.21.23-.32a1.34 1.34 0 0 1-.58.65zm4.29-3.9c0 .09 0 .18.07.27h-.14a.58.58 0 0 0 .09-.27zm-10.26.17c0 .08-.08.17-.12.25v-.25zm3.51 7.22a4.08 4.08 0 0 0-1.11-.33.14.14 0 0 0 0-.13 7.62 7.62 0 0 1-2.62-4.61 1.88 1.88 0 0 1 .86-1 1.48 1.48 0 0 1 1-.13H131a3.89 3.89 0 0 0-1.61 1.2c-.06.09.07.19.14.11a7.76 7.76 0 0 1 1.62-1 1.62 1.62 0 0 0 .86.8 2.73 2.73 0 0 0 2.59 2.5c1.56.08 2.26-1.38 1.95-2.72 0-.12.07-.24.1-.36.82-1 2.68-1.67 3.16-.35a.27.27 0 0 0 .12.13c.16 3.22-1.62 7.14-5.38 5.87-.09 0-.14.11-.06.15s.18.06.27.09q-.88 0-1.77-.15s.01-.06-.05-.07z" fill="#0d465b"/><path class="cls-1" d="M207.2 144.21l-.95-.05c-.87-.58-1.15-3-1.59-3.92a8.12 8.12 0 0 0-3.51-3.37 10.75 10.75 0 0 0-4.91-1.26 30.26 30.26 0 0 0-7.43.08 6.5 6.5 0 0 0-4 2.53 8.78 8.78 0 0 0-.84.86c-1.48 1.76-.69 4-2 5.79-.11.15.12.32.25.19 1.19-1.18.93-2.48 1.36-4a4.34 4.34 0 0 1 .71-1.41c.34-.32.66-.63 1-.92a5.81 5.81 0 0 0 .88-.29c.17-.08.36-.17.54-.28a6.58 6.58 0 0 0 3.31 7c-2.74 0-5.47-.09-8.23 0a.1.1 0 0 0 0 .2c4.2.28 8.34.78 12.54.46s8.51-1.2 12.87-1.13c.33.02.32-.46 0-.48zm-15.48-4.12a2.24 2.24 0 0 1 .5-.52l-.06.12-.33.4zm.23-3.45a.34.34 0 0 0-.08.07 2 2 0 0 0-.26-.3h.17a.42.42 0 0 0 .22.24zm.32 1v.21a1.86 1.86 0 0 0 0-.24zm5.26-.12a1.18 1.18 0 0 1 .13.12zm-7.25-.87a.11.11 0 0 0 0-.1h.7v.06c.46.46.91.88.81 1.6a1.67 1.67 0 0 1-.82 1.17 1 1 0 0 1-.59.14l-.14-.12v-.11c0-.03-.17-.18-.2-.05a6.25 6.25 0 0 0-.54-.44 2.22 2.22 0 0 1 .79-2.18zm7.37 0h.17v.12zm-7.21 3.8l.08.06a1.76 1.76 0 0 0 .11.44 2 2 0 0 1-.25-.54zm1.34 1.15v.05a1.81 1.81 0 0 1-.31-.06zm6.89-4.26h.11a1.63 1.63 0 0 0-.07.2zm-2.76 7.52a46.38 46.38 0 0 1-5.62.34.09.09 0 0 0 0-.09 6.18 6.18 0 0 1-2.83-3.39 7.48 7.48 0 0 1-.22-2.34.21.21 0 0 0 .22-.09l.17-.26c.91-.42 1.71.43 2.48 1.11a2 2 0 0 0 1.77 1.8 2.68 2.68 0 0 0 2.94-2.3 4.76 4.76 0 0 0 .21-1 1.15 1.15 0 0 0 0-.3 1.87 1.87 0 0 1 .34-.37.19.19 0 0 0 .1.09c.4.15.82.25 1.21.42a10.7 10.7 0 0 1 1.11.68.23.23 0 0 0 .27 0c.06 2.67-.29 6-2 5-.08-.05-.15.08-.08.13 1.79 1.26 2.78-2.21 2.82-5.07a.32.32 0 0 0 0-.1V139v-.83a1.48 1.48 0 0 1 .9-.92h.3a9.23 9.23 0 0 1 2.91 1.86c1.26 1.19 1 3.78 2.11 5a64.79 64.79 0 0 0-9.11.75z" fill="#0d465b"/><path class="cls-1" d="M146.81 187.3h-.49a.06.06 0 0 0 0 .13h.49a.05.05 0 0 0 0-.13z" fill="#0d465b"/><path class="cls-1" d="M156 190.43c-1.54-1.92-4.64-3.71-7.16-3.53a.31.31 0 0 0-.26.46.93.93 0 0 0 .24.34 1.23 1.23 0 0 0 .62.77c.09.05.16-.06.11-.13a1.19 1.19 0 0 1-.26-.48 1.63 1.63 0 0 0 .62-.1c.41.33.74 1 1.2 1.13a3.08 3.08 0 0 0 2.13.13l.88.35a.09.09 0 0 0 .13-.1 8.57 8.57 0 0 1 1.6 1.33c.05.06.15-.08.15-.17z" fill="#0d465b"/><path class="cls-1" d="M144.49 185.33a.05.05 0 0 0 0 .1c2-.39 3.79-1.12 5.82-.47 1.32.43 2.51 1 3.88 1.34a8.1 8.1 0 0 0 2.1 0c2.24-.34 4.44.16 6.68.18a.07.07 0 0 0 0-.13c-1.62 0-3.18-.36-4.79-.5-2.11-.19-3.79.49-5.94-.27-3.4-1.26-4.34-1.15-7.75-.25z" fill="#0d465b"/><path class="cls-1" d="M175.35 183.79a.07.07 0 0 0 0-.13c-3.25.05-6 2-9.24 2.17-.06 0-.06.09 0 .09 3.24-.02 6.01-1.92 9.24-2.13z" fill="#0d465b"/><path class="cls-1" d="M178.1 184.29a.09.09 0 0 0 .13-.12 2.46 2.46 0 0 0-1.88-.83.07.07 0 0 0 0 .13 2.71 2.71 0 0 1 1.75.82z" fill="#0d465b"/><path class="cls-1" d="M181.62 186.11a41.78 41.78 0 0 1-3.49 3s0 .11.06.08a23.18 23.18 0 0 0 3.76-2.79c3.17-2.37-.08-8-3.1-9.06-.1 0-.17.13-.07.18 3.11 1.36 4.76 5.8 2.84 8.59z" fill="#0d465b"/><path class="cls-1" d="M154 143.1c.92 2.28-1 2.51-1.38 4.18-.42 2 .92 4 1.39 5.87 0 .1.18.06.16 0-.44-1.91-2-4.37-1-6.36.38-.74 1.4-1.59 1.29-2.53a8.8 8.8 0 0 0-3-5.25c-.06-.06-.16 0-.1.1a11 11 0 0 1 2.64 3.99z" fill="#0d465b"/><path class="cls-1" d="M154.17 155.84a2.47 2.47 0 0 0-.24-1.3c-.07-.14-.28 0-.21.13a3.07 3.07 0 0 1 .26 1.17.1.1 0 0 0 .19 0z" fill="#0d465b"/><path class="cls-1" d="M154.18 158.57a8.87 8.87 0 0 0 0 1.51.09.09 0 0 0 .18 0 9.27 9.27 0 0 0 0-1.51.13.13 0 0 0-.18 0z" fill="#0d465b"/><path class="cls-1" d="M165.45 145.35a.15.15 0 0 0 0-.29.15.15 0 0 0 0 .29z" fill="#0d465b"/><path class="cls-1" d="M143.06 183.38v.61a5.47 5.47 0 0 0 0 .71v.18a3.35 3.35 0 0 0 .67 2 7.44 7.44 0 0 0 3.73 2.42.12.12 0 0 0 .1 0 3.55 3.55 0 0 0 2.11.29c.07 0 0-.12 0-.11-1.4.2-2.34-.77-3.4-1.5a4.79 4.79 0 0 0-1.46-1.2c-1.35-.73-1.49-1.8-1.21-3.25.37-1.93 2.09-3.52 3-5.17.05-.09-.08-.2-.15-.12-1.16 1.5-2.86 3.16-3.29 5.11a.05.05 0 0 0-.1.03z" fill="#0d465b"/><path class="cls-1" d="M174.51 187.08a.09.09 0 0 0 .09.15c.31-.19.72-.48.63-.9s-.54-.53-.93-.42a3.55 3.55 0 0 0-1.74.62 25.67 25.67 0 0 0-4.51 3.91.09.09 0 0 0 .13.13 31.3 31.3 0 0 1 2.64-2.09 8.56 8.56 0 0 0 2.25-.61 5.3 5.3 0 0 0 1.2-1 .21.21 0 0 0 .34-.11 1.62 1.62 0 0 0 .06-.32h.06c.36.06-.14.56-.22.64zm-1.25-.25l.21-.12zm-1.67 1.11l-.12.05.1-.07z" fill="#0d465b"/><path class="cls-1" d="M158.3 192.81s-.09 0 0 .07a9 9 0 0 0 6.73.56c.14 0 .07-.22-.05-.2-2.42.34-4.43.61-6.68-.43z" fill="#0d465b"/><path class="cls-1" d="M229.81 133.25a.17.17 0 0 0 0-.35.17.17 0 0 0 0 .35z" fill="#0d465b"/><path class="cls-1" d="M245.48 156.3c.32 0 .42-.52.08-.58a1.9 1.9 0 0 1-1.19-.83.24.24 0 0 0-.42.25 1.75 1.75 0 0 0 1.53 1.16z" fill="#0d465b"/><path class="cls-1" d="M246.47 159.33a3.12 3.12 0 0 1-2.1-.9c-.28-.27-.7.15-.43.43a3.36 3.36 0 0 0 2.52 1.08.31.31 0 0 0 .01-.61z" fill="#0d465b"/><path class="cls-1" d="M244.82 168.61a.39.39 0 0 0 0-.78.39.39 0 0 0 0 .78z" fill="#0d465b"/><path class="cls-1" d="M277 355.8a.27.27 0 0 0-.38.38 9.08 9.08 0 0 1 2.09 3.89c.11.53.94.31.81-.23a7.6 7.6 0 0 0-2.52-4.04z" fill="#0d465b"/><path class="cls-1" d="M263.51 192.79a6 6 0 0 0 2.07.06 10.33 10.33 0 0 1 5.59.58 34.62 34.62 0 0 0-4.33 3.34c-.19.15 0 .47.19.33 1.61-1.1 3.18-2.26 4.77-3.37a14.32 14.32 0 0 1 5 5c3.25 4.83 4.76 10.79 7 16.12.07.18.38 0 .31-.13-2.39-5.88-4.19-11.88-7.51-17.34a19.59 19.59 0 0 0-5-5.42c-2.71-2-5.81-.25-8.79-1.14 6.39-6.13 14.45-9 22.93-4.68.54.27 1-.51.47-.81-7-4-15.15-3.67-21.17 1a.19.19 0 0 0-.3-.1l-.39.28a.27.27 0 0 0 0-.11 4.64 4.64 0 0 1-.7-3.28c0-.26-.41-.32-.45-.06-.15.89-.39 3.35.83 3.75a5.91 5.91 0 0 0-1.69 2.13l-.44.53a38.36 38.36 0 0 0-1.25-9.12.2.2 0 0 0-.39.11c.86 3.08.85 6.2 1.21 9.35a.22.22 0 0 0 .07.13c-.19.25-.38.48-.56.74a.62.62 0 0 0-.11.32.92.92 0 0 0-.41.65c-.3-.18-.62-.34-.93-.49.59-3.73.21-8.14-1.89-11.33-.12-.19-.42 0-.3.17 2.14 3.5 1.5 7.07 1.59 10.89a14.52 14.52 0 0 0-2-.64c.51-4.14.62-8.3-1.73-11.93a.21.21 0 0 0-.36.21c2.17 3.91 1.43 7.46 1.35 11.55-.74-.15-1.5-.26-2.26-.34a5.69 5.69 0 0 0 .54-1.18.71.71 0 0 0 0-.12c1.14-3.19 1.29-7.5-.91-10a.8.8 0 0 0-1.33.35c-.22.87-.5 1.72-.79 2.57-.19.53-.37 1.07-.54 1.6h-.13q.34-1 .63-2a.34.34 0 0 0 .06-.23c.09-.32.18-.63.26-1a15.69 15.69 0 0 0 .36-2.16 24.91 24.91 0 0 1 9 1.5c.67.21 3.68.89 3.92 1.63a22.51 22.51 0 0 1 .95 3.87c0 .34.57.24.58-.08.06-1.46-.42-3-.18-4.41a.82.82 0 0 0-.37-.91 24.33 24.33 0 0 0-13.78-2.36c.2-2.85-.05-5.74.73-8.57a6.39 6.39 0 0 0 5.33.43c5.63-1.67 5.77-9.86 6.85-14.45a.36.36 0 0 0 0-.22 14.8 14.8 0 0 1 1-2.61c1.25-2.46 2.61-4.66 3.23-7.37a.46.46 0 0 0-.08-.41 14.36 14.36 0 0 0 4.56-7.6 6.84 6.84 0 0 0-1.8-6.07 7.22 7.22 0 0 1 1.86-3.65c1.35-.58 1.83-2 1.85-3.47a11.56 11.56 0 0 0 .17-2.71c2.33-3.52 3.48-6.18 2.61-11.56-.77-4.74-1.57-8.72-.61-13.55.72-3.6 2-7.08 2.89-10.66 2.32-9.82-2.32-17.94-7.92-25.49-2.93-7.57-9.84-12.65-14-19.51-4.69-7.83-6.68-16.43-12.87-23.34-9.31-10.33-23.76-12.1-36.25-7.71a.81.81 0 0 0-.75-.25c-2.27.48-5.59-3.79-7.11-5.12A12.44 12.44 0 0 0 197.08.2c-3-.87-5.94 1.26-8.53 3.54a.4.4 0 0 0-.32-.25c-4-.52-5.75 1.53-8.76 3.81-5.9 4.47-15.47-.6-21.87-1.3-.76-.08-1.52-.13-2.28-.17-10-1.95-21 4.91-28.61 10.5-5 3.69-9.75 7.84-13.09 13.17a19.83 19.83 0 0 0-1.62 3.21 37.74 37.74 0 0 0-2.83 8.19.34.34 0 0 0 0 .19c-2.92 4.45-5.73 8.7-10.51 11.7a.35.35 0 0 0-.13.5 36.49 36.49 0 0 0-7.92 6.44c-5.88 7-7.43 16.88-7.92 25.67-.65 11.45 3.8 22.56 1.79 33.91a37.12 37.12 0 0 0-2 7.88 16.27 16.27 0 0 0 1.7 9.27 39 39 0 0 0 3 5.2c.1.15.23.32.37.5A10.19 10.19 0 0 0 88.7 146a9.08 9.08 0 0 0 .61 4.36c1.53 4.69.82 8.34 0 13.09s4.36 8.7 7.65 11.36c2.19 1.77 5 2.77 7.36 4.39a7.79 7.79 0 0 0 .88.53 21.2 21.2 0 0 0-4.06 4.07c-1.43 1.62-2.9 3.22-4.29 4.87a14.57 14.57 0 0 0-2 3.49c-.4.59-.78 1.2-1.17 1.82-3.29 4.02-6.51 8.21-10.68 11.14-3.35 2.35-8.62 4.44-9.64 8.85-1.15 5 6.84 6 2.69 11.49a.28.28 0 0 0-.06.17q-.79.67-1.53 1.35a10.73 10.73 0 0 0-4.59 5.69 10.85 10.85 0 0 0-.84 7.08c-1.06 4.14-4.71 6.42-7.62 9.22-2.14 2.07-3.3 4.5-2 7.15a31.17 31.17 0 0 0-11.85 4.58 62.59 62.59 0 0 1-11.39 3 34.94 34.94 0 0 0-10.15 3c-4.09 2.07-7.11 5.73-11.08 8-4.41 2.54-9.8 2.95-14.71 3.73-.32.05-.25.59.08.57a53.15 53.15 0 0 0 13-1.92c4.51-1.44 7.93-4.71 11.73-7.35 3-2.09 6.45-2.93 10-3.57a.27.27 0 0 0 0 .14 3.73 3.73 0 0 0 3.27 2.06 81.988 81.988 0 0 0-3.72 4.15 49.49 49.49 0 0 0-5.83-4.49c-.16-.1-.29.14-.15.25 1.93 1.4 3.63 3.4 5.74 4.53-3 3.59-5.77 7.36-8.41 10.93-.33.46.43 1 .79.6 8.82-11 18.92-24.42 33.79-26.48a5.32 5.32 0 0 0 .37.47v.06c3.83 4.62 10 7.79 15.13 10.76a67.59 67.59 0 0 0 6.88 3.48 53.06 53.06 0 0 0-6.57-.08.05.05 0 0 0 0 .11c2.68 0 5.26.43 7.92.69a.19.19 0 0 0 .17-.07q.64.25 1.29.47a26.63 26.63 0 0 1-11.86 3.14.18.18 0 0 0 0 .36c4.19-.11 9.29-.76 12.82-3.19l1.73.48c-5.25 2-8.75 6.38-15 5.28-5.74-1-9.37-1.1-15 1.08-6.66 2.61-17.37 8-19.9 15.41-.08.24.3.4.4.17 3.7-8.49 16.22-13.73 24.52-15.7 5.48-1.3 10.57 2.3 15.94.74 3.94-1.15 6.95-4.71 10.58-6.52l.44.13 1.09.74c-4.56 2.32-7 8.22-12.71 8.09-.09 0-.09.13 0 .14 5.55.26 8.76-5.34 13.21-7.88l1.19.77a11.93 11.93 0 0 0-6.1 5.49.14.14 0 0 0 .24.14 12.92 12.92 0 0 1 6.39-5.25c1.24.8 2.49 1.58 3.76 2.33.29.27.58.54.88.79 5.32 4.48 12.48 7.25 19.12 9.5 6.25 2.86 12.6 5.55 18.95 8.31 1.2.52 2.39 1.08 3.59 1.62-13.91-2.59-25.3-12.65-39.46-14.08-.21 0-.26.35-.05.38 14.83 2.08 26.41 13.27 41.53 14.61 12.35 5.68 24.17 12.18 35.99 18.63a56.07 56.07 0 0 0 6.23 3.5.35.35 0 0 0 .24 0l2.95 1.6C203 333 220 337.88 235.92 345.47c15.29 7.28 25.71 19.4 37.77 30.82a.71.71 0 0 0 1-1C264 364 254.21 352.51 240.2 345.19c-16.15-8.43-33.89-13.09-50-21.6-4.77-2.52-9.49-5.09-14.21-7.65-8.13-6.08-16.41-12.07-25.46-16.52-.19-.09-.35.19-.16.28 5.75 3 10.81 7 15.85 11-8.87-4.74-17.82-9.31-27.12-13.3C126.64 292 114 287.16 102 281a32 32 0 0 1-5.43-4.56c-5.14-5.46-9.46-10.36-16.66-13-.22-.08-.31.26-.1.35a25.52 25.52 0 0 1 10.74 7.66c1 1.26 2 2.56 3 3.82-3.12-2-7.21-2.54-10.55-4.11a109.3 109.3 0 0 1-15-8.84l-.85-.56a47.49 47.49 0 0 0 8.06 1.42c.24 0 .29-.37.06-.42-3.45-.73-10.17-1.8-12.9-5a6.35 6.35 0 0 0 6-.16c.26-.14.08-.6-.21-.49a5.86 5.86 0 0 1-5.2-.42 3.23 3.23 0 0 1-1.57-3.2 18.18 18.18 0 0 1 3.42-4.84c1.46-1.69 4.22-3.12 5.31-5.24 2.34 7.57 12.2 13.19 18.64 16.06a.55.55 0 0 0 .32 0c15 10.57 32 16.86 48.94 23.77 20.42 8.36 40.95 17.3 60.56 27.42 13.53 7 27.41 12.67 41.29 18.92 13.38 6 27.73 13.22 35.75 26.07a.62.62 0 0 0 1.06-.62c-5.5-12.73-20.23-20.12-32-25.77-13.79-6.58-28.23-11.61-41.7-18.88-19.23-10.38-39.71-18.88-59.84-27.28-3.47-1.45-7-2.83-10.51-4.21-5.35-5.17-12.06-9.12-17.79-13.83a93.17 93.17 0 0 1-18.42-19.68c-.08-.12-.28 0-.2.12 4.66 7.19 10.55 13.28 16.9 19 1.74 1.56 3.53 3.19 5.36 4.8a7.67 7.67 0 0 1-5 1.46.11.11 0 0 0 0 .21 7 7 0 0 0 5.46-1.29l2 1.74c-.66.19-1.31.51-2 .75s-1.31.44-2 .63c-5.7-2.31-11.33-4.77-16.77-7.56a.31.31 0 0 0-.14-.25c-4.67-3.22-9.54-6.27-13.43-10.45-3.49-3.75-6.39-7.9-10-11.54-.19-.19-.46.1-.29.29 3.45 3.78 5.84 8.36 9.1 12.3-3.31-2.2-7-4.2-10-6.75a.51.51 0 0 0 0-.1c-2.77-3.91-4.79-8.22-4.67-12.36 1.48-9.76 16.41-13.46 16.46-24.91 0-.24-.34-.23-.37 0-.64 5.29-4.54 8.83-8.55 12.21a4.13 4.13 0 0 0-.24-4c-1.15-2.21-3.73-3.56-2.17-6.53 1.43-2.72 5.65-4.54 8.12-6.21 4.61-3.13 7.88-8 11.32-12.33a56.28 56.28 0 0 1 6.73-7.13c-1.29 3.41-2 7.18-4.9 9.67-.13.12.06.31.2.2 3-2.46 4.31-6.83 5.45-10.49a47.39 47.39 0 0 1 3.79-2.89 38.42 38.42 0 0 1-5.17 11.23c-.1.15.14.29.24.14 2.52-3.7 5.19-7.62 6-12.08.56-.36 1.14-.72 1.73-1.06l.92-.28a37.25 37.25 0 0 0-2.48 8.1.38.38 0 0 0-.24.21c-2.49 5.53-6.72 10.11-8.26 16.07-1.35 5.19 1.05 10.08 4.72 13.59 4 3.86 9.7 6.41 14.5 9.17 3 1.73 6.14 3.23 9.16 4.93a49.28 49.28 0 0 1 8 5.92c-.4-.21-.8-.41-1.21-.6-3.71-1.68-8-2.32-10.75-5.57-.12-.14-.37 0-.26.21 1.71 2.49 3.95 3.77 6.71 4.92 4.65 1.94 8.42 4.88 12.53 7.68a21.25 21.25 0 0 0 4.38 7.85l.06.58a.23.23 0 0 0 .45 0 13.14 13.14 0 0 0 1.55 1.29 3.28 3.28 0 0 0 .31.52.27.27 0 0 0 .45 0 10.82 10.82 0 0 0 2.28 1.05.22.22 0 0 0 .13 0 11.5 11.5 0 0 0 6.25.06c8.15 7.79 17.34 14.8 26.11 21.86a209.43 209.43 0 0 0 28.82 19.87c10.68 6 21.79 11.18 32.54 17 8.12 4.42 20.3 7.5 24.87 16.19.38.72 1.36.09 1.06-.62-3.38-8-11.35-10.79-18.62-14.34-1.82-.89-3.63-1.8-5.44-2.72a19.67 19.67 0 0 0 5.89-3.83c6.76 2.33 13.67 3.64 20.13 6.94a.3.3 0 0 0 .31-.52c-5.5-3.43-12.44-6.73-19-7.78a45.46 45.46 0 0 0 6.06-8.08 26.19 26.19 0 0 0 5.54 1.68 53.1 53.1 0 0 0 7.63 1.33c.46 0 .56-.71.11-.81-2.47-.54-4.91-1.23-7.33-2a32 32 0 0 0-5.2-1.49c.36-.63.7-1.25 1-1.84a57.46 57.46 0 0 0 2.71-6.13c3 1 7.08.39 10 .24a.28.28 0 0 0 0-.57c-3.24-.16-6.33-.65-9.5-1.1a77.65 77.65 0 0 0 2.37-8.24c2.14.68 4.82 0 6.87-.34a.27.27 0 0 0-.07-.53 22.49 22.49 0 0 1-6.57-.35 30.77 30.77 0 0 0-.47-10.1h.11a17.4 17.4 0 0 0 4.7-.57c.38-.08.21-.64-.16-.58a44.58 44.58 0 0 1-4.54.09.56.56 0 0 0-.29.1c-.3-1.58-.64-3.14-.95-4.65-.14-.69-.25-1.38-.36-2.07a9.55 9.55 0 0 0 3-.46.32.32 0 0 0-.17-.62 12.48 12.48 0 0 1-3 .2c-.22-1.6-.36-3.18-.44-4.76a8 8 0 0 1 4.86-1.84 19.78 19.78 0 0 1 .15 5.07c0 .15.23.18.25 0a19.78 19.78 0 0 0 0-5.18.18.18 0 0 0 0-.29 31.12 31.12 0 0 0-.7-3.54l.62-.05a.21.21 0 0 0 0-.42h-.74c-.32-1.18-.68-2.36-1.07-3.54l.49-.05a.19.19 0 0 0 0-.38h-.63a63 63 0 0 1-3.09-11.09c0-.27-.51-.21-.48.07.39 3.77 1.72 7.41 3 11a5.08 5.08 0 0 0-2.62 1c0-1.46.08-2.93.1-4.42.13-6.9-1.89-13.69-3.93-20.21-1.94-6.19-3.74-12.59-6.28-18.57-1.31-3.1-2.77-6.13-4.24-9.16a.21.21 0 0 0 .17 0c2.43-1.62 5-3 7.47-4.54.41.12.82.23 1.23.37a.33.33 0 0 0 .16 0c5 5.65 8.23 12.64 12.09 19.05 4.39 7.3 8.38 14.68 10.77 22.89a.18.18 0 0 0 .35-.09c-1.33-8.48-5.68-16.17-9.71-23.62-3.3-6.04-6.39-12.63-11.01-17.97zM95.41 277.5q-1.38-.78-2.74-1.6a17.27 17.27 0 0 1 1.85.81.28.28 0 0 0 .23 0zM38.67 268h-.05a3.93 3.93 0 0 1-3.09-1.87l2.67-.47a28.7 28.7 0 0 0 4.08-1c-1.28 1.05-2.44 2.19-3.61 3.34zm88.78 8.46a.94.94 0 0 1-.57-.23.3.3 0 0 0-.49.22l-5.19-2 1.28-.38a11.11 11.11 0 0 0 1.23-.39c1.23.98 2.48 1.92 3.74 2.82zm.35.53a.26.26 0 0 0 .13-.19l.83.56zm-6.43-5.25l1.59 1.31c-.32.13-.64.28-.92.4-.52.22-1 .46-1.49.72l-2.88-1.17a11.31 11.31 0 0 0 3.7-1.22zm129.22-77.91c-.51-1.06-1-2.12-1.51-3.19 2.15.24 4.3.42 6.43.73-1.65.69-3.26 1.54-4.85 2.38a.17.17 0 0 0-.07.12zm-17.21 79.54a35.55 35.55 0 0 0 3.48-1 68.93 68.93 0 0 1-4.49 5.84c-.91.07-1.84.11-2.78.11 1.42-1.46 2.51-3.19 3.79-4.78a.15.15 0 0 0 0-.13zm4.13-1.21a29.22 29.22 0 0 0 3.17-1.37c-1.43 2.22-2.86 4.47-4.11 6.79a28.59 28.59 0 0 1-4 .62 58.22 58.22 0 0 0 4.94-6zm3.87-1.73a21.13 21.13 0 0 0 3.49-2.35c-1.59 3-3 6.16-5.39 8.62a24.28 24.28 0 0 1-2.64.8c1.61-2.22 3.08-4.63 4.54-7.03zM257.26 256q-.45.91-.91 1.83a50.85 50.85 0 0 0 1-14.3 32.21 32.21 0 0 1-.09 12.47zm-6.95-13.62c0-4.4 1.2-8.33 2.35-12.3q-.35 2-.56 4a.85.85 0 0 0-.26.45 75.7 75.7 0 0 0-1.42 12.4c-.05-1.53-.09-3.05-.1-4.57zm4-19l-.11.06.05-.38zm-3 40v.14a.89.89 0 0 0-.28 0l.13-.81.3.06v.31a.58.58 0 0 0-.06.24zm-2.66.94zm.06.69zm3.73-2l-.11-.07v-.3a1.14 1.14 0 0 0 .43-.81c.2-1.73.32-3.46.4-5.2 1.36-6.82.08-14 .56-21a.69.69 0 0 0 .06-.08c.14-.28.25-.56.37-.83 1.57 9.34 2.16 19.81-1.62 28.28zm3.22-2.88l-.1.21zm-6.81 2.71v.07zm-1.76 3a13.69 13.69 0 0 0 .81-1.16c0 .84-.14 1.67-.22 2.51-1.25 2.58-2.27 5.3-4 7.56a22.24 22.24 0 0 1-3.91 2c3.15-3.08 5.3-7.17 7.4-11zm.35 3.21c-.07.41-.14.83-.22 1.24s-.06 1.41-.41 1.73a.3.3 0 0 0-.06.37 23.05 23.05 0 0 1-2.46 1.94 30.46 30.46 0 0 0 3.23-5.33zm1.26.17v-.37c0 .24 0 .46.06.71a.77.77 0 0 0 .26.47l-.2.24-.35.38a11.6 11.6 0 0 0 .31-1.51zM260 249.6c-.09.27-.18.54-.28.8a59 59 0 0 0-2.46-16 .8.8 0 0 0 .5-.28c.92 4.81 2.39 10.35 2.24 15.48zm-5.55-33.18v-.57l.1.59zm-2.3 7.33c-2.37 10.58-10.8 18.46-19.26 24.53-.16.12 0 .38.16.27C239.81 244 246 238.91 250 232a32.2 32.2 0 0 0-1.6 8.68c-.21 5.8.67 11.57.55 17.36-2.11 9.59-12.18 15.41-21.61 16-.18 0-.18.29 0 .28a37 37 0 0 0 5.76-.82c-1.32 1.62-2.39 3.42-3.85 4.91q-1.62 0-3.29-.15a45.72 45.72 0 0 1-7.89-1.35l-.07-.07a.43.43 0 0 0-.17-.11.81.81 0 0 0 0-.72c1.3-.18 2.56-.44 3.65-.68.2 0 .12-.35-.09-.31a22.13 22.13 0 0 1-5.61.24c.13-.64-.38-1.35-.66-1.89-.08-.16-.3 0-.27.12a11.26 11.26 0 0 0 .34 1.73c-.86-.08-1.72-.19-2.58-.32a9.48 9.48 0 0 1 1.29-4.34.16.16 0 0 0-.27-.16 9.8 9.8 0 0 0-1.67 4.4h-.31a.4.4 0 0 0-.15 0h-.09a.29.29 0 0 0 .18-.36c-.45-1.94.8-4.55 1.57-6.27.08-.19-.18-.35-.28-.16-.91 1.71-2.69 4.6-1.9 6.6l-.76-.31a.39.39 0 0 0 .17-.4c-.5-3.08 1.3-6.09 2-9a.16.16 0 0 0-.31-.09c-.9 3-3.22 6-2.43 9.27l-.48-.21a.37.37 0 0 0 .24-.46c-.91-3.66 1.44-7.65 2-11.23 0-.21-.28-.3-.33-.09a61.79 61.79 0 0 1-1.88 6.24c-.5 1.61-1.19 3.63-.57 5.3l-.73-.33a.36.36 0 0 0 .2-.39c-.79-5 2-9.33 2.05-14.26 0-.21-.31-.21-.33 0-.37 5-3.52 9.34-2.4 14.44l-.14-.06a22.44 22.44 0 0 1 1.35-14.79.15.15 0 0 0-.26-.15c-2 2.91-3.57 8.39-2.75 12.5a15.19 15.19 0 0 1 .07-8.59c.73-2.13 1.44-3.92.18-5.8 8.92-.85 18.5-.59 25.16-6.94.11-.1-.05-.26-.16-.16-7.54 6.6-18.27 4.65-27.74 5.95l.35-.41a29.19 29.19 0 0 0 2.66-2.66c6.57 1 14.31-1.87 20.05-4 7-2.6 14.84-6.67 18-13.84.82-1.38 1.5-2.85 2.21-4.31a15.78 15.78 0 0 0 1.7-3.21.32.32 0 0 0 0-.13A22.67 22.67 0 0 0 249 214c0-.22-.37-.12-.34.09a20 20 0 0 1-.53 8.27c.31-8.54-.81-17.29-1-25.83a66.83 66.83 0 0 0 3 8.29c2.52 6.28 3.48 12.29 2 18.93zm-35.61 52.37a.83.83 0 0 0 0 .33l-.91-.28c.26-.01.57-.03.88-.05zm-38.86-4.79l-3.33-2.65a.48.48 0 0 0 .52-.47c-.08-2.33 4.79-6.67 7.13-8.11l.4-.2 1.31.93c-3.44 1.82-5.62 4.85-7.66 8.06-.09.14.13.27.22.13 2.07-3.14 4.27-6 7.68-7.78a.19.19 0 0 0 .05-.24l1.56 1.1c-3.28 2.3-5.7 5.95-7.91 9.18zM157 256.57l1.11.36h-.66a1.68 1.68 0 0 1-.45-.36zm48.57-.45c1.57 2.65-1.14 6.41-1.29 9.26a17.9 17.9 0 0 0 .31 4.82c-1.25-3.38-1.12-6.34-.07-10.06.42-1.5-.32-2.7-1.28-3.76q1.14-.14 2.32-.26zm-15.88 6.39l2 .72-.07.1-.39-.15a.67.67 0 0 0-.56 0zm2.51-2.28h-.18.18zm3.58 5zm-24.4-3.07h.41l-.07.39zm2.47-.29l.26-.06-.27.55q0-.25.01-.49zm2-.55l.29-.1-.17.24a.92.92 0 0 0-.17-.14zm-7.5.45a.83.83 0 0 0 0 .19l-.47-.31zm8.86-2.75H176v-.08h1.24zm-11.41.21l-.33-.12h.35a.8.8 0 0 0-.07.13zm17.65-.32h.18a1.09 1.09 0 0 0-.27.44.76.76 0 0 0 .04-.44zm24.17-8.63v.26h-.23zm-2.59-.82l-.21.16a.9.9 0 0 0-.35.55l-.19.25a.6.6 0 0 0 0-.15l.07-.21.79-.75zm-7.71 5.27h-.11a1.7 1.7 0 0 0-.29.06l1.13-.53c-.31.17-.53.33-.77.48zm-2.63 1h-.12zm-20.79 12.58zm28.33 1.9l.26.32-.41-.22zm4 2.23zm45.44-105.23l.07.08.23.19a.64.64 0 0 0-.12.12 6.77 6.77 0 0 0-.89 1.94 18.64 18.64 0 0 1-1.24 2c-.75 1-1.65 1.9-2.48 2.83v-3.59l.84-1.06c.59-.76 1.38-1.36 1.94-2.12.15-.2-.13-.42-.32-.32a6.8 6.8 0 0 0-2.47 2.63q0-3.74-.21-7.48a6.54 6.54 0 0 1 .53.39 6 6 0 0 0 4.16 4.39zm-4.43 8a19.72 19.72 0 0 0 3.11-3.17l.22-.27c-.07.78-.08 1.57-.07 2.36-1 1.18-1.93 2.64-3.28 3.29q.06-1.14.06-2.24zm6.38 10.41v-3.53a10.62 10.62 0 0 1 .04 3.5zm-4.33-1.62a4.86 4.86 0 0 0-2 1.21l-.1.08v-1.84a8.58 8.58 0 0 0 1.66-.91c.32-.22.66-.43 1-.63-.15.72-.35 1.42-.56 2.09zm.89-3.57a10.19 10.19 0 0 0-1.43 1c-.51.4-1 .82-1.54 1.21v-1.56a7.28 7.28 0 0 0 1.59-.94 17.74 17.74 0 0 0 1.62-1.4c-.04.61-.13 1.16-.24 1.72zm.39-3.64v.53c-.64.58-1.17 1.3-1.79 1.89a11.52 11.52 0 0 1-1.53 1.21v-2.56a8 8 0 0 0 3.3-2.44c.03.5.03.96.03 1.4zm-3.46 13.58v-3.79c.27-.16.51-.37.77-.53l.87-.53c-.29.89-.6 1.77-.91 2.65a.18.18 0 0 0-.27.19l.1.29zm5.5-.84zm19-51.81c-1.14 3.63-4.22 6.9-7.09 9.26-.1.08 0 .26.14.18 1.14-.81 2.3-1.66 3.39-2.58-1.21 2.92-2.83 5.6-4.17 8.47s-1.29 5.94-2.68 8.75-4.63 4.24-7.65 4.14c-1.91-1.18-4.31-3.22-5.85-4 0-.14-.11-.27-.15-.42s-.23-.1-.22 0 0 .17 0 .25a2 2 0 0 0-.51-.13.23.23 0 0 0-.14 0 .57.57 0 0 0-.37.12.13.13 0 0 0 .06.22l.11.06v.79a.39.39 0 0 0-.37-.38 2.93 2.93 0 0 1-1.82-.76.23.23 0 0 0-.32.32c.06.07.44.37.44.44 0 .22.18.32.35.44a2.11 2.11 0 0 0 1.35.34.37.37 0 0 0 .37-.35q-.23 4.5-.38 9l-.08.15a.1.1 0 0 0 .07.14c-.06 1.82-.13 3.64-.18 5.45h-.05a.14.14 0 0 0 0 .28q-.23 8.42-.28 16.83c-.06 10.24 1 20.39 1.41 30.6a26.85 26.85 0 0 1-1.4 2.95 22.34 22.34 0 0 0-2 3.34.73.73 0 0 0-.55.4c-3.89 7.65-10.8 11.34-18.53 14.3-2 .78-4.14 1.51-6.27 2.14a16.8 16.8 0 0 0 4.44-3.78c.1-.12-.08-.31-.18-.18-1.34 1.61-3.35 2.3-5.26 3-.69.25-1.44.43-2.18.64a.44.44 0 0 0-.52-.25.71.71 0 0 0 0-.21l.26-.17c.42-.28.85-.54 1.28-.8.77-.45 1.55-.86 2.33-1.28a12.88 12.88 0 0 0 5-4.49.13.13 0 0 0-.22-.13c-1.79 2.84-5.65 3.69-8.53 5.09l-.2.11c0-.18 0-.37.06-.55 1.13-1 2.23-2.11 3.45-3a41.67 41.67 0 0 0 6.42-5.68c.11-.12-.07-.3-.18-.18-2.14 2.34-5.2 3.9-7.81 5.67l-.73.47a75.43 75.43 0 0 0 16-22.71c.09-.19.19-.37.27-.56s.15-.36.22-.54c.16-.37.31-.75.46-1.12l.06-.14c.22-.55.45-1.09.66-1.64a.14.14 0 0 0 0-.14c1.21-3.59 2.11-7.25 4.15-10.58.07-.12-.11-.22-.18-.1-4.89 7.32-6.88 15.63-12.57 22.54-3.29 4-6.45 8.08-9.78 12-1.31 1.55-2.72 3-4.14 4.47a48.28 48.28 0 0 0 3.17-6.29c0-.11-.14-.19-.19-.08a35.33 35.33 0 0 1-5.53 7.58c-1.12.88-2.32 1.67-3.45 2.53a17 17 0 0 0 .51-6.87c0-.12-.22-.09-.2 0a10.27 10.27 0 0 1-.52 4.41.18.18 0 0 0-.29.13 6.61 6.61 0 0 1-1.36 3.18.2.2 0 0 0 0 .19c-.82 1.14-3.08 2.25-4.11 2.87a28.46 28.46 0 0 1-9 3.08 87.43 87.43 0 0 1-18.57 1.5c-7.24-.08-14.26-1.63-20.41-5.56-5.83-3.73-7.28-10-11.2-15h.08c.17-.1.05-.4-.14-.32l-.16.08c-.26-.32-.53-.64-.81-1-.14-.16-.42 0-.3.23s.41.65.6 1c-.25.14-.49.29-.72.44s0 .39.16.28a7.78 7.78 0 0 1 .75-.41c.11.19.2.39.3.59a1.06 1.06 0 0 0-.56.44c-.13.22.19.39.34.2a.66.66 0 0 1 .45-.19c.42.89.79 1.8 1.14 2.72-1.37-1.78-2.79-3.51-4.23-5.22a2.55 2.55 0 0 0 1.27-.13.13.13 0 0 0-.07-.25 3 3 0 0 1-1.29.13.12.12 0 0 0-.1 0c-6.86-8.13-14-15.79-18.13-26-3.5-8.78-4.88-18.15-6.27-27.5a.48.48 0 0 0-.05-.34c-.38-2.57-.77-5.13-1.2-7.69a6.09 6.09 0 0 0-.54-3.06c-.42-2.27-.89-4.52-1.45-6.75v-.05c.24-.85.42-1.73.65-2.62a9.16 9.16 0 0 0 1.14 3c.11.16.37 0 .27-.15a15.69 15.69 0 0 1-1.3-3.22l.06-.23.71-.94a9.32 9.32 0 0 0 1.18 3 2.29 2.29 0 0 0 .5.56c-.42.61-.85 1.21-1.33 1.81-.06.07 0 .18.11.11.49-.6.95-1.21 1.39-1.82.22.1.42.06.49-.35a.13.13 0 0 0-.13-.14q.37-.53.71-1.06a.8.8 0 0 0 .46.18.16.16 0 0 0 .14-.24 1.37 1.37 0 0 0-.35-.34c.39-.63.77-1.27 1.11-1.92h.09a.16.16 0 0 0 .08-.29q.43-.83.8-1.67h.09a.13.13 0 0 0 0-.2 29.43 29.43 0 0 0 2.36-9.95 39.1 39.1 0 0 0 1.2-15.61 96.28 96.28 0 0 0-1.72-9.7.1.1 0 0 0 .1-.12c-1.32-6.2-1.59-11.87 1.35-17.67a8.55 8.55 0 0 1 .46-.78l.24.24c.09.09.26 0 .18-.14l-.25-.35c2.08-3 5.83-4.64 8.31-7.32a6.28 6.28 0 0 0 .7.23.18.18 0 0 0 .1-.34c-.18-.06-.35-.13-.52-.2v-.05c.09-.1-.05-.25-.15-.15l-.11.11c-3-1.33-5.2-4.57-6.62-7.42a13.73 13.73 0 0 0 1.52-2.4A38 38 0 0 0 131 97.25a.1.1 0 0 0 .15 0c4.29 5.05 9.46 9.42 14.36 13.93 6.46 5.94 14.58 10.36 23.4 11.32 4.89.53 16.69.35 21 4.84l.1.19a6.07 6.07 0 0 1-.77-.17.8.8 0 0 0-.89.33 10.73 10.73 0 0 0-3.69.56c-3.28 0-6.72.1-9.8 1.28s-3.38 4.5-4.8 7c0 .07.06.15.12.09 1.76-2.2 2-4.66 4.1-6.16a.25.25 0 0 0 .29.12c2.6-.85 4.61 0 7.18.09a19.93 19.93 0 0 0 6.78-.66.68.68 0 0 0 .23 0c1 1.19 2.93 1.19 3.2-.23a.34.34 0 0 0 0-.19 2.24 2.24 0 0 0 0-.46c2.67-.47 5.1-2.12 7.95-2.24.19 0 .25-.3 0-.34a9.07 9.07 0 0 0-3.46.12c3.52-1.06 8.12-.85 10.7 1.83.06.07.16 0 .1-.1-2.87-3.18-8.31-3.12-12-1.51a21.59 21.59 0 0 1-3.73.7 27.07 27.07 0 0 0-2.35-4.44c-1.36-2.27-3.12-3.53-5.09-5a2.7 2.7 0 0 0 0-1.69 4.48 4.48 0 0 0-2.7-2.35c-6.36-2.84-2.21-4.12.08-7.14 3.86-5.06-3.11-8.55-7.16-9.63-3.71-1-7.58-1.22-11.3-2.16-5.61-1.42-10.87-5-15-8.87a36 36 0 0 1-4.77-5.49c3.37-2.77 7.28-4.9 9.72-8.62.39-.59 1.71-4.65 2.94-4.65.14.17.27.35.42.5s.29-.06.18-.19l-.06-.08A10 10 0 0 0 160 69.1a.23.23 0 0 0 .29-.22c0-3.74 0-6.83 5-6.14a6.82 6.82 0 0 0 .57.64.16.16 0 0 0 .23-.23c-.09-.1-.17-.21-.26-.32 4.17.73 7.31 3.14 7.55 7.7a.19.19 0 0 0 .19.19c2.71-.22 4-2.28 5.58-4l.19.33a.2.2 0 0 0 .35-.2l-.24-.45a8.71 8.71 0 0 1 1.46-1.27 78.64 78.64 0 0 1 4.66 10c3.55 8.73 6.84 18.52 16.16 22.58a.28.28 0 0 0 .41-.28c4.39 3.7 10.52 3.93 13.7 9.57 2.44 4.32 2.54 10.24 3.35 15 .9 5.35 2.9 14.5 9.09 15.58 4 1.78 9.57-1.28 14-3.64a10.58 10.58 0 0 1 .65 3.13c-2.36-.4-4.81 2.09-7.12 2a.14.14 0 0 0 0 .28c2.45.15 4.76-1.77 7.13-1.41a11.57 11.57 0 0 1-.31 2.22c-1.56 0-3 .58-4.59.71a.07.07 0 0 0 0 .14c1.5 0 3-.33 4.46-.34-.13.48-.28 1-.47 1.45-.08.22.22.36.37.22a5.82 5.82 0 0 0 1.14-1.51.57.57 0 0 0 .34.3 7.66 7.66 0 0 1-1 1.37.25.25 0 0 0-.27 0 5.54 5.54 0 0 1-3.08.58c-.16 0-.19.24 0 .28a4.73 4.73 0 0 0 3.2-.33.53.53 0 0 0 .27.43c2.48 1.42 3.2 3.22 3 5.35a1.49 1.49 0 0 0-.43-.25 2.28 2.28 0 0 0-1.67.08c-.29.11-.27.6.08.57a2.43 2.43 0 0 1 1.89.62 16.88 16.88 0 0 1-.5 2c-.12.38.47.64.65.27a11 11 0 0 0 .66-1.71 2.23 2.23 0 0 0 1.08 1 11.43 11.43 0 0 1-1.16 2.91c-.07.12.11.26.19.15 3.77-4.76 3.56-19.79 11.3-19.41a.47.47 0 0 0 .46-.35 9.66 9.66 0 0 1 .72-2.08 6 6 0 0 0 .51-.93c1.36-2.27 3.61-4.18 6.23-4.28a.62.62 0 0 0 .3.47c4.02 2.46 6.91 4.82 5.32 9.88zm-163.11 52.9a.43.43 0 0 0-.23-.53 62 62 0 0 1 2.45-6.43l.27 2c-1.64 4.95-2.17 9.71-6.38 13.45-.14.13.05.38.2.27a20.18 20.18 0 0 0 6.63-10.58q.25 1.61.53 3.22a.47.47 0 0 0-.56.21c-.46.95-.77 2-1.28 2.91-3 2.38-6.52 4.92-8.2 8.41 1.66-4.45 5.07-8.62 6.57-12.93zm-3.2-15.81a9.18 9.18 0 0 0 1.89.21 5.27 5.27 0 0 1-1.48.5 1.34 1.34 0 0 1-.42-.71zm31.45 62.95l-2.85-2.5a.46.46 0 0 0 0-.06 45.32 45.32 0 0 0-2.4-3.12l.16.09c1.66 1.88 3.34 3.74 5.08 5.58zm-31-28c.11-4.38 2.9-6.64 4.92-9.78l.55-.35a.85.85 0 0 0 .42-.67h.08c-1.61 3.55-3.42 6.31-3.8 10.33a13.75 13.75 0 0 0 2.91 9.6 26.73 26.73 0 0 0 3.51 3.52 32 32 0 0 1-3.12-2.12c-3.31-2.57-5.59-6.22-5.49-10.49zm6.7-15.33zm-1 16.9c.74 4.3 3.41 7.8 6.17 11.06-4.63-3.29-7.83-7.19-8-13.13-.11-3.68 2-6.53 2.5-9.94.31 4.08-1.43 8.04-.74 12.06zm1.55-1.63a50.53 50.53 0 0 1 .21-6.46q.14.47.31.94c.56 5.25 1.47 10.23 4.31 14.86a42.49 42.49 0 0 0 2.53 3.62c-3.53-3.66-6.96-7.82-7.36-12.96zm8.1 11c-3.27-3.87-4.73-8.05-5.92-12.53 1.42 3 3.13 5.91 4.59 8.85.9 1.81 1.84 3.66 2.88 5.45-.55-.57-1.07-1.15-1.58-1.75zm-9.4-27.22a1.43 1.43 0 0 0 .16.41.61.61 0 0 0 .34.25v.07c0 .07 0 0 .06.06a.89.89 0 0 0-1.08 0c.16-.21.32-.49.49-.77zm-.7 3.12v.55a4.9 4.9 0 0 0-1 .22zm-5.82 7.56q.5-.38 1-.78a14.23 14.23 0 0 0-1.49 3.3 12.2 12.2 0 0 0 1.09 9.87 9.88 9.88 0 0 1-.63-12.37zm.11-26.49a2.15 2.15 0 0 0 .43.05.88.88 0 0 0 .08.2l-.44-.19zm1.83-13.36c0-.12.08-.25.13-.37l.06.08a.24.24 0 0 0 0 .05v.3a.42.42 0 0 0-.16 0zm-.28 14l.24-.07a.77.77 0 0 0 .08.18l-.33-.1zm2.35-7.84h-.06v-.73zm-4.58 6.53l-.53-.52a6.69 6.69 0 0 0 .77.2.4.4 0 0 0-.24.32zm1 5.91h.1l-.63.34zm-4.49 26.41l.19-.5c.08 1.13.18 2.25.29 3.38a13 13 0 0 1-.51-2.83v-.07zm.88 3.59a14.27 14.27 0 0 0 .44 1.39 12.48 12.48 0 0 1-.7-1.64.73.73 0 0 0 .26.23zM132.14 92c1 1.69 1 3.5 1.33 5.28-1.34-1.51-2.63-3.07-3.83-4.72-5.24-7.2-6.47-15.42-6.23-23.8q.41-1.18.91-2.33c.59 7.13 2.24 15.74 8.42 20.08 1.8 1.23-2.02 3.04-.6 5.49zm-16.82 14.54a39.82 39.82 0 0 1 .26-4.53c.47.95.85 1.94 1.25 2.91.06.14.28.08.22-.06a20.86 20.86 0 0 0-1.44-3.16q.23-1.91.63-3.77a14.29 14.29 0 0 0 2.89 4.62 13.69 13.69 0 0 0-1.46 2.3c-1.7 3.39-1.84 7.23-1.37 11a51.26 51.26 0 0 1-.98-9.34zm1-9q.44-1.94 1.06-3.82a16 16 0 0 0 4.39 5.8c.16.13.4-.1.23-.23a17.06 17.06 0 0 1-4.52-5.91q.29-.87.62-1.73t1-1.5c1.23 2.79 3.78 4.71 5.91 6.88.12.12.3-.06.19-.19-2-2.32-4.64-4.15-5.91-6.95.22-.3.43-.61.66-.9.4-.5.79-1 1.17-1.46 1.28 2.84 3.58 6.23 6.49 7.5-2.79 2.79-5.9 4.33-8.25 7.19a34 34 0 0 1-3.03-4.68zm5.78-28.25a53 53 0 0 1 1.58-10.75c-.6 3.46-1.18 7-1.5 10.5-.02.08-.04.17-.07.25zm-.28 13l-.09.21a.15.15 0 0 0 0 .06l-.5.59q.21-.77.39-1.57c.07.23.14.42.21.7zm-6.18 9.35a34 34 0 0 0-.79-5.71c.54-1 1.12-2 1.69-3a80.54 80.54 0 0 1-.89 8.7zm-1 4.67q-.15.53-.28 1.07a18.31 18.31 0 0 0-1.63-6.21 20.41 20.41 0 0 1 1.84-4.63 97.09 97.09 0 0 1 .04 9.77zm-1.45 4l-.08-.21a.63.63 0 0 0-.13-.32c-.35-.9-.69-1.8-1-2.71a35.79 35.79 0 0 1 .53-5c.65 2.66.25 5.57.65 8.25zM112 99.7a.43.43 0 0 0-.07.09v-.39zm2.41 15.88c-.18-1.35-.37-2.7-.56-4l.11-.06c.14 1.53.33 3 .56 4.56zm1.64 37.15a.27.27 0 0 0 .17.08l-.13.5q.02-.31 0-.58zm.85-3.31q-.11.71-.25 1.42c0-.34.05-.68.06-1zm-1 2.05v.29a.18.18 0 0 0-.1-.05zm-.34.61a6.86 6.86 0 0 1 0 1.72 2.94 2.94 0 0 1-.33-1.1v-.07zm-.61 1a4.94 4.94 0 0 0 .57 1.61.22.22 0 0 0 .14.1q-.25.8-.54 1.59a4.73 4.73 0 0 1-.63-1.2c-.05-.1-.2 0-.15.08a6.14 6.14 0 0 0 .66 1.45c-.21.54-.43 1.07-.67 1.6a2.12 2.12 0 0 1-.57-.58 6.6 6.6 0 0 1-.59-1.38c0-.1-.18-.05-.15 0a9.66 9.66 0 0 0 .71 1.68 2.1 2.1 0 0 0 .43.6c-.3.64-.63 1.27-1 1.89a3.78 3.78 0 0 1-.54-.64 6.62 6.62 0 0 1-.78-1.93.08.08 0 0 0-.15 0 17.82 17.82 0 0 0 .71 2 3.29 3.29 0 0 0 .54.91c-.27.45-.56.9-.86 1.35a4.61 4.61 0 0 1-.85-1.22 7.33 7.33 0 0 1-.88-2.11.06.06 0 0 0-.09 0c1.65-1.98 3.44-3.94 4.74-5.88zm69.15-24.3a17.38 17.38 0 0 1-3.28.09c1.11-.06 2.22-.1 3.32-.18a.62.62 0 0 0 0 .05zm63.71 22c-.17-.13-.35-.25-.51-.39a3.58 3.58 0 0 1-.57-.66 6.66 6.66 0 0 0-.16-3.69 11.9 11.9 0 0 0 1.78 1 .46.46 0 0 0 .3 0c-.23 1.35-.5 2.6-.79 3.72zm1-4.42c-1-.69-2-1.19-3-1.8a7.2 7.2 0 0 0-1.82-1.69 7.8 7.8 0 0 0 1.11-2 6 6 0 0 0 1.37 1.39l1.17.87a8.89 8.89 0 0 0 1.27 1 .43.43 0 0 0 .48-.07c-.19.71-.39 1.5-.53 2.28zm-17.58-10.1a7.41 7.41 0 0 1-1.46.06 8.9 8.9 0 0 1-4.66-2.8c-.17-.23-.32-.48-.47-.74 3 3.13 6.29 3.35 11.84 1.74l.46-.15a19.06 19.06 0 0 1-5.66 1.87zm18.2 7.39a.37.37 0 0 0 0-.11c-.38-.71-1.37-1.11-2.05-1.48a7 7 0 0 1-2.18-1.59 6.64 6.64 0 0 0 .26-2.12 15.52 15.52 0 0 0 4.52 2c.38.06.7-.49.29-.68a46.57 46.57 0 0 0-4.82-1.76 7.69 7.69 0 0 0 0-1c.08-.27.18-.54.28-.81 1 .68 1.94 1.37 3 2a1.09 1.09 0 0 0 1.14.62c.23.12.46.25.7.35a.7.7 0 0 0 .33.05 34.31 34.31 0 0 0-1.42 4.51zm1.83-5.54zm-17.9-3.66c-4.32 1.4-7.1-.16-9.45-3.09-1.27-2.9-1.87-6.51-2.49-9.23-.22-1.56-.39-3.17-.56-4.78.58 2.28.21 5 1.36 7 1.39 2.42 3.93 4.11 6.13 5.76a15.22 15.22 0 0 0 8.19 3.35zM201 96.32c.17.18.35.34.52.51a29.23 29.23 0 0 1-8.82-10.42 39.48 39.48 0 0 0 5.78 7.73 16.91 16.91 0 0 0 2.47 2.05.18.18 0 0 0 .05.13zm-22.18-30.19c-.72.83-1.39 1.78-2.16 2.66-.24.28-.46.5-.66.69a43.05 43.05 0 0 1-2.62-7.88.17.17 0 0 0-.34.09 38.59 38.59 0 0 0 2.66 8 .14.14 0 0 0 .08.06c-2.15 1.89-1.92-1.21-2.81-2.66a8.48 8.48 0 0 0-2-2.29.15.15 0 0 0 .13-.2 23.45 23.45 0 0 1-1.58-6.95 13.6 13.6 0 0 1 5 .26 19.4 19.4 0 0 1 6 6.69 7.69 7.69 0 0 0-1.44 1.25 30.69 30.69 0 0 1-2.43-5.54.19.19 0 0 0-.36.1 28.11 28.11 0 0 0 2.53 5.72zm-5.66-10.7l-.17-.06.45.09zm-8.15.89a.88.88 0 0 0-.25.2c-.83.16-1.65.32-2.45.44 1.08-.28 2.16-.62 3.25-.92zm-.08 2c1.41-.28 2.79-.55 4.13-.72a17 17 0 0 0 1.66 6.93c-.23-.17-.46-.34-.71-.5a15.5 15.5 0 0 0-4.6-1.79 23.54 23.54 0 0 1-1.82-3.69zm96.39 67.3a4.16 4.16 0 0 0-1.11.34 6.42 6.42 0 0 1-1.63-.58c-2.21-1.15-2.33-3.68-2.48-5.85-.17-2.43-.59-4.5-3-5.58-.11-.05-.21.11-.1.17 3.95 2.15 1.56 6.69 3.24 10a5.53 5.53 0 0 0 2.68 2.54c-.63.42-1.22.88-1.75 1.24-3.91 2.68-4.6-1.73-4.79-4.27-.35-4.65-1.75-9.85-6.18-11.61l.24-.09c3-1.4 5.52-5.79 9.13-2.32 1.76 1.69 3.07 2.84 5.52 3.34 5.32 1.08 6.37-6.27 11.64-4.27a4.26 4.26 0 0 0 3.52.15 25.08 25.08 0 0 1 .41 4.53 6 6 0 0 1-.1.95l-.09.19h-.07c-1.25 1.86-2.73 5-5.76 3.62a22.73 22.73 0 0 1-3.6-2.66c-1.88-1.4-3.85-1.14-5.83-.13a.16.16 0 0 0 .12.29c4.84-1.61 6.28 2.87 10.27 4.08-2 2-3.84 4.2-6.76 1.22-1.88-1.92-3.15-2.69-5.91-2-.24.06-.13.4.1.36 4-.69 4.82 3.32 8.23 4.24 2.62.71 4-1.89 5.61-3.62a.26.26 0 0 0 .13 0l.14-.11a2.75 2.75 0 0 0 .75-.36v.21a12.37 12.37 0 0 0-1.41 2.77.69.69 0 0 0 .73.91c-.69 2.65-2 5-4.78 3.79a8.35 8.35 0 0 0-.87-.32 10.73 10.73 0 0 0-6.25-1.11zm15.5-56.61v-.25l.14.33zm-6.37 59.35a1.43 1.43 0 0 0 .63-.24l.12-.1a3 3 0 0 0-.21.75zm3.7-5.78l.82-1.19a8 8 0 0 1-1.2 3.08l-.13.18a12 12 0 0 0 .5-2zM106.7 47.12a46.77 46.77 0 0 0 2.62-3.58l.41-.63a16.34 16.34 0 0 1-3.03 4.21zM85 95a.3.3 0 0 0 .36-.28 47.12 47.12 0 0 1 .85-7.13.17.17 0 0 0-.34-.09 23.29 23.29 0 0 0-1.12 5.18 56 56 0 0 1-.28-7.25c.33-9.91 2.71-20.95 10.47-27.74 3.33-2.91 7.62-5.27 10.95-8.37a.8.8 0 0 0 .14-.13 15.16 15.16 0 0 0 4.69-7.63.17.17 0 0 0 0-.15c1.43-2.39 2.8-4.74 5.19-6.4 2.15-1.48 4.51-2.46 6.54-4.15.29-.24-.1-.76-.41-.53-3.47 2.59-7.14 3.44-9.91 6.66 2.41-5.64 4.74-10.17 9.5-14.55a77.13 77.13 0 0 1 8.79-7h.06l.13-.11c8.75-5.89 18.82-9.41 29.24-6.16-3.33.92-6.4 2.41-10.17 2.05-.19 0-.18.27 0 .29 6.09.77 11.71-2.25 17.79-1.34 4.32.64 8.15 1.87 11.84-1.1v-.09C182.37 7.4 183.5 4 188 4.25a45.08 45.08 0 0 1-3.62 3.13.14.14 0 0 0 .14.24c2.39-1.27 4.47-3 6.76-4.46 4.51-2.85 7.71-.53 11 2.58 1.23 1.16 2.77 3 4.5 3.74l-.34.15c-.22.1-.06.5.17.4l.84-.33a3.21 3.21 0 0 0 2.15-.19.64.64 0 0 0 .4-.69c14.49-4.51 29.46-.21 38.46 12.77.19.28.37.56.55.84-2.08-1.17-4.21-.24-6.75-.63s-6.78-3.56-7.9-5.76c-.05-.1-.22 0-.18.07.89 2.2 3.39 3.66 5.32 4.84a9.5 9.5 0 0 0 3.42 1.43c2.63.43 4.2-1.2 6.66 1.16a.26.26 0 0 0 .16.07c3.43 5.78 5.28 12.4 8.83 18.14a7.09 7.09 0 0 0-5.69-.57c-5.79 1.41-8.42-.35-12.45-4.33-2.33-2.31-4.54-4.64-7.54-6.08a.58.58 0 0 0-.77.2 49.39 49.39 0 0 0-3.27 6.22c-2.14 4.63-6.49 0-8.63-2.12-4.76-4.62-9.94-8.75-14.24-13.83-.13-.15-.35.07-.22.22 2.88 3.4 5.95 6.57 9.13 9.68 2.87 2.8 5.78 6.76 9.19 8.87 3.77 2.34 5.1-1 6.58-4.17.27-.58 1.59-4.14 2.63-3.63a17.82 17.82 0 0 1 4.45 3.79c2.35 2.37 4.47 4.84 7.35 6.58a8.65 8.65 0 0 0 6.15.77c2.72-.5 4.73-1.23 7.55 0 2 .86 3.09 3.6 4.22 5.33a.36.36 0 0 0 .63-.06c1.25 1.5 2.51 3 3.76 4.49 1.72 2.79 3.49 5.55 5.24 8.32-3.71-3-8-5.3-11-9.07-.11-.14-.35 0-.24.19 3 4 6.74 7 10.58 10.26a22.78 22.78 0 0 1 2.39 2.33.23.23 0 0 0-.05.35 9.4 9.4 0 0 1 1.64 3.34c0 .19 0 .38.07.57a.6.6 0 0 0 0 .39 4.36 4.36 0 0 1-.92 4.48 5.07 5.07 0 0 0-1.47-.48 4.16 4.16 0 0 0-3.37 1 23.43 23.43 0 0 0-4.47 3.57c-1.62 1.85-4.89-4.39-5.86-5.2-1.73-1.45-4.18-2.66-5.85-.63-1.21 1.47-1.6 3.68-2.58 5.31-2.16 3.6-5 5.54-9.22 5.82-.19 0-.2.31 0 .3a10.52 10.52 0 0 0 7.53-2.9 21.71 21.71 0 0 0 3-4 24.37 24.37 0 0 0 1.55-3.19c2.28-4.87 5.73 1.58 6.44 2.79.8 1.36 3.2 3.45 4.88 3.13a2.36 2.36 0 0 0 1.44-1c2.54-2.84 5.3-4.26 8.77-2.63a.72.72 0 0 0 1-.25 6.54 6.54 0 0 0 .59-5.52 25.78 25.78 0 0 1 1.54 7.74 25.79 25.79 0 0 1-.38 3.57c-.9 5.09-2.73 9.65-3.15 14.61a20.63 20.63 0 0 0-.21 6.46c.21 1.5.52 3 .81 4.47-1.84 1.64-5.5-1-7.68-.19a2 2 0 0 0-.9.81c-2.71 4.14-7.42 4.22-10.76.86-1.57-1.58-3.18-3-5.44-2.21-1 .35-1.93 1.68-2.58 2.46-3.64 4.41-7.88.59-10.27-2.19-.13-.15-.39.05-.27.21 1.79 2.48 4.27 6.5 7.89 5.27 4.78 2 5.24 8 5.47 12.58.09 1.86.3 3.83 1.64 5.22 1 1.08 2.79.17 3.81-.36 1.38-.72 2.52-1.65 3.89-2.34a8.65 8.65 0 0 0 3.49-.16.44.44 0 0 0 .25-.17l.22.06-.53.19a13.12 13.12 0 0 0-4.56 2.74 7.52 7.52 0 0 0-1.33 2.39 5.42 5.42 0 0 1-2.49 1.65 4.62 4.62 0 0 0-.58.12 5.07 5.07 0 0 1-1.52 0 6.45 6.45 0 0 1-5-5.05c0-.13-.23-.07-.2.06.53 2.87 2.24 5.15 5.16 5.78a7.59 7.59 0 0 0-1.94 2.34.34.34 0 0 0-.31 0 2 2 0 0 1-.81.16.63.63 0 0 0-.11-.26 25.08 25.08 0 0 0-1.8-2.13.33.33 0 0 0 0-.42 8.94 8.94 0 0 1-1.51-6.51 14.68 14.68 0 0 0-.19-5.71.13.13 0 0 0-.26.07c.71 2.59-.46 5.6-.47 8.31h-.09a10.1 10.1 0 0 0-.32-1.31 5.75 5.75 0 0 0-.25-.61c-.41-2.81-.17-5.32-2.06-7.94-.13-.17-.41 0-.29.17a12.45 12.45 0 0 1 1.59 6.46 30.72 30.72 0 0 0-2.4-2.83c-2.28-2.53-4.21-4.83-5-8.23-.54-2.26-.88-4.55-1.51-6.78-.93-3.29-2.63-4.34-5.94-4.15-5.58.31-12-7.94-15.45-11.61-.1-.11-.26.05-.16.17a66.71 66.71 0 0 0 12.17 11.23c1.53 1 2.92 1 4.73 1 3.87 0 4.23 6.93 4.66 9.41 1 5.6 4.77 8.51 7.84 13a7 7 0 0 1 .87 1.77l-2.44.8c-3.58-2.2-6.78-7.47-10.14-8.78-6.78-2.65-5.72-13.47-12.25-17.42-.17-.1-.31.15-.15.26 4.77 3.36 5.55 9.32 7.39 14.44 1.32 3.66 3.91 3.13 6.34 5.38 1.71 1.58 4.2 4.65 6.92 6.68a17.3 17.3 0 0 1-3.51.58c-3.33.17-6.31-2-8.83-3.93s-5-3.23-5.82-6.51c-.46-1.91-.51-3.79-1.33-5.6a.09.09 0 0 0-.05 0c-.55-4.83-1.35-9.62-4.28-13.27-3.18-4-8.89-4.79-13.05-7.22-5.49-3.21-8.68-9.13-11.59-14.54-4.31-8-6-19.08-13.48-25A12.8 12.8 0 0 0 168.1 54c-6.27 1.07-9.4 5.74-15.93 1.21a.13.13 0 0 0-.17 0c-.34-.23-.68-.48-1-.76-.18-.14-.42.08-.25.26a13.08 13.08 0 0 0 5 3.45c.91 2.68 1.49 5.74 3.55 7.81.11.1.26-.05.16-.16-1.9-2.17-2.57-4.95-3.55-7.59a15.14 15.14 0 0 0 7.39.41 15.61 15.61 0 0 0 1.59 3.53 5 5 0 0 0-3.51.38c-3.1 2.11.43 9.12-5.78 3.81a.3.3 0 0 0-.23-.07c-2.07-3.12-3-6.93-4.53-10.33 0-.07-.14 0-.11.06 1.43 3.36 2.25 7.41 4.39 10.49-1.38 2.49-2.27 5.11-4.07 7.37-2.1 2.63-5.37 4.4-8 6.61a37.6 37.6 0 0 1-3.84-7q-.47-1.62-.84-3.27a16.34 16.34 0 0 1 5.04-7.21c1.33 4.29 3.06 8.74 6.3 11.91.1.1.23 0 .14-.15-3.06-3.47-4.83-7.59-6.28-11.91.71-.62 1.46-1.21 2.22-1.79.44-.2.87-.4 1.29-.62a4.78 4.78 0 0 0 .64-.29c1.35 2.69 2.53 5.48 3.95 8.14.07.13.26 0 .19-.11-1.43-2.66-2.61-5.44-4-8.12a3.48 3.48 0 0 0 .62-.48 7.38 7.38 0 0 0 .67-.56 5 5 0 0 0 1.23-3.82 4.07 4.07 0 0 1 1.21-1.8c4.26 1.1 7.4 1.08 11-2 1.76-1.51 3-3.74 4.43-5.52C170.23 42 175 43.92 177.85 47c2.27 2.46 3.6 7.25 7 8.55 1.18.46 1.29.25 2.19-.62 3.64-3.51 4.75 6 5 7.14.06.32.48.34.66.14a59.69 59.69 0 0 0 19 24.61c3.33 2.55 6.72 5.86 11 6.38 3.78.46 8.6-6 11.31-1.4 2.52 4.27 4.6 7.19 9.3 9.41 3.2 1.52 8.11 1.57 10.84-1 3.48-3.26 7.43-10.85 12.43-5.08 2 2.34 3.67 4.09 6.95 3.74.37 0 .39-.6 0-.59-6.4.2-6.8-8.67-13.77-5.39-5.14 2.42-4.8 7.85-11.81 8.16-4.21.19-9.14-3.36-11.29-6.8-1-1.57-1.48-3.84-2.94-5.09-1.7-1.45-3.34-1.19-4.94.22-4.64 4.11-9.09 2.29-13.66-1.09-9.91-7.34-17.27-15-22.34-26.42a.1.1 0 0 0-.07-.06c-.26-2.68-.3-8-3.54-8.91-2.25-.62-2.6 3-5.22.77-2-1.72-3-4.59-4.63-6.66-2.62-3.36-6.64-5.73-10.86-3.79-1.73.8-2.91 2.82-3.94 4.33-3.3 4.83-6.92 6.52-12.52 5.48.8-.62 1.72-1.13 2.55-1.69 1.82-1.23 3.19-2.67 3.43-4.92 0-.25-.37-.29-.43-.06-.76 3-3.46 3.93-5.92 5.29l-.22.14c1.3-4.5 7.79-7 3.74-12.16-.11-.14-.35 0-.25.19 2.87 3.87-.74 6-3.15 8.66a21.45 21.45 0 0 0 1.63-5.38c.36-3.2-1.26-4.36-4.32-3.71-.15 0-.09.26.07.23 6.17-1.07 2.8 5 1 9.49a.15.15 0 0 0-.22.09 14.65 14.65 0 0 0-.81 4.69v.27a3.4 3.4 0 0 0-.37 2.19 4.73 4.73 0 0 1-1.66 2.29c-.19-.34-.36-.68-.56-1a.07.07 0 0 0-.12.07c.2.34.37.7.55 1a10.93 10.93 0 0 1-2.06 1.15c-.51.23-1 .45-1.39.67a13.72 13.72 0 0 0-2.06.53 1.94 1.94 0 0 0-1.13 1.13c-.22.44-.38 1-.6 1.46l-.34.47c-.19.15-.44.16-.76-.06a.81.81 0 0 0 0-.15 14.82 14.82 0 0 0-1.11-2.07c.61-.87 2-1.15 2.91-1.88a6.41 6.41 0 0 0 2.44-4.8c0-.16-.26-.2-.29 0-.46 2.66-2.13 3.9-4.53 4.74a4.51 4.51 0 0 0-.89.43c-.55-2.93 1.33-5.49 4.28-6.45a.17.17 0 0 0-.09-.32 6.29 6.29 0 0 0-4.65 3.57c0-.46-.05-.93-.07-1.39v-.3c.48-2 1.63-3.65 4.1-3.52.2 0 .25-.32 0-.35a4.41 4.41 0 0 0-4 1.4v-.36a3.43 3.43 0 0 1 4-2.29c2.4.43 4.34 2.61 5.21 4.76.07.17.34.1.28-.08-.94-2.77-2.88-5.32-5.91-5.84a3.71 3.71 0 0 0-2.54.42 4.78 4.78 0 0 1 2.41-1.67 2.54 2.54 0 0 1 2.16 1c.12.13.36 0 .25-.2a3.38 3.38 0 0 0-1.07-1 4.94 4.94 0 0 1 4.21 2.17c.16.22.52 0 .37-.22-1.18-2-3.52-3.92-6-3.5-3.41.58-4.46 3.61-4.94 6.73C133.81 62 137 73.21 141.67 81a.2.2 0 0 0 .38-.11l.18.27-.14.12c-.13.13.06.32.2.2l.1-.08a35.64 35.64 0 0 0 23.2 15.86c4.63.89 10.77 1 14.28 4.52s-2.34 5.82-3.59 8.72a2.49 2.49 0 0 0 .22 2.33c-1.4-.68-3.17-2.46-4-2.88-3.1-1.53-2.4-4.26-3.91-6.71-2.74-4.43-8.73.15-12.43-2.2-.17-.11-.32.16-.16.27 2.54 1.75 5.12.81 8 .5 5.38-.57 3.47 4.79 5.5 7.34 1.5 1.87 4 2.61 5.68 4.44.08.09.17.16.25.24-2.16.1-4.29.16-5.8-1.55-3.32-3.75-6.59-4.74-11.28-6.13-.19-.06-.26.22-.08.29a56.64 56.64 0 0 1 6.57 2.78c2.09 1.14 3.13 3.27 4.81 4.8 2.93 2.68 8.12.21 11.46 2a.41.41 0 0 0 .55-.11 3.1 3.1 0 0 1 1.14 1.37l-.15.05a5.15 5.15 0 0 0-2.06-.85c-2.42-.44-4 1-6.45-.62-.15-.1-.27.13-.13.23 2.71 2 6.26.21 8.67 2.38a2.74 2.74 0 0 0 .42.52c.09.52.58.82 1 1 1.44 1.58 2.87 3.13 4.25 4.75-2.63-1.48-6.09-2.07-8.65-2.53-8.74-1.59-16.85-1.63-24.9-6.09-4.86-2.69-8.76-6.71-12.79-10.46-2.55-2.37-5.07-4.79-7.44-7.34-.63-1.94-.61-4.27-1.25-6.2s0-3.32 1.74-4.92a.43.43 0 0 0-.19-.71C127.34 84.15 125.21 73 124.5 66c.47-1.06 1-2.11 1.5-3.16a.16.16 0 0 0-.28-.17c-.3.42-.59.84-.88 1.26 1.68-4.73 3.64-9.4 3.89-14.52 0-.15-.22-.15-.23 0-.45 5.16-2.67 9.77-4.51 14.5a.74.74 0 0 0-.28.71v.13c.25-3.26.66-6.52 1.09-9.74a44.47 44.47 0 0 1 5.2-10.76c2.05-2.4 4.59-4.24 8-4.25 4 0 7.28 3.46 10 5.94a.23.23 0 0 0 .33-.33c-2.81-3.4-6.6-6.42-11.21-6.32a8 8 0 0 0-5 2.08.13.13 0 0 0-.18-.18c-6 5.1-8.86 12.08-10.36 19.47a4.75 4.75 0 0 0-2.34 1.87c-.63.89-1.22 1.8-1.8 2.73-1.3 2.1-3.23 2.48-5.36 3.34-1.2.49-1.63 2.29-2 3.38-.54 1.64-7.44-.18-9.11-.07-4.48.28-7.56 3.08-10.29 6.31-1.78 2.1-4.85 5.42-4.35 8.43 0 .26.49.2.47-.06-.37-3.84 4.6-8.36 7.12-10.77 2.21-2.12 5.42-2.76 8.38-2.77 2.36 0 4.3 2 6.7 2.15.92 0 1.62-.84 2.12-1.46 1.39-1.74 2.25-3.6 4.54-4.33 3.07-1 3.36-5.25 5.63-7.27-.43 2.41-.73 4.86-.94 7.29 0 .56-.08 1.11-.1 1.66a2.7 2.7 0 0 0-1.1.9c-.33.54-1.59 4.87-2.72 2.82-1.29-2.36-3.29.09-4.38 1.29a.12.12 0 0 0 0 .14c-.63 1.42-2.5 5.74-4.68 3.43a.22.22 0 0 0-.35 0c-1.19 2.19-2.92 4.64-5.52 2.24-.74-.68-1.16-1.87-2.06-2.37-1.25-.7-1.89.11-2.59 1.16-.11.17.16.32.27.16 2.07-3 4.12 2.35 6 2.65 1.66.27 2.5-.71 3.38-2 1.06-1.6 1.7-.14 3.18-1s2-2.81 2.5-4.23a15.61 15.61 0 0 1 1.82-1.67c1.46-1.06 1.73.43 2.11 1.11s1.17.56 1.78.41c.82-.2 1.18-1.29 1.42-2a3.75 3.75 0 0 1 .92-1.84 32.56 32.56 0 0 0 .37 4.71 6 6 0 0 0-1.13 1.43c-.09.15.13.28.23.14a3.7 3.7 0 0 1 1-1c.06.38.13.77.21 1.15-.23.8-.45 1.61-.66 2.42-.27 1-.41 2.26-.78 3.26-.05.13.17.23.23.1a24.79 24.79 0 0 0 1.39-4.91c.09.4.18.8.29 1.2a17.33 17.33 0 0 0-.79 3.24 30.21 30.21 0 0 0-2.73 4.4c.43-2.8.91-5.61 1.17-8.44 0-.12-.19-.14-.21 0-.46 3.13-1.5 6.27-1.66 9.43a.23.23 0 0 0 .12.21c-.34.73-.65 1.47-.94 2.22l-.16.31c.9-3 .53-6.57.68-9.69a29.25 29.25 0 0 0 1.93-4c.06-.16-.18-.22-.25-.07a29.57 29.57 0 0 1-1.68 3.35.12.12 0 0 0-.22.07v.36c-.68 1.17-1.39 2.3-2.08 3.46a.14.14 0 0 0-.09.15 30.92 30.92 0 0 0-2.34 4.63.18.18 0 0 0-.11.24c-.15.39-.3.78-.42 1.19-1.47 4.92-1.2 10.07-.56 15.1a158.81 158.81 0 0 0 3.24 15.69c1.32 5.7 3.29 11.24 2.89 17a35.1 35.1 0 0 1-8.62 18.55l-.08.1a15.94 15.94 0 0 1 3.21-6.71 24.84 24.84 0 0 0 3.92-5.69 8.2 8.2 0 0 0 .53-4.39c-.61-3.77.15-7.19 0-10.89a.17.17 0 0 0-.35 0c-.11 2.33-1.68 5-1.23 7.37.9 4.75.41 8.12-2.78 11.82-2.68 3.12-4.49 6.43-4.77 10.34a14.47 14.47 0 0 0-2 3.65c-.07-3.94 1.44-7.86 2.13-11.9s5.74-4.19 5.83-8.79a22.78 22.78 0 0 0-.34-4.46c-.62-3.6.25-4.93.63-8 .57-4.61-.81-9.44-1.7-13.91 0-.13-.22-.07-.2.06.5 3.07 1.07 6.13 1.4 9.23s-.65 5.29-1.14 8.11a14.31 14.31 0 0 0 .17 4.77c.68 4.47-.2 6.57-3.68 9.63-2.8 2.46-2.73 7-3.73 10.37-1.11 3.76-1.08 7.41 1 10.76a9.41 9.41 0 0 0 1.56 2 .69.69 0 0 0 .88.06c0 .08 0 .17.07.25a.71.71 0 0 0 .18.3v.07a.51.51 0 0 0-.08.43 3.82 3.82 0 0 1-.43.29 4.48 4.48 0 0 1-2.83-.09c-2.26-1.4-3.9-5.55-4-7.28-.07-2.45.94-5.1 1.65-7.41 1.13-3.7 2.21-7.15 2.2-11a.1.1 0 0 0-.2 0c-.63 6.45-7.25 15.91-4 22.3a9.14 9.14 0 0 0 1.41 2 14.83 14.83 0 0 1-2.35-2c-3.79-4-3-10.23-2-15.14a.2.2 0 0 0-.39-.11c-2.12 6.49-2.22 13.79 3.44 18.47a11.57 11.57 0 0 0 4.25 1.95 1.77 1.77 0 0 0 .33.88l-.51.05a4.19 4.19 0 0 1-2-.38c-5.48-4.6-12.93-8.08-10.19-16.24a12.79 12.79 0 0 0 .17-7.52c-1.37-5.07-.37-8.62 1.75-13.21a33.43 33.43 0 0 0 3-5.52c.06-.15-.2-.26-.27-.11-1.58 3.56-4.57 6.18-6.67 9.38-.49-.82-1-1.63-1.5-2.45a4.79 4.79 0 0 0 3.27-3.84c.43-1.94-.2-3.94-.8-5.76a30.13 30.13 0 0 1-1.64-9.47.13.13 0 0 0-.25 0 33.44 33.44 0 0 0 .4 8.71c.84 3.66 1.91 7.6-1.88 8.87-.57-1-1.12-1.94-1.62-2.94 1.68-2.18 1.11-5.61.56-8.08 0-.17-.33-.14-.31 0a20.46 20.46 0 0 1 .23 4.7 3.72 3.72 0 0 1-1.09 2 21.47 21.47 0 0 1-1-2.62 12.44 12.44 0 0 1-.46-3.49c.34-4.37 2.78-9.16 4-13.24a36.69 36.69 0 0 0 1.36-12.09c-.13-2.94.72-5.33.67-8.19-.1-6.1 2.45-3.2 4.11-6.41a15.06 15.06 0 0 0 1.37-5.58c0-.13-.21-.17-.24 0a10 10 0 0 1-5.17 7.57 3.19 3.19 0 0 0-1.36 2.85c.22 2.56-.83 4.69-1 7.17a29.14 29.14 0 0 0 .41 4.22c.18 2.21-.61 4.55-1.11 6.69a.25.25 0 0 0 .09.27q-.46 1.38-1 2.75c.5-6.27-.68-12.48-1.38-18.72zm54-30.13l-.13.22-.32-.38.07-.08a1.55 1.55 0 0 0 .31.23zm-.78 1.87a.5.5 0 0 0-.14.19v.12a.59.59 0 0 0 0-.16v-.41l.21.25zm-.35.79v.07zm.22 1.16l.09.05v.2zM143.43 247l.43.29a.52.52 0 0 0 .27.08 19.14 19.14 0 0 0 2.28 2.64 17.69 17.69 0 0 1 .66 3.37 22.4 22.4 0 0 1-3.64-6.38zm8.73 9.48a3 3 0 0 1-.25-2c0-.15-.2-.22-.23-.07a6.26 6.26 0 0 0-.17 2 10.54 10.54 0 0 1-1.86-.84c-.1-.24-.19-.47-.27-.72a9.82 9.82 0 0 1-.39-2.36.16.16 0 0 0-.31 0 12.24 12.24 0 0 0 .19 2.57 9.8 9.8 0 0 1-1.12-.91 11.92 11.92 0 0 0-.76-3.49 34.51 34.51 0 0 0 2.88 2.36 25.81 25.81 0 0 0 6.2 3.33.28.28 0 0 0 0 .2 2.42 2.42 0 0 0 .29.52 16.54 16.54 0 0 1-4.2-.59zm55.38 36.7c3.87 2.44 8.19 3.35 12.58 4.49a17.47 17.47 0 0 1 8.51 4.59 36.58 36.58 0 0 1 3.25 4.25c-1.47-1.33-2.82-2.75-4.29-4.15s-5-2.39-7-3.09a101.46 101.46 0 0 1-9.83-4.13c-1.09-.65-2.16-1.3-3.22-1.96zm19.84 11.05q-3.17-1.7-6.35-3.38a22.38 22.38 0 0 1 6.35 3.39zm43.83-48.09a7.38 7.38 0 0 0-4.82 1.86c-.06-1.21-.07-2.42-.08-3.62a7.52 7.52 0 0 1 4.12-1.69 32.4 32.4 0 0 1 .78 3.46zm-2-7.42c.4 1.17.79 2.34 1.13 3.52a7.3 7.3 0 0 0-4 1.66q0-2.06.05-4.14a5.53 5.53 0 0 1 2.79-1.03zm-10-29a139.2 139.2 0 0 1 4.9 17.66c1.3 6.84.08 13.76.62 20.65v.1a.21.21 0 0 0-.35.09 17.86 17.86 0 0 1-1.31 3.57c-.15.26.23.47.4.23a9 9 0 0 0 1.3-3.51c.49 5.39 2.08 10.63 2.73 16 .69 5.79-.93 11.3-2.91 16.66a.58.58 0 0 0-.23.63v.12a44.4 44.4 0 0 1-8.51 14.66c-2.53 2.73-5.9 6.22-9.62 7.37a8.41 8.41 0 0 1-1.62-3c-.06-.18-.37-.16-.35 0a6.86 6.86 0 0 0 .93 2.69l-1.52-.79c-.76-1.24-1.62-2.45-2.33-3.7-.08-.15-.29 0-.22.13.42.94.84 1.94 1.31 2.91l-1.72-.91c-2.15-4.08-4.59-8.29-8.06-11.31-.11-.09-.27.06-.16.16 3.3 2.87 4.62 7 6.92 10.46l-2.65-1.42c-1.47-4.87-5.8-8.29-9.07-11.91-.08-.09-.21 0-.13.13a83.25 83.25 0 0 1 8.09 11.18l-1.63-.88c-2.6-3.93-5.06-7.15-9.46-9.27-5.44-2.62-11.62-2.5-16.88-5.71-.2-.12-.38.18-.2.31-6.33-4-12.41-8.26-18.41-12.82-3.71-2.82-7.38-5.78-11.07-8.73h.05a59.7 59.7 0 0 1 4-5.23 31.37 31.37 0 0 1 4.25-3.68c13.34 9.25 27.95 17.8 44.44 17.91 8.56.06 14.81-3.92 20.09-10.35a67.53 67.53 0 0 0 4.34-5.85 19.14 19.14 0 0 0 3.29-5.94c.3-.66.58-1.32.83-2a13.54 13.54 0 0 0 1.88-6.4 26.75 26.75 0 0 0 .75-11.86c0-.23-.44-.18-.41.05a24.79 24.79 0 0 1-.44 7.71c-.19-2.05-.54-4.13-.83-6.14-1.41-9.82-4-19.36-6.29-29s0-.23-.06-.34c-1.45-6.49-5-12.32-6.48-18.84l.6-1.35a.69.69 0 0 0 .43.41c3.19 9.84 7.56 19.32 10.79 29.19zM252 196.39a.25.25 0 0 0-.08.13l-1.15-2.37a.14.14 0 0 0 .09 0 34.61 34.61 0 0 0 5.05-2.24.32.32 0 0 0 .09-.44c1 .15 1.94.34 2.9.58a36.11 36.11 0 0 0-6.9 4.34z" fill="#0d465b"/><path class="cls-1" d="M143.45 132.68a2.37 2.37 0 0 1 1.55-.21 1.53 1.53 0 0 0 .52 1 .18.18 0 0 0 .26-.26 1.36 1.36 0 0 1-.45-.86.17.17 0 0 0-.13-.17 2.22 2.22 0 0 0-1.84.32c-.09.04-.02.23.09.18z" fill="#0d465b"/><path class="cls-1" d="M149.83 135.42c.15.05.21-.18.07-.23a3.87 3.87 0 0 1-1.93-1.42c-.07-.11-.25 0-.17.1a4.12 4.12 0 0 0 2.03 1.55z" fill="#0d465b"/><path class="cls-1" d="M170.61 143.86c.19.07.26-.22.08-.3a5.4 5.4 0 0 1-2.58-1.67c-.71-1 0-2.25.62-3.1 0-.06-.06-.14-.11-.08-.65.79-1.38 1.9-.92 3a4.58 4.58 0 0 0 2.91 2.15z" fill="#0d465b"/><path class="cls-1" d="M170.09 149.37a.07.07 0 0 0 .13.07 5.62 5.62 0 0 0 .76-4c0-.11-.19-.06-.17 0a6.22 6.22 0 0 1-.72 3.93z" fill="#0d465b"/><path class="cls-1" d="M172.51 143.64c-.35-.65-.74-1.27-1.05-1.95 0-.07-.15 0-.13.05a10.25 10.25 0 0 0 .94 2c.08.21.32.06.24-.1z" fill="#0d465b"/><path class="cls-1" d="M198.56 215.36l-.41-.16a.88.88 0 0 0-.78-.52 1.91 1.91 0 0 1-.43-.64 3.17 3.17 0 0 0 .09-.35.31.31 0 0 0-.26-.38.15.15 0 0 0-.29 0v.06a1.93 1.93 0 0 0-.34 1.25l-.29.1c-2 .23-4-.41-5.95-.51-.09 0-.09.11 0 .14a24.21 24.21 0 0 0 3 1c-4.58.21-9.13.36-13.73.14a50.26 50.26 0 0 0-6.62-.3c-1.95.16-3.87.87-5.81 1.17a6.37 6.37 0 0 1-1.37-.11c-1.26-.25-2.71-.77-4-.53a43.49 43.49 0 0 0-7.49.24c-3.51.22-6.95-.13-10.45.36a2.49 2.49 0 0 0 0-1.11 1.12 1.12 0 0 0 0-.12.58.58 0 0 0-.1-.36 4.24 4.24 0 0 1-.09-.72.11.11 0 0 0-.22 0 2.36 2.36 0 0 0-.08.69c-.29.15-.36.66-.45.92a4.43 4.43 0 0 1-1 1.1h-.17a3.15 3.15 0 0 1-.84 0c-.09 0-.16.11-.07.16s.24.24.44.31a3.1 3.1 0 0 0 .58.13 1.34 1.34 0 0 0 .93-.29 1.64 1.64 0 0 0 .16-.17.32.32 0 0 0 .24 0 .81.81 0 0 0 .42-.28.11.11 0 0 0 .07 0 59.79 59.79 0 0 1 9 .17c3.91.17 7.61-.56 11.51.17a.35.35 0 0 0 .25 0 10.37 10.37 0 0 0 2.14.55c2.68.24 5.08-1.46 7.76-1.59a.16.16 0 0 0 .15-.17c2.2 0 4.47.57 6.62.69a55.92 55.92 0 0 0 13.84-.65.39.39 0 0 0 .18 0h1.27l.17.05a.18.18 0 0 0 .21-.11l.21-.06a3.41 3.41 0 0 0 1.78.38.4.4 0 0 0 .22-.65z" fill="#0d465b"/><path class="cls-1" d="M183.06 223.63c-5.78 1.45-10.71 3.85-16.84 3.49a80.88 80.88 0 0 1-10.4-1.48c-2.26-.43-3.52-2.22-5.87-2.43-.14 0-.17.22 0 .24 2.72.43 4.66 2.63 7.43 3.21a75.89 75.89 0 0 0 8.88 1.26 18 18 0 0 0 2 .06l-.73.17a21.34 21.34 0 0 1-7.71-.21c-.15 0-.21.19-.06.23a24 24 0 0 0 6.16.87h.63a.32.32 0 0 0 .3.17 8 8 0 0 1 1.35.11 18.71 18.71 0 0 1-4.7.07c-.08 0-.09.12 0 .13a17.77 17.77 0 0 0 3 .3.14.14 0 0 0 0 .27 10.57 10.57 0 0 0 5.19-.44.18.18 0 0 0 .1-.2 11.14 11.14 0 0 0 2.68-1c.1-.05 0-.2-.07-.18l-1.64.37a.28.28 0 0 0 .11-.21.32.32 0 0 0 .09-.16c1.91-.35 3.42-1.39 5.25-1.86a.09.09 0 0 0 0-.17c-1.94.49-3.58 1.35-5.65 1.35h-.51l.21-.06c3.71-.79 7.19-2.38 11-3.47a.2.2 0 0 0-.2-.43zm-12.86 5.13h-.37zm-.45 0a3.25 3.25 0 0 0-.54 0h-.38z" fill="#0d465b"/><path class="cls-1" d="M186.18 222.89a6.6 6.6 0 0 1-1.64.56c-.27.06-.15.48.11.41a4.84 4.84 0 0 0 1.66-.76.13.13 0 0 0-.13-.21z" fill="#0d465b"/><path class="cls-1" d="M162.15 210.78a6.45 6.45 0 0 0-5.79.42 35.39 35.39 0 0 1-11.36 3.62c-.07 0-.07.11 0 .11a26.39 26.39 0 0 0 7.65-1.48c3.19-1 5.86-3.48 9.39-2.4.21.06.28-.21.11-.27z" fill="#0d465b"/><path class="cls-1" d="M183.4 212.15a.77.77 0 0 1 .45.25c.09.08.23 0 .14-.13a.8.8 0 0 0-.5-.24.11.11 0 0 0-.08-.15c-3-.55-6-2.26-9-2.29a5.61 5.61 0 0 0-2.5.27 14.58 14.58 0 0 1-8.88 1.34c-.08 0-.12.11 0 .13 2.29.43 4.74.83 6.95-.18 5-2.28 8.61.56 13.49 1z" fill="#0d465b"/><path class="cls-1" d="M184.6 212.46a12 12 0 0 0 4.84 1.76.09.09 0 0 0 .05-.18c-1.65-.57-3.32-.7-4.82-1.7-.07-.05-.14.07-.07.12z" fill="#0d465b"/><path class="cls-1" d="M163.68 204.22a5.92 5.92 0 0 1-3.9.06c-.09 0-.12.1 0 .13a5.39 5.39 0 0 0 4 .06c.14-.05.07-.31-.1-.25z" fill="#0d465b"/><path class="cls-1" d="M162.35 211.07a.06.06 0 0 0-.06.1c.15.1.09.08.26.11a.08.08 0 1 0 0-.15z" fill="#0d465b"/><path class="cls-1" d="M132.44 225.72s-.1 0-.06.08c2.52 2.18 3.7 5.2 5.58 7.85a.17.17 0 0 0 .29-.17c-1.46-2.81-3.25-5.87-5.81-7.76z" fill="#0d465b"/><path class="cls-1" d="M138 235.42a.12.12 0 0 0 0 .25.12.12 0 0 0 0-.25z" fill="#0d465b"/><path class="cls-1" d="M173.57 232.79c-5.8-1.91-13.64.4-16.56 6h.07a15.05 15.05 0 0 1 16.43-5.79.12.12 0 0 0 .06-.21z" fill="#0d465b"/><path class="cls-1" d="M179.15 234.43a4.73 4.73 0 0 1-1.92-.63c-.13-.06-.24.13-.11.19a5 5 0 0 0 2 .69c.19 0 .19-.25.03-.25z" fill="#0d465b"/><path class="cls-1" d="M199.61 365a49.94 49.94 0 0 1-21.45-6.21c-3.06-1.66-6-3.52-9-5.31-3.18-1.91-6.92-1.18-10.21-2.58-6.85-2.93-12.22-8.93-17.67-13.83a65.14 65.14 0 0 0-16.16-10.75c-23.61-11-53.26-8.85-77.52-1.27a.14.14 0 0 0 .07.26c25.85-7.87 57.48-9.14 81.72 4.33 6.32 3.51 11.54 8.56 16.84 13.39 3.86 3.52 9.37 9.07 14.84 9.56 7.71.69 13.46 5.5 20.25 8.77a45.9 45.9 0 0 0 18.29 4.2c.39-.04.39-.56 0-.56z" fill="#0d465b"/><path class="cls-1" d="M229.57 378.08c-2.37-.55-4.78-.7-7.12-1.37-3.5-1-6-3.77-8.38-6.33-2.79-3-5.51-4-9.54-3.26-.13 0-.07.21.05.19 6.91-1 8.2 3.61 12.72 7 3.81 2.89 7.52 3.41 12.11 4.26 11 2.06 22.51 9.49 31.46 16 .22.16.43-.21.21-.37-9.19-6.79-20.22-13.47-31.51-16.12z" fill="#0d465b"/><path class="cls-1" d="M107.47 106.53c0-.13-.18-.19-.2-.06-.76 4.07-2.68 8.67-1.64 12.83a12.87 12.87 0 0 0 2.23 3.84c1.29 1.85 3.41 4.81.27 7.06a23.46 23.46 0 0 1-2.38 1.27c-1.7.94-1.82 2.47-1.13 4.12a7.33 7.33 0 0 0 2.19 2.31c3.32 2.82-.35 3.46-2.26 4.74a.38.38 0 0 0-.13.51 28.67 28.67 0 0 1 1.37 3.19.28.28 0 0 0 .55-.15c-.68-3.16-.27-3.7 3.15-4.58a.48.48 0 0 0 .33-.58c-.45-2-5.36-6.73-4.1-8.3s4.39-1.69 4.71-4-.54-4-2-5.94c-3.77-5.25-1.86-10.34-.96-16.26z" fill="#0d465b"/><path class="cls-1" d="M98.92 104.23c.57 2.4 2 3.87 1.61 6.65-.25 1.69-2.3 3.27-3.34 4.64-1.3 1.71-.52 4.07 0 5.87.61 2 2.55 4 1.48 6.23-.12.26-.45.9-.22 1.22 4.09 5.81-.09 7.63-2.66 11.91-.75 1.24 1 2.35 1.7 2.89.19.14.4-.16.25-.32-2.63-2.65 1.78-5.37 2.61-7.48.75-1.92 1.15-4.16 0-6-.91-1.51-.34-4.61-1-6.37-.88-2.32-2.59-4.71-1.22-7.37.55-1.07 1.76-1.78 2.4-2.8a6.7 6.7 0 0 0 .81-6c-.73-2.52-2-3.87-1.54-6.9.43-2.62 2.55-4.92 4.23-6.81 4.9-5.51 8.69-11.05 10.26-18.4 0-.18-.24-.26-.28-.08a35.65 35.65 0 0 1-5.87 12.71c-2.45 3.49-5.92 6.05-8.24 9.66a8.44 8.44 0 0 0-.98 6.75z" fill="#0d465b"/><path class="cls-1" d="M97.28 146.9a4 4 0 0 0 0 2.53.09.09 0 0 0 .17 0 4.48 4.48 0 0 1 0-2.42c.09-.18-.13-.24-.17-.11z" fill="#0d465b"/><path class="cls-1" d="M98 144.14c-.1-.08-.23.05-.14.14 3.13 2.89-2.52 5.74-.31 8.48.13.16.34 0 .31-.18-.59-3.12 3.26-5.87.14-8.44z" fill="#0d465b"/><path class="cls-1" d="M93.63 99.79c.14 2.83-3.51 4.9-.42 6.9 3.93 2.55-4.09 6.09-1.42 8.76 1.29 1.3 0 2.17-.22 3.84a.36.36 0 0 0 0 .24c1.21 2.36 2.25 4.07 1.77 6.89 0 .2.26.28.3.08a9 9 0 0 0-.08-4.74 14.25 14.25 0 0 0-1.12-1.92c-.62-1 .61-2.84 1-3.86.67-1.68-3.44 1.18-.62-3.35.94-1.52 2.84-2.3 2.84-4.27 0-1.44-.9-2-2-2.59s1-3 1-3.88a22.74 22.74 0 0 0-.28-3.32c-.4-4.13 2.15-3.23 3.24-5.65a14.88 14.88 0 0 0 1.06-6.56.12.12 0 0 0-.23 0c-.06 4-1.48 5.72-3.69 8.65a6.48 6.48 0 0 0-1.13 4.78z" fill="#0d465b"/><path class="cls-1" d="M94.4 127.79c0 2.09.57 4.11.18 6.2a.27.27 0 0 0 .51.14c.72-2.16-.36-4.19-.48-6.34a.1.1 0 0 0-.21 0z" fill="#0d465b"/><path class="cls-1" d="M107.32 104.69a.39.39 0 0 0 .75.1c.35-1.91-1.62-3 .14-4.54a.49.49 0 0 0 0-.69c-2.79-2.78.4-5.46.87-8.55 0-.07-.1-.1-.11 0-.64 2.82-3.89 5-2.5 8 .67 1.47-.46 1.26-.46 2.64-.01 1.18 1.43 1.61 1.31 3.04z" fill="#0d465b"/><path class="cls-1" d="M102.71 114.54c0-.16-.21-.23-.25-.07-1 5.34 1.85 10.44.57 15.79a.31.31 0 0 0 .59.16c1.48-5.34-1.81-10.53-.91-15.88z" fill="#0d465b"/><path class="cls-1" d="M214.06 93c-2.51.8-4.15-.73-4.29-3a.27.27 0 0 0-.33-.26c-6.09 1.95-10.77-3.34-12.38-8.68a.09.09 0 0 0-.18 0c1.1 4 4.32 9.23 9 9.59.41 0 3.39-.31 3.43.3a4 4 0 0 0 .84 2.15c.91 1.28 2.87.79 4.06.41.33-.05.18-.57-.15-.51z" fill="#0d465b"/><path class="cls-1" d="M246.39 153.48a.11.11 0 0 0 0-.22.11.11 0 0 0 0 .22z" fill="#0d465b"/><path class="cls-1" d="M132.61 48.46c.06-.09-.08-.17-.14-.08-5.15 7.44-4.64 17.38-2.25 25.74 1.23 4.31 3.51 7.59 6.33 11 .7.85 3.84 4.61 3.32 5.92-.8 2-2.24 3.47-2.42 5.65a.77.77 0 0 0 .57.75 15.59 15.59 0 0 0 2.78.36c4.36.28 3.15 1.95 4.33 4.15a26.33 26.33 0 0 0 5.43 6.88 24.78 24.78 0 0 0 14.65 6.5.33.33 0 0 0 .09-.64 30 30 0 0 1-11.79-4.83c-4.31-2.92-6.11-6.67-8.07-11.21-.81-1.87-2.82-2.14-4.63-2.34-2.82-.32.8-4.07.8-5.49 0-1.67-2.13-4.27-3.11-5.46-3.07-3.75-5.59-6.91-7.18-11.54-2.64-7.64-3.48-18.37 1.29-25.36z" fill="#0d465b"/><path class="cls-1" d="M147 94.86a.36.36 0 0 0 .25.44c.6.08 4.36.3 4.2 1a3.24 3.24 0 0 0 .26 1.91c1 1.64 2.44 2.06 4.29 1.94a.23.23 0 0 0 0-.46q-3.67.13-3.59-4.12a.4.4 0 0 0-.37-.49c-1.18-.15-4.27.31-4-1.28a4.85 4.85 0 0 0-.78-2.8c-1.54-3-4.76-4.81-6.78-7.43 0-.05-.13 0-.09.05 2.18 3.09 8.4 6.91 6.61 11.24z" fill="#0d465b"/><path class="cls-1" d="M262.42 133.37c0-.24-.32-.35-.37-.1-.7 3.56-2.55 4.53-5 6.74-1.12 1-2.34 2-2.15 3.63a8.25 8.25 0 0 1-1.92 6.85 4.06 4.06 0 0 0-.82 2.14.61.61 0 0 0-.32.63v.22c.06.17.12.35.2.52l.37.85c0 .11.06.23.1.34a.3.3 0 0 0 .11.13 14.61 14.61 0 0 0 1.85 3.22c.46.57 1.16 1.4 2 1.2s.9-1.77 1-2.44c0-.17-.28-.22-.31 0-.06.39-.3 2.19-1 1.62a7 7 0 0 1-1.38-2.25c-.46-.89-.9-1.8-1.33-2.71l-.16-.36a5.72 5.72 0 0 1 .36-1c1.23-.5 4.55-2.8 5-.6 0 .19.35.14.33 0-.15-1.28-.94-1.78-2.2-1.72a6.92 6.92 0 0 0-1.95.43c1.25-1.74 2.66-3.38 2.19-5.91a4.77 4.77 0 0 1 1.28-.37 7.33 7.33 0 0 1 2.67-.12c.21 0 .44-.23.23-.4a3.69 3.69 0 0 0-1.82-.77 2.78 2.78 0 0 0 .14-.44 12.31 12.31 0 0 0 .24-2.83.66.66 0 0 0-.17-.45l.46-.5a9.76 9.76 0 0 0 2.37-5.55zm-4.55 9.58z" fill="#0d465b"/><path class="cls-1" d="M245.08 146.26a4.38 4.38 0 0 0-3.91-.39c-.07 0-.06.14 0 .14a14.62 14.62 0 0 1 3.65.66c.24.05.47-.24.26-.41z" fill="#0d465b"/><path class="cls-1" d="M247.6 74.3c-5.05 5.37-13.88 2.06-18.85-1.79-1.42-1.1-4.87-4.07-6.85-2.09-1.6 1.6-2.43 5.64-5.86 4-2.62-1.25-5.39-4.69-7.51-6.67a35.91 35.91 0 0 1-9.34-14.45c-2.51-6.68-4.56-16.05-10.64-20.56-3.43-2.54-6.84-2.41-10.91-1.55a31.22 31.22 0 0 0-7.9 3.2c-4.08 2.14-7.92 6.19-13 5.39-.1 0-.14.13 0 .14 5 .95 9.15-2.75 13.33-5 7.34-4 15.66-5.51 20.84 2 5.6 8.12 6.19 18.68 12.07 26.65a61.1 61.1 0 0 0 12.42 12c2.46 1.82 5.91-.93 6.87-3.15 1.37-3.18 6.09 1.38 7.55 2.43a20.8 20.8 0 0 0 6.44 2.57c4.32 1.21 8.83.91 11.77-2.72.18-.28-.18-.7-.43-.4z" fill="#0d465b"/><path class="cls-1" d="M249.11 58.75a.66.66 0 0 0-.9.24c-4 7-10.38 4-13.72-1.88-.86-1.52-1.62-3-3.55-2.81-2.18.2-4.23 2.83-5.1 4.6-3.16 6.45-10.11-3.35-12.28-5.61-.12-.13-.3.06-.19.19 2.38 2.62 8.63 12.2 12.77 6.52 1.43-1.94 4.64-7.07 7-3.23a34.82 34.82 0 0 0 3.07 4.64 9.43 9.43 0 0 0 8.23 3 5.89 5.89 0 0 0 2.7-1.66 12.47 12.47 0 0 0 1.53-2c.5-.72 3.74 2.26 4.13 2.58 3.33 2.77 6.69 5.21 11 6.21 3.2.75 13.33-.06 8.72-5.27-.3-.33-.78.09-.59.46 1.92 3.79-3.36 3.75-5 3.77a16 16 0 0 1-7.75-2.19c-3.68-1.9-6.71-5.1-10.07-7.56z" fill="#0d465b"/><path class="cls-1" d="M217.46 47.88c3.66-.71 2.57.7 4.27 2.43a4.91 4.91 0 0 0 2.68.6c1.79-.49 3-1.94 5.16-1.22s2.22 1.44 4.15.21c5.44-3.47 10.48 6.4 16.14 5.2a2.82 2.82 0 0 0 1.83-1.93c.66-5.62 4.94-2.41 8.22-1.11.36.14.61-.46.26-.62-2.71-1.25-5.61-3.92-8.57-2.07-.62.39-.57 1.37-.6 2-.29 6.14-6.32 1.58-7.72.61a26.09 26.09 0 0 0-3.62-2.18 10.75 10.75 0 0 0-4.75-1c-1.81 0-1.64 1.38-4.31.63-1.08-.3-2.51-1.18-3.67-.86-2.08.57-5.74 4.52-5.74-1.09a.14.14 0 0 0-.14-.14 19.12 19.12 0 0 0-3.66.35c-.14-.01-.08.22.07.19z" fill="#0d465b"/><path class="cls-1" d="M227.11 19.59c-1.51 2.23-3.15 7.52-7.62 3.68-.11-.1-.28.06-.17.16.86.76 2.6 2.54 4 1.74 3.08-1.75 2.55-6.06 6.83-3.39 4.61 2.88 9.48 5.83 13.52 9.48 2.93 2.65 5.6 5.28 9.64 5.95a.35.35 0 0 0 .42-.24 10.54 10.54 0 0 0-.12-4.11c0-.24-.45-.18-.42.06.93 8-8.93-2.27-11.19-3.88-4.73-3.36-9.53-6.61-14.54-9.54a.26.26 0 0 0-.35.09z" fill="#0d465b"/><path class="cls-1" d="M253.33 32a.1.1 0 0 0 .15-.15 10.06 10.06 0 0 0-1-1 .1.1 0 0 0-.15.15 10.53 10.53 0 0 0 1 1z" fill="#0d465b"/><path class="cls-1" d="M206.58 15.56c3.09-.51 4.87 2.44 7.16 3.93.12.08.27-.11.15-.2-2.12-1.79-4.31-4.55-7.39-4-.18.03-.1.3.08.27z" fill="#0d465b"/><path class="cls-1" d="M197 14.33a.1.1 0 0 0 0 .2 10.32 10.32 0 0 0 3-.64c.15 0 .08-.29-.06-.23a10 10 0 0 1-2.94.67z" fill="#0d465b"/><path class="cls-1" d="M211.19 12.23c5.13-1.25 8-.22 12 3.08.14.12.4.14.49-.06 1.68-3.87 5.2-3.07 7.49-.66.2.21.5-.1.31-.31-2.37-2.68-5.7-3.63-7.93-.32-.4.6-4.39-2.12-5.17-2.41-2.29-.86-5-.13-7.22.47a.11.11 0 0 0 .03.21z" fill="#0d465b"/><path class="cls-1" d="M245.45 26.11c.19.05.23-.27 0-.26-.37 0-.68-.36-.93-.59-.09-.08-.21 0-.13.13a2.25 2.25 0 0 0 1.06.72z" fill="#0d465b"/><path class="cls-1" d="M101.3 60.51c2-1.68 5-5.12 8-3.63.43.21 1 .71 1.57.67a6.09 6.09 0 0 0 4.65-2.47c1.81-2.68 2.43-5.93 3.86-8.82.92-1.87 5-2.23 6.71-3.32s3-3.34 4.3-4.89c2.13-2.55 6.85-.69 9.81-.79 4.93-.17 9.72-2.45 11.77-7.06.09-.2-.2-.38-.3-.18-3.94 7.59-11.75 6.24-18.69 5.44-1.4-.16-2.49.9-3.39 1.79-2.74 2.68-3.85 5.34-7.83 6.51-3.73 1.1-4.27 4.17-5.42 7.82-1.08 3.43-3.61 6.25-7.46 4.4a2.14 2.14 0 0 0-1.19-.18c-2.91.45-4.65 2.43-6.81 4.3-.26.25.12.64.42.41z" fill="#0d465b"/><path class="cls-1" d="M92.06 66.86a15.41 15.41 0 0 1 5.71-4.1c.31-.14 0-.58-.26-.45a13.76 13.76 0 0 0-5.71 4.35c-.11.15.14.34.26.2z" fill="#0d465b"/><path class="cls-1" d="M127.06 29c4.6-2.73 9.75-4.25 14.24-7.17 1.71-1.11 3.23-2.46 5-3.52 3.46-2.08 3.94 3.3 4.36 5.43a.47.47 0 0 0 .57.32c4-.78 7.48-4.3 11-6.25 5.67-3.15 2.21 4.06 2.3 6.85 0 1.61 1.72 1.61 2.83 1 1.53-.79 1.78.7 3 1.42s2.9.08 4.12-.38c9-.08 15.82-12.37 24-3.84 4.38 4.53 7.9 11.72 10 17.6 1.16 3.25 2.68 5.77 6.28 6.19.33 0 .4-.51.08-.58-4.19-.93-4.85-4.58-6-8.09a46.18 46.18 0 0 0-3.62-7.35c-2.4-4.34-5.34-9-9.88-11.31-2.59-1.33-5.37-.42-7.71.91-4.33 2.43-7.54 5.88-12.56 6.2a.3.3 0 0 0-.29-.5q-2.93 1.2-5.44-1.8a.44.44 0 0 0-.64-.26c-6.33 3.93-.65-5.13-2.33-7.46-2-2.78-9.63 3.58-11.09 4.54a19.63 19.63 0 0 1-3.73 2.06c.06 0-1.09-3.64-1.28-4-.44-.87-1.14-2.12-2.34-1.91-2.16.37-4 2.1-5.67 3.41-4.65 3.65-10.3 5.24-15.3 8.27a.11.11 0 0 0 .1.22z" fill="#0d465b"/><path class="cls-1" d="M178.49 14.18a.74.74 0 1 0-.15-1.44.51.51 0 0 0-.18-.06c-.1 0-.13.11-.09.18a.74.74 0 0 0 .42 1.32z" fill="#0d465b"/><path class="cls-1" d="M181.5 11.94c3.81-.66 3.36.92 2.89 4 0 .29.25.63.55.43 4.27-2.9 7.55-8.68 13.45-7.18 2.54.65 4.36 1.46 6.33-.57.18-.18-.06-.51-.28-.36-2.89 2-4.45.24-7.09-.11a7.09 7.09 0 0 0-4.83 1 20.26 20.26 0 0 0-4.15 3.43c-.21.2-3.12 2.45-3.11 2.42.13-1.16 0-2.35.08-3.53a.25.25 0 0 0-.26-.26 19.43 19.43 0 0 0-3.67.44c-.19.04-.1.35.09.29z" fill="#0d465b"/><path class="cls-1" d="M214 271.88a16.8 16.8 0 0 1-.45 1.91c-.08.31-.52 1.22.17 1.19a.43.43 0 0 0 .39-.3 5.78 5.78 0 0 0 .25-2.75c.02-.19-.29-.28-.36-.05z" fill="#0d465b"/><path class="cls-1" d="M131.37 133.5a23.34 23.34 0 0 0 10.3-.23.54.54 0 0 0 .29-.84l.53-.11a.25.25 0 0 0-.07-.48h-2.4a14.44 14.44 0 0 0-2.1-.09c-2.71-.18-5.42-.51-8.14-.54s-5.61.47-6.65 3.09c-.47.43-.93.88-1.35 1.31-.11.11 0 .31.17.22 3.36-2.18 5.32-3.09 9.42-2.33zm-.92-2c.83 0 1.68.11 2.54.2-.84-.01-1.69-.1-2.53-.15zm-2.13 0a9 9 0 0 0-4.85 2.45c.9-1.57 2.69-2.22 4.86-2.38z" fill="#0d465b"/><path class="cls-1" d="M187.55 265.24c.3-.12.18-.62-.14-.5-3.45 1.23-5.22 5.7-7 8.58-.11.19.18.35.29.17 1.85-2.93 3.45-6.83 6.85-8.25z" fill="#0d465b"/><path class="cls-1" d="M190.14 266.47c-3.36 1.26-5 5.25-6.71 8.12-.08.13.12.24.2.12 1.92-2.87 3.59-6 6.72-7.75.25-.15.07-.6-.21-.49z" fill="#0d465b"/><path class="cls-1" d="M219.69 293.89c-.08 0-.15.08-.07.12a30.42 30.42 0 0 0 6.2 2.76c.11 0 .19-.14.08-.19-2.08-.88-4.16-1.71-6.21-2.69z" fill="#0d465b"/><path class="cls-1" d="M251.63 285.58c-3.49 4.34-7.88 8-13.43 9.29-.11 0-.06.18 0 .16 5.57-1.15 10.19-4.78 13.63-9.2.17-.18-.06-.44-.2-.25z" fill="#0d465b"/><path class="cls-1" d="M254.94 281.35a9 9 0 0 1-2.57 3c-.1.07 0 .23.09.16a7.4 7.4 0 0 0 2.71-3c.06-.18-.17-.31-.23-.16z" fill="#0d465b"/><path class="cls-1" d="M259.14 273.7c-.65 1.21-1.36 2.4-2 3.64-.13.25.25.48.39.22.63-1.22 1.4-2.38 2-3.62.15-.27-.24-.51-.39-.24z" fill="#0d465b"/><path class="cls-1" d="M261.82 269.25c.44-1.1 1-2.16 1.36-3.29.09-.26-.32-.36-.41-.11-.41 1.11-.94 2.18-1.28 3.31-.06.21.25.29.33.09z" fill="#0d465b"/><path class="cls-1" d="M261 291.33c.76-1.33 1.67-2.56 2.38-3.92.07-.13-.12-.24-.19-.11-.7 1.36-1.6 2.61-2.24 4-.01.04.05.07.05.03z" fill="#0d465b"/><path class="cls-1" d="M231.37 251.79c.3-.27.69-.39 1-.65.11-.1-.05-.26-.16-.16-.3.27-.68.4-1 .67-.1.08.05.23.16.14z" fill="#0d465b"/><path class="cls-1" d="M231.29 256.75c4.79-.22 8.09-6.22 10.66-9.6.08-.11-.11-.25-.19-.14-2.54 3.28-5.82 9.24-10.48 9.57-.1 0-.1.17.01.17z" fill="#0d465b"/><path class="cls-1" d="M239.62 253.77c.09-.11-.07-.27-.16-.16a22.23 22.23 0 0 1-4.58 4.63c-.09.06 0 .21.08.15a21.74 21.74 0 0 0 4.66-4.62z" fill="#0d465b"/><path class="cls-1" d="M240.07 256.58a7.65 7.65 0 0 1-2.57 2.62c-.11.08 0 .27.11.19a7 7 0 0 0 2.72-2.66c.1-.17-.17-.32-.26-.15z" fill="#0d465b"/><path class="cls-1" d="M241.29 260.35a.12.12 0 0 0-.2-.12 10.29 10.29 0 0 1-1.64 1.62c-.12.11.06.29.18.18.57-.54 1.31-.95 1.66-1.68z" fill="#0d465b"/><path class="cls-1" d="M240.78 264.11c-.18.09 0 .37.16.28.62-.31 1.49-.7 1.69-1.43a.12.12 0 0 0-.21-.12 5.13 5.13 0 0 1-.75.77 6.48 6.48 0 0 1-.89.5z" fill="#0d465b"/><path class="cls-1" d="M241.85 266.34a.22.22 0 0 0 0 .45.22.22 0 0 0 0-.45z" fill="#0d465b"/><path class="cls-1" d="M116.88 268.38c.2-.15 0-.49-.2-.34a12.74 12.74 0 0 1-5.54 2.06c-.12 0-.07.21.05.19a11.74 11.74 0 0 0 5.69-1.91z" fill="#0d465b"/><path class="cls-1" d="M89.24 237.34a8.55 8.55 0 0 0 6.09 2 .2.2 0 0 0 0-.41c-1.22 0-6.58 0-4.65-2.91A6.63 6.63 0 0 0 92 233c.24-1.63-1.17-3.59-1.61-5-.86-2.83 1-5.24 2-7.7.68-1.78-.58-3.57-1.53-4.93-.08-.12-.28 0-.2.12 2.87 4.52-.4 5.57-.71 9.42a9.93 9.93 0 0 0 .29 4.1c1.08 3.49 2 4.73-1 8.05a.21.21 0 0 0 0 .28z" fill="#0d465b"/><path class="cls-1" d="M116.22 247.36c-3.53-3.75-2-7.71-7-10.23-.09 0-.16.09-.08.13 3.44 1.83 3.9 4.2 4.81 7.43.46 1.62 1.89 2.89 3 4.08 4.79 5.3 10.41 9.94 15.81 14.59a165.57 165.57 0 0 0 33.17 22.08c.09 0 .18-.09.08-.14a171.62 171.62 0 0 1-35.53-24.51c-4.93-4.3-9.77-8.67-14.26-13.43z" fill="#0d465b"/><path class="cls-1" d="M171.82 290.07c4.8 4.75 10.43 8.57 15.87 12.55.1.07.19-.09.09-.16-5.36-4.08-10.95-7.83-15.81-12.53-.1-.1-.25.07-.15.14z" fill="#0d465b"/><path class="cls-1" d="M99.65 199.24h-.07a.8.8 0 0 1-.32.63s0 .1.06.06a.82.82 0 0 0 .33-.69z" fill="#0d465b"/><path class="cls-1" d="M265.12 184.88a.47.47 0 0 1 .18.28.41.41 0 0 0 .78 0 .86.86 0 0 0-.31-.93c-.41-.43-1.07.23-.65.65z" fill="#0d465b"/><path class="cls-1" d="M267.92 193.21a5.49 5.49 0 0 0-2.3.48c-.33.11-.19.64.14.53a16.44 16.44 0 0 1 2.22-.52c.31-.05.2-.45-.06-.49z" fill="#0d465b"/><path class="cls-1" d="M273 195.48a10.12 10.12 0 0 0-3.47 4.1c-.07.15.12.32.24.18.53-.59 1-1.27 1.45-1.89a11.93 11.93 0 0 1 2-2c.28-.15.05-.57-.22-.39z" fill="#0d465b"/><path class="cls-1" d="M272.79 200.8l1-1a5.24 5.24 0 0 0 1-1.07.22.22 0 0 0-.3-.3 4.46 4.46 0 0 0-1 .88l-1.08 1.13a.23.23 0 0 0 .38.36z" fill="#0d465b"/><path class="cls-1" d="M258.91 196.09c-1.69.92-3.29 2-4.92 3a.14.14 0 0 0 .14.24c1.67-.95 3.38-1.86 5-2.91a.21.21 0 0 0-.22-.33z" fill="#0d465b"/><path class="cls-1" d="M257.42 202a18.13 18.13 0 0 0 5.32-4 .15.15 0 0 0-.21-.21 26.76 26.76 0 0 1-5.24 4c-.12.06 0 .21.13.21z" fill="#0d465b"/><path class="cls-1" d="M261.38 206.27c1.12-.74 2.23-1.5 3.3-2.3.13-.1 0-.31-.13-.22-1.15.7-2.19 1.56-3.3 2.32-.12.08 0 .29.13.2z" fill="#0d465b"/><path class="cls-1" d="M265.12 213.05a26.88 26.88 0 0 0 2.65-2.09c.22-.2-.06-.51-.3-.39a26.41 26.41 0 0 0-2.68 1.91c-.36.24-.02.81.33.57z" fill="#0d465b"/><path class="cls-1" d="M271.73 219.43a11.34 11.34 0 0 0-1.8 1.61.43.43 0 0 0 .61.61 11.26 11.26 0 0 0 1.61-1.8.31.31 0 0 0-.42-.42z" fill="#0d465b"/><path class="cls-1" d="M196.6 297.87c3.14 0 3.81 4.53 5.81 6.15a.92.92 0 0 0 .73.08c3.09-.81 5.28-.9 8.15.84 4.93 3 10.45 4.8 15.28 8 .2.13.39-.19.19-.32-4.55-2.92-9.72-4.57-14.32-7.36-2.92-1.77-4.34-3.14-7.7-2.11-4.29 1.33-3.32-5.31-6.89-5.58a24.4 24.4 0 0 1-16.6-7.68c-.15-.16-.38.08-.24.24a27 27 0 0 0 10.5 6.79 12 12 0 0 0 5.09.95z" fill="#0d465b"/><path class="cls-1" d="M94.34 278.89c.33-.25 0-.8-.33-.57a5.68 5.68 0 0 0-1.92 1.68 2 2 0 0 0-.06 2.07.16.16 0 0 0 .31-.09c-.25-1.39.99-2.34 2-3.09z" fill="#0d465b"/><path class="cls-1" d="M96 281.58a.17.17 0 0 1 .17-.17c.42 0 .42-.66 0-.65a.82.82 0 0 0-.82.82c-.06.42.59.42.65 0z" fill="#0d465b"/><path class="cls-1" d="M54.65 263.31a22.24 22.24 0 0 0 12.58 9.36c.22.07.32-.28.09-.35a22.66 22.66 0 0 1-12.5-9.12c-.07-.1-.25 0-.17.11z" fill="#0d465b"/><path class="cls-1" d="M60.26 258.32a8.57 8.57 0 0 0-4.14 3.13.31.31 0 0 0 .49.38 11.15 11.15 0 0 1 3.91-2.91c.33-.14.09-.73-.26-.6z" fill="#0d465b"/><path class="cls-1" d="M62.24 260.14a32.79 32.79 0 0 0-3.29 2.32c-.17.12 0 .39.17.28a32.26 32.26 0 0 0 3.34-2.33c.15-.13-.05-.41-.22-.27z" fill="#0d465b"/><path class="cls-1" d="M61.25 264.18c-.07-.32-.56-.18-.49.13 1.09 5.3 10.2 5.84 14.44 6 .13 0 .16-.21 0-.23-4.06-.55-12.8-.75-13.95-5.9z" fill="#0d465b"/><path class="cls-1" d="M71.57 267.76c.27 0 .27-.44 0-.42a9 9 0 0 1-7.83-4.13c-.08-.11-.25 0-.18.11a9 9 0 0 0 8.01 4.44z" fill="#0d465b"/><path class="cls-1" d="M77.25 273.24c-2.27-.59-4.74-1.23-7.07-.65-.31.08-.18.55.13.48 2.39-.54 4.52.52 6.86.68.31.02.36-.44.08-.51z" fill="#0d465b"/><path class="cls-1" d="M120.43 295.89c-.05 0-.1 0 0 .08a111 111 0 0 0 11.21 6.61c.07 0 .13-.07.06-.1a110.57 110.57 0 0 1-11.27-6.59z" fill="#0d465b"/><path class="cls-1" d="M145.49 304a.17.17 0 0 0 0-.35 34 34 0 0 1-7.21-.67c-.24-.05-.34.31-.1.37a28.72 28.72 0 0 0 7.31.65z" fill="#0d465b"/><path class="cls-1" d="M117.83 293.74c-3.38-1.11-7.29-2.1-10.69-.56-.14.06 0 .3.1.24 3.37-1.41 7.15-.3 10.46.74.3.09.4-.33.13-.42z" fill="#0d465b"/><path class="cls-1" d="M114.45 298.63a42.27 42.27 0 0 1 7.87 3.35c.15.08.29-.16.13-.23a42.5 42.5 0 0 0-8-3.25.06.06 0 0 0 0 .13z" fill="#0d465b"/><path class="cls-1" d="M130.26 305.92a15.07 15.07 0 0 0 8.63 2.68.13.13 0 0 0 0-.27 14.81 14.81 0 0 1-8.53-2.59c-.11-.07-.21.11-.1.18z" fill="#0d465b"/><path class="cls-1" d="M154.73 309a.56.56 0 0 1-.56-.57c0-.12-.21-.12-.2 0a.75.75 0 0 0 .76.75.09.09 0 0 0 0-.18z" fill="#0d465b"/><path class="cls-1" d="M144.31 151.8c-5.85 2.21-11.58 4.29-17.43.86a.06.06 0 0 0-.06.11c5.83 3.78 11.6 1.59 17.55-.79.09-.05.05-.23-.06-.18z" fill="#0d465b"/><path class="cls-1" d="M146.64 150.87a.14.14 0 0 0 0-.29h-.33a.15.15 0 0 0 0 .31z" fill="#0d465b"/><path class="cls-1" d="M182 150a.06.06 0 0 0-.06.1c2 1.22 4.41 1.66 6.61 2.48.06 0 .11-.08 0-.11-2.08-1.04-4.48-1.28-6.55-2.47z" fill="#0d465b"/><path class="cls-1" d="M194.17 152.82a.05.05 0 0 0 0 .1c3.63-.12 7.52-.1 10.59-2.32.05 0 0-.13-.06-.09-3.08 2.1-6.95 2.09-10.53 2.31z" fill="#0d465b"/><path class="cls-1" d="M131.36 142.1a1.86 1.86 0 0 0-1.56.75 2.68 2.68 0 0 1 1.54-.62.07.07 0 0 0 .02-.13z" fill="#0d465b"/><path class="cls-1" d="M131.36 142.56a2 2 0 0 0-1.41.74.07.07 0 0 0 .1.1 3.79 3.79 0 0 1 1.34-.63.11.11 0 0 0-.03-.21z" fill="#0d465b"/><path class="cls-1" d="M131.16 143.39a2.34 2.34 0 0 0-.47.54c0 .05 0 .12.09.07a2.17 2.17 0 0 1 .51-.44.11.11 0 1 0-.13-.17z" fill="#0d465b"/><path class="cls-1" d="M131.52 144.31a2.19 2.19 0 0 0-.32.4c-.06.12.1.21.18.1a2.52 2.52 0 0 1 .3-.34.12.12 0 0 0-.16-.16z" fill="#0d465b"/><path class="cls-1" d="M132.16 144.89a1 1 0 0 0-.38.47c-.08.19.2.36.29.17a2.87 2.87 0 0 1 .29-.45c.07-.08-.09-.27-.2-.19z" fill="#0d465b"/><path class="cls-1" d="M132.62 145.66a1.46 1.46 0 0 1 0 .47.11.11 0 0 0 .23 0 2.12 2.12 0 0 0-.08-.52.1.1 0 0 0-.15.05z" fill="#0d465b"/><path class="cls-1" d="M133.24 146.07a1.7 1.7 0 0 0 .08.52.08.08 0 0 0 .15 0 2.3 2.3 0 0 1 0-.47.1.1 0 0 0-.23-.05z" fill="#0d465b"/><path class="cls-1" d="M134.44 146.45l-.09-.19a.15.15 0 0 0-.3 0 .54.54 0 0 0 .16.42c.14.16.37-.07.23-.23z" fill="#0d465b"/><path class="cls-1" d="M135.82 146.53a1.83 1.83 0 0 1-.11-.31c0-.19-.31-.1-.29.08a.68.68 0 0 0 .15.34c.09.1.32.04.25-.11z" fill="#0d465b"/><path class="cls-1" d="M136.87 146.11c.09 0 .23-.05.16-.16s-.16-.15-.27-.27-.25 0-.18.14a.64.64 0 0 0 .29.29z" fill="#0d465b"/><path class="cls-1" d="M137.76 144.8c-.12-.12-.3.07-.18.19l.19.18a.13.13 0 0 0 .18-.18z" fill="#0d465b"/><path class="cls-1" d="M137.49 143.74a.16.16 0 0 0 0 .31 1.25 1.25 0 0 1 .8.28c.18.14.42-.1.25-.25a1.46 1.46 0 0 0-1.05-.34z" fill="#0d465b"/><path class="cls-1" d="M137.49 142.74c-.14 0-.13.2 0 .21.66.06.94.62 1.48.87a.12.12 0 0 0 .15-.2 2.35 2.35 0 0 0-1.63-.88z" fill="#0d465b"/><path class="cls-1" d="M137.24 142a3.21 3.21 0 0 1 2.18.74.21.21 0 0 0 .25-.32 2.57 2.57 0 0 0-2.47-.65c-.12.07-.09.28.04.23z" fill="#0d465b"/><path class="cls-1" d="M137.73 141.4c.7-.32 1.18.29 1.78.54.32.13.45-.34.21-.51a1.68 1.68 0 0 0-2.12-.23.12.12 0 0 0 .13.2z" fill="#0d465b"/><path class="cls-1" d="M188.76 139.81a.14.14 0 0 0 .11-.26 1.19 1.19 0 0 0-1.5.27v.05a2.56 2.56 0 0 1 1.39-.06z" fill="#0d465b"/><path class="cls-1" d="M189.42 140.47c.13 0 .13-.2 0-.27-.6-.4-1.53.12-2 .51-.13.11 0 .34.19.24a2.79 2.79 0 0 1 .92-.44 6 6 0 0 1 .89-.04z" fill="#0d465b"/><path class="cls-1" d="M188.83 141c-.34.18-.65.4-1 .59a.1.1 0 0 0 .1.18c.34-.18.66-.39 1-.57.14-.09.07-.29-.1-.2z" fill="#0d465b"/><path class="cls-1" d="M189.43 141.51a2.33 2.33 0 0 0-.72.45c-.14.13.07.33.21.2a1.87 1.87 0 0 1 .6-.37c.15-.07.08-.35-.09-.28z" fill="#0d465b"/><path class="cls-1" d="M189.66 142.43a2.68 2.68 0 0 1 .05.62.16.16 0 0 0 .31 0 2.15 2.15 0 0 0-.11-.7.13.13 0 0 0-.25.08z" fill="#0d465b"/><path class="cls-1" d="M190.32 142.84a2.93 2.93 0 0 1 .07.62.14.14 0 0 0 .29 0 2 2 0 0 0-.1-.7.13.13 0 0 0-.26.08z" fill="#0d465b"/><path class="cls-1" d="M191.06 143.42a1.82 1.82 0 0 1 .08.46.13.13 0 0 0 .27 0 1.14 1.14 0 0 0-.08-.53c-.06-.17-.33-.1-.27.07z" fill="#0d465b"/><path class="cls-1" d="M192.19 143.76c.13.22.06.18.19.33a.06.06 0 0 0 .1-.06 1.77 1.77 0 0 0-.15-.35.08.08 0 0 0-.14.08z" fill="#0d465b"/><path class="cls-1" d="M193.36 143.67l.15.46a.08.08 0 1 0 .16 0 1.74 1.74 0 0 0-.18-.51c-.05-.11-.17-.03-.13.05z" fill="#0d465b"/><path class="cls-1" d="M194.41 143.17c-.07-.1-.23 0-.16.09a2.22 2.22 0 0 0 .43.43c.08.07.21 0 .12-.12a3 3 0 0 1-.39-.4z" fill="#0d465b"/><path class="cls-1" d="M196 142.89c-.08-.08-.32-.28-.36-.33s-.39 0-.27.16a.76.76 0 0 0 .52.36.12.12 0 0 0 .11-.19z" fill="#0d465b"/><path class="cls-1" d="M196.05 141.61c-.17-.08-.32.17-.15.26s.63.29.94.42c.15.06.25-.18.11-.26-.28-.17-.59-.28-.9-.42z" fill="#0d465b"/><path class="cls-1" d="M197.4 142.21c.17.14.46 0 .32-.25a3.91 3.91 0 0 0-2.28-1.36.15.15 0 0 0-.08.28 6.8 6.8 0 0 1 2.04 1.33z" fill="#0d465b"/><path class="cls-1" d="M196.32 140.27a3.68 3.68 0 0 1 1.22.8c.15.11.31-.1.24-.24-.51-1-1.89-1-2.81-.82-.09 0-.07.18 0 .17a3.67 3.67 0 0 1 1.35.09z" fill="#0d465b"/><path class="cls-1" d="M195.16 139.13a2.6 2.6 0 0 1 1.43.19c.4.18.67.53 1.05.74a.16.16 0 0 0 .22-.22 2.42 2.42 0 0 0-2.72-.94c-.14.04-.14.24.02.23z" fill="#0d465b"/><path class="cls-1" d="M140.65 66.54c-.05-.14-.28-.08-.23.07 1.26 3.58 2.17 7.39 4.3 10.59.08.13.29 0 .21-.12-1.93-3.29-2.99-6.96-4.28-10.54z" fill="#0d465b"/><path class="cls-1" d="M225.42 152.31c-.08-.08-.21 0-.13.13a37 37 0 0 1 4.92 6.92.11.11 0 0 0 .19-.11 36.63 36.63 0 0 0-4.98-6.94z" fill="#0d465b"/><path class="cls-1" d="M229.42 149.35c-.07-.14-.28 0-.21.13 1.15 2.24 2.62 4.31 4 6.42a.1.1 0 0 0 .17-.1c-1.28-2.19-2.8-4.21-3.96-6.45z" fill="#0d465b"/><path class="cls-1" d="M239.29 203.41c4.17-6.24 2.62-14.41 1.48-21.36 0-.11-.18-.06-.16 0 1 6.88 2.42 15-1.49 21.21-.06.16.11.25.17.15z" fill="#0d465b"/><path class="cls-1" d="M240.6 206.24l-1 1a.14.14 0 0 0 .2.2l1-1c.12-.13-.08-.32-.2-.2z" fill="#0d465b"/><path class="cls-1" d="M243.1 224.09c-3 3-5.53 6.45-9.34 8.47 3.84-2 6.48-5.33 9.47-8.36a.1.1 0 0 0-.13-.11z" fill="#0d465b"/><path class="cls-1" d="M242.05 228.54c-.92 1.37-2 2.61-2.9 4 0 .07.06.14.12.07 1-1.34 2.1-2.55 3-3.92.15-.16-.11-.31-.22-.15z" fill="#0d465b"/><path class="cls-1" d="M164.71 339.45c-2.62-4.09-4.08-8.73-6-13.19 0-.07-.15 0-.12.05 1.87 4.47 3.31 9.12 5.93 13.23.09.1.25.01.19-.09z" fill="#0d465b"/><path class="cls-1" d="M173.31 343.35c-3.39-4.29-5.34-9.37-7.25-14.45-.05-.14-.28-.08-.22.06 1.91 5.11 3.8 10.3 7.27 14.59.11.15.32-.05.2-.2z" fill="#0d465b"/><path class="cls-1" d="M188.6 347.38c3.52.07 5.46.68 6.24 4.69a.16.16 0 0 0 .16.12 8 8 0 0 0 3.34-.67c.18-.08.11-.38-.08-.3-3.43 1.36-3.89-4.27-7.7-4.3-3.57 0-5.13-1.11-7.53-3.87-3.06-3.53-5.14-8-7.07-12.2-.06-.13-.25 0-.19.11a51.37 51.37 0 0 0 10.36 15.75 3.54 3.54 0 0 0 2.47.67z" fill="#0d465b"/><path class="cls-1" d="M211.58 351.94l-1.32-1.32a.13.13 0 0 0-.19.19l1.32 1.32c.13.12.31-.07.19-.19z" fill="#0d465b"/><path class="cls-1" d="M29.42 301.77a.14.14 0 0 0-.23.06C27.1 308 24.09 313 16.95 312.67c-4.93-.25-9.77-1.78-14.69-2.29-.09 0-.09.13 0 .14 6.12.69 13.3 3.77 19.43 2a9.4 9.4 0 0 0 4.6-3.67c1.64-2.17 2.23-6.15 4.34-5.93a9.09 9.09 0 0 1-1.21-1.15z" fill="#0d465b"/><path class="cls-1" d="M32.07 303.55a3 3 0 0 0-1.44-.66 3 3 0 0 0 1.44.66z" fill="#0d465b"/><path class="cls-1" d="M35.83 298.52c-1.14 2.34-1.93 5.22-3.76 5a9.37 9.37 0 0 1 1.14 1 .1.1 0 0 0 .17 0 51.26 51.26 0 0 1 2.62-5.89c.08-.13-.11-.23-.17-.11z" fill="#0d465b"/><path class="cls-1" d="M39.89 298.44c-.73 0-1.27.59-2 .64-.2 0-.2.33 0 .31.72 0 1.27-.62 2-.68.16-.02.17-.27 0-.27z" fill="#0d465b"/><path class="cls-1" d="M15.17 292.26a8.43 8.43 0 0 0 2.44-2.44c.4-.6 1-2.34 2.1-1.89 1 .38 2 .55 3 .93a.2.2 0 0 0 .24-.13 23.66 23.66 0 0 0 1.3-6c0-.21-.31-.21-.33 0a19.61 19.61 0 0 1-.95 4.7c-.46 1.48-3.38 0-4.12-.26a.19.19 0 0 0-.21.09c-2.13 4.58-6 6.94-11 5.94-.12 0-.17.16 0 .18a9.69 9.69 0 0 0 7.53-1.12z" fill="#0d465b"/><path class="cls-1" d="M25.48 286.69a2.52 2.52 0 0 1 .63-1.9c.1-.1-.06-.26-.16-.16a2.75 2.75 0 0 0-.69 2.06.11.11 0 0 0 .22 0z" fill="#0d465b"/><path class="cls-1" d="M31.38 275.4a34.12 34.12 0 0 0-6-4.64c-.11-.07-.21.11-.11.18a48.18 48.18 0 0 1 5.92 4.6.1.1 0 0 0 .19-.14z" fill="#0d465b"/><path class="cls-1" d="M53.15 308.87c4.62-4.35 10.58-5.75 16.77-5.89a.11.11 0 0 0 0-.22c-6.23.06-12.29 1.61-16.89 6-.09.06.04.18.12.11z" fill="#0d465b"/><path class="cls-1" d="M35.19 329.46a15.08 15.08 0 0 1-4.4 2.43c-2.26.68-4-.78-5.36-2.36-.07-.08-.21 0-.14.11 2.9 4.05 6.61 2.68 10.06.09.15-.12 0-.39-.16-.27z" fill="#0d465b"/><path class="cls-1" d="M45.12 325.49a17.55 17.55 0 0 0-7 4c-.14.13.07.34.21.21a17.64 17.64 0 0 1 6.87-3.92c.19-.06.11-.36-.08-.29z" fill="#0d465b"/><path class="cls-1" d="M68.93 327.56a.06.06 0 0 0 0 .11h7.92a.06.06 0 0 0 0-.12z" fill="#0d465b"/><path class="cls-1" d="M170.31 367.7c-2.27-.31-5.33-.23-7.26 1.25-1.45 1.13-3.62-1.8-5-2.7-2.15-1.39-4.89-1.88-7.34-2.44-6.73-1.53-12.3-4.26-17.07-9.31-4.55-4.8-8.65-8.91-14.69-11.86-11.11-5.43-24.23-3.78-36.14-5.18-.06 0-.06.09 0 .1 17 2.15 33.82.1 47 13.33 4.46 4.48 7.91 8.52 13.8 11.23 6.46 3 13.45 2.11 18.28 8.21a.22.22 0 0 0 .3 0c4.38-4.44 12-1.68 17 .21a68.38 68.38 0 0 1 14.45 7.73c.22.15.43-.21.21-.36-6.92-4.82-15.16-9.08-23.54-10.21z" fill="#0d465b"/><path class="cls-1" d="M201.62 379a.12.12 0 0 0-.06.24c7.39 2.14 15.12 3.85 21.72 8 .21.13.39-.19.19-.32-6.62-4.27-14.38-5.92-21.85-7.92z" fill="#0d465b"/><path class="cls-1" d="M230.33 389.89c-.12 0-.18.17-.05.19a33.54 33.54 0 0 1 12.83 5.92c.12.09.22-.11.12-.19a32.79 32.79 0 0 0-12.9-5.92z" fill="#0d465b"/><path class="cls-1" d="M241.22 373.13c-1.2-1.15-2.76-1.83-4-3 0 0-.1 0-.06.06 1.2 1.14 2.77 1.82 4 3 .04.02.09-.03.06-.06z" fill="#0d465b"/><path class="cls-1" d="M268.91 385.9a.13.13 0 0 0 0 .25c.21 0 .6-.06.78.09s.09.6.09.78a.12.12 0 0 0 .24 0 1.47 1.47 0 0 0-.16-1c-.19-.19-.69-.12-.95-.12z" fill="#0d465b"/><path class="cls-1" d="M193.64 383.95c-10.37 1.71-21.3.64-31.61-1-5.42-.85-10.73-1.47-14.79-5.47-2.54-2.51-4.71-3.87-8.35-3.76-2 .06-4 .48-6 .56-2.32.09-5.27-2.33-7.12-3.57-3.76-2.51-7.15-5.61-10.75-8.33-6.72-5.08-14-7.37-22.36-6.15-.1 0-.05.16 0 .14 11.44-1.6 19.34 4.08 27.88 10.78a71.06 71.06 0 0 0 10.65 7.08c3 1.56 7.63-.68 10.91 0 4 .88 6 5.54 9.9 6.94s8.6 1.93 12.77 2.46c9.49 1.21 19.39 2 28.89.45.17.04.11-.15-.02-.13z" fill="#0d465b"/><path class="cls-1" d="M270.23 262.52a.25.25 0 0 0 0-.5.25.25 0 0 0 0 .5z" fill="#0d465b"/><path class="cls-1" d="M276.69 266.23c.07 8.23 1.8 16.26 2.61 24.42 0 .21.35.22.33 0-.73-8.17-2.47-16.2-2.66-24.42a.14.14 0 0 0-.28 0z" fill="#0d465b"/><path class="cls-1" d="M285.54 202.13c-.07-.17-.32 0-.25.15a69.42 69.42 0 0 1 5.25 18.41c0 .19.33.2.31 0a65.57 65.57 0 0 0-5.31-18.56z" fill="#0d465b"/><path class="cls-1" d="M168.26 223.31c.18 0 .18-.3 0-.29-2.92.31-6.31.66-9.15-.24-2.09-.66-3.64-2.06-5.87-2.32-.08 0-.1.13 0 .14 2.39.4 4.3 2 6.58 2.73 2.5.8 5.89.3 8.44-.02z" fill="#0d465b"/><path class="cls-1" d="M169.5 223.57a2.58 2.58 0 0 1-.5-1.57.09.09 0 0 0-.17 0 2.46 2.46 0 0 0 .49 1.74c.12.13.28-.04.18-.17z" fill="#0d465b"/><path class="cls-1" d="M170.46 222.78a.5.5 0 0 1-.14-.29c0-.1-.18-.06-.16 0a.71.71 0 0 0 .19.37c.07.14.18 0 .11-.08z" fill="#0d465b"/><path class="cls-1" d="M173.58 222.82a.16.16 0 0 0-.08-.3 2.91 2.91 0 0 1-1.39-.18c-.22-.07-.31.27-.1.34a2.35 2.35 0 0 0 1.57.14z" fill="#0d465b"/><path class="cls-1" d="M175.94 222.77a2.82 2.82 0 0 1 2.21-1 .11.11 0 0 0 0-.22 2.28 2.28 0 0 0-2.35.89 1.29 1.29 0 0 1-.43-.78c0-.07-.11-.07-.11 0a1.74 1.74 0 0 0 .44 1.06.13.13 0 0 0 .24.05z" fill="#0d465b"/><path class="cls-1" d="M158 213.67a.13.13 0 0 0-.19.19c.38.38.75.79 1.16 1.15a.12.12 0 0 0 .17-.17 26 26 0 0 0-1.14-1.17z" fill="#0d465b"/><path class="cls-1" d="M159.43 213.41c0-.1-.17-.07-.17 0a1.21 1.21 0 0 0 .68.95c.15.09.29-.15.14-.24a1.08 1.08 0 0 1-.65-.71z" fill="#0d465b"/><path class="cls-1" d="M160.77 213.14c.31.51.61 1 1 1.51.09.13.29 0 .21-.12-.32-.5-.68-1-1-1.46-.13-.07-.26-.02-.21.07z" fill="#0d465b"/><path class="cls-1" d="M155.15 214.71c.33.14.69.2 1 .33.14.05.23-.18.1-.24-.33-.16-.68-.22-1-.36-.14-.06-.25.21-.1.27z" fill="#0d465b"/><path class="cls-1" d="M172.62 212.68l-.49.5a.13.13 0 0 0 .18.18l.5-.49a.13.13 0 0 0-.19-.19z" fill="#0d465b"/><path class="cls-1" d="M173.67 213.53c-.09 0 0 .18.07.13a3.17 3.17 0 0 0 .83-.68.07.07 0 0 0-.1-.1 3.85 3.85 0 0 1-.8.65z" fill="#0d465b"/><path class="cls-1" d="M175.73 214a.17.17 0 0 0 .24.24 3.64 3.64 0 0 1 1.12-.8c.18-.08 0-.36-.13-.31a3.1 3.1 0 0 0-1.23.87z" fill="#0d465b"/></g></g><metadata><rdf:RDF xmlns:rdf="http://www.w3.org/1999/02/22-rdf-syntax-ns#" xmlns:rdfs="http://www.w3.org/2000/01/rdf-schema#" xmlns:dc="http://purl.org/dc/elements/1.1/"><rdf:Description about="https://iconscout.com/legal#licenses" dc:title="brienne,of,tarth,warrior,house" dc:description="brienne,of,tarth,warrior,house" dc:publisher="Iconscout" dc:date="2018-03-26" dc:format="image/svg+xml" dc:language="en"><dc:creator><rdf:Bag><rdf:li>Roundicons.com</rdf:li></rdf:Bag></dc:creator></rdf:Description></rdf:RDF></metadata></svg>