<?xml version="1.0" encoding="UTF-8"?><svg xmlns="http://www.w3.org/2000/svg" viewBox="0 0 149.65 133.2"><defs><style>.cls-1{fill:#7c1531;}</style></defs><title>Asset 27</title><g id="Layer_2" data-name="Layer 2"><g id="Layer_2-2" data-name="Layer 2"><path class="cls-1" d="M69.85 113.78a.59.59 0 0 0-.15.24c0 .12.15.2.2.09l.1-.11c.13-.16 0-.33-.15-.22z" fill="#7c1531"/><path class="cls-1" d="M70.44 113.32a.08.08 0 0 0 0-.16.08.08 0 0 0 0 .16z" fill="#7c1531"/><path class="cls-1" d="M70.75 112.56a.06.06 0 0 0 0 .11.06.06 0 0 0 0-.11z" fill="#7c1531"/><path class="cls-1" d="M71.21 112.31c.21.06.21-.32 0-.25h-.06a.12.12 0 0 0 0 .22z" fill="#7c1531"/><path class="cls-1" d="M67.06 110.21v-.22c.06-.13-.12-.25-.2-.12a.4.4 0 0 0 0 .4c.01.15.25.1.2-.06z" fill="#7c1531"/><path class="cls-1" d="M67.72 110.15a2.16 2.16 0 0 1-.05-.29.11.11 0 0 0-.21 0c0 .18 0 .26.1.38a.1.1 0 0 0 .16-.09z" fill="#7c1531"/><path class="cls-1" d="M68.13 110.07a.14.14 0 0 0 0-.28.14.14 0 0 0 0 .28z" fill="#7c1531"/><path class="cls-1" d="M68.86 109.85h.06a.16.16 0 0 0 0-.3h-.06c-.28-.12-.28.38 0 .3z" fill="#7c1531"/><path class="cls-1" d="M69.69 109.57a.14.14 0 0 0 0-.28.14.14 0 0 0 0 .28z" fill="#7c1531"/><path class="cls-1" d="M70.25 109.34a.16.16 0 0 0 0-.32.16.16 0 0 0 0 .32z" fill="#7c1531"/><path class="cls-1" d="M69.17 114.48a.33.33 0 0 0 0 .08h-.06c-.09 0-.05.16 0 .14h.07a.28.28 0 0 0 .5-.22.28.28 0 0 0-.51 0z" fill="#7c1531"/><path class="cls-1" d="M71.65 77.81c0 .29.08.57.12.86-.06-1.61-.07-3.21-.09-4.84a20.27 20.27 0 0 0-.03 3.98z" fill="#7c1531"/><path class="cls-1" d="M72.79 85.33c-.28-2.23-.7-4.44-1-6.67a49.5 49.5 0 0 0 .42 4.94c.49 3.52.69 6-.46 9.41a3.76 3.76 0 0 0 0 2.58c0 .17.27.09.25-.07-.49-3.34 1.24-6.63.79-10.19z" fill="#7c1531"/><path class="cls-1" d="M71.75 70.64c0-.08-.13-.08-.12 0 0 1.08 0 2.13.05 3.18a22.12 22.12 0 0 0 .07-3.18z" fill="#7c1531"/><path class="cls-1" d="M71.82 95.88c-.11.33-.24.66-.36 1 0 .06.07.1.11 0a3 3 0 0 0 .32-1h-.07z" fill="#7c1531"/><path class="cls-1" d="M71.42 97.39v.08-.08z" fill="#7c1531"/><path class="cls-1" d="M70.65 65.22c-.24 3-1.77 5.65-2 8.67-.15 1.62.75 3 .24 4.68-.14.46-.48 1.1.06 1.51-.06 0-.45 7.5-.44 7.81a.06.06 0 0 0 .11 0c0-2.61.72-4.61 1.21-7.06.19-.94-.45-2.26.34-3.52.41-.65-.08-1.55-.49-2-1.82-2 1-7.57 1.09-10.09-.04-.05-.12-.05-.12 0z" fill="#7c1531"/><path class="cls-1" d="M68.33 88.22a2.2 2.2 0 0 0 .16.86.11.11 0 0 0 .21-.06 6.89 6.89 0 0 1-.17-.8.1.1 0 0 0-.2 0z" fill="#7c1531"/><path class="cls-1" d="M70.9 117.61a1.69 1.69 0 0 0-.69.7c0 .07.06.15.11.09a4.13 4.13 0 0 1 .66-.65c.08-.06.02-.19-.08-.14z" fill="#7c1531"/><path class="cls-1" d="M71.23 28.94a.09.09 0 0 0 0-.19.09.09 0 0 0 0 .19z" fill="#7c1531"/><path class="cls-1" d="M71.11 29.55a.12.12 0 0 0 0-.23.12.12 0 0 0 0 .23z" fill="#7c1531"/><path class="cls-1" d="M70.9 30.08a.11.11 0 0 0 0-.21.11.11 0 0 0 0 .21z" fill="#7c1531"/><path class="cls-1" d="M71.28 16.53a.74.74 0 0 0 0-.31c0-.07-.11-.07-.11 0v.28a.05.05 0 0 0 .11.03z" fill="#7c1531"/><path class="cls-1" d="M30.43 43.23s-.01.01 0 0z" fill="#7c1531"/><path class="cls-1" d="M38 49.21a9.82 9.82 0 0 1-4.13-2.74s-.05 0 0 0a8.79 8.79 0 0 0 4.12 2.89c.01.08.09-.1.01-.15z" fill="#7c1531"/><path class="cls-1" d="M47.5 48.29c-1.28-.09-3.43 1.38-4.49.32a.1.1 0 0 0-.12 0l-1.62.06s-.07 0 0 .05a1.85 1.85 0 0 0 1.41.2c.42-.08.63.2 1 .24a15.11 15.11 0 0 0 3.86-.59c.16-.03.11-.27-.04-.28z" fill="#7c1531"/><path class="cls-1" d="M48.16 48c-.06 0 0 .12.05.09a8.35 8.35 0 0 1 1.55-.81v-.09a7.4 7.4 0 0 0-1.6.81z" fill="#7c1531"/><path class="cls-1" d="M56.94 62.18a.37.37 0 0 0 0-.74.37.37 0 0 0 0 .74z" fill="#7c1531"/><path class="cls-1" d="M67.6 46a4.77 4.77 0 0 1-2.51-1.89c-1.23-1.45-3.36-1.74-4.41-3.44a.07.07 0 0 0-.12.07c.77 1.34 2.22 2 3.46 2.85.9.6 1.33 1.54 2.15 2.19.6.48 1.58.18 2.06.85.07.09.22 0 .16-.09a1.11 1.11 0 0 0-.79-.54z" fill="#7c1531"/><path class="cls-1" d="M69.94 48.69a1.23 1.23 0 0 1-1.3-1.16c0-.09-.15-.07-.15 0a1.37 1.37 0 0 0 1.45 1.36c.14.04.15-.2 0-.2z" fill="#7c1531"/><path class="cls-1" d="M71.74 116.7a2.17 2.17 0 0 1-.64.75c-.06 0 0 .13.05.09a1.51 1.51 0 0 0 .74-.77c.03-.09-.1-.14-.15-.07z" fill="#7c1531"/><path class="cls-1" d="M73.93 123.66a7.84 7.84 0 0 1 .39 1c0 .06.12.05.12 0a2.07 2.07 0 0 0-.37-1 .08.08 0 0 0-.14 0z" fill="#7c1531"/><path class="cls-1" d="M60.79 40.54l-.07-.16h-.06c.01 0 0 .1.09.18s.06 0 .04-.02z" fill="#7c1531"/><path class="cls-1" d="M60.27 40.32a.15.15 0 0 0 0 .3.15.15 0 0 0 0-.3z" fill="#7c1531"/><path class="cls-1" d="M53 29.16c.12.06.26-.1.15-.19-.55-.45.08-3.08-.94-2.91-.52.08-.58-1.74-.82-2.27a19.3 19.3 0 0 0-2.53-3.34c0-.06-.13 0-.1.06 1.23 2 3.27 3.16 2.8 5.78 0 .06 0 .13.1.1 1.57-.56.26 2.25 1.34 2.77z" fill="#7c1531"/><path class="cls-1" d="M53 29.64a34.32 34.32 0 0 1-.05 6.58c0 .09.15.12.17 0a18.82 18.82 0 0 0-.05-6.62s-.07 0-.07.04z" fill="#7c1531"/><path class="cls-1" d="M52.92 37.22c0 1.23-.2 2.44-.29 3.67 0 .07.11.08.12 0a20 20 0 0 0 .25-3.67h-.08z" fill="#7c1531"/><path class="cls-1" d="M56.14 64.38c.25.82.19 2 .86 2.61a.9.9 0 0 0 .75.16c.54-.11.4.39.38.77a6.94 6.94 0 0 0 .05 1.36.13.13 0 0 0 .12.09c.26 0 .22 0 .44-.09s0-.28-.09-.23c-.35.14-.37-1.95-.38-2.13a.08.08 0 0 0-.1-.08c-1.63.37-1.54-1.4-1.93-2.5-.03-.04-.12-.02-.1.04z" fill="#7c1531"/><path class="cls-1" d="M59.1 69.22a.1.1 0 1 0 0-.2H59a.09.09 0 0 0 0 .18z" fill="#7c1531"/><path class="cls-1" d="M74.61 113.78a27.37 27.37 0 0 1-2.2-11.1.1.1 0 0 0-.19 0c0 3.62.38 8 2.3 11.15.03.07.12.01.09-.05z" fill="#7c1531"/><path class="cls-1" d="M74.72 115.16c-.1-.17-.13-.35-.24-.51s-.12 0-.08 0 .14.35.27.5.07.05.05.01z" fill="#7c1531"/><path class="cls-1" d="M80.55 114.61h-.06a.36.36 0 0 0 0-.08.28.28 0 0 0-.54 0 .28.28 0 0 0 .5.22h.07c.08.02.12-.12.03-.14z" fill="#7c1531"/><path class="cls-1" d="M79.95 114a.59.59 0 0 0-.15-.24c-.1-.11-.27.06-.17.17l.11.16c.06.14.26.05.21-.09z" fill="#7c1531"/><path class="cls-1" d="M79.21 113.32a.08.08 0 0 0 0-.16.08.08 0 0 0 0 .16z" fill="#7c1531"/><path class="cls-1" d="M78.9 112.56a.06.06 0 0 0 0 .11.06.06 0 0 0 0-.11z" fill="#7c1531"/><path class="cls-1" d="M78.44 112.05c-.21-.06-.21.32 0 .25h.06a.12.12 0 0 0 0-.22z" fill="#7c1531"/><path class="cls-1" d="M82.84 110.28a.39.39 0 0 0 0-.4c-.08-.13-.26 0-.2.12v.22c-.09.15.14.2.2.06z" fill="#7c1531"/><path class="cls-1" d="M82 109.87a2.34 2.34 0 0 1-.06.29.1.1 0 0 0 .17.1c.12-.12.11-.21.1-.38a.11.11 0 0 0-.21-.01z" fill="#7c1531"/><path class="cls-1" d="M81.53 109.79a.14.14 0 0 0 0 .28.14.14 0 0 0 0-.28z" fill="#7c1531"/><path class="cls-1" d="M80.79 109.51h-.06a.16.16 0 0 0 0 .3h.06c.28.12.28-.38 0-.3z" fill="#7c1531"/><path class="cls-1" d="M80 109.29a.14.14 0 0 0 0 .28.14.14 0 0 0 0-.28z" fill="#7c1531"/><path class="cls-1" d="M79.4 109a.16.16 0 0 0 0 .32.16.16 0 0 0 0-.32z" fill="#7c1531"/><path class="cls-1" d="M77.92 95.59a3.76 3.76 0 0 0 0-2.58c-1.14-3.42-.95-5.89-.46-9.41.23-1.68.35-3.31.42-4.93-.32 2.22-.74 4.43-1 6.66-.45 3.57 1.28 6.85.81 10.19-.04.16.2.24.23.07z" fill="#7c1531"/><path class="cls-1" d="M77.9 70.64a22.11 22.11 0 0 0 .1 3.17c0-1 0-2.1.05-3.17-.05-.08-.14-.08-.15 0z" fill="#7c1531"/><path class="cls-1" d="M78 73.81c0 1.63 0 3.24-.09 4.85 0-.29.09-.57.12-.86a20.33 20.33 0 0 0-.03-3.99z" fill="#7c1531"/><path class="cls-1" d="M77.76 95.9a3 3 0 0 0 .32 1c0 .06.13 0 .11 0-.12-.33-.24-.66-.36-1h-.07z" fill="#7c1531"/><path class="cls-1" d="M78.2 97.39v.08-.08z" fill="#7c1531"/><path class="cls-1" d="M149.43 17.8a2.35 2.35 0 0 0-.75-2.87 1.77 1.77 0 0 0-.36-.64 3.55 3.55 0 0 0-.51-.36C144.41 8.21 139 4.11 132.06 4a47 47 0 0 0-12.85 1.66c-1.79.47-4.94.83-6.21 2.54h-.05a5.75 5.75 0 0 0-1.38 2.15c-.07.16.14.29.23.14l.07-.1a2.57 2.57 0 0 0 .45-.27.21.21 0 0 0 .2 0 6.07 6.07 0 0 1 2.86-.76c.52-.09 1-.32 1.48-.43a9.06 9.06 0 0 1 2.07.07 37.43 37.43 0 0 1 7.48 2.6 10.26 10.26 0 0 0 5.43.84 3.33 3.33 0 0 0 3.15-2.68 2.2 2.2 0 0 0 2.1-.76c1.28-1.45 2.74-.68 4.26-.15a12.11 12.11 0 0 1 3.9 4.49c1.54 3.21 3 9.28-.41 12-4.82 3.85-12.77.62-17.5-3-7.6-6.41-16.37-12.06-25.91-5.36-5.43 3.76-6.94 10.84-6.78 17.69-1.28.67-2.73.95-4.06 1.51a11.51 11.51 0 0 0-3.93 3l-.13.12a3.19 3.19 0 0 0 .23-1.4 4.9 4.9 0 0 0 .24-1.12c.05-1.37-.13-2.75-.08-4.12a23.29 23.29 0 0 1 .77-4.4L88 28a.91.91 0 0 0 .28.09.94.94 0 0 0 .35.09c.31.1.67 0 1.09-.78 1.4-2.59.34-5.53 1-8.38s2.68-7.19 5.93-8.43l.45-.09a8.2 8.2 0 0 0 1.36 0c.46-.07.65-.16.93.19a.51.51 0 0 0 .28.19c.41.07 1.08-.59 1.16-.2.32 1.47 1.23.86 1.53-.28h-.08c0 .08-.83 1.74-1.12.64 0-.13-.07-.27-.1-.41a1 1 0 0 0-.2-.51c-.18-.18-.4 0-.54.11-.51.48-.77-.33-1.32-.28L98 10c-3.26-.3-6 1.48-7.77 4.39a14.84 14.84 0 0 0-2.46 6.26c-.18 2.21.33 3.13-2 4.51C82.85 26.87 83.63 33.43 83 36a9.07 9.07 0 0 1-1.12 2.63A18.19 18.19 0 0 0 82 33c-.35-3.83-1.15-6.62-.35-10.52.73-3.58-2.3-8.54-2.5-12.63a9.79 9.79 0 0 1 .57-2.54c.63-1.61 1-1.34 1.72-2.38 0 0 0-.09.07-.14a1.1 1.1 0 0 0 .2-.38c.54-1.32.14-3 1-4.29.05-.08-.07-.18-.13-.1a3.59 3.59 0 0 0-.47.71 10.85 10.85 0 0 0-1.5 2.16c-.41.69-.88 1.38-1.29 2.07a4.64 4.64 0 0 0-.69 1.16 7.67 7.67 0 0 0-1.31 2.95 13.91 13.91 0 0 0-.28 6.2c.56 2.14 1.31 3.76.82 5.92l-.25.25a.25.25 0 0 0 .06.4c-.08.23-.15.46-.26.71A4.6 4.6 0 0 0 77 24.2c-.11 2.88.83 5.46 1.2 8.29A12.52 12.52 0 0 1 78 37a2.59 2.59 0 0 1-.61.83c-.78.67-1.43 1.13-1.61 2.18a.25.25 0 0 0 0 .12v.05a14.89 14.89 0 0 0-.2 2.18 5.37 5.37 0 0 1-.47.86c-.08.12-.18.23-.27.35-.09-.12-.18-.23-.27-.35a5.39 5.39 0 0 1-.47-.86 14.94 14.94 0 0 0-.2-2.18v-.05a.24.24 0 0 0 0-.11c-.18-1-.84-1.51-1.61-2.18a2.59 2.59 0 0 1-.61-.83 12.52 12.52 0 0 1-.18-4.52c.37-2.83 1.31-5.41 1.2-8.29a4.56 4.56 0 0 0-.41-1.65c-.11-.25-.18-.47-.26-.7a.25.25 0 0 0 .06-.4l-.25-.26c-.5-2.16.26-3.78.82-5.92a13.94 13.94 0 0 0-.28-6.2 7.69 7.69 0 0 0-1.31-2.95A4.66 4.66 0 0 0 70.38 5c-.41-.7-.88-1.38-1.28-2.07a10.93 10.93 0 0 0-1.5-2.2 3.59 3.59 0 0 0-.48-.73c-.06-.07-.18 0-.13.1.82 1.33.43 3 1 4.29a1.1 1.1 0 0 0 .2.38s0 .09.07.14c.71 1 1.09.77 1.72 2.38a9.82 9.82 0 0 1 .57 2.54c-.21 4.08-3.24 9-2.5 12.62.8 3.9 0 6.69-.35 10.52a18.15 18.15 0 0 0 .14 5.66A9.09 9.09 0 0 1 66.67 36c-.65-2.6.13-9.17-2.78-10.87-2.34-1.37-1.84-2.3-2-4.51a14.84 14.84 0 0 0-2.46-6.26c-1.77-2.91-4.51-4.69-7.77-4.39l-1-.07c-.54 0-.81.76-1.32.28-.14-.13-.36-.29-.54-.11a1 1 0 0 0-.2.51c0 .14-.06.27-.1.41-.29 1.11-1.08-.56-1.12-.64h-.08c.3 1.13 1.22 1.75 1.53.28.08-.39.75.27 1.16.2a.51.51 0 0 0 .27-.19c.28-.35.48-.26.93-.19a8.19 8.19 0 0 0 1.36 0l.46.09c3.25 1.24 5.21 5.49 5.93 8.43s-.37 5.79 1 8.38c.42.78.78.88 1.09.78a.94.94 0 0 0 .35-.09.89.89 0 0 0 .28-.1l.31.26a23.25 23.25 0 0 1 .77 4.39c.05 1.37-.13 2.75-.08 4.13a4.88 4.88 0 0 0 .19 1.11 3.2 3.2 0 0 0 .23 1.4l-.08-.07a11.52 11.52 0 0 0-3.93-3c-1.33-.57-2.78-.84-4.06-1.51.16-6.86-1.35-13.94-6.77-17.73-9.55-6.69-18.32-1-25.91 5.36-4.73 3.59-12.68 6.84-17.5 3-3.37-2.7-2-8.76-.41-12A12.09 12.09 0 0 1 8.3 8.83c1.52-.54 3-1.3 4.26.15a2.21 2.21 0 0 0 2.16.77 3.33 3.33 0 0 0 3.15 2.68 10.26 10.26 0 0 0 5.43-.84A37.45 37.45 0 0 1 30.78 9a9.09 9.09 0 0 1 2.07-.07c.51.11 1 .34 1.48.43a6.06 6.06 0 0 1 2.86.76.21.21 0 0 0 .2 0 2.66 2.66 0 0 0 .45.27l.07.11c.09.15.3 0 .23-.14a5.72 5.72 0 0 0-1.38-2.15h-.05c-1.27-1.71-4.42-2.07-6.21-2.54A47 47 0 0 0 17.59 4C10.7 4.16 5.24 8.26 1.84 14a3.56 3.56 0 0 0-.51.36 1.77 1.77 0 0 0-.36.64 2.35 2.35 0 0 0-.75 2.8c.28.69-.54 2.21-.06 2.82.89 1.11.49 2.54 1 3.78a.08.08 0 0 0 0 .07 4.59 4.59 0 0 0 .67 1.23 3.15 3.15 0 0 0 .28.24c.19.62 0 .95 1 1.56 1.68 1 2.82 2.29 4.78 2.64a8.8 8.8 0 0 0 1.87.12c8.34.13 14.75-6.55 21.16-11.24 4.5-2.33 9.16-3.18 14.38.9 4 3.16 5.65 8.57 5.85 14.11-3.12-1-4.77-3-6.34-5.79-1.2-2.18-3.15-3.81-4.35-6a.13.13 0 0 0-.1-.07l-.09-.17c-.21-.73-.46-1.46-.65-2.2a.23.23 0 0 0-.34-.14c-.44.22-.17-.93-.52-1.15a.47.47 0 0 0-.47 0 1.76 1.76 0 0 0-.37.21c-.71.46-1-.33-1.08-.86a.07.07 0 0 0-.14 0 1.17 1.17 0 0 0 .48 1.14c.3.2 1.5-.55 1.54-.09s-.23 1.44.51 1.23a.08.08 0 0 0-.13.08c1.08 2.3 1.2 5 2.32 7.19a11.31 11.31 0 0 0 1 2.39c1.56 3.73 3.83 7.06 7.89 8.07a3 3 0 0 1 .65.85 37.76 37.76 0 0 1-1.43 7.32c-.4.15-.8.3-1.21.42a22.63 22.63 0 0 1-11.07.64A21.48 21.48 0 0 1 34.1 46l-.48-.31-.19-.09a9.88 9.88 0 0 1-1-.73 5.22 5.22 0 0 0-1.26-1.6c.32-.37.74-.91.4-1.23a.83.83 0 0 0-.69-.32c-.05 0-.85.29-.31-.26a4.76 4.76 0 0 1 .76-.63c.35-.24.78-.68.37-1.09a.54.54 0 0 0-.39-.14 2 2 0 0 0-.59.17c-1.24.55-.23-1.76-.21-1.81a.07.07 0 0 0-.12-.07c-.29.39-1.08 1.53-.62 2.06.16.18.23.31.49.31a1.76 1.76 0 0 0 .58-.18l.28.4a2.68 2.68 0 0 0-.41.26c-.26.18-1.35.91-1 1.39.11.15.19.34.4.35a1.15 1.15 0 0 0 .58-.08c.47-.14-.16.72-.25.83a.3.3 0 0 0 .18.43 1.46 1.46 0 0 1 .51.28 18.71 18.71 0 0 0 2.33 3.23c2.15 3.24 6.26 4.16 10 4.17a24.76 24.76 0 0 0 4.54-.46c-.08.46-.11.93-.21 1.38a10.1 10.1 0 0 1-.37 1.18c-1.35 3-3.33 5.62-4.55 8.66a43.57 43.57 0 0 0-2.44 11.74v.08c-1.32 7.74-.77 15.46 7.08 19.78 8.05 4.43 15.52-3.48 15.63-11.39A.3.3 0 0 0 63 82a17.37 17.37 0 0 0-.6-6.31A56.73 56.73 0 0 0 60.5 70a10.08 10.08 0 0 0-.79-3.69 20.63 20.63 0 0 1-1.82-5.88 13.26 13.26 0 0 1 .67-3.87 5.74 5.74 0 0 1 .43-1 6.6 6.6 0 0 1 5.52-2.05 17.31 17.31 0 0 1 4.57 1.31 1 1 0 0 0 .18.17 2.41 2.41 0 0 0 1 .4c.81.14 1 1.41 1 2a2.87 2.87 0 0 1-.44 1.61 1.17 1.17 0 0 1-1.09.08 5.19 5.19 0 0 0-3-1.29 6.5 6.5 0 0 0-2.75.42 7.09 7.09 0 0 0-3.63 1.9c-.72.73-2 2.23-1.43 3.37a1 1 0 0 0 1.82-.19c.17-.43-.11-.84-.47-.65a.81.81 0 0 1 .15-.92 2.64 2.64 0 0 1 .58-.32 8.75 8.75 0 0 1 1-.42 6.62 6.62 0 0 1 5 1.59c2.13 3.84-.81 12.08-.79 16.17 0 5.15 1.87 10.42 1.73 15.53a7.39 7.39 0 0 0-.3.72h-.05a2 2 0 0 0-.68 1q-.11.39-.18.79c-.09.45-.92 1.92-1.57.79-.12-.21-.5-.13-.48.13-.44.73 0 1.49.62 2a2.6 2.6 0 0 0 2.7 1.27c1.16-.33 1 1.75 1 2.69a1.21 1.21 0 0 0-.2.26c-.61 1.13-1.07 2.09-2.47 2.26s-2.71 0-3.72 1.2a.13.13 0 0 0 0 .11 2 2 0 0 0-.18.2 8.7 8.7 0 0 0-.79.81l.07.07a1.91 1.91 0 0 1 2.15-.42l.16.06a2.92 2.92 0 0 1 1.14 1.7c.08.67-.46 1.16-.81 1.68a2.49 2.49 0 0 0-.73.83c-.29.56-.05 1.25-.68 1.76a1.71 1.71 0 0 0-.52.21 2.18 2.18 0 0 0-.72 1.89c-.08.25-.1.53-.16.79v.05c-.3.31-.53.7-.84 1a.08.08 0 0 0 .09.12 5.18 5.18 0 0 0 .67-.47c1.71-.38 2.48 1 3.84 1.51a1.38 1.38 0 0 0 1.12 0 1.61 1.61 0 0 1-.48 1.56c-.81.76-1.69 1.3-1.73 2.52 0 .13.19.13.2 0a1.79 1.79 0 0 1 .67-1.13 1.43 1.43 0 0 1 .89-.07 2.76 2.76 0 0 0-.94.12c-.1 0-.06.17 0 .16 1.18-.17 1.9 1 3 1.08a1.58 1.58 0 0 0 1-.2c.72-.38 1.17-.16 1.91-.18a.39.39 0 0 0 .34-.23 3.36 3.36 0 0 1 .22.43c.23.59.28 1.19.88 1.54a.23.23 0 0 0 0 .12c1.12 2.67 2.17 5.06 2 8a.08.08 0 0 0 .17 0 11.63 11.63 0 0 0 .29-2.37l.14-.69a.17.17 0 0 0 0-.09v-.12c.13-.63.26-1.27.42-1.89a16.73 16.73 0 0 1 1.22-2.69 3.64 3.64 0 0 1 .47-.3c.66-.34.7-1 .94-1.58a6.34 6.34 0 0 1 .38-.69 1.64 1.64 0 0 0 1.24.29c.59-.17 1.3-.73 1.94-.72a1.14 1.14 0 0 0 .48.21c.88.08 1.6-.57 2.41-.21a1.78 1.78 0 0 1 .67 1.13c0 .13.21.13.21 0 0-1.22-.92-1.76-1.73-2.52a1.65 1.65 0 0 1-.48-1.63 2.05 2.05 0 0 0 1-.45 5.69 5.69 0 0 0 .44-.39c.81-.34 1.64-.6 2.48-.92a2.32 2.32 0 0 1 .88.26 4.54 4.54 0 0 0 .78.58.08.08 0 0 0 .09-.12c-.3-.3-.54-.69-.84-1v-.05c-.06-.26-.08-.54-.16-.79a2.18 2.18 0 0 0-.72-1.89 1.71 1.71 0 0 0-.52-.21c-.63-.51-.39-1.2-.68-1.76a2.49 2.49 0 0 0-.73-.83c-.34-.52-.89-1-.81-1.68a2.92 2.92 0 0 1 1.14-1.7l.17-.06a1.91 1.91 0 0 1 2.15.42l.07-.07a8.73 8.73 0 0 0-.8-.81 2 2 0 0 0-.18-.2.13.13 0 0 0 0-.11c-1-1.25-2.27-1-3.72-1.2s-1.86-1.13-2.47-2.26l-.05-.07c-.05-.2-.11-.41-.16-.61a5.3 5.3 0 0 1-.1-.7 2.18 2.18 0 0 1 .79-1.51c.47-.35 1.61.39 2-.15a2.27 2.27 0 0 0 1.34-1.1.16.16 0 0 0 0-.19 1.5 1.5 0 0 0 .46-1.82c0-.26-.36-.34-.47-.13-.64 1.14-1.47-.34-1.56-.79 0-.26-.11-.53-.18-.79a2 2 0 0 0-.68-1L82 95a7.27 7.27 0 0 0-.3-.71c-.14-5.11 1.71-10.38 1.73-15.53 0-4.08-2.92-12.32-.8-16.17a6.62 6.62 0 0 1 5-1.59 8.78 8.78 0 0 1 1 .42 2.66 2.66 0 0 1 .56.36.81.81 0 0 1 .15.92c-.37-.19-.64.22-.47.65a1 1 0 0 0 1.82.19c.6-1.14-.71-2.64-1.43-3.37a7.09 7.09 0 0 0-3.63-1.9 6.5 6.5 0 0 0-2.75-.42 5.19 5.19 0 0 0-3 1.29 1.17 1.17 0 0 1-1.04-.14 2.87 2.87 0 0 1-.49-1.55c0-.59.21-1.75.92-2 2.64-.12 5.09-2 7.65-2.63l.28.06a5.61 5.61 0 0 1 3.9 3.72 13.27 13.27 0 0 1 .66 3.87 20.63 20.63 0 0 1-1.82 5.88 10.09 10.09 0 0 0-.78 3.65 56.71 56.71 0 0 0-1.92 5.67 17.92 17.92 0 0 0-.68 5.2V81.1A14.38 14.38 0 0 0 87 84c.07.29.15.59.24.88 1 4.56 3.15 9.07 8.61 9.41 6.33.39 15.08-5.35 13.53-12.53a.27.27 0 0 0-.13-.18 35.63 35.63 0 0 0 0-7.79 43.65 43.65 0 0 0-2.44-11.74c-1.22-3-3.19-5.69-4.55-8.64a10.16 10.16 0 0 1-.38-1.2c-.11-.45-.14-.92-.21-1.38a24.78 24.78 0 0 0 4.61.49c3.73 0 7.84-.93 10-4.17a18.78 18.78 0 0 0 2.25-3.15 1.46 1.46 0 0 1 .5-.28.3.3 0 0 0 .18-.43c-.08-.11-.71-1-.25-.82a1.16 1.16 0 0 0 .58.08c.2 0 .29-.2.4-.35.35-.48-.74-1.21-1-1.39a2.85 2.85 0 0 0-.41-.26l.28-.4a1.76 1.76 0 0 0 .58.18c.26 0 .33-.13.49-.31.46-.52-.33-1.67-.62-2.06a.07.07 0 0 0-.12.07s1 2.35-.21 1.81a2 2 0 0 0-.59-.17.54.54 0 0 0-.39.14c-.41.41 0 .86.37 1.09a4.9 4.9 0 0 1 .76.63c.53.56-.27.26-.32.26a.83.83 0 0 0-.69.32c-.34.31.08.86.4 1.23a5.26 5.26 0 0 0-1.26 1.6 9.76 9.76 0 0 1-1 .73l-.2.09-.48.31a21.49 21.49 0 0 1-3.18 1.17 22.64 22.64 0 0 1-11.07-.64c-.41-.12-.81-.27-1.21-.42a37.82 37.82 0 0 1-1.43-7.32 3 3 0 0 1 .65-.86c4.06-1 6.32-4.34 7.89-8.07a11.36 11.36 0 0 0 1-2.39c1.13-2.24 1.24-4.9 2.33-7.19a.08.08 0 0 0-.13-.08v-.05c.74.21.45-.65.51-1.23s1.24.29 1.54.09a1.18 1.18 0 0 0 .48-1.21.07.07 0 0 0-.14 0c0 .53-.37 1.31-1.08.86a1.77 1.77 0 0 0-.37-.21.47.47 0 0 0-.47 0c-.35.22-.08 1.37-.52 1.15a.24.24 0 0 0-.34.14c-.19.74-.44 1.47-.65 2.21l-.07.17a.13.13 0 0 0-.1.07c-1.2 2.2-3.15 3.83-4.35 6-1.56 2.84-3.22 4.84-6.34 5.79.2-5.54 1.81-11 5.85-14.11 7.51-5.87 13.87-1.52 20.26 2.74 2.33 1.6 4.66 3.18 7.06 4.68a3.67 3.67 0 0 0 2.51 1.36 12.79 12.79 0 0 0 7.58 1.44c2-.36 3.1-1.62 4.78-2.64 1-.61.84-.94 1-1.56a3 3 0 0 0 .28-.24 4.58 4.58 0 0 0 .67-1.23.08.08 0 0 0 0-.07c.47-1.23.07-2.67 1-3.78.53-.64-.32-2.15-.04-2.84zM116.1 8.6h-.12.21zm9.33 1.73A26.9 26.9 0 0 0 114 7.85a.25.25 0 0 0-.17.07 13.27 13.27 0 0 1 4.88-1.67 35.23 35.23 0 0 1 8.36 0 10.51 10.51 0 0 0 4.93-.81.08.08 0 0 0 0-.15c-3 .79-6 .37-9 .3a40 40 0 0 1 9.07-.89 21.64 21.64 0 0 1 5.12.92 1.24 1.24 0 0 0-.76.39 2.78 2.78 0 0 0-1.13 1c-2.1 4.99-5.55 5.34-9.87 3.32zm11.8-2.39h.17zm-.43 0h.22l-.19.09zm-1.11-.44l.07-.16a5.68 5.68 0 0 1 1.24-.09 4.16 4.16 0 0 0-1.3.27zM136 7l.07-.12a2.47 2.47 0 0 1 2 0A5.35 5.35 0 0 0 136 7zm3.06.09a3.4 3.4 0 0 0-2.63-.66c.08-.09.17-.17.26-.25 1.12-.43 2.2.4 3.18 1.21a7.28 7.28 0 0 0-.87-.27zm.15.62h.06l.35.14zm-41 38.41q.68.28 1.37.53v.06c-.7.14-1.44.32-2-.24a3.35 3.35 0 0 1-.64-.93c.34.24.75.46 1.18.62zM94 43.39a6.48 6.48 0 0 0-3.76-.9c1.18-.9 2.36-1.79 3.61-2.59a3.12 3.12 0 0 1 1.31-.07c.21 1.52.48 3 .79 4.33-.73-.25-1.38-.51-2.04-.74zM82.92 42zm3-2.2l-.12.12zM79 44.3v-.12.12zm1.4-3.58zm1.4-39.39l.08-.13zm-7 43.89a1.5 1.5 0 0 1-.16-.22l.16-.08.2.08a1.51 1.51 0 0 1-.17.22zM67.89 1.35v-.11zm1.32 39.35zm1.43 3.58v-.15zM66.74 42zm-3-2.2l.08.14-.12-.12zm-8 3.58c-.66.23-1.31.49-1.95.77.3-1.36.58-2.8.79-4.33a3.11 3.11 0 0 1 1.3.07c1.25.81 2.44 1.7 3.62 2.59a6.48 6.48 0 0 0-3.76.94zm-5.58 3.26q.69-.25 1.37-.53c.43-.17.84-.37 1.25-.58a3.34 3.34 0 0 1-.64.93c-.58.55-1.32.38-2 .24zM12.29 7.88h.17zm.53.13l-.19-.09h.22zm-.15-.76a5.67 5.67 0 0 1 1.22.11l.07.16a4.15 4.15 0 0 0-1.29-.27zm-1.05-.35a2.47 2.47 0 0 1 2 0l.07.12a5.35 5.35 0 0 0-2.08-.11zM13 6.22c.09.08.18.16.26.25a3.4 3.4 0 0 0-2.63.66 7.36 7.36 0 0 0-.81.3c.99-.81 2.07-1.64 3.18-1.21zM10.43 7.7h.06l-.4.1zm23.12.9h-.09.21zm-6.89-3c-3 .07-6 .49-9-.3a.08.08 0 0 0 0 .15 10.51 10.51 0 0 0 4.87.83 35.23 35.23 0 0 1 8.35 0 13.29 13.29 0 0 1 4.89 1.67.25.25 0 0 0-.17-.07 26.9 26.9 0 0 0-11.38 2.48c-4.31 2-7.77 1.72-9.86-3.29a2.8 2.8 0 0 0-1.13-1 1.24 1.24 0 0 0-.76-.39 21.64 21.64 0 0 1 5.12-.92 40 40 0 0 1 9.07.83zm24.17 30.62H51a4 4 0 0 1-.78 1L50 37.1a5.18 5.18 0 0 0 .74-.77zm.29.56a3 3 0 0 1-.45.52h-.18a2.47 2.47 0 0 0 .64-.75c0 .04-.01.14-.01.23zm0 .47v.16h-.13a1.09 1.09 0 0 0 .11-.16zm.03-1.25H51l.14-.22c.01.04.01.12.01.22zm-9.21-10.85A45.93 45.93 0 0 1 45 30a9.65 9.65 0 0 0 6.11 4.84v.18c-.17.28-.29.61-.44.9a2.42 2.42 0 0 1-2-1.35.15.15 0 0 0-.2-.05c-1.28.55-1.39-1.14-1.91-1.81a.14.14 0 0 0-.17 0c-1.52 1-2.92-2.19-3.42-3.18 0-.08-.12-.05-.16 0-.47-1-.89-2-1.27-3a29.68 29.68 0 0 0-.72-2.9c.39.5.75 1.01 1.12 1.52zm2.11 6.61a7.5 7.5 0 0 0 .69.87c.76.81 1.79.16 2.12 1.25.24.77.51 1.37 1.4 1.11.4-.11.67.65 1 .81a3.9 3.9 0 0 0 1.27.38 3.89 3.89 0 0 1-.69.84 11.93 11.93 0 0 1-5.78-5.26zm1.82-12.59c-7.23-5.53-13.09-2.22-19 1.91a73.51 73.51 0 0 0-8.47 5.72l-.29.17a30.45 30.45 0 0 1-7.95 2.75A5.6 5.6 0 0 1 5 27.66a14.35 14.35 0 0 0-3.37-2.85c-.82-1.48-.7-4.05-.59-5.83a10.62 10.62 0 0 0 .21-1.82H1.2c-.07.25-.16.51-.24.78a2.68 2.68 0 0 0-.19-.32c-.68-1.28.33-2.11 1-2.78a5.48 5.48 0 0 0 1.38-1.92c0-.07-.08-.11-.12 0a5.11 5.11 0 0 1-.9 1 18.91 18.91 0 0 1 8.52-7.58 24.47 24.47 0 0 0-2.06 1.74 17.79 17.79 0 0 0-3.26 2.78c-3 3.12-3.57 7.78-2.95 11.85.62 4.29 5.47 5.29 8.96 5 4.57-.37 9.35-3.25 12.49-6.43 7.36-5.66 16.47-10 24.77-2.91 7 6 6.2 18.18 4.27 26.28l-1 .46h-.09v.08l-1.3.59c2.67-8.15 2.66-21.06-4.61-26.62zm-9.09 30.45A39.75 39.75 0 0 1 33 46l-.25-.29a6.1 6.1 0 0 0 .67.52 8.37 8.37 0 0 0 2.83 1c.35.11.69.21 1 .29l.18.06h.05a28 28 0 0 0 7.77.18 16.69 16.69 0 0 0 4.34-.92.43.43 0 0 0 .18 0 2.3 2.3 0 0 0 1.08.43 2.39 2.39 0 0 0 1.28-.18 3.27 3.27 0 0 0 1.31-1.8.37.37 0 0 0 .12-.19c.75-.39 1.49-.79 2.27-1.11 2.9-1.19 5.77.08 8 2a16 16 0 0 1 1.06 1.47 4.24 4.24 0 0 1 .4.81c-1.1-1.27-2.36-2.54-4.09-2.47-1.54.06-2.07-1.07-3.35-1.5-.73-.24-2.3 1.16-2.79 1.27-.07 0 0 .12 0 .1 1.17-.23 2.29-1.82 3.59-.6.61.57.83 1.16 1.69 1.28 1.63.23 2.51.08 3.71 1.31.67.68 1.13 1.46 1.76 2.12a2 2 0 0 0 .56.6 15.12 15.12 0 0 0-9.14-2.64c-5.81.32-14.55 4.84-20.45 1.88zM55.1 93H55zm3-28.39a8.48 8.48 0 0 1-1-2.19.09.09 0 0 0-.17 0c.6 2.35 2 4.17 2.71 6.46l.08.26v.05l.15.32.18.57-.35-.56-.2-.38c0-.06-.15 0-.12.05a7.53 7.53 0 0 0 .5 1.08 25.74 25.74 0 0 1 2.29 11.2 12.14 12.14 0 0 1-.53 3.58l-.23.65a11.74 11.74 0 0 1-5.91 6.16c-3.83 1.28-8.17-.31-11.42-3.26a12.6 12.6 0 0 1-2.72-5.51c-.75-3.37-.4-7.06-.05-10.46a43.32 43.32 0 0 1 2-9.5v-.05c.06-.22.13-.43.2-.64s.21-.56.32-.84a34.16 34.16 0 0 1 2.61-4.46 25.73 25.73 0 0 0 1.72-3.31.07.07 0 0 0 .06 0 10.72 10.72 0 0 1 2.57-1.34 1.06 1.06 0 0 1-.45.58c-.64.37-1.39.44-2 .87-.08.06 0 .19.08.14a4.36 4.36 0 0 1 1.31-.56c.24-.06.56-.13.84-.22a48.44 48.44 0 0 1-1.93 5l-.17.35c-.45.84-.91 1.68-1.36 2.53a29.68 29.68 0 0 0-3.83 7.9c-1.08 3.48-.6 6.46-.14 10 0 .1.16.1.15 0a25.39 25.39 0 0 1 1.11-11.3 17.57 17.57 0 0 0-.45 2.49c-.39 3.87-.51 9.54 1.3 13.7a15.43 15.43 0 0 1-2-3.94.07.07 0 0 0-.14 0c.66 2.78 2.85 8 6.2 8.46l.66.06a8 8 0 0 0 3-.18l.36-.09a8.83 8.83 0 0 0 3.52-1.7l.11-.08a6.64 6.64 0 0 0 1.74-1.94l.09-.15a6.61 6.61 0 0 0 .64-1.69c0-.09.08-.17.11-.26a12.11 12.11 0 0 0 .49-5.7c0-.1-.16-.1-.15 0a14.12 14.12 0 0 1-.26 3.35c0-.32-.06-.65-.1-1A14.61 14.61 0 0 0 58.49 75a.12.12 0 0 0 0-.1A92.49 92.49 0 0 1 54.62 63a21.54 21.54 0 0 1-.4-6.31 10.57 10.57 0 0 1 1.27-3.39 6.34 6.34 0 0 1 1.26-1.45l.15-.14.32-.27a15.64 15.64 0 0 1 2.07-1.4 9.49 9.49 0 0 1 2.61-.75 3.41 3.41 0 0 0-1.9 1.27 4.19 4.19 0 0 1-1.73 1.26.91.91 0 0 0-.35.67c-.05.63-1.08 1.4-1.63 1.85s-.49 1.27-.56 1.72c-.23 1.67.52 3.49.94 5.07a.08.08 0 0 0 .15 0 30.81 30.81 0 0 1-.82-4.39c-.14-1.79 1.58-2.33 2.21-3.6s.95-.77 1.67-1.53-.18-.43 1.13-1.36a9.3 9.3 0 0 1 2.13-.81 10.18 10.18 0 0 1 2.59 1.18 3.4 3.4 0 0 0-.47-.12 5.85 5.85 0 0 1 1.5.92l.13.12a19.88 19.88 0 0 0-3.48-1.17c-.07 0-.09.08 0 .11a14 14 0 0 1 4 2 5.12 5.12 0 0 0-2.69-1c-.07 0-.07.1 0 .11a4 4 0 0 1 1.94.88c-3-1.09-6.07-1.07-8.17 2.22-1.79 2.83-1.49 6.73-.43 9.87zm-2-14.25a5.09 5.09 0 0 0-1 2 9.26 9.26 0 0 0-1 2.1 7.2 7.2 0 0 0-.31.88 3.7 3.7 0 0 0-.12.93 15.33 15.33 0 0 0-.18 2.06 28.18 28.18 0 0 0 2.92 13.14c1.46 4.11 2.89 8.1 1.63 12.28a6.34 6.34 0 0 1-.76 1.05c-.34.39-.75.72-1.11 1.1a12.46 12.46 0 0 1-4.35 1.7 4.84 4.84 0 0 1-3.56-.65c-.12-.09-.24-.17-.35-.27a5.68 5.68 0 0 1-.83-1c-.36-.5-.7-1-1.05-1.53-2.18-5.15-1.92-12.05-.73-17.06a25.46 25.46 0 0 1 2-5.22c.9-1.67 1.94-3.28 2.74-5a35.35 35.35 0 0 0 1.9-5.32l.08-.21c.11-.35.27-.76.36-1.16a1.6 1.6 0 0 1 .18-.27 43.71 43.71 0 0 1 4.89-.91 3.48 3.48 0 0 0-1.36 1.31zm-7.44 2.31A4.21 4.21 0 0 1 51 51.44v.14A6.47 6.47 0 0 0 48.48 53zm-.27.64A6.94 6.94 0 0 1 50.91 52v.19a9.62 9.62 0 0 0-2.62 1.44zm11.46 8.1l-.12.11.13-.16zm9.33 39.06s0 .12.06.18l-.1-.13zm-4.06 17.33h-.07.11zm1.18.3h.06-.07s0 .02 0 0zm-4.43-.48a3.85 3.85 0 0 1 2 0 4.14 4.14 0 0 0-2 .01zm5.46 4.88l-.08.07-.38-.13a2.35 2.35 0 0 0 .46.06zm15.83-4.33zm-4.3 3.54a.92.92 0 0 0 0-.1l.07.09zm4.41-2.85zm3.38-11.37a1.51 1.51 0 0 0-.93.14l-.55.24a2.32 2.32 0 0 0-1.7 2.31c0 1.17.95 1.53 1.64 2.27.37.39.29 1.12.63 1.58a5.3 5.3 0 0 1-1.25-.44.08.08 0 0 0-.08.14 6.77 6.77 0 0 0 2.19 1.11c.68.19.86 1.11.94 1.76a1.52 1.52 0 0 0-.3-.09 1.39 1.39 0 0 0-.63 0c-1 .11-2.14.76-2.82-.14a.24.24 0 0 0-.32-.08 1.39 1.39 0 0 1-1.61-.22 2.15 2.15 0 0 0-.63-.61l-.06-.06a2 2 0 0 1-.25-.21s-.11 0-.07.06a6.09 6.09 0 0 0 .92 1.1A1.94 1.94 0 0 0 83 117s.48-.15.53-.09a1.08 1.08 0 0 0 .33.31l-.41.16-.54.17a2.51 2.51 0 0 1-1.19-.31 5.55 5.55 0 0 1-1.14-.85c-.06-.05-.15 0-.11.09a4.35 4.35 0 0 0 1.2 1.2c.34.4.64.67.6 1.25a4 4 0 0 0 0 1.2 2.52 2.52 0 0 0 1 1.46 1 1 0 0 0-.45 0 1.23 1.23 0 0 1-1-.11c-.74-.76-2.28-1-2-2.3 0-.08-.1-.12-.13 0a2.32 2.32 0 0 0 1.05 2.26c-.61.13-1.37.36-1.66-.22a3.07 3.07 0 0 0-.65-1 1.41 1.41 0 0 1-.08-.64c0-.06-.09-.07-.1 0a1.89 1.89 0 0 0-.06.61 3.73 3.73 0 0 1-.65-1.45c0-.08-.14-.06-.13 0 .09 1 1.18 2.8.64 3.54-.71 1-1.45 1.94-2.22 2.87a4.92 4.92 0 0 0-1 2 4.93 4.93 0 0 0-1-2c-.78-.93-1.51-1.88-2.22-2.87-.54-.74.55-2.58.64-3.54 0-.08-.12-.09-.13 0a3.74 3.74 0 0 1-.65 1.45 1.9 1.9 0 0 0-.06-.61c0-.06-.11 0-.1 0a1.41 1.41 0 0 1-.08.64 3.06 3.06 0 0 0-.65 1c-.28.58-1 .35-1.66.21a2.32 2.32 0 0 0 1-2.26c0-.08-.14 0-.12 0 .26 1.3-1.28 1.54-2 2.3a1.22 1.22 0 0 1-1 .1 1 1 0 0 0-.45 0 2.53 2.53 0 0 0 1-1.46 4 4 0 0 0 0-1.2c0-.58.26-.85.6-1.25a4.35 4.35 0 0 0 1.2-1.2.07.07 0 0 0-.11-.09 5.6 5.6 0 0 1-1.14.85 2.52 2.52 0 0 1-1.19.31l-.54-.17-.41-.16a1.1 1.1 0 0 0 .33-.31c0-.07.51.09.53.09a1.94 1.94 0 0 0 1.27-.61 6 6 0 0 0 .91-1.1s0-.09-.07-.06a2 2 0 0 1-.25.21l-.06.06a2.15 2.15 0 0 0-.62.6 1.39 1.39 0 0 1-1.61.22.24.24 0 0 0-.32.08c-.68.9-1.78.25-2.83.14a1.38 1.38 0 0 0-.62 0 1.48 1.48 0 0 0-.3.09c.08-.66.26-1.58.94-1.76a6.75 6.75 0 0 0 2.18-1.11.08.08 0 0 0-.08-.14 5.3 5.3 0 0 1-1.25.44c.35-.46.27-1.19.63-1.58.7-.74 1.61-1.1 1.65-2.27a2.32 2.32 0 0 0-1.7-2.31l-.55-.24a1.5 1.5 0 0 0-.93-.14c1.54-1.41 3.67.16 5.18-1.18.69-.61 1-1.7 1.64-2.25v.08c0 .21 0 .43.07.65a8.14 8.14 0 0 1-.5 1.53 1.29 1.29 0 0 1-1.71.71c-.07 0-.12.09-.05.12a1.5 1.5 0 0 0 1.9-.3 1.91 1.91 0 0 0 .52-1c0 .14.06.28.09.42a3.54 3.54 0 0 1-.36.82c0 .06.05.13.1.08a2.43 2.43 0 0 0 .33-.56c0 .13.05.27.08.4a.81.81 0 0 0-.12.25c-.06.16.17.23.25.11.26 1.09.59 2.19.94 3.28a3.58 3.58 0 0 0-1.21.31 4 4 0 0 1-1.82.65.41.41 0 0 0-.29.13c-.54.78-.35 1.79-1.82 1.53 0 0-.06.06 0 .07a1.36 1.36 0 0 0 1.81-.87c.17-.66.62-.44 1.1-.68.3-.15.59-.3.88-.47a4 4 0 0 1 1.47-.35c.36 1.1.75 2.19 1.13 3.27-.19.25-.48.42-.6.71a2.14 2.14 0 0 0-.08 1.19c0 .12.22.09.21 0 0-.42-.08-1 .38-1.27a1.43 1.43 0 0 0 .25-.15c.41 1.17.81 2.32 1.16 3.44a.8.8 0 0 0-.22.63 3.12 3.12 0 0 1 0 .78 3.88 3.88 0 0 1-.62.9c-.41.61.27 1.66.48 2.22 0 .1.2.06.16 0-.27-.79-.86-1.67-.18-2.39a1.68 1.68 0 0 0 .42-.61 5.13 5.13 0 0 1 .19-.88c.17.59.33 1.17.45 1.74a1.44 1.44 0 0 0 .6 0c.12-.57.28-1.15.45-1.74a5.18 5.18 0 0 1 .19.88 1.68 1.68 0 0 0 .42.61c.67.72.09 1.6-.18 2.39 0 .1.13.15.16 0 .21-.56.89-1.61.48-2.22a3.85 3.85 0 0 1-.62-.9 3.08 3.08 0 0 1 0-.78.81.81 0 0 0-.22-.63c.34-1.12.74-2.27 1.16-3.44a1.43 1.43 0 0 0 .25.15c.46.22.41.84.38 1.27 0 .12.19.15.21 0a2.14 2.14 0 0 0-.08-1.19c-.12-.29-.41-.46-.6-.71.38-1.08.77-2.17 1.13-3.27a4 4 0 0 1 1.47.35c.29.16.58.32.88.47.48.24.93 0 1.1.68a1.36 1.36 0 0 0 1.81.87v-.07c-1.48.27-1.28-.75-1.82-1.53a.41.41 0 0 0-.29-.13 4 4 0 0 1-1.82-.65 3.58 3.58 0 0 0-1.2-.31c.36-1.09.68-2.19.94-3.28.08.12.31 0 .25-.11a.79.79 0 0 0-.12-.25s.06-.27.08-.4a2.4 2.4 0 0 0 .33.56c0 .06.14 0 .1-.08a3.48 3.48 0 0 1-.36-.82c0-.14.06-.28.09-.43a1.91 1.91 0 0 0 .52 1 1.5 1.5 0 0 0 1.9.3c.07 0 0-.14-.05-.12a1.29 1.29 0 0 1-1.71-.71 8.16 8.16 0 0 1-.5-1.53c0-.22 0-.43.07-.64s0-.05 0-.08c.67.55 1 1.64 1.64 2.25 1.34 1.33 3.44-.24 4.98 1.17zm-6.33-6.24v-.15h.06zm9.5-39.89l.13.16zm-5.7-2.85A9.89 9.89 0 0 1 88 60.14a9.81 9.81 0 0 0-2.5-.66c-.19 0-2.9 0-2.76.49-.42-1.35-1.92 1.19-2 1.52a.05.05 0 0 0 .09 0c.12-.24 1.36-2.12 1.63-1.16a.21.21 0 0 0 .31.13 4.47 4.47 0 0 1 3.76-.29c-3.74 0-6.9 2.69-6.1 7.3.55 3.17 2 6.08 2 9.37 0 2.51-.23 5-.39 7.47-.18 2.94-.81 5.83-.77 8.75a5.47 5.47 0 0 1-.27-1.75 4.27 4.27 0 0 0 0 2.12c0 .16.06.35.1.55a4.65 4.65 0 0 1-.17-4.32c0-.05-.06-.09-.09 0a5.85 5.85 0 0 0-.64 3.7c.27 1.54 1.5 2.31 1.86 3.76a2 2 0 0 0 1.72 1.74 1.43 1.43 0 0 0 .74-.15c-.38.65-1.16 1.23-1.81 1a13.71 13.71 0 0 1-1.47-.77 1.51 1.51 0 0 0-.66-.14 2.59 2.59 0 0 1-.75-.71 3.18 3.18 0 0 1-.54-1.95.06.06 0 0 0-.11 0 3.53 3.53 0 0 0 .37 2.32 4.71 4.71 0 0 0 .41.59 1.23 1.23 0 0 0-.13.2 1.83 1.83 0 0 1-.39-.11.22.22 0 0 0-.12 0 1.62 1.62 0 0 1-.56-1c0-.08-.13-.08-.13 0a2.52 2.52 0 0 0 .37 1.23c1.31 5.88-2 12.91-3.64 18.9v.05c-.19.68-.36 1.35-.5 2-.14-.65-.31-1.32-.5-2v-.06c-1.68-6-4.95-13-3.64-18.9a2.51 2.51 0 0 0 .46-1.31c0-.08-.12-.08-.13 0a1.62 1.62 0 0 1-.56 1 .22.22 0 0 0-.12 0 1.84 1.84 0 0 1-.39.11 1.2 1.2 0 0 0-.13-.2 4.66 4.66 0 0 0 .41-.59 3.53 3.53 0 0 0 .37-2.32.06.06 0 0 0-.11 0 3.18 3.18 0 0 1-.54 1.95 2.57 2.57 0 0 1-.75.71 1.51 1.51 0 0 0-.66.14 13.71 13.71 0 0 1-1.47.77c-.65.21-1.42-.36-1.81-1a1.43 1.43 0 0 0 .74.15 2 2 0 0 0 1.72-1.74c.36-1.45 1.6-2.22 1.86-3.76a5.84 5.84 0 0 0-.64-3.7h-.09a4.65 4.65 0 0 1-.24 4.43c0-.2.07-.39.1-.55a4.27 4.27 0 0 0 0-2.12 5.45 5.45 0 0 1-.26 1.78c0-2.92-.59-5.8-.77-8.74-.15-2.5-.38-5-.39-7.47 0-3.29 1.43-6.2 2-9.37.8-4.61-2.36-7.27-6.1-7.3a4.47 4.47 0 0 1 3.76.29.21.21 0 0 0 .31-.12c.27-1 1.51.92 1.63 1.16 0 .05.11 0 .09 0-.12-.33-1.62-2.87-2-1.52.14-.46-2.57-.51-2.76-.49a9.83 9.83 0 0 0-2.5.66 9.88 9.88 0 0 1 3.91-1.62c2-.25 3.12.71 4.23 1.93a1.13 1.13 0 0 0-.38.65c0 .1.13.14.15 0a.91.91 0 0 1 .39-.52l.07.07a2.24 2.24 0 0 0-.32 1.43c0 .12.2.13.19 0a1.59 1.59 0 0 1 .35-1.17l.07.08a2.68 2.68 0 0 0-.11 1.88.06.06 0 0 0 .11 0 3.89 3.89 0 0 0 .06-.87 1.4 1.4 0 0 1 .14-.59 11 11 0 0 1 .37 2.34c0 .18-.34.1-.44.27s.2.65.21.91a.11.11 0 0 0 .23 0c0-.25-.38-.78 0-.8s.23-.12.21-.25a2.73 2.73 0 0 0 .11-1.25 3.81 3.81 0 0 1 .42-2.77l.12-.27v1.18c.12 2.87.07 5.75.15 8.62a.11.11 0 0 0 .22 0c.09-2.46.45-5.44.48-8.33a24.69 24.69 0 0 0 .65-5.17.06.06 0 0 0-.12 0 18.89 18.89 0 0 1-.48 2.64c0-.86-.08-1.71 0-2.58 0-.46-.45-2.41.15-2.48 0 0 .09 0 .09-.08a4.2 4.2 0 0 0-.1-.76c0-.06-.11 0-.1 0 .09.75-.75.49-.58 1.24a7.38 7.38 0 0 1 .09 2.22c-.05-.23-.11-.46-.17-.68a.14.14 0 0 0 .05-.14 2.92 2.92 0 0 0-.28-1.12c-.17-.22-.68-.6-.55-.91s.59-.76.31-1.18a1.09 1.09 0 0 0-.83-.48c-.65-.13 0-1.81-.25-2.35 0-.06-.12 0-.1 0 .32.85-1.11 2.34.44 2.63.7.13-.08 1.25-.12 1.66a.48.48 0 0 0 .18.33l.16.16a4 4 0 0 0-1-.39c-.57-.15-1-1.2-1.45-2.15a.13.13 0 0 0 0-.09c-.25-.77-.3-1.57-1.14-1.92l-.09-.06a1.18 1.18 0 0 1-.23-1 .44.44 0 0 1 .54-.33c.12 0 .58.5.2.46-.11 0-.11.17 0 .17.27 0 .37-.16.33-.42a.76.76 0 0 0-.86-.64.8.8 0 0 0-.65.55 5.78 5.78 0 0 0-.24-.74 4.75 4.75 0 0 0-1-1.32s-.11 0-.08.06a5.63 5.63 0 0 1 .84 1.51l-.23-.28a7.32 7.32 0 0 0-1.87-1.79c-.27-.26-.56-.51-.85-.75a21.41 21.41 0 0 0-6.1-5.07 7.12 7.12 0 0 1-.44-.61 5.35 5.35 0 0 1-.41-.82 7.52 7.52 0 0 0 2.15.76c.36.11.77-.21.88.44a.71.71 0 0 0 .44.59c.11.05.23-.08.13-.17-.31-.31-.28-1.09-.85-1.12a5.32 5.32 0 0 1-1.15-.13 4.79 4.79 0 0 1-1.69-.7c-.17-.5-.3-1-.44-1.53 0-.11-.06-.27-.11-.45 2.19.9 4 1.1 5.86 2.81 1.09 1 2.34 2 3.57 3a26 26 0 0 1 4.7 4.64.06.06 0 0 0 .11-.06 10.26 10.26 0 0 0-1.38-2 2.64 2.64 0 0 0-.35-1.08 4.27 4.27 0 0 0-.56-.58A1.35 1.35 0 0 0 67 41.6a12.87 12.87 0 0 0-1.73-.36l-.27-.37v-1a.09.09 0 0 0-.17 0v.46l-.09-.22c0-.35.05-.7.1-1.05 0-.07-.11-.08-.12 0 0 .22-.09.45-.12.68-.05-.14-.1-.29-.15-.43a8.5 8.5 0 0 0 .14-1.68c-.07.36-.2.73-.3 1.1v-.17c.1-.7.19-1.41.24-2.11a.07.07 0 0 0-.14 0c-.09.37-.21.76-.31 1.15v-.15c0-.8.12-1.61.16-2.41a14.83 14.83 0 0 0-.49-4.75 23.92 23.92 0 0 1 .13 5.58c-.18-1.7-.22-3.41-.53-5.22a4.82 4.82 0 0 0-.41-2.44 2.13 2.13 0 0 0-.3-.42c.44.22.73 1 .9 1.43 0 .07.14 0 .11 0a3.67 3.67 0 0 0-.91-1.69.76.76 0 0 0-.91-.09.73.73 0 0 0-.38.14h-.21c-2-1.9-.83-4.92-1.27-7.25-.53-2.85-2-6.73-4.55-8.78a12.52 12.52 0 0 1 6.16 11.78c-.08 1.07.22 2.23 1.47 2.41 3.16.46 2.79 9.28 3.43 11.88.76 3.09 3.65 4 4.15 7.39a2.91 2.91 0 0 0 .06 1.5c.26.62 1.16.63 1 1.27a2.78 2.78 0 0 0 1.8 3.16c.09 0 .18-.09.08-.14a2.69 2.69 0 0 1-1.59-2.09c-.07-.74.44-.8.44-1.37a.85.85 0 0 0-.41-.73A1.72 1.72 0 0 1 71 45.45a5.88 5.88 0 0 0 0-1.87v-.09a5.46 5.46 0 0 0-.91-2.13 13 13 0 0 1-1.27-2.73 32.49 32.49 0 0 1 .86-10.91c.84-4.1-2-7.11 0-11.46a14.13 14.13 0 0 0 1.12-7.11 6.55 6.55 0 0 0-1.1-3.37 2.69 2.69 0 0 0-.21-.24l-.11-.14a5 5 0 0 1-1.11-2.52v-.17c.24.38.5.74.77 1.1a26.26 26.26 0 0 1 2.31 4c1.56 4 .34 7.62-.42 11.61a3.25 3.25 0 0 1 .07-1.69h-.05a4.45 4.45 0 0 0-.06 3.27 7 7 0 0 0 .47 1.31c.84 1.93.27 4.14-.11 6.1 0 .07.09.1.11 0a22.2 22.2 0 0 0 .71-4.05c.3 2.71-.69 5.28-.87 8.1-.08.57-.13 1.12-.17 1.68a9.74 9.74 0 0 0 0 1.51 20.91 20.91 0 0 1-.03-5.18c0-.13-.18-.12-.19 0-.22 2.05-.66 5.7.8 7.66 0 .06 0 .13.07.19l.47.59a4.29 4.29 0 0 1 1.11 2.22s0-.09-.06-.14a2.44 2.44 0 0 0-.82-.73 3.88 3.88 0 0 1-1.8-2c0-.06-.12 0-.1 0a4.66 4.66 0 0 0 2 2.41c.69.55.46 1.51.57 2.27a2.52 2.52 0 0 0 .75 1.28 6.19 6.19 0 0 1 .19.66 4.81 4.81 0 0 0-.4 1.62c0 .13.21.16.23 0a3 3 0 0 1 .31-1 .33.33 0 0 0 .17.12l.2.06a.18.18 0 0 0 .17.09h.48a.18.18 0 0 0 .17-.09l.2-.06a.33.33 0 0 0 .17-.12 3 3 0 0 1 .31 1c0 .13.25.1.24 0a4.83 4.83 0 0 0-.4-1.62 6.26 6.26 0 0 1 .19-.66 2.52 2.52 0 0 0 .65-1.22c.11-.76-.12-1.72.57-2.27a4.66 4.66 0 0 0 2-2.41c0-.07-.08-.09-.1 0a3.88 3.88 0 0 1-1.79 2 2.43 2.43 0 0 0-.82.73s0 .09-.06.14a4.3 4.3 0 0 1 1.11-2.22l.47-.59c0-.06 0-.13.07-.19 1.46-2 1-5.61.8-7.66 0-.12-.2-.13-.19 0a20.93 20.93 0 0 1-.06 5.22 9.78 9.78 0 0 0 0-1.5c0-.55-.09-1.11-.17-1.68-.19-2.82-1.17-5.38-.88-8.1a22.21 22.21 0 0 0 .71 4.05c0 .07.13 0 .11 0-.37-2-.95-4.17-.11-6.1a7 7 0 0 0 .42-1.42 4.45 4.45 0 0 0-.11-3.25h-.05a3.24 3.24 0 0 1 .15 1.67c-.77-4-2-7.56-.42-11.61a26.14 26.14 0 0 1 2.3-4c.27-.35.54-.72.77-1.1v.17a5 5 0 0 1-1.11 2.52l-.12.15a2.69 2.69 0 0 0-.2.24 6.56 6.56 0 0 0-1.1 3.37A14.12 14.12 0 0 0 80 16.23c2 4.35-.85 7.36 0 11.46a32.48 32.48 0 0 1 .86 10.91 13 13 0 0 1-1.27 2.73 5.46 5.46 0 0 0-.91 2.13v.09a5.88 5.88 0 0 0 0 1.86 1.72 1.72 0 0 1-.89 1.09.85.85 0 0 0-.41.73c0 .57.51.63.44 1.37a2.69 2.69 0 0 1-1.59 2.09c-.09.05 0 .19.08.14a2.78 2.78 0 0 0 1.8-3.16c-.13-.63.77-.65 1-1.27a2.91 2.91 0 0 0 .06-1.5c.5-3.38 3.38-4.29 4.15-7.39.64-2.6.27-11.42 3.44-11.88 1.25-.18 1.55-1.34 1.47-2.41a12.53 12.53 0 0 1 6.16-11.78c-2.54 2.05-4 5.93-4.55 8.78-.44 2.33.72 5.35-1.27 7.25h-.21a.73.73 0 0 0-.38-.14.76.76 0 0 0-.91.09 3.65 3.65 0 0 0-.91 1.69c0 .07.09.1.11 0 .16-.44.45-1.21.9-1.43a2.14 2.14 0 0 0-.3.42 4.83 4.83 0 0 0-.41 2.44c-.31 1.81-.36 3.52-.53 5.21a24 24 0 0 1 .07-5.51 14.8 14.8 0 0 0-.47 4.76c0 .81.14 1.61.15 2.41v.15c-.1-.39-.22-.78-.31-1.15a.07.07 0 0 0-.14 0c.05.7.14 1.41.24 2.11v.17c-.1-.37-.23-.74-.3-1.1a8.53 8.53 0 0 0 .14 1.68l-.15.43c0-.23-.07-.46-.12-.68 0-.07-.13-.05-.12 0 0 .35.06.7.1 1.05l-.09.22v-.46a.09.09 0 0 0-.17 0v1l-.19.38a12.91 12.91 0 0 0-1.73.36 1.35 1.35 0 0 0-.84 1.29 4.29 4.29 0 0 0-.56.57 2.65 2.65 0 0 0-.44 1.08 10.24 10.24 0 0 0-1.38 2 .06.06 0 0 0 .11.06 25.89 25.89 0 0 1 4.69-4.64c1.23-1 2.47-2 3.56-3 1.88-1.71 3.68-1.92 5.86-2.81 0 .18-.08.34-.11.45-.13.52-.26 1-.44 1.53a4.78 4.78 0 0 1-1.69.7 5.33 5.33 0 0 1-1.15.12c-.57 0-.54.81-.85 1.12-.09.09 0 .23.13.17a.71.71 0 0 0 .44-.59c.11-.65.53-.33.88-.44a7.52 7.52 0 0 0 2.15-.76 5.44 5.44 0 0 1-.4.82 7.11 7.11 0 0 1-.44.61A21.43 21.43 0 0 0 86.3 45c-.3.24-.58.49-.86.76a7.33 7.33 0 0 0-1.66 1.8l-.23.29a5.56 5.56 0 0 1 .84-1.5s0-.1-.08-.06a4.71 4.71 0 0 0-1 1.32 5.73 5.73 0 0 0-.24.74.8.8 0 0 0-.64-.55.76.76 0 0 0-.86.64c0 .25.06.43.33.42.11 0 .11-.18 0-.17-.38 0 .08-.43.2-.46a.44.44 0 0 1 .54.33 1.18 1.18 0 0 1-.23 1l-.09.06c-.83.35-.89 1.14-1.14 1.92a.13.13 0 0 0 0 .09c-.47 1-.87 2-1.45 2.15a4 4 0 0 0-1 .39l.16-.16a.49.49 0 0 0 .18-.33c0-.42-.82-1.53-.12-1.66 1.54-.29.12-1.78.44-2.63 0-.06-.07-.1-.1 0-.28.54.4 2.21-.25 2.35a1.08 1.08 0 0 0-.83.48c-.28.42.16.83.31 1.18s-.38.69-.55.91a2.94 2.94 0 0 0-.28 1.13.14.14 0 0 0 .05.14c-.07.22-.12.45-.17.68a7.35 7.35 0 0 1 .09-2.22c.17-.74-.67-.48-.58-1.24 0-.06-.09-.07-.1 0a4.2 4.2 0 0 0-.1.76s0 .08.09.08c.6.07.13 2 .15 2.48v2.58a19 19 0 0 1-.48-2.65.06.06 0 0 0-.12 0 24.74 24.74 0 0 0 .65 5.17c0 2.88.39 5.86.48 8.33a.11.11 0 0 0 .22 0c.07-2.87 0-5.75.15-8.62v-1.18l.12.27a3.81 3.81 0 0 1 .42 2.77 2.72 2.72 0 0 0 .11 1.25c0 .13 0 .24.21.25s0 .55 0 .8A.11.11 0 0 0 79 65c0-.25.36-.65.21-.91s-.46-.09-.45-.28a11.13 11.13 0 0 1 .37-2.33 1.4 1.4 0 0 1 .14.59 3.84 3.84 0 0 0 .06.87.06.06 0 0 0 .11 0 2.68 2.68 0 0 0-.09-1.94l.07-.08a1.59 1.59 0 0 1 .35 1.17c0 .13.18.12.19 0a2.24 2.24 0 0 0-.32-1.43l.07-.07a.92.92 0 0 1 .39.52c0 .1.17.06.15 0a1.13 1.13 0 0 0-.38-.65c1.13-1.24 2.25-2.2 4.24-1.95zm24.22 24.6c0 .17-.09.32-.13.49a15.37 15.37 0 0 1-3.43 5.74c-3.13 2.49-7.07 3.72-10.58 2.54-4-2.08-6.65-5.32-6.66-10.39a25.78 25.78 0 0 1 2.29-11.2 7.13 7.13 0 0 0 .5-1.08c0-.07-.08-.11-.12-.05s-.08.17-.12.25l-.43.69.18-.56.16-.34v-.05l.08-.26c.67-2.29 2.12-4.11 2.71-6.46a.09.09 0 0 0-.17 0 8.48 8.48 0 0 1-1 2.19c1-3.14 1.36-7-.4-9.81-2.13-3.34-5.22-3.37-8.22-2.28a4 4 0 0 1 2-.88c.06 0 .07-.11 0-.11a5.12 5.12 0 0 0-2.69 1 14 14 0 0 1 4-2c.06 0 0-.13 0-.11a19.76 19.76 0 0 0-3.49 1.17l.13-.13a5.85 5.85 0 0 1 1.5-.92 3.51 3.51 0 0 0-.47.12 10.19 10.19 0 0 1 2.59-1.18 9.3 9.3 0 0 1 2.13.81c1.32.93.47.66 1.13 1.36s1.06.31 1.67 1.53 2.35 1.82 2.21 3.6a30.67 30.67 0 0 1-.84 4.36.08.08 0 0 0 .15 0c.43-1.58 1.18-3.39.94-5.07-.06-.46-.14-1.38-.56-1.72s-1.58-1.23-1.63-1.85a.92.92 0 0 0-.36-.67 4.18 4.18 0 0 1-1.73-1.26 3.41 3.41 0 0 0-1.9-1.22 9.48 9.48 0 0 1 2.61.75 15.78 15.78 0 0 1 2.06 1.39l.34.28.1.09a6.42 6.42 0 0 1 1.3 1.49 10.58 10.58 0 0 1 1.28 3.4A21.5 21.5 0 0 1 95 63a92.5 92.5 0 0 1-3.88 11.85.12.12 0 0 0 0 .1 14.63 14.63 0 0 0-1.09 4.18q-.07.5-.1 1a14.15 14.15 0 0 1-.26-3.35c0-.1-.14-.1-.15 0A12.13 12.13 0 0 0 90 82.5c0 .09.07.18.11.26a6.61 6.61 0 0 0 .64 1.69l.09.16a6.65 6.65 0 0 0 1.74 1.94l.13.09a8.94 8.94 0 0 0 3.89 1.78 8 8 0 0 0 3 .18l.66-.06c3.35-.44 5.54-5.69 6.2-8.46a.07.07 0 0 0-.13 0 15.42 15.42 0 0 1-2 3.94c1.82-4.16 1.7-9.83 1.3-13.7a17.58 17.58 0 0 0-.45-2.49 25.38 25.38 0 0 1 1.13 11.27c0 .1.14.1.15 0 .46-3.53.94-6.51-.14-10a29.62 29.62 0 0 0-3.83-7.9c-.44-.85-.9-1.69-1.36-2.53l-.17-.35a48.3 48.3 0 0 1-1.93-5c.28.09.6.16.84.22a4.38 4.38 0 0 1 1.31.56c.09.06.16-.08.08-.14-.61-.43-1.36-.49-2-.87a1.06 1.06 0 0 1-.45-.58 10.72 10.72 0 0 1 2.57 1.34.07.07 0 0 0 .06 0 25.55 25.55 0 0 0 1.72 3.31 34.1 34.1 0 0 1 2.61 4.46c.11.28.22.56.32.84s.14.42.2.63v.05a43.34 43.34 0 0 1 2 9.5c.44 3.36.79 7.1.04 10.47zm-9.7-31.67a4.21 4.21 0 0 1 2.36 1.18l.17.4a6.49 6.49 0 0 0-2.51-1.44zm.12.5a6.93 6.93 0 0 1 2.52 1.31l.13.32a9.65 9.65 0 0 0-2.62-1.44zm-1.62-2a1.61 1.61 0 0 1 .18.27c.1.4.25.81.36 1.16l.07.18a35.42 35.42 0 0 0 1.91 5.34c.8 1.71 1.84 3.32 2.74 5a25.53 25.53 0 0 1 2 5.22c1.18 5 1.44 11.86-.74 17.07-.35.51-.69 1-1.05 1.53a5.73 5.73 0 0 1-.83 1c-.11.1-.23.18-.35.27a4.84 4.84 0 0 1-3.56.65 12.44 12.44 0 0 1-4.35-1.7c-.36-.37-.77-.71-1.11-1.1a6.38 6.38 0 0 1-.76-1.05c-1.26-4.18.17-8.17 1.63-12.28a28.18 28.18 0 0 0 2.92-13.13 15.29 15.29 0 0 0-.2-2.13 3.7 3.7 0 0 0-.12-.93 7.09 7.09 0 0 0-.31-.88 9.27 9.27 0 0 0-1-2.1 5.11 5.11 0 0 0-1-2A3.49 3.49 0 0 0 92.2 49a43.57 43.57 0 0 1 4.92.91zm7.26-2.13a28 28 0 0 0 7.77-.18h.05l.18-.06c.34-.08.69-.18 1-.29a8.38 8.38 0 0 0 2.83-1 6 6 0 0 0 .67-.53l-.26.31a39.91 39.91 0 0 1-3.8 3.64c-5.89 3-14.64-1.56-20.49-1.88a15.12 15.12 0 0 0-9.14 2.65 2 2 0 0 0 .56-.6c.64-.66 1.09-1.44 1.76-2.12 1.21-1.22 2.09-1.08 3.71-1.31.86-.12 1.09-.71 1.69-1.28 1.3-1.22 2.42.37 3.59.6.07 0 .1-.09 0-.1-.49-.11-2.07-1.51-2.79-1.27-1.28.42-1.82 1.55-3.35 1.5-1.74-.06-3 1.17-4.08 2.51a4.21 4.21 0 0 1 .4-.81A15.86 15.86 0 0 1 85.84 46c2.2-1.88 5.07-3.14 8-2 .78.32 1.53.72 2.27 1.11a.37.37 0 0 0 .12.19 3.27 3.27 0 0 0 1.31 1.8 2.39 2.39 0 0 0 1.28.18 2.3 2.3 0 0 0 1.08-.43.43.43 0 0 0 .18 0 16.69 16.69 0 0 0 4.3.93zm-5.5-11.49a5.1 5.1 0 0 0 .73.77l-.25.09a4 4 0 0 1-.78-1h.22zm-.35.93a1.11 1.11 0 0 0 .14.12h-.13v-.12zm.43 0a3 3 0 0 1-.45-.52v-.28a2.48 2.48 0 0 0 .64.75zM98.5 36v-.24l.14.22zm1.31 1a3.88 3.88 0 0 1-.69-.84 3.92 3.92 0 0 0 1.27-.38c.32-.16.59-.92 1-.81.9.26 1.16-.34 1.4-1.11.34-1.09 1.37-.44 2.12-1.25a7.63 7.63 0 0 0 .69-.87A11.92 11.92 0 0 1 99.81 37zm4.8-7a45.92 45.92 0 0 1 3.1-4.85c.37-.5.74-1 1.07-1.55a29.15 29.15 0 0 0-.72 2.89c-.39 1-.8 2-1.27 3a.09.09 0 0 0-.16 0c-.5 1-1.9 4.22-3.43 3.18a.14.14 0 0 0-.17 0c-.51.67-.62 2.36-1.91 1.81a.15.15 0 0 0-.2.05 2.42 2.42 0 0 1-2 1.35c-.15-.29-.27-.62-.44-.9v-.18a9.65 9.65 0 0 0 6.13-4.8zm44.25-12.43a2.59 2.59 0 0 0-.19.32c-.09-.26-.17-.52-.25-.78h-.05a10.43 10.43 0 0 0 .21 1.82c.11 1.78.24 4.36-.59 5.83a14.36 14.36 0 0 0-3.37 2.85c-2.92 3.89-9.28 1.55-13.34-.87a73.74 73.74 0 0 0-8.48-5.72c-5.93-4.13-11.8-7.43-19-1.9s-7.3 18.51-4.64 26.6l-1.3-.59v-.08h-.09l-1-.46c-1.92-8.09-2.74-20.25 4.27-26.28 8.29-7.12 17.41-2.75 24.76 2.91 3.15 3.18 7.92 6.06 12.49 6.43 3.49.28 8.29-.72 8.95-5 .63-4.08 0-8.74-2.95-11.85a17.75 17.75 0 0 0-3.25-2.77 24.58 24.58 0 0 0-2.12-1.82 18.91 18.91 0 0 1 8.52 7.58 5.12 5.12 0 0 1-.9-1c0-.06-.14 0-.12 0a5.48 5.48 0 0 0 1.38 1.92c.73.75 1.75 1.57 1.06 2.86z" fill="#7c1531"/><path class="cls-1" d="M78.92 65.22c.08 2.52 2.92 8.07 1.08 10.09-.41.46-.9 1.36-.49 2 .79 1.26.15 2.58.34 3.52.49 2.45 1.21 4.45 1.21 7.06a.06.06 0 0 0 .11 0c0-.31-.37-7.86-.44-7.81.54-.41.2-1.05.06-1.51-.5-1.68.39-3.05.24-4.68-.28-3-1.81-5.63-2-8.67-.03-.05-.11-.05-.11 0z" fill="#7c1531"/><path class="cls-1" d="M81.11 88.22a7.08 7.08 0 0 1-.17.8.11.11 0 0 0 .21.06 2.22 2.22 0 0 0 .16-.86c.01-.13-.18-.13-.2 0z" fill="#7c1531"/><path class="cls-1" d="M78.75 117.61c-.09-.05-.16.08-.08.14a4.13 4.13 0 0 1 .66.65c.06.06.15 0 .11-.09a1.68 1.68 0 0 0-.69-.7z" fill="#7c1531"/><path class="cls-1" d="M78.42 28.75a.09.09 0 0 0 0 .19.09.09 0 0 0 0-.19z" fill="#7c1531"/><path class="cls-1" d="M78.55 29.31a.12.12 0 0 0 0 .23.12.12 0 0 0 0-.23z" fill="#7c1531"/><path class="cls-1" d="M78.76 29.87a.11.11 0 0 0 0 .21.11.11 0 0 0 0-.21z" fill="#7c1531"/><path class="cls-1" d="M78.33 16.22a.71.71 0 0 0 0 .31.05.05 0 0 0 .1 0v-.28c.01-.1-.11-.1-.1-.03z" fill="#7c1531"/><path class="cls-1" d="M119.22 43.22s.02.02 0 0z" fill="#7c1531"/><path class="cls-1" d="M111.74 49.4a8.79 8.79 0 0 0 4.12-2.89s0-.06 0 0a9.81 9.81 0 0 1-4.13 2.74c-.15.01-.11.19.01.15z" fill="#7c1531"/><path class="cls-1" d="M102.12 48.56a15.1 15.1 0 0 0 3.87.59c.4 0 .62-.32 1-.24a1.84 1.84 0 0 0 1.4-.2v-.05l-1.62-.06a.1.1 0 0 0-.12 0c-1.06 1.06-3.21-.4-4.49-.32-.16.02-.16.26-.04.28z" fill="#7c1531"/><path class="cls-1" d="M99.91 47.2v.09a8.42 8.42 0 0 1 1.55.81c.06 0 .11-.06.05-.09a7.44 7.44 0 0 0-1.6-.81z" fill="#7c1531"/><path class="cls-1" d="M92.72 61.43a.37.37 0 0 0 0 .74.37.37 0 0 0 0-.74z" fill="#7c1531"/><path class="cls-1" d="M81.42 46.66c.48-.67 1.46-.37 2.06-.85.82-.65 1.25-1.59 2.14-2.19 1.24-.83 2.7-1.51 3.46-2.85a.07.07 0 0 0-.12-.07c-1 1.7-3.18 2-4.41 3.44a4.77 4.77 0 0 1-2.5 1.86 1.11 1.11 0 0 0-.79.53c-.06.14.09.23.16.13z" fill="#7c1531"/><path class="cls-1" d="M79.71 48.92a1.37 1.37 0 0 0 1.45-1.36c0-.09-.14-.11-.15 0a1.23 1.23 0 0 1-1.3 1.16c-.14-.03-.14.21 0 .2z" fill="#7c1531"/><path class="cls-1" d="M77.91 116.7c0-.08-.18 0-.14.06a1.51 1.51 0 0 0 .74.77c.06 0 .11-.05.05-.09a2.17 2.17 0 0 1-.65-.74z" fill="#7c1531"/><path class="cls-1" d="M75.58 123.58a2.08 2.08 0 0 0-.37 1c0 .07.09.07.12 0a8 8 0 0 1 .39-1 .08.08 0 0 0-.14 0z" fill="#7c1531"/><path class="cls-1" d="M88.9 40.57c.07-.08 0-.05.09-.18s0-.05-.06 0l-.07.16s.02.05.04.02z" fill="#7c1531"/><path class="cls-1" d="M89.38 40.62a.15.15 0 0 0 0-.3.15.15 0 0 0 0 .3z" fill="#7c1531"/><path class="cls-1" d="M100.83 20.44a19.3 19.3 0 0 0-2.53 3.34c-.24.54-.29 2.36-.82 2.27-1-.17-.39 2.46-.94 2.91-.11.09 0 .25.15.19 1-.52-.27-3.33 1.33-2.77.06 0 .11 0 .1-.1-.47-2.62 1.56-3.82 2.8-5.78.08-.06-.04-.11-.09-.06z" fill="#7c1531"/><path class="cls-1" d="M96.72 36.22a34.49 34.49 0 0 1-.05-6.58h-.06a18.86 18.86 0 0 0-.05 6.62c0 .08.17.06.16-.04z" fill="#7c1531"/><path class="cls-1" d="M96.7 37.22a20.18 20.18 0 0 0 .21 3.68c0 .07.13.05.12 0-.1-1.23-.27-2.43-.29-3.67l-.04-.01z" fill="#7c1531"/><path class="cls-1" d="M91.34 69.37a.13.13 0 0 0 .12-.09 6.88 6.88 0 0 0 .05-1.36c0-.38-.15-.88.38-.77a.9.9 0 0 0 .75-.16c.67-.62.61-1.79.86-2.61 0-.06-.07-.09-.1 0-.39 1.1-.3 2.86-1.93 2.5a.09.09 0 0 0-.11.08c0 .18 0 2.27-.38 2.13-.13-.05-.21.16-.09.23s.19.08.45.05z" fill="#7c1531"/><path class="cls-1" d="M90.56 69.22h.06a.09.09 0 0 0 0-.18h-.06a.1.1 0 1 0 0 .18z" fill="#7c1531"/><path class="cls-1" d="M77.24 102.68a27.35 27.35 0 0 1-2.2 11.1c0 .06.06.12.1.06 1.92-3.17 2.26-7.53 2.3-11.15a.1.1 0 0 0-.2-.01z" fill="#7c1531"/><path class="cls-1" d="M75.17 114.66c-.11.16-.14.34-.24.51s0 .07.06 0 .15-.34.27-.5-.05-.06-.09-.01z" fill="#7c1531"/><path class="cls-1" d="M74.83 116.24a1.85 1.85 0 0 0-.12-.57 2.33 2.33 0 0 1 .1.87 2.35 2.35 0 0 1 .1-.87 1.84 1.84 0 0 0-.08.57z" fill="#7c1531"/></g></g><metadata><rdf:RDF xmlns:rdf="http://www.w3.org/1999/02/22-rdf-syntax-ns#" xmlns:rdfs="http://www.w3.org/2000/01/rdf-schema#" xmlns:dc="http://purl.org/dc/elements/1.1/"><rdf:Description about="https://iconscout.com/legal#licenses" dc:title="house,greyjoy,pyke" dc:description="house,greyjoy,pyke" dc:publisher="Iconscout" dc:date="2018-03-26" dc:format="image/svg+xml" dc:language="en"><dc:creator><rdf:Bag><rdf:li>Roundicons.com</rdf:li></rdf:Bag></dc:creator></rdf:Description></rdf:RDF></metadata></svg>