<?xml version="1.0" encoding="UTF-8"?><svg xmlns="http://www.w3.org/2000/svg" viewBox="0 0 156.47 72.61"><defs><style>.cls-1{fill:#0d465b;}</style></defs><title>Asset 22</title><g id="Layer_2" data-name="Layer 2"><g id="Layer_2-2" data-name="Layer 2"><path class="cls-1" d="M18.9 43.14l-.37-.57c0-.06-.14 0-.1.06l.38.56s.12-.01.09-.05z" fill="#0d465b"/><path class="cls-1" d="M27 50.3a.12.12 0 0 0 0-.24c-1.41-.27-1.3-1.41-.83-2.36a2.27 2.27 0 0 0 .33 1.09.06.06 0 0 0 .11-.06 1.88 1.88 0 0 1-.19-1.47 3.82 3.82 0 0 1 .59-.73 2.32 2.32 0 0 0 .99-1.76c-.12-1.74-1.95-2-2.81-3.29a.07.07 0 0 0-.12.07 22.56 22.56 0 0 0 1.78 2.2c1 1.38-.66 2.62-1.14 3.81s-.02 2.65 1.29 2.74z" fill="#0d465b"/><path class="cls-1" d="M27.1 46.51a4.19 4.19 0 0 0 .1 1.35c0 .07.14.06.13 0 0-.44 0-.89-.07-1.33a.08.08 0 0 0-.16-.02z" fill="#0d465b"/><path class="cls-1" d="M13.8 47.7c.06.08.19 0 .14-.08a1.13 1.13 0 0 1-.06-.15.09.09 0 0 0 0-.06c0-.47.41-.51.75-.36s.27.34.31.66a.13.13 0 0 0-.09.1h-.35c-.1 0-.2.1-.09.16.46.27.75.47 1.3.24a1.23 1.23 0 0 0 .77-.88 2 2 0 0 0 .22-.66A1.63 1.63 0 0 0 15.37 45a1.76 1.76 0 0 0-1.57 2.7zm.2-1.28v-.06zm1.75-.34v-.07z" fill="#0d465b"/><path class="cls-1" d="M17.6 51c2.62-1.66 4.49-5.11 3.1-8.1 0 0-.06 0 0 0 1.27 3.29-1 5.77-3.17 7.92-.12.1-.02.23.07.18z" fill="#0d465b"/><path class="cls-1" d="M20.32 49.19a5 5 0 0 1-.75.85c-.06.05 0 .14.09.09a3 3 0 0 0 .75-.9l-.09-.04z" fill="#0d465b"/><path class="cls-1" d="M20.64 50.07V50a3.08 3.08 0 0 0-.32.18.06.06 0 0 0 .06.1 3.06 3.06 0 0 0 .26-.21z" fill="#0d465b"/><path class="cls-1" d="M6.9 51.55c-.05 0 0 .13.05.09a7.37 7.37 0 0 0 1-.62c.06 0 0-.15-.07-.13a3.73 3.73 0 0 0-.98.66z" fill="#0d465b"/><path class="cls-1" d="M8.18 50.72h-.06l-.07.05a.09.09 0 0 0 0 .09c.05.32.46-.15.13-.14z" fill="#0d465b"/><path class="cls-1" d="M10.88 48.93c0 .05.13 0 .09-.05a1.54 1.54 0 0 1-.18-.79l.23-.44c.09.38.21.76.3 1.15h.08c-.06-.54-.13-1.06-.15-1.59a20.23 20.23 0 0 0 .85-2.36c.7-1.6 1.86-2.51 3.66-2.18a4.16 4.16 0 0 1 3.4 3.7A3.31 3.31 0 0 1 18 48.89a5.06 5.06 0 0 1-1.79 1 7.16 7.16 0 0 1-3.4-.32.07.07 0 0 0 0 .13c.61.19 1.38.54 2.14.74a2.54 2.54 0 0 1-3.1-1.74c.34 2 2.21 2.39 4 2a5.35 5.35 0 0 0 3.95-3.32 4.66 4.66 0 0 0 .61-2.73c-.13-1.48-1.53-2.72-2.2-4 0-.06-.14 0-.11 0 .44 1 1 2 1.45 3.07a3.48 3.48 0 0 1 .2.85 4.77 4.77 0 0 0-1.95-2.13 1.78 1.78 0 0 0-.07-.51c0-.08-.16-.07-.15 0a2.13 2.13 0 0 1 0 .36l-.33-.16a1.6 1.6 0 0 0 .16-.83.07.07 0 0 0-.14 0 1.27 1.27 0 0 1-.3.7h-.46a1.59 1.59 0 0 0 .41-1.13.06.06 0 0 0-.12 0c0 .49-.35.73-.64 1a5.35 5.35 0 0 0-.75-.15 2.23 2.23 0 0 0 1-1c0-.09-.08-.17-.13-.08a2.39 2.39 0 0 1-1.6 1.07 3.66 3.66 0 0 0-.94.16 6 6 0 0 1 1.56-1.09 3.09 3.09 0 0 0 1.7-1.66.06.06 0 0 0-.1-.06c-.73 1-2 1-3 1.48a4.34 4.34 0 0 0-2 2.1c-1.4 2.54-1.21 5.44-3.45 7.54-.19.17.07.52.28.36a7.62 7.62 0 0 0 2-2.18 1.59 1.59 0 0 0 .15.57z" fill="#0d465b"/><path class="cls-1" d="M10.67 49.33a1.75 1.75 0 0 0-.23-.44c-.07-.09-.22 0-.19.11a.62.62 0 0 0 .33.4s.12-.02.09-.07z" fill="#0d465b"/><path class="cls-1" d="M17.83 47.61a2.64 2.64 0 0 0-.38-3s-.07 0 0 0a2.91 2.91 0 0 1 .37 2.91s-.01.12.01.09z" fill="#0d465b"/><path class="cls-1" d="M17 48.5v.05a1.9 1.9 0 0 0 .42-.45 1.82 1.82 0 0 1-.42.4z" fill="#0d465b"/><path class="cls-1" d="M15.8 49.35a1.07 1.07 0 0 0 .5-.31.85.85 0 0 1-.5.31z" fill="#0d465b"/><path class="cls-1" d="M15.17 49.12v.08a.38.38 0 0 0 .2-.14s0-.09-.05-.05z" fill="#0d465b"/><path class="cls-1" d="M13.23 44.53l-.06.06.06-.06z" fill="#0d465b"/><path class="cls-1" d="M15.86 43.69s.07-.05 0-.07a2 2 0 0 0-2.23.32V44a2.21 2.21 0 0 1 2.23-.31z" fill="#0d465b"/><path class="cls-1" d="M16.7 44.18a.29.29 0 0 0-.14-.06c-.05 0-.08.06 0 .09l.1.05.04-.08z" fill="#0d465b"/><path class="cls-1" d="M18.94 51.53a7.18 7.18 0 0 0-3.16-.11 35.22 35.22 0 0 1-5.19.08c2.95.46 7.79-.74 9.65 2 .66 1 1.25 2.46 2.64 2.14a.12.12 0 0 0 0-.23c-1.88-.51-2.18-3.08-3.94-3.88z" fill="#0d465b"/><path class="cls-1" d="M3.23 56.26a.1.1 0 0 0-.1.17 2.06 2.06 0 0 0 1.49.33.08.08 0 0 0 0-.16 2.62 2.62 0 0 1-1.39-.34z" fill="#0d465b"/><path class="cls-1" d="M5.18 55.48a2.37 2.37 0 0 1-1.38-.28.07.07 0 0 0-.07.12 2.19 2.19 0 0 0 1.45.38c.14-.01.14-.23 0-.22z" fill="#0d465b"/><path class="cls-1" d="M5.34 54.39a1.84 1.84 0 0 1-.77-.23.12.12 0 0 0-.12.2 1.53 1.53 0 0 0 .89.27.12.12 0 0 0 0-.24z" fill="#0d465b"/><path class="cls-1" d="M5.65 53.39a.45.45 0 0 1-.49-.07c-.14-.1-.26.12-.13.22a.64.64 0 0 0 .71.08c.14-.06.04-.27-.09-.23z" fill="#0d465b"/><path class="cls-1" d="M6.51 52.26h-.58a.18.18 0 0 0 0 .36h.58a.17.17 0 0 0 0-.36z" fill="#0d465b"/><path class="cls-1" d="M69.64 21.55a7.68 7.68 0 0 0-2-3c-.09-.08-.22.05-.13.13a7.37 7.37 0 0 1 1.89 2.89c-15.53.49-30.78 3.43-42.49 14.84l-.31.27-.33.18-.28.2c-1.86-.89-3.77-1.65-5.33-2.42-.9-.86-2.38.07-3.28.61a.07.07 0 0 0 .07.12 7.16 7.16 0 0 1 1.45-.63 2.11 2.11 0 0 1 1.86.44.12.12 0 0 0 .08 0c2.31 1.81 5 3 7.53 4.54 3.5 2.19 4.26 5 3.52 8.39a9.36 9.36 0 0 0-.43-2.77c0-.11-.22-.07-.18 0 .66 2.25 0 4.09-.46 6.23a15.35 15.35 0 0 1-4.86 5.86c-.08.06 0 .19.08.14a15.26 15.26 0 0 0 4.4-4.46 5.92 5.92 0 0 1-.75 1.6c0 .07.06.16.12.09A5.78 5.78 0 0 0 31 52.67h.17c-.06.15-.11.3-.17.46s-.27.58-.37.88a.08.08 0 0 0 .12.09 2.18 2.18 0 0 0 .73-1.44h.37a4.42 4.42 0 0 1-.47.94c-.06.07 0 .17.1.1a2 2 0 0 0 .52-1.12l.38-.07a3.9 3.9 0 0 1-.37.7c-.07.09.08.2.16.12a1.77 1.77 0 0 0 .45-.88l.33-.13c-.09.21-.17.42-.25.63 0 0 0 .08.06.06a1.28 1.28 0 0 0 .49-.87l.22-.18.39.17a.79.79 0 0 1-.06.22.07.07 0 0 0 .11.08.46.46 0 0 0 .16-.21l.15.06c.59.18.9-.26.91-.75a1.32 1.32 0 0 0 .32-.45h.07a2.69 2.69 0 0 1-.12.44c0 .07.07.13.11.06.12-.22.3-.35.39-.57L36 51a.06.06 0 0 0 .11.07c.08-.1.13-.17.18-.25a1.39 1.39 0 0 0 .61-.82 1.78 1.78 0 0 0 .39-.76c1.1-.22 1.77-.78 1.28-2.22l.42-.16c2.15-.94 3.53-2.64 2.79-5a.4.4 0 0 0-.72-.09 6.16 6.16 0 0 1-2.71 2c.37-4.65-4.12-9.11-8.7-8.58a.17.17 0 0 0 0 .35 7.48 7.48 0 0 1 6 3.35c1.15 1.63 1.33 3.41 1.76 5.25-.62.23-1.24.45-1.85.69 0-.16-.08-.31-.12-.47a.17.17 0 0 0-.2-.12.3.3 0 0 0 .16-.34 8 8 0 0 0-7-6.52c-.12 0-.14.17 0 .2a9.3 9.3 0 0 1 6.48 6.48.29.29 0 0 0 .36.21 1.23 1.23 0 0 0-.09.25 14.63 14.63 0 0 0-1.07-1c-.06-.05-.15 0-.09.09.43.38.74.94 1.15 1.35l-.14.14c-1-.45-1.56-1.61-2.49-2.2a6.7 6.7 0 0 0-.59-1.24 12.06 12.06 0 0 0-4.79-4 2.47 2.47 0 0 0 .73-.08.11.11 0 0 0 0-.21 4.41 4.41 0 0 0-.84-.14c.27-.23.51-.52.75-.74a4 4 0 0 1 1.59-.94.12.12 0 0 0 0-.23 1.9 1.9 0 0 0-.82.13c11.88-9.51 26.31-12.34 41.08-13.25a23.35 23.35 0 0 1 .82 3.8c0 .13.24.1.23 0a17.93 17.93 0 0 0-.79-3.79c4.87-.29 9.77-.38 14.63-.44a.07.07 0 0 0 0-.13c-4.91-.16-9.9-.25-14.87-.09zm-36.89 25l.09.18-.16.21c.02-.11.05-.24.07-.37zm.25 0a3.57 3.57 0 0 0-.2-.32v-.37c.13.14.26.29.38.44zm.36-.37a3.73 3.73 0 0 0-.49-.59v-.19c.2.23.41.44.62.65zm.31-.27a7.63 7.63 0 0 0-.79-.84 7 7 0 0 0-.05-.75A13.61 13.61 0 0 0 34 45.68zm-2.57 6.2s.05 0 .06-.07l.05-.16a2.76 2.76 0 0 1 1.44-.15A3.12 3.12 0 0 1 32 52l-.88.24c-.04-.03-.03-.08-.02-.13zm3.27-.5c0-.12-.05-.08-.19-.12a6.7 6.7 0 0 0-.79-.27 3.15 3.15 0 0 0-2.06.33c.08-.24.14-.48.2-.73a16.47 16.47 0 0 1 2.92.26v.05c0 .05-.06.32-.08.48zm.74-.27a1.08 1.08 0 0 0 0-.2h.22a2.39 2.39 0 0 0-.23.19zm-1.25-1.06a5.41 5.41 0 0 0-2.22.14c0-.14 0-.29.07-.44v-.07c0 .08.15.13.22 0 .6-.71 2.54-.53 4.2-.6-.13 1.24-1.23 1.05-2.28.96zm3.26-1.73a9.93 9.93 0 0 1-2.36.15 6.25 6.25 0 0 0-2.16.3c1.23-1 3.55-1.33 5.25-1.78.05.62.03 1.1-.74 1.32zm4.11-5.77c.65 4.12-5.44 3.43-8.41 5a.87.87 0 0 0-.38.19l.08-.28c1.32-1.69 3.29-2.22 5.18-2.89a.3.3 0 0 0 .09.09c0 .07-.1.13-.14.21-.52 1-2.14.54-2.89 1.34-.07.08 0 .2.12.12.71-.73 1.78-.46 2.63-.88.25-.12.53-.59.69-.79a3 3 0 0 1 .5-.47 7.41 7.41 0 0 0 2.52-1.65zm-6.49 2.44a7.07 7.07 0 0 0-.63.36 14.35 14.35 0 0 0-1.32-1.52 6.5 6.5 0 0 0-.22-.92c.78.61 1.28 1.59 2.16 2.08z" fill="#0d465b"/><path class="cls-1" d="M154 42.28c-2.29-.62-4.27-2.05-6.45-3-2.38-1-5.4-.89-7.88-1.47a24.21 24.21 0 0 0-3.48-.56 5.38 5.38 0 0 0-4.41-.15 6.41 6.41 0 0 0-.77.14c-3.47-.52-6.19-4.93-9-6.86-2.51-1.71-5.9-3-8-5.33 1.05-.62 2.36-1.39 2.4-2.73s-.09-3.31-1.49-4.09c-4.79-2.66-10.28 1.82-15.41.6A73.24 73.24 0 0 0 91 16.3c-5.32-1.11-10.45-2.79-15.84-3.57A48.67 48.67 0 0 0 58.1 13c.93-.69 1.81-1.48 2.69-2.12 1.09-.8 4.39-1.43 3.79-3.36a.3.3 0 0 0-.27-.2 1.68 1.68 0 0 0-.85-.24c-1.21-.71-2.39-1.46-3.6-2.17C58.26 4 56.47 3.76 54.8 3 52.28 1.86 50.78.85 48.36.7a2 2 0 0 0-2.83-.22 12.07 12.07 0 0 0-2.23 3.2c-1.53 1.9-2.68 4.15-4.09 6.18a138.28 138.28 0 0 1-11.53 13.7 76.61 76.61 0 0 0-8.68 7.2 35.3 35.3 0 0 0-3.12 2.6l-.29.29a3.42 3.42 0 0 0-.8.79A57.13 57.13 0 0 0 6.17 45.8c-1.38 2.33-2.25 5-3.45 7.39-.21.42-2.8 3.16-2.72 4.24.15 2 2.22 2.69 4 3a6.45 6.45 0 0 0 3.65 0 4 4 0 0 1 1.75-.28.53.53 0 0 0 .4-.14c.45.52 1 .89 1.53.58a1.37 1.37 0 0 0 .58-1c.44 0 .75.44 1.14.71a.9.9 0 0 0 .58.16C10.16 63.73 4.83 69.08 8 70.8c2.48 1.34 3.77-1.51 5.35-3a29.1 29.1 0 0 1 5.85-3.94.14.14 0 0 0 .09 0c4.84-2.86 11-3.28 16.17-5.59a8.47 8.47 0 0 0 3.54-.91c1-.46 2-.94 3-1.4a6.48 6.48 0 0 1 4.51-.28l1 .32c2.84 1.81 7.14 4.09 8.14-.43a57.25 57.25 0 0 1 1.28-5.71c1.4-1 2.84-1.87 4.26-2.7a.27.27 0 0 0 .15-.08c2.84-1.65 5.62-3.24 8-5.9l.25-.28c2.67-1 7.07 1.44 8.66 2.62s3.62 3 5.42 1.61a1.3 1.3 0 0 0 .15-.16.4.4 0 0 0 .27-.36 7.16 7.16 0 0 0 .43-1 9.28 9.28 0 0 1 2.06-3.48 14.24 14.24 0 0 0 1-3.13c2-2.82 6.91-3.18 10.31-3.38a8.61 8.61 0 0 0 2.58.28c1.34.15 2.52.48 2.44 2.08a.12.12 0 0 0 .24 0 2.11 2.11 0 0 0-.66-2.17 3.79 3.79 0 0 1 1.31.73 2 2 0 0 1 .72 2.41c-.06.09.08.17.14.08a1.6 1.6 0 0 0 .27-1.19c1.58 2.39 2.4 6 4.47 7.54.91.67 3 1.14 3.91.38.47-.37 1.91.85 2.38 1a9.18 9.18 0 0 0 3.49.58.3.3 0 0 0 .24.11 1.24 1.24 0 0 0 .6-.16.24.24 0 0 0 .2-.18c.61-.78-.46-2.67-.85-3.28a24.54 24.54 0 0 0-3.08-3.54.19.19 0 0 0 .14 0l1.56 1h.06c.22.2.45.41.68.59 1.12.88 2.25 1.55 3.26 2.34a11.7 11.7 0 0 1 1.19 1.35 5.17 5.17 0 0 1 .55 1 13.21 13.21 0 0 0-.38 2.94c.28 1.93 1 3.66 1.17 5.64a9.67 9.67 0 0 0 .16 1.13c1.35 6.39 6.78 11.33 7.55 17.7a.27.27 0 0 0 .2.23c-.13.13 0 .3.18.23 1.48-.65 2.28-2.16 3.12-3.48 1.5-2.38 3.59-4.35 5.17-6.7a5.9 5.9 0 0 0 .54-6.23 5.53 5.53 0 0 0 0-1c4.14 2.11 7.7-.88 10.67-3.88a.2.2 0 0 0 .1 0c2.32-1.94 7.22-7.4 1.79-8.87zm-19.39-3.58v-.1h.07zM45.57 1.36l-.16.21c-.15.12-.28.24-.42.37l.08-.1a4.63 4.63 0 0 1 .5-.48zM2.21 57.31a.73.73 0 0 0 .34.35.12.12 0 0 0 0 .16l.2.14a7.49 7.49 0 0 0 .07 1 2.26 2.26 0 0 1-.61-1.65zm1.12 1a6.84 6.84 0 0 0 .1 1l-.12-.09a2.43 2.43 0 0 1-.18-.49c-.06-.25-.11-.49-.17-.73.13.18.25.28.38.35zm1.39.51a1.94 1.94 0 0 0 .4 1.23h-.14L4.7 60a2 2 0 0 1-.34-.66c-.06-.2-.1-.41-.15-.61a4.28 4.28 0 0 0 .52.13zm-.79-.23a4.81 4.81 0 0 0 .19 1.15l-.25-.12a1.8 1.8 0 0 1-.25-.62c0-.19-.06-.37-.08-.56zm8.88.67a1.1 1.1 0 0 0-.75 0v-.17c.13-.52.62-.17 1 0a.85.85 0 0 0 .78-.16.14.14 0 0 0-.07-.26c-1 0-1.79-1.22-2.4.15-.24.54-.15 1.31-.92.85A8.27 8.27 0 0 1 9 58.46a.08.08 0 0 0-.12.09c.11.18.27.47.47.77a1.59 1.59 0 0 0-1.4 0 6.58 6.58 0 0 1-2.31.68.1.1 0 0 0-.14 0c-.27.14-.43-.58-.53-1.06a4.82 4.82 0 0 0 .56 0 3.1 3.1 0 0 0 .2.79.07.07 0 0 0 .13 0c0-.26-.1-.5-.15-.75h.42a5.13 5.13 0 0 0 .29.77.09.09 0 0 0 .17 0 2.4 2.4 0 0 0-.2-.75A13.87 13.87 0 0 0 9 58.2a7.23 7.23 0 0 1 4.73-.47 8.6 8.6 0 0 1 .27 1.16 4 4 0 0 0 .1.46c-.54.47-.77.18-1.29-.04zm3.7-2.92a10.89 10.89 0 0 1-.93.72l-.44-.06a3.84 3.84 0 0 0 1-.7zm-2.23 1.56a8 8 0 0 1 .27 1.4h-.1a3.27 3.27 0 0 1-.28-.73 5.87 5.87 0 0 0-.17-.77h.15zm1.29.26a1 1 0 0 0 .14.33l-.06.07-.13.13a3 3 0 0 0-.12-.53zm.38.07l-.07-.09H16zm.94-1l-.09.09h-.09c.2-.22.4-.43.61-.64l.23.13a2.32 2.32 0 0 0-.67.42zm-.5 0a4.15 4.15 0 0 1-.51-.07 10.87 10.87 0 0 0 .95-.72l.21.06a3.14 3.14 0 0 0-.66.74zm-1.51.83a2.94 2.94 0 0 0 .22 1l-.19.2a3.57 3.57 0 0 0-.43-1.26zM46.76 50c2.56 0 3.51 3.32 4.42 5.2a8 8 0 0 0 1 1.57c-2.62-1.7-3.64-7.55-7.58-5a.06.06 0 0 0 .06.11c2.86-1.44 4.31 1.27 5.65 3.35a8.22 8.22 0 0 0-4.76-2.59 16.35 16.35 0 0 1 2.93 1.3 5.45 5.45 0 0 1 1.38 1.24c-.4-.29-.8-.57-1.22-.84a11.94 11.94 0 0 0-5.34-1.42 3.43 3.43 0 0 1 2.3-.73c.09 0 .09-.12 0-.14a2.32 2.32 0 0 0-1.34-.13c.8-.69 1.63-1.35 2.49-2-.03.03-.02.08.01.08zm-3.59 3a15 15 0 0 1 6.09 2.72c-1.58-.45-3-1.25-4.57-1.73a5.68 5.68 0 0 0-2.48-.14c.14-.15.28-.29.42-.42s.36-.3.54-.44zm7.5 2.79v.06zm-7.54-.82h.07-.08zm31.7-19.46a5 5 0 0 1 5.59.23c1.32 1.07 1.67 3.05 2.15 4.59 0 .12.23.1.22 0A6.78 6.78 0 0 0 80 34.81a4.57 4.57 0 0 0-4.17-.11q.51-.38 1-.73a4.9 4.9 0 0 1 6.07 1.83c.58.81.69 2.24 1 3.17a3.48 3.48 0 0 0 .9 1.32l-.25.4a1.38 1.38 0 0 1-.34 0 1.47 1.47 0 0 1-1-1.1c0-.14-.27-.11-.25 0a2.13 2.13 0 0 0 1.4 1.51 12.47 12.47 0 0 0-.79 1.79h-.11c-.09-.06-.17.08-.08.14a.39.39 0 0 0 .13.06c-.1.25-.2.51-.32.76a.68.68 0 0 1-.06.08 5.55 5.55 0 0 1-.73-1.06c-.59-1-.62-2.33-1-3.37a5.24 5.24 0 0 0-2.79-2.4 6.12 6.12 0 0 0-5.64.17c.58-.66 1.21-1.27 1.85-1.8zm7.88-3.7a2.66 2.66 0 0 1 3 2c.18.65.28 1.32.48 2a2.45 2.45 0 0 0 .43.88 4 4 0 0 0-.15.38c-.49.11-1-1.15-1.14-1.5a8 8 0 0 0-1.21-1.64 4.47 4.47 0 0 0-3.38-1.75 16.71 16.71 0 0 1 1.83-.46c.01-.01.05.07.13.05zm7 2.26c-.27-.31-.55-.62-.85-.91 0-.21 0-.42-.06-.65a4 4 0 0 1 0-.52 17.16 17.16 0 0 0 1.64 1.81zm-.63.3a2.07 2.07 0 0 0-.3-.13 3.4 3.4 0 0 0 .08-.68c.17.23.35.44.54.65zm-.33.18h-.06v-.06zm-8.59-2.2c2.73-.37 4.07 2.41 5.05 4.42a2.08 2.08 0 0 0 1 1c-.35.66-.71 1.29-1 1.82-.55-.34-.91-2-1.05-2.51a5.23 5.23 0 0 0-.93-2.19 5.47 5.47 0 0 0-5.11-1.73 15.55 15.55 0 0 1 2.04-.85zm-8.43 6.15c1.9-2 4.7-1.71 7-.51s1.93 3.63 3.14 5.57l.13.18a9.45 9.45 0 0 1-1.65-2.27c0-.07-.17 0-.12.07a20.29 20.29 0 0 0 1.44 2.55 7.06 7.06 0 0 1-.95-.39 8.92 8.92 0 0 0-1.57-2.49s-.1 0-.07.07a5.92 5.92 0 0 1 1 1.76c0 .14.1.27.14.41l-.83-.45a6.56 6.56 0 0 0-2-2.54 6.68 6.68 0 0 0-4.21-1l.51-.19a6.43 6.43 0 0 1 6.13 1.58c.14.15.35-.07.22-.22a6.84 6.84 0 0 0-4.65-2.22 12.59 12.59 0 0 0-4.4.88zm.12 1.5l.8-.32a8 8 0 0 1 4.63 1.51 5.81 5.81 0 0 1 .94 1c-.65-.44-1.17-.81-1.38-.94A12.46 12.46 0 0 0 71.85 40zm43.66-2.65a1.82 1.82 0 0 1-.4-.46l.55.45a.14.14 0 0 0-.14.03zm1.05.78a2.29 2.29 0 0 0-.28-.24l.39.34zm13.14 25.44c-1.65-4.82-3-9.46-3.21-14.66a.07.07 0 0 0-.14 0A36.73 36.73 0 0 0 128 60.27a23.14 23.14 0 0 1-2.48-9.13v-1.3a4.75 4.75 0 0 1 .34-1 1.23 1.23 0 0 1 .46-.39 3.85 3.85 0 0 0 1.43 0 34.38 34.38 0 0 0 1.47 9.66c.51 1.8 1.22 3.55 1.88 5.3a13.28 13.28 0 0 1 .51 3.59c-.31-.67-.67-1.34-1.05-2zm2.35 4.63a22.4 22.4 0 0 0-1.41-7.6 38.33 38.33 0 0 1-2.82-12.17 6.43 6.43 0 0 0 1.08-.3c.49 7.77 6.5 15.2 4.32 22.95a.25.25 0 0 0 .08.27c-.16.2-.33.39-.5.58a11.36 11.36 0 0 0-.74-3.7zm1.95 2.28c1.91-7.58-4.2-14.84-4.94-22.38a7.18 7.18 0 0 0 1.31-.67 18.6 18.6 0 0 0 2.34 7.65c2.09 4.16 3.54 7.38 3.53 12-.76 1.12-1.47 2.3-2.24 3.4zm7.29-16.17a2.79 2.79 0 0 0-1.3-1.68c-.09-.05-.2.08-.11.15a2.49 2.49 0 0 1 .78 2 34.41 34.41 0 0 0-2.26-3c-.09-.11-.22 0-.17.13a44.34 44.34 0 0 0 2.12 4 5.08 5.08 0 0 1 .41 4.13c-.64-4.62-6.15-9.47-7.62-13h-.05c2 5.25 7.12 9.08 6.8 14.92-.26.44-.54.87-.84 1.29.42-6.24-6.89-10.63-7-17a.08.08 0 0 0-.15 0c-.25 6.66 6.3 11 6.61 17.74l-.82 1.05c-.17.22-.33.44-.5.67.8-6.27-5.95-12.31-6.6-18.42a3.73 3.73 0 0 0 1.17-1.29c0-.09-.08-.2-.15-.11a5 5 0 0 1-2.9 1.57 8.53 8.53 0 0 1-3.35-.27v-.14c.07-3.17-1.7-6.48-3.65-8.8-.11-.13-.28.05-.18.18a12.77 12.77 0 0 1 2 3.75 12.8 12.8 0 0 0-2.44-2c-3.29-2.13-5.84-5-9-7.25-.06 0-.12.06-.06.1a25.18 25.18 0 0 1 3.7 3.81l-.93-.52a2.2 2.2 0 0 0-.57-.68c-.08-.05-.14.07-.07.12a1.32 1.32 0 0 1 .27.3.11.11 0 0 0-.08.16 34.08 34.08 0 0 0 2.79 4.12c.49.68 2.47 3 2.27 4.16a13 13 0 0 1-3.07-3c-.75-1.09-1.37-2.26-2-3.41h-.08c1.07 2.1 2 4.72 3.85 6.25l-.68-.17a.21.21 0 0 0-.21-.24 1.62 1.62 0 0 1-1.65-.93 10.3 10.3 0 0 0-.93-1.65c0-.06-.14 0-.1.08a17.3 17.3 0 0 1 .94 2 3.72 3.72 0 0 1-.49-.48 2 2 0 0 0-.6-.48c-.21-.59-.29-1.24-.5-1.82a12.69 12.69 0 0 0-1.5-3c0-.06-.14 0-.1.06a11.07 11.07 0 0 1 1.71 3.84 5.13 5.13 0 0 1 .09.51c-2.06-3.15-3.28-7.58-7.8-7.61a.06.06 0 0 0 0 .12c3 .16 4.91 2.75 5.93 5.3a23.82 23.82 0 0 0 1 2.68l-.17.11-.21.14c-.87-.61-1.11-2-1.6-3.11a6.75 6.75 0 0 0-2.86-3.47v.08c2.27 1.37 2.45 3.62 3.37 5.84a3.33 3.33 0 0 0 .61 1l-.2.08c-1.53-.17-2.54-4.71-3.48-5.37-.06 0-.11.05-.06.1.67.51 1.56 4 2.78 5.36a2.6 2.6 0 0 1-1.41-.66 3.9 3.9 0 0 1-.35-.58 8 8 0 0 0-1-1.8c-.05-.06-.16 0-.11.09a7.65 7.65 0 0 1 .8 1.6 12.58 12.58 0 0 1-1.32-2.06c-1.19-2.22-2.32-5.43-4.72-6.48 3-.06 6.42.21 8.17 1.79a.19.19 0 0 0 .27-.27c-2.85-2.92-10.12-2.32-13.72-2.19a28.72 28.72 0 0 0-7.2 1c-.61-.72-1.29-1.39-1.94-2.08a3.22 3.22 0 0 1 .25-.95 30.27 30.27 0 0 1 2.06 2.62c.1.12.27-.05.17-.17a22.11 22.11 0 0 0-2.17-2.6c.24-.51.58-1 .91-1.6a.1.1 0 0 0-.15-.12A6.57 6.57 0 0 0 88.11 31a3.64 3.64 0 0 0-.2 1.32c-1.28-.56-2.24-2-3.76-1.32-.06 0 0 .13 0 .11 1.37-.44 2.53 1.41 3.74 1.87a11.16 11.16 0 0 1 0 1.18 14.06 14.06 0 0 1-.57 1.37 4.46 4.46 0 0 0-.3.34 4.12 4.12 0 0 1-.26-.69c-.18-.57-.3-1.16-.52-1.72a3.32 3.32 0 0 0-2.77-2 .16.16 0 0 0-.1-.28 13.84 13.84 0 0 0-8.2 2.45 2.49 2.49 0 0 0-1.51.3c-.08 0 0 .19.07.16a3 3 0 0 1 1.1-.2 23.57 23.57 0 0 0-3.77 3.51c-2.43 2.75-4.52 5.53-7.7 7.49l-.27.16.34-.38A4.08 4.08 0 0 0 64.59 42c0-.09-.14-.11-.16 0-.25 1.57-1.68 2.31-2.71 3.32a3.81 3.81 0 0 0 .44-1.25.11.11 0 0 0-.21-.06c-.46 1.53-1.75 2.36-3 3.25 1.85-1.86 3.39-3.86 2.75-6.74 0-.08-.15 0-.13 0 .51 2.63-1 4-2.66 5.5a8.3 8.3 0 0 0 1.64-7.11.11.11 0 0 0-.21.06 6.15 6.15 0 0 1-.16 2.89 1 1 0 0 0-.38-.35c-.08 0-.16.08-.07.13a1 1 0 0 1 .4.4c-.07.2-.14.4-.23.59a.9.9 0 0 0-.7-.26.08.08 0 0 0 0 .16.59.59 0 0 1 .57.38c-.11.24-.24.47-.37.7a1.26 1.26 0 0 0-.57-.58c-.11-.06-.25.1-.14.18a1.42 1.42 0 0 1 .5.71l-.29.44-.1-.22c-.19-.36-.59-.33-.91-.18-.11.05 0 .24.08.19.48-.2.5.32.54.74l-.5.67c-.1-.52-.41-1-1-.82a.06.06 0 0 0 0 .13c.59 0 .76.53.73 1l-.63.82c-.07-.19-.15-.36-.2-.46a1.2 1.2 0 0 0-1.13-.81 12.43 12.43 0 0 0 2.59-2.05c.06-.07 0-.16-.1-.1a13.35 13.35 0 0 1-4.47 3c-1.4.59-2.9.88-4.27 1.54-.08 0 0 .14 0 .13a.86.86 0 0 0-.14.2.08.08 0 0 0 .14.08.55.55 0 0 1 .49-.21.14.14 0 0 0 0-.27c1.41-.58 2.89-.89 4.27-1.55q.58-.28 1.13-.6a.12.12 0 0 0 .13.11c.6-.05.79.59.91 1.05 0 .15.05.36.11.54-.12.17-.21.35-.31.52a4.07 4.07 0 0 0-1.63-1.75c-.1-.07-.21.08-.12.16.31.3.65.58.95.89a2.25 2.25 0 0 1 .53 1.16c-.11.21-.2.43-.29.65a9.83 9.83 0 0 0-.7-1.05 2.14 2.14 0 0 0-2.1-.94c-.12 0-.09.22 0 .21 1-.09 1.6.64 2 1.46.21.41.32.92.5 1.37a14.29 14.29 0 0 0-.38 1.49l-.2.52a4.68 4.68 0 0 1-.65-1.81A4.79 4.79 0 0 0 52 47.53c-.08 0-.15.08-.07.13A4.79 4.79 0 0 1 53.8 50a14.31 14.31 0 0 1 .38 1.56 2.43 2.43 0 0 0 .51 1 12.46 12.46 0 0 0-.22 1.44c-.77-.84-1.12-2.68-1.45-3.49a4.27 4.27 0 0 0-2.45-2.6c-.12 0-.17.15-.05.19 2.07.83 2.42 3.08 3 5a4 4 0 0 0 .85 1.63 7.79 7.79 0 0 1-.25 1.22 5.89 5.89 0 0 1-1.33-1.53 19.19 19.19 0 0 1-1.42-3.16c-.54-1.26-1.37-2.54-2.89-2.2v.07c1.74-.26 2.37 1.84 2.73 3.11a10 10 0 0 0 1.62 3.55 4.63 4.63 0 0 0 .91.95l-.07.08c-3.23-.55-2.82-7.52-6.92-6.94a21.42 21.42 0 0 1 2.06-1.33c.16-.09 0-.33-.14-.25-5.24 2.59-8.86 7.05-14.44 9.24-2.31.9-5 1.54-7.62 2.34 1.56-1.53 3.24-3 4-5.09 0-.11-.13-.15-.17 0-.95 2.31-2.94 3.64-4.59 5.37-.93.3-1.84.63-2.72 1 .19-.17.39-.32.57-.51s-.05-.27-.18-.18c-3.77 2.92-9 4.2-12.12 7.94-.18.23-.37.46-.55.68-.29 0-.59-.2-.9-.67a6.22 6.22 0 0 1 .8-1.73 11.49 11.49 0 0 1 1.78-2.19c1.12-1.16 2.41-2.12 3.5-3.32.05-.06 0-.15-.09-.09a45.39 45.39 0 0 1-3.55 3.27 19.55 19.55 0 0 0-2.71 3.34 1.45 1.45 0 0 0-.31 1.18 1.41 1.41 0 0 1-.16-2.33 24.17 24.17 0 0 1 2.91-3.34c.95-1 1.89-1.92 2.77-2.91a.25.25 0 0 0 .08-.07 12.76 12.76 0 0 0 2.14-2.14 2.64 2.64 0 0 1 1.08-.93c.47-.2.85 0 1.29-.3a.09.09 0 0 0-.07-.16 6.11 6.11 0 0 1-1.33 0c-.38-.52-1.11-.56-1.72-.68a.09.09 0 0 0-.15-.06c-1.12-.26-2.13-.93-3.24-1.27-.1 0-.13.11 0 .15.94.35 1.78.89 2.7 1.29l.3.11a3.19 3.19 0 0 1-1 .68c-.58-.19-1.15-.41-1.73-.56a7.21 7.21 0 0 0-6.33.24c-.07 0 0 .13.06.1a4.92 4.92 0 0 1 4-.19c-2.49.91-5 2.74-7.54 1.47a4.74 4.74 0 0 1-.63-.37.11.11 0 0 0-.09 0 2.68 2.68 0 0 1-.15-1.69 13.86 13.86 0 0 1 1-2 20.85 20.85 0 0 0 3.69-5c.05-.11-.1-.2-.16-.09a11.79 11.79 0 0 1-2 2.34l.13-.27a57.11 57.11 0 0 1 3.64-7c-.4 1.44-.55 2.88-1.49 4.13 0 0 0 .07.06 0a7 7 0 0 0 1.47-3.2 19.72 19.72 0 0 1 1.55-3.52c.61-.87 1.25-1.73 1.93-2.58 1.1-1.37 2.29-2.71 3.54-4a11.28 11.28 0 0 1 1.15-.79 3.28 3.28 0 0 1 2.75-.42.11.11 0 0 0 .1-.18 2.72 2.72 0 0 0-2-.53l.88-.8c1.63-.16 2.26 1.93 3.7 2.48.06 0 .09-.07 0-.1-1.32-.59-1.86-2.64-3.34-2.68.37-.27.73-.55 1.1-.82.62.31 1.27.47 1.55 1.21a3.23 3.23 0 0 0 .48 1c.71.77 2.11 1 3.09 1.19.06 0 .11-.07 0-.11a7.37 7.37 0 0 0-1.38-.46A2.54 2.54 0 0 1 22 32c-.31-.85-.9-.95-1.63-1.24 3.6-2.71 7-5.72 10.68-8.36a39.3 39.3 0 0 0 9.05-8.16s0-.08-.06 0A36.07 36.07 0 0 1 33.18 20a17.31 17.31 0 0 0 3.7-4.23.09.09 0 0 0-.15-.09 14.92 14.92 0 0 1-4.59 4.43l-.28.17c2.13-2.28 4.07-4.75 6-7.22 3-3.84 5.14-8.58 8.79-11.86a.94.94 0 0 1 1 .3A8.21 8.21 0 0 0 46 3.69 59.21 59.21 0 0 1 37.78 15a.09.09 0 0 0 .13.13A45.58 45.58 0 0 0 44 8c1.5-2.1 2.87-5.42 5.41-6.33.55.17 1.09.36 1.63.57a7.81 7.81 0 0 0-1.78 1.69c-2.44 2.89-4.73 5.9-7.1 8.85-.06.08 0 .18.11.11 1.66-2 3.31-4 5-6 1-1.18 3-4 4.9-4.19l1 .46c-1.6.3-2.92 1.93-3.87 3.16-2.62 3.39-5.28 7.93-9.18 10-.12.07 0 .25.11.19 2.43-1.27 4.26-3.76 6.18-5.68 2.17-2.17 4.5-7.23 8-7h.06l1 .5c-1.42.2-2.61 1.53-3.57 2.72-2.92 3.6-5.54 7-9.46 9.62-.07 0 0 .15.06.11a30.92 30.92 0 0 0 6.53-5.55c1.63-1.78 5-7.23 7.85-6a.35.35 0 0 0 .35 0l.52.27c-1.71.5-3.08 2.28-4.17 3.63a31.58 31.58 0 0 1-11.56 9.2c-.08 0 0 .15.07.12a28 28 0 0 0 8.65-5.47c2.14-2.07 4.9-6.59 8.16-6.89l1.32.67a9.64 9.64 0 0 0-2 1.5c-2.79 2.51-4.73 5.53-8.27 7.13-.11 0 0 .2.09.16a17.24 17.24 0 0 0 5.32-3.84c1.05-1 3.7-4.39 5.78-4.51l.71.34c-2.42 1.19-3.92 4.09-6.39 5.28-.09 0 0 .17.08.13a14 14 0 0 0 3.66-2.59 20.73 20.73 0 0 1 2.25-1.8 6.66 6.66 0 0 1 1.34-.6l.67.29C62.5 9.14 61 9.54 60 10.34s-2.37 2.24-3.73 3.13a31.76 31.76 0 0 0-4.77 1.72 4.84 4.84 0 0 0-2 .78 24 24 0 0 1-3.13 1.16.1.1 0 0 0 .05.2 10.48 10.48 0 0 0 2.44-.52c.67-.31 1.3-.67 2-1a.15.15 0 0 0 .16 0c8.74-3.48 18.45-3.19 27.55-1.61 4.76.83 9.38 2.4 14.1 3.39 4 .83 7.67 3.14 11.7 3.39h.09a8.53 8.53 0 0 0 1.72-.15 4.94 4.94 0 0 0 2.24-.81c.1-.07 0-.24-.1-.17-1.19.74-2.59.24-3.87.36-.71-.17-1.41-.36-2.11-.56a12 12 0 0 0 2.18-.19c2-.36 4.06-.86 6.13-1.08a4.62 4.62 0 0 1 3.81 1.15 2.72 2.72 0 0 0-2.77.22c-.12.1 0 .31.17.22 1.28-.89 2.73.18 3.32 1.4a2.65 2.65 0 0 1-.16.77 1.78 1.78 0 0 0-.39-1 1.25 1.25 0 0 0-2.16.1c-.1.21.2.39.31.18.39-.72 1.09-.48 1.46.12a1.25 1.25 0 0 1 .19.9c-.09.43-.41.63-.69.91a2.07 2.07 0 0 0-1-1.41c-.06 0-.13.05-.08.1a1.9 1.9 0 0 1 .6 1.92 6.91 6.91 0 0 1-1-2.12.13.13 0 0 0-.25 0 6.06 6.06 0 0 0 .94 2.86.53.53 0 0 0 .37.54c1.54 2 4.17 3.32 6.33 4.65a36.28 36.28 0 0 1 7.32 6.1 6.21 6.21 0 0 0 2.83 1.81 4.07 4.07 0 0 1-3.21-.56c-.12-.09-.27.11-.16.2a4.33 4.33 0 0 0 3.31 1.08h3.06a.47.47 0 0 0 .11.12c1.48 1 .64 4.26-.23 5.44-.07.09.07.18.15.11a5.51 5.51 0 0 0 1.62-4.16 1.69 1.69 0 0 1 .76-1.15 3.26 3.26 0 0 1 .83-.36 23.7 23.7 0 0 1 5 .62 18.94 18.94 0 0 0 3.21.58 29.72 29.72 0 0 1-5-.76v.07a29.75 29.75 0 0 0 8.05 1.41 25.49 25.49 0 0 1 2.92 1.27 39.47 39.47 0 0 1-6 .34c-3-.1-5.79-1.57-8.56-2.62-.09 0-.12.11 0 .14 2.83 1.13 5.45 2.76 8.51 3.2a21.47 21.47 0 0 0 7.3-.48l1.11.55a6.7 6.7 0 0 1 .84.49 17.09 17.09 0 0 1-16.76-1.67c-.09-.07-.22.09-.12.16 4.46 3.47 12.44 5.34 17.56 2.08a2.68 2.68 0 0 1 .82 1.73c-5.42 4.12-14.8-.26-19.86-3a.08.08 0 0 0-.08.13c5 2.87 14.08 7.9 19.79 4a8.4 8.4 0 0 1-1.46 2.59.16.16 0 0 0-.17 0c-5.93 2.14-13.25-1-17.9-4.7-.07-.05-.16 0-.1.1 3.6 3.12 11.89 8.15 17 5.66-.52.46-1.05.92-1.59 1.36-6 1.85-10.45-1.79-15.26-5.1-.15-.1-.28.13-.14.24 3.51 2.57 8.71 7.21 13.49 6.28q-.37.24-.75.46a.22.22 0 0 0-.23-.08c-3.3.81-6.32-.52-8.91-2.55 0 0-.1 0-.06.06 1.85 1.54 4.66 3.5 7.3 3.39a6.81 6.81 0 0 1-4.72-.15z" fill="#0d465b"/><path class="cls-1" d="M131.31 43.85a5.39 5.39 0 0 0 .54-.88.13.13 0 0 0-.22-.13l-.55.74-.67-.75a8.62 8.62 0 0 0 1.25-1.61.12.12 0 0 0-.19-.15 15.37 15.37 0 0 0-1.29 1.52l-.51-.53a11.48 11.48 0 0 0 1.8-2.34.12.12 0 0 0-.19-.15c-.66.69-1.24 1.5-1.88 2.21a54.42 54.42 0 0 0-8.33-6.91c.1-.15.2-.3.29-.46a.13.13 0 0 0-.23-.13l-.27.45-.63-.43c.1-.13-.12-.29-.22-.17a75.3 75.3 0 0 0-23.64-9.84v.08a94.57 94.57 0 0 1 23.08 10.53l-.33.5c-.1.15.14.29.25.14l.33-.48.69.46v.08a.1.1 0 0 0 .17.1v-.07a64.4 64.4 0 0 1 8.37 6.62 4.89 4.89 0 0 1-1.72 1.09c-.15.05-.09.29.07.24a5.68 5.68 0 0 0 1.9-1.09l.57.55a9.5 9.5 0 0 1-1.66 1.43.06.06 0 0 0 .06.11 8.8 8.8 0 0 0 1.85-1.31l.74.75c-.14.17-.28.34-.43.49s0 .25.14.18a3.31 3.31 0 0 0 .52-.43c1 1.08 2 2.19 3 3.35.11.13.34 0 .24-.18a44.18 44.18 0 0 0-2.9-3.58z" fill="#0d465b"/><path class="cls-1" d="M136.17 50.17a11.81 11.81 0 0 0-1.44-2c0-.06-.14 0-.1.06A15.84 15.84 0 0 1 135.9 50l-.19-.16s-.1 0-.06.08.27.24.4.36l.07.14h.1c.28.27.56.55.82.85a16.94 16.94 0 0 0 1.25 1.51.1.1 0 0 0 .15-.12 6.73 6.73 0 0 0-1.25-1.54 10.88 10.88 0 0 0-1.02-.95z" fill="#0d465b"/><path class="cls-1" d="M18.26 58.42a4.85 4.85 0 0 0-.64.82c0 .08.07.15.12.07a4.69 4.69 0 0 1 .61-.8c.06-.05-.03-.15-.09-.09z" fill="#0d465b"/><path class="cls-1" d="M23.19 53.7a6.57 6.57 0 0 0 .6 1.34.06.06 0 0 0 .1-.06c-.2-.44-.38-.88-.56-1.32-.03-.09-.17-.05-.14.04z" fill="#0d465b"/><path class="cls-1" d="M24.1 53.37c.09.62.23 1.22.32 1.84 0 .1.19.08.18 0-.08-.63-.25-1.23-.35-1.85-.01-.14-.16-.09-.15.01z" fill="#0d465b"/><path class="cls-1" d="M24.17 58.72c-.06-.1-.22 0-.16.09a2 2 0 0 0 .53.7c.08.06.18-.07.11-.14a3.25 3.25 0 0 1-.48-.65z" fill="#0d465b"/><path class="cls-1" d="M24.91 57.84c-.13-.17-.41 0-.29.17a1 1 0 0 0 .61.47.14.14 0 0 0 .14-.24 4.83 4.83 0 0 1-.46-.4z" fill="#0d465b"/><path class="cls-1" d="M30.44 56.72c-.26.41-.56.77-.84 1.16-.06.08.08.18.14.11a11.44 11.44 0 0 0 .84-1.19c.06-.09-.08-.17-.14-.08z" fill="#0d465b"/><path class="cls-1" d="M31.18 56.78a.7.7 0 0 1-.16.6c-.06.09.08.19.15.11a.76.76 0 0 0 .19-.76c-.04-.1-.2-.06-.18.05z" fill="#0d465b"/><path class="cls-1" d="M32 56.51l.05.17c0 .21.35.21.33 0a.57.57 0 0 0-.11-.33.16.16 0 0 0-.27.16z" fill="#0d465b"/><path class="cls-1" d="M23.18 35.26a4.35 4.35 0 0 1 1.14.19.11.11 0 0 0 .08-.2 2.36 2.36 0 0 0-1.22-.32c-.18-.01-.18.32 0 .33z" fill="#0d465b"/><path class="cls-1" d="M26.43 34.83a.07.07 0 0 0 0-.13.07.07 0 0 0 0 .13z" fill="#0d465b"/><path class="cls-1" d="M25.76 32.78a2.87 2.87 0 0 1-2.3-1.11 5.09 5.09 0 0 0-1.68-1.52v.07c1.4.91 2.05 3 4 2.7.08-.02.05-.14-.02-.14z" fill="#0d465b"/><path class="cls-1" d="M27 33.47a1 1 0 0 0-.26-.18c-.05 0-.12 0-.07.09a1 1 0 0 0 .26.17c.07.03.17-.04.07-.08z" fill="#0d465b"/><path class="cls-1" d="M27.93 33.67a.08.08 0 0 0 0-.16.08.08 0 0 0 0 .16z" fill="#0d465b"/><path class="cls-1" d="M25.34 35.64c.18 0 .16-.29 0-.25a.37.37 0 0 0-.27.15.08.08 0 0 0 .08.14z" fill="#0d465b"/><path class="cls-1" d="M26.4 35.48a.2.2 0 0 0 .36 0 .16.16 0 0 0 0-.11.17.17 0 0 0 0-.07c-.12-.14-.44-.05-.36.18z" fill="#0d465b"/><path class="cls-1" d="M27.69 34.77l.08-.08a.13.13 0 0 0-.19-.19l-.08.08a.13.13 0 0 0 .19.19z" fill="#0d465b"/><path class="cls-1" d="M29.1 33.61l.07-.09c.1-.14-.1-.35-.24-.24l-.09.07a.19.19 0 1 0 .26.26z" fill="#0d465b"/><path class="cls-1" d="M26.18 31.86a.1.1 0 0 0 0-.2.1.1 0 0 0 0 .2z" fill="#0d465b"/><path class="cls-1" d="M24.42 30.43c.25-.4-.29-.74-.61-.47a.56.56 0 0 0-.21.44c-.06.54.75.54.82.03z" fill="#0d465b"/><path class="cls-1" d="M24.51 28.88a.21.21 0 0 0 0-.41.21.21 0 0 0 0 .41z" fill="#0d465b"/><path class="cls-1" d="M25.59 30.17a.41.41 0 0 0 0-.81.41.41 0 0 0 0 .81z" fill="#0d465b"/><path class="cls-1" d="M25.09 31.63a.17.17 0 0 0 .19-.18.3.3 0 0 0 0-.16.18.18 0 0 0-.3 0 .3.3 0 0 0 0 .16.17.17 0 0 0 .11.18z" fill="#0d465b"/><path class="cls-1" d="M26.68 30.54a.2.2 0 0 0 0-.4.2.2 0 0 0 0 .4z" fill="#0d465b"/><path class="cls-1" d="M22.51 29.93a.12.12 0 0 0 .16 0c.38-.35-.63-.35-.25 0z" fill="#0d465b"/><path class="cls-1" d="M23.51 29.18a.16.16 0 0 0 0-.33.16.16 0 0 0 0 .33z" fill="#0d465b"/><path class="cls-1" d="M26.13 28h.09a.4.4 0 0 0 0-.69h-.09c-.88-.49-.81 1.09 0 .69z" fill="#0d465b"/><path class="cls-1" d="M27.09 28.58a.33.33 0 0 0 0-.28.25.25 0 0 0-.43 0 .33.33 0 0 0 0 .28.26.26 0 0 0 .43 0z" fill="#0d465b"/><path class="cls-1" d="M27.85 29.33v-.07a.17.17 0 0 0-.29 0v.07c-.23.38.44.38.29 0z" fill="#0d465b"/><path class="cls-1" d="M25.51 28.73h.08a.13.13 0 0 0 0-.27h-.08a.13.13 0 0 0 0 .27z" fill="#0d465b"/><path class="cls-1" d="M27.21 27h.06c.35-.15.12-.61-.17-.64H27c-.49-.09-.42.9.21.64z" fill="#0d465b"/><path class="cls-1" d="M27.76 27.76a.16.16 0 0 0 0-.33.16.16 0 0 0 0 .33z" fill="#0d465b"/><path class="cls-1" d="M28.18 26.22a.3.3 0 0 0 0-.59.3.3 0 0 0 0 .59z" fill="#0d465b"/><path class="cls-1" d="M28.68 25.13a.2.2 0 0 0 0-.4.2.2 0 0 0 0 .4z" fill="#0d465b"/><path class="cls-1" d="M29.91 24.43v-.08a.14.14 0 0 0-.29 0v.08a.15.15 0 0 0 .29 0z" fill="#0d465b"/><path class="cls-1" d="M30.4 24h.07a.17.17 0 1 0 0-.32h-.07a.16.16 0 0 0 0 .32z" fill="#0d465b"/><path class="cls-1" d="M29.34 25.51a.17.17 0 0 0 0-.33.17.17 0 0 0 0 .33z" fill="#0d465b"/><path class="cls-1" d="M28.68 27.15a.14.14 0 0 0 0-.28.14.14 0 0 0 0 .28z" fill="#0d465b"/><path class="cls-1" d="M28.65 28.22a.13.13 0 0 0 .07.26h.07a.13.13 0 0 0 .1-.13v-.07a.12.12 0 0 0-.24-.06z" fill="#0d465b"/><path class="cls-1" d="M28.17 30.86a.16.16 0 0 0 .18-.08c.19-.37-.46-.48-.44-.12a1 1 0 0 0 0 .19c.09.06.18.06.26.01zm.06 0z" fill="#0d465b"/><path class="cls-1" d="M27.18 31.33a.43.43 0 0 0 0 .86.43.43 0 0 0 0-.86z" fill="#0d465b"/><path class="cls-1" d="M28.59 32.54a.19.19 0 0 0 0-.38.19.19 0 0 0 0 .38z" fill="#0d465b"/><path class="cls-1" d="M27.87 32.86v-.07a.09.09 0 0 0-.16 0v.07c-.17.24.29.24.16 0z" fill="#0d465b"/><path class="cls-1" d="M26.68 32.72a.12.12 0 0 0 0-.25.12.12 0 0 0 0 .25z" fill="#0d465b"/><path class="cls-1" d="M25.76 33.37a.15.15 0 0 0 0 .29.15.15 0 0 0 0-.29z" fill="#0d465b"/><path class="cls-1" d="M23.76 32.88a.13.13 0 0 0 0 .26.13.13 0 0 0 0-.26z" fill="#0d465b"/><path class="cls-1" d="M29.3 31.34a.72.72 0 0 0 0-.21.18.18 0 0 0-.35 0 .72.72 0 0 0 0 .21.21.21 0 0 0 .35 0z" fill="#0d465b"/><path class="cls-1" d="M29.68 32.52a.09.09 0 0 0 0-.19.09.09 0 0 0 0 .19z" fill="#0d465b"/><path class="cls-1" d="M30 29.64v-.12a.31.31 0 0 0-.46-.26l-.1.07c-.63.42.45 1.06.56.31z" fill="#0d465b"/><path class="cls-1" d="M30.09 27.81a.21.21 0 0 0 0-.42.21.21 0 0 0 0 .42z" fill="#0d465b"/><path class="cls-1" d="M28.59 29.43a.08.08 0 0 0 0 .16.08.08 0 0 0 0-.16z" fill="#0d465b"/><path class="cls-1" d="M29.34 27.11a.18.18 0 0 0 0-.37.18.18 0 0 0 0 .37z" fill="#0d465b"/><path class="cls-1" d="M27.88 28.27a.49.49 0 0 0-.2.2c-.07.09.09.19.16.09l.13-.14c.1-.06.03-.21-.09-.15z" fill="#0d465b"/><path class="cls-1" d="M30.46 29c.43.2.84-.37.4-.62s-.79.43-.4.62z" fill="#0d465b"/><path class="cls-1" d="M30.43 26.25a.18.18 0 0 0 0 .35.18.18 0 0 0 0-.35z" fill="#0d465b"/><path class="cls-1" d="M30.18 25.51a.26.26 0 0 0 .5 0 .26.26 0 0 0 0-.12.28.28 0 0 0-.55 0 .26.26 0 0 0 0 .12z" fill="#0d465b"/><path class="cls-1" d="M31.47 25.13h.08a.48.48 0 1 0 0-.94h-.08a.47.47 0 0 0 0 .94z" fill="#0d465b"/><path class="cls-1" d="M31.77 23.25a.16.16 0 0 0 0-.32c-.35-.17-.35.5 0 .32z" fill="#0d465b"/><path class="cls-1" d="M32.51 22.57a.14.14 0 0 0 0-.28.14.14 0 0 0 0 .28z" fill="#0d465b"/><path class="cls-1" d="M32.76 24.84a.16.16 0 0 0 0-.33.16.16 0 0 0 0 .33z" fill="#0d465b"/><path class="cls-1" d="M31.59 26.22a.13.13 0 0 0 0 .26.13.13 0 0 0 0-.26z" fill="#0d465b"/><path class="cls-1" d="M31.68 27.7l-.15-.1c-.23-.14-.4.24-.14.34l.17.06c.18.06.26-.19.12-.3z" fill="#0d465b"/><path class="cls-1" d="M32.59 27.09a.16.16 0 0 0 0-.33.16.16 0 0 0 0 .33z" fill="#0d465b"/><path class="cls-1" d="M31.93 28.69a.15.15 0 0 0 0 .3.15.15 0 0 0 0-.3z" fill="#0d465b"/><path class="cls-1" d="M31 30.32a.14.14 0 0 0 0-.32.14.14 0 0 0 0 .32z" fill="#0d465b"/><path class="cls-1" d="M29.93 30.35a.16.16 0 0 0 0 .32.16.16 0 0 0 0-.32z" fill="#0d465b"/><path class="cls-1" d="M30.19 31.84l.2-.08a.16.16 0 0 0 0-.32.4.4 0 0 0-.34.09.18.18 0 0 0 .14.31z" fill="#0d465b"/><path class="cls-1" d="M31.08 31.84a.31.31 0 0 0-.18.28.21.21 0 1 0 .41.06c.19-.18-.04-.46-.23-.34z" fill="#0d465b"/><path class="cls-1" d="M31.83 31.39a.38.38 0 0 0 0-.11.13.13 0 0 0-.23 0 .38.38 0 0 0 0 .11.16.16 0 1 0 .23 0z" fill="#0d465b"/><path class="cls-1" d="M32.52 29.59h.06a.14.14 0 0 0 0-.25h-.06c-.34-.24-.34.42 0 .25z" fill="#0d465b"/><path class="cls-1" d="M33.43 27.78a.18.18 0 0 0 0-.36.18.18 0 0 0 0 .36z" fill="#0d465b"/><path class="cls-1" d="M34.09 26.68a.08.08 0 0 0 0-.16.08.08 0 0 0 0 .16z" fill="#0d465b"/><path class="cls-1" d="M35.26 24.79a.11.11 0 0 0 0-.22.11.11 0 0 0 0 .22z" fill="#0d465b"/><path class="cls-1" d="M33.43 25.67a.16.16 0 0 0 0-.32.16.16 0 0 0 0 .32z" fill="#0d465b"/><path class="cls-1" d="M34.84 23.27a.18.18 0 0 0 0-.36.18.18 0 0 0 0 .36z" fill="#0d465b"/><path class="cls-1" d="M34.43 24.86a.15.15 0 0 0 0 .29.15.15 0 0 0 0-.29z" fill="#0d465b"/><path class="cls-1" d="M35 26.26a.16.16 0 0 0 0-.32.16.16 0 0 0 0 .32z" fill="#0d465b"/><path class="cls-1" d="M35.26 27.88a.13.13 0 0 0 0 .27.13.13 0 0 0 0-.27z" fill="#0d465b"/><path class="cls-1" d="M33.84 29.22a.12.12 0 0 0 0-.25.12.12 0 0 0 0 .25z" fill="#0d465b"/><path class="cls-1" d="M34.12 28.26c-.12.18.18.36.29.17l.13-.14c.13-.12 0-.33-.18-.24a.53.53 0 0 0-.24.21z" fill="#0d465b"/><path class="cls-1" d="M33.09 30.29a.2.2 0 0 0 0-.4.2.2 0 0 0 0 .4z" fill="#0d465b"/><path class="cls-1" d="M36.51 26.51a.08.08 0 0 0 0-.16.08.08 0 0 0 0 .16z" fill="#0d465b"/><path class="cls-1" d="M33.68 24a.17.17 0 0 0 0-.33.17.17 0 0 0 0 .33z" fill="#0d465b"/><path class="cls-1" d="M33.65 23a.46.46 0 0 0 .05-.14.12.12 0 0 0-.14-.14l-.13.05c-.24.15.09.48.22.23z" fill="#0d465b"/><path class="cls-1" d="M34.67 21.43a.23.23 0 0 0-.47 0c-.04.3.5.3.47 0z" fill="#0d465b"/><path class="cls-1" d="M22.06 38.56c-.21-.31-.47-.59-.66-.92a.07.07 0 0 0-.13.07 5 5 0 0 0 .69.92.06.06 0 0 0 .1-.07z" fill="#0d465b"/><path class="cls-1" d="M24.79 40.86c.14.06.26-.14.12-.2a6.36 6.36 0 0 0-.64-.32c.12-.3.25-.73-.06-.93s-1-.15-1.49-.39c-.1-.05-.18.09-.09.15a2.66 2.66 0 0 0 .93.28 1.63 1.63 0 0 1 .48.12c.28.14 0 .62-.06.79a.13.13 0 0 0 .11.19 2.48 2.48 0 0 1 .7.31z" fill="#0d465b"/><path class="cls-1" d="M24.93 41.21a.11.11 0 0 0 0-.22.11.11 0 0 0 0 .22z" fill="#0d465b"/><path class="cls-1" d="M35.31 34.91a10.87 10.87 0 0 1 4.25 5.72.13.13 0 0 0 .24-.07 9 9 0 0 0-4.42-5.78.08.08 0 0 0-.07.13z" fill="#0d465b"/><path class="cls-1" d="M40 42.43a1.5 1.5 0 0 0-.09-.51c0-.07-.13 0-.11 0a1.12 1.12 0 0 1 .08.49.06.06 0 0 0 .12.02z" fill="#0d465b"/><path class="cls-1" d="M40.33 39.05c-.31-.53-.5-1.23-1.13-1.46-.1 0-.14.12 0 .16.57.21.72.91 1 1.38a.08.08 0 0 0 .13-.08z" fill="#0d465b"/><path class="cls-1" d="M40.55 40.71l.17.25c0 .06.14 0 .1-.06l-.17-.25c-.05-.05-.14 0-.1.06z" fill="#0d465b"/><path class="cls-1" d="M40.93 40.76l.07.11a.1.1 0 0 0 .2 0 .28.28 0 0 0-.08-.22c-.12-.16-.31 0-.19.11z" fill="#0d465b"/><path class="cls-1" d="M33.09 34c-.22 0-.24.3 0 .36a5.06 5.06 0 0 0 1.13.12c.15 0 .17-.22 0-.25a7.31 7.31 0 0 0-1.13-.23z" fill="#0d465b"/><path class="cls-1" d="M30.93 34.38a.2.2 0 0 0 0-.4.2.2 0 0 0 0 .4z" fill="#0d465b"/><path class="cls-1" d="M37.36 34.22a.07.07 0 0 0 .13-.07 1.53 1.53 0 0 0-1.4-.76c-.06 0-.06.1 0 .1a1.43 1.43 0 0 1 1.27.73z" fill="#0d465b"/><path class="cls-1" d="M39.34 36.31v0z" fill="#0d465b"/><path class="cls-1" d="M33.48 52.12a1.49 1.49 0 0 1-.11.44c0 .08.07.15.12.07a.91.91 0 0 0 .14-.49c0-.14-.14-.14-.15-.02z" fill="#0d465b"/><path class="cls-1" d="M46.42 30.6c.09.12.16.25.25.38-.09-.12-.16-.25-.25-.37z" fill="#0d465b"/><path class="cls-1" d="M48 34a5.18 5.18 0 0 1 .5 1.11c0 .06.11 0 .09 0a5.3 5.3 0 0 0-.5-1.14c-.03-.08-.09-.03-.09.03z" fill="#0d465b"/><path class="cls-1" d="M48 28.93c-.05 0-.13 0-.07.07a7.84 7.84 0 0 1 2 3.48c0 .07.15 0 .12 0A8 8 0 0 0 48 28.93z" fill="#0d465b"/><path class="cls-1" d="M50.13 34.48c1 2.75.8 5.62.85 8.49a.08.08 0 0 0 .16 0 24.7 24.7 0 0 0-.9-8.51c-.03-.07-.14-.04-.11.02z" fill="#0d465b"/><path class="cls-1" d="M50 26.93c0-.08-.17 0-.12.07.39.64.85 1.24 1.25 1.88 0 .08.18 0 .13-.07-.41-.64-.88-1.24-1.26-1.88z" fill="#0d465b"/><path class="cls-1" d="M52.64 34.47c0 .3.12.58.13.88h.05c0-.3-.1-.58-.12-.87.01-.06-.06-.06-.06-.01z" fill="#0d465b"/><path class="cls-1" d="M53.28 31.48a2.12 2.12 0 0 0 .26.5s.05 0 0 0a2.25 2.25 0 0 1-.24-.5s-.03-.03-.02 0z" fill="#0d465b"/><path class="cls-1" d="M53.85 36.47c0 .26.11.51.14.77 0 .07.12.05.12 0 0-.26-.09-.49-.11-.75 0-.12-.16-.12-.15-.02z" fill="#0d465b"/><path class="cls-1" d="M54.24 25.75a23.53 23.53 0 0 1 2.39 6c0 .06.1 0 .08 0a20.49 20.49 0 0 0-2.36-6 .07.07 0 0 0-.11 0z" fill="#0d465b"/><path class="cls-1" d="M56.83 33.87a10.83 10.83 0 0 1 .25 2.6.11.11 0 0 0 .21 0 9.47 9.47 0 0 0-.29-2.65.11.11 0 0 0-.17.05z" fill="#0d465b"/><path class="cls-1" d="M56.85 26.64a10.81 10.81 0 0 1 1 3.23c0 .11.2.08.19 0a9.93 9.93 0 0 0-1-3.29c-.04-.13-.24-.04-.19.06z" fill="#0d465b"/><path class="cls-1" d="M59.39 32.86c.12.41.14.84.26 1.25h.05c-.11-.41-.13-.84-.24-1.25h-.07z" fill="#0d465b"/><path class="cls-1" d="M59.55 36.11a.11.11 0 0 0 0 .23.11.11 0 0 0 0-.23z" fill="#0d465b"/><path class="cls-1" d="M60.15 29.48a29.12 29.12 0 0 1 .62 7.24c0 .18.29.22.31 0 .35-2.52-.46-4.85-.88-7.3 0 .01-.05.02-.05.06z" fill="#0d465b"/><path class="cls-1" d="M65.39 40.41s0 .09.07 0c1.69-3 4.64-4.62 7.57-6.23.06 0 0-.12-.05-.09-2.98 1.66-5.92 3.16-7.59 6.32z" fill="#0d465b"/><path class="cls-1" d="M78.84 41.1c.1.09.05.07.17.09l-.16-.08-.01-.01z" fill="#0d465b"/><path class="cls-1" d="M83.67 42.35a2.11 2.11 0 0 1-.51-.86.08.08 0 0 0-.15 0 2.32 2.32 0 0 0 .49 1c.11.13.27-.04.17-.14z" fill="#0d465b"/><path class="cls-1" d="M73.72 26.24a18.83 18.83 0 0 1 .64 2.87.07.07 0 0 0 .14 0 10.37 10.37 0 0 0-.62-2.9c-.03-.11-.19-.07-.16.03z" fill="#0d465b"/><path class="cls-1" d="M75 24.77a8.47 8.47 0 0 1 .86 2.73c0 .12.22.09.21 0a7.1 7.1 0 0 0-.89-2.8.1.1 0 0 0-.18.07z" fill="#0d465b"/><path class="cls-1" d="M37.18 21.08c1 0 1.56.8 2.19 1.45.07.07.19 0 .13-.1a3.08 3.08 0 0 0-2.32-1.57c-.18 0-.18.21 0 .22z" fill="#0d465b"/><path class="cls-1" d="M40.38 21.77c0 .06.15 0 .11-.08a6 6 0 0 0-1.4-1.14c-.07 0-.12.06-.06.11a7.8 7.8 0 0 1 1.35 1.11z" fill="#0d465b"/><path class="cls-1" d="M43.14 21.75s.11 0 .07-.07a17.38 17.38 0 0 0-2.39-1.62v.06a17.22 17.22 0 0 1 2.32 1.63z" fill="#0d465b"/><path class="cls-1" d="M45.28 23.62a3.19 3.19 0 0 0-.75-.64v.07a4.56 4.56 0 0 1 .75.57z" fill="#0d465b"/><path class="cls-1" d="M41.51 30c.28.39.6.74.89 1.12h.05c-.26-.4-.59-.74-.86-1.13-.03-.09-.11-.05-.08.01z" fill="#0d465b"/><path class="cls-1" d="M44.66 18.3a12.82 12.82 0 0 1 4.81 2.88c.11.11.27-.06.17-.17a11.6 11.6 0 0 0-4.94-2.87c-.1-.04-.15.12-.04.16z" fill="#0d465b"/><path class="cls-1" d="M51.24 20.63c.06.08.19 0 .13-.08a7.12 7.12 0 0 0-2.53-2.27c-.08 0-.15.08-.07.12a7.59 7.59 0 0 1 2.47 2.23z" fill="#0d465b"/><path class="cls-1" d="M53.15 16.06a4 4 0 0 1 2.55 2.59c.06.14.27 0 .21-.12a4 4 0 0 0-2.7-2.66c-.13-.02-.21.13-.06.19z" fill="#0d465b"/><path class="cls-1" d="M57.36 18.19a11.92 11.92 0 0 0-1.26-2c0-.06-.13 0-.08.08a11.86 11.86 0 0 1 1.24 2c.02.06.14-.01.1-.08z" fill="#0d465b"/><path class="cls-1" d="M67.66 21.38s.07 0 0-.06a10.28 10.28 0 0 1-1-1s-.11 0-.07.07a6.86 6.86 0 0 0 1.07.99z" fill="#0d465b"/><path class="cls-1" d="M76.17 22c-.1-.15-.34 0-.24.14a6.46 6.46 0 0 0 .91 1.14.12.12 0 0 0 .17-.17 10.78 10.78 0 0 1-.84-1.11z" fill="#0d465b"/><path class="cls-1" d="M74.77 15.09c.16 0 .23-.21.07-.24a18.7 18.7 0 0 0-6.93.06c-.08 0 0 .14 0 .12a19 19 0 0 1 6.86.06z" fill="#0d465b"/><path class="cls-1" d="M89.43 22.33A17.34 17.34 0 0 1 87.2 22c-.12 0-.18.17-.05.19a13.35 13.35 0 0 0 2.28.42.14.14 0 0 0 0-.28z" fill="#0d465b"/><path class="cls-1" d="M93.33 23.36a17.11 17.11 0 0 1-1.72-.61c-.13-.06-.24.12-.11.19a5.14 5.14 0 0 0 1.81.64c.13.02.14-.18.02-.22z" fill="#0d465b"/><path class="cls-1" d="M109.16 23.68c1.69.9 2.46-3.27.32-2.29-.27.12-.06.48.19.44.5-.08.64.13.52.61-.08.31-.38.89-.78.68a1.45 1.45 0 0 1-.21-2.15 1.54 1.54 0 0 1 2.35 0c.07.08.2 0 .14-.11a1.86 1.86 0 0 0-3-.22 2 2 0 0 0 .47 3.04z" fill="#0d465b"/><path class="cls-1" d="M111.43 24.06a.17.17 0 0 0-.31-.13c-1.28 1.72-3.76.5-4.79-.95a.07.07 0 0 0-.12.07c.79 1.54 4.54 3.82 5.22 1.01z" fill="#0d465b"/><path class="cls-1" d="M111.6 25.47c-.06.21.25.28.32.09l.1-.25c.09-.21-.29-.33-.35-.1z" fill="#0d465b"/><path class="cls-1" d="M112.84 26v0z" fill="#0d465b"/><path class="cls-1" d="M112 35.57a.72.72 0 0 0 .79.38c.11 0 .1-.19 0-.21a1 1 0 0 1-.62-.31c-.08-.09-.23.03-.17.14z" fill="#0d465b"/><path class="cls-1" d="M113.22 35.71l.08-.17c0-.06-.06-.11-.09 0l-.09.16c-.02.01.07.07.1.01z" fill="#0d465b"/><path class="cls-1" d="M113.62 35.59l.22.25c0 .12.19.12.18 0 0-.3-.13-.48-.45-.42-.11.03-.06.19.05.17z" fill="#0d465b"/><path class="cls-1" d="M125.84 37a.09.09 0 0 0 .07-.17 6.11 6.11 0 0 1-1.68-1.83c0-.06-.15 0-.11.08.5.72.88 1.64 1.72 1.92z" fill="#0d465b"/><path class="cls-1" d="M125.75 42.63h.1c-.01 0-.04.04-.1 0z" fill="#0d465b"/><path class="cls-1" d="M112.65 25.3l-.09-.1a.08.08 0 0 0-.15 0 .56.56 0 0 0-.06.27c.03.41.65.07.3-.17z" fill="#0d465b"/><path class="cls-1" d="M127.22 45.43a1.93 1.93 0 0 0-.86-.08c-.12 0-.17.2 0 .23s.56.14.84.18.19-.27.02-.33z" fill="#0d465b"/></g></g><metadata><rdf:RDF xmlns:rdf="http://www.w3.org/1999/02/22-rdf-syntax-ns#" xmlns:rdfs="http://www.w3.org/2000/01/rdf-schema#" xmlns:dc="http://purl.org/dc/elements/1.1/"><rdf:Description about="https://iconscout.com/legal#licenses" dc:title="house,tully,riverrun" dc:description="house,tully,riverrun" dc:publisher="Iconscout" dc:date="2018-03-26" dc:format="image/svg+xml" dc:language="en"><dc:creator><rdf:Bag><rdf:li>Roundicons.com</rdf:li></rdf:Bag></dc:creator></rdf:Description></rdf:RDF></metadata></svg>