<?xml version="1.0" encoding="UTF-8"?><svg xmlns="http://www.w3.org/2000/svg" viewBox="0 0 123.39 234.23"><defs><style>.cls-1{fill:#0d465b;}</style></defs><title>Asset 23</title><g id="Layer_2" data-name="Layer 2"><g id="Layer_2-2" data-name="Layer 2"><path class="cls-1" d="M63.31 76.33a6.57 6.57 0 0 0 1-3.26c.32-4-5-4.66-3.29-9.4 0-.09-.12-.16-.16-.07-2 4.33 1.93 5.24 2.39 9.47.23 2.12-2.27 4.61-2.5 6.91a5.3 5.3 0 0 0 1.58 3.94.27.27 0 0 0 .46-.27c-.96-2.71-1.14-4.65.52-7.32z" fill="#0d465b"/><path class="cls-1" d="M63.09 85.08a.26.26 0 0 0 0-.53.26.26 0 0 0 0 .53z" fill="#0d465b"/><path class="cls-1" d="M64.24 86.79v-.08c.31-.86-1.34-.86-1 0v.08a.51.51 0 0 0 1 0z" fill="#0d465b"/><path class="cls-1" d="M64.34 87.79a.45.45 0 0 0 0 .9.45.45 0 0 0 0-.9z" fill="#0d465b"/><path class="cls-1" d="M64.75 89.24a.41.41 0 0 0 0 .82.41.41 0 0 0 0-.82z" fill="#0d465b"/><path class="cls-1" d="M64.84 90.9a.25.25 0 0 0 0 .5.25.25 0 0 0 0-.5z" fill="#0d465b"/><path class="cls-1" d="M64.51 92.66v.06a.14.14 0 0 0 .23 0v-.06c.33-.33-.47-.33-.23 0z" fill="#0d465b"/><path class="cls-1" d="M64.34 93.74a.16.16 0 0 0 0 .33.16.16 0 0 0 0-.33z" fill="#0d465b"/><path class="cls-1" d="M63.6 95.25h.06a.12.12 0 0 0 .16 0c.25-.25-.39-.33-.22 0z" fill="#0d465b"/><path class="cls-1" d="M63.09 96.4a.08.08 0 0 0 0 .16.08.08 0 0 0 0-.16z" fill="#0d465b"/><path class="cls-1" d="M62.92 98.22a.07.07 0 0 0 0-.13.07.07 0 0 0 0 .13z" fill="#0d465b"/><path class="cls-1" d="M75.15 86.23c0-2.87.54-4.81 3-6.72a6.57 6.57 0 0 0 2-2.73c1.66-3.68-3.14-6.09.08-10 .06-.08-.06-.19-.13-.12-3.35 3.4 0 5.58-1 9.72-.5 2.07-3.69 3.58-4.69 5.66a5.29 5.29 0 0 0 .16 4.24.27.27 0 0 0 .58-.05z" fill="#0d465b"/><path class="cls-1" d="M75.15 87.18a.26.26 0 0 0-.18.5.26.26 0 0 0 .18-.5z" fill="#0d465b"/><path class="cls-1" d="M74.57 89.26a.73.73 0 0 0 0 .08.51.51 0 0 0 .92.33l.05-.06c.58-.71-.97-1.26-.97-.35z" fill="#0d465b"/><path class="cls-1" d="M75.24 90.64a.45.45 0 0 0-.3.84.45.45 0 0 0 .3-.84z" fill="#0d465b"/><path class="cls-1" d="M75.14 92.15a.41.41 0 0 0-.28.77.41.41 0 0 0 .28-.77z" fill="#0d465b"/><path class="cls-1" d="M74.48 94.21a.25.25 0 0 0 .17-.47.25.25 0 0 0-.17.47z" fill="#0d465b"/><path class="cls-1" d="M73.75 95.29v.07a.14.14 0 0 0 .22.08h.06c.36-.28-.39-.55-.28-.15z" fill="#0d465b"/><path class="cls-1" d="M73.22 96.24a.16.16 0 0 0-.11.31.16.16 0 0 0 .11-.31z" fill="#0d465b"/><path class="cls-1" d="M72.07 97.53a.12.12 0 0 0 .17 0c.27-.19-.32-.47-.27-.1z" fill="#0d465b"/><path class="cls-1" d="M71.14 98.33a.08.08 0 0 0-.05.15.08.08 0 0 0 .05-.15z" fill="#0d465b"/><path class="cls-1" d="M70.42 99.85a.07.07 0 0 0 0 .13.07.07 0 0 0 0-.13z" fill="#0d465b"/><path class="cls-1" d="M85.94 92.84c1-2.69 2.14-4.34 5.08-5.31a6.56 6.56 0 0 0 2.83-1.88c2.81-2.9-.9-6.79 3.45-9.34.09 0 0-.2-.08-.16-4.29 2.07-1.84 5.27-4.22 8.85-1.18 1.78-4.68 2.12-6.33 3.74a5.29 5.29 0 0 0-1.29 4 .27.27 0 0 0 .56.1z" fill="#0d465b"/><path class="cls-1" d="M85.62 93.73a.26.26 0 0 0-.34.41.26.26 0 0 0 .34-.41z" fill="#0d465b"/><path class="cls-1" d="M85.09 96.19h.07c.79-.47-.49-1.52-.8-.66v.08a.51.51 0 0 0 .73.58z" fill="#0d465b"/><path class="cls-1" d="M84.53 97a.45.45 0 0 0-.57.69.45.45 0 0 0 .57-.69z" fill="#0d465b"/><path class="cls-1" d="M83.92 98.41a.41.41 0 0 0-.52.63.41.41 0 0 0 .52-.63z" fill="#0d465b"/><path class="cls-1" d="M82.93 99.74a.25.25 0 0 0-.32.38.25.25 0 0 0 .32-.38z" fill="#0d465b"/><path class="cls-1" d="M81.56 100.89v.07a.14.14 0 0 0 .18.15h.07c.39-.11-.23-.63-.25-.22z" fill="#0d465b"/><path class="cls-1" d="M80.74 101.61a.16.16 0 0 0-.21.25.16.16 0 0 0 .21-.25z" fill="#0d465b"/><path class="cls-1" d="M79.37 102.5c.32-.09-.14-.55-.22-.18a.1.1 0 0 0 0 .05v.07a.12.12 0 0 0 .22.06z" fill="#0d465b"/><path class="cls-1" d="M78.07 102.87c-.08-.07-.18.06-.1.12a.08.08 0 0 0 .1-.12z" fill="#0d465b"/><path class="cls-1" d="M76.88 104.06a.07.07 0 0 0-.09.1.07.07 0 0 0 .09-.1z" fill="#0d465b"/><path class="cls-1" d="M93.86 102.71c1.86-2.19 3.48-3.36 6.58-3.28a6.56 6.56 0 0 0 3.3-.81c3.63-1.78 1.45-6.7 6.41-7.62.1 0 .08-.18 0-.17-4.74.49-3.52 4.34-6.92 6.88-1.71 1.28-5.12.41-7.22 1.38a5.29 5.29 0 0 0-2.58 3.37.27.27 0 0 0 .43.25z" fill="#0d465b"/><path class="cls-1" d="M93.25 103.44a.26.26 0 0 0-.46.27.26.26 0 0 0 .46-.27z" fill="#0d465b"/><path class="cls-1" d="M91.92 105.57H92c.9-.17.05-1.59-.53-.89l-.05.06a.51.51 0 0 0 .5.83z" fill="#0d465b"/><path class="cls-1" d="M91.11 106.16a.45.45 0 0 0-.77.46.45.45 0 0 0 .77-.46z" fill="#0d465b"/><path class="cls-1" d="M90.07 107.27a.41.41 0 0 0-.71.42.41.41 0 0 0 .71-.42z" fill="#0d465b"/><path class="cls-1" d="M88.26 108.44a.25.25 0 0 0 .43-.25.25.25 0 0 0-.43.25z" fill="#0d465b"/><path class="cls-1" d="M87.17 109.07c.41 0 0-.65-.16-.27v.07a.14.14 0 0 0 .12.2z" fill="#0d465b"/><path class="cls-1" d="M86 109.2a.16.16 0 0 0-.28.17.16.16 0 0 0 .28-.17z" fill="#0d465b"/><path class="cls-1" d="M84.31 109.34v.07a.12.12 0 0 0 .12.12h.05c.31.08.04-.53-.17-.19z" fill="#0d465b"/><path class="cls-1" d="M82.92 109.57a.08.08 0 0 0 .14-.08.08.08 0 0 0-.14.08z" fill="#0d465b"/><path class="cls-1" d="M81.41 110.27a.07.07 0 0 0 .12-.07.07.07 0 0 0-.12.07z" fill="#0d465b"/><path class="cls-1" d="M117.29 109c-4.63-1.15-4.78 2.89-8.84 4.13-2 .62-5-1.35-7.26-1.15a5.29 5.29 0 0 0-3.57 2.3.27.27 0 0 0 .35.4c2.49-1.43 4.41-2 7.3-.86a6.57 6.57 0 0 0 3.38.35c4-.45 3.63-5.81 8.61-5 .1.01.13-.17.03-.17z" fill="#0d465b"/><path class="cls-1" d="M96.63 115.25a.26.26 0 0 0 .52-.1.26.26 0 0 0-.52.1z" fill="#0d465b"/><path class="cls-1" d="M95.06 115.71h-.07a.51.51 0 0 0 .18 1h.08c.91.16.6-1.46-.19-1z" fill="#0d465b"/><path class="cls-1" d="M94.21 117a.45.45 0 0 0-.88.17.45.45 0 0 0 .88-.17z" fill="#0d465b"/><path class="cls-1" d="M92.06 117.84a.41.41 0 0 0 .8-.15.41.41 0 0 0-.8.15z" fill="#0d465b"/><path class="cls-1" d="M91.25 118.08a.25.25 0 0 0-.49.09.25.25 0 0 0 .49-.09z" fill="#0d465b"/><path class="cls-1" d="M89.46 118.09v.05a.14.14 0 0 0 0 .22h.06c.38.22.22-.57-.06-.27z" fill="#0d465b"/><path class="cls-1" d="M88 118.18a.16.16 0 0 0 .32-.06.16.16 0 0 0-.32.06z" fill="#0d465b"/><path class="cls-1" d="M86.74 117.69v.06a.12.12 0 0 0 .07.15c.29.2.19-.45-.07-.21z" fill="#0d465b"/><path class="cls-1" d="M85.36 117.43a.08.08 0 0 0 .16 0 .08.08 0 0 0-.16 0z" fill="#0d465b"/><path class="cls-1" d="M83.7 117.58a.07.07 0 0 0 .13 0 .07.07 0 0 0-.13 0z" fill="#0d465b"/><path class="cls-1" d="M123.24 114a4.86 4.86 0 0 0-.44-2.65c-.54-1.77-2.39-3.51-3.61-4.65a7.89 7.89 0 0 0-2.59-1.57 8.5 8.5 0 0 0-4.73-1.16 8.42 8.42 0 0 0-3.62 1.05c-2 1-2.85.88-4.42 0 2.14-.14 4.46 0 6.11-1.79.85-.93 1.92-2.07 1.83-3.46a10.15 10.15 0 0 0-.29-1.94c-.45-1.93-.05-3.7 1.11-4.62a4.73 4.73 0 0 1 2-.48c1.7 0 2.49 1.57 3.4 2.73.06.08.2 0 .17-.07a7.24 7.24 0 0 0-.8-1.84 4.86 4.86 0 0 0-1.33-2.36c-1.11-1.48-3.42-2.48-4.95-3.13a7.88 7.88 0 0 0-3-.61 8.5 8.5 0 0 0-4.84.5 8.41 8.41 0 0 0-3.05 2.22c-1.53 1.66-2.38 1.79-4.17 1.46 2-.86 4.2-1.5 5.14-3.75.49-1.16 1.11-2.59.55-3.87a10 10 0 0 0-.92-1.73c-1.08-1.66-1.3-3.46-.51-4.72a4.72 4.72 0 0 1 1.75-1.14c1.6-.57 2.87.63 4.12 1.42.08.05.2 0 .13-.12A7.25 7.25 0 0 0 105 76.2a4.87 4.87 0 0 0-2.06-1.78c-1.55-1-4.05-1.17-5.7-1.27a7.88 7.88 0 0 0-3 .43 8.5 8.5 0 0 0-4.39 2.11 8.4 8.4 0 0 0-2.12 3.12c-.88 2.07-1.64 2.49-3.44 2.79 1.56-1.47 3.44-2.83 3.57-5.26.07-1.26.16-2.82-.79-3.83a10.14 10.14 0 0 0-1.45-1.31c-1.62-1.2-2.42-2.83-2.1-4.28a4.74 4.74 0 0 1 1.26-1.66c1.31-1.08 2.92-.38 4.36-.06.09 0 .18-.1.08-.16a7.23 7.23 0 0 0-1.79-.91 4.87 4.87 0 0 0-2.53-1c-1.8-.43-4.22.27-5.81.73a7.87 7.87 0 0 0-2.67 1.42 8.5 8.5 0 0 0-3.42 3.5 8.39 8.39 0 0 0-.94 3.65c-.12 2.25-.7 2.9-2.29 3.78 1-1.91 2.28-3.83 1.58-6.16-.36-1.21-.8-2.71-2-3.34a10.21 10.21 0 0 0-1.35-.56 24.31 24.31 0 0 1-.75-3.74c.12-1 .18-2.07.2-3.14.45 0 .9-.08 1.33-.14.09 0 .13-.15 0-.18a8.48 8.48 0 0 0-1.35-.23c0-1 0-2-.1-3 .18-2 .16-3.92.15-5.89 2.33 0 5.23 0 6.41-2 2.3-3.88.09-8.53-1.17-12.41-2.13-6.58-3.53-13.36-6.05-19.83A72.27 72.27 0 0 1 62.34.23C62.3 0 62-.06 61.8.09c-.17-.15-.49-.12-.53.14a72.27 72.27 0 0 1-4.4 15.41C54.35 22.1 53 28.88 50.82 35.47c-1.26 3.88-3.47 8.53-1.17 12.41 1.18 2 4.08 2 6.41 2 0 2 0 3.94.15 5.89a39 39 0 0 0 .08 6.36l-.07.66A18.86 18.86 0 0 0 56 64.7a8 8 0 0 0-1.15 3.3 8.39 8.39 0 0 0 .35 3.75c.73 2.45.22 3.16-1.4 4.93a5.4 5.4 0 0 0-1.46 4.27c-2.74-2.79.53-7.29-2.21-10.5-.82-1-1.82-2.15-3.22-2.22a9.93 9.93 0 0 0-2 .05c-2 .22-3.68-.39-4.45-1.66a4.74 4.74 0 0 1-.23-2.08c.21-1.68 1.85-2.29 3.12-3 .08 0 .06-.19 0-.17a7.22 7.22 0 0 0-1.92.58 4.89 4.89 0 0 0-2.54 1.07c-1.61.85-2.89 2.98-3.69 4.42a7.89 7.89 0 0 0-1 2.87 8.33 8.33 0 0 0 1.8 8.17c1.46 1.71 1.49 2.58 1 4.32-.62-2-1-4.34-3.11-5.55-1.09-.62-2.44-1.41-3.78-1a9.91 9.91 0 0 0-1.82.71c-1.78.87-3.59.88-4.75-.05a4.74 4.74 0 0 1-.96-1.91c-.38-1.65 1-2.78 1.9-3.92.06-.07 0-.2-.1-.15a7.22 7.22 0 0 0-1.62 1.19 4.88 4.88 0 0 0-2 1.84c-1.18 1.42-1.64 3.88-1.93 5.51a7.89 7.89 0 0 0 .07 3 8.34 8.34 0 0 0 4.42 7.08c2 1.12 2.28 1.92 2.36 3.74-1.27-1.72-2.4-3.75-4.8-4.17-1.24-.21-2.78-.5-3.9.33a10 10 0 0 0-1.47 1.29c-1.38 1.42-3.08 2-4.49 1.56a4.72 4.72 0 0 1-1.52-1.4c-.91-1.43 0-2.94.46-4.34 0-.09-.07-.18-.15-.1a7.21 7.21 0 0 0-1.11 1.67 4.88 4.88 0 0 0-1.27 2.37c-.65 1.73-.24 4.24 0 5.88a7.9 7.9 0 0 0 1.09 2.82 8.34 8.34 0 0 0 6.56 5.17c2.21.39 2.79 1 3.48 2.72-1.78-1.19-3.53-2.72-5.93-2.3-1.24.22-2.78.47-3.56 1.63a10 10 0 0 0-1 1.71c-.82 1.8-2.21 3-3.7 3a4.73 4.73 0 0 1-1.9-.86c-1.34-1-1-2.76-1-4.24 0-.09-.13-.15-.17 0a7.2 7.2 0 0 0-.49 1.95 4.87 4.87 0 0 0-.39 2.66c0 1.85 1.21 4.07 2 5.53a7.89 7.89 0 0 0 2 2.29 8.33 8.33 0 0 0 7.99 2.54c2.22-.38 3 0 4.2 1.38-2.08-.52-4.24-1.36-6.36-.16-1.09.63-2.46 1.39-2.79 2.74a9.89 9.89 0 0 0-.32 1.93c-.16 2-1.08 3.54-2.47 4.06a4.72 4.72 0 0 1-2.08-.17c-1.59-.47-1.9-2.2-2.41-3.59 0-.09-.17-.09-.18 0a7.17 7.17 0 0 0 .2 2 4.87 4.87 0 0 0 .53 2.63c.6 1.75 2.51 3.42 3.77 4.52a7.91 7.91 0 0 0 2.64 1.48 8.34 8.34 0 0 0 8.34-.19c2-1.11 2.82-1 4.42-.12-2.13.22-4.45.15-6 2-.82 1-1.84 2.14-1.7 3.52a9.8 9.8 0 0 0 .36 1.92c.52 1.91.18 3.69-1 4.66a4.72 4.72 0 0 1-2 .55c-1.7.06-2.54-1.47-3.49-2.61-.06-.07-.2 0-.16.07a7.15 7.15 0 0 0 .87 1.81 4.86 4.86 0 0 0 1.39 2.29c1.16 1.45 3.52 2.37 5.08 3a7.89 7.89 0 0 0 3 .5 8.34 8.34 0 0 0 7.78-3c1.47-1.71 2.32-1.87 4.12-1.61-1.93.92-4.14 1.65-5 3.92-.45 1.18-1 2.63-.41 3.89a9.88 9.88 0 0 0 1 1.69c1.13 1.63 1.42 3.42.68 4.7a4.72 4.72 0 0 1-1.71 1.2c-1.58.63-2.89-.53-4.17-1.27-.08 0-.2 0-.13.13a7.18 7.18 0 0 0 1.43 1.41 4.86 4.86 0 0 0 2.05 1.72c1.58 1 4.12 1 5.79 1.08a7.88 7.88 0 0 0 3-.54 8.34 8.34 0 0 0 6.32-5.48c.8-2.1 1.55-2.55 3.33-2.91-1.5 1.52-3.34 2.95-3.38 5.39 0 1.26-.06 2.82.93 3.8a9.83 9.83 0 0 0 1.5 1.26c1.62 1.15 2.49 2.73 2.23 4.19a4.72 4.72 0 0 1-1.2 1.71c-1.27 1.13-2.9.48-4.35.21-.09 0-.17.1-.08.16a7.18 7.18 0 0 0 1.82.85 4.86 4.86 0 0 0 2.53.88c1.81.38 4.23-.41 5.81-.94a7.88 7.88 0 0 0 2.63-1.52 8.34 8.34 0 0 0 4.09-7.27c0-2.56.75-3.07 2.84-4.26a11.12 11.12 0 0 0-.74 3.63 11 11 0 0 0 1.49 5v1.68c0 18.67-.48 37.4.3 56.05a.69.69 0 0 0 .21.48 3.31 3.31 0 0 0 1.52 1.73 4.7 4.7 0 0 0 .59.28 5 5 0 0 0 5 .16 4.41 4.41 0 0 0 1.11-.45 3.31 3.31 0 0 0 1.52-1.73.69.69 0 0 0 .21-.48c.76-18.37.32-36.83.3-55.22.46-2.32 2-4.35 3.24-6.46a4.59 4.59 0 0 0 .83 1.63c.79 1 1.75 2.21 3.14 2.34a10.08 10.08 0 0 0 2 0c2-.15 3.66.52 4.39 1.81a4.7 4.7 0 0 1 .16 2.08c-.26 1.68-1.93 2.22-3.22 2.94-.08 0-.07.19 0 .18a7.2 7.2 0 0 0 1.95-.51 4.87 4.87 0 0 0 2.51-.93c1.64-.86 3-3 3.88-4.42a7.9 7.9 0 0 0 1.06-2.84 8.51 8.51 0 0 0 .25-4.86 8.42 8.42 0 0 0-1.72-3.35c-1.4-1.76-1.4-2.63-.8-4.35.54 2.07.83 4.38 2.91 5.66 1.07.66 2.39 1.49 3.74 1.14a10.16 10.16 0 0 0 1.85-.65c1.81-.81 3.62-.75 4.74.22a4.73 4.73 0 0 1 .85 1.91c.32 1.67-1.07 2.74-2 3.85-.06.07 0 .2.1.15a7.19 7.19 0 0 0 1.66-1.14 4.86 4.86 0 0 0 2.05-1.73c1.25-1.36 1.8-3.85 2.16-5.48a7.89 7.89 0 0 0 0-3 8.5 8.5 0 0 0-1.41-4.66 8.41 8.41 0 0 0-2.75-2.58c-1.91-1.19-2.21-2-2.22-3.82 1.21 1.76 2.27 3.84 4.65 4.34 1.23.26 2.76.59 3.91-.19a10.11 10.11 0 0 0 1.52-1.23c1.43-1.37 3.15-1.93 4.54-1.4a4.72 4.72 0 0 1 1.45 1.51c.87 1.46-.08 2.94-.62 4.32 0 .09.07.19.14.11a7.19 7.19 0 0 0 1.18-1.63 4.86 4.86 0 0 0 1.35-2.32c.71-1.71.39-4.23.18-5.88a7.88 7.88 0 0 0-1-2.86 8.51 8.51 0 0 0-2.9-3.91 8.41 8.41 0 0 0-3.46-1.49c-2.2-.47-2.76-1.14-3.39-2.85 1.74 1.25 3.43 2.84 5.85 2.51 1.25-.17 2.79-.37 3.61-1.5a10.2 10.2 0 0 0 1-1.67c.88-1.77 2.31-2.88 3.8-2.85a4.72 4.72 0 0 1 1.87.93c1.31 1.08.92 2.79.88 4.27 0 .1.13.16.17.05a7.2 7.2 0 0 0 .55-1.93 4.86 4.86 0 0 0 .48-2.64c.1-1.85-1.06-4.11-1.82-5.6a7.88 7.88 0 0 0-1.9-2.36 8.33 8.33 0 0 0-7.82-2.93c-2.23.3-3-.14-4.15-1.53 2.06.59 4.19 1.52 6.35.39 1.12-.58 2.5-1.3 2.89-2.64a10.18 10.18 0 0 0 .39-1.92c.23-2 1.2-3.5 2.61-4a4.71 4.71 0 0 1 2.08.24c1.6.58 1.81 2.32 2.27 3.72 0 .09.17.1.18 0a7.24 7.24 0 0 0-.16-1.93zM64.73 60.66a2.44 2.44 0 0 1 .2-.26c0 .35 0 .69.06 1a19.39 19.39 0 0 0-.22 2.77 3.19 3.19 0 0 1-.67-1.55 4.72 4.72 0 0 1 .63-1.96zM52.25 38.92c.48-1.56.93-3.12 1.38-4.68-.13 1.51-.25 3-.45 4.49 0 .18.25.2.3 0 .9-2.87 1-5.88 1.41-8.85.54-1.87 1.07-3.74 1.61-5.62.16-.55.34-1.1.52-1.67-.45 3.69-.64 7.41-.93 11.26 0 .2.28.19.3 0 .67-5.76 1.8-11.37 2.75-17.05a57.62 57.62 0 0 0 2.66-8.49 57.62 57.62 0 0 0 2.65 8.54c1 5.68 2.08 11.29 2.75 17.05 0 .19.32.2.3 0-.29-3.85-.48-7.57-.93-11.26.19.56.37 1.12.52 1.67.54 1.87 1.08 3.74 1.61 5.62.4 3 .51 6 1.41 8.85 0 .16.32.14.3 0-.19-1.48-.32-3-.45-4.49.46 1.56.91 3.13 1.38 4.68.61 2 2.87 7.8-1.08 8.47a18.47 18.47 0 0 1-2.17.21c-.43-.61.87-1.13 1.31-1.39a4.33 4.33 0 0 0 1.3-1c.79-1 .36-2.15.2-3.33 0-.16-.29-.12-.28 0 .06.89.5 2.32-.34 3a13.1 13.1 0 0 1-2.14 1.06A2.36 2.36 0 0 0 67 47.13c-.79-.83.65-1.95 1.5-2.77a3.75 3.75 0 0 0 1.18-2.1c.45-1.92-1.13-4.1-1.7-5.84a.19.19 0 0 0-.37.1c.33 1.77 2.75 5.81.39 7.17a5.26 5.26 0 0 0-2.21 2 1.87 1.87 0 0 0 0 2h-.17c-.71-1.5-1.42-3.06-.24-4.36.12-.13 0-.37-.2-.26-1.25.84-2.1 2.34-1.31 3.76a1.29 1.29 0 0 1-.14.18.29.29 0 0 0 .28.48l.22-.08.07.11a2.14 2.14 0 0 0-.53 1.15.17.17 0 0 0 .33.09 1.48 1.48 0 0 1 .54-.63q.11.24.2.48c-.93.78-.72 2.4-.54 3.45a.15.15 0 0 0 .29 0 4.37 4.37 0 0 1 .09-1.75 3 3 0 0 1 .39-.78c.34 1.85-.15 3.75-.09 5.71-.07 1.05-.12 2.11-.12 3.16a5.67 5.67 0 0 0-.77.14c-1.83.21-3.86 1.68-5.2 2.65-.11.08-.21.18-.32.26a41.09 41.09 0 0 0 0-6.21c.06-2-.43-3.86-.09-5.71a3 3 0 0 1 .39.78 4.37 4.37 0 0 1 .13 1.84.15.15 0 0 0 .29 0c.19-1 .39-2.68-.54-3.45q.09-.24.2-.48a1.48 1.48 0 0 1 .54.63.17.17 0 0 0 .33-.09 2.14 2.14 0 0 0-.53-1.15l.07-.11.22.08a.29.29 0 0 0 .28-.48 1.3 1.3 0 0 1-.14-.18c.79-1.42-.06-2.92-1.31-3.76-.16-.11-.32.13-.2.26 1.18 1.3.47 2.86-.24 4.36h-.17a1.87 1.87 0 0 0 0-2 5.26 5.26 0 0 0-2.21-2c-2.36-1.36.06-5.4.39-7.17a.19.19 0 0 0-.37-.1c-.57 1.73-2.15 3.92-1.7 5.84a3.75 3.75 0 0 0 1.18 2.1c.85.82 2.29 1.94 1.5 2.77a2.36 2.36 0 0 0-1.18-1.2 13.09 13.09 0 0 1-2.14-1.06c-.84-.65-.4-2.08-.34-3 0-.16-.25-.19-.28 0-.17 1.18-.59 2.3.2 3.33a4.33 4.33 0 0 0 1.3 1c.44.25 1.74.78 1.31 1.39a18.47 18.47 0 0 1-2.17-.21c-3.91-.75-1.65-6.54-1.04-8.55zm2.17 44.43a1.16 1.16 0 0 1 .5.84 3.63 3.63 0 0 1-.5-.84zm11.4 37.51q-.46 18.29-.56 36.59a31.21 31.21 0 0 1-.58-7.72c0-.11-.15-.1-.16 0-.39 4 .42 7.86.71 11.85v15.3c0 14.56-.28 29.16 0 43.72q-.67-7.22-.75-14.5a.09.09 0 0 0-.17 0c0 7.74 0 15.45 1.16 23.09v1.23c-.05.13-.12.29 0 .2a3.24 3.24 0 0 0-.4.35 6.76 6.76 0 0 1-.69.64 10.11 10.11 0 0 1-4.29.62l-.6-.42a5.74 5.74 0 0 1-.94-.84 3.25 3.25 0 0 0-.4-.35c.12.09.05-.07 0-.2v-1.23c1.21-7.65 1.2-15.35 1.16-23.09a.09.09 0 0 0-.17 0q-.08 7.28-.75 14.5c.28-14.57 0-29.17 0-43.72v-15.3c.3-4 1.1-7.83.71-11.85 0-.1-.17-.11-.16 0a31.22 31.22 0 0 1-.58 7.72q-.13-18.48-.57-37a3.6 3.6 0 0 1 1.94-2.32 7.89 7.89 0 0 1 2.91-.4c2.26.04 2.56 1.51 3.19 3.13zm-9.41 47.38a6.3 6.3 0 0 1 0-1.56v1.67s.01-.07.01-.11zm10.76 3.42v-12.84a3.93 3.93 0 0 0 .68.37 4.76 4.76 0 0 1 2.18 2 .19.19 0 0 0 0 .13c.5 4.01-1.41 6.82-2.85 10.34zM114 114.92c-.67 5.76-6.23 2.88-10.27 2.87a6.23 6.23 0 0 0-4.16 0 .58.58 0 0 0-.36.32 2.33 2.33 0 0 0-2.11 2.59.09.09 0 0 0 .17 0 3.23 3.23 0 0 1 2.34-1.63h.1a5.41 5.41 0 0 1 .63.12 1.49 1.49 0 0 1-.87.18.07.07 0 0 0 0 .13 1.16 1.16 0 0 0 .75.11l-.09.18a1.23 1.23 0 0 1-1.25.24v.09a2.31 2.31 0 0 0 1.08.17l-.05.16a1.6 1.6 0 0 1-1.25.26.05.05 0 0 0 0 .1 2.28 2.28 0 0 0 1.15.16v.1a1 1 0 0 1-1.43.24s-.07 0 0 0a1 1 0 0 0 1.28.31 1.3 1.3 0 0 1-1.73.26c-.09 0-.14.08-.09.14a1.58 1.58 0 0 0 2.44.35 3.71 3.71 0 0 0 .61-.72 5.19 5.19 0 0 1 1.79-1.55 17.88 17.88 0 0 1 2.3 2.22 19.7 19.7 0 0 0 2.93 3.12c1.61 1.24 3.87-.05 5.7.23-2.1-.66-3.87.67-5.8-1-.11-.09-.2-.19-.3-.29a2.81 2.81 0 0 0 1.25.27c3.13-.05 5.07-.75 7.83 1.48a13.39 13.39 0 0 1 3.55 4.58c-2.26-2-5.31-1.53-7.19 2.26-2.58 5.2-6.84.6-10.63-.77a6.23 6.23 0 0 0-3.91-1.45.58.58 0 0 0-.44.18 2.33 2.33 0 0 0-2.97 1.74.09.09 0 0 0 .15.08 3.23 3.23 0 0 1 2.75-.75l.08.06a5.81 5.81 0 0 1 .59.32 1.51 1.51 0 0 1-.92-.11c-.06 0-.14.05-.09.11a1.16 1.16 0 0 0 .67.35l-.14.14a1.23 1.23 0 0 1-1.25-.2l-.06.08a2.31 2.31 0 0 0 1 .53l-.1.13a1.6 1.6 0 0 1-1.26-.18.05.05 0 0 0-.07.08 2.29 2.29 0 0 0 1 .54l-.05.09a1 1 0 0 1-1.43-.26h-.06a1 1 0 0 0 1.1.72 1.3 1.3 0 0 1-1.72-.34c-.07-.07-.16 0-.13.1a1.58 1.58 0 0 0 2.18 1.16 3.66 3.66 0 0 0 .82-.47 5.19 5.19 0 0 1 2.22-.85 17.77 17.77 0 0 1 1.4 2.85 19.79 19.79 0 0 0 1.7 3.94c1.09 1.71 3.66 1.26 5.28 2.14-1.75-1.33-3.87-.68-5.11-2.91-.07-.12-.12-.25-.18-.38a2.8 2.8 0 0 0 1.08.68c3 1 5 1 6.87 4a13.37 13.37 0 0 1 1.79 5.52c-1.43-2.69-4.48-3.23-7.53-.3-4.18 4-6.64-1.75-9.75-4.32a6.23 6.23 0 0 0-3.18-2.68.58.58 0 0 0-.48 0 2.33 2.33 0 0 0-3.27.65c-.05.08 0 .16.12.13a3.23 3.23 0 0 1 2.84.23.57.57 0 0 0 .06.09 5.9 5.9 0 0 1 .45.5 1.52 1.52 0 0 1-.82-.42.07.07 0 0 0-.12.07 1.17 1.17 0 0 0 .51.56l-.18.08a1.23 1.23 0 0 1-1.11-.61h-.08a2.31 2.31 0 0 0 .72.82l-.14.09a1.6 1.6 0 0 1-1.13-.59.05.05 0 0 0-.09.05 2.3 2.3 0 0 0 .79.85l-.08.06c-.55.05-1.1-.07-1.25-.72h-.06a1 1 0 0 0 .8 1 1.3 1.3 0 0 1-1.51-.9c0-.09-.16 0-.16 0a1.58 1.58 0 0 0 1.66 1.82 3.62 3.62 0 0 0 .9-.16 5.15 5.15 0 0 1 2.41 0 18 18 0 0 1 .35 3.14 19.79 19.79 0 0 0 .27 4.29c.45 2 3 2.42 4.25 3.8-1.2-1.85-3.41-1.95-3.83-4.47v-.42a2.8 2.8 0 0 0 .79 1c2.45 2 4.39 2.65 5.1 6.13a13.39 13.39 0 0 1-.18 5.8c-.44-3-3.13-4.56-7-2.83-5.29 2.37-5.65-3.89-7.71-7.36a6.23 6.23 0 0 0-2.09-3.6.58.58 0 0 0-.45-.14 2.33 2.33 0 0 0-3.3-.49.09.09 0 0 0 .06.16 3.23 3.23 0 0 1 2.6 1.18.49.49 0 0 0 0 .1 5.67 5.67 0 0 1 .25.62 1.52 1.52 0 0 1-.63-.67.07.07 0 0 0-.14 0 1.17 1.17 0 0 0 .29.7h-.2a1.22 1.22 0 0 1-.84-.95h-.09a2.3 2.3 0 0 0 .4 1h-.16a1.6 1.6 0 0 1-.86-.94.05.05 0 0 0-.11 0 2.28 2.28 0 0 0 .45 1.07h-.1c-.54-.14-1-.44-.94-1.11h-.06a1 1 0 0 0 .39 1.26 1.3 1.3 0 0 1-1.11-1.36c0-.1-.14-.08-.17 0a1.58 1.58 0 0 0 .94 2.28 3.62 3.62 0 0 0 .9.15 5.15 5.15 0 0 1 2.29.77 17.73 17.73 0 0 1-.73 3.06 19.9 19.9 0 0 0-1.2 4.14c-.25 2 2 3.3 2.71 5-.5-2.15-2.55-3-2.09-5.5 0-.14.06-.27.1-.41a2.79 2.79 0 0 0 .4 1.21c1.64 2.67 3.24 4 2.72 7.49a13.36 13.36 0 0 1-2.13 5.4c.61-3-1.4-5.35-5.62-5-6.15.46-3.75-6.35-4.94-10.26a5.45 5.45 0 0 0-.35-1.38c-.22-.54-1.25-1.26-1.14-1.84a.06.06 0 0 0-.11 0 1.15 1.15 0 0 0 .22 1.25 3.1 3.1 0 0 0-.35-.2 1.63 1.63 0 0 1-.45-1 .07.07 0 0 0-.14 0 1.17 1.17 0 0 0 0 .76l-.2-.05a1.22 1.22 0 0 1-.47-1.18h-.1a2.31 2.31 0 0 0 0 1.09h-.16a1.61 1.61 0 0 1-.49-1.17.05.05 0 0 0-.1 0 2.28 2.28 0 0 0 .06 1.16h-.1a1 1 0 0 1-.51-1.36h-.05a1 1 0 0 0 .03 1.54 1.43 1.43 0 0 1-.49-.46q-.12-17.09-.52-34.19c.07-.55.12-1.09.18-1.64v-.78c1.08-4.74-5.19-5.78-8.22-3.65-.11.07-.2.15-.3.23a.1.1 0 0 0-.14 0 4.61 4.61 0 0 0-1.43 2.49 16.65 16.65 0 0 0 .32 3.55q-.38 16.07-.5 32.14a2.85 2.85 0 0 0-.57-.09.09.09 0 0 0-.05.17 3 3 0 0 1 .62.63v3.54a10.47 10.47 0 0 1-3.38 3 19.94 19.94 0 0 0-3.57 2.43c-1.47 1.39-.54 3.83-1.1 5.59 1-2-.07-3.93 1.89-5.57.11-.09.22-.17.33-.25a2.78 2.78 0 0 0-.46 1.19c-.43 3.1 0 5.13-2.67 7.51a13.39 13.39 0 0 1-5.08 2.8c2.37-1.92 2.32-5-1.13-7.45-4.74-3.35.46-6.85 2.4-10.39a6.23 6.23 0 0 0 2-3.64.58.58 0 0 0-.11-.46 2.33 2.33 0 0 0-1.26-3.09.09.09 0 0 0-.11.14 3.23 3.23 0 0 1 .31 2.84.54.54 0 0 0-.07.07 5.92 5.92 0 0 1-.41.54 1.51 1.51 0 0 1 .25-.89c0-.06 0-.14-.1-.11a1.17 1.17 0 0 0-.45.61l-.12-.16a1.22 1.22 0 0 1 .39-1.21l-.06-.07a2.31 2.31 0 0 0-.67.86l-.11-.12a1.61 1.61 0 0 1 .37-1.22.05.05 0 0 0-.07-.08 2.28 2.28 0 0 0-.69.94l-.08-.07a1 1 0 0 1 .47-1.37v-.06a1 1 0 0 0-.88 1 1.3 1.3 0 0 1 .6-1.65c.08-.05 0-.16-.08-.15a1.58 1.58 0 0 0-1.48 2 3.7 3.7 0 0 0 .34.88 5.19 5.19 0 0 1 .5 2.32 17.63 17.63 0 0 1-3 .94 19.89 19.89 0 0 0-4.17 1.08c-1.86.81-1.81 3.42-2.93 4.89 1.59-1.53 1.26-3.72 3.67-4.6l.4-.12a2.78 2.78 0 0 0-.83 1c-1.46 2.77-1.77 4.81-5.05 6.16a13.37 13.37 0 0 1-5.73.92c2.88-1 3.88-3.93 1.46-7.4-3.33-4.75 2.75-6.29 5.77-9a6.24 6.24 0 0 0 3.2-2.75.58.58 0 0 0 .05-.47 2.33 2.33 0 0 0-.14-3.33c-.07-.06-.17 0-.15.09a3.23 3.23 0 0 1-.67 2.77H34a5.9 5.9 0 0 1-.56.37 1.51 1.51 0 0 1 .54-.75.08.08 0 0 0-.05-.13 1.17 1.17 0 0 0-.63.42l-.06-.2a1.22 1.22 0 0 1 .77-1v-.09a2.29 2.29 0 0 0-.92.59l-.07-.15a1.6 1.6 0 0 1 .76-1 .05.05 0 0 0 0-.1 2.27 2.27 0 0 0-1 .65l-.05-.09c0-.55.24-1.07.91-1.13v-.06a1 1 0 0 0-1.16.62 1.3 1.3 0 0 1 1.12-1.35c.09 0 .06-.15 0-.17a1.58 1.58 0 0 0-2.06 1.36 3.67 3.67 0 0 0 0 .91 5.15 5.15 0 0 1-.33 2.39 17.78 17.78 0 0 1-3.21-.12 19.89 19.89 0 0 0-4.29-.4c-2 .13-2.86 2.61-4.41 3.61 2-.9 2.45-3.07 5-3.09h.41a2.78 2.78 0 0 0-1.11.62c-2.31 2.12-3.29 3.93-6.84 4.09a13.38 13.38 0 0 1-5.7-1.07c3 0 5-2.39 3.87-6.47-1.52-5.6 4.71-5 8.46-6.48a6.23 6.23 0 0 0 3.88-1.51.57.57 0 0 0 .21-.43 2.33 2.33 0 0 0 1-3.18.09.09 0 0 0-.17 0 3.23 3.23 0 0 1-1.54 2.51h-.1a5.71 5.71 0 0 1-.66.15 1.52 1.52 0 0 1 .76-.52.07.07 0 0 0 0-.14 1.17 1.17 0 0 0-.73.18v-.2a1.22 1.22 0 0 1 1.07-.68v-.1a2.3 2.3 0 0 0-1.07.24v-.16a1.6 1.6 0 0 1 1.06-.7.05.05 0 0 0 0-.11 2.28 2.28 0 0 0-1.13.28v-.1c.22-.51.59-.93 1.24-.75v-.06a1 1 0 0 0-1.3.19 1.3 1.3 0 0 1 1.51-.89c.1 0 .1-.12 0-.16a1.58 1.58 0 0 0-2.39.58 3.74 3.74 0 0 0-.3.91 5.19 5.19 0 0 1-1.09 2.1 17.7 17.7 0 0 1-2.94-1.2 19.84 19.84 0 0 0-3.87-1.86c-2-.56-3.57 1.49-5.37 1.91 2.2-.17 3.34-2.06 5.76-1.21l.38.16a2.78 2.78 0 0 0-1.25.21c-2.89 1.21-4.43 2.58-7.82 1.54a13.4 13.4 0 0 1-5-2.94c2.86 1.06 5.5-.56 5.83-4.78.46-5.78 6.12-3.1 10.16-3.24a6.24 6.24 0 0 0 4.17-.11.58.58 0 0 0 .34-.33 2.33 2.33 0 0 0 2-2.66.09.09 0 0 0-.17 0 3.23 3.23 0 0 1-2.28 1.71h-.1a5.75 5.75 0 0 1-.67-.08 1.53 1.53 0 0 1 .9-.24.07.07 0 0 0 0-.14 1.18 1.18 0 0 0-.75-.08l.08-.19a1.22 1.22 0 0 1 1.23-.28v-.09a2.31 2.31 0 0 0-1.08-.14v-.16a1.6 1.6 0 0 1 1.23-.3.05.05 0 0 0 0-.1 2.27 2.27 0 0 0-1.15-.12v-.1a1 1 0 0 1 1.42-.29s.07 0 0 0a1 1 0 0 0-1.29-.26 1.3 1.3 0 0 1 1.72-.33c.09 0 .14-.08.09-.14a1.58 1.58 0 0 0-2.45-.26 3.68 3.68 0 0 0-.58.74 5.18 5.18 0 0 1-1.74 1.62 17.78 17.78 0 0 1-2.36-2.13 19.73 19.73 0 0 0-3-3c-1.65-1.19-3.86.19-5.7 0 2.12.59 3.84-.81 5.83.81.11.09.21.18.31.28a2.78 2.78 0 0 0-1.25-.22c-3.13.16-5 .93-7.88-1.2a13.39 13.39 0 0 1-3.71-4.46c2.33 2 5.36 1.33 7.11-2.52 2.39-5.29 6.81-.85 10.65.39a6.23 6.23 0 0 0 4 1.31.58.58 0 0 0 .43-.19 2.33 2.33 0 0 0 2.79-1.82.09.09 0 0 0-.16-.08 3.23 3.23 0 0 1-2.73.84l-.08-.06a5.86 5.86 0 0 1-.6-.3 1.53 1.53 0 0 1 .92.08c.06 0 .13-.06.09-.11a1.18 1.18 0 0 0-.68-.33l.14-.15a1.22 1.22 0 0 1 1.25.15l.06-.08a2.3 2.3 0 0 0-1-.49l.1-.13a1.6 1.6 0 0 1 1.26.13.05.05 0 0 0 .06-.08 2.29 2.29 0 0 0-1-.5l.05-.09a1 1 0 0 1 1.43.21h.06a1 1 0 0 0-1.13-.68 1.3 1.3 0 0 1 1.73.28c.07.07.16 0 .13-.1a1.58 1.58 0 0 0-2.22-1.08 3.72 3.72 0 0 0-.8.51 5.19 5.19 0 0 1-2.18.93 17.71 17.71 0 0 1-1.5-2.8 19.82 19.82 0 0 0-1.84-3.88C18 100 15.4 100.52 13.75 99.7c1.8 1.27 3.89.54 5.21 2.73.07.12.13.24.2.37a2.77 2.77 0 0 0-1.1-.63c-3-.91-5.06-.83-7-3.8a13.38 13.38 0 0 1-2-5.45c1.53 2.63 4.6 3.07 7.54 0 4-4.17 6.69 1.51 9.89 4a6.23 6.23 0 0 0 3.28 2.57.58.58 0 0 0 .47 0 2.33 2.33 0 0 0 3.25-.77c0-.08 0-.16-.12-.13a3.23 3.23 0 0 1-2.85-.12.58.58 0 0 0-.07-.09 5.67 5.67 0 0 1-.47-.48 1.53 1.53 0 0 1 .84.39c0 .05.15 0 .12-.08a1.18 1.18 0 0 0-.53-.54l.18-.09a1.22 1.22 0 0 1 1.13.57l.08-.05a2.31 2.31 0 0 0-.75-.79l.13-.09a1.6 1.6 0 0 1 1.15.55.05.05 0 0 0 .09-.06 2.28 2.28 0 0 0-.82-.82l.08-.07c.55-.07 1.1 0 1.28.68h.06a1 1 0 0 0-.84-1 1.3 1.3 0 0 1 1.55.84c0 .09.16 0 .16-.05 0-1.05-.6-1.83-1.72-1.76a3.65 3.65 0 0 0-.89.19 5.15 5.15 0 0 1-2.41.13 18 18 0 0 1-.46-3.13 19.78 19.78 0 0 0-.41-4.33c-.51-2-3.1-2.31-4.38-3.64 1.26 1.8 3.48 1.82 4 4.33 0 .14 0 .27.06.41a2.78 2.78 0 0 0-.82-1c-2.52-1.87-4.48-2.49-5.31-5.94a13.37 13.37 0 0 1 0-5.8c.55 3 3.29 4.44 7.08 2.58 5.21-2.56 5.79 3.68 8 7.08a6.23 6.23 0 0 0 2.1 3.59.58.58 0 0 0 .46.13 2.33 2.33 0 0 0 3.31.38c.07-.06 0-.17-.07-.16a3.23 3.23 0 0 1-2.64-1.09.6.6 0 0 0 0-.1 5.75 5.75 0 0 1-.28-.61 1.52 1.52 0 0 1 .66.65.07.07 0 0 0 .14 0 1.17 1.17 0 0 0-.32-.69h.2a1.22 1.22 0 0 1 .87.92h.09a2.3 2.3 0 0 0-.44-1h.16a1.6 1.6 0 0 1 .89.91.05.05 0 0 0 .1 0 2.26 2.26 0 0 0-.49-1.05h.1c.54.12 1 .4 1 1.07h.06a1 1 0 0 0-.44-1.24 1.3 1.3 0 0 1 1.16 1.32c0 .09.14.08.17 0a1.58 1.58 0 0 0-1-2.24 3.66 3.66 0 0 0-.91-.12 5.16 5.16 0 0 1-2.31-.69 17.9 17.9 0 0 1 .62-3.09 19.86 19.86 0 0 0 1.05-4.17c.18-2-2.14-3.23-2.89-4.91.58 2.13 2.66 2.89 2.28 5.42 0 .14-.05.27-.08.41a2.76 2.76 0 0 0-.44-1.19c-1.74-2.61-3.38-3.86-3-7.39A13.37 13.37 0 0 1 38.68 66c-.5 3 1.59 5.29 5.79 4.82 6.13-.68 4 6.21 5.3 10.07a5.53 5.53 0 0 0 .4 1.37c.24.53 1.29 1.21 1.21 1.8a.06.06 0 0 0 .11 0 1.16 1.16 0 0 0-.26-1.24 3 3 0 0 0 .36.19 1.65 1.65 0 0 1 .49.93.07.07 0 0 0 .14 0 1.17 1.17 0 0 0-.07-.75h.2a1.22 1.22 0 0 1 .51 1.16h.09a2.29 2.29 0 0 0-.07-1.09H53l.07.17a.57.57 0 0 0 .29.27 1.51 1.51 0 0 1 .19.71.05.05 0 0 0 .11 0v-.21a2.21 2.21 0 0 0 2.65 1.19.09.09 0 0 0 0-.17 3 3 0 0 1-1-.61 1.5 1.5 0 0 0-.45-2.08 3.2 3.2 0 0 0-.5-.28c.15-2 1.35-3.31 2.46-4.75a19.62 19.62 0 0 0 2.63-3.37c1-1.78-.65-3.82-.65-5.66-.33 2.18 1.26 3.72-.11 5.88-.08.12-.16.23-.24.34a2.81 2.81 0 0 0 .08-1.27c-.53-3.09-1.53-4.9.26-8a13.37 13.37 0 0 1 4-4.21c-1.79 2.51-.79 5.44 3.27 6.71 5.53 1.74 1.64 6.66.88 10.63a6.23 6.23 0 0 0-.83 4.08.58.58 0 0 0 .24.41 2.33 2.33 0 0 0 2.14 2.56.09.09 0 0 0 .06-.16 3.23 3.23 0 0 1-1.16-2.61.55.55 0 0 0 0-.09 6 6 0 0 1 .22-.63 1.51 1.51 0 0 1 0 .92c0 .07.08.13.12.07a1.16 1.16 0 0 0 .25-.71l.16.12a1.23 1.23 0 0 1 0 1.27h.08a2.3 2.3 0 0 0 .37-1l.15.08a1.62 1.62 0 0 1 0 1.27.05.05 0 0 0 .09.05 2.27 2.27 0 0 0 .37-1.1h.09a1 1 0 0 1 0 1.45v.05a1 1 0 0 0 .54-1.2 1.29 1.29 0 0 1-.07 1.75c-.06.08 0 .16.12.12a1.58 1.58 0 0 0 .91-2.25 3.68 3.68 0 0 0-.59-.73 5.19 5.19 0 0 1-1.2-2.09 17.83 17.83 0 0 1 2.61-1.83 19.69 19.69 0 0 0 3.62-2.29c1.53-1.34.68-3.81 1.3-5.55-1 1.94-.07 3.93-2.09 5.5l-.34.24a2.81 2.81 0 0 0 .5-1.17c.54-3.08.22-5.12 2.94-7.41A13.38 13.38 0 0 1 82.7 65c-2.43 1.83-2.5 4.93.87 7.49 4.62 3.51-.71 6.83-2.77 10.3a6.23 6.23 0 0 0-2.16 3.56.58.58 0 0 0 .09.47A2.33 2.33 0 0 0 79.88 90c.08 0 .16-.06.11-.13a3.23 3.23 0 0 1-.21-2.87l.07-.07a6 6 0 0 1 .42-.52 1.51 1.51 0 0 1-.29.88c0 .06 0 .15.09.11a1.15 1.15 0 0 0 .47-.59l.11.17a1.23 1.23 0 0 1-.43 1.19s0 .11.06.07a2.31 2.31 0 0 0 .7-.84l.11.12a1.61 1.61 0 0 1-.41 1.2.05.05 0 0 0 .07.08 2.26 2.26 0 0 0 .72-.91l.08.07c.14.54.1 1.1-.52 1.35v.06a1 1 0 0 0 .92-.94 1.3 1.3 0 0 1-.66 1.62c-.08.05 0 .16.07.15a1.58 1.58 0 0 0 1.55-1.92 3.62 3.62 0 0 0-.3-.86 5.16 5.16 0 0 1-.41-2.38 18 18 0 0 1 3.06-.83 19.71 19.71 0 0 0 4.18-.92c1.89-.75 1.93-3.36 3.1-4.78-1.63 1.49-1.38 3.67-3.81 4.49l-.4.11a2.8 2.8 0 0 0 .87-.93c1.55-2.72 1.94-4.75 5.27-6a13.39 13.39 0 0 1 5.75-.72c-2.91.9-4 3.79-1.72 7.34 3.16 4.87-3 6.18-6.09 8.75a6.23 6.23 0 0 0-3.24 2.62.58.58 0 0 0-.07.47 2.33 2.33 0 0 0 0 3.34.09.09 0 0 0 .15-.09 3.23 3.23 0 0 1 .75-2.75h.09a5.8 5.8 0 0 1 .58-.35 1.51 1.51 0 0 1-.57.73.07.07 0 0 0 0 .13 1.16 1.16 0 0 0 .64-.39v.19a1.23 1.23 0 0 1-.81 1v.09a2.3 2.3 0 0 0 .94-.55l.06.15a1.6 1.6 0 0 1-.8 1 .05.05 0 0 0 0 .1 2.27 2.27 0 0 0 1-.61v.09c-.05.55-.28 1.06-.95 1.1v.06a1 1 0 0 0 1.18-.58 1.29 1.29 0 0 1-1.17 1.3c-.09 0-.06.15 0 .17a1.58 1.58 0 0 0 2.11-1.28 3.62 3.62 0 0 0 0-.92 5.15 5.15 0 0 1 .7-2.44 17.94 17.94 0 0 1 3.16.25 19.8 19.8 0 0 0 4.25.54c2-.06 3-2.51 4.54-3.45-2 .83-2.56 3-5.11 2.91h-.42a2.79 2.79 0 0 0 1.13-.58c2.38-2 3.43-3.81 7-3.84a13.39 13.39 0 0 1 5.66 1.27c-3-.14-5.06 2.21-4.1 6.33 1.32 5.65-4.89 4.81-8.69 6.18a6.23 6.23 0 0 0-3.93 1.37.58.58 0 0 0-.23.42 2.33 2.33 0 0 0-1.11 3.15.09.09 0 0 0 .17 0 3.23 3.23 0 0 1 1.65-2.33H97a5.87 5.87 0 0 1 .66-.13 1.51 1.51 0 0 1-.78.5.07.07 0 0 0 0 .14 1.16 1.16 0 0 0 .74-.15v.2a1.23 1.23 0 0 1-1.09.65v.1a2.31 2.31 0 0 0 1.07-.2v.16a1.6 1.6 0 0 1-1.08.67.05.05 0 0 0 0 .11 2.27 2.27 0 0 0 1.13-.24v.1c-.24.5-.62.91-1.26.71 0 0-.06 0 0 .06a1 1 0 0 0 1.31-.14 1.3 1.3 0 0 1-1.54.83c-.1 0-.11.12 0 .16a1.58 1.58 0 0 0 2.42-.5 3.68 3.68 0 0 0 .33-.88 5.2 5.2 0 0 1 1.09-2.2 17.73 17.73 0 0 1 2.9 1.31 19.82 19.82 0 0 0 3.82 2c1.93.63 3.63-1.36 5.44-1.71-2.2.09-3.42 1.94-5.8 1l-.38-.17a2.8 2.8 0 0 0 1.26-.17c2.93-1.11 4.52-2.43 7.87-1.25a13.37 13.37 0 0 1 4.89 3.11c-2.78-1.22-5.47.3-6 4.5z" fill="#0d465b"/><path class="cls-1" d="M97.79 127.32c2.83-.5 4.82-.38 7.16 1.66a6.56 6.56 0 0 0 3.06 1.48c3.93.94 5.38-4.24 9.8-1.8.09 0 .17-.09.09-.15-4-2.64-5.47 1.1-9.72.9-2.13-.1-4.21-2.95-6.45-3.54a5.29 5.29 0 0 0-4.13 1 .27.27 0 0 0 .19.45z" fill="#0d465b"/><path class="cls-1" d="M96.33 127.42a.26.26 0 0 0 .52.08.26.26 0 0 0-.52-.08z" fill="#0d465b"/><path class="cls-1" d="M94.7 127.32h-.08a.51.51 0 0 0-.15 1h.07c.8.46 1.06-1.18.16-1z" fill="#0d465b"/><path class="cls-1" d="M93.47 128.24a.45.45 0 0 0-.89-.14.45.45 0 0 0 .89.14z" fill="#0d465b"/><path class="cls-1" d="M91.16 128.3a.41.41 0 0 0 .81.13.41.41 0 0 0-.81-.13z" fill="#0d465b"/><path class="cls-1" d="M89.82 128.17a.25.25 0 0 0 .49.08.25.25 0 0 0-.49-.08z" fill="#0d465b"/><path class="cls-1" d="M88.56 127.69a.14.14 0 0 0 0 .23h.05c.29.3.42-.5 0-.31z" fill="#0d465b"/><path class="cls-1" d="M87.26 127.27a.16.16 0 0 0 .33.05.16.16 0 0 0-.33-.05z" fill="#0d465b"/><path class="cls-1" d="M86.2 126.36h-.05a.12.12 0 0 0 0 .17c.25.34.42-.29.05-.17z" fill="#0d465b"/><path class="cls-1" d="M85.15 125.67a.08.08 0 0 0-.16 0 .08.08 0 0 0 .16 0z" fill="#0d465b"/><path class="cls-1" d="M83.38 125.23a.07.07 0 0 0 .13 0 .07.07 0 0 0-.13 0z" fill="#0d465b"/><path class="cls-1" d="M93.32 138.64a.27.27 0 0 0 0 .53c2.83.48 4.67 1.28 6.18 4a6.57 6.57 0 0 0 2.38 2.43c3.38 2.21 6.5-2.17 9.83 1.62.06.08.19 0 .14-.11-2.84-3.83-5.53-.81-9.45-2.44-2-.82-3-4.2-4.87-5.51a5.3 5.3 0 0 0-4.21-.52z" fill="#0d465b"/><path class="cls-1" d="M91.94 138.76a.26.26 0 0 0 .46.25.26.26 0 0 0-.46-.25z" fill="#0d465b"/><path class="cls-1" d="M90.44 138.12h-.08a.51.51 0 0 0-.47.86l.05.06c.61.67 1.4-.78.5-.92z" fill="#0d465b"/><path class="cls-1" d="M88.18 138.14a.45.45 0 0 0 .79.43.45.45 0 0 0-.79-.43z" fill="#0d465b"/><path class="cls-1" d="M87.49 138.23a.41.41 0 0 0-.72-.39.41.41 0 0 0 .72.39z" fill="#0d465b"/><path class="cls-1" d="M85.56 137.27a.25.25 0 0 0 .44.24.25.25 0 0 0-.44-.24z" fill="#0d465b"/><path class="cls-1" d="M84.61 136.39h-.07a.14.14 0 0 0-.11.2v.06c.2.35.57-.32.18-.26z" fill="#0d465b"/><path class="cls-1" d="M83.45 135.56a.16.16 0 0 0 .29.16.16.16 0 0 0-.29-.16z" fill="#0d465b"/><path class="cls-1" d="M82.71 134.35h-.07a.12.12 0 0 0 0 .17c.15.29.52-.24.13-.25z" fill="#0d465b"/><path class="cls-1" d="M82 133.34a.08.08 0 0 0-.14-.08.08.08 0 0 0 .14.08z" fill="#0d465b"/><path class="cls-1" d="M80.61 132.39a.07.07 0 0 0-.12-.06.07.07 0 0 0 .12.06z" fill="#0d465b"/><path class="cls-1" d="M85.15 148.81c2.5 1.41 4 2.78 4.46 5.84a6.56 6.56 0 0 0 1.39 3.08c2.44 3.23 6.85.16 8.7 4.85 0 .09.19 0 .16-.06-1.34-4.52-4.86-2.63-8.03-5.52-1.58-1.44-1.37-5-2.72-6.83a5.3 5.3 0 0 0-3.8-1.89.27.27 0 0 0-.16.53z" fill="#0d465b"/><path class="cls-1" d="M84 148a.26.26 0 0 0 .35.4.26.26 0 0 0-.35-.4z" fill="#0d465b"/><path class="cls-1" d="M82.77 146.84h-.07a.51.51 0 0 0-.73.65v.07c.37.81 1.6-.29.8-.72z" fill="#0d465b"/><path class="cls-1" d="M80.64 146.09a.45.45 0 0 0 .6.67.45.45 0 0 0-.6-.67z" fill="#0d465b"/><path class="cls-1" d="M79.41 145.34a.41.41 0 0 0 .54.61.41.41 0 0 0-.54-.61z" fill="#0d465b"/><path class="cls-1" d="M78.46 144.39a.25.25 0 0 0 .33.37.25.25 0 0 0-.33-.37z" fill="#0d465b"/><path class="cls-1" d="M77.8 143.22a.14.14 0 0 0-.17.15v.07c0 .41.64-.12.23-.21z" fill="#0d465b"/><path class="cls-1" d="M77.07 142.07a.17.17 0 0 0 .22.25.17.17 0 0 0-.22-.25z" fill="#0d465b"/><path class="cls-1" d="M76.61 140.83a.19.19 0 0 0 0 .05c0 .33.57 0 .21-.19h-.12a.12.12 0 0 0-.09.14z" fill="#0d465b"/><path class="cls-1" d="M76.34 139.37a.08.08 0 0 0 .11.12c.07-.07-.03-.19-.11-.12z" fill="#0d465b"/><path class="cls-1" d="M75.46 138.12a.07.07 0 0 0-.09-.1.07.07 0 0 0 .09.1z" fill="#0d465b"/><path class="cls-1" d="M77.44 157.76a5.3 5.3 0 0 0-2.94-3.07.27.27 0 0 0-.32.42c1.88 2.17 2.79 4 2.23 7a6.56 6.56 0 0 0 .29 3.39c1.2 3.86 6.39 2.47 6.55 7.51 0 .1.17.1.17 0 .25-4.76-3.74-4.15-5.73-7.9-1.01-1.89.38-5.11-.25-7.35z" fill="#0d465b"/><path class="cls-1" d="M73.35 153.9a.26.26 0 0 0 .19.49.26.26 0 0 0-.19-.49z" fill="#0d465b"/><path class="cls-1" d="M72.56 152.39a.51.51 0 0 0-.91.36.76.76 0 0 0 0 .08c0 .91 1.56.3 1-.38z" fill="#0d465b"/><path class="cls-1" d="M70.85 151a.45.45 0 0 0 .34.83.45.45 0 0 0-.34-.83z" fill="#0d465b"/><path class="cls-1" d="M70 149.9a.41.41 0 0 0 .31.76.41.41 0 0 0-.31-.76z" fill="#0d465b"/><path class="cls-1" d="M69.38 148.69a.25.25 0 0 0 .18.46.25.25 0 0 0-.18-.46z" fill="#0d465b"/><path class="cls-1" d="M69.21 147.4h-.06a.14.14 0 0 0-.21.09v.07c-.12.36.62.06.27-.16z" fill="#0d465b"/><path class="cls-1" d="M68.85 146a.17.17 0 0 0 .12.31.17.17 0 0 0-.12-.31z" fill="#0d465b"/><path class="cls-1" d="M69.09 144.65h-.07a.12.12 0 0 0-.14.1.19.19 0 0 0 0 .05c-.12.28.5.1.21-.15z" fill="#0d465b"/><path class="cls-1" d="M69.14 143.39a.08.08 0 0 0-.06-.15.08.08 0 0 0 .06.15z" fill="#0d465b"/><path class="cls-1" d="M68.62 141.65a.07.07 0 0 0 0 .13.07.07 0 0 0 0-.13z" fill="#0d465b"/><path class="cls-1" d="M49.25 155.2c.06 2.87-.37 4.82-2.74 6.82a6.59 6.59 0 0 0-1.93 2.8c-1.53 3.74 3.36 6 .27 10-.06.08.06.19.13.11 3.22-3.51-.24-5.58.61-9.74.43-2.09 3.56-3.7 4.49-5.82a5.29 5.29 0 0 0-.31-4.23.28.28 0 0 0-.52.06z" fill="#0d465b"/><path class="cls-1" d="M49.22 154.25a.26.26 0 0 0 .16-.5.26.26 0 0 0-.16.5z" fill="#0d465b"/><path class="cls-1" d="M49.73 152.15v-.08a.51.51 0 0 0-.93-.3v.07c-.61.72.96 1.22.93.31z" fill="#0d465b"/><path class="cls-1" d="M49 150.79a.45.45 0 0 0 .27-.86.45.45 0 0 0-.27.86z" fill="#0d465b"/><path class="cls-1" d="M49.06 149.28a.41.41 0 0 0 .25-.78.41.41 0 0 0-.25.78z" fill="#0d465b"/><path class="cls-1" d="M49.64 147.2a.25.25 0 0 0-.15.47.25.25 0 0 0 .15-.47z" fill="#0d465b"/><path class="cls-1" d="M50.09 146H50c-.34.24.43.49.3.09v-.07a.14.14 0 0 0-.21-.02z" fill="#0d465b"/><path class="cls-1" d="M50.92 144.81a.17.17 0 0 0-.1.31.17.17 0 0 0 .1-.31z" fill="#0d465b"/><path class="cls-1" d="M51.93 143.79a.13.13 0 0 0-.17 0c-.26.2.33.46.27.08z" fill="#0d465b"/><path class="cls-1" d="M52.88 142.81a.08.08 0 0 0 0 .15.08.08 0 0 0 0-.15z" fill="#0d465b"/><path class="cls-1" d="M53.54 141.28a.07.07 0 0 0 0 .13.07.07 0 0 0 0-.13z" fill="#0d465b"/><path class="cls-1" d="M38.24 149c-.91 2.72-2 4.41-4.89 5.49a6.58 6.58 0 0 0-2.76 2c-2.71 3 1.14 6.76-3.11 9.46-.09.05 0 .2.09.15 4.22-2.21 1.66-5.33 3.87-9 1.11-1.82 4.61-2.28 6.2-4a5.29 5.29 0 0 0 1.12-4.1.27.27 0 0 0-.52 0z" fill="#0d465b"/><path class="cls-1" d="M38.52 148.07a.26.26 0 0 0 .32-.42.26.26 0 0 0-.32.42z" fill="#0d465b"/><path class="cls-1" d="M39 145.6h-.07c-.77.49.54 1.5.82.63v-.08a.51.51 0 0 0-.75-.55z" fill="#0d465b"/><path class="cls-1" d="M39.5 144.75a.45.45 0 0 0 .5-.75.45.45 0 0 0-.5.75z" fill="#0d465b"/><path class="cls-1" d="M40.06 143.34a.41.41 0 0 0 .5-.65.41.41 0 0 0-.5.65z" fill="#0d465b"/><path class="cls-1" d="M41 142a.25.25 0 0 0 .3-.39.25.25 0 0 0-.3.39z" fill="#0d465b"/><path class="cls-1" d="M42.15 140.56h-.07c-.4.12.24.6.25.19v-.07a.14.14 0 0 0-.18-.12z" fill="#0d465b"/><path class="cls-1" d="M43.12 140a.17.17 0 0 0 .2-.26.17.17 0 0 0-.2.26z" fill="#0d465b"/><path class="cls-1" d="M44.61 139.15a.13.13 0 0 0-.16-.07h-.05c-.31.1.16.55.23.17a.08.08 0 0 0 0-.05s-.01-.03-.02-.05z" fill="#0d465b"/><path class="cls-1" d="M45.84 138.55c-.08-.06-.18.07-.1.13s.17-.07.1-.13z" fill="#0d465b"/><path class="cls-1" d="M46.89 137.44a.07.07 0 0 0 .08-.11.07.07 0 0 0-.08.11z" fill="#0d465b"/><path class="cls-1" d="M30 139.4c-1.78 2.25-3.35 3.48-6.46 3.51a6.57 6.57 0 0 0-3.27.93c-3.56 1.91-1.21 6.74-6.13 7.85-.1 0-.07.18 0 .17 4.72-.66 3.37-4.46 6.67-7.13 1.66-1.34 5.11-.59 7.17-1.63a5.29 5.29 0 0 0 2.46-3.46.27.27 0 0 0-.44-.24z" fill="#0d465b"/><path class="cls-1" d="M30.55 138.65a.26.26 0 0 0 .45-.28.26.26 0 0 0-.45.28z" fill="#0d465b"/><path class="cls-1" d="M31.8 136.47h-.08c-.89.2 0 1.59.56.87v-.06a.51.51 0 0 0-.48-.81z" fill="#0d465b"/><path class="cls-1" d="M32.59 135.85a.45.45 0 0 0 .75-.49.45.45 0 0 0-.75.49z" fill="#0d465b"/><path class="cls-1" d="M33.59 134.71a.41.41 0 0 0 .69-.45.41.41 0 0 0-.69.45z" fill="#0d465b"/><path class="cls-1" d="M34.94 133.74a.25.25 0 0 0 .42-.27.25.25 0 0 0-.42.27z" fill="#0d465b"/><path class="cls-1" d="M36.6 133.06v-.07a.14.14 0 0 0-.12-.19h-.07c-.41-.03.04.65.19.26z" fill="#0d465b"/><path class="cls-1" d="M37.88 132.45a.17.17 0 0 0-.28.18.17.17 0 0 0 .28-.18z" fill="#0d465b"/><path class="cls-1" d="M39.12 132.19c-.33 0 0 .57.16.24a.08.08 0 0 0 0-.05v-.07a.12.12 0 0 0-.12-.11z" fill="#0d465b"/><path class="cls-1" d="M40.65 132.15a.08.08 0 0 0-.13.09c.06.08.19 0 .13-.09z" fill="#0d465b"/><path class="cls-1" d="M42.14 131.4a.07.07 0 0 0-.11.07.07.07 0 0 0 .11-.07z" fill="#0d465b"/><path class="cls-1" d="M25.44 127.59c-2.44 1.52-4.33 2.14-7.27 1.12a6.59 6.59 0 0 0-3.39-.23c-4 .59-3.42 5.94-8.42 5.32a.09.09 0 0 0 0 .17c4.67 1 4.67-3.06 8.69-4.45 2-.7 5 1.17 7.3.89A5.29 5.29 0 0 0 25.8 128a.27.27 0 0 0-.36-.41z" fill="#0d465b"/><path class="cls-1" d="M26.24 127.08a.26.26 0 0 0 .51-.12.26.26 0 0 0-.51.12z" fill="#0d465b"/><path class="cls-1" d="M28.15 125.45h-.08c-.91-.11-.53 1.5.23 1h.07a.51.51 0 0 0-.22-1z" fill="#0d465b"/><path class="cls-1" d="M29.11 125.14a.45.45 0 0 0 .87-.21.45.45 0 0 0-.87.21z" fill="#0d465b"/><path class="cls-1" d="M30.43 124.4a.41.41 0 0 0 .8-.19.41.41 0 0 0-.8.19z" fill="#0d465b"/><path class="cls-1" d="M32 123.95a.25.25 0 0 0 .48-.11.25.25 0 0 0-.48.11z" fill="#0d465b"/><path class="cls-1" d="M33.82 123.87v-.05a.14.14 0 0 0-.05-.22h-.07c-.34-.2-.16.58.12.27z" fill="#0d465b"/><path class="cls-1" d="M35.23 123.73a.17.17 0 0 0-.32.07.17.17 0 0 0 .32-.07z" fill="#0d465b"/><path class="cls-1" d="M36.55 124.18v-.06a.13.13 0 0 0-.08-.15c-.29-.19-.22.45.08.21z" fill="#0d465b"/><path class="cls-1" d="M37.94 124.39a.08.08 0 0 0-.15 0 .08.08 0 0 0 .15 0z" fill="#0d465b"/><path class="cls-1" d="M39.46 124.21a.07.07 0 0 0 .13 0 .07.07 0 0 0-.13 0z" fill="#0d465b"/><path class="cls-1" d="M25.16 114.94c-2.81.6-4.8.55-7.22-1.4a6.6 6.6 0 0 0-3.11-1.37c-4-.79-5.22 4.43-9.72 2.15-.09 0-.17.1-.09.15 4.06 2.5 5.43-1.3 9.68-1.25 2.13 0 4.31 2.8 6.57 3.31a5.29 5.29 0 0 0 4.1-1.11.28.28 0 0 0-.21-.48z" fill="#0d465b"/><path class="cls-1" d="M26.61 114.79a.26.26 0 0 0-.52-.07.26.26 0 0 0 .52.07z" fill="#0d465b"/><path class="cls-1" d="M28.44 113.85h-.07c-.81-.41-1 1.23-.12 1h.08a.51.51 0 0 0 .11-1z" fill="#0d465b"/><path class="cls-1" d="M30.34 114a.45.45 0 0 0-.89-.1.45.45 0 0 0 .89.1z" fill="#0d465b"/><path class="cls-1" d="M31.76 113.73a.41.41 0 0 0-.82-.1.41.41 0 0 0 .82.1z" fill="#0d465b"/><path class="cls-1" d="M32.6 113.74a.25.25 0 0 0 .49.06.25.25 0 0 0-.49-.06z" fill="#0d465b"/><path class="cls-1" d="M34.34 114c-.3-.29-.4.51 0 .31h.06a.14.14 0 0 0 0-.23z" fill="#0d465b"/><path class="cls-1" d="M35.35 114.58a.17.17 0 0 0 .33 0 .17.17 0 0 0-.33 0z" fill="#0d465b"/><path class="cls-1" d="M36.77 115.49v-.05a.12.12 0 0 0 0-.17c-.21-.27-.36.35 0 .22z" fill="#0d465b"/><path class="cls-1" d="M37.86 116.14a.08.08 0 0 0 .16 0 .08.08 0 0 0-.16 0z" fill="#0d465b"/><path class="cls-1" d="M39.5 116.5a.07.07 0 0 0 .13 0 .07.07 0 0 0-.13 0z" fill="#0d465b"/><path class="cls-1" d="M29.19 102.95c-2.84-.38-4.71-1.11-6.32-3.76a6.59 6.59 0 0 0-2.47-2.34c-3.46-2.09-6.42 2.4-9.88-1.26-.07-.07-.2 0-.13.11 3 3.73 5.55.62 9.53 2.1 2 .75 3.11 4.09 5.06 5.33a5.29 5.29 0 0 0 4.23.34.27.27 0 0 0-.02-.52z" fill="#0d465b"/><path class="cls-1" d="M30.6 103.3a.26.26 0 0 0-.47-.24.26.26 0 0 0 .47.24z" fill="#0d465b"/><path class="cls-1" d="M32.12 103.89h.08a.51.51 0 0 0 .44-.87l-.06-.06c-.58-.65-1.36.82-.46.93z" fill="#0d465b"/><path class="cls-1" d="M34.38 103.79a.45.45 0 0 0-.8-.4.45.45 0 0 0 .8.4z" fill="#0d465b"/><path class="cls-1" d="M35.07 103.67a.41.41 0 0 0 .74.37.41.41 0 0 0-.74-.37z" fill="#0d465b"/><path class="cls-1" d="M36.59 104.34a.25.25 0 0 0 .44.22.25.25 0 0 0-.44-.22z" fill="#0d465b"/><path class="cls-1" d="M38.08 105.4a.14.14 0 0 0 .1-.21v-.06c-.19-.37-.55.35-.14.28z" fill="#0d465b"/><path class="cls-1" d="M39.19 106.2a.17.17 0 0 0-.29-.15.17.17 0 0 0 .29.15z" fill="#0d465b"/><path class="cls-1" d="M39.92 107.39h.14a.13.13 0 0 0 0-.17c-.17-.37-.52.17-.14.17z" fill="#0d465b"/><path class="cls-1" d="M40.73 108.37c0 .09.1.16.14.07a.08.08 0 0 0-.14-.07z" fill="#0d465b"/><path class="cls-1" d="M42.27 109.32a.07.07 0 0 0-.12-.06.07.07 0 0 0 .12.06z" fill="#0d465b"/><path class="cls-1" d="M37 93c-2.55-1.32-4.06-2.63-4.67-5.68a6.6 6.6 0 0 0-1.53-3c-2.53-3.15-6.8.08-8.8-4.55 0-.09-.19 0-.16.06 1.54 4.51 5 2.46 8.26 5.2 1.63 1.38 1.55 4.9 3 6.73a5.29 5.29 0 0 0 3.86 1.75A.27.27 0 0 0 37 93z" fill="#0d465b"/><path class="cls-1" d="M38.24 93.83a.26.26 0 0 0-.36-.38.26.26 0 0 0 .36.38z" fill="#0d465b"/><path class="cls-1" d="M39.47 94.9h.07a.51.51 0 0 0 .71-.67v-.07c-.4-.81-1.6.33-.78.74z" fill="#0d465b"/><path class="cls-1" d="M41 94.92a.45.45 0 0 0 .62.65.45.45 0 0 0-.62-.65z" fill="#0d465b"/><path class="cls-1" d="M42.32 95.69a.41.41 0 0 0 .57.59.41.41 0 0 0-.57-.59z" fill="#0d465b"/><path class="cls-1" d="M43.52 96.83c-.23.22.11.58.34.36a.25.25 0 0 0-.34-.36z" fill="#0d465b"/><path class="cls-1" d="M44.5 98.33h.07a.14.14 0 0 0 .17-.16v-.07c-.06-.4-.65.15-.24.23z" fill="#0d465b"/><path class="cls-1" d="M45.12 99.23c-.15.15.07.39.23.24a.17.17 0 0 0-.23-.24z" fill="#0d465b"/><path class="cls-1" d="M45.84 100.69v-.05c-.05-.32-.57.07-.21.2h.13a.12.12 0 0 0 .08-.15z" fill="#0d465b"/><path class="cls-1" d="M46.05 102c-.07.07 0 .18.11.12a.08.08 0 0 0-.11-.12z" fill="#0d465b"/><path class="cls-1" d="M47.09 103.35c-.06.06 0 .16.09.1s-.03-.16-.09-.1z" fill="#0d465b"/><path class="cls-1" d="M47.46 86.76a.27.27 0 0 0 .31-.43c-2-2.11-2.93-3.85-2.48-6.92a6.6 6.6 0 0 0-.41-3.41c-1.34-3.81-6.48-2.23-6.81-7.26 0-.1-.17-.1-.17 0-.08 4.77 3.89 4 6 7.69 1.06 1.85-.2 5.14.51 7.34a5.29 5.29 0 0 0 3.05 2.99z" fill="#0d465b"/><path class="cls-1" d="M48.63 87.5a.26.26 0 0 0-.21-.48.26.26 0 0 0 .21.48z" fill="#0d465b"/><path class="cls-1" d="M49.49 89a.51.51 0 0 0 .89-.39.76.76 0 0 0 0-.08c-.06-.91-1.57-.24-.94.42z" fill="#0d465b"/><path class="cls-1" d="M50.87 89.47a.45.45 0 0 0 .36.82.45.45 0 0 0-.36-.82z" fill="#0d465b"/><path class="cls-1" d="M51.84 90.63a.41.41 0 0 0 .33.75.41.41 0 0 0-.33-.75z" fill="#0d465b"/><path class="cls-1" d="M52.59 92.12a.25.25 0 0 0 .2.45.25.25 0 0 0-.2-.45z" fill="#0d465b"/><path class="cls-1" d="M53.28 93.8a.46.46 0 0 0 0-.07c.09-.4-.64-.08-.28.13h.06a.14.14 0 0 0 .22-.06z" fill="#0d465b"/><path class="cls-1" d="M53.41 95.21a.17.17 0 0 0-.13-.3.17.17 0 0 0 .13.3z" fill="#0d465b"/><path class="cls-1" d="M53.48 96.48c.06-.32-.56-.13-.26.12H53.34a.12.12 0 0 0 .13-.11z" fill="#0d465b"/><path class="cls-1" d="M53.21 97.86c-.09 0 0 .18.07.15a.08.08 0 0 0-.07-.15z" fill="#0d465b"/><path class="cls-1" d="M53.74 99.46a.07.07 0 0 0 .06.12.07.07 0 0 0-.06-.12z" fill="#0d465b"/><path class="cls-1" d="M57.11 41.68c-.47-1.81.26-3.24.6-5a18.76 18.76 0 0 0 .16-4 .11.11 0 0 0-.22 0 19.74 19.74 0 0 1-1 5.66c-.45 1.28-.71 2.31.14 3.44a.2.2 0 0 0 .32-.1z" fill="#0d465b"/><path class="cls-1" d="M57.3 42.2c0-.06-.12 0-.11 0s.13.22.26.32.2-.11.09-.16z" fill="#0d465b"/><path class="cls-1" d="M59.71 224.61c0-.1-.16-.1-.16 0 .14 1.93-1.38 4.54.12 6.21.09.1.25 0 .18-.14-1.15-1.97.06-3.99-.14-6.07z" fill="#0d465b"/><path class="cls-1" d="M60.05 228.75c.11.34.24.67.35 1 0 .13.25.07.2-.06-.13-.33-.28-.66-.4-1-.03-.07-.2-.03-.15.06z" fill="#0d465b"/><path class="cls-1" d="M59 204.23a.09.09 0 0 0 .18 0 56.91 56.91 0 0 0-.14-8.25c0-.1-.16-.1-.16 0 .12 2.74-.1 5.54.12 8.25z" fill="#0d465b"/><path class="cls-1" d="M59 205.39a.09.09 0 0 0 0 .19.09.09 0 0 0 0-.19z" fill="#0d465b"/><path class="cls-1" d="M59.46 204.84a1.19 1.19 0 0 1-.24-.15c-.17-.13-.37.15-.23.29a.54.54 0 0 0 .38.16.17.17 0 0 0 .09-.3z" fill="#0d465b"/><path class="cls-1" d="M59.21 194.86a15.57 15.57 0 0 0-.13-2.4c0-.1-.16-.06-.15 0a15.81 15.81 0 0 1 .12 2.35.08.08 0 0 0 .16.05z" fill="#0d465b"/><path class="cls-1" d="M60.32 216.36a.05.05 0 0 0 .11 0 1.39 1.39 0 0 0-.11-.64.07.07 0 1 0-.13.05 1.44 1.44 0 0 1 .13.59z" fill="#0d465b"/><path class="cls-1" d="M60.3 218h-.09c.21 1.53-.43 3-.28 4.49a.07.07 0 0 0 .13 0 36.42 36.42 0 0 0 .24-4.49z" fill="#0d465b"/><path class="cls-1" d="M59.88 223.09z" fill="#0d465b"/><path class="cls-1" d="M59.88 223.49a.54.54 0 0 0-.35.14c-.14.11.06.32.2.2a.57.57 0 0 1 .21-.13.11.11 0 0 0-.06-.21z" fill="#0d465b"/><path class="cls-1" d="M58.82 147a14.31 14.31 0 0 1 .07 1.73.11.11 0 0 0 .22 0 5.72 5.72 0 0 0-.18-1.77c-.02-.07-.12-.03-.11.04z" fill="#0d465b"/><path class="cls-1" d="M66.49 41.68a.2.2 0 0 0 .36.15c.85-1.13.59-2.16.14-3.44a19.74 19.74 0 0 1-1-5.66.11.11 0 0 0-.22 0 18.75 18.75 0 0 0 .16 4c.3 1.71 1.07 3.14.56 4.95z" fill="#0d465b"/><path class="cls-1" d="M66.3 42.2l-.25.2c-.11.05 0 .23.09.16s.22-.16.26-.32-.07-.1-.1-.04z" fill="#0d465b"/><path class="cls-1" d="M64.06 224.61c0-.1-.15-.1-.16 0-.21 2.08 1 4.11-.15 6.07-.07.11.09.24.18.14 1.51-1.68-.01-4.28.13-6.21z" fill="#0d465b"/><path class="cls-1" d="M63.41 228.71c-.13.33-.28.66-.4 1 0 .13.16.19.2.06.11-.34.24-.67.35-1 .02-.11-.12-.15-.15-.06z" fill="#0d465b"/><path class="cls-1" d="M64.53 196a56.91 56.91 0 0 0-.14 8.25.09.09 0 0 0 .18 0c.26-2.72 0-5.52.11-8.25.01-.12-.15-.12-.15 0z" fill="#0d465b"/><path class="cls-1" d="M64.6 205.39a.09.09 0 0 0 0 .19.09.09 0 0 0 0-.19z" fill="#0d465b"/><path class="cls-1" d="M64.38 204.7a1.19 1.19 0 0 1-.24.15.17.17 0 0 0 .08.31.54.54 0 0 0 .38-.16c.16-.16-.04-.44-.22-.3z" fill="#0d465b"/><path class="cls-1" d="M64.56 194.86a15.8 15.8 0 0 1 .12-2.35c0-.1-.13-.14-.15 0a15.59 15.59 0 0 0-.13 2.4.08.08 0 0 0 .16-.05z" fill="#0d465b"/><path class="cls-1" d="M63.28 216.36a1.44 1.44 0 0 1 .13-.59.07.07 0 1 0-.13-.05 1.39 1.39 0 0 0-.11.64.05.05 0 0 0 .11 0z" fill="#0d465b"/><path class="cls-1" d="M63.4 218h-.09a36.44 36.44 0 0 0 .23 4.5.07.07 0 0 0 .13 0c.16-1.5-.49-2.98-.27-4.5z" fill="#0d465b"/><path class="cls-1" d="M63.73 223.09z" fill="#0d465b"/><path class="cls-1" d="M64.08 223.63a.54.54 0 0 0-.35-.14.11.11 0 0 0-.06.21.57.57 0 0 1 .21.13c.12.17.34-.08.2-.2z" fill="#0d465b"/><path class="cls-1" d="M64.71 148.73a14.27 14.27 0 0 1 .07-1.73c0-.07-.09-.11-.11 0a5.72 5.72 0 0 0-.18 1.77.11.11 0 0 0 .22-.04z" fill="#0d465b"/></g></g><metadata><rdf:RDF xmlns:rdf="http://www.w3.org/1999/02/22-rdf-syntax-ns#" xmlns:rdfs="http://www.w3.org/2000/01/rdf-schema#" xmlns:dc="http://purl.org/dc/elements/1.1/"><rdf:Description about="https://iconscout.com/legal#licenses" dc:title="house,martell,sunspear" dc:description="house,martell,sunspear" dc:publisher="Iconscout" dc:date="2018-03-26" dc:format="image/svg+xml" dc:language="en"><dc:creator><rdf:Bag><rdf:li>Roundicons.com</rdf:li></rdf:Bag></dc:creator></rdf:Description></rdf:RDF></metadata></svg>