<?xml version="1.0" encoding="UTF-8"?><svg xmlns="http://www.w3.org/2000/svg" viewBox="0 0 159.38 226.2"><defs><style>.cls-1{fill:#7c1531;}</style></defs><title>Asset 28</title><g id="Layer_2" data-name="Layer 2"><g id="Layer_2-2" data-name="Layer 2"><path class="cls-1" d="M76.62 62.76a.21.21 0 0 0 .21-.36c-.94-.59-1.77.06-2 1a.13.13 0 0 0 .24.07 1.72 1.72 0 0 1 .57-.79 1 1 0 0 1 .98.08z" fill="#7c1531"/><path class="cls-1" d="M76.54 63a1.22 1.22 0 0 0-1.2.69c-.05.08.07.19.14.11a1.35 1.35 0 0 1 1.06-.58.11.11 0 0 0 0-.22z" fill="#7c1531"/><path class="cls-1" d="M76 64.18a4.82 4.82 0 0 0 .6-.1c.15 0 .11-.25 0-.26a1 1 0 0 0-.61.17c-.15.01-.12.2.01.19z" fill="#7c1531"/><path class="cls-1" d="M57 79.68c-.11 0-.06.21 0 .18a3.74 3.74 0 0 0 .82-.41.06.06 0 0 0-.06-.1 3.5 3.5 0 0 1-.76.33z" fill="#7c1531"/><path class="cls-1" d="M155.42 6.5c-.48-.7-6.32-8.59-7.86-6-.62 1 .46 2.65 1 3.39 1 1.31 4.25 5.39 4.61 8.34a4 4 0 0 1-.29.82c-1 2-3.11 1.76-4.88 1.75-2.25-1-4.59-2.28-6.42-1.88-.7-.08-1.41 0-1.67.47s.36 1.11.75 1.36.93.4 1.38.64l.17.09a41.06 41.06 0 0 1 3.63 2.58c2.95 2.68 6 7.48 3.18 11.14-3.4 1.11-7.56-2.06-10.42-4.19a.46.46 0 0 0-.63.16c-.94 1.69.62 3.17 1.7 4.39 5 5.67-.47 13.82-7.11 14.51.15-2.62-.18-4.87.46-7.5.57-2.33 1.91-4.06 2.93-6.15a1.73 1.73 0 0 0-.1-1.82.12.12 0 0 0-.2 0h-.05a.14.14 0 0 0-.2 0 5 5 0 0 0-2.19 1.56 12.28 12.28 0 0 0-2.82 3.77 32.16 32.16 0 0 0-1.32-19.64c-1.93-4.5-6-11.39-11.78-10.55a.27.27 0 0 0-.18.33c.65 2.44 7.36 8.85 7.2 12.59a3.49 3.49 0 0 1-.88 1.26 5.94 5.94 0 0 1-2.74 1.35 8.9 8.9 0 0 1-5.12-2.3c-.57-.48-1.43-1.38-2.21-1.47-1.65-.18-.95 2-.33 2.72 2 2.28 5.44 3.5 6.75 6.23a8.27 8.27 0 0 1 .47 1.56c.44 3.45-4.13 3.13-6.45 2.37a14.14 14.14 0 0 0-2.68-.68 4.58 4.58 0 0 0-.95-.14.16.16 0 0 0-.17-.13 8.63 8.63 0 0 0-1.17.15c-.18 0-.15.24 0 .31a.26.26 0 0 0 0 .28 3.41 3.41 0 0 0 1.21.93c1.68 1.6 4.45 2.59 6.1 4 2.38 2 3.49 9.68-.39 10.88-.53-.09-1.06-.19-1.59-.3a.37.37 0 0 0-.19-.13c-2.24-.71-2.3-2.92-2.34-4.9a12.32 12.32 0 0 1 1-5c.25-.69.25-2.41-1-2-1.47.47-2.27 2.39-2.86 3.67-1 2.12-.4 4.26-.74 6.43-.27-.09-.54-.18-.81-.24a8.45 8.45 0 0 1-2.35-.52 3 3 0 0 1-1.36-2.5c1.56-6.83-2.16-18.26-9.09-20.07a.39.39 0 0 0-.5.38c.25 2.25 1.4 3.9 2.67 5.75 3.63 5.25 5.34 14.66-3.6 15.21l-.6.06c-.87-3.86-3.19-6.78-5.83-9.63-.52-.57-2.94-3.2-4.08-2.54a.16.16 0 0 0-.22.11v.08l-.05.09c-.07-.08-.22-.07-.21.07a2.91 2.91 0 0 0 .44 1.36A9.46 9.46 0 0 0 84.19 32c2.28 2.62 4 4.67 4.72 8.07-2.69.2-5 1.48-7.27 3l-.68.36-.61.25a9.62 9.62 0 0 0-1 .49 2.29 2.29 0 0 1-1.17.06 17.67 17.67 0 0 1-12.25-9.44c-.38-.73-1-4.26-2-5.39-.11-.23-.5-.71-.76-.64h-.07a.33.33 0 0 0-.12.18V29a14.8 14.8 0 0 0 3 11.87c1.44 1.93 4.15 3.79 6.18 5.86a6 6 0 0 0-2.83-.33 13.64 13.64 0 0 0-4-.59l-.21-.07a47.62 47.62 0 0 1-8.12-6.6 17.13 17.13 0 0 1-1.58-2.45 4.83 4.83 0 0 0-1.57-1.95c-.14-.1-.28.06-.26.2a7.71 7.71 0 0 0 .21 1 .09.09 0 0 0 .13 0 1.37 1.37 0 0 0 .18.52c1.22 3.54 3.78 6.76 6.33 9.45a10.56 10.56 0 0 0 4.77 2.54c1.88.57 11.48.85 8.54 5a.4.4 0 0 0-.07.16 4.84 4.84 0 0 1-1.17.39c-.53.1-1.06.16-1.6.21a2 2 0 0 0-1.12-.31c-1.33-.53-2-2.25-3.34-2.77-2.29-.88-4.57-.18-6.06-2.67a.13.13 0 0 0-.1-.07 2.51 2.51 0 0 0-.12-.26c0-.1 0-.2-.06-.31a.08.08 0 0 0-.16 0 5.14 5.14 0 0 0 .18 1.82 9.55 9.55 0 0 0 1 4.06 3.37 3.37 0 0 0 1.77 1.35 12.24 12.24 0 0 0 2.53.28 43.17 43.17 0 0 0-9.88 5.43c-3.19 2.15-6.38 2.94-10 3.84a3.52 3.52 0 0 0-.51.17 1.54 1.54 0 0 0-.7.27c-1.66.3-1.8 2.69-1.6 4 .13.84 1.08 2.67 2.14 2.93a.82.82 0 0 0 .71 0 3.07 3.07 0 0 0 1.25-.54 20.22 20.22 0 0 1 2.16-.76 2.17 2.17 0 0 1 1 .33.72.72 0 0 1-.26.44 12.05 12.05 0 0 1-2 .56.3.3 0 0 0-.21.21h-.13a1.56 1.56 0 0 0 .92 1.92 2.69 2.69 0 0 0 2.6-.46c1.81-.44 3.54-1.12 5.37-1.6a14.41 14.41 0 0 1 5.79 0 13.2 13.2 0 0 1-3.28 5.03 24.28 24.28 0 0 1-5.05 3.54L53 81a3.79 3.79 0 0 0-1.19.75 9 9 0 0 0-2.47-3.37.13.13 0 0 0 0-.08 6.55 6.55 0 0 1 .24-1.06.92.92 0 0 0-.44-.91 1.38 1.38 0 0 0-1.8.27 1.53 1.53 0 0 0-.15 1.51.71.71 0 0 0 1.17.16.16.16 0 0 0 0 .11 14.44 14.44 0 0 1-2 8.45 3 3 0 0 0-1.47.61 1.52 1.52 0 0 0-.43 1.2 27.59 27.59 0 0 0-4.06 1.51c-1.4.59-3 1.77-2.55 3.33 0 .08.13.05.13 0v-.21a1.88 1.88 0 0 1 1.8-1 .86.86 0 0 1 .18.29c.26.66-.48 1.33-.93 1.63s-1.07.6-1.57 1a3.14 3.14 0 0 0-.34.29c-1.11.77-1.67 2.43-.48 3.36.13.1.31-.06.19-.19l-.09-.11a.8.8 0 0 1 .66-.73.54.54 0 0 1 .66.2.6.6 0 0 1 0 .5 2.42 2.42 0 0 1-.91 1.23 13.18 13.18 0 0 1-1.52.82 2.44 2.44 0 0 0-1.16 2.32 2 2 0 0 0 1.47 2.3c.12 0 .13-.15.05-.2a2 2 0 0 1-.46-.48.44.44 0 0 1 0-.07 1 1 0 0 1 .38-.61 1.6 1.6 0 0 1 .53-.3h.09a1.25 1.25 0 0 1 1.06 1.31 3.31 3.31 0 0 1-1.65 2.43h-.24l-.37-.08c-4-1.7-4.3-9.83-9.41-9.1-4-.47-7.28 5.08-9.78 7.53-2.91 2.85-6.33 5-9.48 7.58A9.45 9.45 0 0 0 5 114.92c-1.92 2.4-3.27 5.08-5 7.59a.31.31 0 0 0 .34.45 2.58 2.58 0 0 0 .63-.23c1.65-.37 3.12-1.3 4.83-1.41 1-.07 2.16.28 3.13-.14s1.1-1.67 1.15-2.8a.92.92 0 0 1 .41-.39.3.3 0 0 0 .11-.08.21.21 0 0 0 .11-.11 1.87 1.87 0 0 0 1.14.06 1.64 1.64 0 0 0 1-.23.19.19 0 0 0 .09-.17c0-.33-.13-.64-.11-1a2.13 2.13 0 0 1 .34-.11.16.16 0 0 0 .12-.15.22.22 0 0 0 .07-.09 6.14 6.14 0 0 0 .25-2c1-2.73 4.34-4.89 6.43-6.42 1.27-.94 2.54-2.1 4.1-2.48a14.58 14.58 0 0 0 1.71-.5 5.43 5.43 0 0 1 1.56 2.78 6.72 6.72 0 0 0 .58 1.86 10.43 10.43 0 0 0-3.3-.93c-3-.09-3.3 2.93-3.22 5.06.26 6.91 1.11 13.82 1.45 20.74a.34.34 0 0 0 0 .09c0 .12 0 .25-.08.37a5 5 0 0 0-.28.65c-.1.31.21.52.48.48h.08a.34.34 0 0 0 .33 0 5.51 5.51 0 0 0 .18.7 3.21 3.21 0 0 0-.05.5 28.75 28.75 0 0 0 .2 3.28 10 10 0 0 0 1.62 4.86c.2.27.72.31.79-.1a20.32 20.32 0 0 1 2.58-6.41 1.53 1.53 0 0 0 .28-.21 1.19 1.19 0 0 0 .22-1.69c-.43-.91-1.6-1.84-1.84-2.81a9.07 9.07 0 0 1 1.21 0c.32 0 .46-.41.25-.61a4.48 4.48 0 0 0-.95-.79 3.63 3.63 0 0 0 1-.73.32.32 0 0 0 0-.45c-4.28-4.12-1.33-10.09-1.4-15.37a51.2 51.2 0 0 1 8.62 4.39c.23.21.45.42.69.62a6.87 6.87 0 0 0 .81.55c1.44 1.24 1.6 3.45 1.82 5.57a14.05 14.05 0 0 0 .57 4.28v.17c0 .06.12.13.16 0v-.05a.1.1 0 0 0 0-.1c.42-1 .54-2.18 1.95-2a2.19 2.19 0 0 1 .72.25c1.31 1.83 2.61 4.92 4.9 5a.25.25 0 0 0 .21-.11 1.4 1.4 0 0 0 .72-.38c.07-.06 0-.14-.08-.11a1.12 1.12 0 0 1-.71 0 1.48 1.48 0 0 1-.37-.71c.1-.33.38-.37.75-.26a6.21 6.21 0 0 1 1.06.38 3 3 0 0 1 .66.48c.56.75 1 1.72 1.37 2.39a8.68 8.68 0 0 0 .67.94 3.69 3.69 0 0 0 .43.61c.76.86 2.05 1 3.11 1.16.12 0 .21-.15.09-.21l-.67-.34a2.83 2.83 0 0 1-.59-1.49c2.8.15 5.22 2.39 7.46 3.82a59.74 59.74 0 0 0 8.59 4.77c.78.33 1.54.62 2.29.9a6.19 6.19 0 0 1 1.83 4.25c-.34 1.73-1 3.53-1.29 4.8a14.42 14.42 0 0 0-.2 6.49 20.24 20.24 0 0 0 2.41 5.8c1.16 2 3.8 3.35 4.36 5.71a6.19 6.19 0 0 1-.37 1.1c-.13.28-.28.56-.43.83-4.46 2.44-11.26 1.47-16 1a8.33 8.33 0 0 0-6.16 2.36.14.14 0 0 0 .08.16l-.13.16a18.76 18.76 0 0 0-2.29 2.5 8.35 8.35 0 0 0-1.79 2.59c-.55 1.4-.12 1.88.85 2.17a3.79 3.79 0 0 0 .6.25 4.26 4.26 0 0 0 2.89-.6c1.44-.65 2.51-1.33 4.13-.95v.15c0 .16.2.27.27.11a3.56 3.56 0 0 1 .14-.4.32.32 0 0 0 0-.11 3.22 3.22 0 0 1 3.22-1.82.38.38 0 0 0 .47-.27c.82-2.82 5.71-1.6 7.68-1.65 2.34-.06 4.62 0 7 .06 1.73.08 4.68.4 6.36-.73a1.86 1.86 0 0 0 1.16-.87c.26-.65-.2-1.27-.64-1.78-.35-1.27-.95-2.47-1.29-3.76-.51-1.9.14-3.81.51-5.7a57.26 57.26 0 0 0 5.31 10.12c3.21 5 8.56 9 9.28 15.25a127.26 127.26 0 0 1 .38 15.36 20 20 0 0 1-1.57 6.39.14.14 0 0 0 0 .07c-.66 1-1.44 1.89-2.11 2.76a20.33 20.33 0 0 0-2.78 4.75 3.68 3.68 0 0 0-.21.71 12 12 0 0 0-.73 1.9.36.36 0 0 0 .34.45 35.92 35.92 0 0 0 6.4-.16 2.19 2.19 0 0 0 2.4-2.26 11.7 11.7 0 0 0 .3-2.2c.3-1.1.78-2.09 1.8-1.73a.35.35 0 0 0 .43-.43 3.41 3.41 0 0 0-.37-1c.26-.05.52-.11.79-.14a.36.36 0 0 0 .34-.45 21 21 0 0 0-1.21-2.06l-.06-.05c-.22-7.08-.31-14 1.89-20.81.39-1.21 1.14-2.73 1-4.07a6.62 6.62 0 0 0-.42-1.53 7.55 7.55 0 0 0-1.57-3 16.91 16.91 0 0 1-2-4c-.93-6.77-.16-11.82 3.52-18.16a22.58 22.58 0 0 0 2.69-6.37 3.66 3.66 0 0 0 1.06 1.83.33.33 0 0 0 .43 0c.06 1.75 0 3.5 1.27 5a.49.49 0 0 0 .82-.21 4.18 4.18 0 0 1 .45-1 4.7 4.7 0 0 0 3.73 2.6 4 4 0 0 0 2.41-.49 2.43 2.43 0 0 0 1.07-.68 4.44 4.44 0 0 0 1.67-3 5.57 5.57 0 0 0-.76-4 6.63 6.63 0 0 0-1.3-2.13c0-.05-.14 0-.1.08a6.33 6.33 0 0 1 .3 6.57 2.52 2.52 0 0 1-3.65.09 5 5 0 0 1-.95-1.29c-.31-.95-.64-1.89-.87-2.87a41.88 41.88 0 0 1-.47-5.68 4.17 4.17 0 0 0-2.41-3.34l-.32-.24a.28.28 0 0 0 0-.14c-1.56-10.37-10.55-16-19-20.79-10.16-5.73-20.71-12.78-24.39-24.36H69l.14.05a.39.39 0 0 0 .2.16c1.08.37 1.54-1 1.36-1.84a15.27 15.27 0 0 0 1.58-1.83 20.68 20.68 0 0 1 3.31-3c.69-.24 1.34.18 2.08.17a2.53 2.53 0 0 0 1.58-.58 2.66 2.66 0 0 0 .58-3.36 1.8 1.8 0 0 0-2.61-.6 1.42 1.42 0 0 0-.54 1.07c0 .42.07 1.12-.21 1.42h-.12a3.37 3.37 0 0 0-.77.05h-1.17a14 14 0 0 0-1.46.13 13.88 13.88 0 0 1 1.2-3c2.7-4 5.57-7.89 7.39-12.33 1.4-3.42 2.83-9.56 2.18-14a6.54 6.54 0 0 1 .67-2.39c.15 0 .3 0 .45-.05 2.94-.58 4.9-2.73 7.71-3.54.25.09.58-.19.39-.44-.88-1.16-3.22-1.06-4.52-1.34-1.59-.34-3-1.58-4.5-2.32-.82-1.18-2.34-1.62-3.35-2.61l-.09-.25c2.15-4.21 15.34-.72 18.75-.38A43 43 0 0 0 122 49.3c3.72.22 7.43 1 11.2.62a21.66 21.66 0 0 0 8.1-2.49 32.51 32.51 0 0 0 13.74-12 21.61 21.61 0 0 0 2.35-4.45c2.92-7.92 2.96-17.35-1.97-24.48zm-22.82 38l-.15.09v-.09zm2.78-15.38a3.59 3.59 0 0 0-.43.07.88.88 0 0 1 .43-.06zm-22.1-12v-.09l.34.24a.08.08 0 0 0 0 .12c.42.31.85.6 1.29.88l.06.13a6.46 6.46 0 0 1-1.69-1.28zm1.26.39a12.25 12.25 0 0 1-1.25-.5.58.58 0 0 1 .43-.45 1.8 1.8 0 0 1 .82.94zm7.64-11.24c.12.1.22.22.33.33a12 12 0 0 0-1.86-1.09 11.53 11.53 0 0 1-2.52-1.08 10.58 10.58 0 0 1 4.05 1.83zm-3.94-1.19zm.85.27l.32.11c.28.1.55.23.82.35A19.42 19.42 0 0 1 124.44 9c1.51 1.5 1.48 3.34 1.66 5.19a14.61 14.61 0 0 1-.53-2.62 4.65 4.65 0 0 0-1-2.14c-1.5-1.86-3.65-2.76-5.61-4a.26.26 0 0 0 .13-.09zm8.44 10.29c0 .5 0 1 .06 1.49-.07-.17-.15-.34-.23-.51a.38.38 0 0 0 0-.28 18.5 18.5 0 0 1-.51-3.76 11.5 11.5 0 0 1 .68 3.06zm2.55 7a3.1 3.1 0 0 0-1-.53 2.58 2.58 0 0 0-1.16 0c0-.07.09-.14.12-.22a2.14 2.14 0 0 1 .86-.28c.67-.06.85.35 1.17.75zm-4.9 5.48a2.79 2.79 0 0 1 1.19.64 8.81 8.81 0 0 0-1.34-.67zm-3.67-.27l.14-.14a.45.45 0 0 0 .16.06l-.14.08zm5.49 2.59a7.54 7.54 0 0 0-1.44-1.36 5.21 5.21 0 0 1 1.44 1.36zm1.37-.58a.29.29 0 0 0 .1.07c.06.21.11.42.15.65a7.46 7.46 0 0 0-.26-.72zm-6.41-6.48h.06zm3.22-.26a4.15 4.15 0 0 1-3.54-.76q-.1-.22-.21-.44a5.93 5.93 0 0 0 4.91.74 3.08 3.08 0 0 1-1.17.46zm3.63 3.65a5.27 5.27 0 0 1 .24.55 8.8 8.8 0 0 0-2.58-2.32 4.45 4.45 0 0 0-4.41.08 4.39 4.39 0 0 1 6.74 1.69zm-5-1.5a4.13 4.13 0 0 1 2.84 1 5.31 5.31 0 0 0-5 .25 2.62 2.62 0 0 1 2.15-1.25zm1.84 6.85a6 6 0 0 1 .56 1.16l-.15-.15c-.15-.26-.3-.52-.46-.76a7.38 7.38 0 0 0-3.44-2.49 5.45 5.45 0 0 1 3.48 2.24zM127 38.2a5.39 5.39 0 0 0 0-.58 5.63 5.63 0 0 1 0 .58zm-3.22-3.5h-.13a9.69 9.69 0 0 0-.38-1.21 6.43 6.43 0 0 1 .54 1.21zm.83 6.41a8.89 8.89 0 0 0 1.13-4.29 5 5 0 0 1-1.1 4.29zm-2.63-8a6.52 6.52 0 0 0-.87-1.57l.22.12a10.55 10.55 0 0 1 1.53 3.76c.61 2.59-.07 6.12-2.58 7.36 2.66-2.78 3.4-6.45 1.72-9.63zm5.12-.09a5.09 5.09 0 0 0-2.66-3.17.4.4 0 0 0 .33-.15 7.17 7.17 0 0 1 2.62 4.3c-.08-.35-.19-.7-.26-.93zm.06-9.78a2.66 2.66 0 0 1 2.22.82 2 2 0 0 1 .57 1.13 3.38 3.38 0 0 0-2.76-1.9zm.15-2.63c-.3 1.32-2.12 1.46-3.18 1.41a6 6 0 0 1-3.3-1.11c2.14.92 4.55 1.56 6-.73a2.88 2.88 0 0 0 .4-.93 2.89 2.89 0 0 1 .11 1.4zm-3.63.22a6.26 6.26 0 0 0 1.62-.35 2.9 2.9 0 0 1-1.46.37zm1.08-1.3a3.8 3.8 0 0 0 1.44-2.23 4.69 4.69 0 0 1 .15.55.31.31 0 0 0-.14.13c-.54 1-1 1.59-1.95 1.84.2-.06.37-.13.53-.24zm-3.8 9.3a7.08 7.08 0 0 1 2.4.5.48.48 0 0 0 0 .1 9.6 9.6 0 0 0-2.94-.33zm.12.83a.16.16 0 0 0 .09.17l.73.42-.15-.06a7.34 7.34 0 0 0-1.12-.59zm-.72 10.7a20.22 20.22 0 0 0 .94-4.53 6.65 6.65 0 0 0 .05-1 8.06 8.06 0 0 1-1.7 7.17 9.29 9.29 0 0 0 .73-1.6zM128 22.71a2.34 2.34 0 0 1 .88.07 1.94 1.94 0 0 1 .87.51.92.92 0 0 1 .22.36 2.77 2.77 0 0 0-1.97-.94zm1.14-1.65a1.92 1.92 0 0 0-.86.19c0-.08 0-.16.06-.24a2.74 2.74 0 0 1 .55-.18.79.79 0 0 1 .68.14.43.43 0 0 1 .12.21 1.78 1.78 0 0 0-.55-.12zM122.32 20h-.19a8.25 8.25 0 0 0 1.06-.31 7.36 7.36 0 0 1-.87.31zm-1.88.45h-.13l-.25-.25h.46a.56.56 0 0 0-.08.25zm-.9 8.61s.08-.08.12-.11l.54-.06-.27.21a.12.12 0 0 0 0 .09l-.65.06c.05-.07.16-.12.26-.19zm-1.81.83h-.16.14zm2.59 3.66a6.46 6.46 0 0 0-1.88-2.67c-.12-.1-.28.06-.17.17a6.69 6.69 0 0 1 1.68 3.28 8.16 8.16 0 0 0-3-4.25 4.39 4.39 0 0 1 3.37 3.46zm-.39 2.9a.3.3 0 0 0 .25 0 11.1 11.1 0 0 1-.29 2.63 9.92 9.92 0 0 0 .04-2.64zm9.42-16.77c0 .16-.25.27-.5.36a3.05 3.05 0 0 0 .61-1 2 2 0 0 0 0-.23c0 .21.1.42.14.63a.3.3 0 0 0-.25.24zM128.8 18a5.64 5.64 0 0 1-.25 1 13.63 13.63 0 0 0-1.18-6.31 24.45 24.45 0 0 1 1.63 4.07 9.85 9.85 0 0 0-.2 1.24zm-10-12.47c2 1.44 4.16 2.81 5.47 5 .62 1 .5 2.39.63 3.59a21.22 21.22 0 0 1-.48-2.27 5.31 5.31 0 0 0-1.26-2.12 52.69 52.69 0 0 0-4.37-4.12zm6.13 11.24a1.57 1.57 0 0 1-.7 1.51 5.35 5.35 0 0 1-1 .58 6.19 6.19 0 0 1-.64.17 3.22 3.22 0 0 0 2.07-1.69 3.54 3.54 0 0 0 .26-.55zm-5.06 3h-.32l-.27-.2c.18.08.38.13.58.17zm-3.71-1.26a2.76 2.76 0 0 0-.89-.66l-.09-.14q.87.53 1.71 1.13zm3.26 3.27a5.52 5.52 0 0 1 .6.91q-.21-.3-.45-.6a17.63 17.63 0 0 0-1.57-1.7 9 9 0 0 1 1.41 1.36zm1.16 6h.06a.22.22 0 0 0 0 .17h-.21a3.34 3.34 0 0 0 .14-.18zm-3.85 2.13l-.09-.05h.1a.16.16 0 0 0-.02.04zm-6.2-1.57l.46-.13q.81.34 1.6.74a18 18 0 0 0 2.38.82l.25.11a24.16 24.16 0 0 1-4.7-1.55zm9.65 15.87h-.11zm-.71-40a4.88 4.88 0 0 1 1.94.76 9.59 9.59 0 0 0-2.95-.74 2.46 2.46 0 0 1 1.01-.05zm-1 1.48c1.26 1.31 2.53 2.64 3.77 4.04a6.28 6.28 0 0 1 1.5 3A34.86 34.86 0 0 0 120.45 8c-.36-.47-1.37-1.47-1.95-2.34zm-3 11.79l-.77-.37a2.83 2.83 0 0 0-.48-.5 1.88 1.88 0 0 1 .53.3zm1.53 3.38c-.83-.6-1.65-1.22-2.43-1.88a11.08 11.08 0 0 1-.83-.8 1.68 1.68 0 0 1-.36-.55c.94 1 2.22 1.73 3.23 2.63.39.35.76.72 1.1 1.09zm-.8 11c-1.49-1.21-3.6-1.81-5.3-2.82a17.78 17.78 0 0 0 3.5 1.31c3.14 1 4.41 3.47 4.66 6.28v-.1a7.15 7.15 0 0 0-2.87-4.68zm-5.91 4.09c.17 1.92.72 4.08.07 5.37.07-.38.06-.84.1-1.2a6.14 6.14 0 0 0 0-1.81.1.1 0 0 0-.2 0 4.28 4.28 0 0 1-.16 1.42c.07-1.36.02-2.58.19-3.79zm.54.69zm.07 4.36h-.05v-.12zm.38-7.87a6 6 0 0 1-.35 1.57c0 .12-.09.24-.14.37a5.52 5.52 0 0 1 .32-1.64zm-2.44 4.59v-.84a.1.1 0 0 0 0-.06c0-.11.07-.23.11-.34-.07.42-.1.83-.12 1.25zm-.09 2c0-.41 0-.83.06-1.24l-.06 1.24zm-.39 1.79v-.08zm-6.44-.51zm.7.21v.1zm9.22 1.82zm.23-10.03c-.06.17-.14.33-.21.49a2.12 2.12 0 0 0-.07-.75 1.73 1.73 0 0 1 .28.26zm-.78-.36h-.09zm-.85 1a3.32 3.32 0 0 0-.11.43 6.79 6.79 0 0 0-.93 2.82 32.8 32.8 0 0 1-.1 4.15c.1-1.78-.12-3.57 0-5.36q.39-.79.83-1.55c.09-.21.19-.36.3-.52zm-26.39-3.7a8.37 8.37 0 0 1-.89-1.74 3.55 3.55 0 0 1 .48.28.16.16 0 0 0 0 .15 12.24 12.24 0 0 0 .41 1.31zm7.11 9.23c0-.1-.08-.2-.12-.3-.1-.3-.19-.6-.29-.89-.17-.51-.29-1-.46-1.5q.31.59.59 1.2c-.07 0-.16 0-.13.11.16.45.25.91.41 1.38zm-.61 0a2.89 2.89 0 0 0 .12.3c-.69-.51-.71-2.17-.89-2.9a12.7 12.7 0 0 0-.73-2.13c.26.37.5.75.74 1.13a.08.08 0 0 0 0 .08c.26 1.18.38 2.35.76 3.53zm-2.32-5.83a9.25 9.25 0 0 1 1 3.2 30.8 30.8 0 0 0-2.68-5.22l.53.62c.42.48.79.94 1.16 1.41zm-2.63-3.08a.15.15 0 0 0 0 .15c.33.68.63 1.36.92 2.05a18.3 18.3 0 0 1-2.4-3.62 16.87 16.87 0 0 1 1.48 1.42zm-2.76-2.18a4.72 4.72 0 0 0 .4 1.72 6.82 6.82 0 0 1-.47-.52 2.94 2.94 0 0 1-.25-1.22.77.77 0 0 1 .33.01zM73 48.67a11 11 0 0 0-1.22-1.52l.34.13a.07.07 0 0 0 0 .12 3 3 0 0 1 1.33 1.6 3.8 3.8 0 0 0-.45-.33zm-1.22-.39c-.34-.37-.68-.78-1.05-1.14a2.4 2.4 0 0 1 .62.43 4.25 4.25 0 0 1 .59.75zm-2.2-.43a5.66 5.66 0 0 0-.78-1.07h.1l.21.08a1.66 1.66 0 0 1 .71.85l.07.16zm-1.61-.55a1.2 1.2 0 0 1 .38.3l-.81-.48.4.17zm2.13.24q.24.23.46.48h-.18c-.12-.19-.22-.34-.31-.48zm4.36 2.4a9.34 9.34 0 0 0-.39-.88l.21.31a6 6 0 0 1 .35.84zm-8.55-2.69h-.08A25.3 25.3 0 0 1 59 41.62c.92.85 1.88 1.67 2.82 2.5a30.24 30.24 0 0 0 4.06 3.13zm-10.8-9.36l.06.14-.06-.12v-.02zm.75 1c.07.11.12.22.2.32.11.29.23.57.34.86l-.4-.64a.09.09 0 0 0 0-.06c0-.17-.09-.37-.14-.5zm4.19 5.54A30.88 30.88 0 0 1 57.92 42a10.51 10.51 0 0 1-1-1.64c.53.65 1.08 1.28 1.58 1.9A22.52 22.52 0 0 0 62.26 46l-.26-.13a11 11 0 0 1-1.95-1.46zm1.86 9.09c-.92-1-.95-2.49-1.36-3.77a2.17 2.17 0 0 0-.1-.41c1 1.52 2.58 2 4.44 2.34a6.46 6.46 0 0 1 3.39 2.16 4 4 0 0 0 .85.67c-.55.08-1.09.18-1.62.31a5.7 5.7 0 0 0-.86-1.38c-.05-.07-.16 0-.12.09a7.65 7.65 0 0 1 .58 1.17.73.73 0 0 1-.22-.31.09.09 0 0 0-.17 0 .88.88 0 0 0 .28.51h-.11a4.69 4.69 0 0 0-1.75-1.9c-.06 0-.14 0-.08.08a12 12 0 0 1 1 1 2.64 2.64 0 0 1 .38.6c-.82-.8-2.2-1.1-3-1.92-.08-.08-.21 0-.13.13A6.66 6.66 0 0 0 64.87 54a4.61 4.61 0 0 1 .74.56c-1.2-.33-2.72-.01-3.7-1.06zm-.39 22a17.47 17.47 0 0 1 1.89-.78c-.76.39-1.5.81-2.25 1.23zm-9.61 11.56a.54.54 0 0 1-.11-.39c.03.13.07.26.11.39zm-8.27 28v-.25a2.29 2.29 0 0 0 .12.27zm-1.34-2.74h-.07l.21-.08zm-.86.29zm-.37 2.47v.12h-.13zm-5.65-2.66l-.18-.14.22.08zM41.33 125a3.13 3.13 0 0 0-.21-.7 2.89 2.89 0 0 1 .36.69 3.2 3.2 0 0 1-.52 2.7 5.87 5.87 0 0 0 .37-2.69zm.11 2.89zm.83.41a1.34 1.34 0 0 1-.45-1.09c0-.1.08-.2.11-.3a5.13 5.13 0 0 0 .38 1.4zm-1.69.41zm2.4-.28l-.13-.16a4.84 4.84 0 0 1-.69-2.32v-.07a3.06 3.06 0 0 0 0-.6 13 13 0 0 1 .68 2.69c.07.2.11.34.16.49zM40.14 124c.77 1.29.45 2.69.17 4.07a29 29 0 0 0-.26-4.21zm8.61 7.78a4.79 4.79 0 0 0 .42.73l-.35-.16a.87.87 0 0 1-.45-.68v-.55a.21.21 0 0 0-.08-.17v-.31c.14.36.29.72.46 1.1zm-1.43-2.95c.8 1 .52 2.39.12 3.55a13.2 13.2 0 0 0-.82-3.9 8 8 0 0 0-.65-1.14c.44.45.94.91 1.35 1.45zm.45 4.06zm1.7-1a24 24 0 0 1-1.29-2.4 4.14 4.14 0 0 0-.85-1.52 17.75 17.75 0 0 1 1.91 2 12.87 12.87 0 0 1 1.56 3.59c-.41-.66-.95-1.16-1.34-1.74zm-4-5.25l-.06-.06zm-1.52-1.06a9.66 9.66 0 0 1 2.38 4.21c.25 1 .23 2 .42 3a10.75 10.75 0 0 1-.93-1.9c-.35-1-.45-2.13-.78-3.17a6.48 6.48 0 0 0-1.23-2.2zm-1.82-1.27a9.35 9.35 0 0 1 2.63 5.56c-.35-.56-.68-1.13-1-1.72s-.41-1.39-.67-2.09a5.15 5.15 0 0 0-1.1-1.84zm33.55 26.83h.13l-.16.13zm.35-.22h.06l-.09.06zm.34-.19l.23-.14h.15l-.37.19zm5.37 2.12a3.1 3.1 0 0 1-2.08 1.41 17.42 17.42 0 0 0-2.83.89 4.68 4.68 0 0 0-2.36 2.33 5.67 5.67 0 0 1 4.73-4.08 6.37 6.37 0 0 0 2.52-.63zm1.34 2.16v.17h-.09zm-.46 1.44l.11.11-.13-.09zm-1.22 4.5a11.52 11.52 0 0 0-2.67-3.48 3.69 3.69 0 0 1 .47.16c1 .46 1.57 1.68 2 2.64.2.42.38.87.56 1.32zm1.49.76a15.44 15.44 0 0 0-1.73-3.35 4.3 4.3 0 0 0-1.51-1.36c.17 0 .34.11.5.17a8.41 8.41 0 0 1 3 3.73 13.55 13.55 0 0 1 .86 2.9 20.24 20.24 0 0 1-1.14-2.16zm-.24-6v.12l-.09-.07zm-1.6.71a3.91 3.91 0 0 1 1.63 1.2 6.32 6.32 0 0 0-2.31-1.14zm-4.7.38H77h-.2a4 4 0 0 0-.59 0zm-1.92 2c0-.08 0-.16.07-.24.88-1.08 2.07-.88 3.08-.21a2.71 2.71 0 0 0-.46-.11 2.22 2.22 0 0 0-2.71.46zm7.76-4.06c-.52 1.2-2.71 1-3.81 1.08a7.62 7.62 0 0 0-2.26.52 9.39 9.39 0 0 1 3.74-1.38 3.47 3.47 0 0 0 2.69-1.8 5.53 5.53 0 0 1-.38 1.48zm-3.11-1.94a5.9 5.9 0 0 0-2.53 1.1 6.47 6.47 0 0 0-2 2.13q.09-.45.19-.9a5.71 5.71 0 0 1 1.72-1.92 5 5 0 0 1 3.07-.58h.62c-.37-.02-.76.02-1.09.07zm-3.56-.87a4.47 4.47 0 0 1 3.63-1l-1 .17a7 7 0 0 0-2.63 1zm-.19.84a6 6 0 0 1 2.86-1 7.31 7.31 0 0 1 3.14.06 12.72 12.72 0 0 1-1.77.06 7.31 7.31 0 0 0-2.5.39 5.17 5.17 0 0 0-2 1.47zM74.11 160l.23-.25a2.27 2.27 0 0 0-.23.41c.01-.09 0-.16 0-.16zm4.44.25a4.73 4.73 0 0 0-.72-.66 2.82 2.82 0 0 0-2.54-.54c1.25-.65 2.36.07 3.27 1.16zm.22.27l-.05-.07zm-1.57 19.63c-2-.09-4 .1-6 .16-1.45 0-3.37-.44-4.81 0-1.1.3-1.39 1.74-2.57 1.74-1.41 0-2 1.3-2.4 2.5a2.82 2.82 0 0 0-3.11-.16c-.91.4-1.76.91-2.69 1.24a3 3 0 0 1-1.59.09c-.44-.09-.65-.28-.72-.52a1.07 1.07 0 0 1 0-.26 7.28 7.28 0 0 1 1.4-2.39c.43-.53.87-1 1.28-1.55 2-1.88 4.27-3.36 7.23-3.4 2.67 0 5.41.39 8.11.42 2.42 0 5.09 0 7.23-1.13 3.15-.77 2.71-4.52 1.59-6.85 0-.06-.11 0-.09 0a5.77 5.77 0 0 1 .5 3.78 5.08 5.08 0 0 0-.62-1.92c-1.53-3.15-4.14-5-5.33-8.55a10.32 10.32 0 0 1-.48-2.34c.52-3.32 2.86-1.41 3.67-.57a9.66 9.66 0 0 1 1.23 1.83 26.56 26.56 0 0 0 1.83 2.93 5.3 5.3 0 0 0 3.5 1.8 5 5 0 0 1-5-2c-.83-1.22-1.16-2.69-2.22-3.77s-1.64-.22-1.85.72c.18-.45.74-.64 1.68-.55a4.61 4.61 0 0 1 .72 1.1c.33.62.57 1.29.85 1.93a5.88 5.88 0 0 0 2.21 2.57 4.44 4.44 0 0 0 4.69.5 2.84 2.84 0 0 1-3.44 1.15 7.85 7.85 0 0 1-4.68-4c0-.06-.13 0-.1.06a8.55 8.55 0 0 0 5.17 4.4 2.69 2.69 0 0 0 2.67-.42 13 13 0 0 0-.63 4.67 11.88 11.88 0 0 0 1.65 4.43 4.33 4.33 0 0 1 .25 1.39c-1.87 1.94-6.72 1.04-9.12.93zm7.58-56c10.45 7.32 22.24 11.28 26.73 24.29h-.07a12 12 0 0 1-4.45-4.67h-.07a13.8 13.8 0 0 0 4.18 5.21 5.71 5.71 0 0 1 2.16 4c.2 1.57.29 3.17.49 4a12.41 12.41 0 0 0 3.32 6.37 2.72 2.72 0 0 0 3.23.44 3.39 3.39 0 0 1-4.1.7 5 5 0 0 1-2.1-2.17.27.27 0 0 0-.06-.1c-.32-.55-.6-1.11-.86-1.62a11.36 11.36 0 0 1-.51-4.09c0-.11-.17-.12-.18 0a27 27 0 0 0 .39 6.53v.08c-1.09-1.87-.62-4.39-1.54-6.39v-.09a9.72 9.72 0 0 1-.25-4.24.07.07 0 0 0-.14 0c-.54 2-.21 4.12-.07 6.15a5.49 5.49 0 0 1-.78-1.81 13.77 13.77 0 0 0-.33-5.66.23.23 0 0 0-.11-.15 8.68 8.68 0 0 0-3.48-4.36s-.08 0 0 .07a8.56 8.56 0 0 1 3.3 6.38c.17 6.36-4.05 10.3-6.14 16.22-1.64 4.64-1.14 8.86 0 13.41a23.21 23.21 0 0 1-1.63-4.74.1.1 0 0 0-.19.05 28.25 28.25 0 0 0 1.75 5.69 31.83 31.83 0 0 0 2.52 4 9.09 9.09 0 0 1 1.14 3.24c.27 2.39-1.7 6.19-2.18 8.58a47.75 47.75 0 0 0-.55 15.5 10 10 0 0 1-.79-2.31c0-.07-.12 0-.1 0a11 11 0 0 0 1.89 4.67l.12.22c-.3.05-.59.12-.93.2a.35.35 0 0 0-.21.52 2.41 2.41 0 0 1 .44.73c-1.1-.09-1.56.86-1.89 2.06a6.38 6.38 0 0 0-.31 1.24 6.37 6.37 0 0 1-.91 2.34 1.14 1.14 0 0 1-.28.19 4.15 4.15 0 0 1-1 .2 8.69 8.69 0 0 0-3.9-.34c-1.94.32 1.28-4.88 1.54-5.25 1.31-1.87 2.73-3.66 3.29-5.8.76-2.07.61-4.64.51-6.78.12-4.36 0-8.74.12-13.09.13-5.46-4.22-9-7.29-13.06a51 51 0 0 1-7.62-14 .25.25 0 0 0-.11-.32c-.34-1-.67-2-.95-3-1.4-5.15 0-10.71-2.71-15.49-.1-.18-.35 0-.27.16a16 16 0 0 1 1.14 4.56c-.07-.15-.14-.29-.22-.43a.37.37 0 0 0-.23-.38c-2.15-3.51-5.83-4.84-10-6.19-4.48-1.45-8.44-3.94-12.44-6.37l-.26-.16a11 11 0 0 1-3.77-5.24 4 4 0 0 0-1.09-2.24c-1.17-1.14.08-1.52.69-2.17a.05.05 0 0 0-.07-.07c-.62.55-1.66.76-1.86 1.64-.08.37 1.85 2.54 1.79 2.31a9.78 9.78 0 0 0 1.48 3.43 8.11 8.11 0 0 1-2.66-2.93c0-.09-.2 0-.17.07a7.47 7.47 0 0 0 1.36 2.19 2 2 0 0 0-1-.49 1.5 1.5 0 0 0-.81.11 1.32 1.32 0 0 0-1 1.85h-.07a.34.34 0 0 0-.22-.1l-.22-.13a5.72 5.72 0 0 1-.41-.56 6.77 6.77 0 0 0-.51-1c-.62-1.36-1-2.93-1.55-4.21a7.45 7.45 0 0 0-2.34-3c1.19.52 1.87.18 2.68-1 1.36-.09 2.86.34 3.09-1.56a6.13 6.13 0 0 0-.21-2 1.91 1.91 0 0 1 .24-1.72c.75-.43 1.86-.5 1.83-1.65a2 2 0 0 0-.35-1.21c-.35-.45-1-1-.31-1.69a3.45 3.45 0 0 1 1.07-.66s0-.06 0 0c-.69.2-2.13.81-1.62 1.81a5.59 5.59 0 0 1 .67 1.56 1.77 1.77 0 0 1-.35.52H55a2.28 2.28 0 0 0-2 2.84 6.36 6.36 0 0 1 .22 2.42c-.15.67-1.07.76-1.88.9l.06-.1c.9-.94.45-2.42.46-3.69a4.92 4.92 0 0 1 .46-1.53h-.06a4.13 4.13 0 0 0-.54 1.14 1.92 1.92 0 0 0 0 .22c-.07.57-.1 1.14-.12 1.72a3 3 0 0 1-.59 1.61c-1.14 1.23-1.86 1.46-3.66.31-2.57-1.64-5-3.54-7.5-5.25a47.81 47.81 0 0 0-9.39-5.06c-.39-.25-.78-.5-1.2-.72a2.8 2.8 0 0 1-1.66-1.71 2.19 2.19 0 0 1 .87-1.36c.09-.07 0-.21-.09-.15a2.84 2.84 0 0 0-1.52 2.48c-.16 1.56 0 3.15-.12 4.73-.29 1.74-.62 3.47-.76 5.19a11 11 0 0 0 .51 4.3c.27.84 1.94 2.15 1.25 3-.68.38-1.5.39-1.77-.54h-.08c0 .9.68 1.15 1.4 1a.19.19 0 0 0 .16.15.27.27 0 0 0 .07.15l.21.2c-.16 0-.33.07-.47.08a1.15 1.15 0 0 1-1.38-.66c0-.09-.18 0-.16.07a1.38 1.38 0 0 0 1 1.06 2.86 2.86 0 0 0 .86 2c.59.68 1.83 1.43 1.2 2.3v.05l-.15.16-.25.27c-.44.45-1.08.68-1.54 1.14-.07.07 0 .16.1.1a6.52 6.52 0 0 1 .91-.56 13.85 13.85 0 0 0-2.1 4.64c-1.29-2.56-1.22-5.85-1.46-8.61a3.7 3.7 0 0 0 .91-1.25c0-.07-.09-.1-.11 0a1.35 1.35 0 0 1-1 1h-.13a1.33 1.33 0 0 0-.34 0 13.34 13.34 0 0 0 .38-2.79h-.05a3.5 3.5 0 0 1-.32 1.08 132.44 132.44 0 0 0-.91-16.43c-.33-3.58-.39-8.66 5.56-6.68a37.08 37.08 0 0 1 5 2.42c.89.45 2.27 1.25 3.8 2l.11.09a.22.22 0 0 0 .19.05c2.9 1.36 6.29 2.42 8.08.64a3.07 3.07 0 0 0 .34-4.2c-.06-.08-.19 0-.14.08a2.79 2.79 0 0 1-.06 2.87 4.62 4.62 0 0 1-.79.55h-.26a.91.91 0 0 1-.75-.59 3.93 3.93 0 0 1-.08-.59 8.89 8.89 0 0 1 .44-2.41 10.44 10.44 0 0 1 2.28-3.55c.24-.2.44-.31.56-.28a.27.27 0 0 0 .29-.12c.42-.62.33-1.09 1.07-1.29s.72-1.26.7-1.75a.08.08 0 0 0-.16 0c-.06 1.7-1.16.88-1.58 1.73-.17.33-.15.52-.31.81a.14.14 0 0 0-.12 0 .7.7 0 0 0-.41 0c-1.3 1-2.06 2.45-3.17 3.62a6.82 6.82 0 0 1-3.1 1.85 15.09 15.09 0 0 1-7.5-1.59.11.11 0 0 0-.12 0 15.11 15.11 0 0 1-4.59-3.85l-.21-.43a3.22 3.22 0 0 0-1.5-1.67 5.52 5.52 0 0 0 1.5-1 .15.15 0 0 0-.18-.23c-1.79 1.16-3.93.91-5.77 2a37.63 37.63 0 0 0-4 3.09 22.77 22.77 0 0 0-3.46 3.41c.25-.44.52-.87.72-1.33 0-.11-.11-.21-.17-.1-.75 1.54-2.12 3-2.11 4.69-.16.36-.36.61-.63.66h-.11a3.73 3.73 0 0 1-.6-.27c-.33-.19-.63-.4-1-.1 0 0 0 .1.06.07.6-.43.95.57 1.36.8h.14a5.85 5.85 0 0 0 0 .74 3.4 3.4 0 0 1-1.72-.19l-.14-.09a3.37 3.37 0 0 0-.87-.36c-.41-.1-.61.37-.73.68 0 .09.12.15.16.06s.24-.65.56-.5c.16.08.25.28.35.41l.11.13a3.46 3.46 0 0 0-.41 1.34c-.16 1.4-.43 2-2.05 2a14.52 14.52 0 0 0-2.46.08c-.28 0-2.83 1-3.51 1.05.14-.24.27-.47.4-.71a17.52 17.52 0 0 0 2.46-3.75c1.81-3.3 5.51-5.14 8.45-7.4a58 58 0 0 0 5.3-4.77c2.37-2.32 4.68-6.29 8.41-6.46a.17.17 0 0 0 .13-.08c2.65.32 3.8 3.65 5 5.79a13.64 13.64 0 0 0 1.67 2.48c.61.85 1.48 1.77 2.33 1.54a3.57 3.57 0 0 0 2.57-1.12 3.24 3.24 0 0 0 .19-4.31 1.7 1.7 0 0 0-.09-.19c-.06-.12-.23 0-.18.1a.84.84 0 0 0 .09.16.09.09 0 0 0 0 .11 2.74 2.74 0 0 1-.37 3.57 3.15 3.15 0 0 1-1.1.79 3.25 3.25 0 0 0 1.51-2.93 1.87 1.87 0 0 0-1.65-1.54 1.57 1.57 0 0 0-1.33.48c0-1.08.14-1.81 1.25-2.38l.18-.1a5.17 5.17 0 0 0 2.24-1.72c.39-.63.58-1.72-.12-2.19a1.69 1.69 0 0 1 0 1.76 1.21 1.21 0 0 0-.29-1.38 1.15 1.15 0 0 0-1.31 0 4.56 4.56 0 0 1 .23-.72 3 3 0 0 1 1.13-1.15 9.65 9.65 0 0 0 1.31-1 3.55 3.55 0 0 0 .84-.54 1.81 1.81 0 0 0 .29-2.18c0-.05-.12 0-.1 0a1.61 1.61 0 0 1-.32 1.68 1.32 1.32 0 0 0-.32-1.55 1 1 0 0 0-.88-.21c1.54-1.47 3.88-1.14 5.52-2.33a.17.17 0 0 0 .11-.07v-.05l.26-.24a1.35 1.35 0 0 1 1.24 0c1.12.71 2.27 1.39 3.43 2l-.24.01s-.05 0 0 .05a5.48 5.48 0 0 0 .72.26c2.2 1.24 4.42 2.45 6.54 3.82s4 2.75 6 4.18a43.9 43.9 0 0 1 4.08 5.54 48.86 48.86 0 0 1 2.63 4.31 16.26 16.26 0 0 0 2.74 3.24c3.25 4.68 7.93 8.49 12.51 11.7zM76.95 95a4.84 4.84 0 0 0 .13-.93 1 1 0 0 1 1.49-.92c1.42.69.83 2.75-.44 3.2a5 5 0 0 1-1.66.08 1.58 1.58 0 0 1 1.06-.19.1.1 0 0 0 .05-.2 2.5 2.5 0 0 0-2 .58l-.1.07-.8.47h-.33a.1.1 0 0 0 0 .19h.2a11.33 11.33 0 0 0-2.4 1.91c-.85.92-1.76 1.72-2.66 2.56-1.71-2.44-5-4.2-7.37-5.74-4-2.54-8-4.55-12.11-6.73 6.19 4.19 15 6.85 19.29 13.42s0 0 0 .07c-.94 0-3.5-2.48-4.06-2.89q-3.3-2.39-6.67-4.67A118.25 118.25 0 0 0 47 88.89a3.67 3.67 0 0 0-.89-.46l-.33-.17a.14.14 0 0 0-.2.05.66.66 0 0 0-.44.14 1 1 0 0 1 .4-.6l.41-.23c.57 1 2 .33 2.23-.62a.08.08 0 0 0-.14-.06 1 1 0 0 1-1 .58c2.05-2.24 2.38-6.4 1.65-9.16a.13.13 0 0 0-.23-.06s.05 0 .07-.06 0-.2-.11-.19c-.36 0-.63.19-.83-.2a1.06 1.06 0 0 1 .17-1.16.73.73 0 0 1 .66-.17c.41.06.68.29.6.7s-.27.86 0 1.17a.1.1 0 0 0 0 .11c2.55 2.06 2.11 5.3 2.81 8.13 0 0-.1-.06-.12 0a.69.69 0 0 0 .15.76.48.48 0 0 1-.16.08 1.35 1.35 0 0 1-.39-.67h-.07a1.59 1.59 0 0 0 .31.65.48.48 0 0 1-.23-.15 4.18 4.18 0 0 1-.57-1.69c0-.06-.11 0-.1 0 .09.7-.1 1.6.4 2.19s1 .35 1.46 0a1.6 1.6 0 0 0 .27-.13.26.26 0 0 0 .08-.09 57 57 0 0 0 5.14-3.5 1.26 1.26 0 0 0 .81-.62.8.8 0 0 0 .25-.59c0-.38-.09-.63.08-1a1.21 1.21 0 0 1 1.23-.77.91.91 0 0 1 .1 1.72 1.55 1.55 0 0 0-.68.36 1.25 1.25 0 0 0-.27 1.37c-.22 1.91-1.07 8 .58 8.92a1.61 1.61 0 0 0 2.35.63c.07-.06 0-.15-.08-.14a1.79 1.79 0 0 1-.62 0 3.16 3.16 0 0 0 1.15-.44c.08-.05 0-.2-.07-.16a2.28 2.28 0 0 1-1.21.11 10.52 10.52 0 0 0 2.23-1.09 15.92 15.92 0 0 0 3.51-2.49c.93-.51.6-2.77 2-2.51.67.13 1.76 1.78.59 1.82a2.26 2.26 0 0 0-1.39.26c0-.08 0-.15-.06-.23s-.29-.13-.28 0 0 .4 0 .6a.29.29 0 0 0 0 .11 24 24 0 0 1-.57 3.85 5 5 0 0 0 .08 2.48l-.17-.08c-.52-.26-.51-.89-.44-1.38 0-.08-.13-.1-.14 0a1.93 1.93 0 0 0 .19 1.39 2.37 2.37 0 0 0 .51.62 1.4 1.4 0 0 1-.86-.22c-.08-.06-.22 0-.15.11a2 2 0 0 0 2.37.5c1.57-.43 3.17-1 4.78-1.3.81-.07 1.62-.14 2.43-.28s1.58-.48 1.37-1.31h-.07c0 .39-.24.62-.62.74-.01.02.01.01.02-.06zm-16.73-8.29h.06zm-.38.37v-.15l.16-.1a2 2 0 0 1-.16.25zm13.78 4.64h-.07l.19-.2zM68.75 93h-.09l.14-.07zm18.49-34.13c1.34.55 3 .44 4.39.89a20 20 0 0 0-4.18 2.09 7.7 7.7 0 0 1-7.92-.06 2.88 2.88 0 0 1-1-2.17.07.07 0 0 0-.13 0 3.4 3.4 0 0 0 2.5 3.79 13 13 0 0 1 1.1 1.43 5.92 5.92 0 0 1 .7 1.84c.48 5.28-1.52 11.72-3.5 16a59.67 59.67 0 0 1-4.56 7.39l-.9.87a10 10 0 0 0 1.62-4.81c0-.08-.11-.07-.12 0-.17 2.52-1.7 4.26-2.95 6.23q-1.29 1.27-2.73 2.45l.14-.31c.34-.73.63-1.48.9-2.24a5.13 5.13 0 0 0 .68-.52c.4-.32 1-.76 1-1.31s-.86-.79-1.24-.51a2 2 0 0 0-.61 1.42l-.22.28c-.56.37-1.13.72-1.7 1.07a13.72 13.72 0 0 0 .15-2.4.32.32 0 0 0 .21-.16c.25-.41 1-.17 1.42-.27a1 1 0 0 0 .78-.68 2.26 2.26 0 0 0-1.2-2.18 1.42 1.42 0 0 0-1.93.39c-.45.62-.37 1.52-.66 2.24-1.92 1.42-4.33 3-6.73 3.1-.1-.3-.18-.6-.25-.91.1-1 .17-2 .37-3 .06-.29.13-.58.21-.87s.31-.56.49-.84c.31-.49.5-.89 1.12-1.1a1.64 1.64 0 0 0 .69-.66 1 1 0 0 0-.27-1.35 1.27 1.27 0 0 0-1.46.11.91.91 0 0 0-.43 1 .46.46 0 0 0 .08.33 3.79 3.79 0 0 1-1.27 1.27c0-.84 0-1.68-.07-2.52a.73.73 0 0 1 .15-.35 1.24 1.24 0 0 1 .7-.41 1.19 1.19 0 0 0 .79-.51 1.78 1.78 0 0 0-.61-2.48 1.71 1.71 0 0 0-2.09.63 1.74 1.74 0 0 0-.39 1.06c0 .21.17.58.2.89 0 .1-.09.2-.15.3a1.57 1.57 0 0 1-.2.26c-1.76 1.08-3.67 2-5.4 3.08l-.12.06a7.13 7.13 0 0 0 0-2.37 4.7 4.7 0 0 1 .73-1.8 19 19 0 0 1 2-2.31 25.33 25.33 0 0 0 4-2.59 14.35 14.35 0 0 0 1.15-1c1.46-.65 2.91-1.38 4.41-2a48.24 48.24 0 0 1-4.71 2.58c-.07 0 0 .14.06.11 2.27-1 4.49-2.18 6.69-3.35l.23.01a70.32 70.32 0 0 1-8.55 5v.06c4.34-2 9.79-3.84 12.88-7.7a.2.2 0 0 0 0-.09 1.77 1.77 0 0 0 .39-.68c1.19-1.79 1.53-4.33 3.22-6.22a.14.14 0 0 0-.2-.2 3.5 3.5 0 0 0-1.35 1.8c-2.35 6.63-6.45 6.27-12.29 5.43-4.14-.6-7.64 1-11.45 2.17a2.82 2.82 0 0 1-.65 0 3 3 0 0 0-.36-.15.33.33 0 0 0-.11-.11c-.37-.23-.59-.34-.62-.72a7.45 7.45 0 0 0 1.13-.42.09.09 0 0 0 .11 0c.87-.38 1.84-.42 2.73-.72a3.36 3.36 0 0 0 1.39-.28c.85-.37 1.27-1 2.3-1a.88.88 0 0 0 .81-.42c0-.05 0-.11-.08-.08-.36.19-.89 0-1.28 0a2.13 2.13 0 0 0-1.17.36 4.67 4.67 0 0 1-1.8.83 2.21 2.21 0 0 1-.43 0 10.18 10.18 0 0 1-1.71-.86 2.05 2.05 0 0 0-2.65.29 2.85 2.85 0 0 0-.28.18 2.05 2.05 0 0 1-2.33-.08 2.59 2.59 0 0 1-.73-.69 6.54 6.54 0 0 1-.35-1.39 3 3 0 0 1 .69-2.3c1.45-1.26 3.69-1.12 5.61-1.58a21 21 0 0 0 5.8-2.93C61 58.33 64.89 56 70.5 55h.31a.22.22 0 0 0 .19 0 10.78 10.78 0 0 0 2.47-.3l-.09.07a5.75 5.75 0 0 1-.79.46c-.25.13-.47.33-.72.46-.05 0 0 .1 0 .09a7.9 7.9 0 0 0 1.8-.68.29.29 0 0 0 0 .34 6.54 6.54 0 0 1-1.43 1.22v.1a4.13 4.13 0 0 0 1.4-.85l.41-.39a.32.32 0 0 0 .1-.07c1.65-1.64 2.83-6.08 1-8C73 45.09 70 43.56 67.69 41.3a14.55 14.55 0 0 1-4.34-12.1c.94.54 1.21 3.53 1.47 4.49 0 .1.06.2.09.29a14.54 14.54 0 0 1-1-2.87h-.06a13 13 0 0 0 3.29 7l.36.46a16.65 16.65 0 0 0 10.31 6.33 3.16 3.16 0 0 1-2.41.1v.05a5.84 5.84 0 0 0 3.36.07.13.13 0 0 0 .11 0l-.09.08a3.09 3.09 0 0 1-4.32.14c-.09-.07-.21 0-.12.12a3.45 3.45 0 0 0 3.21 1.1.12.12 0 0 0 .14 0l.14-.09a5.49 5.49 0 0 0 1.65-1.11c.76-.51 1.52-1 2.29-1.48s1.41-.79 2.06-1.17a22.59 22.59 0 0 1 2.27-1c3-1.14 6.11-.47 9.09-1.22l.27-.08c2.13-.46 3.74-.74 4.83-2.86a11.74 11.74 0 0 0 1-7.18c0-.11-.21-.09-.2 0a11.05 11.05 0 0 1-1.37 6.84 3.67 3.67 0 0 1-1.4 1.46 7.79 7.79 0 0 0 2.16-6.67A15.44 15.44 0 0 0 98 25.26c-.76-1.14-1.57-2.23-2.31-3.38-2.79-4.36 2.74.31 3.21 1a22.93 22.93 0 0 1 3.67 16.24 14.81 14.81 0 0 1-1.76 2.88c-.21.17-.42.34-.65.5s0 .29.12.21a8 8 0 0 0 1.84-1.43 3.25 3.25 0 0 1-.22.85 6.2 6.2 0 0 1-.93 1.35c-.07.08 0 .2.12.12a9.42 9.42 0 0 0 1.39-2h.16a2.67 2.67 0 0 0 .59 1.56c.13.14.31 0 .25-.19a3.74 3.74 0 0 1-.29-1.26c6.58 1.45 14.83 5.47 21.29 2.63 5.92-2.6 4.94-12.67 11.17-14.82a7 7 0 0 1-1.57 2.55 12.46 12.46 0 0 0-1.63 3.2 17.43 17.43 0 0 0-1 4.54 14.79 14.79 0 0 0 .09 2.59c0 .61-.06 1.22-.13 1.82l-.05.07c-.32 1.32-1.39 2.77-2.9 2.09-.07 0-.13.06-.06.11a2.05 2.05 0 0 0 2.39-.08.19.19 0 0 0 .13 0 6.36 6.36 0 0 0 .65-.49l.11-.06h.09a31.56 31.56 0 0 0 5-1.69 20.29 20.29 0 0 0 4.29-3c.1-.09 0-.23-.15-.15a17.72 17.72 0 0 1-4.46 2.54c-.19.08-.4.14-.59.22 5.14-2.1 9-8.46 5.6-13.56a12.25 12.25 0 0 0-1.12-1.3 12 12 0 0 1-1-1.67 4 4 0 0 0 1.45 1.09.09.09 0 0 0 .09-.15 4.58 4.58 0 0 1-1.36-1.34A19.09 19.09 0 0 0 145 30a5.35 5.35 0 0 0 4.75.2 7.36 7.36 0 0 0 4.16-5 .08.08 0 0 0-.16 0 6.23 6.23 0 0 1-3.56 4.12 7.69 7.69 0 0 0 2.58-3.32.2.2 0 0 0 0-.17 5.93 5.93 0 0 0 .17-2.49 5.07 5.07 0 0 1-.25 1.66c-.15.47-.39.91-.53 1.38a7.88 7.88 0 0 1-1 1.35 7 7 0 0 0 1-3.47.08.08 0 0 0-.15 0 7 7 0 0 1-1.9 4.41 6.14 6.14 0 0 0 .26-6.24 18.17 18.17 0 0 0-3.37-4.29c.71.44 1.41.91 2.15 1.32a.08.08 0 0 0 .08-.14c-1.28-.81-2.5-2.06-3.94-2.65-1.5-1-3.23-1.68-4.59-3a2.44 2.44 0 0 1 .7-.17h.6c1.76.16 3.82 1.55 5.13 2.14a10 10 0 0 0 3.6.86c2.26.13 4.23-1 4.69-3.15 1-1.6-.72-4.42-1.64-5.65 0-.06-.16 0-.11.07 1.11 1.63 2.1 3.68 1.27 5.62a.2.2 0 0 0 0 .15C154.17 15.41 153 16 151.7 16a4.65 4.65 0 0 0 1.4-.71 2.81 2.81 0 0 0 1.25-3.07c0-.08-.13 0-.12 0a2.42 2.42 0 0 1-1.74 2.78 2.89 2.89 0 0 0 .79-1.16c1-1.6.31-3.93-.09-5.58a.08.08 0 0 0-.12-.06.87.87 0 0 1-.09-.42c0-.08-.13-.1-.14 0a.83.83 0 0 0 .21.75c.06.31.12.63.17 1-.8-2.55-2.78-4.32-4.55-6.86l1.68-.64q.57.69 1.12 1.39c2.15 2.72 4.16 4.65 5.45 8a27.19 27.19 0 0 1 .91 14.58c-1.66 9-8.22 14.1-15.19 18.91-8.74 5.12-21.81 3.26-31.06 2-5-.69-9.84-2-14.81-2.6A23.83 23.83 0 0 0 84.15 46a13.77 13.77 0 0 1 2.75-1.49c3.33-1.29 7.23-1.07 10.74-1 .12 0 .11-.16 0-.18-4.55-.55-10.48-1-14.36 2-2 1.61-4.36 4.21-4.18 6.9a6.23 6.23 0 0 1-.35-1.47h-.05a4.59 4.59 0 0 0 .3 1.79 3.64 3.64 0 0 1-.58-1.12.09.09 0 0 0-.16 0 6 6 0 0 0 1.45 2.77l.34.36a4 4 0 0 1-1.54-.79 8.82 8.82 0 0 0 2.31 1.5l.17.14c-.61 0-1.23.08-1.84.11-.13 0-.17.22 0 .24a14.11 14.11 0 0 1 5 1.17c1.04.62 1.96 1.48 3.09 1.94zm-6.38-9.44a2.59 2.59 0 0 1 0 .57 2.26 2.26 0 0 0-.17-.27c.07-.1.11-.2.17-.3zm.24-.4l.09-.14.12-.12a1.76 1.76 0 0 1 .22 1.23 2.19 2.19 0 0 1-.14.46A2.76 2.76 0 0 0 81.1 49zm2 0L83 49h.1a2.26 2.26 0 0 0 .35 0c.19 0 .17-.08.07.15a2.13 2.13 0 0 1-.51.62 1.36 1.36 0 0 0 .06-.77zm2.63-.28a1.63 1.63 0 0 0-.35 0h-.08a.44.44 0 0 0 0-.11h.5zm-1.57.49a1 1 0 0 0 0-.34 1.38 1.38 0 0 0 .45.13 2.49 2.49 0 0 1-.29.41 3.24 3.24 0 0 1-1.06.78c.32-.29.74-.56.86-.97zm2.27-.52v-.07h.24zm3.37-1.92h.1a1.83 1.83 0 0 1-.36.45 2.16 2.16 0 0 0 .23-.45zm1.2-1.06c0 .09-.06.18-.09.27v-.26zm-.12 2.15a4.15 4.15 0 0 0 .63-.54 5.47 5.47 0 0 1-.82.75l.13-.18zm0 1.87a9.41 9.41 0 0 0 1.43-.66 2 2 0 0 0 1-2.16c.56.9 1.07 1.57-.27 2.06-.62.23-1.39.54-2.17.76zm1.72-2.41a1.57 1.57 0 0 1-.89 1.41 9.61 9.61 0 0 1-2.31.95c.4-.2.78-.41 1.13-.62a6.84 6.84 0 0 0 2.06-1.75zm4.76 2.28l-1 .08.69-.1zm-4 .07l.41-.15c.62-.24.9-.55 1-.89a3.69 3.69 0 0 0 .46.35 3.18 3.18 0 0 0 .37.19c-.79.11-1.53.3-2.26.49zm-4-4.3c-.51 3.19-4.54 2.76-7.29 2.8 1.8-1.3 4-1.87 6.13-2.63zm-7.74 3.2l.41.19a.58.58 0 0 1 .35.76 2 2 0 0 1-.4.75v-.29a1.65 1.65 0 0 0-.36-1.41zm9.9 1.81zm.13 0l1.16.08a.1.1 0 0 0 0 .07c-.4 0-.8-.09-1.19-.15zm1.55.1a23.37 23.37 0 0 0 7.62-.68.29.29 0 0 0 .21-.2h1.81a24.39 24.39 0 0 1-9.2 1zm16.8-1.87h-.25.47a.48.48 0 0 0-.16 0zm.55.16a.42.42 0 0 0-.23-.15h.32a.36.36 0 0 0 0 .1zm-1.09 1.54a8.59 8.59 0 0 0 2-1l.71.05-.51.21a16.33 16.33 0 0 1-2.23.75zm-4.46-.93l-.19.09a.3.3 0 0 0 0-.12 5.11 5.11 0 0 0 .73-.25zm-3.19 1.25a.13.13 0 0 0 .16.17 31.45 31.45 0 0 0 3.64-1l.08.08a17.4 17.4 0 0 1-8.5 1.51 20.24 20.24 0 0 0 4.67-.76zm.42 1h.68-.68zm14.55-2h.21l-.3.11zm-17.1-.87c-1.87 0-4.2.16-5.43-1.61l-.25-.59a8.6 8.6 0 0 0-.78-1.43 44.07 44.07 0 0 1 8.92 1q2.35.48 4.7.91c-1.38 2.2-4.84 1.68-7.11 1.7zM80.59 50a2.67 2.67 0 0 1 .18.73c0 .18-.09.37-.14.55a6.16 6.16 0 0 0-.22-.76c.05-.2.11-.38.18-.52zm3.85.3zm6 .31c.4.11.81.22 1.22.31l-1.59-.23zm15.75 1.28a.39.39 0 0 0 .15.11h.08c-.42 0-.86 0-1.29.05a10.4 10.4 0 0 0 1.1-.19zm3.14-.21h.13-.12zm.21 0a17.59 17.59 0 0 0 3.71-1.42q.67-.08 1.34-.21l.58-.11a11.56 11.56 0 0 1-2.06 1c-1.11.22-2.32.47-3.53.68z" fill="#7c1531"/><path class="cls-1" d="M35.94 102.39c-.08 0 0 .15.07.12a1.8 1.8 0 0 1 1.81 0c.05 0 .13 0 .09-.09-.47-.66-1.41-.34-1.97-.03z" fill="#7c1531"/><path class="cls-1" d="M15.38 109.77a.89.89 0 0 0-.23.33l.07.05a2.93 2.93 0 0 0 .28-.26.08.08 0 0 0-.12-.12z" fill="#7c1531"/><path class="cls-1" d="M72.79 44.17h-.06a1.74 1.74 0 0 0 .68.59s.07 0 0-.05a5.19 5.19 0 0 1-.62-.54z" fill="#7c1531"/><path class="cls-1" d="M73.77 45a.55.55 0 0 0 .24.23s.05 0 0 0z" fill="#7c1531"/><path class="cls-1" d="M150.59 20.56c.55 1 1.34 1.92 1.37 3.14a.15.15 0 0 0 .29 0c0-1.21-.94-2.24-1.51-3.23a.09.09 0 0 0-.15.09z" fill="#7c1531"/><path class="cls-1" d="M151 4.77a3.11 3.11 0 0 0 .75.94 3.12 3.12 0 0 1-.75-.94z" fill="#7c1531"/><path class="cls-1" d="M152.07 6.16c.24.42.48.85.75 1.25h.07c-.22-.43-.5-.83-.75-1.25h-.07z" fill="#7c1531"/><path class="cls-1" d="M141.79 40.27c2.75-2.78 3.52-7.88.22-10.51 0 0-.11 0-.07.07 3.21 2.78 2.24 7.44-.28 10.32-.08.08.05.2.13.12z" fill="#7c1531"/><path class="cls-1" d="M141.38 42a2.18 2.18 0 0 1 .39-.33.08.08 0 0 0-.09-.15 2.47 2.47 0 0 0-.44.34c-.09.14.05.24.14.14z" fill="#7c1531"/><path class="cls-1" d="M142.6 40.49a4 4 0 0 0-.35.32.09.09 0 0 0 .13.12 3.85 3.85 0 0 0 .31-.35.06.06 0 0 0-.09-.09z" fill="#7c1531"/><path class="cls-1" d="M144.72 36.34a8.24 8.24 0 0 1-1.78 3.57c-.06.05 0 .14.09.09a6.75 6.75 0 0 0 1.88-3.6.1.1 0 0 0-.19-.06z" fill="#7c1531"/><path class="cls-1" d="M145.5 35a4.71 4.71 0 0 1-.12-.89.06.06 0 0 0-.13 0 4 4 0 0 0 0 .95c.06.14.28.08.25-.06z" fill="#7c1531"/><path class="cls-1" d="M144.92 32.25l-.27-.75c0-.12-.23-.07-.19.05l.23.76c.05.15.31.09.23-.06z" fill="#7c1531"/><path class="cls-1" d="M96.41 22.08c.57.8 1.23 1.51 1.86 2.25 0 .05.13 0 .09-.07-.57-.78-1.25-1.47-1.82-2.26-.06-.09-.19 0-.13.08z" fill="#7c1531"/><path class="cls-1" d="M99.3 25.63a3.89 3.89 0 0 1 .56.93h.07a3.87 3.87 0 0 0-.61-.91s-.03-.04-.02-.02z" fill="#7c1531"/><path class="cls-1" d="M100.37 27.67c0-.07-.15 0-.12.05s.15.41.25.61.18 0 .14-.08-.18-.39-.27-.58z" fill="#7c1531"/><path class="cls-1" d="M100.8 29.17a2.26 2.26 0 0 1 .29.65c.06.17.33.1.27-.08A1.88 1.88 0 0 0 101 29c-.11 0-.27.07-.2.17z" fill="#7c1531"/><path class="cls-1" d="M76.73 48.24a1.46 1.46 0 0 1 .6.16.13.13 0 1 0 .1-.24 2.08 2.08 0 0 0-.7-.16c-.16 0-.15.22 0 .24z" fill="#7c1531"/><path class="cls-1" d="M77 49c-.19 0-.19.28 0 .3a.9.9 0 0 1 .52.21c.13.09.25-.1.16-.21A.88.88 0 0 0 77 49z" fill="#7c1531"/><path class="cls-1" d="M77.38 50.21l-.25-.21a.09.09 0 0 0-.13.13l.24.26c.09.06.24-.09.14-.18z" fill="#7c1531"/><path class="cls-1" d="M78.39 49.16v0z" fill="#7c1531"/><path class="cls-1" d="M57 122.38c-1.88.52-1.93 1.55-1.75 3.34.26 2.57-1.48 2.87-3.56 3.07-.37 0-.54.39-.66.68s.34.8.56 1c.92.93 1.55 1.12 1.58 2.58 0 1.1.5 1.51 1.5 1.07.13-.06 0-.26-.09-.22-1.57.37-.79-1.88-1.26-2.42a7.66 7.66 0 0 0-1.14-1c-1.23-1 .85-1.11 1.45-1.09.8 0 1.46-1.06 1.68-1.65.65-1.78-.73-4.31 1.73-5.24a.08.08 0 0 0-.04-.12z" fill="#7c1531"/><path class="cls-1" d="M75.27 162.39a3 3 0 0 1 .06-.42 1 1 0 0 0-.06.42z" fill="#7c1531"/><path class="cls-1" d="M75.33 163.22a.06.06 0 0 0 .12 0 2.47 2.47 0 0 1-.19-.79 2.25 2.25 0 0 0 .07.79z" fill="#7c1531"/><path class="cls-1" d="M76.51 164.5l-.15.14c-.07 0 0 .16.07.11s.11-.07.19-.19-.07-.12-.11-.06z" fill="#7c1531"/><path class="cls-1" d="M49.06 90.81a1.06 1.06 0 0 0-1 .36 1.58 1.58 0 0 1-1.94.36c-.57-.2-1.29.46-1.33 1a5.06 5.06 0 0 0 .21 1.55c.11.47.52 2.68-1.26 1.76a4.85 4.85 0 0 1-.81-.64 1.63 1.63 0 0 0-2.1-.28V95c1.71-.85 1.89 1.14 3.23 1.24a1.18 1.18 0 0 0 1.28-1 4.75 4.75 0 0 0-.17-1.57c-.07-.29-.47-2.34 1-1.57a6.29 6.29 0 0 0 .56.38c1.35.55 1.46-1 2.44-1.41.11-.07.02-.25-.11-.26z" fill="#7c1531"/><path class="cls-1" d="M50.67 85.08a14.24 14.24 0 0 0-.95-4.39.07.07 0 0 0-.13 0c.15.74.32 1.47.49 2.2s.22 1.48.44 2.17a.07.07 0 0 0 .15.02z" fill="#7c1531"/><path class="cls-1" d="M49.27 84.08c0-.05-.09-.05-.08 0 .1 1.49-.07 3.11.65 4.48.06.1.21 0 .16-.09a12.43 12.43 0 0 1-.73-4.39z" fill="#7c1531"/><path class="cls-1" d="M52 89.32c-.1 0-.06.16 0 .15a2.69 2.69 0 0 0 1.4-.65.06.06 0 0 0-.08-.1 3.42 3.42 0 0 1-1.32.6z" fill="#7c1531"/><path class="cls-1" d="M57.34 85.9a22 22 0 0 0-2.49 1.68 11.53 11.53 0 0 0 1.27-.78c.41-.28.85-.52 1.26-.8.05 0 .02-.12-.04-.1z" fill="#7c1531"/><path class="cls-1" d="M57.71 86.14c0 1.86-1.32 4.15-.37 5.92a.09.09 0 0 0 .16-.06c-.6-2.08.45-3.8.37-5.85a.08.08 0 0 0-.16-.01z" fill="#7c1531"/><path class="cls-1" d="M55.55 89.76a5.47 5.47 0 0 0 .25 2.14c0 .05.11 0 .09 0a5.8 5.8 0 0 1-.25-2.11l-.09-.03z" fill="#7c1531"/><path class="cls-1" d="M54.36 89.51v1a.08.08 0 0 0 .16 0v-1a.06.06 0 0 0-.16 0z" fill="#7c1531"/><path class="cls-1" d="M58.07 85.3a1.19 1.19 0 0 0-.31.35c-.06.11.09.2.17.1l.29-.25c.16-.08 0-.32-.15-.2z" fill="#7c1531"/><path class="cls-1" d="M61.08 95l.06.06-.06-.07s-.08-.04 0 .01z" fill="#7c1531"/><path class="cls-1" d="M66.89 91.58c.07-.06 0-.18-.07-.13A22.56 22.56 0 0 1 64 93.29v.07a11.61 11.61 0 0 0 2.89-1.78z" fill="#7c1531"/><path class="cls-1" d="M67.24 92a1.2 1.2 0 0 0-.11-.52h-.07c.01 0 0 .33 0 .49a.08.08 0 0 0 .18.03z" fill="#7c1531"/><path class="cls-1" d="M66.8 93.41c0-.12-.16-.12-.14 0a2.69 2.69 0 0 1-.11 1 .06.06 0 0 0 .12 0 6.22 6.22 0 0 0 .13-1z" fill="#7c1531"/><path class="cls-1" d="M62.91 95.28c-.06 0-.06.1 0 .09a1.07 1.07 0 0 0 .38-.08v-.07a.86.86 0 0 1-.38.06z" fill="#7c1531"/><path class="cls-1" d="M63.72 95.13l.44-.18a3.32 3.32 0 0 1-.44.18z" fill="#7c1531"/><path class="cls-1" d="M64.84 94.31H65s.05 0 0 0 0-.06-.16 0z" fill="#7c1531"/><path class="cls-1" d="M64.86 95.37a11.11 11.11 0 0 0-.17 1.7.1.1 0 0 0 .19 0c0-.56 0-1.12.09-1.69.03-.06-.1-.07-.11-.01z" fill="#7c1531"/><path class="cls-1" d="M73.31 96.94c-2.32 0-4.17 2-6.58 1.32v.05c2.33.87 4.3-1 6.59-1.19.1 0 .11-.18-.01-.18z" fill="#7c1531"/><path class="cls-1" d="M68.12 99.71c-.1 0-.06.18 0 .15a32.14 32.14 0 0 1 4.32-1.37c.06 0 0-.1 0-.09-1.44.33-2.88.84-4.32 1.31z" fill="#7c1531"/><path class="cls-1" d="M70.61 100.09c-.38.13-.76.22-1.15.33v.06a4.49 4.49 0 0 0 1.2-.17c.14-.05.09-.31-.05-.22z" fill="#7c1531"/><path class="cls-1" d="M68.49 58.7c-.16.55-.62.71-1.06.94a.28.28 0 0 0-.13 0c-1.38.58-2.58-.47-4 0-1.3.36-1.22 2.08-2.53 2.36h-.18a.61.61 0 0 0-.45.08 2.23 2.23 0 0 0-.31.35 2.09 2.09 0 0 1-.74.5v.06a2.19 2.19 0 0 0 1.09-.67c.13-.13.53 0 .73 0 0 0 0 .07.06.08a16.52 16.52 0 0 1 2.25.54 1.84 1.84 0 0 0 1.34 0 3.29 3.29 0 0 0 1.22-1 4.58 4.58 0 0 0 .5-.85.17.17 0 0 0 .16 0c.43-.33.88-.23 1.37-.37.09 0 .07-.17 0-.16a1.47 1.47 0 0 1-.42 0 2.23 2.23 0 0 0 1-.55c.05 0 0-.12-.07-.09a1.81 1.81 0 0 1-.52.13 1.51 1.51 0 0 0 .69-1.35zm-5.12 2c.11 0 .21-.09.26 0a.57.57 0 0 1 0 .45.34.34 0 0 1-.58.07.49.49 0 0 1 .06-.49zm1.81.9zm-1.13.31v-.06zm.49-.15a.36.36 0 0 1 .27-.09.28.28 0 0 1 0 .16.3.3 0 0 1-.22.23q-.24-.15-.05-.3zm.39-1.49l.74.2a.69.69 0 0 1-.74-.21zm-2.22.65l.06-.07zm-.49.7h-.05s.05-.03.06-.01zm2.15.83zm-2.71-.36h.06-.28z" fill="#7c1531"/><path class="cls-1" d="M73.19 136.16z" fill="#7c1531"/><path class="cls-1" d="M75.31 134c0-.11-.11-.21-.16-.09-.37.8-.9 2.14-1.92 2.25.69.01 1.4-.62 2.08-2.16z" fill="#7c1531"/><path class="cls-1" d="M71.48 134.48a31.7 31.7 0 0 1-2.26-5.84c-.67-2-1.36-6.79-3.46-8a.06.06 0 0 0-.06.1c1.59.91 2.14 4.13 2.66 5.73.73 2.27 1.37 4.6 2.32 6.79a5.71 5.71 0 0 0 1.93 2.74 4.61 4.61 0 0 1-1.13-1.52z" fill="#7c1531"/><path class="cls-1" d="M73.16 136.16a1.35 1.35 0 0 1-.55-.18.92.92 0 0 0 .55.18z" fill="#7c1531"/><path class="cls-1" d="M73.21 136.17z" fill="#7c1531"/><path class="cls-1" d="M83.29 147.42c-2.79-4-5.3-7.69-6.53-12.47h-.06c1.09 4.85 3.53 8.59 6.47 12.53.05.08.17.01.12-.06z" fill="#7c1531"/><path class="cls-1" d="M77.28 73.51c-4.63.69-1.45-4.8-.57-6.19.05-.08-.08-.15-.13-.07-.78 1.21-4 7.16 0 6.59 1.31-.19-.75 3.71-1 4.16a35.5 35.5 0 0 0-1.44 3.33c-.4 1.11-.65 2.47.46 3.19.07 0 .17-.07.1-.12-2.6-2 2.6-8.1 2.72-10.78a.11.11 0 0 0-.14-.11z" fill="#7c1531"/></g></g><metadata><rdf:RDF xmlns:rdf="http://www.w3.org/1999/02/22-rdf-syntax-ns#" xmlns:rdfs="http://www.w3.org/2000/01/rdf-schema#" xmlns:dc="http://purl.org/dc/elements/1.1/"><rdf:Description about="https://iconscout.com/legal#licenses" dc:title="house,baratheon,storms,end" dc:description="house,baratheon,storms,end" dc:publisher="Iconscout" dc:date="2018-03-26" dc:format="image/svg+xml" dc:language="en"><dc:creator><rdf:Bag><rdf:li>Roundicons.com</rdf:li></rdf:Bag></dc:creator></rdf:Description></rdf:RDF></metadata></svg>