<?xml version="1.0" encoding="UTF-8"?><svg xmlns="http://www.w3.org/2000/svg" viewBox="0 0 136.02 136.05"><defs><style>.cls-1{fill:#7c1531;}</style></defs><title>Asset 29</title><g id="Layer_2" data-name="Layer 2"><g id="Layer_2-2" data-name="Layer 2"><path class="cls-1" d="M48 37.77c-1.93 3.16-4.87 7.44-2.86 11.18 2.75 5.12 11 1.27 11.41 8.52a9.34 9.34 0 0 1-.93 2.53 3.65 3.65 0 0 1-.66.86l-.24.2a22.84 22.84 0 0 0-5.2 2.94 14.48 14.48 0 0 0-4.65 4.22 8.55 8.55 0 0 0-1.59 5.88 6.87 6.87 0 0 0 .12 2.64v.11c0 .04 0 0 0 0a6.58 6.58 0 0 0 .29.85 8.85 8.85 0 0 0 1 2.23 4.93 4.93 0 0 0 1.28 1.32 4.25 4.25 0 0 0 2.24 1h.07c.09 0 .21-.08.12-.15l-.06-.05a.14.14 0 0 0-.1-.11 2.05 2.05 0 0 1-.65-1.26 1.77 1.77 0 0 1 0-.27c.41-1.56 1.7-2.31 3.21-2.74 1.4-.2 2.91 0 4.31-.3 3-.6 6.75-1.76 8.9.95v.17a14.15 14.15 0 0 1-3.84 11.07 3.86 3.86 0 0 0-1.48 2.63V92.4a1.7 1.7 0 0 0 .42.77A7.24 7.24 0 0 0 61.79 96a7 7 0 0 0 .78.42c4.07 3.57 10.2 4.26 15.35 5 5.39.74 11.11 1.37 16.44.1 2.3-.15 4.55-.42 6.89-.7a15.08 15.08 0 0 0 5.46-1.4l.22-.06a1.64 1.64 0 0 0 .2-.1 6.48 6.48 0 0 0 .79-.22.23.23 0 0 0 .16-.28 3 3 0 0 0-.67-1.11.21.21 0 0 0-.18-.06.72.72 0 0 0-.18-.26.24.24 0 0 0-.23 0c-1.22-.73-3.53-.66-4.56-.76a66 66 0 0 0-7.75-.14c-2.14.05-4.17.46-6.2.37q-1.29-.39-2.55-.84a32.73 32.73 0 0 0 6.92-.45c1.85-.26 5.16.11 6.59-1.42a8.12 8.12 0 0 1 1.52-.57c.07 0 .05-.12 0-.12a3.36 3.36 0 0 0-1.32.22 1.61 1.61 0 0 0-.93-.41l-.89-.21c-4.17-1.83-8.77-.56-13.21-.89l-1.22-.43c3.78-.13 7.71-3.2 11.49-1.35.23.15.46.3.7.44a.11.11 0 0 0 .13-.17 4.64 4.64 0 0 0-1-.88 8.8 8.8 0 0 0-5.3-1.94h-7l.45-.41c.62-.32 1.23-.7 1.8-1 1-.58 3.27-1.3 1.37-2.33a.16.16 0 0 0-.12 0 3.24 3.24 0 0 0-1.08-.53c-4-2.6-6.77-6.6-4.64-11.54 1.85-4.29 8-6.09 11.9-7.8 4.44-1.94 8.7-4.24 13.16-6.14 2.12-.6 4.33-.94 6.43-1.36 1.92-.38 3.52-1.2 4.18-3a3.82 3.82 0 0 0 .42-1 .32.32 0 0 0 0-.25 1.71 1.71 0 0 0 .16-.19 2.28 2.28 0 0 0 1.62-2.47 1.24 1.24 0 0 0 .35-.46.32.32 0 0 0 .08-.16v-.25a.29.29 0 0 0 0-.15c.46-.44.74-1 .43-1.49a1.74 1.74 0 0 0-1.26-.78.24.24 0 0 0-.2-.19.62.62 0 0 0-.46-.24 1.36 1.36 0 0 0-.56-.07 2.21 2.21 0 0 0-2.27-1.65h-.15c-.39-.48-1.1-.26-1.68-.12-4.67-1.68-12.15 3-16.44 4.66C89.56 51.18 80.71 55 74 53.32a6.68 6.68 0 0 1-3.9-4 13.53 13.53 0 0 1-.45-2.12 1.79 1.79 0 0 0-.21-1 2.76 2.76 0 0 0-1.22-.74 17.92 17.92 0 0 1-2-2 4.89 4.89 0 0 1-.5-1c.45-1.22 1.54-1.79 2.57-2.59a3.58 3.58 0 0 0 1.17-1.39l.08-.12a6.76 6.76 0 0 1 .88-1.11 1.37 1.37 0 0 0 .53-.41 1.12 1.12 0 0 1-1.15.15 1.72 1.72 0 0 0-.4 0 4.06 4.06 0 0 0-2.48 0 6.18 6.18 0 0 0-1.83.73l.12-.16c.24-.28.51-.54.77-.8a37.44 37.44 0 0 0 3.66-2.41 9.69 9.69 0 0 0 1.87-2.61h.05a12.91 12.91 0 0 1 1-1.48c.14-.14.27-.3.41-.45s.36-.27.52-.43a4.43 4.43 0 0 1 .64-.06.06.06 0 0 0 0-.1A1.73 1.73 0 0 0 73 29a1.53 1.53 0 0 0-.79.18 25.6 25.6 0 0 0-5.91 2.37c3.68-2.72 7.79-5.29 7.82-10.27a.18.18 0 0 0 0-.11 7.05 7.05 0 0 1 .14-.79c0-.06 0-.12.08-.17s-.07.11-.11.15a.07.07 0 0 0-.07 0v.1a3.69 3.69 0 0 0-.52 1.11c-.93 2-3.11 2.45-4.87 3.48a29.43 29.43 0 0 0-4 2.94 27.43 27.43 0 0 0-2.32 1.77 21 21 0 0 1 4.38-4.52c1.36-1 2.9-1.82 4.2-2.93a16.57 16.57 0 0 0 3.16-3.21 23.4 23.4 0 0 0 2.27-5.3c.11-.28.22-.56.35-.85a.18.18 0 0 0 0-.18A2.77 2.77 0 0 1 77 12a.08.08 0 0 0 0-.12l.08-.13a.1.1 0 0 0-.18-.1c-.25.34-.48.69-.75 1L76 13c-4.39 4.87-10.84 7.63-16 11.62a49.22 49.22 0 0 0-12 13.15zM47.87 72a2.47 2.47 0 0 1-1.51 1.78v-.12A2.06 2.06 0 0 0 47.49 71l.31-.38a3 3 0 0 1 .07 1.38zm-1.1.11a8.2 8.2 0 0 1 .4-.75v-.06a1.87 1.87 0 0 1-.86 2.31 4 4 0 0 1 .46-1.47zm1.37-2l.23-.31a4.8 4.8 0 0 1-.15.62zm.1-1c-.32.55-.68 1.09-1 1.62a.14.14 0 0 0-.11.16c-.21.31-.42.63-.6 1l-.12.19a.1.1 0 0 0 0 .06A6.65 6.65 0 0 0 46 73a2.58 2.58 0 0 0 0 1.7 5 5 0 0 1 .2 1.18 7 7 0 0 0-.08 3.36 2.5 2.5 0 0 0 .1.25 5.27 5.27 0 0 0 .55.94c-5.34-4.61-1.79-11.07 2.82-15a5.37 5.37 0 0 0-.37.69c-.46 1.03-.42 2.06-.99 3.03zm14.7 7h.05-.06zm-1.17-.4h-.23zm-16-7.55l.08-.1zm-1 1.58l-.08.15.08-.16zm1.14 10.59l.07.09a1.71 1.71 0 0 1-.19-.13 4.16 4.16 0 0 1-.48-.5q.32.29.64.55zm1.61 1.08zm56.57 18.35a22.78 22.78 0 0 1-2.31.43 12.84 12.84 0 0 1 2.35-.42zm-3 .46a.11.11 0 0 0 0 .06l-.46.06zm-34.53-2.46l1.05.44q-.91-.32-1.78-.66zm15.44 3.6zm27.16-44.91c.69-.22 1.37-.44 2-.69a8.21 8.21 0 0 0 .86-.13 18.66 18.66 0 0 1-2.85.82zm3-7.85l.32-.1-.69.34zM63.27 23.19c4-2.83 9.33-5.34 12.4-9.36a2.14 2.14 0 0 1-.17.33 59.249 59.249 0 0 1-3.69 4.45c-1.51 1.69-3.36 1.87-4.81 3.62-1.14 1.39-3.16 1.76-4.45 3S61.43 28.53 61 30a.07.07 0 0 0 .14 0c.92-2.77 1.66-5 4.54-6.39 1.62-.79 2.38-2.25 4.14-3 2.15-.92 4.06-3.26 5.51-5.39a17.71 17.71 0 0 1-1.18 2.66c-1.31 2.29-3.54 4-5.67 5.42a24.42 24.42 0 0 0-7.22 7.36.11.11 0 0 0 0 .13c-.33.69-.42 1.56-1.21 1.84.81 0 1.13-1.15 1.58-1.67a23.87 23.87 0 0 1 3-2.65 32.2 32.2 0 0 1 5-3.32 11.63 11.63 0 0 0 3.32-1.93 12.7 12.7 0 0 1-3.8 3.79c-.67.5-1.34 1-2 1.48s-1.33.44-1.81.92a20.14 20.14 0 0 1-3.24 2.41c-.78.52-.41 2.63-.71 3.3 0 .1.09.18.15.09.44-.82.33-.44.38-1.37.12-2.3.6-1.83 1.77-2.1.46-.1.65-.41.93-.74a7.21 7.21 0 0 1 2.74-2.15A14.26 14.26 0 0 0 73 24.14c-1.76 4-6.26 6-9.32 9.16-.24.23-.47.47-.68.71a11.29 11.29 0 0 0-.86 1c-.29.42 0 1-.3 1.51h.07a2.43 2.43 0 0 0 .34-1 1.41 1.41 0 0 1 .45-.73h.06a20.62 20.62 0 0 1 4.66-3.38 37.15 37.15 0 0 1 4.58-1.7 12.74 12.74 0 0 0-1.79 1.41c-.47.41-1.29 1.57-1.93 1.38-.39-.12-.51 0-.87.16s-.36.47-.45.68c-.49 1.09-1.17.88-2 1.11S63.94 36.29 63.8 37c0 .08.1.11.12 0a8.57 8.57 0 0 1 .51-1.79c.31-.73 1.53-.62 2.19-.83s.65-1.66 1.82-1.29c.54.17.95-.26 1.25-.62a14.36 14.36 0 0 1 1.74-1.88A25.53 25.53 0 0 1 69.26 34c-.88 1-2.38 1.46-3.44 2.24a5.23 5.23 0 0 0-1.46 1.69l-.26.34c-.59.83 0 2.32-1 2.84v.07c.67-.3.88-1.17 1.08-1.82.06-.18.12-.35.18-.52a5.7 5.7 0 0 1 2.38-1.28 5.21 5.21 0 0 1 2.39 0 3 3 0 0 1-1 .25 1.12 1.12 0 0 0-.75.6.1.1 0 0 0 .18.1c.37-.6 1-.41 1.56-.56A5.62 5.62 0 0 1 67 40.31a4.62 4.62 0 0 0-1.49 1.81 1.68 1.68 0 0 1 .52-1.61 4.23 4.23 0 0 0 1.2-1.38c0-.1-.1-.18-.15-.09-.79 1.52-2.5 1.52-2.07 3.57.3 1.43 1.34 2.12 2.33 2.89l.42.41c1.32 1.23 1.46 3.54 2.24 5.09a5.24 5.24 0 0 0 1.52 1.79 6.5 6.5 0 0 0 2.36 1.9 13.06 13.06 0 0 0 4.78 1 .12.12 0 0 0 0-.24 9.94 9.94 0 0 1-3.2-.76 7.23 7.23 0 0 0 2.94.08c.1 0 .06-.16 0-.15a6.68 6.68 0 0 1-3.12-.58h-.09c4.51 1.05 9.29-.66 13.66-2 4-1.24 7.83-2.61 11.7-4.09 2.9-1.11 6.75-3.38 10.08-3.16-.91.39-1.76 1-2.69 1.47a110.22 110.22 0 0 1-10.6 4.91c-.07 0 0 .14 0 .11 2.54-1 5.08-1.95 7.59-3 .9-.37 1.87-.91 2.87-1.45a.11.11 0 0 0 .14 0c1.19-.63 2.62-.74 3.82-1.29l.68-.16a7.74 7.74 0 0 1 1.72-.27c.68 0 1 .53 1.28 1l-.15.1-.24.09c-2.85 1.38-5.31 3.13-8.28 4.38-5.88 2.47-12 4.6-18 6.68-.12 0-.07.23.05.19 4.95-1.67 9.83-3.53 14.78-5.21a55.49 55.49 0 0 0 6.67-2.66l.46-.25c2.12-.48 3.82-2 5.94-2.45a2.23 2.23 0 0 1 1.16.26c.28.15.27.42.11.72a.25.25 0 0 0-.2.14c-1 2-5.16 2.47-7.09 3.25-3.05 1.23-6.09 2.55-9.06 4-.08 0 0 .16.07.12a61.92 61.92 0 0 1 12.52-4.77 12.61 12.61 0 0 0 2.71-.75h.13c0 1.07-1.18 1.67-2.16 2.09-.45-.05-.77.28-1 .65a2 2 0 0 0-.72.42 78.34 78.34 0 0 1-11.47 4.23v.07c2.64-.71 5.19-1.68 7.77-2.57 1.6-.55 3.22-.95 4.8-1.53l-.17.22-.05.06-.12.08a.07.07 0 0 0 0 .08l-.27.25c-2.4 1.2-5.11 1.71-7.63 2.6a85.29 85.29 0 0 0-8.44 3.78c-5.3 2.56-11.36 4.48-16 8.13l-.37.31a5 5 0 0 1 .51-.65s0-.11-.07-.07c-.4.47-.94.87-1.35 1.34a7.69 7.69 0 0 1 2.5-2.9c.06 0 0-.14-.06-.1a8.77 8.77 0 0 0-2.86 2.89A10.9 10.9 0 0 1 84 64.42a.09.09 0 0 0-.09-.16c-3.85 2.21-6.74 7.37-5.4 11.8a11.37 11.37 0 0 0 4.95 7 7.7 7.7 0 0 1-3.86-2.5h-.05a8.36 8.36 0 0 0 2.77 2.52c1.23.72 2.53.95 3.68 1.83-.82.26-1.76.26-2.62.47-.59.15-1.35-1-2-1.09-.36-.07-.72.4-.91.61-1 1.14-2.19-1.42-2.66-2h-.06c.56.93 1.58 3.56 2.91 2.14 1.08-1.16 1.31.53 2.13.6a8 8 0 0 0 1.62-.24h.41a7.71 7.71 0 0 0-1.3.67C82.15 87 80.62 88 79 87.53l-.47-.25c-.74-.41-1.66-.86-2.15.06a.09.09 0 0 0 .16.09c.59-1 1.78.29 2.25.64a2.5 2.5 0 0 0 1.51.52 2.31 2.31 0 0 0 1.33-.39 33.19 33.19 0 0 0 4.75.28c1.22 0 2.4-.23 3.62-.2a5.83 5.83 0 0 1 2.49.71h-.08c-2-.79-4.94.54-6.93.21-1.58-.27-1.3 1.53-3.48.6.06.15.15.3.56.34 1.08.1 2.49-.71 3.4-.51a7.21 7.21 0 0 0 2.93-.21c-2.58.72-5.28 2-7.79 1.45-.35-.14-.7-.28-1-.44a2.88 2.88 0 0 0-1.81-.43 3.4 3.4 0 0 1 .31-.21.11.11 0 0 0-.11-.19 3.08 3.08 0 0 0-.92.66.13.13 0 0 0 0 .08l-.24.16a.08.08 0 0 0 .08.14c1-.49 2 0 3 .61a.07.07 0 0 0 0 .05l.3.14a8.47 8.47 0 0 0 .94.49 7.4 7.4 0 0 0 2.55.59c4.16.63 8.57-.5 12.71.77l-1.12.05c-.83 0-1.65.09-2.47.16a18.23 18.23 0 0 0-2.82.12.08.08 0 0 0-.06 0 3.61 3.61 0 0 0-1.93 0c-1.51.67-3.45-.09-5.11.52-3.29 1.22-2.92-2.71-5.28-2.84-.08 0-.08.11 0 .12 1.88.23 1.73 3.4 4.14 3.4 1.56 0 2.6-1.18 4.33-.53 1.11.42 2.69-.52 3.82-.45a.09.09 0 0 0 .08 0c1.55 0 3.07 0 4.62-.08a7.73 7.73 0 0 1 3.33.25c-1.43.72-3.48.51-5 .72a47.56 47.56 0 0 1-8.91.75c-.95-.41-1.3.17-2.25.09-.08 0-.1.12 0 .14a1.22 1.22 0 0 0 .68.06 2.35 2.35 0 0 1 1.41.23c3.25 1.92 6.55 1.14 10.15 1 2-.06 9.54-.73 12.11.88-2.9-1.35-8.15.63-10.63 1.19-2.1.47-6.09 1.75-7.49-.74-.55-1-1.19-.85-2.34-.84a.08.08 0 0 0 0 .15c1.23 0 1.89 1.11 2.64 1.95.55.62 2.16.48 2.9.49a23.27 23.27 0 0 0 5.17-.84c2.23-.5 7.31-2.33 9.82-.87-7.18.88-13.87 2.67-21.25 2.36-8.08-.34-15.33-1.76-22.37-5.25a6.22 6.22 0 0 1-3-2.9c-.06-1.53 2.3-4 2.91-4.94a9.68 9.68 0 0 0 1.32-3.11 13.12 13.12 0 0 0 1-4.24 6.8 6.8 0 0 0-.54-3.19c-.08-.22-.18-.42-.28-.62a4.27 4.27 0 0 0-3-3.36.07.07 0 0 0 0 .13 3.19 3.19 0 0 1 1.6 1.3c-.94-.66-2-.45-3.07-.6-.08 0-.11.1 0 .12a6.58 6.58 0 0 1 2.65.68 2.42 2.42 0 0 1 .77.81c-1.94-2-6.79.15-8.9.55a18.67 18.67 0 0 0-5.33 1.4v-.11a1.32 1.32 0 0 0 0-.57c.29-1.49.46-2.69 3.11-2.5a2.74 2.74 0 0 0 2.65-1.54c.78-1.22 1.68-2.07 3.35-1.34a2.17 2.17 0 0 0 1.27.08 3.59 3.59 0 0 0 2.65-2 .09.09 0 0 0-.16-.09c-1.28 1.89-2.73 1.83-4.8 1.27-.67-.18-.41-.16-1.18.06-2.06.6-.4 4.1-4.23 3.17-2.24-.54-2.56.89-2.8 2.46a3.9 3.9 0 0 1 .52-2.47 3.85 3.85 0 0 0-.94 2.26 3.58 3.58 0 0 1-.33 1.91c-.07.11-.12.23-.18.35a2.92 2.92 0 0 0-.61 1.08 1.83 1.83 0 0 0-.15.8 4.2 4.2 0 0 0 0 .54h-.06a5.3 5.3 0 0 1-.66-3.42c.06-.35.13-.68.15-1a1.46 1.46 0 0 0 0-1.5 2.28 2.28 0 0 1-.34-.93 2.39 2.39 0 0 0 1.78-1.37 2.16 2.16 0 0 0 .2-1.54 2.93 2.93 0 0 0 .39-1.76 4.22 4.22 0 0 0 .4-.88 21.73 21.73 0 0 1 .7-2.5c.55-1.26 2-1.87 3-2.64a.21.21 0 0 0 .08-.13l.4-.23a9.61 9.61 0 0 0 .85-.51C57.14 60.9 60 59 60.62 55.78a.08.08 0 0 0-.15 0A6.7 6.7 0 0 1 58 59.24a6.53 6.53 0 0 0 1.08-3.61h-.07a4.9 4.9 0 0 1-.88 2.89 6.15 6.15 0 0 1-.86.95 6.12 6.12 0 0 0 .77-2.59.1.1 0 0 0 0-.08 9.68 9.68 0 0 0-.09-2.52 10.35 10.35 0 0 1-.62 3.9c.15-2.7-1-4.86-3.56-6.58-1.33-.91-3.3-1.12-4.81-1.55-6.08-1.75-2-8.5 0-11.77a50.89 50.89 0 0 1 14.31-15.09z" fill="#7c1531"/><path class="cls-1" d="M83.65 96h.06c-.01 0 0-.13-.14-.15v.08z" fill="#7c1531"/><path class="cls-1" d="M67.3 38.73v0z" fill="#7c1531"/><path class="cls-1" d="M67.39 38.6a.06.06 0 0 0 0 .13.06.06 0 0 0 0-.13z" fill="#7c1531"/><path class="cls-1" d="M88.95 53.93c.11 0 .07-.2 0-.17-2.28.51-4.46 1.48-6.81 1.69-.09 0-.09.14 0 .13a55.5 55.5 0 0 0 6.81-1.65z" fill="#7c1531"/><path class="cls-1" d="M94 52.63a10 10 0 0 0 1.9-.71.12.12 0 0 0-.09-.21c-.64.18-1.25.47-1.88.68a.13.13 0 0 0 .07.24z" fill="#7c1531"/><path class="cls-1" d="M79.15 79.62a1.23 1.23 0 0 0-.12-.26c0-.06-.12 0-.09.05a1.53 1.53 0 0 1 .13.24l.08-.03z" fill="#7c1531"/><path class="cls-1" d="M30.2 102.12c.13-.11 0-.28-.15-.26-3.08.53-.19-4.74.13-5.66a5.11 5.11 0 0 0-.34-4.08c-.06-.12-.23 0-.18.1 1 2.31.14 3.87-1 5.82a5.67 5.67 0 0 0-1.08 2.76c.12 1.35 1.42 2.28 2.62 1.32z" fill="#7c1531"/><path class="cls-1" d="M29.37 100.09a.11.11 0 0 0-.22 0c-.13.53-.07 1.13.61 1.14.19 0 .28-.28.1-.37-.38-.19-.51-.33-.49-.77z" fill="#7c1531"/><path class="cls-1" d="M30.11 100a.65.65 0 0 1-.2-.53c0-.19-.25-.27-.29-.08a.68.68 0 0 0 .33.83.14.14 0 0 0 .16-.22z" fill="#7c1531"/><path class="cls-1" d="M30.15 98.43a.14.14 0 0 0-.28 0v.33c0 .11.35.21.32 0s-.04-.22-.04-.33z" fill="#7c1531"/><path class="cls-1" d="M100.32 57.95a.06.06 0 0 0 0-.12 17.07 17.07 0 0 0-1.93.72v.05c.61-.24 1.28-.44 1.93-.65z" fill="#7c1531"/><path class="cls-1" d="M80.24 89.57c-.09 0-.05.16 0 .14.36-.1.64-.16.86-.2a3 3 0 0 0-.86.06z" fill="#7c1531"/><path class="cls-1" d="M81.13 89.5a1.81 1.81 0 0 1 .63.18l.27.12c-.08-.23-.09-.44-.9-.3z" fill="#7c1531"/><path class="cls-1" d="M58.51 42.72a.13.13 0 0 0 0-.25c-1.31 0-2.62.08-3.93.09-2.69 0-3.39-1.69-2.45-4.1a25.14 25.14 0 0 1 6.26-9.65c.06-.05 0-.14-.09-.09a21.48 21.48 0 0 0-4.64 5.94c-1 1.83-2.36 4.21-2.4 6.35-.07 2.83 5.83 1.74 7.25 1.71z" fill="#7c1531"/><path class="cls-1" d="M58.3 51.07a2.32 2.32 0 0 0 1.41-.18c.16-.06.1-.31-.07-.26a1.29 1.29 0 0 1-1.06 0 7.7 7.7 0 0 1 .35-.87c.23-.51.5-1 .76-1.49a10.23 10.23 0 0 0 1.1-2.85c0-.15-.21-.22-.24-.07-.41 2-1.77 3.57-2.36 5.49a.15.15 0 0 0 .11.23z" fill="#7c1531"/><path class="cls-1" d="M73 91.55a2.13 2.13 0 0 0-.4-2.49 2.35 2.35 0 0 0-.91-.7 3.55 3.55 0 0 0-.88-.23c-2.53-.47-1.66-3.65-1-5.12s.51-2.52-.65-3.79c0 0-.1 0-.06.06 2.35 2.75-1.3 5.08-.12 7.8.74 1.71 5.5 1.87 3.52 4.74-2.37 3.43 6.69 4.82 8.11 5.26.1 0 .15-.13 0-.16-1.81-.61-10.02-1.69-7.61-5.37z" fill="#7c1531"/><path class="cls-1" d="M83.68 97.6h1.5a.09.09 0 0 0 0-.19h-1.5a.09.09 0 0 0 0 .19z" fill="#7c1531"/><path class="cls-1" d="M21.13 98.73c.19.22.37.46.56.68a51.3 51.3 0 0 0 4.19 4.23 3 3 0 0 0 .4.51 2.88 2.88 0 0 0 1.42 1.07 60 60 0 0 0 26.84 12.68 3.25 3.25 0 0 0-.54.1.06.06 0 0 0 0 .12 29.48 29.48 0 0 1 3.6.73 5.08 5.08 0 0 0 1.84.26 40.34 40.34 0 0 0 4.81.26 39 39 0 0 0 14.47-2.61c4.2-1.09 8.34-2.43 12.46-3.8 0 0 .05 0 .07-.06a13.24 13.24 0 0 0 3.89-2.24c.12-.1-.05-.26-.17-.17a10.79 10.79 0 0 1-4.63 1.86c-8.87 1.19-17.11-.12-25.28-2.86a12.76 12.76 0 0 0-2-.7l-.69-.25c-2-1.12-4-2.63-5.77-3.71-1.35-.83-2.66-1.72-4-2.62q-1-.68-1.95-1.4c-.13-.09-1.14-1-2-1.77-10.49-9.91-17.34-22.4-17.22-37.79.14-17.93 10.64-33.25 22.63-45.6a.18.18 0 0 0 0-.12c.81-.66 1.63-1.3 2.47-1.91a.13.13 0 0 0 .17 0v-.05a.1.1 0 0 0 0-.11.13.13 0 0 0-.19-.14.22.22 0 0 0-.16-.07 16.67 16.67 0 0 0-6 1 43.41 43.41 0 0 0-4.57 1.41c-.47.17-.94.34-1.4.55C33.64 20.54 25 29.06 19.26 39.33a3.16 3.16 0 0 0-.77 1.42 64.71 64.71 0 0 0-5.78 15.44 7.45 7.45 0 0 0-.48 2.21 62 62 0 0 0-.95 6.71c-1 11.89 2.13 24.34 9.83 33.57zm33 17.83c1 .09 2.09-.14 3.06-.15a5.68 5.68 0 0 0 4.86-.42.12.12 0 0 0 .07-.1c1.48-.41 2.94-1 4.79-1.72 4.66-1.74 9.64-.35 14.44-.37a32 32 0 0 1-3.45.36 27.16 27.16 0 0 0-9.75 2.12c-1.5.41-2.91 1.13-4.47 1.44a23 23 0 0 1-3 .39 47.92 47.92 0 0 1-8.36-1.35 17.55 17.55 0 0 0 1.79-.2zm15.22 1.69c.38-.2.77-.41 1.2-.66 1.91-1.11 4.65-1.19 6.8-1.55 1.7-.28 3.39-.5 5.06-.8a125.46 125.46 0 0 1-13.08 3.01zm-6.37.38c.78-.16 1.56-.34 2.33-.56 1.32-.38 2.32-1.3 3.6-1.77a.12.12 0 0 0 .06-.05 34.59 34.59 0 0 1 10.47-1.65c2.47-.07 4.86-.65 7.3-.91a63.41 63.41 0 0 1-9.5 1.94 45.77 45.77 0 0 0-5.64 1.17 22.28 22.28 0 0 0-3.35 1.64c-.84.09-1.68.15-2.54.16zm-5.44-12.39l.82.43-.87-.33a.12.12 0 0 0 .04-.09zm-24-67c-1.17-2.3-3.16-.9-4.43.64a50.78 50.78 0 0 1 5.09-7.06s0 .07.08 0c1.5-1.65 2.87.7 2.86 2a8.11 8.11 0 0 1-.42 2.32c-.38.76-.74 1.53-1.09 2.31 0-2.71-1.07-5.84-3.35-4.18-.08.06 0 .19.08.14 2.86-1.82 3 3.57 2.46 6q-.6 1.49-1.13 3c0-.22.06-.44.09-.67.15-1.32.43-3.18-.22-4.46zm12.22-16.91a1.14 1.14 0 0 1 0 1.08c-.52.61-1 1.23-1.52 1.86a1.46 1.46 0 0 0-.58-1.36q1.06-.8 2.1-1.58zm-2.34 1.8c.67.56.41 1.51.05 2.2-.35.46-.7.91-1 1.38v-.53c0-.79-.4-1.38-1.22-1.27q1.07-.91 2.16-1.77zm-2.16 2c.91 0 .79 1.07.68 1.71 0 .22-.21.65-.25 1-.26.38-.53.75-.78 1.13a2.29 2.29 0 0 0-1.47-2.45c.57-.51 1.15-1 1.73-1.51a.1.1 0 0 0 .09.1zm-1.93 1.47c1.67.73 1.15 2.37.7 3.75-.29.47-.59.93-.87 1.41.08-1.71-.43-3.6-2-2.88-.09 0 0 .18.06.15 2-.64 1.43 2.75 1.11 4.24-.23.41-.46.82-.68 1.23a4.17 4.17 0 0 0-.39-2 1.82 1.82 0 0 0-2.84-.8l.8-.92a55.18 55.18 0 0 1 4.11-4.2zm6.95-4.73a1.12 1.12 0 0 0-.33-.66l.91-.68c.79-.58 1.55-1.2 2.31-1.82-.99 1-1.95 2.05-2.89 3.14zm9.39-9.09c-3.88 2-7.23 5.34-10.69 7.91a71.21 71.21 0 0 0-10.39 9.46 43.5 43.5 0 0 0-11.1 24c-.19-.2-.4-.34-.44-.72a4.39 4.39 0 0 1 .13-1.17c0-.08-.11-.12-.13 0a4 4 0 0 0-.23 1.57.87.87 0 0 0 .22.48.81.81 0 0 1 .23.87 5.3 5.3 0 0 1-1.57 1.33 3.14 3.14 0 0 0 0-.71c-.69-8.12 2.14-15.29 6.8-21.87 1.7-2.4 3.8-4.46 5.42-6.9 1.15-1.73.49-3.65 1.71-5.51a3.6 3.6 0 0 0 .37 2.12.09.09 0 0 0 .17-.07 3.62 3.62 0 0 1-.17-2.28 3 3 0 0 1 .48-.86l.53-.36a3.31 3.31 0 0 0-.2 1.36c0 .12.2.13.19 0a2.78 2.78 0 0 1 .49-1.67l.87-.57a3.44 3.44 0 0 0-.29.72.09.09 0 0 0 .17 0 3.18 3.18 0 0 1 .56-1 48.52 48.52 0 0 1 8.71-4.23l.47-.13a59.25 59.25 0 0 1 7.69-1.8zM27.51 29.31c-.69 1.25-1.37 2.52-2.62 3.07q1.25-1.58 2.62-3.07zM13.16 80a52.68 52.68 0 0 1-.93-6.57l.63 2a11.44 11.44 0 0 1 .3 4.57zm6.2 15a2.26 2.26 0 0 1 .92-2.17.06.06 0 0 0-.06-.1A2.34 2.34 0 0 0 19 94.52c-.24-.37-.46-.74-.69-1.12a.58.58 0 0 1 .31-.48.11.11 0 0 0-.12-.2.92.92 0 0 0-.38.36c-.26-.44-.51-.88-.76-1.33a3.69 3.69 0 0 0 1.69.53c1.33.09 3-1.32 4.23-1.64a3.24 3.24 0 0 1 4.13 2.12c.52 1.56-1.55 6.13-2.91 2.59a3.73 3.73 0 0 0 .48-.9c.15-.59-.52-1.11-1-1.16-1-.09-1.56.71-1.85 1.53a1.93 1.93 0 0 0 .3 1.65c.56 2.16 3.25 2.08 4.84.46 1.84-1.89 2-6.09-1-7a5.72 5.72 0 0 0-4.5.39c-1.6.95-3.36 1.67-4.85.55-.18-.35-.35-.7-.52-1.06a1.81 1.81 0 0 0 1.33.53c1.61-.09 2.71-1.6 4.32-1.63a.08.08 0 0 0 0-.16 5.46 5.46 0 0 0-2.8.84 2.22 2.22 0 0 1-2.53-.21 2.06 2.06 0 0 1-.6-1.29l.32-.78.47.46a.09.09 0 0 0 0 .11c.1.21.07.18.26.32a.14.14 0 0 0 .17 0c.49-.53.65-1.4-.24-1.65s-1.48.58-1.6 1.36c-.22-.54-.43-1.08-.62-1.63a6.3 6.3 0 0 0 .56-3c0-.1-.16-.1-.15 0a5.34 5.34 0 0 1-.61 2.41c-.15-.45-.3-.91-.44-1.37a10.15 10.15 0 0 0 .61-4.33c0-.13-.24-.1-.22 0a9.38 9.38 0 0 1-.6 3.56c-.11-.41-.22-.81-.32-1.22a14.64 14.64 0 0 0 .29-5.21 27.3 27.3 0 0 0-1.9-5.2c-.05-1.09-.07-2.18-.06-3.26.72 1.59 2 3.05 2.12 4.85 0 .1.16.1.16 0a7.24 7.24 0 0 0-1.08-3.24 12.3 12.3 0 0 1-1.12-4.47v-.52a56.87 56.87 0 0 1 1.48-9.65c1.45-2.25 4-3.84 5.41-6.37.57-1 .87-3.3-.85-3.3-.84 0-2.62 1.37-1.68 2.32.58.59 1.24.38 1.39-.31.82.71.73 1.45-.28 2.2a14.15 14.15 0 0 1-1.77 1.7 12.68 12.68 0 0 0-1.78 2v-.08l.06-.22a7.48 7.48 0 0 1 1.42-2.65c.48-.58 1.13-.91 1.35-1.67 0-.12-.13-.15-.18 0-.25.63-.74.89-1.24 1.28a3.68 3.68 0 0 0-.6.6 60 60 0 0 1 2.4-6.16c.76-.72 2-1.21 2.69-.22a3.85 3.85 0 0 1 .31 2.92c0 .13.17.19.2.05.29-1.17.38-2.76-.53-3.69a1.54 1.54 0 0 0-1.8-.31c1.1-1.21 2.73-3 3.48-1.17 0 .08.17.08.16 0-.12-1.27-1.07-1.56-2.14-1a5 5 0 0 0-1.05.73l.12-.23c.72-1.24 1.77-2.32 3.38-1.92.14 0 .24-.17.1-.24a2.69 2.69 0 0 0-2.38.15l.51-.87a3.13 3.13 0 0 1 2.56-1.08c.11 0 .12-.15 0-.18a2.27 2.27 0 0 0-1.91.22 4.34 4.34 0 0 1 2.5-1.53c.12 0 .08-.19 0-.2a2.89 2.89 0 0 0-1.62.35v-.06a3.4 3.4 0 0 1 1.95-1.63.14.14 0 0 0-.07-.27 2.7 2.7 0 0 0-.7.2l.56-.79a6.13 6.13 0 0 1 1.56-.73.07.07 0 0 0 0-.14 9.92 9.92 0 0 0-1 .18l.53-.69c1.84-.43 2.31-1.56 3.18-3.13a11 11 0 0 1 2-2.49c-1.22 2.22-2 4.78-4.25 6.09-.06 0 0 .12.05.09 1.65-.75 2.39-2.06 3.12-3.66A15.77 15.77 0 0 1 30.94 26l.53-.48C30.55 27.23 30 29.35 29 30.8c0 0 0 .09.07.05a19.29 19.29 0 0 0 2.05-3.62 12.76 12.76 0 0 1 2.31-3.32 1.4 1.4 0 0 0-.12.81c.76 3.69-4.14 8.28-6.17 11.28-4.15 6.1-6.46 13-5.82 20.39a14.38 14.38 0 0 1-.27 1.68 1.79 1.79 0 0 0-.41.79 1.2 1.2 0 0 0 .47 1.2c.32.2.66.33 1 .51a1.29 1.29 0 0 1 .52.65.07.07 0 0 0 0 .08 5 5 0 0 0 1.57 2.44c3.32 3.06 1.27 6.27-1.2 9.14-2.81 3.26-5.14 5.87-5.08 10.39a.29.29 0 0 0 .29.29c3.47.13 7.59-3.55 10.94-1.68a.12.12 0 0 0 .12-.21c-2-1.43-4.28-.43-6.37.32-2.73 1-5 2-4.06-2.13.61-2.61 2.82-4.68 4.51-6.63a11.64 11.64 0 0 0 3.2-6.5c.19-1.93-2.18-3.13-3.29-4.63a4.92 4.92 0 0 0-.53-1.7c-.42-.63-1.59-.55-1.39-1.58s1.3-1.47 1.94-2.23a.12.12 0 0 0 .11 0 .86.86 0 0 0 .33-1.09 42.74 42.74 0 0 1 4.64-14.12.07.07 0 0 0 .05 0 5.76 5.76 0 0 1 2.78-2.81c2.21-.88 2.13 2.37 2.11 3.39a54.56 54.56 0 0 1-1 7.48c-.14.56-.29 1.11-.41 1.67.07-3.6-.61-7.72-2.68-6.63-.09 0 0 .17.08.13 3.41-1.58 1.2 9.72 1.58 11.1h.05a8.52 8.52 0 0 0-.16 1.67.21.21 0 0 0 .06.15c-.13 1.23-.23 2.47-.28 3.72-.59 15 6.28 27.17 16.43 36.77a.1.1 0 0 0 0 .07q2.3 2.17 4.79 4.12c1.78 1.42 3.63 2.77 5.52 4.06a18.18 18.18 0 0 0-3.42-.85 13.82 13.82 0 0 1-10.73-8 3.07 3.07 0 0 1-.15-1.81 2 2 0 0 0 0-.23v-.1a.79.79 0 0 0-.36-.62.14.14 0 0 0 0-.19 21.43 21.43 0 0 0-5-4.89 6.11 6.11 0 0 0-2.55-1.08c-1.78-.33-3.38.15-3.57-2.35a.12.12 0 0 0 0-.06 2.25 2.25 0 0 0-.5-1.92.15.15 0 0 0-.1-.13l-.06-.07a.13.13 0 0 0-.18 0l-.07.07a1.39 1.39 0 0 0-.79.65v-.05a.29.29 0 0 0-.06-.21 5.75 5.75 0 0 0 0-.59 2.56 2.56 0 0 0-.5-1.88s-.12 0-.09.07c.45.63.2 1.36.11 2.06a2.14 2.14 0 0 1-.08.33.34.34 0 0 0-.1.14c0 .13-.12.36-.21.61s-.22.42-.31.64a3 3 0 0 1-.33.42v.08a.48.48 0 0 1-.53.06 1.16 1.16 0 0 1-.54-.87c-.06-.43.18-.64.6-.65a.12.12 0 0 0 0-.23.8.8 0 0 0-1.07.51 1.71 1.71 0 0 0 .43 1.54 1.22 1.22 0 0 0 1.7.11 2.49 2.49 0 0 0 .36-.43h.06a1 1 0 0 0 .19-.43c0-.1.08-.2.11-.31a.66.66 0 0 1 .09-.16.11.11 0 0 0 0-.11 4.86 4.86 0 0 1 1.08-.88A3.09 3.09 0 0 1 31.3 86a.11.11 0 0 0 .06.1c.09 2 .86 2.46 2.8 2.54 3.34.14 6.28 3.38 8.12 5.94a.17.17 0 0 0 .18.06v.06c.47.89-.29 1.9.33 2.8a.17.17 0 0 0 .1.07 13.62 13.62 0 0 0 6.66 7.17 16.58 16.58 0 0 0 5.19 1.44 20.84 20.84 0 0 1 5.06 1.59l1.37.66c-.54-.05-1.1-.09-1.75-.1-5.08-.08-9.39 1.5-14.17-1.34-.11-.07-.21.1-.1.17 2.84 1.79 5.62 2.16 8.94 2.16 4 0 7.22-.14 10.88.73a54.44 54.44 0 0 0 9.17 2.68 26.29 26.29 0 0 0-4.33.11c-4.25.51-7.49 3.05-11.8 3.19a5.85 5.85 0 0 1-2.85-1.58 9.17 9.17 0 0 0-2.61-2c-2.66-1.27-5.83 1-8.38-.83-.09-.06-.21.09-.12.16 3 2.41 7-.37 10.1 2.49.44.41.86.77 1.28 1.09a27.58 27.58 0 0 1-3.17-1 5.94 5.94 0 0 0-1.78-.42c-1.06-.05-2.23.44-3.26.22-.1 0-.14.13 0 .15a2.05 2.05 0 0 0 1.07.1 7.21 7.21 0 0 1 4.38.59 12.15 12.15 0 0 0 3.07 1l-.78.1a10.51 10.51 0 0 1-1.16.07c-1.31 0-2.41-.69-3.75-.54-.08 0-.09.13 0 .13a9 9 0 0 1 2.69.56 16.94 16.94 0 0 1-2.11 0 57.17 57.17 0 0 1-6.37-2.32.18.18 0 0 0-.21-.09l-.83-.36a.17.17 0 0 0-.13-.26.15.15 0 0 0-.15.13 66 66 0 0 1-16.82-10.95 4 4 0 0 1 .19-3.4.07.07 0 0 0-.12-.07 4.8 4.8 0 0 0-.81 2.62c-.12-.21-.24-.42-.37-.63-.36-.56-.92-.95-1.31-1.47-.08-.11-.26 0-.19.11.31.49.7.9 1 1.38-.43-.41-.86-.82-1.28-1.24-.74-.75-1.43-1.55-2.1-2.36a10.6 10.6 0 0 1-.43-1.72 4 4 0 0 1 1.51-3.29c.1-.1-.05-.25-.15-.15a4.85 4.85 0 0 0-1.76 4.13c-.3-.38-.63-.87-.95-1.38z" fill="#7c1531"/><path class="cls-1" d="M23.43 88.37a.35.35 0 0 0-.26.06c-.22.11 0 .43.19.32a.35.35 0 0 0 .19-.18.14.14 0 0 0-.12-.2z" fill="#7c1531"/><path class="cls-1" d="M24.42 88.44l-.11.06a.17.17 0 0 0-.09.15v.12a.12.12 0 0 0 .2.08l.13-.08a.18.18 0 1 0-.13-.33z" fill="#7c1531"/><path class="cls-1" d="M25.51 88.62a.39.39 0 0 0-.17 0 .14.14 0 0 0 0 .28.39.39 0 0 0 .17 0 .13.13 0 0 0 0-.28z" fill="#7c1531"/><path class="cls-1" d="M18.32 61.18a.09.09 0 0 0 0-.18c-4.2-1.35-1.65-5.54-.78-8.39 0-.1-.13-.15-.16 0-.86 2.86-3.45 7.39.94 8.57z" fill="#7c1531"/><path class="cls-1" d="M21.15 68.18c.09-.7.14-2.6-.43-3.2s-2.52-.57-2.12-1.69c0-.12-.15-.17-.19-.05a3.16 3.16 0 0 0-.36 1.33.13.13 0 0 0 .16.16c6.18-.86-.1 7.48-.93 9.22a12.45 12.45 0 0 0-.92 7.77.18.18 0 0 0-.19-.16.21.21 0 0 0 0 .42.19.19 0 0 0 .2-.19c0 .18.29.1.27-.07-.65-3.9.5-7.25 2.57-10.52.73-1.14 1.79-1.71 1.94-3.02z" fill="#7c1531"/><path class="cls-1" d="M14.41 65.8c-.11-1.56 1.15-2.69-.19-3.92a.07.07 0 0 0-.1.1c1.1 1.13 0 3.11.11 4.45a.12.12 0 0 0 .11.11c2.21 0 .55 6.39.62 7.89h.09c0-2.21 1.43-5.13.5-7.29-.23-.55-1.1-.82-1.14-1.34z" fill="#7c1531"/><path class="cls-1" d="M39.24 97.75a4.57 4.57 0 0 0 .12 2.69c.45 1.14 1.7 1.54 2.17 2.82.35 1 .24 1.49 1 2.29 0 .05.15 0 .1-.08-.8-1.05-.55-2.49-1.39-3.46a8.53 8.53 0 0 1-1.76-2.17c-.27-.65.15-2.62.12-3.49-.06-2.46-3.64-3.11-5.39-3.5v.06c2.29.61 5.61 1.18 5.03 4.84z" fill="#7c1531"/><path class="cls-1" d="M43.53 106.2a.07.07 0 0 0 0-.14l-.22-.11c-.07-.06-.17 0-.1.1a.63.63 0 0 0 .32.15z" fill="#7c1531"/><path class="cls-1" d="M31.1 78.5c-1-1-2.18-.84-3.51-.89a9.4 9.4 0 0 0-3.41.84 2 2 0 0 1 .92-2c.49-.61 1.06-1.16 1.61-1.71 2.39-2.46 3.72-6.27 2-9.46 0-.08-.17 0-.13.07 1.62 3.16.17 6.76-2.18 9.11a11.89 11.89 0 0 0-3.24 4.37.24.24 0 0 0 .3.3c2.21-.63 5.32-2 7.45-.45.16.12.29-.07.19-.18z" fill="#7c1531"/><path class="cls-1" d="M31 81.24v.06a1.65 1.65 0 0 0 .69.12.08.08 0 0 0 0-.16 2.51 2.51 0 0 1-.63-.05 6.69 6.69 0 0 1 .21-1.7c-.21.49-.59 1.18-.27 1.73z" fill="#7c1531"/><path class="cls-1" d="M31.9 82.15a.11.11 0 0 0 .05.13 1.45 1.45 0 0 0 .64.19c.16 0 .15-.23 0-.25-.3 0-.45-.06-.48-.37s-.11-.35-.11-.52-.13-.05-.12 0a2.31 2.31 0 0 1 .02.82z" fill="#7c1531"/><path class="cls-1" d="M33 83.46a.36.36 0 0 0 .17 0l.21.52h.07l-.23-.52a.37.37 0 1 0-.22.08z" fill="#7c1531"/><path class="cls-1" d="M34.17 85a5.35 5.35 0 0 1-.25-.56c0-.09-.17-.05-.14 0a5.64 5.64 0 0 0 .25.61c.03.19.19.1.14-.05z" fill="#7c1531"/><path class="cls-1" d="M36.62 87.1c.12.07.22-.11.11-.19-.72-.49-1.53-.84-2.26-1.32-.1-.06-.18.09-.09.15.73.49 1.5.9 2.24 1.36z" fill="#7c1531"/><path class="cls-1" d="M17.58 84.88c-.06 0 0 .09 0 .1 1.68.11 1.87 1.88 1.14 3.09-.13.21.19.47.34.27 1.05-1.34.53-3.81-1.48-3.46z" fill="#7c1531"/><path class="cls-1" d="M19.94 84.77c-.19 0-.21.26 0 .31.78.26.5 1.57.53 2.17 0 .22.35.37.46.12.31-.8.15-2.53-.99-2.6z" fill="#7c1531"/><path class="cls-1" d="M21.8 84.78c-.08 0-.16.06-.1.12.37.33.13.9.3 1.29a.2.2 0 0 0 .31 0 .85.85 0 0 0 .11-.79c-.08-.4-.31-.4-.62-.62z" fill="#7c1531"/><path class="cls-1" d="M23.51 85.17a.26.26 0 0 0 0 .52.26.26 0 0 0 0-.52z" fill="#7c1531"/><path class="cls-1" d="M26.63 60.05c-2-1.6.87-2.74.82-4.42a7.18 7.18 0 0 0-.71-2.58c-.93-2.26.42-4.88 1.16-7 0-.13-.16-.19-.21-.06a18.51 18.51 0 0 0-1.56 5.69c-.07 2 1.82 3.14.41 5.27-.86 1.3-1.81 2.38-.06 3.3.12.04.26-.11.15-.2z" fill="#7c1531"/><path class="cls-1" d="M27.72 60c-.05-.06-.13 0-.08.08.73.82-.3 1.68-.45 2.55a.13.13 0 0 0 .12.16 1.23 1.23 0 0 0 .69-.29.13.13 0 0 0-.14-.23l-.39.18c.21-.88 1.02-1.67.25-2.45z" fill="#7c1531"/><path class="cls-1" d="M28.89 64.36a6.74 6.74 0 0 1-.38-1.72.09.09 0 0 0-.17 0 3.27 3.27 0 0 0 .38 1.8.09.09 0 0 0 .17-.08z" fill="#7c1531"/><path class="cls-1" d="M34.16 99.15c.27.31.67 0 .62-.36-.33-2.14-3.06-1-3.1.74a2.2 2.2 0 0 0 1.51 2.18 3.42 3.42 0 0 0 3.08-.91c1.29-1.07 1.66-3.63.17-4.72a4.52 4.52 0 0 0-2.14-.71c-.85-.12-2.16-.14-2.3-1.23 0-.1-.17-.11-.16 0 .14 1.55 2.53 1.68 3.62 2.24 1.33.68 1.21 2.53.33 3.53-.69.78-2 1.31-2.82.51a1.14 1.14 0 0 1 .07-1.6c.43-.5.84 0 1.12.33z" fill="#7c1531"/><path class="cls-1" d="M30.41 103c1.45.72 2.79 1.5 4.46 1.45a2.89 2.89 0 0 0 2.84-2.6c0-.14-.19-.21-.27-.11-.92 1-1.71 1.76-3.18 1.71a38.31 38.31 0 0 1-3.82-.51s-.06.06-.03.06z" fill="#7c1531"/><path class="cls-1" d="M38.43 102.48a.15.15 0 0 0 0 .3.15.15 0 0 0 0-.3z" fill="#7c1531"/><path class="cls-1" d="M38.51 104.57a.22.22 0 0 0-.32-.25 7 7 0 0 1-2.11 1.29 11.79 11.79 0 0 1-2.65.26.26.26 0 0 0 0 .52c1.76.09 4.49.46 5.08-1.82z" fill="#7c1531"/><path class="cls-1" d="M39.13 106.51a.21.21 0 0 0-.26-.2c-.45.17-.75.58-1.16.83a2.76 2.76 0 0 1-1.66.36.26.26 0 0 0-.13.49 2 2 0 0 0 1.87 0c.56-.3 1.29-.8 1.34-1.48z" fill="#7c1531"/><path class="cls-1" d="M39.14 108.59a.36.36 0 0 0-.6.16c0 .13 0 .11-.09.2s0 .18.1.13l.05.07a.69.69 0 0 0 .29.14c.32.11.51-.31.31-.53z" fill="#7c1531"/><path class="cls-1" d="M39.84 110.08h-.08a.29.29 0 0 0-.28.36v.08c.32.75 1.16-.37.36-.44z" fill="#7c1531"/><path class="cls-1" d="M40.84 111.3a.29.29 0 0 0 0 .58.29.29 0 0 0 0-.58z" fill="#7c1531"/><path class="cls-1" d="M42.06 112.48c-.23-.08-.34.25-.16.38a.85.85 0 0 0 .22.1c.23.08.33-.25.16-.37a.8.8 0 0 0-.22-.11z" fill="#7c1531"/><path class="cls-1" d="M133 48.06a67.73 67.73 0 0 0-21.34-32.26q-.89-.78-1.84-1.49c-.63-.48-1.24-1-1.87-1.43-1.3-.88-2.55-1.8-3.89-2.59A67.25 67.25 0 0 0 96 6c-1.4-.59-2.75-1.21-4.19-1.7-.71-.25-1.42-.54-2.12-.76l-2.06-.64c-1.43-.47-2.84-.76-4.25-1.14s-2.87-.64-4.29-.86a68.22 68.22 0 0 0-31.67 2.3 69.12 69.12 0 0 0-23.33 12.89 66.46 66.46 0 0 0-7.87 7.86 64 64 0 0 0-5.6 7.59 64.36 64.36 0 0 0-6 11.77c-.59 1.41-.91 2.54-1.17 3.28l-.38 1.13.39-1.13c.27-.74.6-1.87 1.19-3.27a61.76 61.76 0 0 1 6-11.72 63.18 63.18 0 0 1 13.8-15.07 64.67 64.67 0 0 1 23.4-11.89 66.68 66.68 0 0 1 14.81-2.22 64.56 64.56 0 0 1 15.85 1.5c1.34.27 2.66.67 4 1s2.68.79 3.94 1.29l2 .75c.67.26 1.28.55 1.93.82 1.28.52 2.55 1.18 3.82 1.8a63.12 63.12 0 0 1 7.38 4.42c1.21.8 2.33 1.73 3.49 2.61s2.27 1.84 3.32 2.87a63.56 63.56 0 0 1 11.26 13.74 70.4 70.4 0 0 1 4.18 8A64 64 0 0 1 129.18 68a69.81 69.81 0 0 1-.81 9.18 69.58 69.58 0 0 1-2.12 9c-.48 1.34-1 3.12-1.57 4.4s-1.17 2.79-1.81 4.2a68.63 68.63 0 0 1-4.56 8 64.15 64.15 0 0 1-19.61 18.94 68.44 68.44 0 0 1-8 4.2 63.49 63.49 0 0 1-17.07 4.89 64.73 64.73 0 0 1-17.3.11c-1.4-.22-2.81-.39-4.19-.7-.69-.15-1.38-.26-2.07-.43l-2-.52-1-.25-1-.32-2-.63c-1.29-.48-2.56-.9-3.82-1.43a64.75 64.75 0 0 1-13.89-7.78 66.72 66.72 0 0 1-10.98-10.26A64.64 64.64 0 0 1 2.9 85.51 63.16 63.16 0 0 1 .19 65.3 61.8 61.8 0 0 1 1.9 52.24c.31-1.49.68-2.6.88-3.37l.32-1.15-.33 1.15c-.2.76-.58 1.87-.9 3.36a67.56 67.56 0 0 0-1.52 22.5 66.16 66.16 0 0 0 2 10.94 69.17 69.17 0 0 0 11.85 23.89 68.27 68.27 0 0 0 24.74 19.92c1.28.63 2.66 1.17 4 1.75l2 .74 1 .37 1.09.35 2.12.66c.71.21 1.44.38 2.16.57 1.44.41 2.92.67 4.4 1a67.51 67.51 0 0 0 9.1 1.08c1.55.12 3.11.07 4.67.09l2.35-.11c.79 0 1.57-.09 2.36-.18a67.65 67.65 0 0 0 35.94-14.37A68 68 0 0 0 133 48.06z" fill="#7c1531"/><path class="cls-1" d="M63.18 68.66v-.05.05z" fill="#7c1531"/><path class="cls-1" d="M63.27 68.19c1.82-2.84 4.22.54 6.28 1.27a3.84 3.84 0 0 0 4.75-1.92c1.8-3.12-.35-8.5-4-9C65.76 58 64.51 66 69 66.21c1.81.07 3.18-1.27 2.52-3.08-.48-1.31-1.86-1.52-2.44-.21a.16.16 0 0 0 .28.17c.85-1.22 1.8-.15 1.88.89.14 1.7-2.18 1.8-3.12 1-1.67-1.36-1.13-4 .45-5.06 3-2.05 5.37 2.24 5.6 4.67a4.23 4.23 0 0 1-1.81 4c-1.57 1-3.24-.07-4.6-.88-1.77-1.06-3.42-1.88-4.63.29a.11.11 0 0 0 .14.19z" fill="#7c1531"/><path class="cls-1" d="M83.27 60a2.37 2.37 0 0 1-.44.74l1.23-.54a2.31 2.31 0 0 1-.79-.2z" fill="#7c1531"/><path class="cls-1" d="M80.35 58.62c-.48-.33-.68.56-.73.74-.22.79.55 1.44 1.16 1.79a1.86 1.86 0 0 0-.43-2.53z" fill="#7c1531"/><path class="cls-1" d="M81 61.25l-.18-.1a2.68 2.68 0 0 1-.43.59c.31-.1.66-.22 1-.37a1.48 1.48 0 0 1-.39-.12z" fill="#7c1531"/><path class="cls-1" d="M83 58.25a.18.18 0 0 0-.25 0c-.72.72-.23 1.45.53 1.8a1.66 1.66 0 0 0-.28-1.8z" fill="#7c1531"/><path class="cls-1" d="M82.84 60.79c-.54.23-1 .43-1.45.59a1.6 1.6 0 0 0 1.45-.59z" fill="#7c1531"/><path class="cls-1" d="M72.62 57.94c3.51-.69 3.17 4.5 6.22 4.5a2.11 2.11 0 0 0 1.51-.7c-3.31 1-2.62-.76-5.24-3.42a2.55 2.55 0 0 0-2.54-.57c-.13.03-.08.25.05.19z" fill="#7c1531"/><path class="cls-1" d="M85.06 60a.1.1 0 0 0-.1-.17l-.9.41a1.59 1.59 0 0 0 1-.24z" fill="#7c1531"/><path class="cls-1" d="M88.29 57.67a18.34 18.34 0 0 0-2.5 1.71c-.06.06 0 .15.1.1.78-.63 1.69-1.05 2.51-1.62.11-.09 0-.27-.11-.19z" fill="#7c1531"/><path class="cls-1" d="M64.13 64.82c0 .46.46.42.79.41a.14.14 0 0 0 0-.28c-.56-.05-.09-.63-.1-.85a2.36 2.36 0 0 0-.34-1.1c-1.25-2.3.38-4.51 2.3-5.77a.06.06 0 0 0-.06-.11A5.13 5.13 0 0 0 63.66 62a2.38 2.38 0 0 0 .29.84 3.92 3.92 0 0 1 .18 1.98z" fill="#7c1531"/><path class="cls-1" d="M62.55 64.6a1 1 0 0 0 .59.95c.22.12.49-.19.28-.36A1.51 1.51 0 0 1 63 63.9a1.16 1.16 0 0 0-.58-.86c-.07 0-.15.06-.08.11.52.47.26.85.21 1.45z" fill="#7c1531"/><path class="cls-1" d="M62.12 65.88a.54.54 0 0 0 .31.61.17.17 0 0 0 .25-.1c.09-.21-.19-.36-.16-.58a.18.18 0 0 0-.22-.22c-.52.13-.68-.35-.74-.76 0-.06-.09 0-.1 0a.88.88 0 0 0 .66 1.05z" fill="#7c1531"/><path class="cls-1" d="M61.59 67.62a.28.28 0 0 0 0-.55.28.28 0 0 0 0 .55z" fill="#7c1531"/><path class="cls-1" d="M61.35 68.45a.15.15 0 0 0 .08-.22.13.13 0 0 0-.24-.07l-.06.08c-.05.11.1.24.22.21z" fill="#7c1531"/><path class="cls-1" d="M68.45 77.69c-.31.17-.58.28-.82-.05a2.62 2.62 0 0 1-.31-.77 3.66 3.66 0 0 0-.57-1.32h-.06c.34.55.57 3.37 1.83 2.22.09-.02 0-.12-.07-.08z" fill="#7c1531"/><path class="cls-1" d="M69.13 79.46c-.61-.23-.58-.7-.42-1.23 0-.12-.14-.16-.18-.05-.2.61-.2 1.32.59 1.39.06 0 .06-.09.01-.11z" fill="#7c1531"/></g></g><metadata><rdf:RDF xmlns:rdf="http://www.w3.org/1999/02/22-rdf-syntax-ns#" xmlns:rdfs="http://www.w3.org/2000/01/rdf-schema#" xmlns:dc="http://purl.org/dc/elements/1.1/"><rdf:Description about="https://iconscout.com/legal#licenses" dc:title="house,arryn,the,eyrie" dc:description="house,arryn,the,eyrie" dc:publisher="Iconscout" dc:date="2018-03-26" dc:format="image/svg+xml" dc:language="en"><dc:creator><rdf:Bag><rdf:li>Roundicons.com</rdf:li></rdf:Bag></dc:creator></rdf:Description></rdf:RDF></metadata></svg>