<?xml version="1.0" encoding="UTF-8"?><svg xmlns="http://www.w3.org/2000/svg" viewBox="0 0 317.13 431.26"><defs><style>.cls-1{fill:#7c1531;}</style></defs><title>Asset 19</title><g id="Layer_2" data-name="Layer 2"><g id="Layer_2-2" data-name="Layer 2"><path class="cls-1" d="M232.88 129.11a.23.23 0 0 0 .25-.09l.21.2c.31.25.73-.15.44-.44s-.26-.3-.4-.45a.45.45 0 0 0-.15-.35c-.08-.07-.13-.15-.2-.22-.37-1.38-1.16-2.59-1.57-4a19.52 19.52 0 0 0-1.75-4.78h-.08a19.23 19.23 0 0 1 1.31 4.89l-.15-.4a9.6 9.6 0 0 0-1.81-4.65c-1-1.47-2.59-2.2-4-3.13 0 0-.1 0-.06.07a13.61 13.61 0 0 1 3.64 3.33 10.2 10.2 0 0 1 .51 1c-2.19-3.3-6.6-4.83-10.49-4.65v.07a12 12 0 0 1 7.06 2.42 25.61 25.61 0 0 0-3.43-1.3 12.42 12.42 0 0 0-2.07-.44 28.7 28.7 0 0 0-7.54-1.15.05.05 0 0 0 0 .1c1 .28 2 .53 3 .76l.13.12a.11.11 0 0 0 .18 0l.43.1h-.38a5.47 5.47 0 0 0-.89-.14 4.16 4.16 0 0 0-.94-.28.35.35 0 0 0-.35-.06c-.54-.07-1.08-.08-1.56-.09a60.91 60.91 0 0 0-6.73.66.08.08 0 0 0 0 .16c1.35.06 2.9-.11 4.46-.17l-1 .12c-.06 0-.06.1 0 .1h1.78a22.54 22.54 0 0 0-4.71 1c-.11.05 0 .23.08.2a22 22 0 0 1 3.23-.42h-.1l-.43.14c-.95.33-1.89.66-2.85 1-3.11 1-6.39 3.08-9.78 2.59-.05 0-.07.07 0 .08a13.07 13.07 0 0 0 7-.84 6.63 6.63 0 0 0-.57.41.06.06 0 0 0 .06.1h.08c0 .07 0 .18.1.12s.34-.22.51-.33c.89-.29 1.82-.55 2.74-.84a13.77 13.77 0 0 1-4.44 1.52.08.08 0 0 0 0 .15 9.71 9.71 0 0 0 4.17-.41c-.16.17-.33.35-.48.53s.05.24.14.14a13 13 0 0 1 1-.93l.42-.19a29.44 29.44 0 0 1 4.78-1.89 1.45 1.45 0 0 1 .15.51 2.64 2.64 0 0 1-.08.64 5.8 5.8 0 0 0 1.76 6.74c.07.06.17 0 .1-.1a5.35 5.35 0 0 1-1.54-6.23.18.18 0 0 0 .16 0 5.47 5.47 0 0 1 1.4-.65 2 2 0 0 1 1.74.6s0 .08-.06.13a1.43 1.43 0 0 0 .72 1.79c-.67 1.93 2.24 4 3.93 2.64a3.33 3.33 0 0 0 1-2.61 3.22 3.22 0 0 1 1.92-1.06c.68-.15 1.1 0 1.31.52-.38-.1-.84-.08-1.13-.2-.08 0-.11.09 0 .12a7.89 7.89 0 0 1 .8.38 2.39 2.39 0 0 1 .58.5.22.22 0 0 0 .12.06 6.43 6.43 0 0 1-5.3 6v.07c4.12-.46 6.2-4.29 5.58-7.92a2.78 2.78 0 0 1 .08-.39.28.28 0 0 0 .35-.15 2 2 0 0 1 .15-.24 10.44 10.44 0 0 1 3.92 4.16 16.69 16.69 0 0 0 2.52 4.12.7.7 0 0 1-.2.18.06.06 0 0 0 .06.11 1.24 1.24 0 0 0 .24-.18l.29.28c-3.06-.5-6.48.87-9.55.91-5.94.08-12.35-2.11-15.52-7.4a.06.06 0 0 0-.11.06c1.77 3.79 4.78 5.78 8.68 7.08a25.15 25.15 0 0 0 6.94 1c3.16.16 7.06-1.77 10.19-.91zm-10.95-9.93zm-4.21 3h-.06.07zm-.75-2.8a3.81 3.81 0 0 1 .7 0l.11.08a1.51 1.51 0 0 1 .49 1.49c-.22.83-1.21.79-1.82.49a1 1 0 0 1-.62-.73 1.11 1.11 0 0 1 0-.25 1.58 1.58 0 0 1 1.17-1.12zm-4-.45a.46.46 0 0 0 .13.09 2.44 2.44 0 0 0-.37.13zm11.18 1.48a.48.48 0 0 0 .2 0v.37a1.36 1.36 0 0 0-.33-.24zm-6.44 3.59a1.8 1.8 0 0 0 .78.06h.13a.48.48 0 0 0 .43.06 1.49 1.49 0 0 1-1.34-.12z" fill="#7c1531"/><path class="cls-1" d="M203.67 116.61c4.28-3.51 10-4.36 15.41-4.3a22.09 22.09 0 0 1 8.91 2.17c2.62 1.18 3.8 3.9 5.51 6 .07.08.21 0 .15-.11-1.72-2.54-2.89-4.48-5.54-6.09-2.26-1.37-5.32-1.82-7.9-2.15-5.57-.72-12.33.69-16.64 4.4-.06.04.04.14.1.08z" fill="#7c1531"/><path class="cls-1" d="M234 121.63c0 .08.14.09.13 0s-.08-.19-.2-.22a.07.07 0 0 0 0 .13z" fill="#7c1531"/><path class="cls-1" d="M234.67 123.54c-.11 0-.17.15 0 .18a.47.47 0 0 1 .26.39c0 .08.14.06.14 0-.07-.28-.07-.53-.4-.57z" fill="#7c1531"/><path class="cls-1" d="M219.72 103.58a50.59 50.59 0 0 1 14.28 7.36c1.64 1.25 3.38 1.29 4.14-.69.17-.43-.37-.73-.72-.54.09-.91-1.79-2-2.39-2.33s-1.15-.54-1.73-.77c-1.71-1-3.57-1.93-5.09-2.74a21.91 21.91 0 0 0-6-2.21 30.47 30.47 0 0 0-8.69-3c-.09 0-.13.12 0 .13a31.29 31.29 0 0 1 7.34 2.62 16.44 16.44 0 0 0-1.88-.12 49 49 0 0 0-6.71-1.62c-7.27-1.18-16.5-1.07-22.27 4.16-.14.13 0 .37.2.26 8.57-5.84 20.32-3.76 29.52-.51zm3.44-.9l.33.19c-.76-.29-1.52-.57-2.29-.83a15.89 15.89 0 0 1 1.96.65z" fill="#7c1531"/><path class="cls-1" d="M234.89 158.84c.06-.08.45-.71.65-.61a.07.07 0 0 0 .07-.12c-.34-.26-.74.41-.89.62s.09.22.17.11z" fill="#7c1531"/><path class="cls-1" d="M252.79 169.54c-.4-.15-.79-.31-1.2-.44-2.5-1.13-4.84-2-7.6-1.52-1.65.26-2.65 1.2-1.43 2.65.08.1.25 0 .18-.14-.39-.57-.4-1-.22-1.29a5.45 5.45 0 0 0 2.46.47 19.15 19.15 0 0 0 2.44-.67 8.13 8.13 0 0 0 1.75.08c.61.2 1.23.4 1.85.56a.17.17 0 0 0 .09.08 12.08 12.08 0 0 0 1.64.37.08.08 0 0 0 .04-.15zm-9.91-.93h-.19l.15-.11a.31.31 0 0 0 .04.12z" fill="#7c1531"/><path class="cls-1" d="M259.38 173.62l-.11.11s.08-.03.11-.11z" fill="#7c1531"/><path class="cls-1" d="M233 165.26a8.21 8.21 0 0 1 1.46-5.6c.14-.2-.18-.38-.32-.19a8.83 8.83 0 0 0-1.77 4.86.08.08 0 0 0-.05.11l.05.11a5.77 5.77 0 0 0 .5 2.35 7.91 7.91 0 0 0 2.39 3.15c1.65 1.25 3.74 1.66 5.3 3.06a.06.06 0 0 0 .08-.08c-1.35-1.62-3.48-2.05-5.1-3.35a6.74 6.74 0 0 1-2.46-4 2.08 2.08 0 0 0 3 .6c1.78-1 3-2.11 5.15-2.21 2.48-.11 5.15.9 7.53 1.5a.07.07 0 0 0 0-.14c-2.79-.76-5.51-1.73-8.43-1.6-2.66.17-5.1 4.38-7.33 1.43z" fill="#7c1531"/><path class="cls-1" d="M251.3 165.81a30.4 30.4 0 0 0 7.15 1.87c.06 0 .07-.1 0-.11a67.57 67.57 0 0 1-7.15-1.82v.06z" fill="#7c1531"/><path class="cls-1" d="M259.37 168.52z" fill="#7c1531"/><path class="cls-1" d="M261.44 168.19a.1.1 0 0 0 0-.2.1.1 0 0 0 0 .2z" fill="#7c1531"/><path class="cls-1" d="M262.57 195.71c-2.82.52-5.16-1.78-7.82-2 1-.63 1.89-1.34 2.78-2a.1.1 0 0 0-.1-.17 48.21 48.21 0 0 1-5.58 2.72c-3.91 1-8.14-.43-12.07-.85a13.69 13.69 0 0 0-5.19.54 31.37 31.37 0 0 1-12.52.52c-.09 0-.13.12 0 .14a27 27 0 0 0 8 .77c3.32-.16 6.4-1.45 9.75-1.26a21.25 21.25 0 0 1 2.38.3 13.4 13.4 0 0 0 6 2c2.29.16 3.4-.68 4.87-1.71.24-.11.49-.23.72-.36 3.1-.08 5.72 2.37 8.84 1.55.11-.04.06-.21-.06-.19zm-19.51-1.09l.45.09a21.61 21.61 0 0 0 5.63.86h-.11a13.76 13.76 0 0 1-5.97-.95z" fill="#7c1531"/><path class="cls-1" d="M221.83 194.62a3 3 0 0 1-1.16.31c-.15 0-.15.23 0 .23a3.31 3.31 0 0 0 1.29-.31c.16-.08.04-.3-.13-.23z" fill="#7c1531"/><path class="cls-1" d="M225.43 193.1a39.45 39.45 0 0 0 17.51-4.82c1.72.15 3.46-.89 5.12-1.27a.15.15 0 0 0 .12-.13h.38a2.62 2.62 0 0 1 .41.09c.88.28 1.6.91 2.47 1.22.1 0 .14-.1.07-.16a5.24 5.24 0 0 0-2.94-1.15v-.11s-.07.06 0 .1h-.37a.17.17 0 0 0-.16-.18.06.06 0 0 0 0-.11.06.06 0 0 0 0 .11 5.8 5.8 0 0 0-2.4.65h-.08a7.94 7.94 0 0 1-2.43.8.06.06 0 0 0-.07-.08c-5.73 2.67-11.24 4.77-17.63 4.91a.05.05 0 0 0 0 .13z" fill="#7c1531"/><path class="cls-1" d="M258.44 187.48c-1.79-.95-3.6 1.37-5.5.74-.07 0-.11.09 0 .11 1.5.69 2.6-.21 4-.66 3-1 3.06 4 4.54 5.43.08.08.2 0 .12-.12-1.54-1.68-.96-4.33-3.16-5.5z" fill="#7c1531"/><path class="cls-1" d="M223.53 192.94c-.71.32-1.43.63-2.14.93-.11 0 0 .23.08.19a18.22 18.22 0 0 0 2.18-.92c.13-.07.01-.26-.12-.2z" fill="#7c1531"/><path class="cls-1" d="M257.89 202.81a10.86 10.86 0 0 1-2.24 2.75l-.05-.05c.15-.29.31-.59.44-.9 0-.06-.06-.09-.09 0-.19.29-.42.57-.63.84a.48.48 0 0 0-.2.06c-2.07 1.19-4 .07-6.05.41a43.89 43.89 0 0 1-5.88.82c-1-.13-1.92-.27-2.83-.45a14.09 14.09 0 0 1-1.45-.37c-.3-.13-.59-.27-.9-.44-3.48-1.93-6-4.76-10.15-5.39a.17.17 0 0 0-.09.32c5.15 2.09 8.21 7.16 13.87 8.23a13.62 13.62 0 0 0 5.61-.53c2 0 4.23.83 6.14.29a6.49 6.49 0 0 0 4.21-4.18c.06-.15-.09-.24-.22-.21.25-.34.5-.69.72-1.05.06-.16-.1-.27-.21-.15zm-2.15 3l.4-.35c-.14.06-.26.18-.39.31z" fill="#7c1531"/><path class="cls-1" d="M237.55 113.1c.62-.54 1.26-1 1.89-1.56.15-.12 0-.34-.2-.25a7.3 7.3 0 0 0-1.83 1.69.09.09 0 0 0 .14.12z" fill="#7c1531"/><path class="cls-1" d="M239.22 113.15c.48-.45 1.12-.81 1.4-1.42a.15.15 0 0 0-.27-.16 10.88 10.88 0 0 1-1.36 1.34c-.16.15.07.38.23.24z" fill="#7c1531"/><path class="cls-1" d="M240.16 113.63a.13.13 0 0 0 .18.18 7.11 7.11 0 0 0 .68-.7.11.11 0 0 0-.16-.16 6.71 6.71 0 0 0-.7.68z" fill="#7c1531"/><path class="cls-1" d="M269.22 130c2.33-1 3.52-3.27 5.26-5 3.5-3.54 9.86-4 14.35-2.74a.1.1 0 0 0 .05-.19 17.43 17.43 0 0 0-11.2.69c-3.78 1.45-5 5.49-8.5 7.21-.05-.06-.01.03.04.03z" fill="#7c1531"/><path class="cls-1" d="M289.5 123s-.11 0-.07.09a4.37 4.37 0 0 1 1.35 1.82.07.07 0 1 0 .13-.06 4.5 4.5 0 0 0-1.41-1.85z" fill="#7c1531"/><path class="cls-1" d="M297.89 115.18h.06a2.49 2.49 0 0 0-1-2.94c-.15-.11-.35.1-.25.25.58.89 1.3 1.51 1.19 2.69z" fill="#7c1531"/><path class="cls-1" d="M275.24 119.08h.37a.49.49 0 0 0 .08.17.29.29 0 0 0 .48 0c-.21.3.82.12 1 .11a13.88 13.88 0 0 0 1.4-.22 5.76 5.76 0 0 0 2.18-.88 23.28 23.28 0 0 0 5.38-3.11 27.46 27.46 0 0 1 8.54-2.83.12.12 0 0 0 0-.24h-.75a.2.2 0 0 0-.11-.09c-3.13-.91-6 .35-8.75 1.8-3 1-6 2.29-9 3.23a.23.23 0 0 0-.15.16.37.37 0 0 0-.38.14.26.26 0 0 0-.28.18 3.72 3.72 0 0 0-.26 1.15.37.37 0 0 0 .25.43zm3.36-1.4h-.08a.42.42 0 0 0 0-.15h.51zm-1.87.54h.18c-.51.1-1 .11-1.1-.16a3 3 0 0 0 .92.16z" fill="#7c1531"/><path class="cls-1" d="M273.79 119.9a13.87 13.87 0 0 1-.19-2.27.1.1 0 0 0-.19 0 11.44 11.44 0 0 0 .12 2.34c.02.18.29.11.26-.07z" fill="#7c1531"/><path class="cls-1" d="M272.13 121a1.81 1.81 0 0 1 .11-1.73c.08-.13-.12-.3-.22-.17a1.67 1.67 0 0 0-.18 2.06c.11.11.35-.03.29-.16z" fill="#7c1531"/><path class="cls-1" d="M269.93 122a6.3 6.3 0 0 0 .47-1.07c.08-.17-.16-.33-.26-.15a2.79 2.79 0 0 0-.47 1.15c0 .15.19.18.26.07z" fill="#7c1531"/><path class="cls-1" d="M269.2 124.2a.11.11 0 0 0 0-.23.11.11 0 0 0 0 .23z" fill="#7c1531"/><path class="cls-1" d="M301.07 350.46a.07.07 0 0 0 0 .14.07.07 0 0 0 0-.14z" fill="#7c1531"/><path class="cls-1" d="M304.58 356.57c-1.3-2.35-5.38-6.48-5.27-9.27 0-.11-.16-.11-.17 0-.25 2.68 1.77 4.07 3.12 6.22 2.52 4 4.41 8.41 7.15 12.31.16.22.52 0 .37-.22-1.85-2.95-3.52-5.99-5.2-9.04z" fill="#7c1531"/><path class="cls-1" d="M225.59 426.55a.22.22 0 0 0 0 .44.22.22 0 0 0 0-.44z" fill="#7c1531"/><path class="cls-1" d="M162.7 137.83c-.93.8-1.87 1.61-2.73 2.49a.28.28 0 0 0 .4.4c.9-.85 2-1.5 2.8-2.42a.33.33 0 0 0-.47-.47z" fill="#7c1531"/><path class="cls-1" d="M161.62 144.52c-.25 0-.38.28-.61.31s-.26.63.08.59a1.17 1.17 0 0 0 .34-.09c.1 0 .17-.2.28-.21a.31.31 0 1 0-.09-.6z" fill="#7c1531"/><path class="cls-1" d="M313.71 115.56c0-2.33.15-4.66.37-7 2.63-11.33 4.19-23 1.28-34.08v-.33C314 62.2 308.76 51.3 303 40.89a121 121 0 0 0-6.46-10.4 10.82 10.82 0 0 0-3.25-4.49 89 89 0 0 0-11.82-12.65c-4.73-4.12-10.13-6.74-16.47-6a46.39 46.39 0 0 0-9.94 2.65c-8.12-2.85-16.41-5.89-24.88-7.63l-.74-.21c-2.31-.67-4.84-1.33-7.16-1Q219.63 1 217 1a57.85 57.85 0 0 0-8.21-.92 80.26 80.26 0 0 0-18.63 1.48 74.68 74.68 0 0 0-23.24 4.67c-15.56 6-29.18 17.47-40.61 29.36-10.86 11.3-19.13 26-21.28 41.7-1.23 8.93-.79 18.29-.58 27.27v4.23c0 1.41-.26 3-.4 4.41-.11 1.22-.21 2.44-.31 3.65-.3 1.55-1 3.75-.43 5.3a96.18 96.18 0 0 1-1.3 10q-.33.92-.69 1.85c-2.54 6.41-5.82 12.41-8.19 18.78-2.51 4.38-4.82 8.81-5.93 13.83a123.07 123.07 0 0 0-9.2 25.2l-.2.8a12 12 0 0 0-.35 1.36c-2.82 11.35-4.67 24.45-2.35 35.83a1.57 1.57 0 0 0 .13.38 11.4 11.4 0 0 1-3 5.94c-1.41 1.47-3 2.85-4.29 4.43v.06a17.3 17.3 0 0 0-2.75 3.72c-2.38 4.56-1.16 9.45 1.13 13.73.46.85 1 1.71 1.59 2.58 1.78 3.22 3.67 6.38 4.17 9.93a.73.73 0 0 0-.5 0c-1.34.45-2.71.79-4.06 1.13 1.35-2.29.35-5.42-1.35-8.33a45.55 45.55 0 0 0-4.83-6.37c-5-5.83-.46-11 1.34-16.9 0-.1-.13-.15-.16 0-1.83 5.76-5.95 10.07-2.72 16.09 2.08 3.87 10.7 11.54 6.75 15.82-1 .26-2.08.52-3.1.83-11.7.31-23.54 1.64-33.73 6.86-7.78 4-11.56 11.68-14.83 19.37-4.22 9.93-10.62 18.7-14.84 28.6-.29.68.65 1.28 1 .59 4.61-8.67 10.34-16.7 14.31-25.72 3.68-8.36 6.92-16.5 15.32-21.18a39.35 39.35 0 0 1 4.27-2c6.79-1.16 14.19-.57 20.72-.66 4.4-.06 8.81-.47 13.19-.83.95-.08 10.28-.81 14.77-2.43 5.68 2.56 9.37 9.21 11.58 15.36a97.05 97.05 0 0 1 3.76 14c.25 1.21.46 3.1.8 5-.16.85-.32 1.69-.46 2.54a29.79 29.79 0 0 0-.31 6.86c.09 3.73.77 7.32 3.44 10.34 2.82 3.2 6.24 3.8 10.34 3.88 4.74.09 9.86.45 14.26 2.37a10.44 10.44 0 0 1 5.37 5.29q.27.72.49 1.46a22.06 22.06 0 0 0 .6 3.81 2.49 2.49 0 0 0 .17.45 38.88 38.88 0 0 1 .13 5c-.09 2.56-.41 5.23-.57 7.9-.87 4.27-1.58 8.78.41 12.81 2.58 5.21 9.94 4.32 15.58 3.63a3.62 3.62 0 0 0 2.36 3.71c2.81 1.11 8.36-.59 6.79 4.4s-6.07 10.42 1 13.2c1.18.46 2-1.55.87-2.05-5.78-2.51 1.25-9 1.76-13.23.23-1.87-1.15-3.66-2.59-4.65a13.74 13.74 0 0 0-3.87-1.85l-.49-.16c.24-.68.54-1.35.81-2a3 3 0 0 0-2.12-3.74 43.34 43.34 0 0 0-6.14.26c-1-1-2.43-1.71-3.18-3.11-1.23-2.28-.68-5.9-.33-8.33.83-5.67 2.9-11.06 4.44-16.56a21 21 0 0 0 .75-6.9 15.28 15.28 0 0 0-.31-4.3 16.68 16.68 0 0 0-4.44-7.8 19.65 19.65 0 0 0-4.94-4.25 66.6 66.6 0 0 0-1.91-1.33 14.33 14.33 0 0 1-3.25-2.88c-.07-4.92.67-10.36-1.36-14.77v-.16c-.45-1.85-1.16-4.21-3.18-4.9-1.12-.38-2.27-.58-3.42-.86a4.53 4.53 0 0 1-1.33-.54 12.64 12.64 0 0 0-.81-3.44 29 29 0 0 1 2.62-4.56c1-1.82.57-4.49-.35-6.25-1-2-2.21-3.46-3-5.07a8.91 8.91 0 0 1 1.92.95c2 2 3.37 5.25 4.53 7.61 3.38 6.88 6.68 13.61 9.6 20.7a10.31 10.31 0 0 0 .48 1.9c1.32 3.69 4.46 6.66 6.58 9.89 6 9.11 11.5 18 15.93 28a53.74 53.74 0 0 0 7.34 12c.68.9 1.39 1.79 2.14 2.64 5.78 6.54 12.92 11.55 18.22 18.37 1.72 3.55 1.74 7.81 4.27 10.86a.55.55 0 0 0 .15.12c1.72 4.09 6 6.93 9.6 9.56a59 59 0 0 1 6.38 6.45.36.36 0 0 0 .52 0c.73.88 1.42 1.79 2.09 2.72 3.81 5.88 6.31 12.65 10.86 18.06.25.3.68-.13.43-.43a46.79 46.79 0 0 1-4.26-6.07.2.2 0 0 0 .09-.23 52.4 52.4 0 0 0-11-18.24 29.08 29.08 0 0 0-4.11-3.71c-2.06-2.14-4.18-4.24-6.22-6.41a13.06 13.06 0 0 1-2.86-6.28c-.34-3 0-5-1.35-8a27.88 27.88 0 0 0-6.21-8.24.13.13 0 0 0-.19.19c2.81 3.24 5.4 6.55 6.37 10.82a9.24 9.24 0 0 1-.09 3.53.42.42 0 0 0-.38-.3 33.55 33.55 0 0 0-1.65-2.93 20.28 20.28 0 0 0-.86-2.4c-1.64-3.71-4.84-6.77-7.79-9.41-3.46-3.09-7.17-5.8-10.37-9.17a50.83 50.83 0 0 1-8.1-12.14c-2.26-4.43-3.86-9.11-6.32-13.44-2.55-4.5-5.79-8.62-8.69-12.91-.94-1.39-1.92-2.75-2.91-4.09-2.47-4-4.85-8.11-7-12.34-.29-3.29.46-6.71-.15-10.13-.05-.29-.56-.23-.52.07.32 2.54-.19 5-.46 7.37a66.14 66.14 0 0 0-3.76-8.7c-.92-2.4-1.85-4.8-2.84-7.16a25 25 0 0 0-1.76-3.94c-.74-1.56-1.52-3.09-2.37-4.59a27 27 0 0 0-4.83-7.07l-.59-.7c1.39-3 4.74-5.18 7.18-7.16a20.8 20.8 0 0 0 6.49-8 48.13 48.13 0 0 0 1.58-5c-.34 8.15-3.88 14.14-11.7 17.63-.27.12-.08.57.2.47 8.49-2.86 12.69-9.46 12.9-18l.34.12c.15.1.3.21.44.32a.51.51 0 0 0 .07.12 30.28 30.28 0 0 1 2 2.58l.07.19a19.85 19.85 0 0 0 1 2.79c2.3 6.57 4.27 13.27 7 19.7.65 1.57 1.37 3.1 2.11 4.63a54.27 54.27 0 0 0 2.76 6.56 38.94 38.94 0 0 0 3.8 5.74c1.5 2.71 3 5.44 4.34 8.21 4.38 8.91 8.27 18 13.14 26.63a216.2 216.2 0 0 0 16.6 25.34c9.67 12.66 21.43 23.55 31.85 35.57a143.71 143.71 0 0 1 15 20.46c4.79 8 6.8 16.47 9.73 25.21a.35.35 0 0 0 .67-.18c-5.7-33.86-33.7-55-54.15-80.1-9.44-11.6-17.16-24.39-24-37.61-2.2-5.39-4-10.9-6.22-16.31-2.73-6.53-8.23-11.33-10.9-18-1.75-4.38-3.15-8.89-4.7-13.35a24.57 24.57 0 0 1 4-4.59l2 1.16a103.58 103.58 0 0 1 12.81 9.43c6 4.92 11.45 10.39 17.93 14.65a39.83 39.83 0 0 0 9.5 4.48c4.8 1.57 7.83 4.89 11.87 7.69a.49.49 0 0 0 .65-.08c3.12 4.34 7.69 6.8 11.71 10.23.65.55 1.3 1.13 2 1.72-.08 0-.05.19.05.18h.13l.43.4a.35.35 0 0 0 .1.09 109.92 109.92 0 0 1 13.09 14.42c5.68 7.58 9.68 16.11 12.9 25-5-6.3-12.49-11.28-19.21-15.19a.14.14 0 0 0-.14.24c8.06 5 14 11.23 20.42 18 1.28 3.75 2.44 7.55 3.54 11.34a.41.41 0 0 0 .22.28.26.26 0 0 0-.12.22c.09 3.37 2.2 5.19 4.58 7.32 3.88 3.48 3.61 8.56 6.2 12.64-2.13 1.19-4.75 2.15-4 5 .48 1.71 2.76 2.83 1.8 4.74-.87 1.74-3 2.63-3.51 4.61-1.93 6.87 7.83 14.67 14 15 .56 0 .53-.79 0-.85-4.55-.54-9-4.88-11.56-8.43-3.64-5 1.77-6.36 3-10.29a4 4 0 0 0 .11-2.46 2.5 2.5 0 0 0-.61-.83 2.89 2.89 0 0 1 .92-4.5c2.16-1 3.47-2.87 3-5.1a.35.35 0 0 0-.69.09 2.9 2.9 0 0 1-1.45 2.42v-.1c.56-2.1 1.42-4.08 2-6.18a.48.48 0 0 0-.58-.58c-1 .19-2 .35-3 .52a30.56 30.56 0 0 1 2.42-3.93 20.21 20.21 0 0 0 4 6.06.5.5 0 0 0 .78-.6c-1.81-3.21-3.25-7.16-5.72-9.9a26 26 0 0 1-5.79-9.68 9.22 9.22 0 0 0 4.4 3.95c2.69 1 4.06-1.44 4.23-3.75.28-3.92-2.57-10.92-6.73-11.14a2.22 2.22 0 0 1-.61-2.36c.05-.16-.19-.25-.27-.11a2.54 2.54 0 0 0-.3.94c-1.83-2.27-4.39-3.66-6.25-5.92a44.7 44.7 0 0 0-.25-7.89c0-.2-.37-.15-.35 0a46 46 0 0 1 0 7c-2.62-3.92-3.34-9-5.52-13.21a19.75 19.75 0 0 0-3.06-4.12.45.45 0 0 0-.2-.21c-1.06-1.13-2.17-2.21-3.16-3.24a75.21 75.21 0 0 0-6.37-6.17.36.36 0 0 0 .15-.49c-3.44-6.74-3-15.31.09-22 1.79-3.92 2.94-7.51.83-11.58-1.65-3.2-4-4.88-2.73-9l.11-.33c-.31 4.16 4.56 8.22 8.59 11.41l.07.09a.43.43 0 0 0 .26.16 46.78 46.78 0 0 1 3.78 3.17.31.31 0 0 0 .26.1c1.29 1.29 2.63 2.54 4 3.79 4.06 3.86 6 8.46 8.16 13.5 2 4.54 5.21 7.21 9.28 9.85a28.84 28.84 0 0 1 10.51 11c3.24 5.78 6.91 11.3 10.12 17.09 2.85 5.14 5.31 10.47 8.42 15.48 3.45 5.55 7.2 10.8 9.52 17a.19.19 0 0 0 .36-.1 50.19 50.19 0 0 0-6.57-13.91 180.86 180.86 0 0 1-9-16.52c-2.88-5.93-6.46-11.48-9.75-17.18-2.43-4.22-4.51-8.88-8.57-11.83s-8.93-5-11.79-9.6c-2.68-4.25-3.81-9.14-7-13.12-3.53-4.34-8.31-7.35-11.65-11.92-1.55-2.12-2.77-4.49-4.15-6.74-.18-.41-.36-.83-.53-1.25-.39-1.21-.72-2.45-1-3.69a22.88 22.88 0 0 1 4.53.26.26.26 0 0 0 .14-.5 14.15 14.15 0 0 0-4.77-.2c-.17-.74-.34-1.48-.5-2.22 1.29 1.14 3.2 1.48 4.81 1.89h.06c1.54 1.43 3.08 2.8 4.43 4.19 3.7 3.79 6.43 8.66 9.66 12.86q1.24 1.62 2.53 3.2c-4.2-4.31-10.08-7.76-14.55-10.41a.08.08 0 0 0-.08.14c5.91 3.65 22.56 13.19 18.89 22a.2.2 0 0 0 .14.24c7 2.61 10.34 10.76 15.27 15.92.18.18.45-.09.28-.28-4.01-4.16-6.76-9.24-10.87-13.24-.58-.56-4.45-2.62-4.19-3.25.59-1.45.1-3.12-.42-4.5a16.44 16.44 0 0 0-1.92-3.56c2 2.3 4 4.55 6.12 6.71 3.22 3.28 7.2 5.73 10.65 8.74 4.14 3.62 6.34 8.17 8.57 13.07 2 4.39 3.45 8.95 5.78 13.18 2.8 5.1 5.46 9.37 5.47 15.42a.12.12 0 0 0 .24 0c.25-8.89-6.12-16.39-9.14-24.39a65.87 65.87 0 0 0-5.91-12.66c-2.44-3.79-6.28-6.77-9.7-9.63-9.18-7.68-15.71-17.72-22.84-27.2a35.24 35.24 0 0 0-4.95-5.11 2.27 2.27 0 0 0 1.16-.19 13 13 0 0 0 2.22.88c3.11 2.19 7.55 2.11 12 1.12 4.2-.08 8.4-.41 12.59-.22 6 .28 10.65 3.24 15 6.9a25.47 25.47 0 0 0 3.76 4 .59.59 0 0 0 .77 0c4.58 4.2 9.19 8.38 15.09 10.06.38.11.65-.48.27-.65-4.86-2.27-8.86-5.91-12.81-9.59l-.53-1.09a.36.36 0 0 0 0-.51c-.14-.14-.27-.26-.41-.38-1.58-3.28-2.83-6.37-2.29-10.39 0-.14-.23-.17-.25 0a17.81 17.81 0 0 0 1 9.26l-.81-.5c-2.56-1.52-1.72-4.88-1.43-7.1.23-1.75.37-3.92-.89-5.36a6.82 6.82 0 0 0-4-2.23c-.83-.18-1.72-.23-2.56-.35-2.81-.4-.16-3.46.57-4.48 0-.06-.05-.13-.1-.08-2.76 3.25-2.95 4.55 1.25 5.32 5.56 1 4.83 5.7 4.44 10.08-.09-.29-.18-.58-.26-.87a.18.18 0 0 0 0-.21c-.06-.12-.13-.24-.2-.35v-.1a11.14 11.14 0 0 0-2.46-5.11c-1.1-1.19-2.79-1.41-4.3-1.54-3.58-.29-3.43-2.57-2.42-5a29.21 29.21 0 0 0 1.85-2.7c1.09-.85 2.24-1.62 3.31-2.31 1.74-1.11 4.86-1.56 6-3.41s.24-6.13-.09-8c-1.18-6.81-3.1-11.89-.83-18.86 2.51-7.72 7.42-14.25 11.66-21.13a60.79 60.79 0 0 0 4.45-7.53 97.94 97.94 0 0 0 8.14-26.67 108.64 108.64 0 0 0 2.12-13.53c1.25-13.2-3.17-26.24-3.2-39.44zm-84 190.4c-3.44-3.87-7.11-7.61-11.47-10.2a71.67 71.67 0 0 1-11.56-8.25 21.71 21.71 0 0 0-5-3.24c-.2-.46-.38-.93-.57-1.39.66 0 1.32 0 2 .08a.15.15 0 0 0 0-.3 6.33 6.33 0 0 0-2.21-.15 262.05 262.05 0 0 1-9.66-27.12c-3-10.08-8-19.19-9.51-29.74 0-.1-.19-.08-.17 0 1.25 10.56 6 19.83 8.95 29.92 2.66 9.17 5.53 18.41 9.65 27.06a4.44 4.44 0 0 0-1.13.46c-8.92-3.75-16-10.27-23.71-15.9-7.54-5.49-15.39-10.6-22.84-16.21a26.74 26.74 0 0 1 5.7-6.55c.13-.1 0-.32-.17-.22a23.88 23.88 0 0 0-5.75 6.61l-1.53-1.16-.13-.2a.24.24 0 0 0 .34-.08 20.39 20.39 0 0 1 6.37-7c1.95-1.23 4.35-1.1 6.36-2.46 3-2 3.2-6.32 2.79-9.45 0-.09-.16-.09-.15 0a12 12 0 0 1-1 6.9c-1.41 3-4.57 3.42-7.37 4.13-3.3.84-5.92 4.81-7.43 7.57a.23.23 0 0 0 0 .14 5.15 5.15 0 0 1-.48-1.1.2.2 0 0 0 .34-.09 10.7 10.7 0 0 1 .77-2.29A38.29 38.29 0 0 0 154 242a7.57 7.57 0 0 0 .82-.94c1.42-1.24 3-2.35 4.54-3.51 2.39-1.81 3.65-4.73 4.64-7.46.7-1.93 1.24-3.86 1.9-5.73q.73-1.55 1.34-3.16a15.89 15.89 0 0 1 2-3c3.53-4.21 9.22-5.2 14.28-6.25a.54.54 0 0 0 .44-.61l1.27.93a26.18 26.18 0 0 0-17.65 11.09c-.07.1.09.19.16.09 4.33-6.16 11-9.16 18.12-10.75l1.4 1c6.29 4.31 13 8 19.61 11.78 6.21 3.55 12.16 7.57 18.35 11.11a.12.12 0 0 0 .13 0 15.54 15.54 0 0 0 2.22 1.12c.66.94 1.35 1.89 1.93 2.88.43 1.14.79 2.31 1.16 3.47-.06.47-.12.94-.17 1.42-4.85-4.94-8.93-10.66-14.88-14.38-.11-.07-.2.1-.1.17 6.07 3.91 9.88 9.95 14.92 14.94q-.14 1.59-.21 3.18c-5.51-10.45-17.51-17.13-25.92-24.92 0 0-.11 0-.07.06 9.06 8.46 18.79 15.73 26 26-.13 4.48.09 9 .36 13.44-1.37 4.82-3.25 9.14-.68 14.52 1.26 2.66 2.87 4.42 2 7.6-.63 2.4-1.79 4.52-2.27 7-.83 4.14-.03 8.6.1 12.91zm5.5 8.43l.44.79a.35.35 0 0 0 .53.13 33.2 33.2 0 0 0 2.54 3.07c-1.37.43-3.49 1-3.41.58a17.45 17.45 0 0 0-.07-4.57zm-1.46-2.09a.6.6 0 0 0 .22.13q.23.29.43.6c-1.29.27-2.53.61-3.8 1-1 .29-.2-2.83.25-4.42.98.9 1.93 1.81 2.94 2.69zm-9-7.28a.46.46 0 0 0-.56-.32c-4 1.67-3.42-2-3-4.66a29.87 29.87 0 0 1 3.76 3.36c1.62 1.72 3.2 3.4 4.83 5-1.64.44-3.27.92-4.93 1.33a11.62 11.62 0 0 0-.1-4.73zm-5.41.54c-2-1.47-4-2.91-5.91-4.47 2-.56 4-1.12 6-1.55.9-.18.15 4.37-.09 6.03zm-4.88-5.64c-.74.21-.14-2.4.28-4 1.59.94 3.12 1.86 4.59 2.86-1.65.27-3.25.69-4.87 1.15zm-7.26-5.36c.22-1.33.5-2.51.64-3.77a56.44 56.44 0 0 0 4.65 3.69c-2.21.36-5.41.75-5.3.09zm-7.2-8.92a30.18 30.18 0 0 1 3.64 1.94c.71.45 1.39 1 2 1.46a27.74 27.74 0 0 0-3 .64c-2.98.84-2.86-1.8-2.64-4.03zm-8.94.5c-.41-1.5.17-3.16.48-4.76.55.34 1.08.69 1.64 1a50.71 50.71 0 0 0 5.31 2.56 46.87 46.87 0 0 1-7.18 1.32zm-7.06-4.68c-1.67-1.3-3.29-2.67-4.88-4.06a5.45 5.45 0 0 0 2.09-.14c.43-.09 3.41-1.45 3.47 0a19.91 19.91 0 0 1-.68 4.2zm-5.49-6.46a5.29 5.29 0 0 0-.34-3.3.91.91 0 0 0-.1-.15c1.82 1.44 3.64 2.87 5.48 4.27-2.06.46-5.38 1.09-5.04-.82zm-16.14-15.31l3.1 2.3a8.67 8.67 0 0 0-1.24.36 6.45 6.45 0 0 0-1.75 1c.35-.29.1-2.27-.11-3.64zm-6.62 0l-2.47-1.43a.15.15 0 0 0-.21-.21l-.09.08-1.81-1.08-.48-.31a.37.37 0 0 0 .1 0c1.53-1.21 4.69-3.14 4.5.22a5.33 5.33 0 0 0 .46 2.76zm-5.13 10.37c-1.54-3.72-2.85-7.54-4.12-11.36 1.5 3.77 2.85 7.57 4.12 11.39zM314.49 80.8v.94c.16 7.56-1.34 15.25-3.08 22.66-.11-3-.13-5.91 0-8.87 1.52-5.21 1.39-11.45 1-16.9a1.49 1.49 0 0 0 .08-.14 13.33 13.33 0 0 0 1.2-4.44c.15.77.28 1.55.38 2.33.21 1.46.34 2.92.42 4.42zm-141.2 119.63c-1.07-1.68-2.33-3.28-3.58-4.88a42.71 42.71 0 0 1-6.47-12.09q-.19-.61-.41-1.22c-.16-.49-.33-1-.47-1.48-.19-1.16-.37-2.33-.59-3.49q-.45-2.43-.93-4.87c-.19-5.51-.37-11-.77-16.52a.19.19 0 0 0-.27-.18c-.09-1.12-.27-2.23-.29-3.36a.15.15 0 0 0-.29 0c0 1.09.13 2.17.21 3.26a.15.15 0 0 0-.17 0 21.57 21.57 0 0 1-3.63 2.63l-.9-.29a13.1 13.1 0 0 1-8.11-8.73.47.47 0 0 0-.21-.29c1.6-1 3.2-2 4.75-3a8.21 8.21 0 0 0 1.23-.47 8.21 8.21 0 0 1 3.66.88c.12 2.51 0 4.79-2.44 3.84-.14-.05-.23.17-.1.23 4.66 2.19 3.09-6.65 3.63-8.77a.32.32 0 0 0-.24-.41 19.55 19.55 0 0 0 2.8-3.67c1.25-.79 2.6-1.54 3.76-2.45.2-.15 0-.47-.24-.41a8.6 8.6 0 0 0-3 1.88 15.68 15.68 0 0 0 1.21-3.28c.78-.73 1.56-1.46 2.38-2.14.31-.26-.13-.69-.44-.44-.58.46-1.15 1-1.71 1.46.08-.47.13-1 .17-1.46 2.75-5.35 10.9-2.95 15.9-5.76l.68.56a.15.15 0 0 0 .21-.21 9.31 9.31 0 0 0-.54-.55 7.19 7.19 0 0 0 1.05-.8c1.88-1.75 1.63-4.84 1.48-7.12-.35-5.19-.61-9.87.62-14.9A66.41 66.41 0 0 1 188 90.78c3.24-3.3 6.69-6.41 10.16-9.49 5.05-2.71 10.13-2.06 15.94-.79 3.24.71 6.57 1.39 9.76.11 2.39-1 4-3.15 5.29-5.49a1.07 1.07 0 0 0 .52.18c.22 0 .28-.36.05-.39a1 1 0 0 1-.38-.16c.55-1.07 1-2.16 1.43-3.16.23-.32.45-.63.69-.94a13.73 13.73 0 0 0 2.08-2.15 5.37 5.37 0 0 1 4.16-1c.16 0 .32.07.48.11a3.69 3.69 0 0 0 .95.87.13.13 0 0 0 .16-.21c-.14-.14-.25-.29-.38-.43a8.74 8.74 0 0 1 2.43 1.51 6.53 6.53 0 0 0 .47.7.19.19 0 0 0 .3 0c.41.38.8.77 1.18 1.15a5.28 5.28 0 0 0 3.83 1.62 2.43 2.43 0 0 0 .89.94.19.19 0 0 0 .22-.29 6.36 6.36 0 0 1-.5-.72c4.79-.94 8.25-5.92 10.74-9.75q.5-.46 1-.95A8.89 8.89 0 0 0 262 60.5a8.6 8.6 0 0 0 2-1.89 28.91 28.91 0 0 1 3.18-3.13 11.91 11.91 0 0 0 1.38 4.5c-.83.42-1.63.86-2.41 1.35a13.17 13.17 0 0 1 .31-4 .17.17 0 0 0-.32-.09 10.64 10.64 0 0 0-.64 2.29 4.29 4.29 0 0 0-1.89 2 .2.2 0 0 0 .34.2 5.44 5.44 0 0 1 1.53-1.55 13.18 13.18 0 0 0-.09 1.75l-.32.22c-.11.08 0 .27.11.19l.21-.14c.19 5.11 3.13 10.58 7.13 13.18l.13.08a.15.15 0 0 0 .21.13 10.44 10.44 0 0 0 8.42 1.34c3.87-.94 6.71-3.67 10.72-3.64 3.7 3.43 5.61 8.33 6.66 13.37l-2.85.08c-.09-.72-.15-1.45-.21-2.19a3.8 3.8 0 0 0 2.4-.09.09.09 0 0 0 0-.17 5.63 5.63 0 0 1-2.37.09c-.06-.63-.12-1.27-.21-1.9-.39-2.76-1-7.39-4.46-7.72-.12 0-.14.18 0 .2 4.1.85 4 8.54 4.15 11.7.21 4.55 3.08 5.79 4.58 9.76a.24.24 0 0 0 .23.15c.1 7.28-2 14.77-.62 21.91.39 8.81-2.77 17.85-3.3 26.7a74.51 74.51 0 0 1-2.37 16.37c-1.65 5.72-4.62 11.28-7.15 16.66a271.37 271.37 0 0 1-15.42 28.1 101.89 101.89 0 0 1-10.14 13.47l-.13.14a.32.32 0 0 0-.06-.28 39.75 39.75 0 0 0 3.88-7.65.22.22 0 0 0-.4-.17c-2.29 4.28-5.49 8.23-7.33 12.74a37 37 0 0 0-2.93 4.25c-6.71 5.39-13.63 8.6-22.69 6.86a43.92 43.92 0 0 1-11.88-4.52c-2.37-1.28-4.5-2.81-6.91-3.86l-1.71-1c-6.2-3.67-12.45-7.28-18.55-11.11-6.89-4.29-13.52-9.02-18.92-14.75zm-25.06 57.9l-.14-.32c.45-.26.91-.51 1.39-.74l.21.18c.38.3.78.57 1.18.85-.68.52-1.36 1-2 1.62-.21-.53-.42-1.07-.64-1.6zm-19.07 44.94a31.94 31.94 0 0 0-2.21-3c-.55-.65-1.14-1.25-1.74-1.83a7.88 7.88 0 0 1 3.95 4.82zM268.93 70.44c1.49-1.61 2.83-3.3 4.77-4.36q1 .79 2 1.49c-1.5 1.39-2.69 3.11-4.33 4.35-.11.08 0 .28.11.19a51.77 51.77 0 0 0 4.61-4.29 26.32 26.32 0 0 0 3.2 1.74c-2.24 1.62-4.2 3.59-6.32 5.36a14 14 0 0 1-4.04-4.48zm-17.26-.7c-.57-.88-1-1.85-1.53-2.73-.15-.22-.5 0-.36.21.57.89 1 1.88 1.53 2.77-.17.14-.32.29-.5.42a5 5 0 0 1-3.62 1.2 17.29 17.29 0 0 1-.77-3.35c0-.24-.4-.13-.36.1a27.61 27.61 0 0 0 .54 3.15 6.91 6.91 0 0 1-1.81-.74 10.27 10.27 0 0 1-.86-4.3.14.14 0 0 0-.28 0 11.36 11.36 0 0 0 .65 4c-1-.62-1.95-1.39-2.93-2.09a18.51 18.51 0 0 1-1.09-4.11c0-.23-.37-.13-.34.1a18.41 18.41 0 0 0 .76 3.56l-.4-.25a7.15 7.15 0 0 0-2.18-.89 20.12 20.12 0 0 1-1.29-2.22c-.07-.13-.26 0-.2.12.3.63.6 1.36 1 2a5.2 5.2 0 0 0-3.29.73c.57-.81 1.11-1.66 1.64-2.51.05-.08.11-.15.17-.23a32 32 0 0 1 3.85-1.29l.24-.06h.06a5.21 5.21 0 0 0 2.93.25 24.89 24.89 0 0 1 3.19 2.11c1.92 1.27 4.68 1.06 6.78.48a11 11 0 0 0 3.52-1.79 33.69 33.69 0 0 1-5.05 5.36zm-25.24 7.82a14.54 14.54 0 0 1-1.19-2.5c-.07-.2-.38-.11-.31.09a12.67 12.67 0 0 0 1.29 2.64 9.31 9.31 0 0 1-2.52 1.8 15 15 0 0 1-1.22-3.92c0-.21-.36-.12-.32.09a18.68 18.68 0 0 0 1.21 4 8.42 8.42 0 0 1-2.08.58c-.75-1.8-1.65-3.58-2.51-5.32-.1-.19-.38 0-.29.17.84 1.71 1.53 3.52 2.45 5.19a10.19 10.19 0 0 1-1.51.07c-.36 0-.71-.05-1.06-.08-1.5-2.39-2.16-5.18-3.74-7.51 4.28-.15 8.51.59 12.79-.29a5.46 5.46 0 0 0 1 1.82l.21.25a16.79 16.79 0 0 1-2.2 2.92zm-45.07 23.08a.24.24 0 0 0-.36.12c0 .09-.05.18-.08.27a.16.16 0 0 0-.18-.11 27 27 0 0 1 1.09-3.15q1.12-1.42 2.3-2.78a47.42 47.42 0 0 0-2.76 5.65zm-4 23.54c-1.66-1.46-3.61-2.65-5.26-4.08-.1-.09-.25.06-.15.15 1.64 1.44 3.36 2.81 5.05 4.2a7.27 7.27 0 0 1-1.67.88 11.77 11.77 0 0 1-4.09-2.46.14.14 0 0 0-.2.2 9.48 9.48 0 0 0 3.78 2.49 11.83 11.83 0 0 1-1.31.33c-4 .75-9.43.23-11.58 3.81a5.83 5.83 0 0 1 .19-1.17q.56-.9 1.07-1.81a18.58 18.58 0 0 1 3.76-2.14 16 16 0 0 1 2.55.81c.13 0 .23-.17.1-.23a12.64 12.64 0 0 0-2.29-.78h.08c1.95-1.18 3.39-3.71 4.42-5.64a59.61 59.61 0 0 0 3.48-9.32c1.39 1.39 2.76 2.76 4 4.28a.17.17 0 0 0 .27 0v.58a22.27 22.27 0 0 1-.27 6.84c-1.14.15-2.72-1.91-3.33-2.56a21.84 21.84 0 0 0-2.74-2.75c-.11-.08-.21.1-.11.18A44.17 44.17 0 0 1 177 120c.49.49 1.38 1.41 2.21 1.41a5.9 5.9 0 0 1-1.85 2.77zm-34.87 123.24h.17v.35zM78.81 258.5c-.16-2.45-.36-4.89-.47-7.34a105.84 105.84 0 0 0 4.14 14.42c-1.2 1.57-3.2 2.71-4.87 4.15a26.77 26.77 0 0 0 1.2-11.23zm9.78-59.23c5.08-11.44 12.74-21.79 21.18-30.94 1.71-1.85 3.41-3.69 5.08-5.53q-.9 1.78-1.78 3.57c-.36.75-.7 1.5-1 2.25-5.61 5.55-12.37 10.31-15.57 17.88-2.71 6.42-3.63 13.43-5.72 20.06-2.49 7.89-5.43 15.6-7 23.75a60.1 60.1 0 0 0-.76 5.36c-.93-12.34.36-24.67 5.56-36.4zm216.59-53q-.31-.55-.67-1.07-.16-2.73-.44-5.41c.77-6.9 1.26-13.83 1.71-20.76.56-8.43 1.33-18.5-.24-27.57a1.92 1.92 0 0 0 .21-1.05c-.49-6.4-.7-14.49-4.45-20.07l.45.19c7.54 3.51 6.27 16.88 6.15 23.65-.16 9.36-.37 18.67-1 28-.5 7.88-1.67 16.11-1.72 24.14zm-78.54-77.35a18.79 18.79 0 0 0 3.47-2.18 9.23 9.23 0 0 1-1.39 1.17 8.63 8.63 0 0 1-2.08 1.01zm-47.51 33.67a.89.89 0 0 1-.22-.37l.22-.37a2.29 2.29 0 0 0 0 .74zm-56.42 57.52c-.45.56-.89 1.13-1.29 1.71a36.51 36.51 0 0 1 3.35-5.32 28.29 28.29 0 0 0-2.06 3.61zm-4.27 130.49a8.2 8.2 0 0 1-2.23-4.16 1 1 0 0 0-.8-.74c0-.24 0-.5-.06-.75a11.94 11.94 0 0 1 3.29 3.26c-.08.58-.16 1.17-.23 1.75a1.94 1.94 0 0 0 .03.63zm-12.2-25.74c1.13-6.45 1.64-13 2.53-19.49s2.5-12.76 3.81-19.13q.89-4.3 1.39-8.62c.51 20.94-4.18 41.82-6.88 62.5-.21 1.61-.42 3.23-.62 4.84-.79-6.67-1.41-13.34-.22-20.11zm182.68-55.62a1.3 1.3 0 0 0-.58.66l-.35.93c-.61 1-1.23 2.07-1.87 3.11-3.87 6.33-7.53 13.14-12.15 19.07 2-4.52 3.6-9.18 5.27-13.82 4.49-8.17 11.1-15.06 16.43-22.72-2.03 4.34-4.29 8.53-6.75 12.77zm-8.47 20a92.75 92.75 0 0 1-6.08 10.89c-2.64 4-7.46 9.85-12.59 12.77a74.61 74.61 0 0 0 6.67-9.34c.17-.26.33-.53.49-.8a59.54 59.54 0 0 0 11.51-13.51zm-51 9.13l.11.09-.13-.14zm20.36-3.2l-.24.12zm11.93 5.22c-.09.4-.19.8-.32 1.2a9.33 9.33 0 0 1-.42 1.06c-.3.47-.61.92-1 1.37-1.69 1.64-3.45 3.22-5.15 4.86-1.14.83-2.32 1.6-3.5 2.31a17.61 17.61 0 0 1 .82-1.85c2.11-3.87 5.83-6.52 9.61-8.93zm17-27.84l.29-1.21a1.2 1.2 0 0 0 .54 0zm-48.52 26.85l.32.15a4.36 4.36 0 0 1 .56 1.07c-.15-.23-.31-.46-.48-.68s-.2-.34-.34-.52zm64.38-58a2.93 2.93 0 0 0-.09-.43 86.9 86.9 0 0 0 4.71-16.67 44.51 44.51 0 0 0 1.9-6.33c.26-1.2.49-2.41.72-3.62a97.62 97.62 0 0 1-3.23 18.49 33.82 33.82 0 0 1-3.94 8.6zM149.22 32q.74-.42 1.5-.82l-1.94 1.24zm152.5 32.58c-1.24-.42-2.47-.8-3.68-1.17l-.2-.07h-.12c-5.82-1.8-11.24-3.41-16-7-2.07-3.22-4.42-6.39-6.18-9.8 6 6.58 15 9.09 22.5 13.74a20.64 20.64 0 0 1 5.71 5.12c-.68-.4-1.37-.62-2.04-.84zm-168.33-5.9a.74.74 0 0 1 .2-.08c-.17.22-.33.45-.48.68zM155 33.48a38.08 38.08 0 0 0-3 3.63l-.67.52c.87-1.19 1.72-2.37 2.58-3.46zm-2 11.79l.88-.2q-.85.66-1.66 1.36zm74.27-25a.83.83 0 0 0-.07.1q-1.84.57-3.64 1.32a1.58 1.58 0 0 0-.56-.13 20.46 20.46 0 0 0-2.05.06l2-.76c1.33-.3 2.78-.48 4.25-.62zm-53.58 21.28l.68-.34a6.92 6.92 0 0 1 .88-.08q-.82.22-1.62.48zm52.79-15.44l-.35.18v-.05zM192.95 41.9l-.36-.18c1.21-.9 2.45-1.87 3.71-2.87-.18.21-.36.41-.55.6a23.74 23.74 0 0 1-2.8 2.45zm26.89 1.23l-.69-.05c4.28-3.14 9.59-5.37 14-7.18a67.28 67.28 0 0 1 6.56-2.35 209.92 209.92 0 0 1-19.88 9.59zm38.67-7.76a1.43 1.43 0 0 0-.72-.06q.42-.45.83-.94a2 2 0 0 1-.12 1.01zM184.25 50.2l-1.82.25.56-.29c.42.01.84.02 1.26.04zm48.85 1.14a1.75 1.75 0 0 0-.49-.06c-.45 0-.91 0-1.36.07l.95-1.35a57.36 57.36 0 0 0 6.11-2.86l.79-.33a44.09 44.09 0 0 0-5.58 4.25zm.9-19.88a65.8 65.8 0 0 0-11.54 5.46 44.46 44.46 0 0 0-6.06 3.82c-2.51 1.69-5 3.44-7.4 5.2a1.81 1.81 0 0 0 .08-.29 58.73 58.73 0 0 1 20.2-13.59c2.81-.68 5.69-1.33 8.56-1.78-1.25.35-2.53.72-3.84 1.18zm-15.4-1.91l-.6.45a1.66 1.66 0 0 0-.59.35 112 112 0 0 1-16.91 12.42c1.87-2 3.79-3.92 5.78-5.76a87.69 87.69 0 0 1 12.32-7.46zm43.78 5.21l-.19.08a4.49 4.49 0 0 0-.17-1.29 6.45 6.45 0 0 0-.42-1.06h.21a18.44 18.44 0 0 1 .85 1.71zm-5.5-6.26a36.19 36.19 0 0 0-9.47-2.08c-5.45-.67-11 .23-16.33 1.58.69-.33 1.39-.64 2.09-.94 1.74-.47 3.51-.85 5.28-1.23l1.7-.37c2.44-.16 4.89-.4 7.35-.52a21 21 0 0 1 9 2.24 12.3 12.3 0 0 1 2.31 1.58q-.99-.15-1.93-.26zm-52.26 5.62l-.64.47q1-1.39 2-2.72 1.15-1 2.34-1.91a43.82 43.82 0 0 1 4.91-2.68 78.25 78.25 0 0 0-8.61 6.84zm-22.06 12.3l-.25.12a41.3 41.3 0 0 0-4.67.37 10.57 10.57 0 0 1 4.93-.48zm15.49 7.44a2.13 2.13 0 0 0-.74 1.16l-.18-.16c0-.19 0-.37-.05-.55l1.65-.93c-.22.17-.45.31-.68.49zm-5.65 3.52l-.23-.16.36-.22zM262.27 43l.14.08c-.23.47-.48 1-.75 1.52q-.52.48-1.07.94c.61-.86 1.17-1.71 1.68-2.54zm-71.61-8.11h.1zm65.13 16.46c.22-.37.45-.75.68-1.12l.76-.76a1.48 1.48 0 0 0 .95.72l-.31.35a19.62 19.62 0 0 1-2.08.8zm-69.24-28.2c-10.56 5-19.09 13.47-30.11 17.28 6.16-6.14 14.05-10.49 21.86-14.17A123.77 123.77 0 0 1 191.35 21q-2.42 1-4.8 2.13zm-35.81 19.3c-.07.34-.12.68-.16 1a1.44 1.44 0 0 0 .12.74c-2.74 3.7-5.79 7.25-8.1 11.12l.25-1.09a85.8 85.8 0 0 1 7.89-11.79zm-3.68 17.83c3.48-6.2 9.22-10.38 15.46-14.1a2 2 0 0 0 .37.55 79.48 79.48 0 0 0-15 12.77c-.31.24-.57.5-.84.76zm18.8 35.15a2 2 0 0 0 .34.36l-1.61 1.49zM184 33.1a1.87 1.87 0 0 0-.35.51l-2.46.9a85.46 85.46 0 0 1 6.81-5.32l.23-.15A57.9 57.9 0 0 0 184 33.1zm-6 1.77l-.8-.07q1.84-1.46 3.77-2.84-1.57 1.41-2.97 2.9zm-32.7 6.41l-.66.75v-.13zm-9.81 45.8l.65-.49c-.09.27-.18.55-.27.82a1.89 1.89 0 0 0-.45-.08zm10.35-18l.86-.27-.76.51zm26.65-8.65l.72-.07-.23.19-.36.16a1.86 1.86 0 0 0-.13-.24zm7.85 5.66l-.25.55c0-.13.06-.26.08-.39zm-7.69 23.76l1.35-1.64c-.39.52-.8 1-1.22 1.58zm67.42-34.55a35.12 35.12 0 0 0 4.14-2.3q1.18-.5 2.33-1.05a1.64 1.64 0 0 0 .17.55 26.93 26.93 0 0 1-6.43 2.9zM204.9 24.23l-8.9 3.54a1.85 1.85 0 0 0-.19-.25A63.43 63.43 0 0 1 208 21.33a35.68 35.68 0 0 0-3.1 2.9zM181 61.56l-.59.51v-.11zm68.3-43.86a5.34 5.34 0 0 0 .13-1l1.13.69a9.34 9.34 0 0 0-1.31.31zM130 93.49a89.08 89.08 0 0 1 2.76-3.92 71.94 71.94 0 0 1-11.22 19.26A104.37 104.37 0 0 1 130 93.49zm24.4-28a.79.79 0 0 0-.21-.4l.18-.11a2.92 2.92 0 0 0 .17.44zm7 22.44c.3-1 .61-2.08.91-3.14 3.05-4.52 5.75-9.29 8.85-13.8a33.4 33.4 0 0 1 6.14-6.7c-.08.31-.17.61-.26.91A34.2 34.2 0 0 0 168 79.87c-.68 1-1.33 1.93-1.91 2.89-1.83 3-3.89 5.94-6 8.82.5-1.2.91-2.41 1.26-3.64zm-17.24 3.52a67.62 67.62 0 0 1 5.69-14c.13-.16.24-.33.38-.49a3.27 3.27 0 0 0 .73-1.52 75.44 75.44 0 0 1 5.44-8.12 1.1 1.1 0 0 0 .82 0 4.2 4.2 0 0 0 1.29 0c-.33.37-.63.72-.88 1-3.5 4.21-6.06 9.13-8.54 14a138.24 138.24 0 0 0-5.91 12.88c.25-1.2.59-2.51.93-3.74zm10.61 20.85c-.94 1.23-1.9 2.45-2.91 3.63a62.19 62.19 0 0 1-6.34 6.38q1.11-1.83 2.16-3.69c2.26-2.15 4.63-4.25 7.03-6.31zm-5 18.07l2.54-1a86.66 86.66 0 0 1-10 7.2 34 34 0 0 1 7.41-6.19zm5.56-9.89a6.08 6.08 0 0 1-.64.86q-1.25.18-2.42.47c1.57-1.34 3.08-2.76 4.52-4.24a25 25 0 0 1-1.51 2.92zm15.25-11.68c-.22.55-.44 1.08-.68 1.6a25.87 25.87 0 0 1-7 9.69 61.8 61.8 0 0 1 7.63-11.28zm57.31-96.5l-1.22.24 1-.35zm-82.39 92.54a100.35 100.35 0 0 1 6.93-18.56c3.09-6.58 6.37-14.82 12.12-19.64a42.44 42.44 0 0 0-2.35 4.16 78.41 78.41 0 0 0-5.87 14.12c-3.49 8.53-7.28 16.89-11.34 25.2a.69.69 0 0 0-.06.22l-.57 1.06a55.23 55.23 0 0 1 1.14-6.56zm13.88 19.56c.32-.41.62-.83.89-1.26a.65.65 0 0 0 .26.19 5.18 5.18 0 0 0-1.07 1.1zm2.4-1.9a11.62 11.62 0 0 0 1.22-.5q-.6.31-1.25.61zm111.05-74.23a17.87 17.87 0 0 0 .78-2 26.11 26.11 0 0 0 .76 2.64c.49 1.38 1 3.08 1.79 4.7a23.78 23.78 0 0 1-2.4-3.23 9 9 0 0 1-.93-2.11zm23.33 25a23.75 23.75 0 0 0-2.36-1.77 6.17 6.17 0 0 1 2.37 1.74zm2.43-5.86l-.21-.19.93.31zm8.49 4.37c.16.49.31 1 .46 1.51a12.8 12.8 0 0 0-3.25-3.6 12.81 12.81 0 0 1 2.79 2.06zm-1.52-10.89l.12.19c-5.92-6.31-15-7.34-22.54-10.94a1.82 1.82 0 0 0 .27-.83 21.52 21.52 0 0 0 6.47 2.78c2.64.68 5.33 1 8 1.8 3.48 1.11 5.76 4 7.68 6.97zm-35-35.63q.4.71.79 1.43c-.25-.42-.51-.84-.78-1.26a1.19 1.19 0 0 1 .03-.2zm-5.18-6.18l-.68-.68a12.7 12.7 0 0 0 1.48 0c-.18.24-.48.45-.75.65zm-91.18-.43a1.54 1.54 0 0 0-.23.6l-.28.12-.92.26.67-.58zm.07-4.18c-4.28 2.07-8.44 4.4-12.59 6.73a81.07 81.07 0 0 1 8-5.38q3.34-1.62 6.79-3-1.08.79-2.15 1.63zm-61.11 98.86l-.06.21q-.74 2.13-1.36 4.3a95.1 95.1 0 0 1-1.41 3.79c1.29-4.84 2.85-9.62 4.29-14.3l.87-2.81c-.7 2.92-1.49 5.86-2.28 8.79zm16.29 31.83l-.84.69q.48-1.06 1-2.12c-.05.45-.09.93-.11 1.41zm-11 22l.26-.61c-.09.21-.17.41-.26.62zm-31.42 91c0 .39.05.77.08 1.16q-.18-.57-.39-1.12zm31.86-92c.18-.41.37-.83.56-1.24l.48-1 .16-.06c-.36.73-.76 1.49-1.09 2.27zM108.17 180a70.9 70.9 0 0 1-6.41 14.87c-2.3 4.14-5.19 8.59-7.58 13.23 2.09-7.07 2.83-14.63 5.76-21.41 2.2-5.09 6.21-9 10.12-12.85-.67 2.01-1.29 4.07-1.89 6.16zm-17.61 44.4a97.73 97.73 0 0 0-3.81 12.49c.19-1.87.42-3.73.71-5.55a74.29 74.29 0 0 1 2.15-9.06v.55a1.66 1.66 0 0 0 .95 1.57zm4 11.62a102.6 102.6 0 0 0-3.65 24.81c-1.33-11.16.5-22.39 3.87-33.07 1.84-5.83 4.08-11.5 6.18-17.23.93-2.55 1.65-5.2 2.36-7.85 1.55-2.6 3.11-5.2 4.56-7.86.13-.25.26-.49.38-.74l.27-.36c1-1.27 2-2.52 3-3.78-4.19 15.8-12.69 30.29-17 46.06zm18.8-48.31c.33-.42.68-.84 1-1.26.56-.73 1.09-1.51 1.6-2.33.3 8.72 2.37 17.7 3.69 25.81 1.8 11.1-.18 22.16-2.45 33-.07.33-.14.66-.21 1 .9-12.5.8-25-1.71-37.65a.86.86 0 0 0-.59-.65 103.93 103.93 0 0 0-1.09-14.93.63.63 0 0 0-.75-.52c.15-.82.32-1.65.48-2.47zm-.73 94.2l.12.06c-.07.22-.15.45-.21.67zM248 62.58q.82.09 1.64.12a1.51 1.51 0 0 0-.08.33 5 5 0 0 1-1.91-.38zm24.13-9a26.84 26.84 0 0 0 2.3 3.1c3.58 4.14 8.56 6.65 13.77 8.27a19.31 19.31 0 0 1-7.16-.5c-4.9-1.65-9.07-5.67-10-10.43a2.34 2.34 0 0 0 1.12-.48zm28.38 63l-.13 1.38c-.06-.48-.11-1-.15-1.44zm-.77 4.34v-.05zm-7.36 57.88l.05-.1zm-30.14 78.61c-.48.18-1 .37-1.43.56a14.28 14.28 0 0 1-2.39.6q.17-.54.37-1.06c6.94-1.79 13-8.86 17.11-14.07a82.62 82.62 0 0 0 7.69-11.85 51.47 51.47 0 0 1-9.39 16.19c-2.75 3.29-7.2 7.51-11.94 9.61zm35.54-70.14c-3.51 7.3-9.41 13.36-14.69 19.72 3.2-5.11 5.82-10.64 8.89-15.81 3.47-5.85 7.57-10.91 9.64-17.48a75 75 0 0 0 3-22.87c.93 5.18.09 11-.73 15.78a79.39 79.39 0 0 1-6.09 20.65zM303 51.87c-4.54-3.26-10.91-2.71-16.12-3.88a13.41 13.41 0 0 1-4.38-1.87c3.46 1.22 7.23 1.42 11.07 1.78 3.5.33 6.82 1.2 9.42 3.39.01.18.01.38.01.58zm-21.9-10.45a67 67 0 0 0 8.41-.27A15 15 0 0 1 299.6 45c-6.07-1.71-13.32.07-18.5-3.58zm12.79-4.36a2.14 2.14 0 0 0-.22.59 16.87 16.87 0 0 0-2.84-.26c-5.07-.05-9.38 2.77-14 1.31-.24-.65-.47-1.3-.69-2 3.27.57 6.23.06 9.69-.69a11.18 11.18 0 0 1 8.06 1.05zM269 22.22a4.7 4.7 0 0 0-.35.53l-.12-.15a2.66 2.66 0 0 1 .79-1h.34a5.45 5.45 0 0 0-.66.62zm.55-8.31a11.91 11.91 0 0 1 4.13.85 19 19 0 0 0-2.66.36 5.67 5.67 0 0 0-2 .86 15 15 0 0 1-5.67.64c1.31-1.83 3.95-2.74 6.23-2.71zm-82.47-4.2c.53-.29 1.05-.58 1.59-.85a1.25 1.25 0 0 0 .28-.2l.25-.07a55 55 0 0 1 15.57-2.07c.53.23 1 .47 1.56.75a73.32 73.32 0 0 0-19.22 2.44zm-40.71 19.81l-1 .62c.5-.45 1-.91 1.49-1.36-.15.22-.32.49-.49.74zm-.19 4.42h.08l-.46.28zm-14.42 14.21a1.34 1.34 0 0 0-.77.43c-2.93 3.13-5.91 6.26-8.59 9.62 2.08-4.65 7.11-8.57 10.72-11.29l.25-.18c-.56.48-1.1.96-1.61 1.42zm-4.34 15.39a38.83 38.83 0 0 0-2.36 7.17 1.53 1.53 0 0 0 0 .6c-.53 1.27-1 2.55-1.5 3.85-5.2 9.9-8.57 20.63-11.9 31.32-.7 2.23-1.41 4.48-2.11 6.74.11-1 .21-2.1.3-3.16.91-10.7 2.51-20.46 7.4-30.13a140.13 140.13 0 0 1 10.18-16.38zM92.51 170.49c.22-.59.45-1.17.67-1.75a103.55 103.55 0 0 1 9.43-14.74c3.81-5 7.75-9.83 11.11-15.15 3.77-6 6.87-12.39 10.06-18.7.45-.9.92-1.79 1.38-2.68q3.24-4.25 6.44-8.54a18.09 18.09 0 0 0 1.77-1.64c-1.4 4.08-3.06 8-4.78 12a144.3 144.3 0 0 1-16 27.41c-6.2 8.51-13.58 16.06-20.28 24.16a4 4 0 0 0 .2-.37zm45.11-51.19a34.74 34.74 0 0 0 .07 3.48q-.56.87-1.16 1.7.62-2.57 1.08-5.18zm-3.43 13a.89.89 0 0 0 .15 0c.61-.21 1.21-.45 1.82-.69a25.48 25.48 0 0 0-2.94 3.42q.49-1.37.96-2.73zm-29.42 100.17c-2.19 6.63-3.1 13.7-4.2 20.57-1.22 7.63-2.91 15.11-2.83 22.87 0 1.62.11 3.23.25 4.85a86.73 86.73 0 0 1-2.88-19.6 100.81 100.81 0 0 1 4.13-28.77c3.77-13.46 9.64-26.07 13-39.52.31 13.6-3.24 26.77-7.47 39.6zm2.3 80.09a28.59 28.59 0 0 0 5 9.19c-3-.69-4.86-1.76-5.1-5.62a24.69 24.69 0 0 1 .1-3.57zm7-3.7a26.61 26.61 0 0 1-2.36-4.77 71.38 71.38 0 0 1-.13-12c.55 6.29 3.45 12.08 7.75 17.89 3.66 4.95 8.6 8.57 12.73 13.08a16.12 16.12 0 0 1 2.05 2.78 23.69 23.69 0 0 0-5-4.62c-5.75-3.94-11.17-6.22-15.04-12.36zm2.11-14.38a48.2 48.2 0 0 0 3.69 4.7 48.32 48.32 0 0 1 7.22 10.1c.39.78.73 1.58 1 2.39-5.22-5.04-9.74-10.67-11.91-17.19zm-.75-12.12h.18c2.19-.69 3-.54 3.25 1.17a10.54 10.54 0 0 0-3.43-1.18zm11.94-67.15c-.56-9.38-4-18.67-5.73-27.9a49.33 49.33 0 0 1-.45-13.72c.4-4.33 2.06-8.18 3.59-12.13 4.23-8.42 13-13.63 20.67-18.66 3.38-2.22 8.63-5.56 11.38-9.67l.73-.7a9.63 9.63 0 0 1-.78 2.66q-.21.39-.41.79c-1.77 3-5 5.14-7.9 7a150.79 150.79 0 0 0-13.3 9.38 35.66 35.66 0 0 0-2.72 2.44 15.94 15.94 0 0 0-5.27 6.78 26.58 26.58 0 0 0-3.21 8.4l-.15.37c-3.42 8.52-1.63 17.87.43 26.57 1.27 5.34 2.72 10.62 3.81 16 1 5.06 1.51 10.37 2.7 15.44-.9 8.86-4.13 16.89-8.19 25-.47.94-1 1.87-1.46 2.81.75-3.22 1.52-6.43 2.34-9.62 2.65-10.25 4.55-20.68 3.92-31.25zm28.12-72.61a2.94 2.94 0 0 0 .11 1.43 2.47 2.47 0 0 1-.76-.29c-.2-.12-.38.19-.19.32a7.9 7.9 0 0 0 1.25.53v.34a12.38 12.38 0 0 0-1.88-.67 5.77 5.77 0 0 0 .81-1.11c.23-.15.45-.36.66-.55zm4 14.27a.16.16 0 0 0 .1.09v.14h-.07a10.93 10.93 0 0 0-.81.86c-.28.29-.55.58-.83.87a7.55 7.55 0 0 0-.91-.09c.8-.64 1.77-1.16 2.53-1.87zm-12 84.89a1.34 1.34 0 0 0-.06.16l-.14-.12.21-.06zm-1.75.57h-.27l.45-.13zm4.57-4.51c.37-.16.74-.33 1.1-.52s.12-.87-.3-.71c-.84.31-1.67.59-2.49.85 4.42-2 7.54-7.4 9.61-11.37A51.63 51.63 0 0 0 162 217c.17.78.33 1.6.46 2.43-.64 5.43-3.9 10.69-6.06 15.5a.43.43 0 0 0 0 .22l-.39.42-.84.83a40.72 40.72 0 0 1-4.8 1.42zm-7-25.41l-.08-.06-.11-.45.88.56c2.38 1.45 5.85 2.13 7.38 4.64 1.75 2.87-1 6-2.9 8.6a18.75 18.75 0 0 0-5.07-13.29zm6.18 21.34c.67-2.15.45-4.63 2-6.47 1.35-1.59 2.35-2.44 3.07-4.48 2.41-6.82-1.73-10-7.26-12.64a17.08 17.08 0 0 1-4-2.55c-3.11-2.75-2.05-6.31-1.23-9.74.61-2.55 2-5.89.75-8.42-1.46-2.92-4.35-4.79-7-6.54a11.68 11.68 0 0 1-3.29-3.31c-.26-.85-.52-1.7-.76-2.54l-.07-.24a2.18 2.18 0 0 0 .07-.36 14.53 14.53 0 0 1 .78-3.35c2.47 4.75 9.26 6.71 13.1 9.88 7.76 6.42-3.53 12 0 19a13.44 13.44 0 0 0 5.76 5.63 22.91 22.91 0 0 1 6.21 4.53 25.87 25.87 0 0 1 1.18 4.47 1.25 1.25 0 0 0 .06.17 57.14 57.14 0 0 1-2.53 7c-1.58 3.67-4 8.31-7.38 11.2a8.67 8.67 0 0 0 .64-1.24zm2.51-48.43c-2.07-5.93-8.63-7.94-13.49-10.88a8.1 8.1 0 0 1-3.4-3.72 15.31 15.31 0 0 1 6.34-2.8c2.92 3.33 6.7 6 9.73 9.16s6 7.57 4 11.91c-1.35 3-3.65 4.91-4 8.35-.28 2.58 1.38 5.3 2.74 7.45a29.1 29.1 0 0 1-3-2.14c-3.44-2.84-1.23-5.95.39-9a10 10 0 0 0 .69-8.33zm10.21 12.47l.18.43-.27-.29-.09-.11zm-11.15-25.3c-1.54-1.36-3.15-2.66-4.71-4 .28.11.56.22.84.36a14.94 14.94 0 0 1 5.38 4.86q-.74-.6-1.51-1.21zm14.63 22.86v-.37l.17.33v.08zm-7.79 5.26c-.57-2.21.05-4.68.69-6.92a29.13 29.13 0 0 0-.11 8.47 8.86 8.86 0 0 1-.57-1.55zm4.45 15.15l.11-.15a13.94 13.94 0 0 1 .13 2q-.12-.49-.25-1a.17.17 0 0 0-.19-.13c.08-.22.14-.48.21-.72zm-25.55-18.58a49.55 49.55 0 0 0-2.75-13.29 21.84 21.84 0 0 0 2.15 2c3.14 2.55 4.63 4.53 3.57 8.3-.54 1.9-1.17 3.79-1.55 5.69l-1.41-2.7zm-2.67 4.66h.29c1 2.18 1.91 4.33 2.66 6.45 2.89 8.12 3.43 16.94.28 24.42v-.06c0-1.54-.08-3.1-.2-4.67.57-8.71-.97-17.62-3.02-26.14zm2.16 32.93l.14-.09-.18.31zm32-38.12l.07.22-.25-.43v-.05zm-4.22-7.12h-.12v-.15zm-4.6-28.6a.29.29 0 0 0-.31.24c0 .2-.06.4-.08.59v-.7l.07-.5a.25.25 0 0 0 0-.13.64.64 0 0 0 .38-.08c-.04.18-.04.38-.04.57zm-.85-.51v.24a.31.31 0 0 0-.11.09 4.76 4.76 0 0 0-.2-.39h.39s-.06.04-.06.05zm.87-1a5.53 5.53 0 0 0-1.3-.45l.79-.66a6 6 0 0 0 .57-.54l-.04 1.6zm-5 1.47l-.16-.13.18.09zm-12.65 82.58zm-.19 1.29a.45.45 0 0 0 .07.2v.3h-.13l-.2-.46zm3.94-91.42v-.07l.07.17zm-5.51 92l.3-.2.49-.13.17.4-1 .07s.03-.19.03-.22zm19.45-78.58h.13v.69c-.02-.33-.08-.55-.14-.78zm-.06-10.26a22.74 22.74 0 0 0-2.8 2.29 6.62 6.62 0 0 0-.83-.37 13.54 13.54 0 0 0 3.63-2.52c-.03.1-.02.33-.02.51zm-12.25-1.85a17.68 17.68 0 0 1-1.12-2.1l.07-.13a11.23 11.23 0 0 0 1.19 2.3zm6.66-10.12c.71.31 1.37.74 2.08 1v.38a7.76 7.76 0 0 0-3-.67 5.46 5.46 0 0 0 .9-.8zm25.66-31.09a28.53 28.53 0 0 0-4.16-4.35c.23-.67.47-1.33.73-2l1.11-1.93a6.62 6.62 0 0 0 2.09 2.12.2.2 0 0 0 .24-.31 12.18 12.18 0 0 1-2.09-2.23q.61-1 1.23-2.06a2.86 2.86 0 0 0 .36.42.16.16 0 0 0 .2 0 2.89 2.89 0 0 0 .82 1.27 36.68 36.68 0 0 0-.55 8.98zm.66-9.66a3 3 0 0 1-.63-2.13.19.19 0 0 0-.12-.19q.73-1.19 1.49-2.37c-.18.63-.34 1.25-.48 1.88a.54.54 0 0 1-.23-.17c-.16-.16-.4.09-.25.24s.58.52.92.22q-.44 1.17-.72 2.43zM203 77a4.17 4.17 0 0 0 1 1.26 14.37 14.37 0 0 0-3.25.72zm1.85 1.2a4.06 4.06 0 0 1-1.5-1.51l1.65-1.52a15.83 15.83 0 0 0 1 3.08h-.61zm1.82 0a18.71 18.71 0 0 1-1.43-3.2c.22-.09.44-.2.66-.3q.77-.31 1.56-.58c.62 1.67 1.07 3.59 2.58 4.61a27.34 27.34 0 0 0-3.41-.45zm3.83.39c-1.41-1.29-1.94-3-2.65-4.64A25.13 25.13 0 0 1 213 73c.45 0 .9-.06 1.35-.08 1.54 2.33 2 5.16 3.6 7.45-2.51-.28-5-1-7.44-1.48a.14.14 0 0 0-.06-.22zm18.38-4.41l-.14-.17a5 5 0 0 1-.91-1.61 9 9 0 0 0 2.54-1c-.52 1.02-1.01 1.96-1.53 2.86zm41.09-12a10.62 10.62 0 0 0-3.41 2.08 19.45 19.45 0 0 1-.41-2.7c.82-.5 1.67-.94 2.53-1.37a16.6 16.6 0 0 0 1.25 2.04zm.27.35q.62.79 1.33 1.52a9.25 9.25 0 0 0-4.09 3.27 21.67 21.67 0 0 1-.86-2.75 13.21 13.21 0 0 1 3.58-1.99zm1.68 1.88c.45.45.92.88 1.41 1.29a14 14 0 0 0-4.53 4.4 20.13 20.13 0 0 1-1.17-2.42 10.77 10.77 0 0 1 4.26-3.21zm7.84 5.29c.37.16.73.31 1.1.45a9.36 9.36 0 0 0 1.37.4 79.18 79.18 0 0 1-5.88 5.32c-.11.08 0 .27.11.19a79.15 79.15 0 0 0 6.38-5.39 29.38 29.38 0 0 0 5.6.1l1.79.95a.22.22 0 0 0 .09.14c.18.13.35.28.53.41-3.79.23-7.18 3-10.89 3.88a8.37 8.37 0 0 1-6.62-1.08c2.17-1.66 4.14-3.65 6.39-5.31zm20.5 17.36c0 .22-.05.45-.07.68a47.85 47.85 0 0 0-1.21-5 35.78 35.78 0 0 1 1.24 4.37zm-1.12 2.59a21.16 21.16 0 0 1-2.64.24 12.71 12.71 0 0 1-.74-3.08l2.89.08q.25 1.43.46 2.81zm.06.44c.18 1.28.33 2.56.44 3.79 0 .38.05.75.08 1.13a7 7 0 0 0-1.63-2.56 8.28 8.28 0 0 1-1.42-2.18 21.21 21.21 0 0 0 2.5-.13zm.58 32.84a4 4 0 0 0 .2.47v.55a2.12 2.12 0 0 0-.23.56v.15c-.05-.53-.02-1.1 0-1.66zm-2.22 19.24c0 1.53.06 3.05.17 4.57a2 2 0 0 0-.44.33v-.47c.05-1.43.13-2.91.23-4.38zm-.44 7.74l.1.12-.18 1q.01-.51.05-1.03zm-17 44.45l-.2.15q.92-1.67 1.83-3.35c-.59 1.13-1.12 2.2-1.69 3.24zm-12.19 19.49a16.53 16.53 0 0 1-2.64 2.92q2.29-2.82 4.42-5.76c-.63.99-1.22 1.99-1.84 2.88zm-39.53 22.9l-.12-.23q1.25.4 2.54.71a16.2 16.2 0 0 1-2.48-.44zm-.85-.35l-.13-.17.18.06a.3.3 0 0 0-.11.15zm-.62-.14a12.92 12.92 0 0 1-1.8-.89q1 .41 2 .77a.38.38 0 0 0-.25.16zm9.31 22zm22.72 4.44c1.36-1.68 4.13-2.42 5.87-3.38a1.21 1.21 0 0 0 .53-.58 41.3 41.3 0 0 0 9.69-7.31 49.07 49.07 0 0 0 6.61-8 32.47 32.47 0 0 1-1.71 3.21 36 36 0 0 1-8.15 9c-2.64 2.18-6.82 5.61-11.1 7.55zm46.4-82.13c-.56 1.37-1.15 2.72-1.75 4.07a.75.75 0 0 0-.61-.64 1 1 0 0 0-.52-.63v-.14c2.51-7.56 6.06-18.63 5.21-28.09a1.44 1.44 0 0 0 .17-.52c.32-2.46.55-4.95.74-7.45a172.19 172.19 0 0 1-.27 19.71 54.79 54.79 0 0 1-2.12 11.22q-.4 1.27-.9 2.49zm6-35.05a52 52 0 0 1 .38 8 1.38 1.38 0 0 0 .78 1.3 53.4 53.4 0 0 1-.81 5.91c.09-5.03-.1-10.11-.4-15.19zm-33.65-109.9c2.07-1 3-3.42 5.45-4.37a7.36 7.36 0 0 1 7.08 1.19c-4.24.15-8.3 2.75-12.53 3.18zm-2.84-9.05c-.15-.25-.29-.5-.44-.75 1.32.2 2.39-1.66 1-2.35l-.43-.2a18.29 18.29 0 0 1 3.47.32 15.68 15.68 0 0 0-3.6 2.98zm-9.94-14.14a10 10 0 0 0-3.38 3.11l-.79-.61c.63-.73 1.24-1.45 1.9-2.09a15 15 0 0 1 2.27-.41zm-5.26 1.69l-.15-.1.33-.17zm-1.87-1.52l-.21.16-.25-.15h.15a.5.5 0 0 0 .31-.01zm-36.35-6.38c.85.08 1.69.21 2.52.35q1.5.55 3 1.21l-1.81-.12q-1.93-.78-3.91-1.46zm-7.71 1.41l-.2-.15h-.07l.82.17zm-75.42 29.5l.87-.9a14.61 14.61 0 0 0-1.42 3.06 1.82 1.82 0 0 0-.1.59 99.912 99.912 0 0 0-5.51 4.31q2.97-3.63 6.16-7.06zm-16.38 28.22q-2 2.85-3.82 5.79.56-1.54 1.1-3.09a28.62 28.62 0 0 1 2.72-2.7zm-34.7 121.2a162.27 162.27 0 0 1 10.88-14.47c7-8.34 14.39-16.34 20.69-25.27a126.61 126.61 0 0 0 14.54-27.14 94.77 94.77 0 0 0 3.25-10c-1.93 15.65-9.25 29.48-16.59 43.25-5.16 5.44-11 10.38-16.16 15.58a106 106 0 0 0-21.37 30.73q.76-3.43 1.66-6.81a43.8 43.8 0 0 1 3.1-5.87zM73.46 252.3c.38 3.41 1.25 7.19 1.6 10.93-1.63-3.49-3.84-6.89-5-10.42-1.62-4.9 1.06-8.29 3.9-11.9-1.11 3.68-.85 8.18-.5 11.39zm-5 22.54a22.84 22.84 0 0 1 2.6 0c-1.29.26-2.6.46-3.91.61.42-.17.85-.38 1.29-.61zm45.54 52a2.07 2.07 0 0 0 1.5-1.19q.85.92 1.73 1.83a42.5 42.5 0 0 0-5.2.42c-5.63.79-8.58-2.73-10-7.24 1.75 4.56 5.78 7.34 11.97 6.21zm12.36 1.82a24.52 24.52 0 0 0-3.44-4.56 29.6 29.6 0 0 1 6.88 5.9 23.55 23.55 0 0 0-3.46-1.31zm14.24-82.6a.4.4 0 0 0 .06.08l-.31-.1zm3.74 2.29a3.16 3.16 0 0 0 .38.31c0 .27 0 .55.06.83s0 .35 0 .53c-.09-.28-.2-.55-.29-.84a5.06 5.06 0 0 1-.18-.81zm1 3.29zm1.56 2a7.54 7.54 0 0 0 2.27 3.31 7.51 7.51 0 0 0-1.22.69q-.53-1.2-1.07-2.4c0-.48.01-1.01.03-1.54zm.59-.9c.85-.92 1.78-2 3.07-2a30.15 30.15 0 0 0-.29 5.58 7.19 7.19 0 0 1-2.77-3.51zm-.09-.34a7.57 7.57 0 0 1-.22-2c.06-.39.13-.77.22-1.15a17 17 0 0 0 2.12-3.55v.07a3.73 3.73 0 0 0 .51 4.32c-1.03.16-1.94 1.41-2.62 2.38zm2.59-6.28l.21.05a10.12 10.12 0 0 0-.22 1.69 3.49 3.49 0 0 1 .02-1.67zm20.45-31.29h.23l-.33.26zm12.5-4.28l.2.15h-.2a1 1 0 0 0 0-.07zm40.64 24.14l1 .44a.22.22 0 0 0-.14.27l-.23-.13zm13.09 27v-.09zm23 4.38l.86.24a22.68 22.68 0 0 1-3.83.55 19.47 19.47 0 0 0 3.02-.68zm15.8-2.41zm-2.38-2.52a43.6 43.6 0 0 1-6.59 3.27l-2.1-.43a56.78 56.78 0 0 0 6.06-3.71 51 51 0 0 0 11.54-11.1c-1.82 4.88-4.49 9.32-8.87 12.08zm13.64-16.36a13.19 13.19 0 0 1-1 4.83 1.3 1.3 0 0 0-.5.91 6.48 6.48 0 0 1-.68.89 48.45 48.45 0 0 0 2.22-6.52zm1.9-25q.65-2 1.14-3.95a89.52 89.52 0 0 1 5.53-9.41 1.13 1.13 0 0 0 .6-.53q.73-1.37 1.48-2.72c.68-1.08 1.34-2.17 2-3.25 1.38-2.43 2.67-4.93 3.89-7.45a84.88 84.88 0 0 0 5.6-12.95l.07-.18a81.47 81.47 0 0 1-6.8 18.24c-4.01 7.68-10.05 14.42-13.46 22.3zm23.82-102.76c.06-.52.12-1 .2-1.58 0 1.19 0 2.37.05 3.56-.04-.56-.13-1.22-.21-1.88zm-15-82.06q-.25-.52-.55-1l.72 1.13zm-.8-1.41v.07zm-7.73-5.93a1.7 1.7 0 0 0-.19-.73 10.89 10.89 0 0 1 1.64 1.25 11.9 11.9 0 0 0-1.45-.43zm-1.48-1.44a26.36 26.36 0 0 0-4.46.79 29.65 29.65 0 0 0-6.41 1.66l-.23-.23a11.17 11.17 0 0 1 6.49-3.11 7.46 7.46 0 0 1 1.84 0l.72.28a1.37 1.37 0 0 0 .79.08 10.86 10.86 0 0 1 1.26.48zM262.59 10c-.42.13-.83.29-1.25.46a.81.81 0 0 0-.85-.29c-.83.26-1.66.51-2.49.75v-.11a.37.37 0 0 0-.09-.19 54.64 54.64 0 0 1 5.38-1.18 6 6 0 0 0-.7.56zm-6.38 1.16a.69.69 0 0 0 0-.1h.1zm-.7.32a.56.56 0 0 0 .37 0l-.19.19-.6-.29h.06zm-40.6-7.29l.36.22q-1.28-.3-2.56-.53c.75.12 1.49.22 2.21.34zM100.91 315c0-.35-.06-.71-.08-1.06a.85.85 0 0 0 0-.11l.12.29c-.04.25-.05.55-.04.88zm34.17 33.65l.3.14-.33 1.71c.02-.65.02-1.27.02-1.89zM149 260.14c.7-.57 1.51-1 2.21-1.61l.87.58a11.48 11.48 0 0 0-2.13 3.5q-.49-1.25-.95-2.47zm2.38-4.68c-.44.33-.46-3.15-.46-4.57h.1a.27.27 0 0 0 .32-.2q1.73 1.58 3.51 3.07a8.45 8.45 0 0 0-3.5 1.7zm15.76 10.32v1.56q-2.17-1.66-4.42-3.21c2.02-1.51 4.2-1.05 4.39 1.65zm.75 0a9.77 9.77 0 0 0-.21-2.18l3.09 2.27 1.15.87a5.46 5.46 0 0 0-2 .51c-2.12.75-2.02.51-2.06-1.47zm17.51 11.41q2 1.47 4.06 2.85c-1.38.42-2.73.92-4.1 1.42a31.06 31.06 0 0 1 .01-4.27zm14 6a4.92 4.92 0 0 1 1-.27l.43.9zm-21.68-12c-1.07-.43-3.2.61-4.27 1-.26-1.54-.28-3.1-.4-4.66q2.27 1.85 4.6 3.7zm-17.23-13l-1.6.2c-2.78.38-2.61-1.52-2.7-3.6q2.05 1.78 4.23 3.44zm71.41-10.52c.06.16.13.33.21.5a19.82 19.82 0 0 0 .47 3.44 10.25 10.25 0 0 1-.56-3 .19.19 0 0 0-.17-.2c-.06-.21-.04-.41-.02-.7zm3.7 20.23c0 .08.05.16.08.24a1 1 0 0 0-.21.1zm1.66 4.51c.19.4.39.8.59 1.2a.81.81 0 0 0-.2.16 9.74 9.74 0 0 1-.65-1.26.84.84 0 0 0 .18-.06zm44.44-3a8 8 0 0 1 2.54 1.26l.22.25a27.1 27.1 0 0 0-3.29-1.62zm6.49-32.41zm-.11-214.19a1.8 1.8 0 0 0-.08-1c.44.52.89 1 1.32 1.56-.43-.21-.84-.37-1.24-.56zm-6-7a7.14 7.14 0 0 0-1.71-.61l-.1-.12a12.32 12.32 0 0 0-1.86-1.46 1.34 1.34 0 0 0 0-.63 42.81 42.81 0 0 1 3.71 2.86zM127.76 39.13a126.12 126.12 0 0 1 29.44-23.78C146 23 136.29 33 127.42 43.15c-6.42 7.35-13.07 15.51-16.86 24.66 3.33-10.7 9.61-20.49 17.2-28.68zM108 81.92a.29.29 0 0 0 0-.12c1.81-11.63 9.13-22 16.76-31a102 102 0 0 0-9.6 16.66A51 51 0 0 0 108 84.3v-2.38zM45.59 276.3a.87.87 0 0 0 0 .5c-1.27 0-2.49.12-3.68.25q1.81-.43 3.68-.75zm55.09 37.15l-.06-.08v-.06zm94.8 73.42a.61.61 0 0 0 0-.65 15 15 0 0 1-.86-1.93l.3.41c.26.64.6 1.27.86 1.82a19.06 19.06 0 0 0 1.16 2.09 19.78 19.78 0 0 1-1.47-1.73zm-1.09-3.69a.46.46 0 0 0 .15-.12 3.54 3.54 0 0 0 .05.39zm-43.53-117.93q-.42-1.19-.85-2.38a13.17 13.17 0 0 1 2.38-3.55q1.14.72 2.31 1.4a17.38 17.38 0 0 0-3.84 4.53zm5.41-5.23c.82-.34 5.11-2.08 5.32-.16.14 1.22.14 2.45.26 3.68-.95-.64-1.9-1.27-2.86-1.88s-1.8-1.1-2.71-1.66zm12.26 8.4c1.73-.5 3.74-1.28 3.83 1.11 0 .74.08 1.44.16 2.13q-1.96-1.66-3.99-3.24zm5.24 4.3c2-.36 4.55-1.19 3.84 2.72a2.74 2.74 0 0 0 0 .64l-1.8-1.6-2.04-1.76zm11.36 9.62c2.09-.91 6.05-2.84 5.44.06a11.27 11.27 0 0 0-.46 3.21 49.62 49.62 0 0 1-4.98-3.27zm8.75 5.18c-.56-.24-1.11-.52-1.66-.79a20.55 20.55 0 0 0 3.5-.42c.47-.09 3.59-1.42 3.37.21a12.69 12.69 0 0 0 0 2.85c-1.76-.66-3.6-1.16-5.21-1.85zm8.06 3.23l2.52-.66c3.72-1 2.65 2.11 2 4.32a42.35 42.35 0 0 0-4.06-3.41c-.15-.06-.31-.15-.46-.25zm7.93 7a.48.48 0 0 0-.17-.37c-.54-.48-1.08-1-1.61-1.46 1.7-.23 3.4-.43 5.09-.7 1.45-.23-.14 4.14-.5 5.23a32.31 32.31 0 0 1-2.81-2.7zm10.63 8.68c1.33-.14 3.61-.41 3.67.5a11.71 11.71 0 0 1-.16 2.33 56.21 56.21 0 0 0-3.51-2.82zm5 4.16c-.17-.17-.36-.32-.54-.49 1-.14 1.91-.31 2.88-.52 3.15-.68 1.77 2.29 1.26 4.49-1.23-1.16-2.44-2.31-3.63-3.47zm4.64 4.49c1.15-.32 2.29-.65 3.44-1 1.3-.35 1 3.58.75 5.19-1.33-1.4-2.79-2.8-4.21-4.19zm5.2 5.35c1.16-.33 2.27-.73 3.41-1.14 1.64-.59.46 3.77 0 5.33a53.58 53.58 0 0 0-3.43-4.19zm4.09 5.12c3-1.54 6.56-3.17 4.48 1.47-.5 1.11-1 2.17-1.4 3.29q-1.45-2.39-3-4.69zm7.34 9.4c-.45-1.25-.9-2.5-1.37-3.73-.06-.17-.32-.1-.27.08.44 1.51.91 3 1.41 4.48q-.15.54-.27 1.09l-.16-.06q-1.42-2.79-3-5.47c1-.45 4.46-2 4.5.15a10.57 10.57 0 0 1-.63 2.79zm8.27 9.49a.62.62 0 0 1 .27.69 7.59 7.59 0 0 1-1.41 2.76 33.65 33.65 0 0 1-2.79-3.43 12.18 12.18 0 0 1 3.31-.23v.09a.32.32 0 0 0 .58.12zm0 17.3c.46-1.11.88-2.23 1.39-3.32.44-.94 1-1.8 1.53-2.68a.6.6 0 0 0 .47-.32c.2.5.41 1 .64 1.47a46.84 46.84 0 0 0-3.73 6.3c-.18-.49-.27-.97-.34-1.45zm-2.07-7.94a19.66 19.66 0 0 1 1-1.78 3.44 3.44 0 0 1 .88-.93l.19-.1a6.62 6.62 0 0 1 .66 1.68 12 12 0 0 0-1.07 1.41c-.4.57-.75 1.16-1.09 1.76-.24-.67-.43-1.36-.64-2.04zm-.84-2.64l.4-.33.11-.08a.32.32 0 0 0 .63.1 8 8 0 0 1 .81-1.43c.25.35.48.7.68 1a3.23 3.23 0 0 0-.88.86 9.27 9.27 0 0 0-1.05 2.06c-.29-.71-.52-1.44-.76-2.18zm1.34-2.57a6.37 6.37 0 0 0-.68 1.38l-.33.3c-.16.15-.32.31-.47.48-.2-.61-.41-1.21-.62-1.81.32-.16.65-.3 1-.47s.48-.29.73-.41zm.31 7.55a20.81 20.81 0 0 1 1.31-1.72c.22-.27.47-.54.71-.83v.23a.61.61 0 0 0 .27.67l.14.08-.21.43c-.45.86-.89 1.73-1.36 2.58a.18.18 0 0 0 .31.18c.43-.75.86-1.51 1.31-2.25.13-.21.28-.43.43-.65a7.22 7.22 0 0 1 .64.56 16.2 16.2 0 0 0-2.53 5.58q-.54-2.41-1.2-4.8a.16.16 0 0 0 .12-.06zm5.31-7.28a3.44 3.44 0 0 1-.26 1.24l-.14-.21c-.15-.2-.48 0-.35.2a3.28 3.28 0 0 1 .3.64.27.27 0 0 0 .06.2c.36 1.4-.7 2.3-.58 3.53q-.33-.56-.61-1.13a.16.16 0 0 0-.1-.21 16.38 16.38 0 0 0-2.36-4l-.07-.08a8.93 8.93 0 0 0 4.02-.18zm-7.74-2.86c-.21.25-.4.51-.6.76a.29.29 0 0 0 .4.4 3.68 3.68 0 0 0 .6-.65l.91 1.14a4 4 0 0 0-.45.24 9.1 9.1 0 0 0-1 .75q-.71-2-1.51-3.94l.63-.1c.3.4.67.89 1.02 1.4zm-1.65-2.13l.06-.11.06.09zm0-1.69c-.7-1.37-1.32-2.8-1.89-4.25.76.2 1.53.33 2.29.45 1.45.19.57 2.13-.36 3.76zm-.43.73l-.23.38q-1.14-2.7-2.44-5.32l.13-.36.42.14c.68 1.7 1.38 3.42 2.16 5.12zm-2.36-5.77zm8.32 27.69a.44.44 0 0 0 .23-.48c0-.21-.09-.42-.13-.63 1.56-1.75 2.57-4 3.86-6 0 .68.1 1.35.2 2a27.45 27.45 0 0 0-3.59 6.86 6.67 6.67 0 0 1-.46-1.65.24.24 0 0 0-.07-.14zm11 7.43A6.31 6.31 0 0 0 264 372s-2.14.34-2 .06c.55-1 1.17-1.92 1.7-2.91.89 1.02 1.8 1.98 2.6 3.07zM256 366.88a58.39 58.39 0 0 1 3.62-6.32 18.23 18.23 0 0 0 3.11 7.24c-2.1-.14-4.21-.06-6.31-.18a6.83 6.83 0 0 1-.42-.74zm.74 1.21a34.86 34.86 0 0 0 4.47.3c3 .06.8 2.29-.16 3.7-1.48-1.39-3.18-2.46-4.35-4zm9.36 15.12c-.56-1.36-1-2.77-1.4-4.18l2.76-.49a42.32 42.32 0 0 0-1.4 4.67zm.35-9.28a26.31 26.31 0 0 0-2.23 3.59 17 17 0 0 0-1.56-3.49 8.64 8.64 0 0 0-.72-1c1.55-.03 5.2-.12 4.46.89zm1.25-15.64c-1.54-.89-3.59-.25-5-1.43s-1.53-3.48-2.15-5.07c-.1-.25-.5-.15-.41.11.6 1.73.7 3.74 1.93 5.18a4.24 4.24 0 0 0 2.63 1.22 4.83 4.83 0 0 0 .89 3.85c.24.34.8 0 .56-.33a5.57 5.57 0 0 1-1-3.46 13 13 0 0 1 2.54.51.21.21 0 0 0 .14 0 9.5 9.5 0 0 1 .06 1c0 3-2.12 3.39-4.23 1.44a22.06 22.06 0 0 1-4.07-6.19c-.5-1-.07-2.19 0-3.22a1.58 1.58 0 0 0 0-.22.61.61 0 0 0 .61-.08c4.12-3.19 6.8 2.69 7.46 6.68zm-6.14-9.67a2.94 2.94 0 0 0 .2.45 5.31 5.31 0 0 0-2.27 1.06 3.38 3.38 0 0 0 .19-1.76.32.32 0 0 0-.4-.22 12 12 0 0 1-4.66.44 8 8 0 0 0 1.69-3.66c1.5 1.25 3.15 2.35 4.54 3.63a.6.6 0 0 0 .66.05zm-7.13-5.51a16.65 16.65 0 0 0-3.8.56c-.14-.23-.28-.48-.42-.73a15.82 15.82 0 0 0 1.65-4.44 24.54 24.54 0 0 0 1.39 3 10 10 0 0 0 1.13 1.6zm-2.88-5.39a17.63 17.63 0 0 1-3.88-.42l-.36-1c.85-2.19 1.83-4.79.85-6.46-.38-.64-1.54-.64-2.14-.51-2.28.52-2.37.5-1.25-1.85a15.51 15.51 0 0 0 .81-2 23.55 23.55 0 0 1 2.89 4.23 70.77 70.77 0 0 1 3.03 8zm-8.17-14.64a6.55 6.55 0 0 0-2 .5c-1.88.81-1.36.42-.9-1.51a6.76 6.76 0 0 0 .18-1.77c.85.92 1.77 1.83 2.68 2.77zm-10.9-50.58a9.45 9.45 0 0 0 2.24 6c5.27 7-.59 11.64-1.32 18.68-.5 4.84-.68 10 1.29 14.5a.61.61 0 0 0-.09-.15c-1.29-1.47-2.59-3-3.91-4.5.47-5.06-.44-10.12.64-15.14.72-3.35 2.89-5.83 2.2-9.38-.33-1.69-1.52-3.31-2.38-4.74-1.7-2.84-1.67-5.83-.93-8.91.88-3.7 2.05-6.82 1.64-10.68a.11.11 0 0 0-.23 0 21 21 0 0 1-.44 3.29c.15-3.42.25-6.84.43-10.25.72 5.13 4.33 9.59 3.06 15-.52 2.1-2.25 3.97-2.2 6.28zm15.31-5.3s0 .08.08.12l.11.11-.3-.13zm36.89 1a11.26 11.26 0 0 0-2.42-1 4.49 4.49 0 0 1 2.42.97z" fill="#7c1531"/><path class="cls-1" d="M188.38 316.12a.08.08 0 0 0 0 .17c12.79.28 25 5 37.78 5.25.34 0 .33-.5 0-.53-12.67-1.08-25.03-4.77-37.78-4.89z" fill="#7c1531"/><path class="cls-1" d="M246 320.82a25 25 0 0 0 13.93-4 .22.22 0 0 0-.22-.38c-4.22 2.27-8.86 4.09-13.71 4.33v.05z" fill="#7c1531"/><path class="cls-1" d="M185.46 215c-5 .44-9.23 3.75-13 6.84-.09.07 0 .19.12.12 3.78-3 7.91-6.06 12.84-6.67.22-.01.23-.29.04-.29z" fill="#7c1531"/><path class="cls-1" d="M183.27 218.7c-1.93.61-3.62 1.8-5.52 2.5-.12 0-.07.23.05.19 1.91-.64 3.66-1.68 5.54-2.41.18-.06.12-.34-.07-.28z" fill="#7c1531"/><path class="cls-1" d="M184.49 220.51a10.58 10.58 0 0 0-4 1.9c-.14.11 0 .35.14.25a13.63 13.63 0 0 1 4-1.79.18.18 0 0 0-.14-.36z" fill="#7c1531"/><path class="cls-1" d="M229.89 243.29c.16.22.53 0 .37-.22a24.79 24.79 0 0 0-6.12-6.44c-.12-.08-.23.11-.11.19a29.33 29.33 0 0 1 5.86 6.47z" fill="#7c1531"/><path class="cls-1" d="M214.25 231.62a10.44 10.44 0 0 0-1.87-2.54.06.06 0 0 0-.09.09 10.33 10.33 0 0 1 1.82 2.53c.05.1.19.02.14-.08z" fill="#7c1531"/><path class="cls-1" d="M224.68 248.11c.11.13.29-.06.18-.18a118.43 118.43 0 0 0-14.79-15.62c-.07-.06-.17 0-.1.1 5.53 4.59 10.03 10.21 14.71 15.7z" fill="#7c1531"/><path class="cls-1" d="M225.37 254.33c.13.12.32-.07.19-.19-5-4.7-9.49-9.85-14.33-14.7a.07.07 0 0 0-.1.1c4.8 4.89 9.15 10.21 14.24 14.79z" fill="#7c1531"/><path class="cls-1" d="M222.64 257.58c.12.09.26-.1.16-.21a21 21 0 0 0-5.37-4.55v.06c1.94 1.32 3.32 3.28 5.21 4.7z" fill="#7c1531"/><path class="cls-1" d="M223 261.54a12.42 12.42 0 0 0-2.54-3 .15.15 0 0 0-.22.22 27.16 27.16 0 0 1 2.53 3 .13.13 0 0 0 .23-.22z" fill="#7c1531"/><path class="cls-1" d="M221.91 265.22c-.09-.17-.34 0-.26.15a5.63 5.63 0 0 0 .94 1.42c.14.15.37-.08.23-.22a5.35 5.35 0 0 1-.91-1.35z" fill="#7c1531"/><path class="cls-1" d="M131.6 265.8a15.56 15.56 0 0 0-.36 1.87c0 .22.33.21.33 0a14.42 14.42 0 0 0 .25-1.84c-.01-.11-.2-.16-.22-.03z" fill="#7c1531"/><path class="cls-1" d="M140.41 255.5a.42.42 0 0 0-.76-.32c-2.19 4.17-2.92 8.45-7.71 10.5-.18.08 0 .39.13.32 4.52-1.75 6.93-6.08 8.34-10.5z" fill="#7c1531"/><path class="cls-1" d="M140.32 261.05a62.52 62.52 0 0 1-5.12 7 .29.29 0 0 0 .41.41 30.69 30.69 0 0 0 5.32-7.09.35.35 0 0 0-.61-.32z" fill="#7c1531"/><path class="cls-1" d="M140.08 265.83a2 2 0 0 1-.55 1.07c-.2.21.12.54.32.32a2.41 2.41 0 0 0 .68-1.39c.03-.29-.42-.29-.45 0z" fill="#7c1531"/><path class="cls-1" d="M141.56 253.64a22.47 22.47 0 0 0 .69-4.39c0-.46-.64-.51-.77-.1-.46 1.36-.26 2.91-.56 4.32-.1.41.53.59.64.17z" fill="#7c1531"/><path class="cls-1" d="M141.23 260.48a17.35 17.35 0 0 0 2.12-3.79c.12-.3-.35-.48-.51-.22-.74 1.22-1.36 2.5-2.21 3.65-.28.37.37.73.6.36z" fill="#7c1531"/><path class="cls-1" d="M143.38 264.22a.23.23 0 0 0 0-.46.23.23 0 0 0 0 .46z" fill="#7c1531"/><path class="cls-1" d="M142.22 271.27l1-1.83c.28-.53-.54-1-.8-.47l-.89 1.86c-.29.51.47.94.69.44z" fill="#7c1531"/><path class="cls-1" d="M242.44 269.24c.34.05.49-.45.14-.52a5.73 5.73 0 0 0-3.6.59c-.16.07 0 .32.12.28a7.55 7.55 0 0 1 3.34-.35z" fill="#7c1531"/><path class="cls-1" d="M240.5 271.95c1.36-.25 2.82-1 4.19-.44a.26.26 0 1 0 .2-.47c-1.52-.63-3 .2-4.5.51-.27.05-.16.45.11.4z" fill="#7c1531"/><path class="cls-1" d="M244.3 274a4.93 4.93 0 0 1 1.74-.83c.33-.12.2-.64-.15-.53a4.73 4.73 0 0 0-1.94 1c-.22.23.12.56.35.36z" fill="#7c1531"/><path class="cls-1" d="M246.66 276.27a.32.32 0 0 0 0 .64.32.32 0 0 0 0-.64z" fill="#7c1531"/><path class="cls-1" d="M287.65 387c-3.33-.46-4.26-5.75-7.51-6.66-2.61-.73-7.75 1.32-9.5-.63-.11-.12-.32 0-.23.18 1.55 2.49 4.82 1.45 7.32 1.43 4.26 0 4.54 4.18 7.2 6.05 1.94 1.36 3.5 1.22 5.75 1.6 6.16 1 .35 13.49-1.17 15.92-3 4.75-8.17 9.29-14.06 9-.88 0-.86 1.28 0 1.35 10.39.89 18.57-10.92 19.39-20.19a9.53 9.53 0 0 0-1.72-6.44c-1.22-1.76-3.7-1.4-5.47-1.61z" fill="#7c1531"/><path class="cls-1" d="M169.18 123.7a5.31 5.31 0 0 0 3.3 1.66c.16 0 .16-.24 0-.24a5.14 5.14 0 0 1-3.15-1.57c-.09-.1-.25.06-.15.15z" fill="#7c1531"/><path class="cls-1" d="M179.33 117.06c.12.08.27-.11.16-.2-1.58-1.36-3.14-2.67-4.62-4.14a.12.12 0 0 0-.17.17 31.75 31.75 0 0 0 4.63 4.17z" fill="#7c1531"/><path class="cls-1" d="M176.57 107.17c-.15-.2-.48 0-.33.2.43.59.82 1.2 1.21 1.82a5.18 5.18 0 0 0 1.19 1.66.14.14 0 0 0 .2-.15 7.24 7.24 0 0 0-1.06-1.7c-.39-.62-.78-1.24-1.21-1.83z" fill="#7c1531"/><path class="cls-1" d="M214.27 78.59a.13.13 0 0 0 .16-.21 20.7 20.7 0 0 1-1.72-1.8 9 9 0 0 1-1.29-2.46c-.07-.2-.39-.11-.32.09a8.21 8.21 0 0 0 3.17 4.38z" fill="#7c1531"/><path class="cls-1" d="M177.77 170.61a74.74 74.74 0 0 1-1.8-11.05c-.36-3.36 0-7.22-1-10.46-.3-1.06-3-2.49-2.84-3.3a38 38 0 0 1 2.31-6.33c.43-1.1-.55-3.52-.95-4.59-.76-2.07-2.8-3.26-4.62-4.25-.08 0-.15.07-.07.12 2.64 1.47 6.66 5.45 5.21 9a35.94 35.94 0 0 0-2.27 6.21.17.17 0 0 0 0 .17c3.68 3 3.33 7.68 3.72 12.06a92.58 92.58 0 0 0 1.66 11.27c1.72 8 5.66 15.06 10.62 21.48.09.11.29 0 .2-.15a57 57 0 0 1-10.17-20.18z" fill="#7c1531"/><path class="cls-1" d="M194 198.26c0 1.07.54 2 .6 3.07 0 .11.17.11.17 0-.05-1-.59-2-.63-3.07a.07.07 0 0 0-.14 0z" fill="#7c1531"/><path class="cls-1" d="M282 75.46c1.9-1.81 3.66-3.59 6.39-3.88a.17.17 0 0 0 0-.33c-2.81-.09-4.75 2.23-6.5 4.11a.08.08 0 0 0 .11.1z" fill="#7c1531"/><path class="cls-1" d="M249.25 210.49c-3.87-.76-7.08.32-10.39 2.3a.08.08 0 0 0 .08.13 14.53 14.53 0 0 1 10.19-2c.28.08.41-.38.12-.43z" fill="#7c1531"/><path class="cls-1" d="M249 209.73a.13.13 0 0 0 .15-.2c-1.12-1.05-2.92-.52-4.25-.29-.08 0-.06.16 0 .15 1.4-.13 2.8-.39 4.1.34z" fill="#7c1531"/><path class="cls-1" d="M250.61 210.42c-.14 0-.23.17-.1.24a6.54 6.54 0 0 1 1.72 1 .05.05 0 0 0 .09-.06 2.68 2.68 0 0 0-1.71-1.18z" fill="#7c1531"/><path class="cls-1" d="M251.06 209.54a3 3 0 0 1-.84-.4c-.25-.15-.45.27-.16.38a2.14 2.14 0 0 0 1 .2c.08-.01.11-.16 0-.18z" fill="#7c1531"/><path class="cls-1" d="M267.66 168.68c.81 3.14-4.79 4.24-6.76 5.42a.1.1 0 0 0 .1.17c2-1.1 7.87-2.15 6.83-5.63a.08.08 0 0 0-.17.04z" fill="#7c1531"/><path class="cls-1" d="M245.08 192c0 .05 0 .12.09.07a5.08 5.08 0 0 1 .55-.53c.06-.06 0-.15-.09-.11a1.46 1.46 0 0 0-.55.57z" fill="#7c1531"/><path class="cls-1" d="M246.75 191.36a6 6 0 0 1-.75.78c-.07.05 0 .17.09.12a3.44 3.44 0 0 0 .81-.79c.1-.08-.08-.19-.15-.11z" fill="#7c1531"/><path class="cls-1" d="M247.91 191.73c-.3.19-.6.38-.91.56-.09.05 0 .17.08.13a4.24 4.24 0 0 0 1-.54c.04-.07-.08-.21-.17-.15z" fill="#7c1531"/><path class="cls-1" d="M249.19 192.57a.14.14 0 0 0 0-.28.14.14 0 0 0 0 .28z" fill="#7c1531"/><path class="cls-1" d="M241.52 201.82c.94-.25 2-.73 2.92.07a3 3 0 0 0 .77.52c.44.19.93-.15 1.28-.36a.11.11 0 0 0-.11-.19c-.83.46-2.34-.62-3.31-.63a19.79 19.79 0 0 0-2.17.5c-1.58.18-3.12-1.42-4.13-2.39 1.15 1.2 2.86 2.97 4.75 2.48z" fill="#7c1531"/><path class="cls-1" d="M254.41 201.1a.07.07 0 0 0 0-.13c-1.89-.16-3.6 1-5.53.75-.11 0-.11.17 0 .18 1.91.19 3.64-.81 5.53-.8z" fill="#7c1531"/><path class="cls-1" d="M256.66 200.87a3.89 3.89 0 0 0-.16-1.41.09.09 0 0 0-.18.05 6.53 6.53 0 0 1 .15 1.36.09.09 0 0 0 .19 0z" fill="#7c1531"/><path class="cls-1" d="M257.33 199.72a.08.08 0 0 0 0 .16.08.08 0 0 0 0-.16z" fill="#7c1531"/><path class="cls-1" d="M258.14 193a1 1 0 0 1-.54.21c-.11 0-.11.18 0 .17a1 1 0 0 0 .63-.26c.06-.04-.02-.12-.09-.12z" fill="#7c1531"/><path class="cls-1" d="M258.87 193.85h.35a.08.08 0 0 0 0-.16h-.35a.08.08 0 0 0 0 .16z" fill="#7c1531"/><path class="cls-1" d="M259.91 194a.16.16 0 0 0 0-.32.16.16 0 0 0 0 .32z" fill="#7c1531"/><path class="cls-1" d="M253.62 184a2.36 2.36 0 0 1-2.66-.87c-.07-.1-.23 0-.16.09a2.53 2.53 0 0 0 2.87 1c.12-.02.07-.22-.05-.22z" fill="#7c1531"/><path class="cls-1" d="M242.68 115.39a3.92 3.92 0 0 1 2.11-1.72c.21-.08.13-.41-.1-.34a3 3 0 0 0-2.2 2 .1.1 0 0 0 .19.06z" fill="#7c1531"/><path class="cls-1" d="M246.31 115.47a12.91 12.91 0 0 0 2.8-1.54c.16-.11 0-.37-.15-.26a12.66 12.66 0 0 1-2.72 1.53c-.17.06-.1.33.07.27z" fill="#7c1531"/><path class="cls-1" d="M249.25 116.68a.19.19 0 0 0 .1 0 .12.12 0 0 0 .1-.07 4 4 0 0 1 1-.3c.56-.17 1.11-.33 1.66-.53.2-.07.12-.39-.09-.33-.64.19-1.27.38-1.9.59-.23.08-.82.17-1 .42a.14.14 0 0 0 .13.22z" fill="#7c1531"/><path class="cls-1" d="M245.19 116.87a1.22 1.22 0 0 1 .27-.82c.12-.14-.08-.35-.21-.21a1.3 1.3 0 0 0-.34 1 .14.14 0 0 0 .28.03z" fill="#7c1531"/><path class="cls-1" d="M248.94 115.23c-.67.59-1.53.88-2.19 1.5-.19.18.1.46.28.28.64-.61 1.49-.93 2.11-1.57a.15.15 0 0 0-.2-.21z" fill="#7c1531"/><path class="cls-1" d="M175.39 314.39a.09.09 0 0 0 .18 0c-1.79-6.63-3.75-13.25-6.93-19.37 0-.09-.18 0-.14.08 3.17 6.1 4.92 12.69 6.89 19.29z" fill="#7c1531"/><path class="cls-1" d="M177.44 313.9c-.42-4.2-1-8.36-3.3-12h-.08c2.09 3.76 2.62 7.75 3.15 12 .01.15.25.16.23 0z" fill="#7c1531"/><path class="cls-1" d="M178.15 307.08a10.42 10.42 0 0 1 2.72 6.82.13.13 0 0 0 .26 0 9.44 9.44 0 0 0-2.81-7c-.1-.12-.32.1-.17.18z" fill="#7c1531"/><path class="cls-1" d="M179.16 300.88a.12.12 0 0 0 0 .25.12.12 0 0 0 0-.25z" fill="#7c1531"/><path class="cls-1" d="M160.7 276.24c4.17 1.33 8.57 1.92 12.42 4.12a.11.11 0 0 0 .11-.18c-3.82-2.29-8.27-2.84-12.46-4.17-.15-.01-.22.18-.07.23z" fill="#7c1531"/><path class="cls-1" d="M182.42 285.68c-3.24-1.32-6.44-2.74-9.65-4.12-.12-.05-.23.13-.11.18 3.23 1.4 6.37 3 9.7 4.17.15.09.2-.17.06-.23z" fill="#7c1531"/><path class="cls-1" d="M225.17 291.68a14.1 14.1 0 0 1-5.92 1.38.12.12 0 0 0 0 .23 13.61 13.61 0 0 0 6.05-1.39c.15-.08.02-.3-.13-.22z" fill="#7c1531"/><path class="cls-1" d="M228.43 293.5c-1.53.48-3.09.86-4.61 1.36-.19.06-.11.37.08.31 1.52-.5 3.08-.89 4.6-1.41.16-.06.09-.31-.07-.26z" fill="#7c1531"/><path class="cls-1" d="M242.18 288.85c-1.21.8-2.47 1.51-3.67 2.33-.18.12 0 .41.17.29 1.22-.78 2.49-1.49 3.7-2.28.21-.14.02-.48-.2-.34z" fill="#7c1531"/><path class="cls-1" d="M239.62 295.19a46.51 46.51 0 0 1 5.53-3.69c.23-.12 0-.46-.2-.35a34.63 34.63 0 0 0-5.53 3.68c-.21.17-.01.51.2.36z" fill="#7c1531"/><path class="cls-1" d="M255.71 314.89c.09-.08 0-.22-.13-.13a3.41 3.41 0 0 1-2.24.89c-.12 0-.12.19 0 .19a3.61 3.61 0 0 0 2.37-.95z" fill="#7c1531"/><path class="cls-1" d="M259.5 314.82a13.46 13.46 0 0 0-1-4.18c-.05-.13-.26-.08-.22.06a15 15 0 0 1 .86 4.12.17.17 0 0 0 .36 0z" fill="#7c1531"/><path class="cls-1" d="M261.47 310.77c.47 1 .45 2.2.92 3.23.11.23.45 0 .34-.2-.47-1-.45-2.2-.92-3.22-.11-.23-.45-.03-.34.19z" fill="#7c1531"/><path class="cls-1" d="M265.47 313.86a.15.15 0 0 0-.3.08c.87 3.74 3.52 6.3 6.43 8.64 0 .33 0 .67.05 1a.11.11 0 0 0 .22 0c0-.24 0-.49.06-.73l2 1.52v2.89a.17.17 0 0 0 .34 0v-2.63a41.16 41.16 0 0 1 3.34 2.8.25.25 0 0 0 .35-.35 24.49 24.49 0 0 0-3.7-3.37v-2.45a.15.15 0 0 0-.29 0v2.2L272 322a22.8 22.8 0 0 1 .37-4.39c0-.16-.21-.23-.25-.07a19.49 19.49 0 0 0-.51 4.16c-2.72-2.07-5.19-4.3-6.14-7.84z" fill="#7c1531"/><path class="cls-1" d="M269.6 319.47a21.75 21.75 0 0 0 .41-5.57.09.09 0 0 0-.18 0 27.82 27.82 0 0 1-.51 5.49c-.03.18.24.25.28.08z" fill="#7c1531"/><path class="cls-1" d="M240.07 375.24a79 79 0 0 0 9.22 6.17.11.11 0 0 0 .11-.19 96.84 96.84 0 0 1-9.2-6.12c-.09-.1-.2.07-.13.14z" fill="#7c1531"/><path class="cls-1" d="M250.6 373.91a51.93 51.93 0 0 1-10.42-9.22c-.05-.06-.14 0-.09.09a50.28 50.28 0 0 0 10.46 9.22c.05 0 .1-.06.05-.09z" fill="#7c1531"/><path class="cls-1" d="M279.66 369a24.91 24.91 0 0 1 .37-3.31 6.4 6.4 0 0 1 .82-2.73c.15-.19-.17-.43-.33-.25a5.56 5.56 0 0 0-.89 2.54 18 18 0 0 0-.4 3.75.22.22 0 0 0 .43 0z" fill="#7c1531"/><path class="cls-1" d="M156.15 314.83c2.45 3.15 5.42 5.64 7.49 9.12 2.33 3.92 3.71 8.6 5.8 12.68a83.23 83.23 0 0 0 7.32 11.57c.1.13.32 0 .22-.13-5.06-7.33-8.63-14.94-12.25-23a29 29 0 0 0-5.88-7.94c-1.26-1.32-3.71-3.56-3.94-5.35-.21-1.59 1.1-3.37 1.3-4.93.29-2.23-.49-2.24-2.41-3.38-.92-.55-1.59-1.32-2.48-1.91-3.73-2.45-1.89-5.61-.83-8.61 1.85-5.26-4.62-12.36-7.3-16.09-.09-.13-.31 0-.21.13 2.19 3.13 4.65 6.07 6 9.66a13.17 13.17 0 0 1 1 6.19c-.23 1.55-1.86 3.31-1.75 5 .13 2.13.92 3.1 2.78 4.16.83.47 1.63 1.38 2.48 1.91 2.84 1.8 2.13 3.19 1.23 5.94-.72 2.28.01 3.15 1.43 4.98z" fill="#7c1531"/><path class="cls-1" d="M186 356a11.82 11.82 0 0 0-1.7 1.13c-.9.72-1.16-.25-1.69-1-1.24-1.71-2.78-3.13-3.81-5-.07-.13-.27 0-.2.12 1.35 2.46 3.55 4.3 4.9 6.76a.13.13 0 0 0 .2 0c1-1 2-2.15 3.14-.64a20 20 0 0 1 2.78 4.27c.07.16.33.09.27-.07-.83-2.1-2.42-3.74-3.7-5.56a.14.14 0 0 0-.19-.01z" fill="#7c1531"/><path class="cls-1" d="M202.66 379.1c9.06.38 7.8 10.29 13.41 15.22.15.13.36-.08.22-.22-4.86-4.47-4-13.54-11.23-15.29-2.76-.67-1.68-5.65-2.9-8.29-1.83-4-5.87-6.9-8.63-10.17-.09-.11-.24 0-.15.15 4.65 5.66 11.07 10 9.06 18.29a.25.25 0 0 0 .22.31z" fill="#7c1531"/><path class="cls-1" d="M138.08 272.51a7.16 7.16 0 0 0-1.89 5 .13.13 0 0 0 .26 0 7.2 7.2 0 0 1 1.79-4.83c.1-.12-.06-.28-.16-.17z" fill="#7c1531"/><path class="cls-1" d="M140.62 281.39a.19.19 0 0 0 0-.39.19.19 0 0 0 0 .39z" fill="#7c1531"/><path class="cls-1" d="M267.75 403.74c1.87 4.08 7.87 1.67 8.83-1.73.88-3.11-5.12-4.93-4.11-1.66a.23.23 0 0 0 .45-.06L274 404q-2.62 1.79-5.38-.78c-1.87-2.48.29-6.13 3.14-6.49 1.94-.24 2.62.55 4.37-.26a.41.41 0 0 0 .15-.56c-1.31-2.37 1.72-2.07 1.17-4-.23-.83-.75-1.08-1.39-1.55-2.24-1.65-2.94-3.6-4.08-6.07-.11-.24-.53-.07-.43.18 1 2.64 1.58 5.09 4.12 6.54 1.9 1.08-1.26 3.09-.52 4.53.23.44-4.44.43-4.65.49a4.58 4.58 0 0 0-2.1 1.44 5.86 5.86 0 0 0-.65 6.27z" fill="#7c1531"/><path class="cls-1" d="M276.8 389.48c1.18 2.14 2.29 3.94 4.54 5a2.85 2.85 0 0 0 1.72.34c3.57-.67 6.17 3.39 2 4.79-.27.09-.46.5-.19.71 1.76 1.4 2 3.69.07 5.06q-2.64.81-3.66-1.23-.9-1 .21-1.44a.44.44 0 0 0 .44-.76c-2.51-1.57-2.21 2-1.08 3.31 2 2.26 6.16 1.48 6.32-1.9 0-.49-.58-3.43-1-3.24 1.08-.49 2.37-1.32 2.13-2.73-.28-1.65-1.07-3.55-2.91-3.8a4.72 4.72 0 0 0-1.9.43c-2.92.93-5.4-2.56-6.6-4.61-.05-.01-.11.03-.09.07z" fill="#7c1531"/><path class="cls-1" d="M280.58 399a8.57 8.57 0 0 0 .73-.46c.13-.11-.06-.3-.19-.19a8.25 8.25 0 0 0-.68.48c-.08.08.03.24.14.17z" fill="#7c1531"/><path class="cls-1" d="M269 394.41c-.14.06-.09.29.07.24 2.3-.82 2.93-4.28.83-5.71-.32-.21-.67.26-.4.52 1.35 1.38 1.59 4.06-.5 4.95z" fill="#7c1531"/><path class="cls-1" d="M267.85 390.47a.14.14 0 0 0 0 .29c.78.08 1 .61 1.18 1.29 0 .19.37.21.4 0a1.44 1.44 0 0 0-1.58-1.58z" fill="#7c1531"/><path class="cls-1" d="M267.62 392.62a.79.79 0 0 1 .55.2c.2.16.48-.11.28-.28a1.08 1.08 0 0 0-.83-.26.17.17 0 0 0 0 .34z" fill="#7c1531"/><path class="cls-1" d="M279.84 389.78a5.64 5.64 0 0 1-1-3.54c0-.22-.35-.27-.39-.05a5.59 5.59 0 0 0 .87 3.88.28.28 0 0 0 .52-.29z" fill="#7c1531"/><path class="cls-1" d="M280.87 388.24c-.69 1.05.13 2.73 1.18 3.21.17.08.37-.13.21-.27-.7-.61-1.68-1.8-1.16-2.81a.13.13 0 0 0-.23-.13z" fill="#7c1531"/><path class="cls-1" d="M284.14 391.77c.25.1.39-.25.24-.42s-.52-.45-.74-.72a3.85 3.85 0 0 1-.63-1.23.19.19 0 0 0-.37.1 3 3 0 0 0 1.5 2.27z" fill="#7c1531"/><path class="cls-1" d="M290.15 395.52a.29.29 0 0 0 .56-.08 5.09 5.09 0 0 0-2.71-4.56c-.25-.1-.46.24-.22.37 1.7.89 1.95 2.6 2.37 4.27z" fill="#7c1531"/><path class="cls-1" d="M284.67 398.27a.17.17 0 0 0 0 .34.17.17 0 0 0 0-.34z" fill="#7c1531"/><path class="cls-1" d="M264.57 405.68c5.22 2.22 9.95 8.11 15 2.18.23-.28-.14-.66-.4-.4-3 3-5.57 2.9-9.08.92a41.7 41.7 0 0 0-5.43-2.9c-.12-.05-.2.15-.09.2z" fill="#7c1531"/><path class="cls-1" d="M282.45 408.89a10.68 10.68 0 0 1-2.71 1.61c-.19.08-.05.4.14.33a7.06 7.06 0 0 0 2.87-1.64.21.21 0 0 0-.3-.3z" fill="#7c1531"/><path class="cls-1" d="M158.22 247.8c.13-.11-.05-.29-.18-.18a24.54 24.54 0 0 0-4 4.35c-.05.07.06.15.11.09a32.63 32.63 0 0 1 4.07-4.26z" fill="#7c1531"/><path class="cls-1" d="M158.39 251.32a7.63 7.63 0 0 0-2.15 1.56.07.07 0 0 0 .1.09 10.79 10.79 0 0 1 2.15-1.51c.09-.04 0-.19-.1-.14z" fill="#7c1531"/><path class="cls-1" d="M159.3 253.14c-.54.27-1 .65-1.53.94-.11.06 0 .22.1.16.54-.27 1-.62 1.55-.91.12-.06.01-.25-.12-.19z" fill="#7c1531"/><path class="cls-1" d="M155.91 263.58a9.36 9.36 0 0 0-2.78 3.44c-.05.1.1.2.16.09a10.66 10.66 0 0 1 2.77-3.34c.11-.08-.06-.27-.15-.19z" fill="#7c1531"/><path class="cls-1" d="M159.59 266.94a25.51 25.51 0 0 0-3.09 2.49.12.12 0 0 0 .17.17 34.11 34.11 0 0 1 3.06-2.42c.15-.1.01-.35-.14-.24z" fill="#7c1531"/><path class="cls-1" d="M162.43 270.6a.14.14 0 0 0 0 .29.14.14 0 0 0 0-.29z" fill="#7c1531"/><path class="cls-1" d="M36.78 285.89a76.86 76.86 0 0 0 8 1.12 8.32 8.32 0 0 1 1.51.36c-2.85-1-6.06-.83-9.45-1.66a.09.09 0 0 0-.06.18z" fill="#7c1531"/><path class="cls-1" d="M82 340.26c-4.91-4.93-7.19-10.63-9.1-17.18-.9-3.08-1.83-6.14-3-9.14-.87-2.29-2.43-4.29-3.18-6.61-.53-1.65-1.2-.85-3.23-1s-3.82.69-5.62 1.47c-.71.31-5.23 3.05-5.52-.05a28.31 28.31 0 0 1 .12-4.51c.26-3.91 1.08-9.2-1.58-12.57a9.61 9.61 0 0 0-4.14-3.11c3.4 1.4 5.15 4.91 5.58 8.53.54 4.57-.87 9.15-.06 13.72a.18.18 0 0 0 .18.14c3.89-.39 7.08-3.3 11.06-3.21 2.44.05 2.27-.45 3.06 1.32a104.24 104.24 0 0 1 5.1 12.46 91.56 91.56 0 0 0 3.65 11.18c6.54 14.61 24.4 21.69 36.49 30.71.15.11.28-.13.14-.24-9.81-7.55-21.14-13.06-29.95-21.91z" fill="#7c1531"/><path class="cls-1" d="M46.78 287.55l-.5-.19z" fill="#7c1531"/><path class="cls-1" d="M63.43 292.25c-.1 2.06.56 7.09 3.9 6.1a6 6 0 0 0 1.89-1c1.58-1.11 1.78-.25 2.61 1.23 1.61 2.84 3.06 5.75 4.94 8.44.1.14.34 0 .24-.14-2.41-3.53-4.21-7.43-6.43-11.07a.16.16 0 0 0-.25 0c-1.4 1.59-3.38 3.31-5.45 1.43-1.3-1.17-1.3-3.45-1.25-5 0-.12-.2-.12-.2.01z" fill="#7c1531"/><path class="cls-1" d="M76.38 294.58a73.09 73.09 0 0 0 6 10.15c.06.09.21 0 .14-.08a86.7 86.7 0 0 1-6-10.12c-.08-.06-.17-.01-.14.05z" fill="#7c1531"/><path class="cls-1" d="M85.73 301.41a74 74 0 0 0-4.62-6.41c-.07-.09-.22 0-.15.09 1.59 2.12 3.2 4.21 4.59 6.46.07.07.24-.03.18-.14z" fill="#7c1531"/><path class="cls-1" d="M89.33 295.74a.19.19 0 0 0 0 .39.19.19 0 0 0 0-.39z" fill="#7c1531"/><path class="cls-1" d="M282.77 284.6c-.58-3-1.23-6-3.25-8.4-.08-.1-.21 0-.14.14 2.3 2.89 2.73 6.77 3.41 10.28s1.7 6.78 2.61 10.13a210.43 210.43 0 0 0 8.06 24.39c.06.14.29.08.23-.06a234.22 234.22 0 0 1-8.31-25.85c-.95-3.51-1.92-7.04-2.61-10.63z" fill="#7c1531"/><path class="cls-1" d="M261.55 272.61c1.27 3.75 3 7.33 4.27 11.07.05.14.28.08.23-.06-1.26-3.75-3-7.31-4.33-11-.04-.16-.21-.11-.17-.01z" fill="#7c1531"/><path class="cls-1" d="M220.81 125.83a1.17 1.17 0 0 0 .39.33c.08 0 .18-.07.1-.13s-.27-.19-.39-.3a.07.07 0 0 0-.1.1z" fill="#7c1531"/><path class="cls-1" d="M221.22 125.23a.69.69 0 0 1 .42.28c0 .08.17 0 .12-.07a.89.89 0 0 0-.5-.34c-.08-.04-.12.1-.04.13z" fill="#7c1531"/><path class="cls-1" d="M222 124.29a2 2 0 0 1 .37.3c.06.06.15 0 .09-.09a2.16 2.16 0 0 0-.4-.31c-.06-.04-.14.06-.06.1z" fill="#7c1531"/><path class="cls-1" d="M221.68 123.06c.55.26 1.05.65 1.62.88.09 0 .15-.12.06-.15-.55-.25-1.07-.58-1.63-.82-.06-.03-.11.03-.05.09z" fill="#7c1531"/><path class="cls-1" d="M224.1 123.27a3.25 3.25 0 0 0-1.76-1.31c-.06 0-.11.08 0 .11a6.3 6.3 0 0 1 1.64 1.33.11.11 0 0 0 .12-.13z" fill="#7c1531"/><path class="cls-1" d="M214.06 120.21a2.12 2.12 0 0 0-2 .74.08.08 0 0 0 .12.12 2.94 2.94 0 0 1 1.86-.63c.11-.01.15-.2.02-.23z" fill="#7c1531"/><path class="cls-1" d="M213.08 121.65a8.54 8.54 0 0 1 .89-.38.1.1 0 0 0-.05-.19 4 4 0 0 0-1 .39c-.07.05.08.24.16.18z" fill="#7c1531"/><path class="cls-1" d="M213.2 122.87c.28-.08.56-.11.84-.17.08 0 .05-.13 0-.14a2 2 0 0 0-.87.14c-.12.03-.07.2.03.17z" fill="#7c1531"/><path class="cls-1" d="M213.72 124.1a.06.06 0 0 0 0 .12.06.06 0 0 0 0-.12z" fill="#7c1531"/><path class="cls-1" d="M214.33 124.89a.12.12 0 0 0 0 .24 1.34 1.34 0 0 0-.15.12c-.07.07 0 .21.11.14a1.6 1.6 0 0 1 .53-.25c.17-.05.09-.33-.07-.27a1.77 1.77 0 0 0-.32.17.11.11 0 0 0-.1-.15z" fill="#7c1531"/><path class="cls-1" d="M215.14 126.15a1.7 1.7 0 0 0 .33-.24c.08-.08 0-.2-.12-.12a1 1 0 0 1-.29.22.08.08 0 0 0 .08.14z" fill="#7c1531"/><path class="cls-1" d="M216.48 126.32a.07.07 0 0 0 0 .13.07.07 0 0 0 0-.13z" fill="#7c1531"/><path class="cls-1" d="M217.29 126.78a1 1 0 0 1 0-.44c0-.1-.12-.14-.16 0a1.83 1.83 0 0 0-.11.48c-.02.1.28.1.27-.04z" fill="#7c1531"/><path class="cls-1" d="M218 126.26a.13.13 0 0 0 0 .26.13.13 0 0 0 0-.26z" fill="#7c1531"/><path class="cls-1" d="M219.23 126.81c-.05-.12 0-.09-.15-.18s-.23.08-.11.15l.15.12c.06.1.14-.02.11-.09z" fill="#7c1531"/><path class="cls-1" d="M220.11 126.83a.08.08 0 0 0 .13-.08.52.52 0 0 0-.35-.35.07.07 0 0 0-.07.12 2.5 2.5 0 0 1 .29.31z" fill="#7c1531"/><path class="cls-1" d="M214 123.93c.09 0 .05-.17 0-.14a2.83 2.83 0 0 1-.67.1v.1a2.74 2.74 0 0 0 .67-.06z" fill="#7c1531"/><path class="cls-1" d="M214.18 124.24a.16.16 0 0 0 0 .32.16.16 0 0 0 0-.32z" fill="#7c1531"/><path class="cls-1" d="M280.87 133.69a.22.22 0 0 0-.2-.31.23.23 0 0 0-.15.4.09.09 0 0 0 .07.06c.3 0 .44.34.61.55s.23 0 .18-.14a1 1 0 0 0-.51-.56z" fill="#7c1531"/><path class="cls-1" d="M281.39 132.8c-.06 0-.11.05-.05.09a.87.87 0 0 1 .36.37c0 .06.13 0 .09-.05a1.18 1.18 0 0 0-.4-.41z" fill="#7c1531"/><path class="cls-1" d="M280.86 131.48c-.06 0-.12.06-.06.1.52.38 1.07.73 1.6 1.09.09.06.18-.09.08-.14a12.39 12.39 0 0 1-1.62-1.05z" fill="#7c1531"/><path class="cls-1" d="M281.86 131.25c-.07 0-.12.06-.06.1.4.25.75.6 1.15.84a.06.06 0 0 0 .07-.09 5.74 5.74 0 0 0-1.16-.85z" fill="#7c1531"/><path class="cls-1" d="M281.92 130.42c-.06 0-.08.07 0 .09.39.1.76.27 1.15.38v-.07a4.1 4.1 0 0 0-1.15-.4z" fill="#7c1531"/><path class="cls-1" d="M275.14 130.72a2.94 2.94 0 0 0-2.32.23.06.06 0 0 0 0 .11A3.72 3.72 0 0 1 275 131c.16 0 .31-.2.14-.28z" fill="#7c1531"/><path class="cls-1" d="M274.1 131.43a.92.92 0 0 0-.77.24.11.11 0 0 0 .11.18 6 6 0 0 1 .67-.22c.08-.03.1-.17-.01-.2z" fill="#7c1531"/><path class="cls-1" d="M274.69 132.6a1.08 1.08 0 0 0-.5.17c-.08 0 0 .18.06.15a2.87 2.87 0 0 1 .46-.15.09.09 0 0 0-.02-.17z" fill="#7c1531"/><path class="cls-1" d="M275.15 133.75a.09.09 0 0 0 0 .18.09.09 0 0 0 0-.18z" fill="#7c1531"/><path class="cls-1" d="M275.53 134.44a.09.09 0 0 0 0 .18.09.09 0 0 0 0-.18z" fill="#7c1531"/><path class="cls-1" d="M276.3 134.76a.08.08 0 0 0 0 .16.08.08 0 0 0 0-.16z" fill="#7c1531"/><path class="cls-1" d="M276.91 135a.76.76 0 0 0-.34.48c0 .14.14.19.22.09a1.73 1.73 0 0 1 .31-.34c.13-.09-.04-.3-.19-.23z" fill="#7c1531"/><path class="cls-1" d="M278 134.88c-.09.26-.16.51-.27.75a.09.09 0 0 0 .15.09 2.47 2.47 0 0 0 .34-.78c0-.14-.22-.19-.22-.06z" fill="#7c1531"/><path class="cls-1" d="M278.91 134.91a.08.08 0 0 0 0 .17.08.08 0 0 0 0-.17z" fill="#7c1531"/><path class="cls-1" d="M279.92 134.26a1.54 1.54 0 0 0-.45.44c-.16.19.1.46.28.28a1.78 1.78 0 0 0 .38-.56c.03-.13-.13-.21-.21-.16z" fill="#7c1531"/><path class="cls-1" d="M269.06 133l-.08.13c0 .08.07.17.13.1s.29-.33.44-.5a6.8 6.8 0 0 0 .77-.56 7.44 7.44 0 0 0 2.46 3.26.15.15 0 0 0 .23-.18c5.69 4.12 15.67 3.92 18-3.83.07-.23-.27-.31-.35-.1-2.06 5.15-7.29 6.76-12.22 5.86a8.76 8.76 0 0 0 5.46-4.88 12.18 12.18 0 0 0 .59-1.71.36.36 0 0 0 .12-.31v-.24a2.81 2.81 0 0 0-.64-2.81.43.43 0 0 0-.56-.18h-.17 1.12a19.43 19.43 0 0 1 5 2.29v.08a.28.28 0 0 0 .31.14c.41.27.83.55 1.25.81a.67.67 0 0 0-.29.41c0 .06.07.12.12.07.17-.21.26-.23.5-.09a.12.12 0 0 0 .18-.1 4.68 4.68 0 0 0 3 .67c.09 0 .06-.15 0-.15a8.05 8.05 0 0 1-4.46-2.09c0-.29-.22-.52-.29-.84a.33.33 0 0 0-.23-.23.9.9 0 0 1-.35-.22 18.08 18.08 0 0 1 2.36.94c1.46.76 2.88 1.58 4.28 2.34.15.08.34-.13.19-.25a23.64 23.64 0 0 0-4.19-2.69 11.82 11.82 0 0 0-6.47-2.73 9.58 9.58 0 0 1 2.07.09c1.81.28 3.45 1.31 5.28 1.65a.05.05 0 0 0 0-.1c-2.33-.69-5.21-2.37-7.86-2.39a6.37 6.37 0 0 1 1.17-.22.11.11 0 0 0 0-.22 8.6 8.6 0 0 0-3.56.81v-.07a10.08 10.08 0 0 0-3.45 1.13c-.34.07-.69.15-1 .25l1.16-.41a29.54 29.54 0 0 1 4.88-1.65c.11 0 .08-.21 0-.2a22.94 22.94 0 0 0-5.33 1.55 9.12 9.12 0 0 0-3.74 1.93 14.34 14.34 0 0 0-3.93 3.11c-.23.22-.45.45-.67.68s-.68.62-1 .94a6.43 6.43 0 0 1-2.33 1c-.07 0-.08.13 0 .14a3.77 3.77 0 0 0 2.1-.43zm14.25-3.93a.11.11 0 0 0 0-.07.85.85 0 0 0-.5-.16.62.62 0 0 1 .63.26zm-5.32.11h-.07l-.05-.11zm-.61-.59a.4.4 0 0 0 0 .09h-.17zm-.56.52h.07a.09.09 0 0 0 .07.08.61.61 0 0 1 .49.38.3.3 0 0 0 0 .28 1.47 1.47 0 0 0-.21.19 1.22 1.22 0 0 0-.21.34 1.08 1.08 0 0 1-.36.31h-.06a.66.66 0 0 1-.65-.59c.04-.52.46-.79.85-1.01zm-.28 2.47h.11a1.65 1.65 0 0 0-.08.18v-.08-.1zm-.78-2v.07a.49.49 0 0 1-.01-.13zm-1.84.22h-.13l.13-.07a.34.34 0 0 0-.01.02zm8.21-.74l.18-.07.25-.07a.11.11 0 0 0 0 .09 2.48 2.48 0 0 0-.44-.01zm2 1.59zm-5.82 6.25a.14.14 0 0 0 0 .23c-.4-.08-.8-.17-1.19-.28a.09.09 0 0 0-.06-.07 13.73 13.73 0 0 1-1.45-.5.07.07 0 0 0-.09 0 14.52 14.52 0 0 1-2.69-1.42c-.65-1-1.75-1.69-2.25-2.83a9.42 9.42 0 0 0 .71-.7l.22-.15a3.62 3.62 0 0 0 .11.6 5.85 5.85 0 0 0 1.38 2.27c.09.1.17.21.26.31a3.23 3.23 0 0 0 .58.54c.36.31.74.59 1.12.87.13.1.3-.12.18-.23l-.42-.34a.09.09 0 0 0 0-.11 4 4 0 0 1-.41-.25 9.91 9.91 0 0 1-1.11-1l-.21-.28a.1.1 0 0 0 0-.14 9.49 9.49 0 0 1-.75-1.5 4.88 4.88 0 0 1-.24-.92.12.12 0 0 0 .08 0c.91-.88 2.07-.73 3.2-.54a.38.38 0 0 0 .19 0 .28.28 0 0 0 .15.07 1 1 0 0 0 .66.56.19.19 0 0 0 0 .07.9.9 0 0 0 0 .19v.17a.1.1 0 0 0 0 .13v.08a1.78 1.78 0 0 0 .87 1.86 1.55 1.55 0 0 0 1.77-.42 4.15 4.15 0 0 0 1.08-1.27 3.38 3.38 0 0 0 .52-1.36 3.47 3.47 0 0 1 .73-.66 5.62 5.62 0 0 1 .79-.35 1.35 1.35 0 0 1 1.23.09 4 4 0 0 0-1.83.31.06.06 0 0 0 0 .13 7.56 7.56 0 0 0 1-.11h.09a2.25 2.25 0 0 1 1.15.24 2.05 2.05 0 0 1-.16 1.39c0 .11.06.18.16.17-.17.38-.33.73-.47 1-1.01 2.14-2.87 3.15-4.91 4.1zm10.56-8.66a9.35 9.35 0 0 0-1.69-1c.33.06.67.15 1 .23.22.24.44.53.68.73z" fill="#7c1531"/><path class="cls-1" d="M267.57 162.23c.14.59.33 1.16.52 1.74a4.63 4.63 0 0 1-.94 3.11c-1.16 1.32-3.15 1.89-4.79 2.48a15.71 15.71 0 0 0-4.52 2.67 10.86 10.86 0 0 0-4.32 4.56c-.06.13.12.24.19.11 1.8-3.4 6.11-5.13 9.58-6.59.77-.27 1.53-.56 2.29-.91a5.19 5.19 0 0 0 2.83-2.73 3 3 0 0 0 .57-2.49 6.92 6.92 0 0 0-1-3.56 22.35 22.35 0 0 0-1.33-5c-2.94-10.18-8.33-22.85-.21-31.59.05-.06 0-.15-.09-.09-6.67 6.86-4.78 16.46-2.1 25.22a90 90 0 0 0 3.32 13.07zm.63 2.15a2.49 2.49 0 0 1 .06.61h-.09c.02-.17.03-.39.03-.61z" fill="#7c1531"/><path class="cls-1" d="M66.94 237.71c3.32-1.38 5.54-4.66 7.21-7.7a.21.21 0 0 0-.37-.22c-1.71 3-3.71 6.19-6.95 7.67-.13.06-.03.31.11.25z" fill="#7c1531"/></g></g><metadata><rdf:RDF xmlns:rdf="http://www.w3.org/1999/02/22-rdf-syntax-ns#" xmlns:rdfs="http://www.w3.org/2000/01/rdf-schema#" xmlns:dc="http://purl.org/dc/elements/1.1/"><rdf:Description about="https://iconscout.com/legal#licenses" dc:title="margaery,tyrell,house,of,baratheon" dc:description="margaery,tyrell,house,of,baratheon" dc:publisher="Iconscout" dc:date="2018-03-26" dc:format="image/svg+xml" dc:language="en"><dc:creator><rdf:Bag><rdf:li>Roundicons.com</rdf:li></rdf:Bag></dc:creator></rdf:Description></rdf:RDF></metadata></svg>