<?xml version="1.0" encoding="UTF-8"?><svg xmlns="http://www.w3.org/2000/svg" viewBox="0 0 282.88 423.5"><defs><style>.cls-1{fill:#0d465b;}</style></defs><title>Asset 14</title><g id="Layer_2" data-name="Layer 2"><g id="Layer_2-2" data-name="Layer 2"><path class="cls-1" d="M236.27 190.39z" fill="#0d465b"/><path class="cls-1" d="M235.12 191a46.75 46.75 0 0 1-4.81 2.89 9.08 9.08 0 0 1-5.35.95 11.28 11.28 0 0 0 2.22-1.58c.08-.07 0-.22-.12-.15a13.74 13.74 0 0 1-3.19 1.69h-.33q.35-.37.68-.75c.07-.08 0-.2-.12-.12a12.88 12.88 0 0 1-1.32 1.16c-4.08.79-8.41-.4-12.51-.81s-8.45-.8-12.69-.89a3.28 3.28 0 0 0 .76-.17.09.09 0 0 0 0-.17c-.39 0-.78.08-1.17.11s-.79.05-1.18.1l.2-.16h.06l.16-.14v-.07a2.2 2.2 0 0 0 .27-.38c0-.06 0-.12-.09-.07a2.61 2.61 0 0 1-.94.53 3.84 3.84 0 0 0-.55.22 2.73 2.73 0 0 1-1.16.24.1.1 0 0 0-.05.19 1.77 1.77 0 0 0 1.56.08c1.69.24 3.37.61 5.06.79a43.64 43.64 0 0 0 5.26 0l1.34.17c3.33.61 6.63 1.31 10 1.72s6.5-.21 9.7-.72a7 7 0 0 0 2.44-.45c2.2-.85 4.1-2.71 6-4 0-.21-.07-.27-.13-.21z" fill="#0d465b"/><path class="cls-1" d="M230.18 200.5a3.86 3.86 0 0 0 1-1.71.06.06 0 0 0-.12 0 4.05 4.05 0 0 1-1.07 1.58c-.06.07.09.23.19.13z" fill="#0d465b"/><path class="cls-1" d="M200.85 192.47a61.5 61.5 0 0 0 7.51-1.37 34.85 34.85 0 0 0 5.52-1.43l.91-.29a10.35 10.35 0 0 1 4.63-.3l1.32.35a.07.07 0 0 0 .07 0 13.73 13.73 0 0 0 3.46.47c.1 0 .1-.15 0-.15a31.28 31.28 0 0 1-4-.67 6.54 6.54 0 0 0-4.4-.6 60.71 60.71 0 0 0-6.3 2l-.65.24a41.86 41.86 0 0 1-8 1.58c-.18.01-.18.18-.07.17z" fill="#0d465b"/><path class="cls-1" d="M224.83 189.63a.07.07 0 0 0 0 .14 7 7 0 0 0 3.49-1c2.46-1.26 4.11-.27 6.46.38a.1.1 0 0 0 .05-.19 12.3 12.3 0 0 0-4.31-1.21c-2.02-.04-3.62 1.74-5.69 1.88z" fill="#0d465b"/><path class="cls-1" d="M166.13 116a.12.12 0 0 0 0 .24.12.12 0 0 0 0-.24z" fill="#0d465b"/><path class="cls-1" d="M221.58 351.59a.09.09 0 0 0 0 .18.09.09 0 0 0 0-.18z" fill="#0d465b"/><path class="cls-1" d="M205.29 200.54l1.58-.13c4.79 1.3 8.94 4.11 13.6 5.75 2.58.91 4.66.09 5.56-2.48a.28.28 0 0 0 0-.11 9.9 9.9 0 0 0 4-2.77c.09-.11-.05-.26-.15-.16-4 4-9.67 3.63-14.85 2a46.85 46.85 0 0 0-4.44-1.76.2.2 0 0 0-.09-.12 4.66 4.66 0 0 0-1.3-.48l-.13-.06a.08.08 0 0 0-.1 0 7.28 7.28 0 0 0-1.94 0h-.58a.05.05 0 0 0 0 .1l-1.15.17c-.08-.04-.06.06-.01.05z" fill="#0d465b"/><path class="cls-1" d="M199 193c-.09 0-.05.15 0 .14l.3-.06c.1 0 .06-.19 0-.16z" fill="#0d465b"/><path class="cls-1" d="M199.55 192.77a2.12 2.12 0 0 1 .52-.15v-.08a1.4 1.4 0 0 0-.54.15s-.03.1.02.08z" fill="#0d465b"/><path class="cls-1" d="M202.19 168.83c.13.77.91 1.32 1.52 1.7a6.62 6.62 0 0 0 .89.44l.2.11a18.51 18.51 0 0 0 5.77 1.84 1.56 1.56 0 0 0 .36.05c.32 0 .63.07.94.08a.05.05 0 0 0 0-.1l-1.3-.42a3.37 3.37 0 0 0-.69-.54 1 1 0 0 0-.83-.06c-1.19-.46-2.44-.73-3.64-1.13l-.65-.24-.3-.14a3.09 3.09 0 0 1-2-2.32c0-.61.23-1.25.31-1.85s.19-.91.25-1.37c0-.09-.11-.13-.14 0-.15.51-.28 1-.38 1.56a.11.11 0 0 0 0 .11 5.46 5.46 0 0 0-.31 2.28z" fill="#0d465b"/><path class="cls-1" d="M213 171.76a.07.07 0 0 0 .14 0 1.63 1.63 0 0 1 .66-1.27 3.32 3.32 0 0 1 .4.1l.06.05a2.26 2.26 0 0 0 .29.09 3.54 3.54 0 0 0 1.35.38 3.21 3.21 0 0 0 1.22-.3.31.31 0 0 0 .26-.1 3.17 3.17 0 0 1 1.06-.26.15.15 0 0 0 .13-.22 1.6 1.6 0 0 0 1.19.23l1.09.23a.16.16 0 0 0 .12-.29c-1.6-1.18-8.26-1.92-7.97 1.36zm2-1.72h.27zm2.22.12a1.35 1.35 0 0 0-.22-.16l.67.08a2.7 2.7 0 0 0-.47.08z" fill="#0d465b"/><path class="cls-1" d="M221 171.11a1.31 1.31 0 0 1 1.09.14c.05 0 .1-.06.06-.1a1 1 0 0 0-1.18-.1l.03.06z" fill="#0d465b"/><path class="cls-1" d="M224.8 123.13c-1.09 6.53-1.25 13 1 19.31a63.13 63.13 0 0 0 3.23 6.94 61.87 61.87 0 0 0 2.9 6.16c1.16 2.18 2.69 4 3.82 6.23a5.6 5.6 0 0 1 .21.92c-.1 1.27-.38 2.49-1.79 3-.09 0-.06.18 0 .15a3.13 3.13 0 0 0 1.47-.81 7.86 7.86 0 0 1-3.33 3.44 13.41 13.41 0 0 0-4.15 4.2c-.07.12.1.21.18.11a13.77 13.77 0 0 1 4.25-3.83 10 10 0 0 0 3-2.2 4.21 4.21 0 0 0 .43-.67.13.13 0 0 0 .14-.07 4.72 4.72 0 0 0 0-4.78c-.46-1.61-1.83-3-2.75-4.35-.35-.52-.68-1-1-1.58-1.26-2.38-2.34-4.87-3.54-7.27a38.44 38.44 0 0 1-3.93-24.83c.06-.13-.12-.2-.14-.07z" fill="#0d465b"/><path class="cls-1" d="M230.93 171.5c.31-.27.62-.55.93-.81a1.91 1.91 0 0 0 1.68-.69v-.06h.3c.16 0 .13-.24 0-.29-1.25-.45-2.41.89-3.11 1.71a.11.11 0 0 0 .2.14zm1.79-1.34a3.11 3.11 0 0 1-.71.41l.2-.16a1.92 1.92 0 0 1 .51-.25z" fill="#0d465b"/><path class="cls-1" d="M203.52 167.8v.08a6.43 6.43 0 0 0 7.52-.21c4.34-2.91 11-.9 16.12-.82a.05.05 0 0 0 0-.11c-4.27-.28-9.1-1.49-13.32-1a4.23 4.23 0 0 0-1.58.75c-3.03 1.86-5.04 3.51-8.74 1.31z" fill="#0d465b"/><path class="cls-1" d="M233.82 165.81a14.84 14.84 0 0 1-5.06 1.12 12.1 12.1 0 0 0 5.11-1c.13.01.06-.16-.05-.12z" fill="#0d465b"/><path class="cls-1" d="M174.1 135.23c-.12 0-.07.24.05.19 2.95-1.16 5.5-1.5 8.44 0a8.22 8.22 0 0 0 3.64.8c2.88.13 6-2 8.28-3.42a.1.1 0 0 0 0-.12q1.11-.64 2.18-1.35a2.33 2.33 0 0 0 1.17.3 2.59 2.59 0 0 0 1.53-.41.06.06 0 0 0-.06-.11 2.11 2.11 0 0 1-1.41.1l-.21-.06a.18.18 0 0 0-.06-.14c-.4-.33-.82-.6-1.23-.91a12.18 12.18 0 0 1-.73-1.14c0-.09-.17 0-.13.08s.23.44.36.66l-.13-.11c-.6-.56-1.12-1.2-1.69-1.8a8.35 8.35 0 0 0-2.43-1.87 10.56 10.56 0 0 0-7.34-2.24c-7.21.3-11.63 8.3-19.53 6.15a.14.14 0 0 0-.07.27c3.43 1.19 7.44.21 10.52-1.48s5.38-3.7 9.09-4.19a8.89 8.89 0 0 1 5.2.89h-.09a.27.27 0 0 0-.24-.14h-.79a12.12 12.12 0 0 0-3 0 19.49 19.49 0 0 0-5.35 1.77c-2.3 1-4.68 3.34-7.24 3.77h-.3a26.43 26.43 0 0 0-3.77.07c-.07 0-.05.13 0 .12 1.6-.19 3.12.52 4.74.35a6.49 6.49 0 0 0 2.49-.87h.16a2.06 2.06 0 0 0 .94.25l.1.05a1.89 1.89 0 0 1 .28.23 4 4 0 0 0-1.7.46c-3.36 1.54-6.19.5-9.64-.14-.09 0-.13.12 0 .14a52.56 52.56 0 0 0 6.7 1.41c1.9.16 3.56-1.59 5.38-1.2a2.06 2.06 0 0 0 .2.24c-.89.16-1.74.84-2.64 1-.08 0-.06.14 0 .13 1.24-.12 2.27-1.1 3.54-.68a.17.17 0 0 0 .2-.1 12 12 0 0 0 4.93 2.31 5.55 5.55 0 0 1-1.39-.19c-2-.57-2.88-2-5.15-1.71-.1 0-.11.17 0 .17a6.82 6.82 0 0 1 3.61 1.5c-2.61-.72-4.81 0-7.41.97zm15.76-6.84zm-12.4 1.69a.47.47 0 0 0 0 .08v.06l-.25-.09zm7.54-3.6a.16.16 0 0 0 .1 0l-.53.07zm1 .83h-.25.28a.48.48 0 0 0-.03 0zm2.13 3.2v.05-.06zm-.82-2.17v-.1s.05.06.04.1zm1.78-1.11zm-1.58.66zm.48-1.6zm-1.87 3.85a.35.35 0 0 0 .1.14 1.66 1.66 0 0 0 1.53.48l.07.07h-.13a1.83 1.83 0 0 1-1.07-.3 2.42 2.42 0 0 1-.6-.49zm2.6-.7a.86.86 0 0 1-.89-.69 1 1 0 0 1 .22-1l.36-.18a2.31 2.31 0 0 0 .29.17c.22.12.44.2.63.32v.12a.39.39 0 0 0 .09.15 1.62 1.62 0 0 1 0 .21.9.9 0 0 1-.66.91zm1.91-.76l.1.07a1.17 1.17 0 0 1-.54 0 .6.6 0 0 1 .48-.07zm3.37.54l.12.18-.16-.14zm.67.47l.24.2.25.3c-.18-.12-.35-.24-.52-.37a.14.14 0 0 0 .07-.13zm-15.53 1.91c-.14-.21-.32-.41-.47-.62a2 2 0 0 1-.32-.68 1 1 0 0 1 .19-.69 27.76 27.76 0 0 1 4-1.64c-1.09 2 1.06 4.3 2.75 5.23l.05-.09c-1.22-.88-2.71-2.61-2.41-4.21a.42.42 0 0 0 .18-.09 1.59 1.59 0 0 1 1.58-.26 3.59 3.59 0 0 0-1.55.64c-.1.08 0 .21.11.19a11 11 0 0 0 2-.42 1.34 1.34 0 0 1 .09.13 2.28 2.28 0 0 0 1.15 2 1.93 1.93 0 0 0 2.08 0h.06a1.83 1.83 0 0 0 .86-1.17.2.2 0 0 0-.07-.21 1.42 1.42 0 0 0 .41-.79h.08v.06c.32.16.72.35 1 .05a.17.17 0 0 0 0-.17 4 4 0 0 1-.81 2.71c-.92 1.39-2.86 2.68-4.48 1.66-.13-.08-.23.11-.11.2 2.67 2 6.82-2.21 6.16-5.06.95.61 1.84 1.35 2.9 2.09a5.26 5.26 0 0 0 1.33.74 5.06 5.06 0 0 0-.58.37c-5.18 2.7-11.03 3.83-16.14.03zm7.22 3.81h-.23l.57-.1z" fill="#0d465b"/><path class="cls-1" d="M158.74 129.38s-.06.07 0 .08a13 13 0 0 0 3.82.3c.14 0 .15-.23 0-.22a28.55 28.55 0 0 1-3.82-.16z" fill="#0d465b"/><path class="cls-1" d="M163.33 129.8H163c-.2-.08-.29.24-.09.32a.56.56 0 0 0 .5 0c.2-.12.09-.38-.08-.32z" fill="#0d465b"/><path class="cls-1" d="M163.85 129.76h-.07a.13.13 0 1 0 0 .26h.07a.12.12 0 0 0 0-.26z" fill="#0d465b"/><path class="cls-1" d="M164.86 131a.18.18 0 0 0 0 .35.18.18 0 0 0 0-.35z" fill="#0d465b"/><path class="cls-1" d="M173.2 125.38c.15-.1.29-.22.44-.31a.06.06 0 0 0-.06-.11l-.46.28c-.12.06-.01.2.08.14z" fill="#0d465b"/><path class="cls-1" d="M172.19 126.33c4.64-.15 7.91-4.72 12.75-3.61.11 0 .18-.13.08-.18-4.39-2.19-8.64 3.19-12.83 3.7-.06.01-.06.09 0 .09z" fill="#0d465b"/><path class="cls-1" d="M185.64 122.66v0z" fill="#0d465b"/><path class="cls-1" d="M186.61 123.22a.07.07 0 0 0 0-.15.07.07 0 0 0 0 .15z" fill="#0d465b"/><path class="cls-1" d="M247 125.44a3 3 0 0 0 1.77-1.74.05.05 0 0 0-.09-.05 3.13 3.13 0 0 1-1.59 1.43 1.54 1.54 0 0 1-1.33-.21.13.13 0 0 0 0-.17l-.12-.11c0-.15-.1-.28-.15-.41a4.05 4.05 0 0 0 .7.74c.14.11.27-.11.18-.23-1.38-1.76-2.33-4.28-4.87-4.37-2.38-.08-5 1.86-6.82 3.79a8.67 8.67 0 0 0-1.29 1.19c-1.18 1.35-2.19 3.81-4.1 4.26-.09 0-.07.18 0 .17a3.36 3.36 0 0 0 1.63-.73.15.15 0 0 0 0 .27c1.81.37 3.48 1.06 5.23 1.42a8.08 8.08 0 0 0 4.58.69 3.47 3.47 0 0 0 1.84-.54 8 8 0 0 0 2-1.49s0-.1-.06-.06a5.41 5.41 0 0 1-1.29.79 7.26 7.26 0 0 0 .64-.77 5.39 5.39 0 0 0 1.22-3.59.33.33 0 0 0 .17 0 2.4 2.4 0 0 1 .73-.18.11.11 0 0 0 .08-.12 2 2 0 0 0 .94.02zm-2.29-.2v.68a.12.12 0 0 0-.05.07c-.53 2.14-2.26 3.1-4.37 3.48a4.87 4.87 0 0 0 1.95-1.92c.55-.88 1.28-2.87.82-4.11a6.84 6.84 0 0 1 .73.27 5.49 5.49 0 0 1 .91 1.52zm-2.74-.59a.15.15 0 0 0-.08.26l.11.12a1.14 1.14 0 0 1-.24-.14.19.19 0 0 0-.3.07 1.39 1.39 0 0 0 0-.17 1.36 1.36 0 0 1 .35-.24h.12s.02.05.07.1zm-1.17.71c-.34.34-1.18.51-1.39 0a1.5 1.5 0 0 1 .06-1 1.76 1.76 0 0 1 .37-.18l.48-.16c.5.06.92.88.46 1.33zm-1.85.19zm.35-2.27zm1.36.27h.08l-.09-.05zm1.65.05a.7.7 0 0 0-.24-.35h.13l.13.34zm-1.07.56h.06zm-6.06 1.21a1.29 1.29 0 0 1 1.27-.43 5.1 5.1 0 0 1-1.25.43zm2-.12h.07a3.13 3.13 0 0 0 .18.66 1.86 1.86 0 0 0 .08.21l.12.24a1.86 1.86 0 0 1-.45-1.1zm.77 1.44zm-6.52 2.31a.17.17 0 0 0 0-.05zm.46-.06a3.62 3.62 0 0 1 .46-.94l.09-.14a7.29 7.29 0 0 0 .48-.69c.48-.47 1-1 1.64-1.45a4.2 4.2 0 0 0 2.7 3.6c.08 0 .12-.09.06-.13a4.79 4.79 0 0 1-1.95-2.1 4.16 4.16 0 0 1-.21-1.46.89.89 0 0 0 .57 0 2.36 2.36 0 0 0 .81-.39.16.16 0 0 0 0-.25 2.12 2.12 0 0 1 .47.18 2.58 2.58 0 0 0 1.22 2.4c.7.48 2 .57 2.36-.32a3.18 3.18 0 0 0 .65-1.42.27.27 0 0 0 0-.19 1 1 0 0 0 .24-.55.16.16 0 0 0 0 .08.9.9 0 0 0 .73.35.19.19 0 0 0 .16-.27.22.22 0 0 0 .09-.19 4.85 4.85 0 0 0-.12-.59h.21v.09a5.39 5.39 0 0 1-.45 2.15c-.5 1.35-1.86 3.44-3.56 2.59a.07.07 0 0 0-.07.12 2.06 2.06 0 0 0 .74.25 24.42 24.42 0 0 1-4.69-.12 9.22 9.22 0 0 0-1-.15c-.31-.09-.62-.16-.92-.27a3.69 3.69 0 0 0-.72-.21zm11.45-6.12a3.65 3.65 0 0 1 .58.39zM231.95 128v.06l.07-.08zm10.48-7a3.3 3.3 0 0 1 1.92 1.57 4.94 4.94 0 0 0-3.77-.82h-.11a5.91 5.91 0 0 0-.84 0 6 6 0 0 0-2.11.68 7 7 0 0 1 4.91-1.43zm-11.49 8zm12.43.08a1.31 1.31 0 0 0 0-.14c.09-.11.19-.21.28-.32l-.12.19c-.02.07-.09.19-.16.24zm2-3.94z" fill="#0d465b"/><path class="cls-1" d="M232.4 126.06c2.55-3.69 6.18-8.32 11.12-6.12.1 0 .18-.09.08-.14-5.24-3-8.81 2.37-11.3 6.21-.05.05.05.11.1.05z" fill="#0d465b"/><path class="cls-1" d="M231.6 126.76c0 .07 0 .17.12.12a.32.32 0 0 0 .15-.3c0-.09-.13-.1-.16 0a.94.94 0 0 1-.11.18z" fill="#0d465b"/><path class="cls-1" d="M201.57 113.58c0 .71-.68 1.28-1.19 1.71-.18.15-.92.54-.81.86a.16.16 0 0 0 .11.11.43.43 0 0 0 .33-.12.11.11 0 0 0 0-.14l.19-.18a8.25 8.25 0 0 0 .64-.61c.46-.52.92-.92.81-1.66.03-.05-.08-.04-.08.03z" fill="#0d465b"/><path class="cls-1" d="M202.69 113.79a4.06 4.06 0 0 1-1.38 1.72c-.12.09 0 .29.16.21a3.38 3.38 0 0 0 1.34-1.89c.03-.09-.09-.11-.12-.04z" fill="#0d465b"/><path class="cls-1" d="M230.21 111a4.11 4.11 0 0 0-.31 1.63c-.13-.21-.26-.43-.37-.65a.11.11 0 0 0-.2.09 5.78 5.78 0 0 0 .6 1.24v.28c.1.68.65 1.28 1.33.79.1-.07 0-.24-.09-.2-.33.1-.55.12-.69-.24a1.43 1.43 0 0 1 0-.22.14.14 0 0 0 0-.19l-.08-.11v-.45-.11a3.73 3.73 0 0 0 0 .39v.15c0 .05 0 0 0 0v.06a.28.28 0 0 0 .44.18.31.31 0 0 0 .6-.11.11.11 0 0 0 .08 0c6.32-.67 11.64-6.47 18.22-4.42a.05.05 0 0 0 .07 0l.51.42a.14.14 0 0 0 .16 0 1.93 1.93 0 0 1 .59.28c.15.11.22.18.41.17a.16.16 0 0 0 .15-.18.09.09 0 0 0 .14-.11 8.57 8.57 0 0 0-.53-.93c-.21-.37-.43-.73-.68-1.08 0-.07-.16 0-.12.07.27.47.48 1.06.79 1.55h-.09a.2.2 0 0 0-.14-.14.11.11 0 0 0 0-.09c-.23-.4-.55-.77-.81-1.16s-.55-.9-.82-1.35a.06.06 0 0 0-.09.06 20.85 20.85 0 0 0 1 1.87c-.25-.31-.53-.61-.75-.93a10.83 10.83 0 0 0-1.16-1.47c-.07-.07-.16 0-.1.1.41.52.76 1.1 1.13 1.66l.36.55-.2-.15a10.94 10.94 0 0 0-.93-1.11c-.43-.5-.86-1-1.31-1.5-.07-.08-.17 0-.11.11.45.57.89 1.15 1.33 1.73l.07.1-.25-.16c-.59-.62-1.29-1.15-1.87-1.78-.06-.06-.17 0-.12.09a10.88 10.88 0 0 0 .92 1l-.53-.29a3.89 3.89 0 0 0-1.06-.87.16.16 0 0 0 0-.22c-1.44-1.24-3-.61-4.54.18-3.47 1.75-6.95 3.46-10.46 5.13-.13.06 0 .25.12.2l.14-.06a.42.42 0 0 0 0 .35.17.17 0 0 0-.16.17v.1a.13.13 0 0 0-.17.11c0-.14.06-.28.1-.41.07-.22-.4-.42-.52-.12zm15.64-4.35l-.24-.13zm-13.6 4.8h.06v.14zm11.66-5.23zm-1.63 1.16l.11.06-.37.15a.44.44 0 0 0 0-.09zm1.33-1.61zm-11.81 6.83c.06.12.13.22.19.35s.31.16.43 0l.07.11-.7.16a5.9 5.9 0 0 0 .01-.63zm1.26.08a.28.28 0 0 0 .45-.18l.26.22-.7.21c.01-.1 0-.18 0-.26zm1.34-.29l.13-.07.08.09-.17.06zm9.17-3.64l1.07-.13c-.37.07-.75.14-1.12.24a.37.37 0 0 0 .06-.12zm1.73-.26h.21-.27zm3 0c.1.07.21.13.31.2a9.05 9.05 0 0 0-1.06-.18zm-6.45-2.8a.2.2 0 0 0-.1 0l-.28.1a8.37 8.37 0 0 1 1-.41 6.93 6.93 0 0 0-.6.28zm-.87.49l-.42.08.44-.26a.28.28 0 0 0 0 .15zm-6 3a.35.35 0 0 0-.13 0l.53-.24zm14.34-.3a.3.3 0 0 0 .1-.13l.31.26zm1.14.25l-.06-.09.11.08zm.31 0h-.12a.09.09 0 0 0 0-.1l-.1-.15c.09.03.16.12.24.21z" fill="#0d465b"/><path class="cls-1" d="M235.95 167.27v-.07a.1.1 0 0 0-.14.11 2.94 2.94 0 0 1-1 2.85.06.06 0 0 0-.1 0 6.89 6.89 0 0 1-1.2 1 .08.08 0 0 0 0 .06c-.44.29-.88.56-1.28.8v.08c1.61-.79 5.52-2.4 3.72-4.83z" fill="#0d465b"/><path class="cls-1" d="M228.78 112.07c.43.91.68 1.9 1.11 2.81.06.13.26 0 .22-.09A15.93 15.93 0 0 0 229 112c-.1-.17-.28-.06-.22.07z" fill="#0d465b"/><path class="cls-1" d="M228.22 112.93c.23.6.45 1.19.65 1.8 0 .14.27.08.22-.06-.21-.6-.45-1.2-.7-1.79-.04-.1-.21-.06-.17.05z" fill="#0d465b"/><path class="cls-1" d="M225.91 120.66a19.79 19.79 0 0 1 1.33-2.9 11.22 11.22 0 0 1 2-2.33.08.08 0 0 0-.1-.13c-1.84 1.13-2.69 3.38-3.39 5.32 0 .09.13.12.16.04z" fill="#0d465b"/><path class="cls-1" d="M163 116.52c-1.44 1.13-2.8 2.36-4.33 3.37-.09.06 0 .22.09.15 1.55-1 2.93-2.22 4.39-3.34a.12.12 0 1 0-.15-.18z" fill="#0d465b"/><path class="cls-1" d="M166.9 114.16c-2.44 2.14-4.58 4.84-7.66 6.08-.09 0-.05.18 0 .15 3.16-1.14 5.44-3.78 7.81-6 .17-.16-.05-.39-.15-.23z" fill="#0d465b"/><path class="cls-1" d="M173 110.51c.25-.22-.11-.56-.36-.36s-.64.53-.95.81a.12.12 0 0 0-.17-.06c-2.34 1.19-3.78 3.62-5.81 5.22v.08a.12.12 0 0 0 .09.19.11.11 0 0 0 0-.23c2-1.33 3.38-3.4 5.38-4.77-1.58 1.51-3 3.21-4.67 4.57a.13.13 0 0 0-.14-.14.14.14 0 0 0 0 .28c-.31.24-.63.46-1 .67a.11.11 0 0 0-.11.12l-.34.22a.08.08 0 0 0 .08.14l.39-.23-.28.21c-.2.14-.42.27-.62.41a.13.13 0 0 0-.08.05 15.55 15.55 0 0 1-1.92 1.09c-.07 0 0 .16.06.13.34-.14.68-.3 1-.46a10.6 10.6 0 0 1-1.89 1.09 7.67 7.67 0 0 0 2-1c.07-.05 0-.16-.06-.13l.24-.11a.08.08 0 0 0 .07.14h.08a1 1 0 0 0 0 .29l-.56.22c-.11 0-.07.22 0 .18l.6-.21a.65.65 0 0 0 .22.2.09.09 0 0 0 .09-.16.6.6 0 0 1-.12-.11 32 32 0 0 0 8-3.52 27 27 0 0 0 3.19-.68 58.31 58.31 0 0 1 13 .92c3.19.54 6.45 1.46 9.66.64.23-.06.13-.37-.09-.35h-.25a2.73 2.73 0 0 0 .25-.19h.12a.52.52 0 0 0 .51.2c-.22.19-.43.38-.62.56s0 .22.12.15c.45-.34.93-.69 1.37-1.08s.06-.07 0-.09a3.83 3.83 0 0 0 1.39-2.43c0-.06-.1-.08-.11 0a2.39 2.39 0 0 1-.06.24.41.41 0 0 0-.32-.44l-.49-.11.77.15a.17.17 0 0 0 .09-.32 40.42 40.42 0 0 0-5.54-1.34 8.63 8.63 0 0 0-1.21-.2c-2.83-.45-5.68-.73-8.53-1.15a8.63 8.63 0 0 0-2.73-.45c-.85-.16-1.7-.34-2.54-.55a8.2 8.2 0 0 0-2.21-.2 15.64 15.64 0 0 0-1.87-.35c-1.33-.16-2.08.88-2.86 1.86a4.77 4.77 0 0 0-1.15 1.19 2.44 2.44 0 0 1-.46.27c-.05 0 0 .08 0 .1-.36.25-.71.51-1.06.77.89-.56 1.63-1.28 2.41-1.94zm-8.07 7.55a1.07 1.07 0 0 1-.18-.21l.25-.13v.06a.19.19 0 0 0-.07.29zm11.62-6.14l-.68-.09h.6a.44.44 0 0 0 .08.1zm4.26-1a.45.45 0 0 0-.14-.08l.36.06zm-.44-.06l-.35.2.31-.28h.23a.32.32 0 0 0-.19.13zm-1.33-.73v-.07a.56.56 0 0 0 0 .1zm-9.45 4.7c.19 0 .37-.1.55-.16-.59.33-1.12.81-1.69 1.18l-.44.29h-.06a14.31 14.31 0 0 0 1.65-1.25zm16.07-3.59h-.24.25zM164.48 118l.09.12a4.47 4.47 0 0 0-.66.19zm-.33.53a.09.09 0 0 0 0-.08c.23-.05.45-.09.68-.12a1 1 0 0 0 .17.1l-.78.3a.91.91 0 0 1-.07-.22zm1.17-.23a.13.13 0 0 0-.09 0 .62.62 0 0 1-.16 0 2.39 2.39 0 0 0 1.46-.54 3.69 3.69 0 0 0 1.08-.48 4.38 4.38 0 0 0 1.52-.46 12.77 12.77 0 0 0 1.26-.56 6.2 6.2 0 0 0 1.06-.63h.36a43.39 43.39 0 0 1-6.49 2.65zm12-4.06a.51.51 0 0 0 0 .13h-.58zm-2.17-4.95a1.92 1.92 0 0 1 1.31-.31l-.45.1a1.78 1.78 0 0 0-.37.06 1.66 1.66 0 0 0-.43.2l-.22.09z" fill="#0d465b"/><path class="cls-1" d="M220.5 202.23c1.13.08 3.15-1.67 4.05-1a.11.11 0 0 0 .13 0 18.94 18.94 0 0 1 2.11-1 .1.1 0 0 0-.1-.17l-1 .1a.11.11 0 0 0-.13 0c-.88.86-.46 0-1.65.37-2.67.8-4.88 1.57-7.73.34-2.63-1.13-5-2.85-7.91-2.91v.07c3.39.11 5.68 2.39 8.71 3.45a12.71 12.71 0 0 0 3.52.75z" fill="#0d465b"/><path class="cls-1" d="M228.61 199.47c0-.08-.1-.13-.14-.06-.17.31-.47.87-.92.66a.06.06 0 0 0-.06.1c.51.31.96-.27 1.12-.7z" fill="#0d465b"/><path class="cls-1" d="M229.43 199.62v0z" fill="#0d465b"/><path class="cls-1" d="M209.7 192.32a15.45 15.45 0 0 0 4.5-.8v-.05a17.57 17.57 0 0 1-4.49.77s-.06.08-.01.08z" fill="#0d465b"/><path class="cls-1" d="M215.2 192s-.07.05 0 .07a2.23 2.23 0 0 1 .74.9c.05.08.18 0 .13-.07a2 2 0 0 0-.87-.9z" fill="#0d465b"/><path class="cls-1" d="M216.57 191.74a2.38 2.38 0 0 0 .59 1.38c.05 0 .17 0 .14-.08-.18-.45-.41-.87-.56-1.35a.09.09 0 0 0-.17.05z" fill="#0d465b"/><path class="cls-1" d="M217.6 191.53c.22.45.42.91.67 1.35 0 .09.17 0 .13-.08-.2-.46-.45-.9-.68-1.34-.04-.09-.16-.02-.12.07z" fill="#0d465b"/><path class="cls-1" d="M220.75 192.35a.07.07 0 0 0-.12.07 1.12 1.12 0 0 0 .47.48c.09.05.17-.09.08-.14a1 1 0 0 1-.43-.41z" fill="#0d465b"/><path class="cls-1" d="M229 192.7c0 .1.12.14.16 0a7.46 7.46 0 0 0 .29-1s0-.06-.06 0a7.71 7.71 0 0 0-.39 1z" fill="#0d465b"/><path class="cls-1" d="M230.4 192.14l.09.05a3.76 3.76 0 0 0 .46-1c0-.07-.08-.1-.11 0a6.2 6.2 0 0 1-.44.95z" fill="#0d465b"/><path class="cls-1" d="M232.28 190.78a3.16 3.16 0 0 0-.67 1.14.07.07 0 0 0 .11.07 6.24 6.24 0 0 0 .69-1.13c.05-.09-.07-.16-.13-.08z" fill="#0d465b"/><path class="cls-1" d="M204.47 113.51c-.68.66-1.35 1.34-2 2a.08.08 0 0 0 .12.12c.69-.66 1.37-1.32 2-2a.11.11 0 0 0-.12-.12z" fill="#0d465b"/><path class="cls-1" d="M206.5 113.74c-.9.82-1.73 1.71-2.69 2.47-.08.07 0 .21.11.15a18.71 18.71 0 0 0 2.71-2.48.09.09 0 0 0-.13-.14z" fill="#0d465b"/><path class="cls-1" d="M207.05 115.67a9.42 9.42 0 0 0 2.53-1.75c.14-.14-.08-.36-.21-.22a10.89 10.89 0 0 1-2.4 1.83c-.09.05.03.19.08.14z" fill="#0d465b"/><path class="cls-1" d="M203 167.36v-.35h-.06c-.05.14-.08.29-.11.43a.09.09 0 0 0 .09.12c.25 0 .3.22.43.37s.22 0 .14-.14-.28-.43-.49-.43z" fill="#0d465b"/><path class="cls-1" d="M186.3 122a12.84 12.84 0 0 1 5.57 2.66 39.85 39.85 0 0 1 3.64 3.94c.07.08.23 0 .16-.12-2.53-3.31-5-6.1-9.35-6.57l-.02.09z" fill="#0d465b"/><path class="cls-1" d="M196.41 127.8c.15.94.71 1.75.86 2.7 0 .13.21.08.19-.05-.17-.95-.72-1.75-.93-2.68-.01-.09-.13-.05-.12.03z" fill="#0d465b"/><path class="cls-1" d="M233.43 121.61a19.68 19.68 0 0 0-3.13 5s.05.06.07 0a30.28 30.28 0 0 1 3.15-4.91c.03-.07-.05-.14-.09-.09z" fill="#0d465b"/><path class="cls-1" d="M195.5 126c.05.1.21 0 .15-.09a5.87 5.87 0 0 0-3-3.16c-.08 0-.12.1 0 .13a5.81 5.81 0 0 1 2.85 3.12z" fill="#0d465b"/><path class="cls-1" d="M196.8 125.18c-.07-.14-.28 0-.21.12a2.9 2.9 0 0 0 1.18 1.36.09.09 0 0 0 .09-.16 3.49 3.49 0 0 1-1.06-1.32z" fill="#0d465b"/><path class="cls-1" d="M146.4 147.18c-3 .4-4.54-2.36-4.77-4.93a58.42 58.42 0 0 1 .21-6.54.07.07 0 0 0-.14 0c-.09 2.84-1.17 7 .36 9.65a4.34 4.34 0 0 0 2.11 2c.87.45 4.66-.58 6.28.34a3.15 3.15 0 0 0-1.87-.69 10.17 10.17 0 0 0-2.18.17z" fill="#0d465b"/><path class="cls-1" d="M150.45 147.69a2.86 2.86 0 0 1 .59.61 1.38 1.38 0 0 0-.59-.61z" fill="#0d465b"/><path class="cls-1" d="M152.74 155.86c3.15 3.81 7.51 6.08 9.29 11 0 .09.17.05.14 0-.87-2.87-2.66-4.84-4.84-6.82-1.28-1.16-2.57-2.26-3.76-3.51-2.1-2.22-2.21-4.3-2.18-7.13a1.7 1.7 0 0 0-.35-1 2 2 0 0 1 0 1.46 6.87 6.87 0 0 0 1.7 6z" fill="#0d465b"/><path class="cls-1" d="M169.24 197.28c0 .52.28 1 .3 1.49h.06c0-.52-.28-1-.3-1.49 0-.04-.06-.04-.06 0z" fill="#0d465b"/><path class="cls-1" d="M166 180.84a39.32 39.32 0 0 0-2.09-8.09c0-.07-.14 0-.12 0a46.6 46.6 0 0 1 2.09 8.07c.06.1.12.09.12.02z" fill="#0d465b"/><path class="cls-1" d="M147.6 110.32a.12.12 0 0 0 0 .25.12.12 0 0 0 0-.25z" fill="#0d465b"/><path class="cls-1" d="M197.64 127.8a9.52 9.52 0 0 1 .68 1.65.1.1 0 0 0 .19-.05 4.11 4.11 0 0 0-.82-1.64s-.06.01-.05.04z" fill="#0d465b"/><path class="cls-1" d="M223.35 182.18c-.3.89-.65 2 0 2.85s1.89.83 2.76.82a.08.08 0 0 0 0-.15 3.74 3.74 0 0 1-2.56-.69c-.72-.7-.36-2-.11-2.82-.03-.03-.08-.04-.09-.01z" fill="#0d465b"/><path class="cls-1" d="M157.5 93.71a19.11 19.11 0 0 1-4.23-2.44c-.14-.09-.27.13-.13.22a15.23 15.23 0 0 0 4.29 2.5.15.15 0 0 0 .07-.28z" fill="#0d465b"/><path class="cls-1" d="M156.43 89.45a.17.17 0 0 0-.17.29 41.42 41.42 0 0 0 4.74 2.91c.14.05.26-.16.15-.25a41 41 0 0 0-4.72-2.95z" fill="#0d465b"/><path class="cls-1" d="M170.76 78.1a.09.09 0 0 0-.13.13c1.34 1.35 2.7 2.68 4 4.07.12.13.32-.07.19-.19-1.38-1.31-2.72-2.67-4.06-4.01z" fill="#0d465b"/><path class="cls-1" d="M173.54 70.15a28.53 28.53 0 0 0 3.56 4.07.14.14 0 0 0 .19-.19c-.57-.71-1.28-1.33-1.9-2s-1.16-1.33-1.72-2c-.08-.1-.2.03-.13.12z" fill="#0d465b"/><path class="cls-1" d="M195.88 63.29c-.11-.09-.27.06-.16.15 1.13.91 2.41 2.18 3.85 2.53.15 0 .26-.19.11-.26a20.51 20.51 0 0 1-3.8-2.42z" fill="#0d465b"/><path class="cls-1" d="M199.24 62.62c-.1-.08-.24.06-.14.14 1.25 1.05 3 2.62 4.66 1.45a.2.2 0 0 0-.2-.35c-1.71.93-3.03-.18-4.32-1.24z" fill="#0d465b"/><path class="cls-1" d="M195 232.29s.09-.05 0-.07c-7.52-3.46-15.52-9.64-18.5-17.62 0-.07-.14 0-.11 0 2.95 8.07 10.98 14.29 18.61 17.69z" fill="#0d465b"/><path class="cls-1" d="M203.93 168.45a.93.93 0 0 1-.94.33.06.06 0 0 0 0 .12.94.94 0 0 0 1.09-.36c.02-.06-.08-.15-.15-.09z" fill="#0d465b"/><path class="cls-1" d="M204 170.12a5.24 5.24 0 0 0 2.25-.9v-.07a6.41 6.41 0 0 1-2.23.9c-.1-.05-.07.07-.02.07z" fill="#0d465b"/><path class="cls-1" d="M149.92 226.15c-.91-.6-1.58-2-2.18-2.93-.79-1.17-1.54-2.37-2.32-3.55 0-.07-.16 0-.11.06.9 1.37 1.74 2.76 2.6 4.15a8 8 0 0 0 1.87 2.52c.15.11.3-.15.14-.25z" fill="#0d465b"/><path class="cls-1" d="M138.37 131.37c.08.06.18-.07.1-.14-1.83-1.54-3.46-3.24-5.15-4.93a.09.09 0 0 0-.13.13 39.61 39.61 0 0 0 5.18 4.94z" fill="#0d465b"/><path class="cls-1" d="M134.82 114.83a.12.12 0 0 0 0-.25.12.12 0 0 0 0 .25z" fill="#0d465b"/><path class="cls-1" d="M175.49 314.93c7.53-20 10.72-41.41 23.5-59.05.21-.29-.28-.66-.5-.38-13.38 17.2-16.64 39.17-23.18 59.39-.03.11.14.11.18.04z" fill="#0d465b"/><path class="cls-1" d="M282.73 312.83c-7.49-4.32-16.57-4.66-24.5-7.76-4.4-1.71-8.71-3.64-13.12-5.35a34.09 34.09 0 0 1-3.45-2.3 21.86 21.86 0 0 1-4.68-5.2 5.3 5.3 0 0 1 1.32-2.51c1.79-1.43 3.63-2.75 5.49-4.05.64-.21 1.28-.43 1.91-.66a31.63 31.63 0 0 0 8.64-5c1.37-1 2.66-2.07 3.88-3.1 10.51-8.79 15-23.13 14.34-36.46a.3.3 0 0 0-.29-.29 19.59 19.59 0 0 0-.38-2.22.19.19 0 0 0 .12-.17c.15-3.3-2.47-5.73-5.11-7.25a.08.08 0 0 0-.08.15 11.84 11.84 0 0 1 3.57 3.08 6.14 6.14 0 0 1 1 2.76c-1.17-2.79-3.68-4.47-6.33-4.05 2.09-3.85 2.2-9.57 1.79-13.06v-.06a22.84 22.84 0 0 0 .94-6.91c.38-.71.8-1.41 1.25-2.1a1.71 1.71 0 0 0 .8-.47c3.23-3.28 5.88-6.71 7.35-10.75.06-.12.13-.24.18-.36a9.81 9.81 0 0 0 .86-3.9c.08-.55.14-1.1.17-1.68.31-5.37-1.75-11.6-4.39-16.64a30.31 30.31 0 0 1 1.33-4c2-5 4.18-9.49 5-14.85a43.51 43.51 0 0 0-.65-14.28 28.39 28.39 0 0 0-5.77-13 43.38 43.38 0 0 0-5.22-5l-.88-1a14.29 14.29 0 0 0-.66-7.8v-.19a3.23 3.23 0 0 0-1-2.09l-.12-.13a19.74 19.74 0 0 0-1.87-2.47 8.84 8.84 0 0 1-.75-4 .34.34 0 0 0 .23-.25c.22-.83.48-1.64.76-2.44 1.65-3.77 3.11-7.58 5.11-11.22a1.86 1.86 0 0 0 .23-1.19c.07-.17.13-.34.19-.51a7.82 7.82 0 0 0 1.25-3.69c0-.14.09-.27.12-.4a9 9 0 0 0-.64-6.41c-1.72-3.8 0-7.69-.73-11.69a10.74 10.74 0 0 0-3.85-6.8c-2.38-3.48-6.41-5.24-10.57-5.8-.17-.23-.36-.43-.54-.64a10.15 10.15 0 0 0-4.6-6.15 35.13 35.13 0 0 1-3.6-4.82 27.77 27.77 0 0 0 .31-4.5 27.17 27.17 0 0 0 .17-4.19 13.07 13.07 0 0 0-.34-3.21c-.63-3.43-2.13-6.41-4.73-8-4.5-4.64-11.47-8.4-18.83-11.4a17.59 17.59 0 0 0-7-2.91 2.69 2.69 0 0 0-.86 0l-3-1a37.82 37.82 0 0 0-17.81-4.82 139.59 139.59 0 0 0-27.34-3.68 79.45 79.45 0 0 0-11-1.67 61 61 0 0 0-29.09 4.19 1 1 0 0 0-.6.7l-1.84.54c-2.82.85-5.59 1.82-8.32 2.87-1.54.47-3.08.95-4.61 1.46-10.55 3.48-20.89 8.58-28.96 16.33a38.47 38.47 0 0 0-8.66 12.37 37.33 37.33 0 0 0-2.6 8q-.62 1.11-1.27 2.21a49.44 49.44 0 0 0-10.77 12.76 60 60 0 0 0-6.87 17c-1.72 7.44 1.61 15.08.71 22.57a1 1 0 0 0 .29.89C50.3 108 47 113.92 46.17 120.77c-1.16 9.15 4.73 15.58 9.59 22.51 2.9 4.14 3.89 8.39 2.48 13.26a19.45 19.45 0 0 1-2.29 4.84c-5.75 4.83-11.06 10.07-11.57 18.21-.44 6.95 4.51 14 7.8 19.67 2.11 3.66 5.51 8.69 5.33 13-1.94 3.23-5.37 5.91-8.3 8.07-4.86 3.6-10 7.23-13.69 12.06a14 14 0 0 0-.06 17.72 16.39 16.39 0 0 0 6.9 4.8c-2.92 2.85-14.63.92-14.32 8.63.22 5.44 5.25 9.44 9.83 11.26 3.23 1.28 6.7 1.62 9.73 3.4s4 4.94 5.22 8v.2q-1.38 1.14-2.79 2.21a1 1 0 0 0-.16.08L48 290.15a111 111 0 0 1-20.24 11.29c-3.09 1.13-6.23 2.13-9.38 3.08-5.56 1.68-12.13 5.72-18 5.36a.39.39 0 0 0-.1.76c4.24.92 8.4 0 12.46-1.25 6.39-1.92 12.88-3.39 19.16-5.68 7.65-2.79 15.3-8.72 23.58-7.31a28.26 28.26 0 0 0 5 7.22c5.08 5.39 11.4 8 18 10.3 2.52 1.33 4.64 3.05 2 6.25-2.48 3-7.43 3.72-10.9 4.9-2 .67-6.32 2.27-8.8 4.45a8.32 8.32 0 0 0-4.5 3.7c-1.45 2.52-.38 5.95 1.4 8a20.3 20.3 0 0 0 4.6 3.77 31.21 31.21 0 0 0 3 1.94 5.22 5.22 0 0 1-4.86-3c-.11-.21-.43 0-.32.19a5.62 5.62 0 0 0 5.87 3.17c5.45 3 12 5 15 5.35 2.41.26 4.83.4 7.25.49 1.61 1.39 3.46 3.1 3.66 5.24a.09.09 0 0 0 .19 0c0-2-1.32-3.85-2.85-5.2l4.42.13a148.92 148.92 0 0 0 6.84 19.07q-.66.54-1.31 1.11c-.18.16.08.39.25.25.41-.32.83-.62 1.25-.92a149 149 0 0 0 27.67 41.85c.13.13.32-.06.2-.2a190.18 190.18 0 0 1-16.07-21.38.26.26 0 0 0 .06-.33 167.23 167.23 0 0 1-9-21.81c5.56-3.4 11.9-6.13 16.62-10.46a13.94 13.94 0 0 1 1.82 2.28c-5.65 3.17-10.77 7.44-16 11.19-.14.1 0 .34.14.24 5.36-3.64 10.76-7.21 16.15-10.79a22.21 22.21 0 0 1 .86 9.88c-.51 3.07-2.41 6.83-5.44 8-4.42 1.73-7.64-3-4.27-6.58a.27.27 0 0 0-.38-.39c-3.57 3-4 8.06 1.24 9.81 7.16 2.4 12.33-4.66 13.69-10.87 2-9.12-3.29-17.63-5.62-26.11a26.81 26.81 0 0 1-.67-3.44 13.05 13.05 0 0 0 2.94-2.94.32.32 0 0 0 .19.41 47.65 47.65 0 0 0 10.42 2.46 47.25 47.25 0 0 1-3.58 9.11.47.47 0 0 0 .74.57c2-1.91 3.67-5.47 4.61-9.46 5.52.65 11.12.9 16.55 2 .12 0 .17-.15 0-.18-5.41-1.36-11-1.74-16.47-2.45 1.77-8.27.41-18-7.25-18.63a19.91 19.91 0 0 0-.62-3.15 9 9 0 0 0-2-3.4A33.1 33.1 0 0 0 131 317a31.47 31.47 0 0 0 11.06.54c.45-.05.48-.73 0-.73a67.56 67.56 0 0 1-9.47-.44 70.79 70.79 0 0 0 13.57-7.9c4.86-3.45 11.18-9 11.55-15.48v-.35l.17-.32a.49.49 0 0 0-.18-.66c-.22-4-2.59-6.64-6.13-7.11a5.9 5.9 0 0 0-2.64 0c-.21 0-.42.05-.63.09a.56.56 0 0 0-.33.21 8.76 8.76 0 0 0-3.67 2.67 5.66 5.66 0 0 0-1.23 4c.13 1.32 1.44 2.44 2.51 3.09a.42.42 0 0 0 .57-.58 4.11 4.11 0 0 1 .91-4.83c1.39-1.44 3.57-1.62 5.45-1.8h.1a7.07 7.07 0 0 1 1 3.74c.1 1.81-1.23 3.54-2.55 4.95a1.12 1.12 0 0 0-1.18.39 5.64 5.64 0 0 1-10.06-1.07c-1.2-3.31-1.15-7.07-1.24-10.54a93.6 93.6 0 0 0 5-14.39c3.41-14.21 1.89-28.95.25-43.37 1.55 2.56 2.68 5.44 4.76 7.61.07.08.21 0 .15-.12-1.89-2.5-3.2-5.35-5-7.92l-.38-3.34.32-.65a34.85 34.85 0 0 1 3.42 5.31c.25.42 1.14 2.44 1.88 2.25a.13.13 0 0 0 0-.25c-.66 0-2.2-3.2-2.49-3.68a23.64 23.64 0 0 0-2.67-3.81 51.8 51.8 0 0 0 2.56-6.21c2.1 2.29 3 5.48 5.2 7.63.09.09.26 0 .18-.14-1.66-2.56-3.14-5.49-5.33-7.66q.76-2.28 1.31-4.61c1.84 1.93 2.86 4.49 4.75 6.42.07.08.21 0 .15-.11-1.55-2.14-2.89-4.67-4.85-6.5.28-1.2.52-2.41.71-3.63.83 1.19 1.58 2.45 2.36 3.67a8.81 8.81 0 0 0 2.55 3 .09.09 0 0 0 .11-.14c-2.06-1.93-3.34-4.49-5-6.76.16-1 .28-2 .38-3.06a82.32 82.32 0 0 0 5.35 7.58c.11.13.29-.06.18-.18-2.05-2.4-3.64-5.14-5.51-7.68q.18-2 .21-4.07a86.49 86.49 0 0 0 6 8.67c.1.12.27 0 .28-.12.08-.84.05-.21-.37-1.22a.09.09 0 0 0-.18.05c.38 1.62-1.45-1.37-1.36-1.25-.77-1-1.47-2.13-2.18-3.21s-1.42-2.15-2.16-3.2q0-1.94-.1-3.87a58.26 58.26 0 0 0 7.31 9.19.11.11 0 0 0 .16-.16 79.66 79.66 0 0 1-7.49-9.37q-.14-2.17-.45-4.32c2.62 3.69 5 7.53 7.76 11.14.09.11.28 0 .2-.11-2.73-3.79-5.27-7.71-8-11.48-.24-1.54-.54-3.07-.91-4.59 3.09 3.84 6.16 7.7 9.17 11.61a51.73 51.73 0 0 1-2.16 17.79c-2.59 9-6.4 17.59-7 27.08 0 .26.38.25.4 0 1.1-9.85 5.06-18.94 7.76-28.4a47 47 0 0 0 1.84-15.47c.09.07.24 0 .16-.13l-.19-.27a44.32 44.32 0 0 0-1.89-10.32c-2.69-8.73-8.31-15.8-14.11-22.66-3.47-4.1-6.61-8-8-13.23 1.3-7.12 5.1-13.24 6.48-20.58a17.61 17.61 0 0 0-1.34-9.86c-2.24-5.73-4.2-8.8-.84-14.89a.1.1 0 0 0-.17-.1c-1.84 3-3 5.73-2.14 9.25 1.11 4.7 3.6 8.14 3.8 12.82-1-.27-2.39-2.49-2.88-3.11-1.15-1.43-2.22-2.92-3.33-4.38-.06-.08-.21 0-.15.09 1.17 1.59 2.3 3.2 3.51 4.75.52.68 1.78 2.75 2.86 2.94a14.38 14.38 0 0 1-.13 2.28 30.86 30.86 0 0 1-2.25 7.56 49.56 49.56 0 0 0-4.75-6.2c-.07-.09-.2 0-.13.13 1.6 2.07 3.17 4.13 4.63 6.29a.15.15 0 0 0 .12.07 81.19 81.19 0 0 0-3.91 10c-.37-2.47-.5-5-.74-7.49.72.78 1.35 1.62 2.08 2.4.13.13.36 0 .25-.2a13.68 13.68 0 0 0-2.37-2.63c-.11-1.11-.25-2.21-.44-3.29a.07.07 0 0 0-.07-.06v-.66c1 1.11 2 2.22 2.87 3.42a.11.11 0 1 0 .17-.13c-1-1.22-2-2.36-3-3.5 0-2.4.14-4.79.25-7.14a45.62 45.62 0 0 0 5.78 5.23c.12.09.28-.12.16-.21-2.08-1.66-4-3.48-5.93-5.28v-.17a76.12 76.12 0 0 1 1.57-12.09c1.11 1.6 2.29 3.15 3.42 4.73.14.19.45 0 .32-.19-1.1-1.72-2.44-3.27-3.67-4.9.39-1.78.87-3.54 1.41-5.28q1.19-2.69 2.57-5.29a50.21 50.21 0 0 1 4.22-6.43 4.22 4.22 0 0 0 1.24.75 17.63 17.63 0 0 0-5.13 5.5c-.07.12.11.22.19.11a22.26 22.26 0 0 1 8-6.52 13.94 13.94 0 0 1 .13 6.9c0 .05.07.08.09 0a13.48 13.48 0 0 0-.13-7c7.61-3.84 17.06-4.89 24.12-9.74 4.78-3.29 7.14-8.64 8.14-14.16.72-4 .62-7.47 4.22-10.07a10.66 10.66 0 0 1 3.15-1.49q1.18-.09 2.34-.25c1 .6 2 1.2 3 1.74-2.09-.38-4.09-.8-5.84-1.05-.09 0-.13.12 0 .14 6 1.32 12.73 3.61 18.83 1.71a11.83 11.83 0 0 0 5.32-3.58c1.67-1.89 2.31-4.86 4-6.78l.3.13c.33.13.5-.37.23-.55h-.08l.32-.28a2.43 2.43 0 0 0 1.76-.48l.09-.07c5.07 2.62 10.94 5.37 16.42 5.33.56.26 1.13.5 1.7.71v.88c-.13-.27-.24-.54-.38-.81s-.48 0-.36.21c.3.63.57 1.26.83 1.9a22.39 22.39 0 0 0 3.36 9.15A63.65 63.65 0 0 0 247 86.53a46.2 46.2 0 0 1 2.57 5.71c1.63 4.42.7 9.32 1.56 13.9.17.92.37 1.81.57 2.67-.25-.45-.53-.89-.79-1.33a.07.07 0 0 0-.11.07c.39.71.71 1.49 1.12 2.2a21.85 21.85 0 0 1 .69 7.52c-.35 3.15-.91 6.23-.07 9.25 1.13 8.58 4.73 16.66 5.42 25.35.84 10.67-4.16 21.1-6.53 31.38l-.38 1.18c-2.3 7.13-5.31 15-6.83 22.88a127.45 127.45 0 0 0-4.76 14.74c-1.83 5.21-3.55 9.92-8.56 13.33a22 22 0 0 1-10 3.38 10.26 10.26 0 0 0-3.34-.26l-.48-.05a.29.29 0 0 0-.27-.22 73.54 73.54 0 0 1-12.57-1.87c-.23-.79-.57-1.56-.85-2.32h-.08c.23.74.4 1.51.67 2.24l-1.79-.45a25.54 25.54 0 0 0-.57-2.72c0-.08-.15 0-.12 0 .26.86.33 1.76.5 2.64-15.58-4.08-30.72-12.46-44-20.39-.13-.08-.24.12-.12.2 9.36 5.9 18.58 11.66 28.72 16.15A127.44 127.44 0 0 0 202 238c.56.32 1.11.66 1.65 1a.34.34 0 0 0 .21.27c.33.16.63.34.94.52.53.39 1 .81 1.52 1.24l-.61-.42a43.14 43.14 0 0 0-5.64-3.12c-.1 0-.18.09-.08.15a52.93 52.93 0 0 1 4.63 2.94 18.85 18.85 0 0 1 3.1 2.78l-.07.06a20.6 20.6 0 0 0-4.28-2.57c-2.27-1.17-4.45-2.53-6.68-3.77v.08c3.53 2.21 7.29 4.07 10.57 6.63-.26.23-.51.47-.76.72-3.34-2.29-7.07-4-10.29-6.44-.09-.06-.2.05-.12.12 3.17 2.53 6.87 4.24 10.16 6.58a32.78 32.78 0 0 0-5.44 8.62.18.18 0 0 0 0 .08 6 6 0 0 1-1.05-2.68.13.13 0 0 0-.25 0 7.21 7.21 0 0 0 1.75 4.13c.15.19.46 0 .33-.19s-.44-.73-.67-1.09a.17.17 0 0 0 .22-.07c1.8-2.9 3.42-5.85 5.67-8.19-5.1 7.39-6.17 19.2-6.06 26.85a46.31 46.31 0 0 0 1.06 9c-3.11 3.05-5.53 6.7-8.51 9.87-.08.08 0 .2.12.12 3.07-3 5.5-6.61 8.44-9.76.64 3 1.5 5.93 2.42 8.87a11 11 0 0 1-3.34 2c-.2.07-.11.38.09.31a8.93 8.93 0 0 0 3.34-2c.83 2.67 1.71 5.35 2.49 8.09 2.5 8.73 2.47 17.84 1.09 26.74-1.4 2.82-4.25 5.7-3.15 8.83a6 6 0 0 0 1.78 2.67c-11.33 4-22.36 8.23-34.35 10.09-.19 0-.14.35 0 .33a123.36 123.36 0 0 0 34.79-10.05 6.42 6.42 0 0 0 1.24.64c1.07.42 4 .42 4.45 1.64a2.24 2.24 0 0 0 .45.72c-.48 1.92-2 4.1-2.34 5.16-.48 1.36-.82 4.07 0 5.37.64 1 1.32 1.6 1.92 2.37 1.13 3.66.87 6.87.72 10.88-.19 5.21 0 9.94-4.86 13.13a.72.72 0 0 0 .72 1.23c7-3.66 7.58-10.07 8.35-17a.63.63 0 0 0 1.06.14c1.36-1.54 2.47-3.13 2.14-5.31-.53-3.56-1.85-5.86-.8-9.55a13 13 0 0 1 1.87-3.8c1.05 0 2.11-.07 3.16-.09a.14.14 0 0 0 0-.29 12.73 12.73 0 0 1-2.78-.17c2-2.68 4.56-5.06 6.1-7.94 0 3.56.17 7.13 0 10.69-.78 5.12-1.78 10.18-2.81 15.24a65.38 65.38 0 0 1-3 7.93l-.32.57c-1.72 3.09-3.54 6.13-5.41 9.15-.56.76-1.14 1.5-1.74 2.2a.18.18 0 0 0 .17.31q-1.74 2.76-3.5 5.5c-8.46 13.21-17.92 26.49-30.08 36.55-.45.38.15 1.16.63.82 13.32-9.69 23.06-23.86 31.79-37.61 2.73-4.3 5.43-8.68 7.92-13.15.69-1 1.34-2.11 2-3.21a.38.38 0 0 0 .57-.19q.63-1.61 1.22-3.26a73.38 73.38 0 0 0 5-14.47 50.71 50.71 0 0 0 1.26-8.76c1.52-7.54 2.66-15.15 3.62-22.48a1.35 1.35 0 0 0 0-.5 9.7 9.7 0 0 0 2.18-6 3.35 3.35 0 0 0-3-3.11 15.5 15.5 0 0 1-3.21-1.59 4.1 4.1 0 0 1-2-1.8c-.11-1.14-.16-2.13-.15-2.33a28.74 28.74 0 0 1 .72-5.1 47.36 47.36 0 0 1 7.58 1.36c5.65 1.47 11 3.89 16.46 6 9.15 3.63 19 2.87 28.14 6.15.37.18.54-.38.27-.55zm-121.31-228a.07.07 0 0 0 0 .1 86.15 86.15 0 0 0 7.08 5.32c-5.24 3.52-12 4.77-18.07 6.93a.17.17 0 0 0-.07-.13c-1.17-.82-2.33-1.64-3.47-2.5l2.5-1.65a32.75 32.75 0 0 0 4.61 2.27c.24.09.34-.29.1-.38a43.43 43.43 0 0 1-4.48-2c1.54-1 3.06-2 4.54-3s2.65-1.8 3.91-2.72c2.59 1.48 4.75 3.78 7.59 4.74a.16.16 0 0 0 .13-.3c-2.64-1.31-4.9-3.25-7.53-4.58.71-.52 1.4-1 2.07-1.58zm40.26-47.57c.21 4.9-5 9.35-8.26 12.38a16.67 16.67 0 0 1-4.53 3c.85-1 1.65-2 2.43-2.83a72.62 72.62 0 0 0 7.68-9.57 25.71 25.71 0 0 0 2.5-4.83 15.43 15.43 0 0 1 .18 1.87zM139 170.76l-.15-.14a.09.09 0 0 0-.13.13l.47.46c3.55 8.05 4.54 17.4 4.37 26a48 48 0 0 1-3.5 17l-1.11 1.2a39.73 39.73 0 0 0 3.83-12.14c1.55-10.68-1.14-21.54-4-31.75q-.44-1.55-.89-3.1.56 1.14 1.11 2.34zM100 359.7c0-.09 0-.18-.06-.26a20 20 0 0 1 8.29-4.63l1 .22q1.16.28 2.3.66a31 31 0 0 0-10.87 6.56q-.29-1.25-.66-2.55zM249.43 61.32l-2.24.09q.7-.28 1.39-.64a2 2 0 0 0 .85.55zM273.82 191c.75 5.64-1.74 10.66-5.15 14.92a26.07 26.07 0 0 0 1.39-2.32 32.51 32.51 0 0 0 3.46-14.29c.11.6.22 1.16.3 1.69zm-7 17.54h-.08l.26-.33a1.77 1.77 0 0 0 0 .23zm-1.67 40.88c-.06.4-.13.8-.2 1.19v-1.37a20.29 20.29 0 0 0-6.44-12.75 8.55 8.55 0 0 0 1.11-.09c4.29 3.6 6.38 7.25 5.58 13.07zM217 330.14a6 6 0 0 0-2.43-2.08l-.31-.18.2-.14a10.18 10.18 0 0 1 2.21.62 4.07 4.07 0 0 1 1.76 4.93 6.59 6.59 0 0 1-.4.75 7.69 7.69 0 0 0-1.03-3.9zm-.22-89.6c-.37.14-.74.26-1.09.42l.87-.44zM262.91 207c-2.53 3.88-5.13 6.76-9.25 4 .07-.63.13-1.27.16-1.9 6 1.08 12.11-9.11 14.17-13.3.15-.31.27-.62.41-.94-.14.69-.3 1.36-.49 2a39.21 39.21 0 0 1-5 10.14zm-39.8 123.48a6.85 6.85 0 0 0-3.6-4.87c2.36-.23 4.19.37 3.84 3.5a12.12 12.12 0 0 1-.24 1.38zm-8.74-89.23a.37.37 0 0 0 .37.11l-.7.33h-.11c-.73.36-1.45.75-2.13 1.17a11.69 11.69 0 0 1 2.57-1.59zm39.33-34.56c0-.22-.06-.45-.11-.67 6.83-6 10.75-14.65 12.83-23.39.08-.33.15-.66.22-1a42.87 42.87 0 0 1-1 7.71c-1.11 4.57-6.12 16.58-11.94 17.37zM214.28 314a14.36 14.36 0 0 1-.19 1.48v-1.15q.35-1.74.67-3.48.28-.49.59-1a2.37 2.37 0 0 0 1 1.17 1.59 1.59 0 0 0 .27 1.37 15.09 15.09 0 0 0-1 3.58q-.7 1.35-1.48 2.65v-1.55a17.42 17.42 0 0 0 .44-3.1c-.03-.13-.29-.13-.3.03zm13-39.62a79.94 79.94 0 0 0 9.79-10.48 86.35 86.35 0 0 0 6.9-10 34.87 34.87 0 0 1-4 10.18c-3.07 5.19-7.68 7.99-12.65 10.31zm5.44-12.86a89.09 89.09 0 0 1-9.57 10.23c-1.48 1.37-3.06 2.65-4.63 4a5.79 5.79 0 0 0-.67-.25c1.1-1.33 2.19-2.67 3.31-4 4.25-5 9.12-9.43 13.61-14.21 1.1-1.18 2.24-2.45 3.38-3.77a64.26 64.26 0 0 1-5.39 8.01zm-3.67-5.88a193.24 193.24 0 0 0-16.48 20.66c.14-1.93.37-3.85.7-5.76a32.94 32.94 0 0 1 1.36-3.19c4.08-8.26 12.38-13.29 19.81-18.15l.22-.14c-1.75 2.28-3.66 4.46-5.57 6.59zm-.6-10.36a2.64 2.64 0 0 0 .94.11l-.89.62a2.86 2.86 0 0 0-.01-.72zM215 252zm34.56 10.9c-2.16 4.52-6.26 8-11.07 10.64a27.63 27.63 0 0 0 4.51-4.84 37.43 37.43 0 0 0 6.06-13.9 79.11 79.11 0 0 0 1.6-9.12c0 .23.09.45.13.67 1.05 5.55 1.21 11.37-1.26 16.56zm-21.26 18.56c.66-.08 1.32-.18 2-.3q-1.06 1.71-2.24 3.39c-4.22 3.51-8 7.44-10.31 12.06a41.93 41.93 0 0 1 3.23-8.09c1.84-3.52 4.57-4.66 7.29-7.05zM220.16 323v.1h-.18zm3.73-3.62a1.78 1.78 0 0 0-.52 1.29 6.5 6.5 0 0 0-1.42.36 32.41 32.41 0 0 0 2.07-2.79 6.7 6.7 0 0 0-.13 1.09zm38-139.3a58.3 58.3 0 0 1-7.06 18.5c.19-1 .41-1.92.68-2.86a116.77 116.77 0 0 1 4.58-12.32c.71-1.72 1.42-3.44 2.12-5.16-.06.57-.16 1.18-.27 1.76zM213 292.94a39.53 39.53 0 0 1 1.68-9.28 5.89 5.89 0 0 1 .24-.58c1.24-.18 2.5-.4 3.77-.66a42.11 42.11 0 0 0-5.37 11.26c-.19.59-.36 1.19-.5 1.78.1-.85.18-1.7.18-2.52zm42.06-30.47a29.74 29.74 0 0 0 1.4-11.65 71.05 71.05 0 0 0-1.47-9.69c0-.16-.06-.33-.09-.5a18.75 18.75 0 0 1 3.79 6.83c1.59 5.44-.33 10.54-3.59 15zm-6.73-37.11a.56.56 0 0 0-.37-.15c-.06-.78-.14-1.57-.21-2.35.13.28.27.55.41.81a16.17 16.17 0 0 0 .22 1.69zm9.41-9.74a1.16 1.16 0 0 0-.33 0 4.82 4.82 0 0 0-1.76.43 2.27 2.27 0 0 0-.14-.9 4.72 4.72 0 0 0 3 .06c-.22.12-.51.27-.72.41zm16-64.37a14.45 14.45 0 0 1 0 1.51 2 2 0 0 0-.66 1.4c0 .38-.06.75-.1 1.12-1.54-3.59-2.58-7.42-4.18-11-2.16-4.83-4.48-9.6-6.69-14.41l-.57-1.73.12-.09c2.44 5.41 6.2 10.35 8.31 15.82 1 2.55 1.95 5.17 3.94 7a.6.6 0 0 0-.11.38zm-8.44-63.8c-.26.41-.52.82-.8 1.2a12 12 0 0 0-5.49-4.48 45.22 45.22 0 0 1-5.67-2.71c2.07.66 4.15 1.28 6.19 2 2.82.94 4.02 2.23 5.83 3.99zM255.83 89c2.12 1.13 4.06 2.42 4.37 4.83a18.24 18.24 0 0 0-4.37-4.83zm-.72 4.79zm7.16 33zm.62-49.27a3.92 3.92 0 0 1 .84 1.2A51.86 51.86 0 0 0 257.4 77c-6.23-1.42-13.75-2.47-16.73-8.19a42.51 42.51 0 0 0 8.64 3.64c3.35 1.1 6.78 1.93 10.1 3.13a10.59 10.59 0 0 1 3.49 1.97zM216.43 239zm42-18.92a20 20 0 0 0 3.39-2.33 20.83 20.83 0 0 1-1.22 2.9c-.94 1.79-2.42 3.37-4.55 3.46s-3.49-1.59-4.26-3.5c1.74.91 4 .87 6.68-.61zM273 138.85a1.29 1.29 0 0 0 .26.2 18.59 18.59 0 0 1 1.76 6.53c-1.21-2.06-2-4.66-3.23-6.38-2.59-3.67-5.51-7.08-8.2-10.68 2.99 3.76 6.48 7.19 9.41 10.33zm-41.89-89.43c2.64-2.87 3.79-7.08 4.23-10.83a23.08 23.08 0 0 0-1.59-10.69l.32.11a2.08 2.08 0 0 0 .49.08 20 20 0 0 1 4 11.51c.01 4.94-3.04 8.4-7.45 9.82zm-176 66.33l1.5-2.58a31.38 31.38 0 0 0 .34 3.43 47.48 47.48 0 0 0-.56 13.81 28.85 28.85 0 0 1-1.81-8.13 23.44 23.44 0 0 1 .52-6.53zM169 49.74c1.52 2.24 1 5 .57 7.51a.2.2 0 0 0 .1.21l-.38.54c0-.1 0-.21-.07-.31 2-4.62-4-9.38-7.23-11.88-.09-.07-.22 0-.13.13 2.65 2.51 7.19 6.26 6.81 10.22-.09-.21-.18-.42-.28-.62a2.42 2.42 0 0 0-1.39-1.12c-3.81-7-11.55-9.37-19-11.28-.67-.17-1.34-.32-2-.46a96.33 96.33 0 0 1 14.52 2.39c3.82.91 9.42 2.2 10.87 6.39.59 1.7-.14 3.57-1.31 5.41.42-2.44.66-5.15-.86-7.25-.08-.11-.28 0-.22.12zm-4.2 14.16a3 3 0 0 0-.21 2.58c-.12.76-.27 1.5-.43 2.22-1.18 5.35-5 13.76-11 15.64.88-.85 1.72-1.69 2.51-2.48 2.88-2.92 4.43-6.61 5.61-10.47.63-2.07 1.16-4.17 1.8-6.23a18.15 18.15 0 0 1 1.74-3.73 16.58 16.58 0 0 1 0 2.3zm-30.62 212.44a2.49 2.49 0 0 0 .3.88 96 96 0 0 0-4.07 12.22c-.4.89-.79 1.8-1.18 2.72a51.43 51.43 0 0 1 1.24-5.82c1-3.62 2.28-7.17 3.63-10.68.03.23.05.46.08.68zm-86.91-8.55a2.38 2.38 0 0 1 .92-1.54 32.25 32.25 0 0 1 4.32-2.61h.21a16 16 0 0 0-.94 2.74 2.06 2.06 0 0 0 .62 2.08 2.13 2.13 0 0 0-.84.08c-.22.07-.45.15-.68.24-1.2-.38-2.4-.7-3.61-.99zm14.65-144.5c-.11-8.34 3.49-16.34 8.12-23.1a59.77 59.77 0 0 1 6.22-7.54 76.71 76.71 0 0 0-11.55 20.17 53.12 53.12 0 0 0-2.77 10.8c-.01-.11-.02-.22-.02-.33zm88-43.63zm-36 264.34a1.22 1.22 0 0 0-.72.21 12.1 12.1 0 0 1-1.9.87l-.29.12-.53-.11a11.47 11.47 0 0 0 1-2c1.44-2.35 1.67-5.28 1.19-8.42a44.24 44.24 0 0 0-.47-4.78 66 66 0 0 1 1.72 14.11zM90 334.12l.31-.8 1.08-.42q-.72.6-1.39 1.22zm16.42-2.75c.09-.32.17-.64.25-1A16.3 16.3 0 0 1 107 332c.28 2.23.82 6.58-.3 9.4.6-3.3 1.15-6.49-.3-10.03zm-2.67 6.88c-.54 1.62-1.19 3.21-1.76 4.89a12.69 12.69 0 0 1 .67-2.19c.34-.95.69-1.81 1.08-2.7zm-23.36 1.53a3.8 3.8 0 0 1-.1.48 16.68 16.68 0 0 1-2.27-.77c-2.25-1 1.71-2.66 3.28-3.25a16.86 16.86 0 0 0-.93 3.54zm11.57 1.89a2.35 2.35 0 0 0-.16-.3c-.16-.45 0-1 .55-1.7a41 41 0 0 1 3.77-3.81 23 23 0 0 0-1 7.13c-1.34-.25-2.66-.63-3.18-1.32zm31.46-127.27c-.62.72-1.23 1.43-1.84 2.11-.29.33-.61.65-.92 1q1.2-1.53 2.33-3.13a2.54 2.54 0 0 0 .43.02zm-56-82.3c-.5-6.8 1.06-13.63 3.38-20a54.47 54.47 0 0 1 2.37-5.46c-.23 2.61-.56 5.21-.94 7.81v.1c-.28 1.4-.5 2.81-.65 4.23-.63 4-1.28 7.95-1.67 12a68 68 0 0 0-.33 8.06c-.52-1.13-1.12-2.23-1.75-3.31-.24-1.16-.36-2.31-.45-3.43zm9.38-65.91c4.5-4.45 10.16-7.79 15.68-10.82a98 98 0 0 1 19.37-7.85A126.5 126.5 0 0 0 85 60.66a94.15 94.15 0 0 0-10.48 7.87c.73-.8 1.48-1.59 2.24-2.35zm-6.5 90.57c-.41 5.51-1.1 11-2 16.45-.39 2.45-.89 4.87-1.45 7.28-1.24-7.92.55-16 3.41-23.74zm7.33-42.12a60.08 60.08 0 0 1 2.3-8.89c-.19 1.24-.34 2.49-.46 3.76-.41 4.38-.46 8.76-.65 13.06-.34-.18-.82 0-.78.44a33 33 0 0 1 .06 3.46c-.31.74-.58 1.5-.85 2.27a1.42 1.42 0 0 0-.12-.15 45.22 45.22 0 0 1 .46-13.96zm20.1 16.48c2.47 8.81 10.05 18.15 19.55 19.32l.49.25a21.24 21.24 0 0 1 4.22 9 90.94 90.94 0 0 0-9.23-7.27c-9.92-7-24.15-21.52-18.31-34.56a1.32 1.32 0 0 0 0-1.13c.18-.19.36-.38.55-.57a2.17 2.17 0 0 0 .41-.53l3.28-2c-2.59 5.07-2.69 11.37-1 17.47zm-.9 17.5a42.09 42.09 0 0 0 1.07 6.63q-2.29-5.65-5.09-11.09 1.32 1.22 2.74 2.37.62 1.02 1.24 2.07zM79.87 227a24.29 24.29 0 0 1-4.36.77q.75-.36 1.49-.79a2 2 0 0 0 1.32-.8 34 34 0 0 0 6.14-5.26c4.11-4.49 6.63-10.36 8.07-16.21a80.65 80.65 0 0 0 2.08-19.76c.23-1.74.33-3.52.39-5.23 2.72 12.6 2.65 26.89-3.33 37.94a95.13 95.13 0 0 1-7.48 7.53 20.74 20.74 0 0 1-4.32 1.81zm21.5-30.43q0 .82-.13 1.65-.08-2.3-.36-4.6l.17-.07c.1.97.21 1.97.31 2.98zM98 180.69l-.08-.23h.1c-.02.05-.02.14-.02.23zm6.28-6a56.56 56.56 0 0 1 1.31 5.77c-.42-1.96-.86-3.89-1.34-5.79zm-6.08 4.21a.52.52 0 0 0-.34.18c-.15.17-.2.26-.32.3-.74-2.11-1.58-4.17-2.49-6.17a92.11 92.11 0 0 0-1.59-12.24c-.77-4.15-1.79-8.25-2.86-12.33 2 5.22 3.84 10.53 5.35 16 1.05 3.79 1.89 7.57 2.6 11.35-.14.91-.26 1.9-.38 2.88zm27.12-106.41a101 101 0 0 0-16 14.6C99.74 95 90.67 103.32 84.41 114c.17-1.69.39-3.37.65-5l.09-.26c9.5-15.81 23.43-28.74 40.17-36.25zM79.07 188a44.61 44.61 0 0 1-3.13 18.14 37.18 37.18 0 0 1-3.19 6.32c2.89-10.74 4.56-22.32 3.9-33.2-.22-3.64-.49-7.31-.71-11a29.26 29.26 0 0 0 1.42 3.74c.72 5.34 1.42 10.64 1.71 16zm1.39-27.17a40.37 40.37 0 0 1-.17-8.69c.08-1 .21-1.89.37-2.81-.12 3.78-.21 7.67-.2 11.5zm2.12-31a27.29 27.29 0 0 1-2.65 9v-.16a44.53 44.53 0 0 0 2.64-8.86zm-5.63 14.53a1.88 1.88 0 0 0 .29.23c-.15.34-.3.67-.44 1a2.27 2.27 0 0 0-.59-.37c.23-.32.44-.64.66-1zM88.38 184a124.81 124.81 0 0 1-1.19-17.51.56.56 0 0 0-.7-.54c-.26-5.22-.75-10.46-.94-15.6q-.13-3.48-.2-7c.74 4.78 1.58 9.54 2.31 14.33a148.26 148.26 0 0 1 1.66 16.2 53.9 53.9 0 0 1-.94 10.12zm-22.21 28.49c0 .14-.05.28-.08.43l-.14-.4zm11.39-81.41v.09-.05-.05zm-2 90a12.55 12.55 0 0 1-2 .91 52.42 52.42 0 0 0 10.83-29.72 35 35 0 0 0-.08-4.09l.12.67a50.28 50.28 0 0 1 .28 15.86c-1 2-2.18 3.88-3.33 5.75-1.82 2.93-4.61 6.82-5.83 10.62zM88.36 126l.18-.69c.06 0 .12-.08.18-.13a17.55 17.55 0 0 0 .43 3.37 23 23 0 0 1-.79-2.55zM99 83.87a75.78 75.78 0 0 0-9.56 10.28 40.72 40.72 0 0 1 7-10.4 51.55 51.55 0 0 1 13.94-10.87 28.34 28.34 0 0 1 3.32-1.47c-5.62 3.66-10.7 8.74-14.7 12.46zm6.87 45.24a33.81 33.81 0 0 0 2.91 11.38 27.34 27.34 0 0 1-6.38-9.64c-2.87-7.21-2.58-15.54 2.58-21.26 1.65-1 3.3-2 5-3 1-.56 2-1.09 3-1.59a36.75 36.75 0 0 0-7.16 24.11zm-8.48-21.71c3.6-3.83 7.28-7.57 10.64-11.4l1.33-1.51c.51-.42 1-.85 1.54-1.26 5.41-4.31 11.52-7.6 16.44-12.51 2.27-2.26 4.37-4.67 6.71-6.85a17.91 17.91 0 0 1 3-2.25 29 29 0 0 0-2.54 2.61C128.73 81 124.09 88 116.7 93.34c-6.53 4.66-13.52 8.37-19.31 14.06zm24.91-44.51a67 67 0 0 1 17.79-3.36 40.18 40.18 0 0 1 12.69 1.58c.72.19 1.44.36 2.17.48-10.15 4.38-20.82 2.16-32.16 2.13a30.21 30.21 0 0 0-3.48.21c1.02-.37 2.02-.72 2.99-1.04zM80.09 95.43a59.36 59.36 0 0 0-4.68 8.81 1.2 1.2 0 0 0-.8-.35 85.93 85.93 0 0 1 5.48-8.46zM49.93 238a13 13 0 0 1 1.61-4.35 16.24 16.24 0 0 0 0 2.52 41.63 41.63 0 0 0-1 8.41 17.53 17.53 0 0 1-.61-6.58zm8.62 14.28a19.15 19.15 0 0 1 .09-4A58.37 58.37 0 0 1 60 240a38.09 38.09 0 0 0 .57 8.79 22.1 22.1 0 0 1-2.02 3.47zm54.57 57.26c0 .08 0 .15.08.23l-.44-.17zm18.46-66.17c-2 3.56-4.15 7-5.94 10.6a193.13 193.13 0 0 0-10.82 25.49q-.54 1.63-1 3.3c1.86-8.15 3.9-16.11 7.59-24a131.83 131.83 0 0 1 10.75-18q-.33 1.24-.58 2.58zm-7.28 62c-3.23-4.58-4.34-9.49-3.33-15.68 1.32-8.1 5-15.84 8.44-23.21 1.25-2.68 2.52-5.35 3.76-8-1.69 5.14-3.77 10.18-5.61 15.15a61.39 61.39 0 0 0-3.4 15.92 40.37 40.37 0 0 0 .22 11.27 24.21 24.21 0 0 0 .93 4.21 1.38 1.38 0 0 0 .3.52v.7c-.45-.36-.88-.64-1.31-.94zm-12.66-12.27c-.05.6-.09 1.2-.12 1.79l-.38-.7c0-.07.05-.14.07-.21l.31-1.31zm3.13-152a18.72 18.72 0 0 1-1.11-1.57 26.84 26.84 0 0 1-3.57-11.53 41.74 41.74 0 0 1 4.46-23 .63.63 0 0 0-.06-.75c2.1-1 4.22-1.93 6.35-2.86-3.6 6.54-6.79 13-7.84 20.81a41.74 41.74 0 0 0 1.77 18.87zm8.52-40.81c1.5-.67 3-1.37 4.46-2.11a60.43 60.43 0 0 0-5.85 5.44q.67-1.72 1.39-3.36zm11-12.16a35.75 35.75 0 0 1-9.52 6.87.55.55 0 0 0-.58.3c-3.26 1.7-6.68 3.18-9.93 4.72 1.55-1 3.11-1.92 4.64-2.94 6.51-4.31 11.42-9.91 16.2-16 2.53-3.23 5-6.39 8.49-8.6a18.64 18.64 0 0 1 2.14-1.12c-3.91 5.64-7.07 12.07-11.42 16.74zm22.07-18.57c0-.39-.06-.78-.12-1.16a1.12 1.12 0 0 0-.22-.52q.43-.31.88-.6zm-5.2-34.19c1 .53 2.06 1.09 3.09 1.64-2.24-.38-4.47-.7-6.72-.91q1.85-.33 3.65-.75zm-31.24 3.57A129.79 129.79 0 0 0 102.29 45a103.55 103.55 0 0 1 13.21-5.07 33.75 33.75 0 0 1 4.44-1.02zM68.87 69.63a3 3 0 0 0-.37-.23l.09-.15c1.15-1.2 2.29-2.4 3.46-3.59C71 67 69.9 68.29 68.87 69.63zM64.74 88.2a46.48 46.48 0 0 0 1.55-4.42c1.9-2.14 3.67-4.4 5.58-6.56C75.52 73.09 80.39 69.95 85 67a133.48 133.48 0 0 1 27.6-13.2c8.8-3.06 17.83-5.39 27.15-5.08a133.6 133.6 0 0 0-14.46 2.79c-10.81 2.51-20.72 5.8-30.48 11.19a91.77 91.77 0 0 0-30.27 26.51c.07-.34.14-.67.2-1.01zM120 59.14l-.54.2zM61.65 178.82a34.64 34.64 0 0 0 .33 5.4 3 3 0 0 0-.37-.19c-.29-.84-.58-1.68-.83-2.53-1.59-5.16-1.05-10.37.61-15.43 1.1-1.52 2.31-3 3.49-4.46a56.71 56.71 0 0 0-3.23 17.21zm-4.1 48.65a1.68 1.68 0 0 0-.39-.79c.29-1.23.62-2.46 1-3.7a19.73 19.73 0 0 0 .69-2.11l.4-.29a53.64 53.64 0 0 1-1.7 6.9zM113.23 170a39.32 39.32 0 0 1 3.84 15 31.78 31.78 0 0 1-2.33 12.65c2.33-8.93 1.44-18.46-1.51-27.65zm.67-9.23a1.33 1.33 0 0 0-.27 1.13c-1.3-1.64-2.66-3.25-4-4.82 1.37 1.21 2.85 2.43 4.27 3.67zm-9.23 93l-.11.68a78.68 78.68 0 0 0-3.42 16.87c-.84 8.24-.9 16.75.94 24.86a29.55 29.55 0 0 0 2 5.53 46 46 0 0 1-7.83-27.3c.24-14.5 5.41-30.86 15.44-42.18-3.69 6.55-5.76 14.08-7.02 21.49zm-30.88 85.07a4.93 4.93 0 0 0 0 .83c-.81-.09-1.62-.17-2.41-.29-.44-.06-.88-.15-1.31-.25A6.94 6.94 0 0 1 68 335.7a9.73 9.73 0 0 1 1.7-.7 49.83 49.83 0 0 1 8.61-1.34c-2.31 1.15-4.31 2.78-4.52 5.18zm-7.46-1.17a.71.71 0 0 1 .08-.75 7.56 7.56 0 0 0-.08.75zm45.94-87.4c1-2.38 2.21-4.74 3.47-7.1.83-1.54 1.65-3.08 2.46-4.61q1.64-2.52 3.44-4.85c.79-.36 1.61-.64 2.48-.93-1.65 2.06-3.27 4.14-4.83 6.27a80.2 80.2 0 0 0-7.11 11.62zm5.48-133c.38-1.95.86-3.92 1.43-5.87a.79.79 0 0 0 .39-.24 39.59 39.59 0 0 1 3.11-3.21 37.94 37.94 0 0 0-4.93 9.32zM144 86.06c2.36-3.69 4.81-7.6 5.89-11.88a33.54 33.54 0 0 1 3.73-4.29c-.05 3.1-1.64 6.09-3.06 8.75-.18.34-.37.67-.57 1l-.07.07v.09a19.47 19.47 0 0 1-2.41 3.2c-.84.91-2 1.23-2.71 2.27a1.63 1.63 0 0 0-.06 1.58 31.08 31.08 0 0 1-2.58 2c.62-.94 1.21-1.85 1.84-2.79zm30-42.62l.09.33-.23-.21zm-3.41-22.65l1 1a25.65 25.65 0 0 1 6.23 11.36c.09.35.16.71.21 1.06a57.08 57.08 0 0 0-7.4-13.42zm.77 14.83c-6.18-6.16-12.41-12.51-19.68-17.28A41.49 41.49 0 0 0 133.11 12a45.4 45.4 0 0 1 12.95-.12c12.46 1.81 20.66 12.3 25.34 23.74zM116 29c-9.73 2.13-19 5.78-28.67 7.56A49.11 49.11 0 0 1 112 28.81c1.76-.08 3.53-.09 5.31 0zM77.84 44.34a58.83 58.83 0 0 1 4.5-4.11 59.06 59.06 0 0 0 6.19-.09q-2.84 1.17-5.57 2.6a24.55 24.55 0 0 0-5.12 1.6zm16-.37c1.71-.62 3.44-1.16 5.19-1.67-1.74.88-3.45 1.79-5.12 2.72A94.17 94.17 0 0 0 70.77 62.6q.58-1.87 1.08-3.78C77.44 51.78 85.48 47 93.84 44zM70 63.47q-1.17 1.3-2.27 2.66c-.27.19-.56.38-.82.58a58.06 58.06 0 0 1 3.22-5.52q.54-.81 1.12-1.58-.62 1.94-1.25 3.86zm-11.77 43.2a1.79 1.79 0 0 0 .86-.82c8.85-16 21.8-27.89 37.46-37 2.5-1.47 5-2.77 7.62-4-1.15 1-2.26 2-3.34 3.08a1.15 1.15 0 0 0-1.58 0C87 78.21 73.12 86.25 63.9 99.66a43.84 43.84 0 0 0-6 13c0-.54-.05-1.09-.05-1.65a27.57 27.57 0 0 0 2.53-6.01.22.22 0 0 0-.43-.12 30.79 30.79 0 0 1-2.14 5.07c0-.76.06-1.54.13-2.34v-.38zm-1.65 5.47q-.48.8-1 1.59c.29-1 .61-2 1-3-.01.45-.01.93-.01 1.42zm7.65 40.57a2.76 2.76 0 0 0 .54.33l-.67.95c.05-.42.09-.84.13-1.27zm1.38 6.09c-.94 1.31-1.95 2.59-3 3.89q.37-.88.78-1.75c.8-.72 1.53-1.43 2.22-2.13zm-12.83 18.28a35.85 35.85 0 0 1 2.59-5.93l.42-.4a27.71 27.71 0 0 0-.65 3.89c-.55 6.36 1.48 12.1 3.66 18a36.08 36.08 0 0 1 2 7.42c-2-3.88-4.8-7.48-6.38-11.62a27.77 27.77 0 0 1-1.64-11.36zm-4.92 84.28a3.24 3.24 0 0 0 .12.38c-2.45.92-4.5 2.4-5.11 5a40.14 40.14 0 0 1-4.75-1.43h-.07l.29-.22c2.86-2.09 6.73-1.6 9.52-3.73zm64.74-34.63h.08a2.28 2.28 0 0 0-.08.37q-.63.45-1.23.94zM98.51 245A72.66 72.66 0 0 0 91 278.42a54 54 0 0 1-.67-7.14c-.36-12.68 4.75-24.11 12.55-33.74a69.3 69.3 0 0 0-4.37 7.46zm-7.35 73.64a6.61 6.61 0 0 1-.41 5 5.74 5.74 0 0 0 .13-1 9.28 9.28 0 0 0-1.06-4.56q.67.28 1.34.61zm19-50c0-2.38.12-4.74.32-7.1a87 87 0 0 1 13.17-22.48c2.09-2.65 4.3-5.19 6.55-7.7-7.85 11.39-15.68 23.92-20.04 37.34zm27.73-74.58a66.11 66.11 0 0 1-1.7 7 63.18 63.18 0 0 1-2.89 7.45 71.11 71.11 0 0 0 .62-22.12 115.13 115.13 0 0 0-2.92-16.62c1.28 2.23 2.53 4.45 3.71 6.65a84 84 0 0 1 3.19 17.7zm-12.65-63.05a56.45 56.45 0 0 0 1.52 18.23l.1.59c-.48-1.09-1-2.19-1.38-3.3-4.55-11.58-4.72-23.23 1.94-34.07a38.06 38.06 0 0 1 4.48-5.85 73.72 73.72 0 0 0-3.17 8.21 69.3 69.3 0 0 0-3.49 16.25zM169 68a3.46 3.46 0 0 0 .37-.24L168.8 69c.08-.3.2-.63.2-1zm12.12-12.8h-.06zm6.2-42.5a26.17 26.17 0 0 1 7.48 8.13c3.62 6.23.82 12.78-2.9 18.13v.06a37 37 0 0 0 1.49-5.36 24 24 0 0 0-6.02-20.92zm12.85 4.3l-.09-.09c-.21-.36-.42-.72-.65-1.07.3.16.6.33.9.5a2.55 2.55 0 0 0-.16.66zm12.14.25a37.13 37.13 0 0 1 6.41 5.81c3.58 4.13 5.34 10.12 3.79 15.4a15.47 15.47 0 0 1-3.92 6.21 41.79 41.79 0 0 0 .26-10.54 28.6 28.6 0 0 0-9-17.87zm16.16 22.85a16.41 16.41 0 0 0 .6-8.52 22.76 22.76 0 0 1 .76 4.47c.28 4.41-1.24 9.81-5.67 11.63l-.21.08a26.54 26.54 0 0 0 4.51-7.64zm-15.75-8.2c1.46 5 3.08 14.11-.54 18.4 1.31-4.33.39-9.34-.77-13.53-1.5-5.42-3.56-10.59-5.07-16a26.61 26.61 0 0 1 6.38 11.13zM175.9 11.65c7.55 4.1 12.5 11.58 11.19 20.31a22.71 22.71 0 0 1-1.77 6c.79-13-11.47-25.51-23.64-31.64a57.89 57.89 0 0 1 14.22 5.33zM94.68 25.53c8.37-4.46 18-6.59 27.36-7.2 9.78-.63 18.9 1.07 27.07 6.62.65.44 1.26.91 1.88 1.38A43.67 43.67 0 0 0 138.91 23c-9.21-1.06-18.9-1.8-28.16-1.11a47.46 47.46 0 0 0-19.83 5.86c1.2-.75 2.44-1.52 3.76-2.22zm-54 219.31a8.39 8.39 0 0 0 .5 2.13 7.12 7.12 0 0 1-2.66-4.59c-.43-3.73 2.42-7 4.84-9.48.47-.48 1-1 1.48-1.45-2.71 4.06-4.57 8.37-4.21 13.39zm62.87-19.18c5.82-6 12.93-13.38 16.15-21.71a39.25 39.25 0 0 0 3.76-13.1V194a53.34 53.34 0 0 1-4.09 14.18c-1.23 2.83-2.74 5.54-4.21 8.27-7.15 7.79-15.2 14.7-21.4 23.36a53.58 53.58 0 0 0-9.31 36.44c1.14 11.43 6.62 25.75 16.55 32.44a2.25 2.25 0 0 0 1.43.39q.43.47.87.93a35.34 35.34 0 0 1-4.12-2c-6.36-3.59-11.41-9.34-15.34-15.4-7.45-11.48-10.49-25.52-4.45-38.25 5.35-11.31 15.61-19.85 24.12-28.7zm-15.97 94.95a7.07 7.07 0 0 0-.17-3.53l.68.26c2.14 2.67 2.91 5.73-.1 8.44-.18.17-.37.32-.57.47s-.67.28-1 .41a33.9 33.9 0 0 1-4.49 1.21 10.55 10.55 0 0 0 5.65-7.26zm28.27-1.08c2.91 2 3.66 6.27 3.95 9.82a47.07 47.07 0 0 0-3.94-9.82zm51.56-246.37a1.1 1.1 0 0 0 .24.27q-.41.59-.86 1.16.33-.71.62-1.43zm20.14-13.35c-2.18.57-4.39 1.07-6.6 1.42 2.18-.5 4.37-.92 6.6-1.42zm42.79-4.57a29.52 29.52 0 0 0 3.29-.84 14.31 14.31 0 0 0 4.5-2.4 2 2 0 0 0 .17.34c-2.05 2.22-4.87 2.93-7.96 2.9zm11.28 1.35a22.39 22.39 0 0 0 3.24.71 18.39 18.39 0 0 1-5.86 1.36 13.36 13.36 0 0 0 2.62-2.06zm8 10c3.18.08 6.46-.17 9.6.46 2.82.57 2.67 2 2.83 3.79a30.74 30.74 0 0 0-3.52-1.31c-3.76-1.12-7.66-1.75-11.48-2.67-.6-.14-1.16-.3-1.7-.47 1.52.14 3 .18 4.27.21zm4.2 48.46c0 .21.08.42.12.63l-.21.14q.05-.37.09-.76zm-44.75 216.88a15.8 15.8 0 0 1 .54-2.26 4.5 4.5 0 0 0 1.42 1.49 16 16 0 0 1 2.05 1.27 2.13 2.13 0 0 1 .54 1.71 20.43 20.43 0 0 0-3.47-.85c-.63-.09-.95-.61-1.08-1.36zm50.69-100.8a1.83 1.83 0 0 1-.16.13 2 2 0 0 0-.85.44c-1.67.37-3.95-1.26-4.89-2.19a14.65 14.65 0 0 1-1.23-1.42 8.45 8.45 0 0 0 8.27-.21c.22-.12.42-.27.63-.41a8 8 0 0 1-1.77 3.66zm17.13-66.5l.08-.08-.2.54c.05-.15.08-.31.12-.45zM186.21 5.75q-1.08-.44-2.18-.82l2.6.4a3.17 3.17 0 0 0-.42.42zM45.11 255.6a1.58 1.58 0 0 1-.85 1.44h-.42a4.17 4.17 0 0 0 .62-1.53zm19 3.22c.67-2.05 1.47-4.33 2.17-6.69q1.2-2.44 2.31-4.92h.06a3.27 3.27 0 0 0 1.35 1.67 67.83 67.83 0 0 0-6.78 12.59zm10.34-11.16a52.83 52.83 0 0 0 5.45-4.93 48.78 48.78 0 0 0-8.62 16.59c-4 14.42 1.91 29.87 10.71 41.27a54.63 54.63 0 0 0 6.64 7.18 34.37 34.37 0 0 1-4.08-2.26c-6.54-4.21-11.62-10.56-15.74-17-7.65-12.03-1.02-28.74 5.61-40.85zm-11.36 84.07c-.35.17-.69.34-1 .54a7.75 7.75 0 0 1 2.75-1.68 13.29 13.29 0 0 0-1.75 1.14zm43.35 22.69a18.07 18.07 0 0 0-6.67 4.13c-.35-1.63-.58-3.36-1-5a68 68 0 0 1 7.66.87zm-5.44 8.75a58.35 58.35 0 0 1 12.19-6.93c.68.27 1.34.57 2 .89-4.87 2.09-10.17 4.81-13.4 8.71q-.43-1.33-.79-2.67zm28.9-228.5c0-.24-.06-.48-.09-.72-.11-1-.17-2.09-.19-3.14.18-1.18.39-2.35.62-3.52-.24 2.46-.33 4.93-.34 7.38zm36-54.68l-.14.14zm.16-.19a26.27 26.27 0 0 0 1.9-2.63 13.87 13.87 0 0 1-1.87 2.65zm27.3-21.63l-2.32.67c4.1-1.55 7.46-4.87 10.44-7.93a26.81 26.81 0 0 0 5.62-7.78 16.6 16.6 0 0 1-.33 5.37c-1.3 5.73-8.39 8.21-13.38 9.67zm44.16 8.18v.14l-.22-.4zM254.13 130zm-19.8 165.89a5.19 5.19 0 0 1 .26.86l-.87-.07zm3.15 1.39zm8.75-248.16h-.21c0-.09.06-.17.09-.26zm-7.87-24.63q-.34-.41-.7-.82c.36.28.71.56 1.06.85zm-166.9 23.6a.53.53 0 0 0 0 .06zM53.11 291.74a1.67 1.67 0 0 0 .11-.2c.09-.24.2-.48.29-.71.08.33.15.65.24 1zm6.17-3.39a2.6 2.6 0 0 0-.11-1.06l-.21-.67a29.63 29.63 0 0 1 .06-9.38 74 74 0 0 1 1.74-7.74c-1.54 7.36-1 14.92 2.8 22a56 56 0 0 0 10.91 14 23.59 23.59 0 0 1-15.19-17.15zm35.6 65a17.18 17.18 0 0 0 .18 2.06l-.7-2.08zm8.21 16.69c-.36-1.08-.71-2.18-1-3.27a30.4 30.4 0 0 1 7.12-5.36c2.4-1.32 5-2.31 7.49-3.49a20.46 20.46 0 0 1 2.1 1.44c.17.14.32.28.48.42-5.13 3.85-10.88 6.77-16.08 10.47zm32.16-27a51.73 51.73 0 0 1-10.43-2.45.26.26 0 0 0-.22 0 36.81 36.81 0 0 0 4.3-8.78 15.25 15.25 0 0 0 .89-6.69c7.93.78 7.61 9.99 5.45 17.95zm5.93-114.78c0-.26-.1-.52-.15-.79l.19-.31q-.03.57-.05 1.13zm15.53-31.06a139.74 139.74 0 0 0-9.3-11.76q-.42-1.67-1-3.31a90.06 90.06 0 0 1 9 11 .08.08 0 0 0 .15-.09 58.14 58.14 0 0 0-9.33-11.43q-.87-2.61-2-5.15c3.56 3.84 7 7.8 10.54 11.64a38.28 38.28 0 0 1 1.93 9.13zm-2.15-9.86c-3.42-4-7-8-10.65-11.74a57 57 0 0 0-3.2-6c3.35 3.83 6.43 7.9 10 11.56.09.1.24 0 .15-.15-3.56-4-6.94-8.21-10.58-12.16q-.53-.83-1.09-1.65c-.51-1-1-2-1.54-3.07a122.76 122.76 0 0 1 10 10.66 56.35 56.35 0 0 1 5.63 9.26c.44 1.14.88 2.23 1.27 3.32zm-10.64-17.3c-2.12-2.23-4.35-4.37-6.6-6.48-.86-1.76-1.69-3.54-2.41-5.35l-.57-2.08a22 22 0 0 0 2.63 4.93c2.21 3.15 4.6 6.07 6.94 9.01zm-11.17-20q-.32-1.32-.62-2.64c-.25-2-.39-4.06-.46-6.11l.29.29c.29 2.88.44 5.63.82 8.31zm-.82-8.84l-.26-.22v-2.11c.07.77.17 1.54.25 2.31zm10.7-41a5.48 5.48 0 0 1-.61-.37l1.16-1.52c.71.38 1.39.84 2.12 1.2q-.94.51-1.83 1.1c-.28-.21-.58-.33-.85-.47zm4.31-3.1a3.25 3.25 0 0 1-1.27-.41.15.15 0 0 0-.17 0c0-.19-.07-.38-.1-.58s-.08 0-.07 0q0 .34.11.68c.13.77.3 1.54.46 2.29l-.14.08c-.78-.44-1.65-.73-2.47-1.1l1.71-2.23 1.62-1.09c1.14.89 2.31 1.73 3.49 2.58a37.47 37.47 0 0 0-4.11 1.75c-.16-.71-.32-1.42-.45-2.15a3.56 3.56 0 0 0 1.39.47c.21.01.21-.33-.01-.39zm34.5-31.13a2.15 2.15 0 0 0-.78-.92c-.13-.1-.31.06-.27.21a1.39 1.39 0 0 0 .38.56.93.93 0 0 1 .28.4 9.11 9.11 0 0 1-1.71-1.22c-.17-.16-.44.1-.26.26a10.49 10.49 0 0 0 1.73 1.17 7.18 7.18 0 0 0-.68.76 9.33 9.33 0 0 0-.74 1.13c-.26-.2-.52-.39-.77-.61-.55-.49-1.06-1-1.58-1.52a.09.09 0 0 0-.13.13c.51.52 1 1 1.56 1.55a8.41 8.41 0 0 0 .77.77 11.73 11.73 0 0 0-1 2.61 12.39 12.39 0 0 1-1.23-1c-.62-.59-1.16-1.26-1.77-1.87a.13.13 0 0 0-.18.18c.64.66 1.23 1.37 1.85 2a4.07 4.07 0 0 0 1.24 1.08c-.28 1.28-.43 2.62-.65 4a21.81 21.81 0 0 1-5.64 11.68 31.55 31.55 0 0 1-5.16-3.95c-.09-.08-.23.05-.13.13a29.23 29.23 0 0 0 5.06 4.07 19.24 19.24 0 0 1-2.83 2.39c-2.33-1.86-4.93-3.37-7.26-5.25h-.05a20.17 20.17 0 0 0 5.69-3.71 23.68 23.68 0 0 0 5.91 4c.16.07.3-.15.14-.25a68.82 68.82 0 0 1-5.81-3.91 12.94 12.94 0 0 0 2.66-4c.24-.55.46-1.1.67-1.64l.28.3c.8.83 1.58 1.69 2.36 2.55.29.32 1.93 2.64 2.55 2.25a.18.18 0 0 0-.09-.33s-.75-.88-.87-1c-.68-.7-1.34-1.42-2-2.13s-1.31-1.43-2-2.08c.28-.72.56-1.43.85-2.12a21.18 21.18 0 0 0 4.45 3.82.14.14 0 0 0 .14-.24 26.75 26.75 0 0 1-4.48-3.76 22.81 22.81 0 0 1 1.14-2.46 30.22 30.22 0 0 0 2.29-3 12 12 0 0 1 4.29-2.62 28.2 28.2 0 0 0 4.19.17 9.87 9.87 0 0 0-2.42 1.36zm10.43 0c-1.08-.57-2.14-1.24-3.24-1.79.89-.12 1.77-.27 2.63-.42 1.1.75 1.92 1.87 2.94 2.71-.76-.1-1.51-.22-2.26-.35a.14.14 0 0 0-.08-.22zM211.34 58a2.17 2.17 0 0 1 .11-1.6c.22-.39.64-.41 1.08-.31a13.33 13.33 0 0 0-1.19 1.91zm1.66-2.49a1.83 1.83 0 0 0-2 .34 2.18 2.18 0 0 0-.25 2.11 6.23 6.23 0 0 1-1.37-1.62c-.1-.17-.36 0-.26.15a17.12 17.12 0 0 0 1.88 2.18c-.31.63-.62 1.28-.94 1.9a1.46 1.46 0 0 0-.47-.39 8.63 8.63 0 0 1-.93-.74 11.7 11.7 0 0 1-1.53-1.56c-.09-.12-.3 0-.21.16a12.26 12.26 0 0 0 1.53 1.6c.27.25.55.47.82.72a1.36 1.36 0 0 0 .64.44c-.18.34-.37.68-.56 1a9.69 9.69 0 0 1-2.58 2.81 21.81 21.81 0 0 1-3.41-3.61c-.18-.22-.48.09-.31.31.56.7 1.12 1.4 1.71 2.08a9 9 0 0 0 1.59 1.56c-3.09 2-7.16 2.1-11.22 1.62a32 32 0 0 0-3.48-2.91l2-.39a34 34 0 0 0 11-4.11c.75.76 1.38 1.63 2.11 2.41.42.45 1.16 1.33 1.88 1.12a.19.19 0 0 0 0-.37c-.73 0-1.5-1.05-2-1.52s-1.16-1.2-1.78-1.76a20.7 20.7 0 0 0 4.42-3.69 6.16 6.16 0 0 0 3.63-.21 3 3 0 0 0 .31.2zm22.29 6c.05.11.12.2.17.3a.85.85 0 0 0 0 .22v.07c-.08-.2-.16-.4-.23-.61zm24.24 92.89c0 .55.06 1.09.07 1.64l-.21.9c.04-.85.09-1.7.11-2.55zm-16.23 61.52a1.33 1.33 0 0 0-.8.16q.47-1.46.93-2.92c-.07.93-.12 1.84-.13 2.76zm-25.44 144.57c0-.4.09-.79.14-1.19a22.09 22.09 0 0 0 .09-4.62c.8 1.99 1.12 3.99-.23 5.81z" fill="#0d465b"/><path class="cls-1" d="M184.82 129.55a2.27 2.27 0 0 0-1.16.49c-.07.05 0 .17.07.12a4 4 0 0 1 1.11-.41c.11-.04.09-.21-.02-.2z" fill="#0d465b"/><path class="cls-1" d="M184.89 130.1a1.52 1.52 0 0 0-.95.4c-.17.15.08.4.25.25a3.21 3.21 0 0 1 .77-.37.15.15 0 0 0-.07-.28z" fill="#0d465b"/><path class="cls-1" d="M185 130.92l-.21.05a.17.17 0 0 0 0 .34.77.77 0 0 0 .39-.09c.15-.1-.03-.42-.18-.3z" fill="#0d465b"/><path class="cls-1" d="M185.68 131.85a.89.89 0 0 1 .19-.32.12.12 0 0 0-.17-.17.64.64 0 0 0-.26.42c-.02.16.2.22.24.07z" fill="#0d465b"/><path class="cls-1" d="M186.24 132.57a2.42 2.42 0 0 0 .25-.39c.07-.14-.14-.26-.21-.12a2.21 2.21 0 0 1-.22.38c-.06.1.1.23.18.13z" fill="#0d465b"/><path class="cls-1" d="M187.27 132.64a.59.59 0 0 0-.1-.4h-.08a1.19 1.19 0 0 1 .05.36.07.07 0 0 0 .13.04z" fill="#0d465b"/><path class="cls-1" d="M188 132.53a3 3 0 0 1-.06-.57.13.13 0 0 0-.26 0 1.86 1.86 0 0 0 .08.63.12.12 0 0 0 .24-.06z" fill="#0d465b"/><path class="cls-1" d="M188.78 132.21a.08.08 0 0 0 .15 0 .44.44 0 0 0-.16-.37c-.09-.09-.22 0-.14.14z" fill="#0d465b"/><path class="cls-1" d="M189.6 131.6c.11.09.27-.07.16-.16l-.3-.22c-.11-.08-.26.06-.15.15z" fill="#0d465b"/><path class="cls-1" d="M190.09 131a.14.14 0 0 0 .13-.22l-.27-.25c-.16-.16-.42.09-.25.25a.84.84 0 0 0 .39.22z" fill="#0d465b"/><path class="cls-1" d="M190.53 130.13a.43.43 0 0 1-.29-.17c-.1-.14-.33 0-.23.13a.54.54 0 0 0 .49.28.13.13 0 0 0 .03-.24z" fill="#0d465b"/><path class="cls-1" d="M190 129.72a5.18 5.18 0 0 0 .6.14.14.14 0 0 0 .08-.28c-.2-.06-.4-.09-.6-.16s-.25.23-.08.3z" fill="#0d465b"/><path class="cls-1" d="M236.41 125.61a8.05 8.05 0 0 0-.67.46c-.08.06 0 .19.08.14s.46-.28.68-.44.01-.22-.09-.16z" fill="#0d465b"/><path class="cls-1" d="M236.64 126.45a5.18 5.18 0 0 0-.56.23c-.18.08 0 .34.15.26a5.39 5.39 0 0 0 .52-.23.14.14 0 0 0-.11-.26z" fill="#0d465b"/><path class="cls-1" d="M237 127.16a1.68 1.68 0 0 0-.37.41.12.12 0 0 0 .16.16 1.71 1.71 0 0 0 .41-.37.14.14 0 0 0-.2-.2z" fill="#0d465b"/><path class="cls-1" d="M237.64 127.94a.17.17 0 0 0-.23-.23l-.32.19c-.23.13 0 .49.21.35a.94.94 0 0 0 .34-.31z" fill="#0d465b"/><path class="cls-1" d="M237.92 128.42a.65.65 0 0 0 .2-.32c0-.12-.16-.17-.18-.05a.64.64 0 0 1-.11.29.06.06 0 0 0 .09.08z" fill="#0d465b"/><path class="cls-1" d="M238.62 128.78l-.06-.18c0-.12-.19-.12-.18 0a.38.38 0 0 0 .09.27.09.09 0 0 0 .15-.09z" fill="#0d465b"/><path class="cls-1" d="M239.33 129l-.06-.2c0-.07-.11-.06-.1 0a.34.34 0 0 0 .09.25l.07-.05z" fill="#0d465b"/><path class="cls-1" d="M240.42 128.25a.65.65 0 0 0 0-.24.11.11 0 0 0-.21 0 .65.65 0 0 0 0 .24.08.08 0 0 0 .21 0z" fill="#0d465b"/><path class="cls-1" d="M241.37 127.32a.06.06 0 0 0 .06-.1.48.48 0 0 0-.15-.11c-.1-.06-.2.11-.09.16a.47.47 0 0 0 .18.05z" fill="#0d465b"/><path class="cls-1" d="M241.43 126.32a.86.86 0 0 1 .28.13.11.11 0 0 0 .13-.17.66.66 0 0 0-.34-.19c-.15-.02-.21.2-.07.23z" fill="#0d465b"/><path class="cls-1" d="M242.18 126c.13 0 .19-.14.09-.21a3.39 3.39 0 0 0-.33-.23.14.14 0 1 0-.17.23 1.24 1.24 0 0 0 .41.21z" fill="#0d465b"/><path class="cls-1" d="M162.65 286.35c.21-2.94 1-6.4.14-9.29-.64-2.06-4-1.7-5.44-1.32a22.45 22.45 0 0 1-4.09 1c-1.56.13.19-5 .35-5.56 1-3.21 2.41-6.23 3.12-9.54 0-.15-.17-.31-.28-.16-1.26 1.58-3.86 4.95-5.62 1.91-1-1.78-1.09-4.3-1.24-6.28-.23-3.13-.08-6.27-.1-9.41a.1.1 0 0 0-.2 0c-.09 4.83-1.39 12.45 1.75 16.6.86 1.14 2.39.7 3.32-.1a16.33 16.33 0 0 0 1.69-1.68c-.5.57-1 3.54-1.31 4.43a44.78 44.78 0 0 0-2.89 9.89c0 .13.12.22.23.23 2.66.31 4.67-.91 7.27-1.23 4.75-.59 3.27 6.25 3.06 8.65-.55 6.31 1.27 11.11 3.45 17 .06.16.32.1.26-.07-1.67-5.01-3.85-9.69-3.47-15.07z" fill="#0d465b"/><path class="cls-1" d="M199.75 256.58a35.82 35.82 0 0 0-1.35-4c-.06-.17-.33-.1-.27.08a35.5 35.5 0 0 0 1.36 4.07c.07.12.3 0 .26-.15z" fill="#0d465b"/><path class="cls-1" d="M197.76 279.45a107.8 107.8 0 0 1-9 10.74.08.08 0 0 0 .12.12 103.55 103.55 0 0 0 9-10.78c.06-.08-.07-.15-.12-.08z" fill="#0d465b"/><path class="cls-1" d="M198.35 290.74c1.45-1.88 3.15-3.61 4-5.85 0-.1-.12-.16-.17-.07a31.5 31.5 0 0 1-4 5.83c-.07.09.1.19.17.09z" fill="#0d465b"/><path class="cls-1" d="M207.8 314c.46-4.87.67-9.78-2.33-13.91 0 0-.06 0 0 0 2.91 4.16 2.64 9.08 2.15 13.89-.07.18.17.18.18.02z" fill="#0d465b"/><path class="cls-1" d="M149.78 362.48c-3.46 2.27-7 4-11.3 3.6-.12 0-.12.18 0 .2 4.29.48 7.91-1.28 11.42-3.58.1-.09.01-.31-.12-.22z" fill="#0d465b"/><path class="cls-1" d="M157.58 376.3s0 .11.07.07a73.17 73.17 0 0 1 7.17-6.56c.06 0 0-.15-.06-.1a73.36 73.36 0 0 0-7.18 6.59z" fill="#0d465b"/><path class="cls-1" d="M161.07 381.12c0 .7-.7 1.24-1.16 1.7a.13.13 0 0 0 .18.18 3.26 3.26 0 0 0 1.23-1.88c.02-.12-.24-.12-.25 0z" fill="#0d465b"/><path class="cls-1" d="M48 314.09c-.75-5.47-6.24-8.07-11.12-6.28-7 2.58-12 10.66-20.31 8.57a.18.18 0 0 0-.09.34c7.41 2.28 13.21-4.23 19.24-7.36 5.52-2.87 10.76.63 11.07 6.65.16 3-1.27 6.24-4.21 7.36-2 .77-3.89-.58-2.85-2.62a10.14 10.14 0 0 1 2.16-2.75.36.36 0 0 0-.44-.57c-3.2 2-5.91 7.13-.42 7.61 5.77.51 7.56-6.62 6.97-10.95z" fill="#0d465b"/><path class="cls-1" d="M55.65 320a3.39 3.39 0 0 0 0-.41c-.09-.66-.18-1.31-.28-2a34.18 34.18 0 0 0-1.94-7.9c-1.55-3.85-4.41-4.92-7.68-2.21-.12.1 0 .32.17.22 7.43-5.55 8.41 8.65 9.11 13.14 0 .32.47.36.67.18 1.15-1 2.81-1.86 3.73-3.14a5.06 5.06 0 0 0 .88-1.51c.33-1.15 2.92 1.23 3.24 1.61s.74-.09.53-.41c-.92-1.35-2.23-1.86-3.68-2.55a.39.39 0 0 0-.57.23c-.66 2.28-2.33 3.28-4.08 4.64a.24.24 0 0 0-.1.11z" fill="#0d465b"/><path class="cls-1" d="M65.7 313.4c-3-2.45-6.06-4.7-9.09-7 0 0-.1 0-.06.06 3 2.45 5.85 5 8.89 7.34.19.1.45-.24.26-.4z" fill="#0d465b"/><path class="cls-1" d="M71.91 320.95c.2.25.56 0 .5-.29a12.27 12.27 0 0 0-.86-2c-.32-.74-.63-1.48-1-2.2-.16-.31-.6 0-.46.27.37.8.66 1.62 1 2.44a6.28 6.28 0 0 0 .82 1.78z" fill="#0d465b"/><path class="cls-1" d="M68.54 319.79a.35.35 0 0 0 0 .71.35.35 0 0 0 0-.71z" fill="#0d465b"/><path class="cls-1" d="M53.27 324c-3.07 3-5.39 7-10.4 5.54-.21-.06-.29.25-.09.32 4.7 1.69 8.64-1.56 11.2-5.31.29-.43-.35-.9-.71-.55z" fill="#0d465b"/><path class="cls-1" d="M60.49 322.37a23.58 23.58 0 0 1-5.23 5.33c-.26.18 0 .6.25.43a23.76 23.76 0 0 0 5.49-5.44c.28-.32-.27-.69-.51-.32z" fill="#0d465b"/><path class="cls-1" d="M62.56 322.38a.45.45 0 0 0 0-.89.45.45 0 0 0 0 .89z" fill="#0d465b"/><path class="cls-1" d="M85 360.72c2.69 2.81 3.44 6.95.53 9.84-2 2-5.66 2.92-8.22 1.55-3.58-1.93-.42-5.37 1.78-6.54a.69.69 0 0 0-.53-1.25c-5.8 1.69-6.11 10.19.67 10.37 7.43.2 12.22-6.29 8.79-13-3.51-6.84-11.71-7-18.38-7.28-3.89-.16-8-.24-11.46-2.14-4.89-2.66-5.07-9.4-5-14.23 0-.19-.26-.18-.28 0-.59 5.08-.58 10.68 3.43 14.42 3 2.82 7.76 3.15 11.66 3.46 5.94.5 12.48.08 17.01 4.8z" fill="#0d465b"/><path class="cls-1" d="M81.16 364.71a.28.28 0 0 0-.34.34c.16.56.71 1 1 1.45a5.2 5.2 0 0 1 .48 1.13.24.24 0 0 0 .23.17c-.18 0 .17.29.34.29s.17-.25 0-.26-.07-.16-.22-.06a.25.25 0 0 0 .11-.27c-.17-.94-.57-2.5-1.6-2.79z" fill="#0d465b"/><path class="cls-1" d="M69 361.16a5.06 5.06 0 0 0-2.48 2.49c-.14.3.29.56.44.26a5.32 5.32 0 0 1 2.3-2.29c.32-.16.05-.62-.26-.46z" fill="#0d465b"/><path class="cls-1" d="M95.11 365a.27.27 0 0 0-.54 0c-.81 11.84-13.13 20.86-23.5 12.41-.2-.16-.47.1-.28.28 10.21 9.48 25.54.77 24.32-12.69z" fill="#0d465b"/><path class="cls-1" d="M98 373.82c-.81 3.74-1.89 6.8-4.62 9.61a17 17 0 0 1-9.3 4.72c-.16 0-.12.3 0 .29 7.42-.5 14.87-6.54 14.83-14.5a.49.49 0 0 0-.91-.12z" fill="#0d465b"/><path class="cls-1" d="M99.26 384c-.84 2.25-1.52 4.82-3.93 5.88-.24.1-.07.49.17.41 2.46-.78 4.31-3.71 4.5-6.2 0-.43-.6-.45-.74-.09z" fill="#0d465b"/><path class="cls-1" d="M102.7 397a6.78 6.78 0 0 0-.56-8.24c-.13-.16-.39 0-.28.22 2.06 3.14 1.15 5.82-1 8.57-.34.45.22 1 .68.89 3.2-.77 5.32.22 7.49 2.53a.17.17 0 0 0 .26-.2c-1.67-2.77-3.63-4.1-6.59-3.77z" fill="#0d465b"/><path class="cls-1" d="M281.33 318.22a41.76 41.76 0 0 1-16.52-.64c-3-.81-5.81-2.63-8.71-3.79-4.75-1.89-9.61-.56-12.18 4.14-2.44 4.47 1.34 9.6 5.93 10 4.23.32 5.33-3.73 2.57-6.31-.4-.38-1.13.13-.79.61 2.86 4.08-2.62 4.74-5 2.83-3.76-3-1.1-7.78 2-9.71 3.55-2.25 7.34 0 10.67 1.45a35.24 35.24 0 0 0 22.13 1.71c.14-.08.07-.32-.1-.29z" fill="#0d465b"/><path class="cls-1" d="M242.44 309.28c2.26-.59 2.56.55 3.32 2.58.15.42.82.25.68-.19a6.23 6.23 0 0 0-2.57-3.77.32.32 0 0 0-.33 0c-3.65 2.66-7.31-1.21-10.52-2.84-.17-.09-.33.17-.15.26 2.28 1.29 4.24 3.07 6.73 4a4.74 4.74 0 0 0 2.84-.04z" fill="#0d465b"/><path class="cls-1" d="M239 322.53c0-.8.23-1.58.27-2.36a14.77 14.77 0 0 0 .07 1.87 14.12 14.12 0 0 0 .85 3.65 10 10 0 0 0 3.89 4.93c.39.27.73-.35.37-.63-3.44-2.59-4.46-6.33-4.79-10.45a.18.18 0 0 0-.35 0 8.08 8.08 0 0 0-.54 3 .12.12 0 0 0 .23-.01z" fill="#0d465b"/><path class="cls-1" d="M237 329.14a11.62 11.62 0 0 0 2.45 4.6 10.38 10.38 0 0 0 4.79 3.38c.23.05.45-.25.25-.43-1.34-1.16-3-1.86-4.28-3.12a14.09 14.09 0 0 1-3-4.54c-.03-.15-.21-.03-.21.11z" fill="#0d465b"/><path class="cls-1" d="M235.75 336.33c.55 2.38 1.55 4.77 3.61 6.2.34.24.65-.31.32-.55a10.59 10.59 0 0 1-3.57-5.75.19.19 0 0 0-.36.1z" fill="#0d465b"/><path class="cls-1" d="M246.56 365.28c-2.53-1-4.59.41-6.37 2.17-.68.67.36 1.71 1 1a4.9 4.9 0 0 1 4.28-2c2.61.42 2 4 1.37 5.41-2.32 5.18-8.2 2.49-10.43-.72-2.91-4.17-1.34-9.14 1.31-12.93 3.93-5.6 10.38-9.62 10.29-17.18a.16.16 0 0 0-.33 0c.07 7.88-8.22 12.2-12.18 18.16-3 4.6-2.92 11.71 1.78 15.27s11.09 1.26 11.69-4.71a4.7 4.7 0 0 0-2.41-4.47z" fill="#0d465b"/><path class="cls-1" d="M234.86 351.35a2.91 2.91 0 0 0 .63-2.52.16.16 0 0 0-.32 0 3.56 3.56 0 0 1-.57 2.27.18.18 0 0 0 .26.25z" fill="#0d465b"/><path class="cls-1" d="M246 360.91l1.18 1.21a.19.19 0 0 0 .27-.27l-1.21-1.18a.17.17 0 0 0-.24.24z" fill="#0d465b"/><path class="cls-1" d="M231.25 378a26.4 26.4 0 0 1-3-6.5.13.13 0 0 0-.25.07c.95 4.68 3.44 9.74 7.72 12.23a.35.35 0 0 0 .43-.55 30.36 30.36 0 0 1-4.9-5.25z" fill="#0d465b"/><path class="cls-1" d="M226.14 383.44c-.75-1.56-1.23-3.26-2.07-4.76-.06-.11-.25 0-.2.08.67 1.79 1.16 3.63 1.89 5.39s1.69 4.2 3.42 5c.28.13.66-.16.46-.46a42 42 0 0 1-3.5-5.25z" fill="#0d465b"/><path class="cls-1" d="M221.24 382.91a.25.25 0 0 0-.5-.07c-.59 3.39 0 7.82 2.4 10.46a.33.33 0 0 0 .54-.32c-.5-1.56-1.37-3-1.9-4.54a13.4 13.4 0 0 1-.54-5.53z" fill="#0d465b"/><path class="cls-1" d="M214.63 391.15c-.12-.26-.55-.07-.46.2a76 76 0 0 0 3.21 8.52 11.1 11.1 0 0 0-8.11 1.56.71.71 0 0 0 .72 1.22 9.87 9.87 0 0 1 8.44-1.19.64.64 0 0 0 .72-.94 84.76 84.76 0 0 1-4.52-9.37z" fill="#0d465b"/><path class="cls-1" d="M114.87 375.75a.14.14 0 0 0 0 .27.14.14 0 0 0 0-.27z" fill="#0d465b"/></g></g><metadata><rdf:RDF xmlns:rdf="http://www.w3.org/1999/02/22-rdf-syntax-ns#" xmlns:rdfs="http://www.w3.org/2000/01/rdf-schema#" xmlns:dc="http://purl.org/dc/elements/1.1/"><rdf:Description about="https://iconscout.com/legal#licenses" dc:title="shae" dc:description="shae" dc:publisher="Iconscout" dc:date="2018-03-26" dc:format="image/svg+xml" dc:language="en"><dc:creator><rdf:Bag><rdf:li>Roundicons.com</rdf:li></rdf:Bag></dc:creator></rdf:Description></rdf:RDF></metadata></svg>