<?xml version="1.0" encoding="UTF-8"?><svg xmlns="http://www.w3.org/2000/svg" viewBox="0 0 216.42 473.75"><defs><style>.cls-1{fill:#7c1531;}</style></defs><title>Asset 4</title><g id="Layer_2" data-name="Layer 2"><g id="Layer_2-2" data-name="Layer 2"><path class="cls-1" d="M76.45 331.23c-2.94-1.05-4.36-4.74-2.14-7.2.76-.84 2-1.64 3.18-1.05 1.73.91-.24 4.64-.85 2.09-.15-.61-.95-.4-1 .14-.28 2.26 2.08 3.1 3.34 1.22 1.43-2.14.49-5.06-2.22-5.26s-4.58 2.76-4.75 5.06a5.24 5.24 0 0 0 4.33 5.45.23.23 0 0 0 .11-.45z" fill="#7c1531"/><path class="cls-1" d="M91.63 325a.25.25 0 0 0-.49 0 15 15 0 0 0-.14 2c-.74.19-1.93 1-2.44 0-.38-.74.82-1.19 1.4-1.33a.22.22 0 0 0 0-.43 2.15 2.15 0 0 0-2 .45 1.41 1.41 0 0 0-.41.73 4.74 4.74 0 0 0-.59-1.35.26.26 0 0 0-.46.27 19.54 19.54 0 0 1 .64 2 .29.29 0 0 0 .48 0c.54 1.33 2.48 1.42 3.55.63a1.81 1.81 0 0 0 .18.35.35.35 0 0 0 .64-.17 6.38 6.38 0 0 0-.17-1.51c-.07-.52-.13-1.11-.19-1.64z" fill="#7c1531"/><path class="cls-1" d="M96.43 321.58a4.72 4.72 0 0 0-3.34.19 3.16 3.16 0 0 0-1.28 1 3.65 3.65 0 0 0-.37.66c-.12.27-.89-.21-1.19-.32a.36.36 0 0 0-.41.14c-4.09-2.43-7.71-6.25-12.85-5.55-4 .55-7.54 2.59-8.82 6.08a3.18 3.18 0 0 0-2.58.65 3.05 3.05 0 0 0-1 2.54 2.49 2.49 0 0 0 1.32 2.03 2.76 2.76 0 0 0 2 0c1 3.75 4.44 6.75 8.37 6.42a14.1 14.1 0 0 0 4-1c.91 1.15 2.4.75 3.72.11a11.32 11.32 0 0 0 2.61-2l.62-.55a.82.82 0 0 1 .49.19 2.35 2.35 0 0 0 .67.47c1.25.49 2.32-.55 3.59-.15a.75.75 0 0 0 .7-.1l.26.14a3.21 3.21 0 0 0 2.82-.52 1.6 1.6 0 0 0 1.21.32c.88.58 1.74.93 2.53.44h.26a18.71 18.71 0 0 1 1.89 3 5.68 5.68 0 0 0 2.65 2c.81.35 2.05.75 2.82.08a1.37 1.37 0 0 0 .44-.73 8.32 8.32 0 0 0 4.49.74 9.29 9.29 0 0 0 6.93-5.57 2.2 2.2 0 0 0 2.78-1.24 2.31 2.31 0 0 0-1.75-3.11 8.19 8.19 0 0 0-6.17-8.16c-5.29-1.57-10.18 2.6-15.11 3.92a3.93 3.93 0 0 0-2.3-2.12zm-29.86 6a1.11 1.11 0 0 1-.49-.79c-.13-1.13.79-1.77 1.78-2.08a9.21 9.21 0 0 0-.21 2.49v.21a2.06 2.06 0 0 1-1.08.21zm17 5.25h-.11l.41-.22zm-2.26 1.07s.06.06.1.08h.09a.43.43 0 0 0 .14.37 1.19 1.19 0 0 1-.7-.3zm7.06-3.17l.05-.07a1.35 1.35 0 0 0 .5.27 1.64 1.64 0 0 1-.53-.16zm32.08-.27a.61.61 0 0 1-.47.41.78.78 0 0 1-.43-.07 11.94 11.94 0 0 0 .37-1.68 1.19 1.19 0 0 1 .54 1.37zm-13.41-8.25c4.42-1.87 9.61-.73 10.84 4.36a8.21 8.21 0 0 1-1.1 5.65c-2 3.73-5.76 4.2-9.26 2.57-2.92-1.36-5.48-4.66-8.74-5.1a.79.79 0 0 0-.71.21 4 4 0 0 0-.13-1.56.33.33 0 0 0-.64.18 2.14 2.14 0 0 1-.18 1.3 3.07 3.07 0 0 1-.55.73.93.93 0 0 1-.16-.15.77.77 0 0 0-1.07 0c-.89.71-1.79.88-2.52.21a.46.46 0 0 0-.32-.37l-.08-.11a.62.62 0 0 0-.84-.22h-.53a.28.28 0 0 0-.33 0l-.47-.09-.39-.1.46-.17c.34-.11.41-.68 0-.76-6.27-1.21-13.95 9.9-19.14 2.47-4.86-6.95 2.37-12.92 9.26-11.72 3.74.66 6.65 3.94 10.34 5a.33.33 0 0 0 .26 0 1.26 1.26 0 0 0 1.15 0c.31-.18.47-.63.74-.89a2.75 2.75 0 0 1 1.2-.65 3.33 3.33 0 0 1 2.61.42c1.09.66.65 1.82.53 2.83a.62.62 0 0 0 1.06.44l.07-.09a.37.37 0 0 0 .36.06 3 3 0 0 1 1.32-.26c.19 0 .24.33.25.63a3.16 3.16 0 0 0-1.09.57c-.47.37 0 1.13.56 1s.7-.45 1.1-.48a.59.59 0 0 0 .58-.58c0-.74-.1-1.69-.89-2a2.42 2.42 0 0 0-1.71.23 2.67 2.67 0 0 0 .14-1c2.87-.05 5.41-1.42 8.04-2.52z" fill="#7c1531"/><path class="cls-1" d="M111.67 328.69a.57.57 0 0 0-.13-1c-.2 0-1.13 0-1.16-.26-.05-.43.33-.9.58-1.21.53-.67 1.84-1.92 2.74-1.18 1.49 1.23 1.35 4.65 0 5.88-1.55 1.46-4.44 1.15-6.35.91-.18 0-.21.26 0 .31 2.68.77 6.29 1.27 8.13-1.32 1.41-2 .82-6.47-1.6-7.49-1.81-.76-4 1.21-4.61 2.76-.66 1.66.42 3.52 2.4 2.6z" fill="#7c1531"/><path class="cls-1" d="M84.79 326.17c-1.44.43-1.07-3.59-2.63-2.68-2.27 1.33-1.43 8.92-5.69 6.08-.15-.1-.34.14-.2.26 3.38 2.92 4.81-2.09 5.87-4.52a6.13 6.13 0 0 1 .35-.69l.06.16a13.88 13.88 0 0 0 .54 1.4 1.38 1.38 0 0 0 2 .69.38.38 0 0 0-.3-.7z" fill="#7c1531"/><path class="cls-1" d="M85.11 324.45a4.75 4.75 0 0 1 .31 1.67 6.58 6.58 0 0 0 .09 1.53c.12.42.8.35.77-.1a8.89 8.89 0 0 0-.64-3.31c-.14-.31-.64-.1-.53.21z" fill="#7c1531"/><path class="cls-1" d="M101.78 327.93c.58-.21.71-1.16.93-1.68.06-.15-.16-.27-.26-.15a4.77 4.77 0 0 0-.54.72c-.18.29-.44.53-.41.89 0 .13.13.29.28.22z" fill="#7c1531"/><path class="cls-1" d="M103.49 328a9.25 9.25 0 0 0 .57-1.28c.08-.2-.22-.3-.33-.14a9.12 9.12 0 0 0-.78 1.1c-.17.4.34.71.54.32z" fill="#7c1531"/><path class="cls-1" d="M104 329.42a.23.23 0 0 0 .15.19c.81.29.86 1.31 1.16 2a1.17 1.17 0 0 0 2.1 0c.13-.25 0-.68-.36-.63a2.31 2.31 0 0 0-.64.16h-.09a2.23 2.23 0 0 1-.48-.73c-.3-.6-.71-1.21-1.4-1.28a5.67 5.67 0 0 0 1.27-3.27.15.15 0 0 0-.3 0 5.55 5.55 0 0 1-1.61 2.9.41.41 0 0 0 .2.66z" fill="#7c1531"/><path class="cls-1" d="M73.64 384.63c-3-.9-4.63-4.49-2.52-7.07.75-.92 2.33-2 3.42-1a2.19 2.19 0 0 1 .16 2.47c-.61 1.16-1 .13-1.18-.55a.52.52 0 0 0-1 .14c-.21 2.63 2.38 2.77 3.54.83a3.17 3.17 0 0 0-2.89-4.87c-2.64.24-4.33 3.16-4.21 5.59a5.22 5.22 0 0 0 4.62 4.9c.27.03.3-.37.06-.44z" fill="#7c1531"/><path class="cls-1" d="M88.49 377.57c0-.29-.47-.2-.48.07a15.1 15.1 0 0 0-.05 2.09c-.7.23-1.85 1-2.41.14s.69-1.26 1.29-1.44c.2-.06.23-.39 0-.43a2.12 2.12 0 0 0-2 .54 1.49 1.49 0 0 0-.38.76 4.64 4.64 0 0 0-.65-1.31c-.2-.27-.64 0-.46.27a19.11 19.11 0 0 1 .73 2 .31.31 0 0 0 .5 0c.59 1.29 2.55 1.29 3.57.45a1.77 1.77 0 0 0 .19.33.35.35 0 0 0 .64-.17 6.73 6.73 0 0 0-.25-1.61l-.24-1.69z" fill="#7c1531"/><path class="cls-1" d="M94.23 384.64c.9.52 1.78.85 2.56.31h.25a18.26 18.26 0 0 1 2 2.89 5.46 5.46 0 0 0 2.6 1.89c.83.31 2.2.77 3 0a1.48 1.48 0 0 0 .36-.73 10.28 10.28 0 0 0 4.5.55c3.24-.36 5.5-3 6.65-5.91a2.22 2.22 0 0 0 2.73-1.33 2.31 2.31 0 0 0-1.86-3.05 8.33 8.33 0 0 0-6.54-7.85c-5.41-1.32-10 3.07-14.94 4.63a3.91 3.91 0 0 0-1.54-1.67c.52-1.35.22-2.8.1-4.29-.23-3.06-.67-6.08-.88-9.13a31.37 31.37 0 0 0 10.17 6.86c.11 0 .19-.15.08-.19a36 36 0 0 1-10.29-7.33c0-.39-.06-.79-.07-1.18-.05-1.77 0-3.53.07-5.29 1.75 1.13 3.48 2.29 5.17 3.52.15.11.29-.14.14-.24-1.72-1.27-3.5-2.45-5.29-3.61.09-1.78.23-3.55.37-5.33.25.22.51.42.75.66s.33-.07.2-.2c-.29-.29-.61-.54-.92-.81a119.75 119.75 0 0 0 .63-12.81.34.34 0 0 0-.68 0A105.54 105.54 0 0 1 92 346.51a53.12 53.12 0 0 0-4.52-2.9.1.1 0 0 0-.1.18c1.56 1 3.11 1.94 4.57 3-.31 1.77-.6 3.53-.85 5.31a128.29 128.29 0 0 1-11.11-7.49c-.09-.07-.21.05-.12.13a123.12 123.12 0 0 0 11.13 7.7c-.24 1.75-.42 3.51-.52 5.28-4.91-4.81-9.79-9.61-16.58-11.1-.12 0-.17.15 0 .18 6.88 1.59 11.67 6.62 16.59 11.5v.81c-.1 3.51-.16 10.91 1.59 14.78a5.39 5.39 0 0 0-2.18.47 3 3 0 0 0-1.24 1 3.37 3.37 0 0 0-.32.59c-.17.43-.84 0-1.23-.15a.34.34 0 0 0-.43.17c-4.8-2.44-8.29-5.83-14.23-4.73a10 10 0 0 0-7.52 6.28 3.43 3.43 0 0 0-2.41.77 2.94 2.94 0 0 0-.88 2.51 2.52 2.52 0 0 0 1.36 2.1 2.6 2.6 0 0 0 2.07-.19c1.32 3.54 4.34 6.92 8.44 6.1a18.07 18.07 0 0 0 4-1.37c.94 1.21 2.32.74 3.67.12a9.93 9.93 0 0 0 2.68-2.25l.51-.5a1.07 1.07 0 0 1 .67.21 2.53 2.53 0 0 0 .91.47c1 .35 2.08-.74 3.2-.45a.79.79 0 0 0 .71-.14 2.2 2.2 0 0 0 .53.18 2.88 2.88 0 0 0 1.82-.29.69.69 0 0 0 0 .16c-.23 4.74-.36 9.34-.69 13.93a65.5 65.5 0 0 1-7.61-6.73c-.07-.07-.17 0-.1.1a66 66 0 0 0 7.69 7c-.18 2.46-.43 4.91-.79 7.39-1.59-1.32-3.19-2.64-4.75-4-.14-.12-.34.08-.2.2 1.61 1.41 3.26 2.78 4.9 4.16a74.08 74.08 0 0 1-.74 4.29c-.39 1.92-.65 3.84-.89 5.78a48.42 48.42 0 0 1-7.03-6.46c-.11-.12-.29.06-.18.18a47.44 47.44 0 0 0 7.18 6.62c-.21 1.71-.39 3.43-.63 5.14-.29 2.13-.66 4.42 0 6.43l-.07.25c-.08.31-.17.62-.26.92-.18.06-.36.12-.53.19a3 3 0 0 0-1.24 1 3.36 3.36 0 0 0-.31.59c-.17.43-.84 0-1.23-.15a.34.34 0 0 0-.43.17c-4.8-2.44-8.29-5.83-14.23-4.73a10 10 0 0 0-7.52 6.28 3.43 3.43 0 0 0-2.41.77 2.94 2.94 0 0 0-.88 2.51 2.52 2.52 0 0 0 1.48 2.09 2.6 2.6 0 0 0 2.07-.19c1.31 3.54 4.34 6.92 8.44 6.1a18.06 18.06 0 0 0 4-1.37c.94 1.21 2.32.74 3.67.12a9.93 9.93 0 0 0 2.68-2.25l.51-.5a1.07 1.07 0 0 1 .67.21 2.53 2.53 0 0 0 .91.47c1 .35 2.08-.74 3.21-.45a.79.79 0 0 0 .71-.14 2.21 2.21 0 0 0 .34.13 4.6 4.6 0 0 0-.65 1.93.91.91 0 0 0 .17.66c-1 2.47-.83 5.9-.94 8.29a40.21 40.21 0 0 0-5.09-4.28c-.08-.06-.16.08-.08.14a40.73 40.73 0 0 1 5.16 4.59 61.23 61.23 0 0 0 0 5.42c-1.15-.93-2.31-1.85-3.51-2.72-.16-.12-.32.15-.16.27 1.27.93 2.48 1.94 3.68 3 .14 5.06.5 10.11-.16 15.16 0 .34.53.41.6.08a92 92 0 0 0 1.65-13.47 51.78 51.78 0 0 0 4.23 3.27c.14.09.31-.13.18-.23-1.48-1.16-2.92-2.36-4.37-3.56.1-1.47.2-2.95.32-4.42.45.55.9 1.08 1.33 1.65.1.13.32 0 .22-.13-.48-.69-1-1.36-1.52-2a71.3 71.3 0 0 1 1.68-11.33 1.32 1.32 0 0 0-.3-1.19l.14-.19a4.15 4.15 0 0 0 .8-1.28 1.26 1.26 0 0 0 .59 0c.9.52 1.79.85 2.56.31h.24a18.34 18.34 0 0 1 2 2.89 5.46 5.46 0 0 0 2.6 1.89c.82.31 2.2.77 3 0a1.48 1.48 0 0 0 .44-.81 10.28 10.28 0 0 0 4.5.55c3.24-.36 5.5-3 6.65-5.91a2.22 2.22 0 0 0 2.73-1.33 2.31 2.31 0 0 0-1.86-3.05 8.33 8.33 0 0 0-6.54-7.85c-5.41-1.32-10 3.07-14.94 4.63a4 4 0 0 0-2-1.82 81.89 81.89 0 0 0 1.3-10.41q.89.54 1.8 1a.12.12 0 0 0 .12-.21q-1-.56-1.9-1.16c.26-3.37.49-6.75 1-10 1.28 1.11 2.54 2.23 3.75 3.41a.14.14 0 0 0 .2-.2c-1.25-1.25-2.57-2.43-3.91-3.59v-.34a55.56 55.56 0 0 0 .64-7.4c2.93 2.13 6 4.12 9 6.08.19.12.35-.17.17-.29-3.1-2-6.2-4-9.19-6.16.11-5.3-.37-10.59-.75-15.95a.66.66 0 0 0-.17-.4 1.4 1.4 0 0 0 .87.1zm-33 52.85a1 1 0 0 1-.32-.25 1.4 1.4 0 0 1-.24-.64c-.18-1 .63-1.6 1.53-2a6.74 6.74 0 0 0 .1 2.63 2 2 0 0 1-1.03.26zm14.54 5.68l.39-.19a.25.25 0 0 0 .19.17h.12a.43.43 0 0 0 .16.39 1.22 1.22 0 0 1-.82-.36zm3.07-1.66a.6.6 0 0 0 0 .08q-.21.18-.44.34a.51.51 0 0 0-.24 0c-.33.15-.63.32-.93.49h-.22c.67-.22 1.27-.56 1.87-.9zm4.32-1.93l.05-.08a1.39 1.39 0 0 0 .51.24 1.56 1.56 0 0 1-.52-.15zm32-1.78a.62.62 0 0 1-.39.37.8.8 0 0 1-.47 0 12.64 12.64 0 0 0 .32-1.69 1.19 1.19 0 0 1 .59 1.33zm-23.36-3.24c0 .67.8.75 1.14.33a.35.35 0 0 0 .34 0 3.11 3.11 0 0 1 1.3-.34c.21 0 .28.33.3.62a3 3 0 0 0-1 .6.58.58 0 0 0 .56 1c.44-.16.75-.5 1.22-.56a.57.57 0 0 0 .42-.56c-.06-.72-.17-1.71-1-2a2.38 2.38 0 0 0-1.68.29 2.53 2.53 0 0 0 .09-1c2.93-.07 5.44-1.59 8.05-2.85 4.76-2.28 10.51-.54 11 5.19a8.58 8.58 0 0 1-1.43 5.13c-2 3.43-5.68 3.61-9 2.18-2.94-1.28-5.59-4.29-8.87-4.58a.68.68 0 0 0-.54.24 3.89 3.89 0 0 0-.21-1.52.33.33 0 0 0-.64.18 2.24 2.24 0 0 1-.1 1.28 2.59 2.59 0 0 1-.52.78.74.74 0 0 1-.15-.11.77.77 0 0 0-1.07 0c-.85.74-1.75 1-2.52.37a.42.42 0 0 0-.36-.37l-.07-.08a.62.62 0 0 0-.84-.22l-.54.05a.3.3 0 0 0-.34 0l-.44-.06-.43-.09.44-.18c.32-.12.43-.69 0-.76-6.14-.92-11.09 8.29-17.36 5-2.7-1.41-3.86-5.68-3.31-8.39.73-3.62 5.13-5.14 8.29-5.52 4.47-.53 8.37 3.62 12.59 4.58a.35.35 0 0 0 .27 0 1.13 1.13 0 0 0 1.26-.16c.42-.42.67-.81 1-1.12a1 1 0 0 0 1.69-.23c0-.11.05-.22.08-.33a3 3 0 0 1 1.79.57c1.07.71.71 1.7.64 2.65zm25.69-52.76a.62.62 0 0 1-.39.37.8.8 0 0 1-.47 0 12.61 12.61 0 0 0 .32-1.69 1.19 1.19 0 0 1 .59 1.33zm-53.93-.32a1 1 0 0 1-.32-.25 1.42 1.42 0 0 1-.24-.64c-.18-1 .64-1.6 1.53-2a6.76 6.76 0 0 0 .1 2.63 2 2 0 0 1-1.02.27zm14.54 5.68l.39-.19a.25.25 0 0 0 .19.17h.12a.43.43 0 0 0 .16.39 1.22 1.22 0 0 1-.82-.35zm3.07-1.66a.48.48 0 0 0 0 .08q-.21.18-.44.34a.51.51 0 0 0-.24 0c-.33.15-.63.32-.93.49h-.22c.66-.21 1.28-.55 1.87-.89zm4.32-1.93l.05-.08a1.39 1.39 0 0 0 .51.24 1.55 1.55 0 0 1-.52-.14zm4.44-.34a.42.42 0 0 0-.36-.38l-.07-.08a.62.62 0 0 0-.84-.22l-.54.05a.29.29 0 0 0-.34 0l-.44-.06-.34-.04.44-.18c.32-.12.43-.69 0-.76-6.14-.92-11.09 8.29-17.36 5-2.7-1.41-3.86-5.68-3.31-8.39.74-3.62 5.13-5.14 8.29-5.52 4.47-.53 8.37 3.62 12.59 4.58a.35.35 0 0 0 .27 0 1.13 1.13 0 0 0 1.26-.16c.7-.7.9-1.32 2-1.6a3.15 3.15 0 0 1 2.61.49c.89.69.53 1.68.46 2.63 0 .67.8.75 1.14.33a.35.35 0 0 0 .34 0 3.12 3.12 0 0 1 1.3-.34c.21 0 .28.33.3.62a3 3 0 0 0-1 .6.58.58 0 0 0 .56 1c.44-.16.75-.5 1.22-.56a.57.57 0 0 0 .42-.56c-.06-.72-.17-1.71-1-2a2.38 2.38 0 0 0-1.68.29 2.51 2.51 0 0 0 .09-1c2.93-.06 5.44-1.59 8.05-2.85 4.76-2.28 10.51-.54 11 5.19a8.58 8.58 0 0 1-1.43 5.13c-2 3.43-5.68 3.61-9 2.18-2.94-1.28-5.59-4.29-8.87-4.58a.68.68 0 0 0-.54.24 3.89 3.89 0 0 0-.21-1.52.33.33 0 0 0-.64.18 2.26 2.26 0 0 1-.1 1.28 2.61 2.61 0 0 1-.52.78.67.67 0 0 1-.15-.11.77.77 0 0 0-1.07 0c-.81.72-1.71.99-2.46.36z" fill="#7c1531"/><path class="cls-1" d="M108.67 380.4a.57.57 0 0 0-.13-1c-.22 0-1.1 0-1.19-.19-.14-.41.32-1 .52-1.26.47-.71 1.63-1.86 2.57-1.37.69.36.91 1.43 1.08 2.1a3.91 3.91 0 0 1-.63 3.81c-1.49 1.54-4.37 1.39-6.31 1.23a.16.16 0 0 0 0 .31c2.69.63 6.35 1 8.05-1.68 1.28-2 .58-6.66-2-7.44-1.82-.56-3.85 1.32-4.41 2.91s.45 3.66 2.45 2.58z" fill="#7c1531"/><path class="cls-1" d="M81.73 379.16c-1.56.54-1.05-3.33-2.75-2.56-.84.38-1.11 2.23-1.31 3-.57 2.08-1.37 5-4.09 3.4-.16-.09-.35.14-.2.26 3.39 2.65 4.65-2 5.54-4.5a6.66 6.66 0 0 1 .42-1l.06.14a13.84 13.84 0 0 0 .6 1.38 1.38 1.38 0 0 0 2 .62c.38-.26.15-.9-.27-.74z" fill="#7c1531"/><path class="cls-1" d="M82 377.49c.47 1 .19 2.09.53 3.09.13.4.82.36.77-.1a8.88 8.88 0 0 0-.79-3.29c-.22-.33-.69-.04-.51.3z" fill="#7c1531"/><path class="cls-1" d="M98.82 380.08c.53-.23.62-1.2.8-1.69a.16.16 0 0 0-.26-.15 4.67 4.67 0 0 0-.51.74c-.16.3-.41.56-.37.91a.23.23 0 0 0 .34.19z" fill="#7c1531"/><path class="cls-1" d="M100.48 380.14a9.44 9.44 0 0 0 .51-1.31c.07-.2-.23-.31-.33-.14a9.31 9.31 0 0 0-.76 1.21c-.13.33.42.55.58.24z" fill="#7c1531"/><path class="cls-1" d="M101.06 381.45a.21.21 0 0 0 .16.21c.84.26.91 1.25 1.26 1.93a1.17 1.17 0 0 0 2.09-.08.43.43 0 0 0-.48-.62 2 2 0 0 0-.57.19h-.07a2.51 2.51 0 0 1-.54-.78 1.88 1.88 0 0 0-1.42-1.14 5.65 5.65 0 0 0 1.1-3.32.15.15 0 0 0-.3 0c0 1.25-.84 2.08-1.52 3-.18.33.04.58.29.61z" fill="#7c1531"/><path class="cls-1" d="M71.31 440.63c-3-.9-4.62-4.49-2.52-7.07.75-.92 2.33-2 3.42-1a2.19 2.19 0 0 1 .16 2.47c-.61 1.16-1 .13-1.18-.55a.52.52 0 0 0-1 .14c-.2 2.63 2.38 2.77 3.54.83a3.17 3.17 0 0 0-2.89-4.87c-2.65.24-4.33 3.16-4.21 5.59a5.22 5.22 0 0 0 4.62 4.9c.26.03.29-.37.06-.44z" fill="#7c1531"/><path class="cls-1" d="M86.15 433.57c0-.29-.47-.2-.48.07a14.94 14.94 0 0 0-.06 2.09c-.7.23-1.85 1-2.41.14s.69-1.26 1.29-1.44c.2-.06.23-.39 0-.43a2.12 2.12 0 0 0-2 .54 1.48 1.48 0 0 0-.38.76 4.67 4.67 0 0 0-.65-1.31c-.2-.27-.64 0-.46.27a19.35 19.35 0 0 1 .73 2 .31.31 0 0 0 .5 0c.59 1.29 2.55 1.29 3.57.45a1.77 1.77 0 0 0 .2.29.35.35 0 0 0 .64-.17 6.78 6.78 0 0 0-.25-1.61c-.07-.52-.15-1.09-.24-1.65z" fill="#7c1531"/><path class="cls-1" d="M106.33 436.4a.57.57 0 0 0-.13-1c-.22 0-1.1 0-1.19-.19-.14-.41.32-1 .52-1.26.47-.71 1.63-1.86 2.57-1.37.69.36.91 1.43 1.08 2.1a3.91 3.91 0 0 1-.63 3.81c-1.49 1.54-4.37 1.39-6.31 1.23a.16.16 0 0 0 0 .31c2.68.63 6.34 1 8.05-1.68 1.28-2 .58-6.66-2-7.44-1.82-.56-3.85 1.32-4.41 2.91s.46 3.66 2.45 2.58z" fill="#7c1531"/><path class="cls-1" d="M79.4 435.16c-1.56.54-1.05-3.33-2.75-2.56-.84.38-1.11 2.23-1.31 3-.57 2.08-1.37 5-4.09 3.4-.16-.09-.35.14-.2.26 3.39 2.65 4.65-2 5.54-4.5a6.67 6.67 0 0 1 .42-1l.06.14a14.05 14.05 0 0 0 .6 1.38 1.38 1.38 0 0 0 2 .62c.38-.26.15-.9-.27-.74z" fill="#7c1531"/><path class="cls-1" d="M79.64 433.49c.47 1 .18 2.09.53 3.09.13.4.82.36.77-.1a8.9 8.9 0 0 0-.79-3.29c-.15-.33-.67-.04-.51.3z" fill="#7c1531"/><path class="cls-1" d="M96.48 436.08c.53-.23.62-1.2.8-1.69a.16.16 0 0 0-.26-.15 4.8 4.8 0 0 0-.51.74c-.16.3-.41.56-.37.91a.23.23 0 0 0 .34.19z" fill="#7c1531"/><path class="cls-1" d="M98.15 436.14a9.56 9.56 0 0 0 .51-1.31c.07-.2-.23-.31-.33-.14a9.41 9.41 0 0 0-.76 1.21c-.14.33.43.55.58.24z" fill="#7c1531"/><path class="cls-1" d="M98.72 437.45a.21.21 0 0 0 .16.21c.84.26.91 1.25 1.26 1.93a1.17 1.17 0 0 0 2.09-.08.43.43 0 0 0-.48-.62 2 2 0 0 0-.57.19h-.07a2.51 2.51 0 0 1-.54-.78 1.88 1.88 0 0 0-1.42-1.14 5.65 5.65 0 0 0 1.1-3.32.15.15 0 0 0-.3 0c0 1.25-.84 2.08-1.52 3-.17.33.04.58.29.61z" fill="#7c1531"/><path class="cls-1" d="M67.68 301.89c.48.21.9-.48.41-.71-18.5-8.66-34.16-21.32-43-40.09-.13-.27-.51 0-.39.23 8.17 18.9 24.41 32.39 42.98 40.57z" fill="#7c1531"/><path class="cls-1" d="M33.62 283.47c-.08-.09-.21 0-.13.13 6.46 7.45 13.82 13.93 22.62 18.46.25.13.47-.25.22-.37a79.9 79.9 0 0 1-22.71-18.22z" fill="#7c1531"/><path class="cls-1" d="M169 270a99.46 99.46 0 0 1-22.22 19.07c-9.28 5.88-19.58 8.84-29.36 13.62-.2.1 0 .4.18.3 5.59-2.62 11.49-4.42 17.2-6.75a88.49 88.49 0 0 0 13.63-7.46 90.38 90.38 0 0 0 20.92-18.43c.26-.21-.09-.57-.35-.35z" fill="#7c1531"/><path class="cls-1" d="M160.7 287.78c.29-.21 0-.69-.29-.49-8.75 6.11-16.68 13.45-26.9 17.08-.21.07-.12.4.09.33 10.31-3.49 18.4-10.7 27.1-16.92z" fill="#7c1531"/><path class="cls-1" d="M31.89 183.21a.34.34 0 0 0 0-.68.34.34 0 0 0 0 .68z" fill="#7c1531"/><path class="cls-1" d="M206.6 110c1.88-3.75 4.14-7.26 5.81-11.11 3.18-7.31 5-16.54 3.43-24.45-3.36-16.86-18-29.66-29.61-41.11-13.62-13.47-27.66-26.43-46.66-31.46C124.87-2 109 .14 96.36 8.43a1.29 1.29 0 0 0-.42-.78c-5.2-4.69-13.27-.56-17.05 4a1.52 1.52 0 0 0-.31 1.35C65.8 20.26 51.83 25.42 40 34.19c-10.38 7.63-21.13 21.17-22.12 34.52-.63 8.41 4.71 17.32.2 25.18-3.12 5.44-8.44 8.55-10 14.95C6.27 116 10 121.5 12.35 128c2.92 8-1.66 13.44-2.74 21.13a.32.32 0 0 0 0 .22C8 151 7.41 154 6.82 155.9a.31.31 0 0 0-.26.31 11.27 11.27 0 0 0 2.29 7.54c2.51 3.22 7.06 6 7.14 10.46.13 6.93-12.91 10.7-8.16 18.89a10 10 0 0 0 7.44 4.82.4.4 0 0 0 .07.65c5.17 2.39.47 13.52 1.95 18.06a4.28 4.28 0 0 0 3.79 3.13c.36 0 2.63-.91 2.72-.76.57 1.06.89 2.24 1.51 3.27a1.47 1.47 0 0 0 2 .51c.4-.18.79-.37 1.16-.57-2.48 5-1.45 11.43-6.52 15.13C16.47 241.29 7 240.47.55 241a.57.57 0 0 0 0 1.15c4.93.46 9.84 1.27 14.66.88a24.44 24.44 0 0 0 4.62 5c.08.06.2-.06.14-.14-1.3-1.76-3.09-3.21-4.56-4.85.84-.07 1.68-.19 2.51-.34a.81.81 0 0 0 .32.06h.13a14.69 14.69 0 0 1 .86 1.45c.25.47.45 1.23.88 1.56.11.08.26 0 .26-.15 0-.54-.52-1.18-.78-1.62a12 12 0 0 0-.78-1.22 5.87 5.87 0 0 1 1.26.26l.07.06c.91.5.75 1.33.74 2.17a13.59 13.59 0 0 0-.74 4 .39.39 0 0 0 .76.1 24 24 0 0 1 1-3c1.88-1.75 4.92-4.77 5.61-7.54C29.17 236 30 232 30.6 229.88a99.18 99.18 0 0 1 3.21-10l.1-.14a17.81 17.81 0 0 1 2.42-2 9.33 9.33 0 0 1 2.3-1.14 2 2 0 0 1 .82-.09v.66c-2.9.14-4.89 4.08-6.23 6.15-.11.17.16.33.27.16 1.45-2.17 3.13-5.51 6-5.74a15.25 15.25 0 0 0-.52 2.12c-1.54.09-2.65 1.37-3.48 2.58-.11.16.14.35.27.21.83-.92 1.82-2 3.11-2.16a17.3 17.3 0 0 0 .11 5.2c.83 4.93 3.81 9.14 7.11 13.13a54.48 54.48 0 0 0 7.46 9.44c.37.38.76.72 1.14 1.08 4.88 6.32 13.2 11.35 20.25 14.76 5.35 2.58 14.48 4.51 13 12.18-.68 3.53-2.18 6.74-2.62 10.35a44.12 44.12 0 0 0 1 14.09c.41 5 3.87 11.61 8.41 12.43.44.08.94-.5.5-.85a17.89 17.89 0 0 1-1.63-1.46 7 7 0 0 0 2.32-.77c-.23 3.47-.25 7-.51 10.42 0 .16.22.18.26 0a43.62 43.62 0 0 0 1.56-7.76.3.3 0 0 0 .19-.07c3.37-2.85 7.26-7.2 7.47-11.9a40.62 40.62 0 0 0 1.12-6.6c.59-6.16-1.08-12.91.56-18.9 2.55-9.33 18.15-11.37 25.81-14.6 8.43-3.56 16.62-8.46 22.68-15.42a29.13 29.13 0 0 0 5.33-9.19 6.32 6.32 0 0 1 .39 2.08c0 .36.5.33.54 0a7.35 7.35 0 0 0-.5-3.35 16.76 16.76 0 0 0 .4-1.69c1.05 1.87 1.77 3.73.94 6.14-.1.29.35.4.45.13a8.54 8.54 0 0 0-1.19-7.78 20.63 20.63 0 0 0 .05-2.79 18.67 18.67 0 0 1 3.07 8.67.18.18 0 0 0 .35 0 20.81 20.81 0 0 0-3.54-11.59.51.51 0 0 0 .17-.31c.07-.51.15-1 .2-1.48 6.57 5.65 4.9 13 4.2 21.17-.63 7.35-.51 15.07 4.22 21.13.21.27.68 0 .57-.33a39.3 39.3 0 0 1-1.33-4.51c1.78-1.51 3.5-3.11 5.27-4.63.14-.12-.06-.33-.21-.21-1.78 1.46-3.41 3.08-5.12 4.61q-.2-.86-.35-1.72a55.15 55.15 0 0 1 5.14-4.48c8 3.53 21.88 5 25.11 6.76a.27.27 0 0 0 .27-.46c-3.84-2.86-8.7-4.23-13.13-5.87-3.58-1.33-12.8-3.25-14.34-7.35a1.88 1.88 0 0 0-.62-.83c.11-.56.19-1.1.27-1.59a49.16 49.16 0 0 0 .49-6.92 18.65 18.65 0 0 0 .09-2.94 2.07 2.07 0 0 0-.09-.46v-.8a4.41 4.41 0 0 0 4.62-.89c2.49-2.17 4.17-4.54 7.66-5.36a5.38 5.38 0 0 0 3.47-2.15c4.24-6.24-1.05-17 5.51-21.07 1-.08 1.78-.13 2.2-.19 10.23-1.41 8.16-11 5.19-20.2l-.24-.75c-1-3.17-2.13-6.27-2.84-9a.74.74 0 0 0 .79-.25c3.34-4 8.12-7.37 9.09-12.73.49-2.73-.74-5.73-1.4-8.32a16.19 16.19 0 0 1 1-10.9c2.33-5.42 4.39-10.84 2.79-16.84a14.56 14.56 0 0 0-4.39-6.79c-1.12-2.74-.81-5.63.99-9.21zM25.28 216.31a3.22 3.22 0 0 0-2.67 0c-3.6 1.09-3.08-3.55-3.08-5.76 0-4.26 1.2-10.36-3.35-12.5.56.07 1.13.13 1.7.16a.29.29 0 0 0 .17.31c6.67 3 2.2 9.1 4.86 14.11 1.48 2.78 5.57 3 7.63 4.8a1.53 1.53 0 0 0-.26.16 21.89 21.89 0 0 1-3 2c-.52-1.24-.95-2.67-2-3.28zm22.6-87.94a8.67 8.67 0 0 1 .57-2.05c.35 1.59.53 3.16-.62 4.41a10.75 10.75 0 0 1 .05-2.37zm11.18-44.9c-.54-.16-1.08-.31-1.62-.45a.19.19 0 0 0-.14 0l.4-.74a7.39 7.39 0 0 0 1.25.75c.05.15.05.3.11.44zm-1.17-1.53c.2-.36.39-.72.59-1.09q.11.76.28 1.5c-.3-.13-.58-.27-.87-.41zm.44-2.34l-.21.32c.06-.2.13-.4.18-.61.02.1.02.19.03.29zm-1.12 3.61a.19.19 0 0 0 .12.19c.55.22 1.11.4 1.68.59l.26.09a12.75 12.75 0 0 0 .7 1.6 26.81 26.81 0 0 1-3.23-1.51c.16-.33.31-.65.48-.96zm3.28 3.37c.2.32.42.63.66.94-1.63-.76-3.48-1.08-5.14-1.83.19-.42.38-.84.59-1.26a13.46 13.46 0 0 0 3.9 2.15zm1.33 1.74l.12.14a13.15 13.15 0 0 0 1.27 1.16h-.11c-2.84 0-5.3-1.17-8-1.79q.37-.91.78-1.82a26.62 26.62 0 0 0 5.94 2.31zM54 90.71c5.63 1.45 11.35 3.4 17.2 3.47.19 0 .19-.28 0-.29-5.87-.53-11.42-2-17.14-3.36.28-.82.59-1.64.92-2.46 1.91.6 3.76 1.59 5.72 1.84 1 .13 2 .09 3.05.15 4.67 3.41 11.54 4.14 17 4.08 9.77-.12 19.43-5 29-.79a62.24 62.24 0 0 1 6.71 4c.85 1.9 4.37 2.63 6 3.09a22.28 22.28 0 0 0 3 .63c-5.86-.41-12.23-3.39-16.88-5.35-.11 0-.21.12-.1.17 5.53 2.43 13.94 7.22 20.72 6.12-5.14 1.83-11.05.17-16-2.54a.09.09 0 0 0-.09.16c6.1 3.69 14.17 6.11 20 1.37h.05a9.87 9.87 0 0 1-2.77 3c-2.63 1.63-6.21.81-9 .32-.12 0-.17.16-.05.19 3 .7 5.69 1.32 8.69.43a7.45 7.45 0 0 0 3.83-3.46v.53c0 .59-.17 1.16-.25 1.75 0 .1.12.11.17 0a3.37 3.37 0 0 0 .48-1.54 2.49 2.49 0 0 0 .75 1.21.05.05 0 0 0 .08 0 8 8 0 0 0-.41-1.32v-.16a4.75 4.75 0 0 0 1.2 1 .08.08 0 0 0 .09-.12c-.26-.38-.56-.73-.86-1.09h.06a.82.82 0 0 0 .4.12 1.68 1.68 0 0 0 1 .49.09.09 0 0 0 .07-.16 5.53 5.53 0 0 1-.49-.48l.16-.12a2.79 2.79 0 0 0 .51.39.18.18 0 0 0 .23-.05 44.66 44.66 0 0 0 8.38 4.45 30.37 30.37 0 0 0 13.29 2.1 8.49 8.49 0 0 1 5.72 1.63 18.21 18.21 0 0 0-3.79.92.06.06 0 0 0 0 .11 23.44 23.44 0 0 1 4.15-.72 10.93 10.93 0 0 1 1.73 1.79 19.75 19.75 0 0 0-2.59.63.08.08 0 0 0 0 .15c.89-.24 1.86-.25 2.74-.54a15.2 15.2 0 0 1 1.16 1.85c-.6.16-1.19.31-1.78.49a.12.12 0 0 0 .07.24c.63-.12 1.25-.28 1.87-.42a21 21 0 0 1 1.2 2.91.8.8 0 0 0-.89 0c-.24.17 0 .58.23.4s.47-.06.72 0h.06a30.53 30.53 0 0 1 .91 14.09 12.26 12.26 0 0 0-.21 1.39 1 1 0 0 0-.07.15 33.56 33.56 0 0 0-.34 3.62c-.14.87-1.45 1.62-1.75 2.52-.94 2.78.12 4.43 1.07 7.05a.52.52 0 0 0 1-.27c-.24-1-.55-2-.78-3-.49-2.15.71-3.24 1.9-4.72a3.53 3.53 0 0 0 .7-1.71l1.05.16c-.08.17-.17.33-.27.49-.45.71-1 1.37-1.36 2.1a4 4 0 0 0-.07 4.06c.08.19.41.05.33-.14-.69-1.76.44-3.25 1.43-4.58a11.93 11.93 0 0 0 1.2-1.75 1.92 1.92 0 0 1 1.27.84.46.46 0 0 0-.17 0c-1.84.32-3 3.75-2.48 5.49a9.41 9.41 0 0 0-1 1.67c-.12-.29-.28-.57-.42-.84a10.82 10.82 0 0 1-.55-1.19c-.12-.33-.15-.68-.31-1a.17.17 0 0 0-.29 0c-.35.51-.09 1.17.13 1.69s.4.88.61 1.31a8.56 8.56 0 0 0 .44.94l-.32.83a7.05 7.05 0 0 0-.34 1.26 9.73 9.73 0 0 1-.54-1.33.17.17 0 0 0-.33 0 5.6 5.6 0 0 0 .36 2.41 6.6 6.6 0 0 0 .48 1 7.62 7.62 0 0 0 .17.81 15.3 15.3 0 0 1-4-7.57c0-.22-.4-.17-.39.05a15.42 15.42 0 0 0 1.83 6.95c1.66 3.07 5.81 5.71 5.42 9.31a11.27 11.27 0 0 0-.29 1.13 5.2 5.2 0 0 1-.19.5.9.9 0 0 0 0 .73c-.19 1.39-.24 2.71-.31 3.2-1.09 8.18-2.87 16.33-3.43 24.55a73.94 73.94 0 0 0-1.75 7.3.75.75 0 0 0 0 .28c-2.12 8.24-5.53 16.18-11.94 22-3.27 3-7.55 4.33-11.76 5.74a15.15 15.15 0 0 0 1.29-.85c.11-.08 0-.25-.11-.18-.74.43-1.55.74-2.29 1.18a.19.19 0 0 0-.06.25l-.79.27c-.33-.39-.64-.8-1-1.17-.07-.07-.18 0-.11.11.33.36.61.75.91 1.13l-.72.27a8 8 0 0 0-1.08-1.29c1.1-.93 2.22-1.83 3.23-2.87 0 0 0-.13-.07-.09-2.82 1.87-6.76 3.89-8.62 7l-.1.05c-2.31 1.89-4.45 3.66-6.72 5.18a33 33 0 0 1-7.17 2.83 44.74 44.74 0 0 1-6 1.17c-1.33 0-2.64.15-4 .25a71.14 71.14 0 0 0-8.41-.34c-.94-.13-1.88-.27-2.81-.41-8.17-2.24-18.25-3-24.11-9.11-4.35-4.54-5.78-10.58-10.86-14.66-.14-.12-.34.07-.21.21a18.13 18.13 0 0 1 2.72 3.46c-.48.41-.82.87-1.57.77-.23 0-.33.3-.1.35a2.27 2.27 0 0 0 2.06-.47l.19.33a3.51 3.51 0 0 0-1.38.78.2.2 0 0 0-.08.17c-2-1.86-4.16-3.59-6.18-5.32-1.56-2.16-3.31-4.19-4.78-6.43-2.39-3.64-3.7-7.94-4.84-12.1a.11.11 0 0 0-.21.06c.89 3.91 1.69 7.71 3.46 11.33a18.53 18.53 0 0 0 1.39 2.34l-.93-.94a62.23 62.23 0 0 0-3.62-5.1q-.78-1.07-1.53-2.16c-.58-1-1.16-1.91-1.71-2.89a19.35 19.35 0 0 1-1.26-2.78 63.24 63.24 0 0 1-1.25-19.58 95.24 95.24 0 0 0 .5-12.7c.77-1.76 2.29-2.76 3.24-4.54 1.26-2.33-.2-5.23-.61-7.58 0-.21-.33-.14-.35 0-.19 3.1 1 6-1.55 8.45l-.56.57a6.13 6.13 0 0 0 .73-2.41c.19-2.23-.08-4.49.31-6.7.34-1.94 1.45-3.84 2.15-5.66 1.39-3.59 1-7.15.19-10.82-.26-1.19-.53-2.33-.67-3.49a.25.25 0 0 0 .17-.06c1.89-1.56 1.4-3.72 1.23-5.8.9 2.61 2 5.77-.33 7.12-.2.12-.06.38.15.35a2.64 2.64 0 0 0 2.54-2.82c.44 1.8.21 3.46-2.29 4.62-.41.19-.12.89.31.73a4.8 4.8 0 0 0 3.48-5.05 14.62 14.62 0 0 0-.79-3.9 20.22 20.22 0 0 1-.65-4.17.21.21 0 0 0 .36.08c1.31-1.38.27-3.41-.22-5.09a29 29 0 0 0 0-5.9A49.22 49.22 0 0 1 54 90.71zm110.17 16.19a8.38 8.38 0 0 0-1.75-.81 4.17 4.17 0 0 0 1.65-.3 2.55 2.55 0 0 0 .74-.42c.55-.45 2.07 2.32 2.25 2.64a18.71 18.71 0 0 1 1.12 2.35 16.9 16.9 0 0 0-4.01-3.46zm9.16 35.87a7.51 7.51 0 0 1 .5-1.84 12.63 12.63 0 0 1 1.62-2.05c.01 1.3-1.35 2.99-2.12 3.89zm1.82 11.29c0 .34-.11.67-.18 1l-.11-.17c-2.15-3-2.53-5.24-1.66-7.69a5.59 5.59 0 0 0 .86 2.46 6.18 6.18 0 0 1 1.09 4.41zm11.67 18.28a4.94 4.94 0 0 0 2.4-.63c4.08-1.61 4.85 1.21 5.74 3.67.13.36.26.73.38 1.09a5.33 5.33 0 0 0-5.68-.33c-2 1.05-4.36 2.76-6.14.22-.4-.58-.21-2.4-.71-2.88s-.63-.57-1.24-.33c-1.46.56-3.25-7.5-3.87-8.69-.1-.19-.37 0-.28.17 1.44 3 1.43 6.39 2.87 9.41a.31.31 0 0 0 .35.14c2.28-.8 1.95 6 4.59 5 3.34-1.21 5.52-3.64 9.35-1.8a7.78 7.78 0 0 1 1.35.84l.14.42a46.16 46.16 0 0 0 1.85 7.68c-.43-.48-.89-1-1.39-1.43a.43.43 0 0 0-.6 0c-2.26 2.29-2.95-1.93-4.46-2.82-1.67-1-4-.08-5.46.86a4.78 4.78 0 0 0-1.18 1.36c-1.1 1.56-3.35-3-3.76-3.76-2.24-4-3.7-8.44-5.38-12.67.37-1.79.74-3.56.94-5.34a7.65 7.65 0 0 1 .15 1 .45.45 0 0 0 .89 0 12.29 12.29 0 0 0-.32-3.6 4.69 4.69 0 0 0 3.65 1.48c7.31-.21-.32 9.79 5.82 10.94zm-16.36 22.46l-.83.72.12-.62a4.28 4.28 0 0 0 .71-.1zm2-16.42a32.5 32.5 0 0 0 3.88 3.84.17.17 0 0 0 .09 0c.13.24.25.47.36.7l-.57-.43a13.46 13.46 0 0 1-3.88-3.65zm3.3 2.69c-1.06-1-2.23-1.9-3.22-3l.29-1.13a17.72 17.72 0 0 0 2.89 4zm-2.72-5v-.13c.12.32.26.63.39.93-.09-.24-.23-.51-.36-.78zm-.83 3.26a11.56 11.56 0 0 0 2.3 2.67l.29.26c-1.15-.65-2.24-1.22-2.91-1.7zm-.43 1.68c1.86 1.79 5 2.9 5.91 5.27a4.33 4.33 0 0 1-.31 1.53 35.37 35.37 0 0 1-4.16 3.34c-1 .66-2.22 1.28-3.23 2.06a14.81 14.81 0 0 0 .08-3.88v-.05c.43-2.77 1.06-5.51 1.75-8.28zm-3.58 17.35a.66.66 0 0 0 .55-.1l3-2.15a24 24 0 0 1-3.91 3.91q.25-.82.4-1.64zm18.27 17.35c-1.8 4-7.25 2.1-10.62 2.63s-4.42 4.83-8.3 3.92a9.35 9.35 0 0 1-2-.94 1.29 1.29 0 0 0-.21-.83c4.67-4.9 12.29-3.31 17.62-7.57 1.42-1.14 2.92-3.1 2.48-5-.25-1.11 1.38-1.75 3.41-2.14a.43.43 0 0 0 0 .14 34.23 34.23 0 0 1-2.34 9.8zm-87.14 93a7.91 7.91 0 0 0-1.72-.52v-.78a.64.64 0 0 0 .15-.21c0-.08 0-.16.08-.24a5.06 5.06 0 0 0 2.19.7zM41.65 184.2c0-.11-.21-.09-.2 0a19.65 19.65 0 0 1-.45 3.7c0-1.65.34-3.35.35-5.06.1.43.2.85.31 1.27 0 .03 0 .06-.01.09zm-3.8-17.32a13.25 13.25 0 0 1 2.48-1.18c.92-.3 2.21-.42 3.2-.86a.79.79 0 0 0 .33.14v.43c-2.05-.18-4.35 1-6.2 1.75zm30.92 54.49a1.56 1.56 0 0 0-.9.19c-.22-.23-.43-.46-.66-.69.3-.07.6 0 .93-.09a.24.24 0 0 0 .11-.4 1 1 0 0 0-1.39.15l-.61-.58a.23.23 0 0 0 .13 0c.22-.12.44-.24.67-.34a4.24 4.24 0 0 1 .75-.21c.32.6.65 1.3.98 1.97zm2.5 5.12l.26.47-.47-.33a.53.53 0 0 0 .22-.14zM70 224c-.49-.65-1-1.27-1.59-1.89a1.69 1.69 0 0 1 .21 0 1.2 1.2 0 0 1 .65.29L70 224zm-.77 1.43l-.23-.13c-2.71-1.68-5.34-3.49-8.06-5.17-.1-.06-.18.09-.09.15a60.66 60.66 0 0 1 7.5 5.86c1.91 1.76 3.58 3.7 6 4.83h.11q.46.49 1 .94a18.2 18.2 0 0 0 6.93 3.53c8.56 4.63 18.88 6.16 28.62 5.26a34 34 0 0 0 10.52-.86 20.86 20.86 0 0 0 5.9-2.52 17.31 17.31 0 0 0 4.65-2.81c2.64-2.07 5.42-3.58 8.23-5.37l.06-.06c3.65-.7 6.8-.29 8.1 3.91v.09a5.88 5.88 0 0 0-5-3.2v.06c4.22.24 5.35 4.8 4.4 8.26q-.26.55-.5 1.11-.53.62-1.08 1.22c1.94-2.9 2.34-6.09-.91-9 0 0-.12 0-.07.07 3.36 3.2 2.26 6.4-.32 9.21a6.84 6.84 0 0 0 0-7.16c0-.09-.18 0-.13.08 3.46 6.72-4.14 10.5-9.75 13.56l-1.59.53a56 56 0 0 0 1-6.85A26.13 26.13 0 0 0 141 233c.08-.17-.15-.39-.29-.22-3.75 4.63-8.86 7.61-13.39 11.37-3.38 2.81-6.17 6.07-9.49 8.78-8.18 2.25-16.46 3.25-25.62.5-7.43-2.24-14.08-6.61-21.29-9.43l-.92-.36a.85.85 0 0 0-.21-.44c-2.68-2.93-4.66-6.83-6.78-10.17a88.778 88.778 0 0 1-3.25-5.57c-.08-.28-.14-.55-.22-.83a.07.07 0 0 0-.14 0v.16a74.35 74.35 0 0 1-3.59-7.79c-.12-.32-.64-.19-.52.14a84.65 84.65 0 0 0 4.55 10.5c.21 1.68.38 3.35.43 5.06 0 .17.2 2.24.31 3.75a36.48 36.48 0 0 1-7.11-5A39.7 39.7 0 0 1 47.15 222c0-.64-.05-1.28 0-1.93.54-1.53.85-3.23 1.39-4.6a6.87 6.87 0 0 1 2.18-3.34 1.94 1.94 0 0 1 1.48-.33c-2.48 1.81-3.49 6.25-4.73 8.65-.09.18.18.34.27.16.87-1.6 1.53-3.31 2.37-4.92a6.18 6.18 0 0 1 3.76-3.35 3.28 3.28 0 0 0 1.06.2.64.64 0 0 0 .18-.05l.45.39a14.52 14.52 0 0 0-2.07.53 5.17 5.17 0 0 0-2.5 2.23c-.07.11.1.25.18.14a5.48 5.48 0 0 1 2.69-2 15.33 15.33 0 0 0 .83 3.22c0 .13.22.07.2-.05-.18-1.1-.51-2.17-.63-3.28.61-.13 1.23-.21 1.85-.3l.3.25c4.07 4.04 8.43 8.12 12.81 11.83zm70.54-.18a9.68 9.68 0 0 1 .76 1c.06.09.11.18.16.28-.46.17-.9.35-1.35.54a9.55 9.55 0 0 1-.51-1c.3-.26.62-.53.93-.81zm4.85 1.92a.34.34 0 0 0 .27.11c1.06-.05 1.8-.3 2.77.29a5.36 5.36 0 0 1 1.22 1.06 4.66 4.66 0 0 1 1 3.64c-.53-2.63-2.19-4.89-5-4.64-.07 0-.08.12 0 .12 2.94-.07 4.12 2.85 4.23 5.74a11.2 11.2 0 0 0-.57-1.86c-1.47-3.62-4.73-3.71-7.9-2.86 1.36-.55 2.65-1.07 3.97-1.59zm.47 17.64a.78.78 0 0 0-.37-.33l.69-.36.08.12-.26.29a.53.53 0 0 0-.14.29zm-54.86 59.42a1.4 1.4 0 0 0 .28.06.82.82 0 0 0 .24.21c.15.08.29.14.43.2h-.08a3.7 3.7 0 0 1-.87-.47zM40.72 218.6a8.3 8.3 0 0 1 .57-1.58h.06a27.49 27.49 0 0 0-.48 3.52c-.08-.47-.18-.94-.25-1.43.04-.17.06-.34.1-.51zm20.22 16.07a35.22 35.22 0 0 0-.37-3.66c.2.38.38.75.58 1.13l.17.33c.2 2.13 0 4.44.39 6.59l-.34-.19c0-1.39-.37-2.94-.43-4.2zM133 250l.45-.2-.09.08-.36.12zm10.74-5.5h-.06zm-12.1 3.93a17.13 17.13 0 0 0 .35-5.32c.76-.65 1.52-1.29 2.27-1.95-.3 2.29-.77 4.54-1.22 6.8zm0-5a21.64 21.64 0 0 1-.62 5.23l-1.21.42c0-.41.07-.78.07-1 0-1.06 0-2.13.11-3.19q.77-.7 1.6-1.42zm-2.32 5c0 .21 0 .53-.07.88l-.74.26v-.71-2.54q.55-.53 1.12-1a31.23 31.23 0 0 0-.36 3.11zm-1.31.06c0 .41-.08.85-.13 1.3l-1.33.46c.05-.21.1-.42.16-.63a7 7 0 0 0 .26-1.81l1-1 .07-.06c-.04.55-.04 1.15-.04 1.75zm-2.17 2l-2.12.71c.94-1 1.86-1.94 2.78-2.9-.21.7-.5 1.47-.71 2.2zM96 263.8l-.43-.81c4.65 1.43 8.94.28 13.22-1.71-3.79 2.89-7.47 3.86-12.79 2.52zm8.51 10.83l-.17-.31c.19-.36.39-.72.6-1.08-.06.24-.13.48-.2.73s-.2.44-.26.67zm-.72 2.26q-.24.73-.48 1.47l-.41-.4q.16-.56.36-1.11a1.31 1.31 0 0 0 .49.05zM47.4 229.33c-3.8-5-5.18-11.24-1.93-16.84-2.28 4.85-.94 11.51 1.93 16.84zm14.54 13a1.19 1.19 0 0 0 0-.64c1.29.74 2.62 1.44 4 2.1l.2.1a17.09 17.09 0 0 0-3.63-1.28zm-12.47-9.71c.38.52.78 1 1.18 1.5a38 38 0 0 1-8.17-8.28 16.11 16.11 0 0 1-.75-4.07 13.84 13.84 0 0 1 .51-4c-.35 5.44 2.55 10.82 7.23 14.86zm9.43 7.45a1.2 1.2 0 0 0-.1.12l-1-.79c.32.24.71.47 1.1.68zm5.63 5.21l.34.2c4.25 2.57 8.16 7 11.07 10.24l.73.85c-2.52-2.12-5.23-4-7.54-6.4-1.57-1.65-3.08-3.32-4.65-4.92zm14.61 8.59a38.65 38.65 0 0 1 5 5.36c-2.62-1.7-4.93-4.53-7.12-6.93.73.5 1.44 1.02 2.12 1.58zm14.74 6.19c.35.43.73.86 1.14 1.27l-.45-.08c-.22-.39-.45-.78-.69-1.18zm4.41 1.38c-.61-.29-1.24-.55-1.83-.89-.85-.49-1.68-1-2.48-1.55a23.87 23.87 0 0 0 7.58 1.93 19.38 19.38 0 0 1-3.26.52zm-5-2.35l-.05-.09c-.09-.15-.2-.28-.29-.42l.63.26a.41.41 0 0 0-.28.27zm-2 2.41c-1.2-1.19-2.44-2.35-3.55-3.62s-2.3-2.71-3.52-4c3.16 1.66 5.34 4.56 7.1 7.64zm-12.93-2.93l.87 1-.94-.39a1.49 1.49 0 0 0 .1-.59zm12.88 8.34c2.48 1.35 4 3.87 5.56 6.36a26.51 26.51 0 0 0-4.88-4.84c-.09-.19-.19-.37-.27-.56a.54.54 0 0 0-.71-.26 11.76 11.76 0 0 0-1.17-1.46c.52.26 1.01.52 1.5.78zm11.24 9.42c-.12.28-.24.56-.35.85q-.63-.74-1.19-1.52a3.64 3.64 0 0 0 1.27.38c.12.12.21.22.3.31zm-4.34 27.15v-.07h.06zm-5.26-24.93c1 1.57 2.14 3.17 3.28 4.6a13 13 0 0 1-2.92-1.7 8.53 8.53 0 0 0-.32-2.88zm9.12 5.08a23.72 23.72 0 0 1 .22-2.68l.26.18a19.16 19.16 0 0 0-.48 2.51zm-8.66-6.85a1.29 1.29 0 0 0 .24-.41c.32.69.67 1.38 1 2-.36-.48-.78-1.03-1.2-1.58zm-.5 17a15.17 15.17 0 0 0 7.34 2 7.43 7.43 0 0 1-1.22.67 13.57 13.57 0 0 1-2.65-.74 23.84 23.84 0 0 1-2.23-.89c-.36-.32-.78-.67-1.2-1.01zm-2.28-5.94a9.12 9.12 0 0 1-.92-.57 14.91 14.91 0 0 0 1.14-3.9l.29.25c-.07 1.38-.26 2.83-.47 4.25zm.69-7q0 .64-.06 1.27L91 282c.12-.37.21-.75.28-1.13zm10.42 13.65a8 8 0 0 1-.57.58 15.29 15.29 0 0 1-9.1-2.19.18.18 0 0 0-.25.07l-.48-.34.13-.43c3.27 1.72 6.62 2.89 10.39 2.29zM94.12 291c1.46.44 3 .81 4.43 1.26a14.88 14.88 0 0 1-4.43-1.26zM92 284.32h.06l-.08.3c.02-.07.02-.18.02-.3zm.07-1.63a33 33 0 0 0-.19-4.4 1.24 1.24 0 0 0 .47-.11 9.51 9.51 0 0 1 .05 4.72zm1.11.23c0-.23.05-.46.07-.69a13 13 0 0 0 4.46 3.44 30.61 30.61 0 0 1-4.6-2.32zm5.64 3.08l.15.14-.46-.14-.71-.28a5.49 5.49 0 0 0 1.02.28zm2.49-5.81a15 15 0 0 0-.23 2.35l-.26-.27a33.21 33.21 0 0 1-3.55-4.58 75.92 75.92 0 0 1-5-8.49c1.82 1.9 2.82 4.43 4.52 6.46a35.66 35.66 0 0 0 4.52 4.54zm-7 8.29a8.34 8.34 0 0 0 1.43 1.07 27.2 27.2 0 0 1-3.46-1c.24-1.22.43-2.45.61-3.63a31.44 31.44 0 0 0 10 4.59c.06.38.11.75.15 1.13-2.87-.78-6-.6-8.52-2.45-.2-.07-.38.17-.25.3zM90 278.06q-.12.75-.27 1.51v-.49c.09-.34.19-.68.27-1.02zm14 16.14a1.19 1.19 0 0 0-.53-.11 1.08 1.08 0 0 0 .57-.47c-.04.19-.04.38-.04.58zm-12.8-37.91a14 14 0 0 0-1.23-1.17h.11a36.35 36.35 0 0 0 6.6 1.9c-1.84-.24-3.68-.57-5.51-.73zm-8.53-4q-.48-.43-1-.83l2 .92c-.37 0-.67-.04-1.03-.05zM68 244.88q-.83-.5-1.7-.92l2.48 1.21zm-2.42-3.73a8.22 8.22 0 0 1-.11-.91q.41.67.84 1.31zm-.62-.34l-.52-.29a12.31 12.31 0 0 0-.19-2.43c.22.41.45.81.68 1.21a.21.21 0 0 0 0 .14c-.02.45-.01.92.07 1.38zm-1.08-.58l-.51-.27c-.06-.66-.13-1.33-.15-2s0-1.24 0-1.85l.71 1.37a.1.1 0 0 0 0 .09 17.67 17.67 0 0 1-.05 2.66zM62.77 238v1.66l-.36-.2c-.29-2-.27-4.16-.67-6.18l1.12 2.2a24.45 24.45 0 0 0-.09 2.52zm-16.86-5.46a30.56 30.56 0 0 1-2.06-3.39c3.83 5.3 9 9.8 13.68 14.13.7.65 1.39 1.37 2.08 2.13-5.74-2.92-10.07-7.68-13.7-12.9zm13.86 14a.41.41 0 0 0 .54-.3l1.17 1.38q-1.31-.71-2.59-1.46zm44.12 27.3a1.53 1.53 0 0 0-.3-.25 1.26 1.26 0 0 0-.46-.15 8.3 8.3 0 0 0 1.24-.33c-.18.17-.37.42-.49.66zm-6.62-7.53l-.08-.15a9.78 9.78 0 0 0 8.6.41 9.4 9.4 0 0 1-7.85.89c-.23-.46-.47-.83-.68-1.22zm16.15-4.5a.82.82 0 0 0 0-.17c2.71-2.3 5.25-4.88 7.55-6.89 1.48-.48 2.94-1 4.4-1.54a.2.2 0 0 0 .36 0v-.11l2.35-.92c-5.4 2.85-10 7.17-15.1 10.59.18-.42.32-.71.44-1.03zm23.3-11.46a1.08 1.08 0 0 0 .27-.41 35 35 0 0 1 3.53-2.08l.42-.19q-1.56 2-3.19 3.86c-2.35 2.73-5.15 5.47-8.67 6.51 2.68-2.55 5.16-5.35 7.64-7.76zm12.71-24.87l-.26-.1.83-.38c-.23.13-.4.27-.57.41zm-10.84.89a9 9 0 0 0 .4.93q-.76.33-1.5.7c-.06-.09-.15-.17-.22-.25a16.83 16.83 0 0 1 1.32-1.45zm-1.37 1.46l.13.21-.55.31zM42 179.35a17.87 17.87 0 0 0-1.53-2.35 14.3 14.3 0 0 1 1.53 1.7v.65zM40.88 181c.16.55.28 1.1.41 1.66a.12.12 0 0 0-.19.1 13.73 13.73 0 0 1-.46 2.3c.07-1.4.23-2.75.24-4.06zm15.84 64a.23.23 0 0 0 0 .37c2.83 2.23 5.66 4.56 8.58 6.73.33.38.65.75 1 1.12a42.08 42.08 0 0 1-4.38-3.09c-2.62-2.12-5.11-4.26-7.43-6.48q1.07.75 2.23 1.35zm41.53 61.41a2.9 2.9 0 0 1 .72-.56 3.31 3.31 0 0 1 1.49-.31 6.15 6.15 0 0 1 .9.11c-.1.19-.2.39-.31.58s-.14.21-.21.32a3.28 3.28 0 0 1-2.59-.12zm5.1-35.6a4.59 4.59 0 0 1-2.85.63c-.34-.62-.72-1.23-1.11-1.83a10.72 10.72 0 0 0 5.43.1 10.19 10.19 0 0 1-1.47 1.12zm8.57-6.13c3.33-1 6.18-3.1 9-5.11 2.31-1.64 4.74-3.21 7.2-4.7a42.81 42.81 0 0 1-5.19 4.64 37.54 37.54 0 0 1-11.55 5.9c.18-.21.37-.41.54-.7zm16-5.65a.46.46 0 0 0 .27.12 8.26 8.26 0 0 0 1.56 0q-1.84.75-3.68 1.42.93-.72 1.8-1.51zm10.23-4.61a47.71 47.71 0 0 0 4.84-5.36c.9-1.12 2.24-2.29 2.25-3.79a.5.5 0 0 0 .74.16q.59-.43 1.15-.88c-.07.4-.13.8-.2 1.2a41.62 41.62 0 0 1-8.16 8.4c-.26.2-.13.67.22.58q-1.6.88-3.24 1.69c.8-.6 1.6-1.28 2.35-1.97zm44.58-48.2c0 .07 0 .14-.07.2a7.74 7.74 0 0 1-2.35-.25 5 5 0 0 0-2.77.21c-2.25.87-1.71 4.56-4.48 4.52-.16 0-.2.25 0 .28 3.24.52 3-4.31 6.39-3.67a24 24 0 0 0 3.23.55c.42 2.54-2.67 4.13-4.64 4.89-5.32 2-11.66 1.42-14.91 6.6-.83-.09-1.67-.1-2.5-.18l-.07-.1a8.78 8.78 0 0 1 .63-1.2c.58-.9 1.32-1.69 1.93-2.58.12-.18-.16-.33-.28-.17a37.26 37.26 0 0 1-2.46 2.8l-.47.5a.85.85 0 0 0-.57 0 27.4 27.4 0 0 0 3.52-4.65c3-.88 5.64.44 8-2a4.4 4.4 0 0 0 1-2.16c1.2-4.05 4.17-5.07 7.8-5.06a40.3 40.3 0 0 0 4.17-.15 4.61 4.61 0 0 0-1.15 1.65zm-131-84.12c0-.63-.08-1.27-.12-1.91a.68.68 0 0 0 .16-.25 3.08 3.08 0 0 1 0 2.12s-.08.05-.09.06zm-14.4 45.46h.06c1.23-.19 2.46-.43 3.67-.73.88-.21 1.81-.27 2.7-.44 0 .15 0 .29-.05.44-1.33.22-2.66.5-4 .79-.16 0-.09.28.07.25a8.52 8.52 0 0 1 3.16-.37 5.15 5.15 0 0 0 .64.13c-.35 2.78-.81 5.61-1.2 8.44a8 8 0 0 0-1.49-1.07 8.69 8.69 0 0 1-3.13-2.63 10.84 10.84 0 0 1-1.36-3.47 14.67 14.67 0 0 1 .88-1.31zm.21 7.18a7.61 7.61 0 0 0 .74.68c.31.48.6 1 .87 1.47-.21 1.45-.53 3.89-.64 6.21a28.61 28.61 0 0 1-1.01-8.34zm.9 10.26v.08a3.59 3.59 0 0 0-.2-.5c.08.12.13.26.2.42zm.89-2.68c0-1.58.07-3.15.12-4.73.32.62.62 1.25.88 1.87-.31 2.68-1 5.74-.57 8.45l-.31-.5a24.54 24.54 0 0 1-.11-5.11zm3.27 11a.38.38 0 0 0 0-.23c-.16-.52-.49-.93-.64-1.46a9.62 9.62 0 0 1-.15-2.85 24.41 24.41 0 0 0 1 4.78v.49l-.34-.19a.41.41 0 0 0 .14-.53zm4.19 15.17c-.32.19-.63.41-.94.63a.94.94 0 0 0-.25.18 13.27 13.27 0 0 1-1.26.83 21.74 21.74 0 0 1-3.34 1.43.71.71 0 0 0-.48-.15 26.24 26.24 0 0 1-6.1-.58c-4-.77-4.53-3.36-4.41-7 .11-3.22-2.75-4.78-5.57-5.65h.58a10.94 10.94 0 0 1 7.3 2.32c1.35 1.19 2 3.41 3 4.86 3.32 4.5 5.68 2.81 11 2.53a.68.68 0 0 0 .58-.34c.01.33-.04.64-.1.94zm-25.31-10.23c3.58 1.81 7.07 3.09 6 8.17-.42 1.93.6 3.62 1.91 4.93a8.93 8.93 0 0 0 5.92 2.28 14.59 14.59 0 0 0-1.82 2.14c-2.18-2-7.41-2.11-8.84-4.17-1.7-2.43-1.05-6.24-1.68-9.06a6.36 6.36 0 0 0-3.76-4.3c.73.02 1.5.02 2.27.01zm15.76 17.92a11.12 11.12 0 0 0-2.74 2.17c1.7-3.55 3.29-4 6.44-3.66-.15.25-.31.5-.45.76a5.38 5.38 0 0 0-3.25.73zm3.19 9a42.21 42.21 0 0 0 1.45 5 19.4 19.4 0 0 1-1.44-5.04zm37.24 37.62c.66.26 1.32.5 2 .74 2.94 1 7.12 2.16 8.85 5a.69.69 0 0 0 .9.27 11.42 11.42 0 0 0-.09 1.36c-2.27-3.73-7.42-5.56-11.66-7.37zm12.95 44a5.19 5.19 0 0 0 4-.76 3.12 3.12 0 0 0 .9 1.14 9.15 9.15 0 0 1-1.11.48 21.05 21.05 0 0 1-2.77.81 19.27 19.27 0 0 1-1.03-1.67zm2.75 3.81a17.41 17.41 0 0 1-1.51-1.83 10.21 10.21 0 0 0 3.45-.58c.21-.09.43-.2.65-.32a2.76 2.76 0 0 1 .13.43c0 .27-.05.54-.07.82a9.6 9.6 0 0 1-2.65 1.49zm4 1.12c.1-1 .17-1.9.24-2.84l.61.24.71.25c-.56.77-1.08 1.55-1.57 2.36zM109 268.15a1.2 1.2 0 0 0-.12-.27 12.21 12.21 0 0 0 1.24-1h.58a20 20 0 0 0-1.7 1.27zm39-19.57c.59-.65 1.15-1.32 1.7-2a1.24 1.24 0 0 0 .27.27l-1 .93c-.32.29-.66.54-.97.81zm20.38 6.42c.27-1.09.61-2.17.94-3.24a7.75 7.75 0 0 0 1.91 1.8 9.25 9.25 0 0 0-1.06 1.1 14 14 0 0 0-1.61 2.18q-.11-.9-.18-1.84zm5.35 0a30.62 30.62 0 0 0-4.81 4.29q-.17-1-.29-1.93h.06a19.38 19.38 0 0 0 1.69-2.09 10.16 10.16 0 0 1 1.34-1.33 18.41 18.41 0 0 0 2 1.06zM169 233.48v-.49l.36.22a1.34 1.34 0 0 0-.36.27zm13.17-6.6a5.59 5.59 0 0 0-3 1.65c-2.78 3.31-6.39 4.57-10.34 3.25a13.86 13.86 0 0 0-1.27-4 15.75 15.75 0 0 0 3.63 1.26c1.61.33 4.47.77 6-.22a30.13 30.13 0 0 0 3.63-3c1.91-1.75 4.58-2.16 6.81-3.39.7-.39.09-1.36-.62-1.05-1.72.76-3.82.89-5.46 1.78a38.86 38.86 0 0 0-4.46 3.3c-1.54 1.15-6.94.63-9-1.17h.25c4.85 0 6.85-5 12-4.86 4.45.14 6.66-2.24 7.83-5.48v.52c.07 4.82.57 10.81-6.02 11.41zm7.43-20.59v-.42a.33.33 0 0 0-.08-.25l.54-.08a7.2 7.2 0 0 0-.49.75zm10.05-8.29a5 5 0 0 1-.4 1 8.24 8.24 0 0 0-1.31-4.63c-1.88-3-7.56-2.34-8.23-6.07 0-.17-.33-.13-.31 0 .21 1.91 1.61 2.87 3.31 3.55s3.39 1.23 4.59 2.85a5.17 5.17 0 0 1 .07 6.16c-1.93 1.09-4.65 1.19-7 1.41a10.66 10.66 0 0 0 2.7-3.54c1.12-2.26-1.85-2.57-3.3-2.54-2.23 0-4.24.95-5.54-1.39s-2.09-5.1-3.56-7.37a.08.08 0 0 0-.13.08c1.33 3.08 1.69 7.13 4 9.68 1 1.05 8.36-.8 7.17 1.57a7.62 7.62 0 0 1-3.75 3.85l-.32.07a9.42 9.42 0 0 0-1.22.42c-3.8.79-8.32-.81-12 1.29a6.77 6.77 0 0 0-3.52 4.14c-1.45 4.46-4.08 3.34-7.29 4 .33-.62.65-1.26.95-1.9a.51.51 0 0 0 .26-.18 12.83 12.83 0 0 0 .93-1.75 4.63 4.63 0 0 0 .65-1.74c0-.18-.15-.25-.29-.21a55.53 55.53 0 0 0 1.66-6.06 22.92 22.92 0 0 0 6.22-6.26q1.69-1.26 3.29-2.59a13.3 13.3 0 0 0-.66 2.91c-.2 1.57-1.38 2.31-2.37 3.17-1.31 1.14-2.12 3-3.34 4.31s-2.87 2.61-4.31 3.88c-.42.37.2 1 .61.61 1.44-1.29 2.93-2.52 4.29-3.89 1-1 2.36-4.1 3.52-4.41 3.55-.95 1.89-4.08 2.8-7l.35-.29a.61.61 0 0 0 .21-.47c2.47-2.69 2.76-5.93.53-10-2.36-4.24-4.38-7.13-3.34-12.34v-.12c1.19 3.34 2.26 6.74 3.65 10 1 2.3 2.13 6.13 4.48 7.51a1.2 1.2 0 0 0 1.78-.48c1.83-2.94 5.24-3 6.79-.14a5.31 5.31 0 0 0 2.33 2.09.52.52 0 0 0 .7-.18c.86-1.39 2-.63 3 .63l.1.3c1.12 3.34 2.14 6.73 1.25 10.07zm-1.51-83.56c4.52 3.58 8.48 8.66 9.08 14.54s-3.26 11.17-4.71 16.71c-1.15 4.37.81 9.25 1.88 13.41 1.57 6.12-5.17 9-7.1 14.09a16.86 16.86 0 0 1-.26-1.84.2.2 0 0 0 .08-.22 5.38 5.38 0 0 1-.09-1.32c0-.19 0-.39.06-.57a.19.19 0 0 0 0-.12c.3-3.8 2-10.08-1.23-11.75-1.9-1-3.94-1.14-6-1.66-4.12-1 3.15-6.34 3.71-6.83 2.24-1.94 2.69-4.29.56-6.51s-7-1.16-9.59-.33a.15.15 0 0 0 .08.28 16.13 16.13 0 0 1 6.6-.54q4.15.52 2.44 5.86a19.27 19.27 0 0 1-3 2.4c-1.62 1.22-3.56 2.58-3.34 4.81.18 1.76 2.91 2.14 4.14 2.37q1 .17 2.08.4c3.63.78 3.38 4.44 2.88 7.34a12.81 12.81 0 0 0 0 5.32c-.16.68-.27 1.36-.36 2a14.2 14.2 0 0 0-1.26-3.3c-1-1.74-3.09-1.4-2.95-3.49.29-4.28-4.47-4.53-6.59-7.4a.13.13 0 0 0-.22.13c1.93 3.7 7.55 3.36 5.35 8.79a.53.53 0 0 0 .37.65 5.34 5.34 0 0 1 3.7 4.15 8 8 0 0 0-1.16-1.32 2.78 2.78 0 0 0-2.22-.53 33.21 33.21 0 0 0-3.19 1.16c-4 1.55-2.31-4.11-2.22-5.12.17-1.86-.21-5.6-2.78-5.77a12.31 12.31 0 0 0-1.89.05c-4.92.42-2.9-4.92-2-6.85a13.47 13.47 0 0 0 1.3-3.94 4.52 4.52 0 0 1 1.36 1c1.67 1.72 1.1 4.23.14 6.12-.07.15.12.32.24.18a5.66 5.66 0 0 0 .73-6.27 5.06 5.06 0 0 0-2.47-2.32.38.38 0 0 0-.47-.36l-5.08-2.06a.18.18 0 0 0-.3.18 6.14 6.14 0 0 0 1.79 2.23.52.52 0 0 0 .44.8 19.4 19.4 0 0 1 2 .1c1.66 1.39-1.15 5.19-1.88 7.19a4.27 4.27 0 0 0-.26 1.18.23.23 0 0 0-.19-.19c-.12-.22-.24-.45-.37-.67a11.91 11.91 0 0 0 .1-4.75c-.52-2.28-2.58-2.85-2.62-5.25a21.12 21.12 0 0 1 2.35-3.87 5.25 5.25 0 0 0 1-4.85 10.17 10.17 0 0 0-.89-5.56c-.66-1.13-2.28-.25-1.35-3.1a25.89 25.89 0 0 0 1.18-6.25c0-.13-.18-.12-.2 0a31.06 31.06 0 0 1-1.75 7c-.34.91-.18 1 .21 1.8a.27.27 0 0 0 .1.1c1.25.69 1.34.52 1.61 3.07 0 .44.06.87.07 1.31-.11-.12-.21-.24-.33-.35-1.27-1.12-4.14.58-3.32-3.4a53.76 53.76 0 0 0 .85-5.88v-.61c.71-4.34 2.08-8.58 1.55-13-.28-2.42-2.43-4.06-2.67-6.87-.15-1.79-.25-4-1.27-5.58-1.19-1.79-2.4-2-4.42-1.26-7.15 2.69-12.25 8-20.51 4.14-.1 0-.18.1-.08.14 3.83 1.88 7.28 1.81 11.34.68 3.28-.91 11.4-7.45 13.48-2.34.91 2.22.68 4.84 1.1 7.19.35 2 2.1 3 2.36 5 .38 3-.29 6.23-.84 9.36a22.75 22.75 0 0 0-2.42-9.44 27.16 27.16 0 0 0-5.26-9.54.32.32 0 0 0-.45 0 3.5 3.5 0 0 1-3.48 1 .18.18 0 0 0-.21.25c-3.47-.69-7.24.31-10.75-.58a80.56 80.56 0 0 1-11.32-4.05 42.24 42.24 0 0 0 7.06.19c3.21-.1 7.53-.46 9.56-3.31.1-.15-.13-.33-.25-.19-3.74 4.43-12.43 2.95-18.16 1.47a26.28 26.28 0 0 0 15-8.61c.19-.23-.15-.57-.33-.33-5 6.35-11.45 7.26-18.48 7.78a15.94 15.94 0 0 0-5.45 0c-2.71-.2-5.45 0-8.09-.79-3.77-1.14-6.82-4.62-10.33-6.41-6.62-3.37-14.38-2-21.42-1.11C81 90.76 73.8 91.1 67 87.86c-7.81-3.7-6.23-14.17-9.12-21.07a.35.35 0 0 0-.08-.12c0-.41 0-.82.06-1.22a.39.39 0 0 0-.38-.42c0-.22-.07-.44-.1-.66 0 0 .06 0 .08-.05.69-1 1.87-2.82.6-3.95a4.11 4.11 0 0 0-1.85-1.19c-1.91-.55 1.49-3.63 1.75-4.19a2.63 2.63 0 0 0-.48-3 3.06 3.06 0 0 0-2.08-1c-4.32-.78-1.62-6.19-.34-8.35a.15.15 0 0 0-.26-.15c-1.06 1.71-4.11 5.91-1.88 8 1.07 1 6.59 2 4.23 4.7a10.5 10.5 0 0 0-2.58 4 .38.38 0 0 0 .26.46c2.46.2 3.22 1.63 2.3 4.27A.12.12 0 0 0 57 64v.14a.18.18 0 0 0 0 .23c0 .27.05.54.08.81a.43.43 0 0 0-.15.2c-2.09 6-1.21 12.57-4 18.51a.4.4 0 0 0-.14.15c-1.77 3.2-5.12 4.48-6.75 7.76-1.9 3.83 1.09 9 0 13.07a.12.12 0 0 0 .23.06c1-4-.66-7.85-.08-11.87s5.75-5.11 7.32-8.63a.41.41 0 0 0 0-.38c2.69-4.25 3.66-9.93 4.07-15.14q.13.8.28 1.6c.17 1.66.21 3.33.24 5-.64 2.19-.59 4.51-1.37 6.65q-.47.78-.91 1.57l-.42-.23a.09.09 0 0 0-.09.16l.41.26q-.36.65-.71 1.31l-.1-.06c-.09-.06-.2.08-.11.15l.12.09q-.88 1.68-1.66 3.39a.4.4 0 0 0-.26.2c-.86 1.64-2.79 2.59-3.47 4.31-1 2.64-.64 5.41-.77 8.17a.15.15 0 0 0 .29 0c.67-2.62-.13-5.44 1.23-7.9a8.67 8.67 0 0 1 1.87-2.09A47 47 0 0 0 49 104.8c-.4 4.9.57 9.71-.91 14.5-1.26 4.09-4.21 6.91-3.55 11.51.62 4.36 2.18 8 1.46 12.3a7.37 7.37 0 0 1-.3.84 2.74 2.74 0 0 1-.18.32 8.74 8.74 0 0 0-.61.73 7.65 7.65 0 0 1-3.31 1.07 3.91 3.91 0 0 0-2.2 1.72c-.12.16.14.35.28.21 1.2-1.21 3-1.26 4.5-1.62-.6 1.85-.7 5.41-3.44 5.25-2.27-.13-3 2-2.85 3.9.42 6-4.42 2.14-7.29 2.81-1.76.41-2 3.12-2.24 4.48 0 .26.35.38.41.11.39-2 1.22-4.25 3.73-3.76 1.38.27 2.58 1.08 3.93 1.45 1.7.47 2.81-1.47 3.26-2.74s-1.22-4.37 1.07-4.66a6.3 6.3 0 0 0 2.63-.66 1.66 1.66 0 0 0 .27-.18 25.3 25.3 0 0 0-.29 4.14c0 3-3.37 5.34-6.16 7.67a6.41 6.41 0 0 1-2.43-.61c-1.65-.75-3.29-1.2-4.19.7-.1.21.19.39.31.18 1.33-2.26 3.53-.06 5.09.79a10.82 10.82 0 0 0-1.62 1.81c-2.07 3.07-1.67 7.22-.83 10.58a.39.39 0 0 0 .76-.1 15.29 15.29 0 0 1 1.49-7.54 7.79 7.79 0 0 0 1.34 4.34c-.37 3.36-.4 7.1 1.08 10.17a4.79 4.79 0 0 0-.44-.69.23.23 0 0 0 0-.23c-2.09-3.8-2.37-7.8-1.93-12 0-.14-.23-.18-.25 0-.48 3.58-.65 7.61.94 10.95-1-1-2.12-2-2.32-3.46 0-.18-.33-.14-.32 0a4.68 4.68 0 0 0 1.35 2.92c.5.56 1.05 1.08 1.56 1.63a5.67 5.67 0 0 1 1 1.62c-1.78-1.84-4-2.53-6.83-.13-.7.59-3.87 3.56-4.75 3.14.37-2.29 1.88-4.22 2.38-6.54a3.12 3.12 0 0 0-.24-1.93.27.27 0 0 0-.06-.14c-.55-1.21-1.49-2.32-1.33-3.76 0-.29-.44-.35-.51-.07a6.64 6.64 0 0 0 .62 3.66 3.86 3.86 0 0 0-2.21-1.2 12.62 12.62 0 0 0-1.9.08c-2.84.29 1.18-5.45 3.33-6.27 1.6-.61 4.39-2.67 4.39-4.63 0-1.62-3.41-3-4.3-3.8-2.38-2.1-3-6.25-.18-8.15 1.37-.91 3.27-1.21 4.82-1.69 1.84-.56 3.51-1.49 4-3.46a.51.51 0 0 0-.36-.63c-5.07-1.17-2.2-6.91 1.25-6.94a4.65 4.65 0 0 0 1.69-.28 8.17 8.17 0 0 0 3.62-4.06c2-5.08 1.62-10.69.47-15.94 0-.23-.4-.13-.35.1 1.09 5 2.78 19.32-5.44 19.55-3.38.09-4.64 1-4.93 4.65-.25 3.2 4.55 3.9.34 5.88-2.54 1.2-5.81 1.62-7.29 4.28-1.24 2.23.49 5.45 1.93 7.1s5.39 2.94 2.25 5.89c-1.13 1.07-5 1.85-5.76 3.72-.35.82-2.32 5.38 0 5.39 1.9 0 3.14.69 4.82 1.21a4.12 4.12 0 0 1 .08 1.35c-.07.35-.15.67-.24 1a15.15 15.15 0 0 1-.85 2l-.18.33a5.2 5.2 0 0 0-.48 1.06 6.55 6.55 0 0 0-.67 3.55.6.6 0 0 0 .75.57 2.63 2.63 0 0 0 1.86-1.14.53.53 0 0 0 .05-.09c1.72-1.07 3-2.59 4.76-3.77 2.81-1.92 4.8-.25 6.3 2.18a2.3 2.3 0 0 0 .93 1.7c.43.86.81 1.73 1.16 2.52a3.19 3.19 0 0 0 .39 1.26 9.52 9.52 0 0 1-1.42-1.72.2.2 0 0 0-.34.2 7.42 7.42 0 0 0 3.53 3.37 18.74 18.74 0 0 0 2.8 7.47 23.49 23.49 0 0 1-6.34-2.73c-3.54-2.41-5.34-6.48-6-10.58 0-.18-.33-.13-.31 0 .81 6.82 6.42 14.8 13.92 15.08l.44.54c-.09.84-.22 1.7-.37 2.56a.67.67 0 0 0-.67-.57 28.37 28.37 0 0 0-5.86.08c-2.72.44-3.77-2.82-4.68-4.72-1.07-2.24-2.4-4-4.83-4.92-5.57-2.07-19.87 1.44-20.52-6.81-.31-3.9 3.61-6.53 6.22-9.61a16.91 16.91 0 0 0 4.86-6.46c1.86-3.92.22-8.58-1.71-12.11-.11-.2-.41 0-.3.18 2.08 3.93 3.07 8.06.49 12.06a14.27 14.27 0 0 1-1.04 1.56v-.5a21.59 21.59 0 0 0 .34-7.25c-.49-3.9-8.82-9.88-.74-11.79 2.74-.65 5.73-.8 7.45-3.38 2.79-4.21 2.19-9 2.88-13.82 0-.2-.27-.3-.32-.09-1.06 5.13 0 13.26-6.08 15.36-2.34.8-5.41.23-7.46 1.82s-1.66 4.35-.78 6.6c.81 2.06 2.72 3.41 3.54 5.51a8.79 8.79 0 0 1 .21 3.81c-2.96-5.94-10.61-8.28-10.82-15.73a.31.31 0 0 0-.08-.21c.82-2.21 2.28-8 5.42-6.86a10.84 10.84 0 0 0 4.84.32c2-.18 3.63-.8 4.67-2.58a7.6 7.6 0 0 0 .76-2.83c.18-1.56-.72-13.82 4.24-10.69 2 1.26 5.09 2.48 7.39 1.28 2-1.08 2.18-5.81 2.25-7.71s-3.72-14.59.49-12.3c4.88 2.65 11.26 4.39 10.31-3.42 0-.35-.59-.37-.56 0 .63 9.63-7.35 2.75-10.62 2.09-1.15-.23-1.51.33-1.87 1.35-1.12 3.19.27 6.75 1 9.82.44 1.79.58 9.57-3.12 9.45-2.63-.09-4.28-1.56-6.54-2.51-1.65-.7-4.26 1.29-4.48 2.88-.58 4.18 3.2 12-2.35 14-2.76 1-5.71-.74-8.11.24a3.42 3.42 0 0 0-.56.3c1.57-5.2 4.6-9.75 5.08-15.25.6-6.85-4.55-12.88-5.19-19.58-.72-7.55 5.66-12.21 9.69-17.58s2.84-12 1.65-18.27c-3.16-16.7 8.55-32.44 21.39-41.94 11.59-8.58 25.25-13.7 37-22a1.46 1.46 0 0 0 .67-.21c1.86-1.11 3.53-2.49 5.42-3.56 2.79-1.58 5.2-1.17 8-.35-.74.55-1.47 1.1-2.17 1.7s.17 1.47.84 1.09c16.32-9.41 34.15-11.32 51.8-4.73 18 6.71 31 22 44.5 34.86a141.9 141.9 0 0 1 16.45 18.46c6 8.1 8.37 16.09 6.7 26.1-1.37 8.25-5 15.16-8 22.79a12.33 12.33 0 0 0-.76 7c-1.59-1.23-3.26-2.35-4.83-3.47-.3-.22-.71.32-.4.56z" fill="#7c1531"/><path class="cls-1" d="M190.39 269.92a.28.28 0 0 0 0 .56.28.28 0 0 0 0-.56z" fill="#7c1531"/><path class="cls-1" d="M83.72 274.32a.28.28 0 0 0 0-.56c-.44 0-2.88.7-2.95.26a3.35 3.35 0 0 0-1.94-2.23c-1.55-.91-4.13-1-5.85-1.44-4.24-1.06-7.92-3.29-11.56-5.61-13.09-8.35-23.35-22.74-25.3-38.36 0-.09-.15-.09-.14 0 1.16 11.35 7.2 22 14.77 30.41 3.72 4.11 8.25 7.27 12.93 10.21a38.67 38.67 0 0 0 7.49 3.7c2.67 1 8.18.88 8.94 4.57A34.09 34.09 0 0 0 85 308.94c.07.09.22 0 .16-.12-7.28-9.49-8.47-22.38-3.89-33.3a7.89 7.89 0 0 1 2.45-1.2z" fill="#7c1531"/><path class="cls-1" d="M85.53 274.28a.28.28 0 0 0 0-.47 1.73 1.73 0 0 0-.81-.13.37.37 0 0 0 0 .74 1.73 1.73 0 0 0 .81-.14z" fill="#7c1531"/><path class="cls-1" d="M102 312.84c-.16.14.07.36.23.23a29.27 29.27 0 0 0 10.18-15.52 48.12 48.12 0 0 0 1.59-10.34c.24-3.7-.74-7.1-.25-10.74a.55.55 0 0 0 .66-.37c1.33-4.86 8-5.93 12.06-7.75a117.8 117.8 0 0 0 15.87-8.54c8.25-5.29 21.48-10.18 23-21.3 0-.28-.39-.4-.43-.12-1.12 7.43-8 11.87-14 15.46-5.5 3.31-11.06 7.11-16.84 9.89-4.62 2.22-9.51 3.88-14.2 5.93-2.23 1-4.86 2.17-6 4.33a1.08 1.08 0 0 0-.77-.56 6.44 6.44 0 0 0-4.85.35c-.19.09-.05.39.14.33a7.89 7.89 0 0 1 4.49.11.74.74 0 0 1 .45.44.36.36 0 0 0-.07.08c-1.25 2.18-1.1 4.39-.89 6.86a52.17 52.17 0 0 1 0 10c-.81 8.12-4.15 15.87-10.37 21.23z" fill="#7c1531"/><path class="cls-1" d="M61.95 208.77c.06.13.26 0 .23-.09-.71-2.46-2-4.69-2.6-7.19-.68-2.73-.42-5.82-.73-8.62 0-.16-.26-.16-.25 0 .22 2.52.1 5.09.45 7.6a31.52 31.52 0 0 0 2.9 8.3z" fill="#7c1531"/><path class="cls-1" d="M62.91 211.46a7 7 0 0 0 .52.82c.09.13.33.05.27-.11a7.09 7.09 0 0 0-.49-.88c-.12-.2-.4-.03-.3.17z" fill="#7c1531"/><path class="cls-1" d="M92.14 243a98.06 98.06 0 0 0 14.75 1.07.28.28 0 0 0 0-.55c-4.93 0-9.83-.28-14.75-.68-.14.03-.14.16 0 .16z" fill="#7c1531"/><path class="cls-1" d="M101.8 246.06a18.13 18.13 0 0 0-3.66-.28.18.18 0 0 0 0 .35c1.21 0 2.41.21 3.62.22.16 0 .24-.25.04-.29z" fill="#7c1531"/><path class="cls-1" d="M102.58 248.6a31.56 31.56 0 0 0-3.19-.19c-.2 0-.24.31 0 .35a31.7 31.7 0 0 0 3.17.32c.22.01.28-.44.02-.48z" fill="#7c1531"/><path class="cls-1" d="M88.22 192.05a.15.15 0 0 0 0 .3.15.15 0 0 0 0-.3z" fill="#7c1531"/><path class="cls-1" d="M114.46 196.14c.32-.06.23-.54-.08-.55-2.84-.1-5.15 1.49-8.12 1.17a60.72 60.72 0 0 1-14.66-3.23c-.19-.07-.33.25-.14.33a42.2 42.2 0 0 0 12.33 4c.68.09 1.38.13 2.08.15a2.91 2.91 0 0 1 2.16 1c.09.12.28 0 .2-.16a2.16 2.16 0 0 0-1-.83c.62 0 1.23 0 1.83-.09 1.85-.11 3.54-1.47 5.4-1.79z" fill="#7c1531"/><path class="cls-1" d="M116.14 195.4c-.12 0-.21.17-.32.21a.28.28 0 0 0 .15.53c.13 0 .22-.11.34-.13.4-.01.21-.76-.17-.61z" fill="#7c1531"/><path class="cls-1" d="M83.1 187.19c3.47-1.07 6.89-2.26 10.44-3.05a11 11 0 0 1 7.65 1c.82.42 1.12.16 1.89-.16.1 0 .1-.21 0-.2-1.45.12-3-1-4.38-1.45a8.69 8.69 0 0 0-4.06-.17c-4.06.68-7.75 2.37-11.6 3.74-.22.1-.14.35.06.29z" fill="#7c1531"/><path class="cls-1" d="M104.15 185.15a.11.11 0 0 0-.19.11c.11.25.29.65.61.71a1.39 1.39 0 0 0 1.09-.26.19.19 0 0 0-.15-.35c-.51.12-1.01.32-1.36-.21z" fill="#7c1531"/><path class="cls-1" d="M106.72 186.22c3.27-.14 6.16-.82 9.37.3 3 1 5.57 2.69 8.39 4a.14.14 0 0 0 .14-.24 45.54 45.54 0 0 0-8.27-4.69c-3.11-1.29-6.57-.57-9.68.3a.18.18 0 0 0 .05.33z" fill="#7c1531"/><path class="cls-1" d="M102.93 227.92c.28.14.53-.26.25-.43-6.54-3.8-12.67 7.6-19.25 3-.08-.06-.18.08-.11.14 6.34 4.89 12.64-5.84 19.11-2.71z" fill="#7c1531"/><path class="cls-1" d="M104.76 230.07c-3.13-.67-6.39-.89-9.28.66-.18.1 0 .37.16.27 3-1.57 5.92-1 9.09-.66.15.02.18-.24.03-.27z" fill="#7c1531"/><path class="cls-1" d="M105.22 228.39a.15.15 0 0 0 0 .29 3.81 3.81 0 0 1 2.88 1.47c.12.15.37 0 .27-.21a3.58 3.58 0 0 0-3.15-1.55z" fill="#7c1531"/><path class="cls-1" d="M107.45 232.81a5.15 5.15 0 0 0-2.26.12.11.11 0 0 0 .06.2 4.59 4.59 0 0 1 2.08.12c.29.1.41-.39.12-.44z" fill="#7c1531"/><path class="cls-1" d="M60.89 125.37a.24.24 0 0 0 .28.37h.06a3.3 3.3 0 0 0 3.35-1.45c.11.09.22.19.33.3a3.6 3.6 0 0 1 .86 1.33c0 .14.21.09.23 0a1.41 1.41 0 0 0 0-.44.21.21 0 0 0 .21-.16 12.46 12.46 0 0 1 1-2.5 6 6 0 0 1 .79-1.22 3 3 0 0 1 .33-.31 3.05 3.05 0 0 0 1.17 3 8.92 8.92 0 0 0 3 2.81 5.18 5.18 0 0 0 5.32-.83 6.71 6.71 0 0 0 1.92-5.8 4.85 4.85 0 0 0-.13-2.12 1.93 1.93 0 0 1 .55-.67 1.67 1.67 0 0 1 .71-.28 20.55 20.55 0 0 1 4.85 2.36l-.2-.07c-.09 0-.13.11 0 .14a3.51 3.51 0 0 1 .48.17c.36.24.73.48 1.09.74.21.14.44-.17.26-.34a24.8 24.8 0 0 0-5.28-3.94 11.73 11.73 0 0 1 1.45.29c1.92.53 3.53 1.76 5.26 2.68a.16.16 0 0 0 .16-.27c-2-1.22-4.32-3-6.77-3.64a19.07 19.07 0 0 1 3.82.17 14.29 14.29 0 0 1 3.82 1.75c.09.05.17-.07.11-.14a10.08 10.08 0 0 0-3.92-2.64c-9.11-4.76-19.13 4.67-25.11 10.71zm.58.2c.79-.44 1.56-.9 2.31-1.37a2.47 2.47 0 0 1-2.31 1.37zm11-6a1.27 1.27 0 0 1 .09-.23l.28-.15a1.22 1.22 0 0 1-.42.56zm2.28-.53l-.22-.1.12-.07a.28.28 0 0 0 .07-.09 23.2 23.2 0 0 1 2.37.05h.49a14.93 14.93 0 0 0-2.86.17zm3.47-.27a2 2 0 0 0 .32-.08v.06a.35.35 0 0 0-.14.1H78a.73.73 0 0 0 .19-.08zm-8 1.33a.31.31 0 0 0 0 .05H70l.26-.16zm3.79 6.21a6.17 6.17 0 0 1-3.33-2 15.44 15.44 0 0 0 1.32-1.47c.07-.1-.09-.23-.17-.13-.42.52-.89 1-1.32 1.51l-.27-.33a.39.39 0 0 0-.08-.28c-.14-.19-.26-.37-.38-.56a7.85 7.85 0 0 0 1.09-.61c.09-.06 0-.23-.08-.19a4.39 4.39 0 0 0-1.09.6 1.22 1.22 0 0 1 .3-1.24.14.14 0 0 0-.09-.23 1.16 1.16 0 0 0-.5.07c.31-.57.85-.29 1.43-.37a1.22 1.22 0 0 0 .79-.5c-.15.44-.37.76-.74.59-.09 0-.22.05-.15.15.53.76 1.08-.13 1.36-.64a2.67 2.67 0 0 0 .24-.64 1.4 1.4 0 0 0 .3-.12c0 .14.18.26.29.13a.61.61 0 0 1 .34-.21.49.49 0 0 0 .15.22 1.46 1.46 0 0 1 .16 1.88 1.89 1.89 0 0 1-.63.65c-.38.26-.89-.38-1.06-.64-.06-.09-.24 0-.19.08a1.75 1.75 0 0 0 1.09 1.22 2.59 2.59 0 0 0 .91.47 4.73 4.73 0 0 0-.1 1.83c0 .21.37.12.32-.09a5.44 5.44 0 0 1 0-1.69 2.07 2.07 0 0 0 .41 0c.72 0 1.31-.77 1.55-1.37a2.84 2.84 0 0 0-.7-3.06 2.65 2.65 0 0 0-.28-.23 32.3 32.3 0 0 1 3.92.38 4.81 4.81 0 0 1 .12.64.2.2 0 0 1 .13.33c-.07 3.22-1.68 5.91-5.13 5.85z" fill="#7c1531"/><path class="cls-1" d="M89.37 117.38c.93.79 1.8 1.65 2.65 2.51h.05c-.87-.86-1.74-1.71-2.68-2.49-.01-.05-.03-.03-.02-.02z" fill="#7c1531"/><path class="cls-1" d="M59.05 117.66v0z" fill="#7c1531"/><path class="cls-1" d="M59.6 117.05a7.76 7.76 0 0 0 3-2.33c.21-.25-.15-.62-.37-.37a8.53 8.53 0 0 1-2.75 2.35c-.21.1-.07.43.12.35z" fill="#7c1531"/><path class="cls-1" d="M64.06 114.22c-.22.19.09.49.31.31a17 17 0 0 0 3.45-4.5c.22-.35-.32-.65-.55-.32-1.03 1.54-1.75 3.29-3.21 4.51z" fill="#7c1531"/><path class="cls-1" d="M67.52 113a32.47 32.47 0 0 1 3.74-4.26c.24-.21-.08-.64-.35-.45a14.65 14.65 0 0 0-3.68 4.49c-.1.22.15.38.29.22z" fill="#7c1531"/><path class="cls-1" d="M68.38 112.87a.25.25 0 0 0 .35.35 25.74 25.74 0 0 1 10.76-6 .24.24 0 0 0 .14 0c3.43-.67 6.91.18 10.35.35 1.51.51 3 1.13 4.57 1.72a.68.68 0 0 0 .66-1.13c-8.44-6.96-20.46-2.82-26.83 4.71z" fill="#7c1531"/><path class="cls-1" d="M96 109c0-.22.13-.39.16-.6s-.41-.42-.45-.12-.15.47-.18.73.4.33.47-.01z" fill="#7c1531"/><path class="cls-1" d="M96.42 111.55a1.86 1.86 0 0 0 .8-.81c.19-.31-.21-.77-.53-.53s-.41.48-.67.66a.39.39 0 0 0 .4.68z" fill="#7c1531"/><path class="cls-1" d="M97.05 114.05a.52.52 0 0 0 0-1 .52.52 0 0 0 0 1z" fill="#7c1531"/><path class="cls-1" d="M97.41 115.56h.16a.56.56 0 1 0 0-1.1h-.16a.55.55 0 0 0 0 1.1z" fill="#7c1531"/><path class="cls-1" d="M60.39 126.62a.25.25 0 0 0 0-.49 2.92 2.92 0 0 1-1.41-.25.19.19 0 0 0-.19.32 2.64 2.64 0 0 0 1.6.42z" fill="#7c1531"/><path class="cls-1" d="M63.63 125.62a3.46 3.46 0 0 1-.81.65c-.14.07 0 .29.12.21a3.66 3.66 0 0 0 .86-.69.12.12 0 0 0-.17-.17z" fill="#7c1531"/><path class="cls-1" d="M85.18 135.14c-4.35 2.95-10.17 2.35-14.94.81-.11 0-.15.13 0 .17 4.77 1.59 10.86 2.55 15.08-.86.02-.05-.07-.17-.14-.12z" fill="#7c1531"/><path class="cls-1" d="M87.44 133.93a4.62 4.62 0 0 1-1 .82.15.15 0 0 0 .15.25 4.85 4.85 0 0 0 1-.85c.22-.15 0-.37-.15-.22z" fill="#7c1531"/><path class="cls-1" d="M85.92 138.08c.21-.19.46-.31.65-.52s-.07-.6-.32-.41-.5.33-.74.52.14.65.41.41z" fill="#7c1531"/><path class="cls-1" d="M130.8 192.84c-1-1-2.63-1.09-2.79-2.72 0-.23-.35-.3-.41-.06a2.82 2.82 0 0 0 .76 2.48c-4.41 0-8.27-1.94-12.44-3.09s-8.33-.23-12.45.17a3.91 3.91 0 0 1-.61-.1c-3.79-1.6-7.27-3.17-11.48-2.77-2.69.26-5.23 1.18-8 1.38a27.27 27.27 0 0 1-3.26 0A.51.51 0 0 0 80 188a1.74 1.74 0 0 1-.94-.6 2.6 2.6 0 0 1-.21-.46.84.84 0 0 0 0-.82c.1-.09.2-.18.28-.28a5 5 0 0 0 .89-1.46c.08-.2-.24-.33-.34-.14a4.33 4.33 0 0 1-1.32 1.25l-.08.06h-.07a4.43 4.43 0 0 0-2.91 1.26c-1.3 1.19-.54 2.85-1.3 4.25a.28.28 0 0 0 .49.28 5.1 5.1 0 0 0 .73-1.61.43.43 0 0 0 .37-.26c.34.22 1.22-.12 1.6-.17s.76-.11 1.15-.13.66 0 1 0a21.7 21.7 0 0 0 7.47.22c3.11-.43 5.66-1.61 8.9-1.09a24.43 24.43 0 0 1 3.41.86 5.22 5.22 0 0 0 .95.58 7.14 7.14 0 0 0 1.51.54 2.72 2.72 0 0 0 1.19.65 5.2 5.2 0 0 0 3.75-.71.45.45 0 0 0 .16-.14 39.34 39.34 0 0 1 11.12 1.5c2.55.82 5.13 2 7.79 2.13l.07.07c1 .66 2.35.75 3.45 1.13a1.13 1.13 0 0 1 .7.71v.26a.56.56 0 0 0 .26.53l.05.21a6.89 6.89 0 0 0 .79 2.23c.17.25.61.1.5-.21a8.31 8.31 0 0 1 0-2.87 2.57 2.57 0 0 0-.61-2.93zm-53-4.77l.41-.33v.14c0 .04.06.1.08.15h-.18z" fill="#7c1531"/><path class="cls-1" d="M114.86 210a15 15 0 0 0-8.16-8.16c-5.24-2-10.73 2.92-14.84 5.25-.36.21-.11.84.29.69 3.23-1.28 6.25-3.1 9.6-4 5.13-1.44 9.93 2.47 12.52 6.5.2.21.73.02.59-.28z" fill="#7c1531"/><path class="cls-1" d="M88.13 209.84c.83-.61 1.65-1.25 2.53-1.78.25-.15 0-.54-.22-.38a19.69 19.69 0 0 0-2.5 1.91c-.13.12.06.36.19.25z" fill="#7c1531"/><path class="cls-1" d="M114.79 211.28a15 15 0 0 0 .54 1.49c.11.27.53.17.45-.12a15.06 15.06 0 0 0-.46-1.51c-.12-.33-.63-.21-.53.14z" fill="#7c1531"/><path class="cls-1" d="M72.35 130.88a28.17 28.17 0 0 0 3 .38c4.36.35 11.42-.36 15.29-2.54a.1.1 0 0 0 .1 0c.41-.06.73-.46 1.16-.55a.24.24 0 0 0 0-.46l-.29-.08a.56.56 0 0 0-.16-.37 11.34 11.34 0 0 1-1.12-1.35.49.49 0 0 0-.18-.24c-1.12-1.61-2-3.4-3.53-4.73-.15-.13-.36.08-.21.21a12.74 12.74 0 0 1 2.59 4.28c0 .9.17 1.93-.49 2.62-7 .69-17.92 5.71-22-1.58 0-.07-.16 0-.13.05a6.06 6.06 0 0 0 3.28 3.48 7.49 7.49 0 0 1-1.12-.23 8 8 0 0 1-3.74-2.68c-.1-.12-.27.05-.17.17 1.64 2.11 4.93 4.31 7.72 3.62zM90.21 128h.08-.09z" fill="#7c1531"/><path class="cls-1" d="M63 113.71h.09c0-.18 0-.22-.21-.23s-.08.13 0 .13z" fill="#7c1531"/><path class="cls-1" d="M63.81 113.09a4.19 4.19 0 0 1 1-.86c.23-.16 0-.54-.22-.37a2.44 2.44 0 0 0-1 1.16c-.01.11.15.15.22.07z" fill="#7c1531"/><path class="cls-1" d="M62.5 116.49c.12-.13.25-.4.43-.45s.12-.39-.09-.33-.4.34-.57.55.09.39.23.23z" fill="#7c1531"/><path class="cls-1" d="M64.37 115.85a4.66 4.66 0 0 0 .67-.72.18.18 0 0 0-.24-.24 4.66 4.66 0 0 0-.72.67.21.21 0 0 0 .29.29z" fill="#7c1531"/><path class="cls-1" d="M65.89 113.6a.27.27 0 0 0 0 .54.27.27 0 0 0 0-.54z" fill="#7c1531"/><path class="cls-1" d="M67.39 113.34a.2.2 0 0 0 0 .4.2.2 0 0 0 0-.4z" fill="#7c1531"/><path class="cls-1" d="M57.55 118.92a.22.22 0 0 0 0-.43.22.22 0 0 0 0 .43z" fill="#7c1531"/><path class="cls-1" d="M57.05 122a.13.13 0 0 0 0-.26 3.38 3.38 0 0 1-2.62-1.25c-.05-.06-.14 0-.09.09a3.46 3.46 0 0 0 2.71 1.42z" fill="#7c1531"/><path class="cls-1" d="M71 122.72a1.25 1.25 0 0 1-.62.41c-.09 0-.05.18 0 .15a1.39 1.39 0 0 0 .71-.43c.1-.09-.03-.22-.09-.13z" fill="#7c1531"/><path class="cls-1" d="M72.14 123.27a13.52 13.52 0 0 0-.36 1.52c0 .13.18.14.21 0a13 13 0 0 0 .31-1.51c.02-.07-.14-.12-.16-.01z" fill="#7c1531"/><path class="cls-1" d="M73 123.84c-.1.36-.2.71-.26 1.08 0 .17.21.24.25.07.08-.36.15-.73.24-1.09a.12.12 0 0 0-.23-.06z" fill="#7c1531"/><path class="cls-1" d="M74.47 124a7.94 7.94 0 0 0 .35 1.75.07.07 0 0 0 .13 0c-.1-.59-.23-1.17-.32-1.75-.01-.17-.17-.13-.16 0z" fill="#7c1531"/><path class="cls-1" d="M75.17 123.8a8.18 8.18 0 0 0 .67 1.43.06.06 0 0 0 .1-.06 8 8 0 0 1-.67-1.4c-.02-.05-.12-.03-.1.03z" fill="#7c1531"/><path class="cls-1" d="M75.82 123.25a3.59 3.59 0 0 0 .61.84.06.06 0 0 0 .1-.08c-.14-.31-.4-.54-.57-.84-.05-.09-.19-.01-.14.08z" fill="#7c1531"/><path class="cls-1" d="M76.35 122.54c-.11-.06-.21.11-.1.17l.17.08c.11.06.21-.11.1-.17z" fill="#7c1531"/><path class="cls-1" d="M76.44 121.54c-.11-.07-.2.1-.1.17a2.36 2.36 0 0 0 .95.4c.07 0 .14-.1.06-.13a6.83 6.83 0 0 1-.91-.44z" fill="#7c1531"/><path class="cls-1" d="M76.07 120.22a.08.08 0 0 0 0 .15c.65.25 1.15.78 1.82 1a.14.14 0 0 0 .11-.26 7.48 7.48 0 0 0-1.93-.89z" fill="#7c1531"/><path class="cls-1" d="M78.1 120a5.07 5.07 0 0 0-2-.45.1.1 0 0 0 0 .21 8.48 8.48 0 0 1 2 .55c.1.03.18-.31 0-.31z" fill="#7c1531"/><path class="cls-1" d="M93.62 123.35a7.31 7.31 0 0 0-.84-1.51c0-.07-.16 0-.11.06a7.25 7.25 0 0 1 .83 1.49c.02.08.14.04.12-.04z" fill="#7c1531"/><path class="cls-1" d="M29.78 239.47c-1.23 2.16-1.84 6.47-4.89 6.65-.1 0-.11.17 0 .16 3.28-.12 3.9-4.38 5.11-6.68a.13.13 0 0 0-.22-.13z" fill="#7c1531"/><path class="cls-1" d="M28.18 247.13c-.09 0 0 .19.07.16a3.79 3.79 0 0 0 2.08-2.72c0-.13-.15-.18-.2-.06a4.36 4.36 0 0 1-1.95 2.62z" fill="#7c1531"/><path class="cls-1" d="M30.66 250a5.41 5.41 0 0 0 1.42-2.38c.08-.24-.3-.34-.38-.1a6.65 6.65 0 0 1-1.25 2.28.14.14 0 0 0 .21.2z" fill="#7c1531"/><path class="cls-1" d="M33 253.26a16.28 16.28 0 0 0 1-2.69c0-.13-.16-.19-.21-.06-.32.88-.59 1.79-1 2.64-.05.12.13.23.21.11z" fill="#7c1531"/><path class="cls-1" d="M35.77 254.27a28.22 28.22 0 0 1 2.68 3.66c.07.14.28 0 .21-.12a25.27 25.27 0 0 0-2.66-3.67c-.1-.14-.34-.01-.23.13z" fill="#7c1531"/><path class="cls-1" d="M152.3 273.58c.3-.58.7-1.09 1-1.67 0-.09-.09-.17-.14-.08-.31.57-.71 1.08-1 1.66-.07.11.09.2.14.09z" fill="#7c1531"/><path class="cls-1" d="M157 271.54a1.31 1.31 0 0 1 .31-.92c.09-.11-.06-.27-.16-.16a1.42 1.42 0 0 0-.36 1.08.11.11 0 0 0 .21 0z" fill="#7c1531"/><path class="cls-1" d="M159 271.24a19 19 0 0 0 .67-6 .14.14 0 0 0-.28 0 21 21 0 0 1-.66 6c-.03.1.27.18.27 0z" fill="#7c1531"/><path class="cls-1" d="M162.37 268.54c.32-2.82-.24-5.6-.66-8.38 0-.19-.35-.14-.33 0 .32 2.77.91 5.53.68 8.33-.01.25.29.24.31.05z" fill="#7c1531"/><path class="cls-1" d="M165.06 266.21a27.75 27.75 0 0 0-1.36-7.71.15.15 0 0 0-.29.08 43.44 43.44 0 0 1 1.31 7.63.17.17 0 0 0 .34 0z" fill="#7c1531"/><path class="cls-1" d="M171.95 263.93a40.75 40.75 0 0 1 6.65-6c.09-.07 0-.22-.09-.16a37.58 37.58 0 0 0-6.68 6c-.07.12.04.23.12.16z" fill="#7c1531"/><path class="cls-1" d="M12.94 243.82a.08.08 0 0 0-.11.11 24.51 24.51 0 0 1 3.3 4 .1.1 0 0 0 .18-.1 19.71 19.71 0 0 0-3.37-4.01z" fill="#7c1531"/><path class="cls-1" d="M10.28 245.48c-.07-.08-.18 0-.11.11a60.11 60.11 0 0 1 6 8.65.07.07 0 0 0 .12-.07 47.33 47.33 0 0 0-6.01-8.69z" fill="#7c1531"/><path class="cls-1" d="M20.44 253.47c-1.09 2.51-2.31 5-3.65 7.35a.11.11 0 0 0 .2.12 72.62 72.62 0 0 0 3.69-7.32c.06-.17-.17-.31-.24-.15z" fill="#7c1531"/><path class="cls-1" d="M65.18 353.16c2.53 4 5.05 8 8.58 11.18.17.16.42-.1.25-.25-6.92-6.37-9.7-16.67-17.54-22a.17.17 0 0 0-.24.06c-.12.27-2.38 5.33-2.94 4.84a43.64 43.64 0 0 1-4.39-4.7 96.55 96.55 0 0 1-9.56-14.21C34.13 319 29.27 308.7 28 298.21c0-.11-.18-.11-.17 0 1.08 9.24 5 18.06 9.25 26.26 4.31 8.38 9.6 17 16.71 23.36a.17.17 0 0 0 .28-.07c1.36-3.8 2.62-5.68 5.69-2.36a52.25 52.25 0 0 1 5.42 7.76z" fill="#7c1531"/><path class="cls-1" d="M127.33 335.14c-6.89 8.15-10.36 18.51-17.51 26.49-.09.1.06.24.14.14 7.15-8 10.67-18.31 17.49-26.51.07-.08-.05-.2-.12-.12z" fill="#7c1531"/><path class="cls-1" d="M133 340.83a112.58 112.58 0 0 0 29-30.56c.08-.12-.12-.24-.2-.12a112.44 112.44 0 0 1-29 30.44c-.13.1.01.34.2.24z" fill="#7c1531"/><path class="cls-1" d="M121.77 294.14c-.1.15.13.27.23.14 2.2-3 4.36-6 5.58-9.51a.21.21 0 0 0-.2-.26c-.25 0-2.77.14-2.59-.39.56-1.69.64-3.3 1.76-4.81.09-.13 0-.27-.16-.28-.59-.05-3.93.21-3.58-1.51.56-2.77 3-4.67 5.14-6.21.11-.08 0-.27-.11-.19-2.91 2-4.87 4-5.61 7.55a.18.18 0 0 0 .17.22c2.11.19 3.77-.23 2.76 2.1-.5 1.15-.55 2.48-1 3.67a.2.2 0 0 0 .19.25h2.22a5.79 5.79 0 0 1-1 3.45c-1.09 2.02-2.57 3.85-3.8 5.78z" fill="#7c1531"/><path class="cls-1" d="M70.36 289.9c2.24 3.83 4.8 7.46 6.91 11.38.09.16.33 0 .25-.14-2-4-4.5-7.64-6.81-11.44-.66-1.09-.88-1.53-2-2-4.05-1.79-.07-4.25-.16-6.13-.11-2.26-1.9-3.74-3.65-4.93-4.1-2.79-8.77-3.85-12.41-7.46a.08.08 0 0 0-.12.12c2.64 2.63 5.8 4.19 9.13 5.78a23.92 23.92 0 0 1 5.05 3.11c2.54 2.09 1.05 4.7.2 7.18-.67 1.81 3.03 3.55 3.61 4.53z" fill="#7c1531"/><path class="cls-1" d="M113.55 110.37c.94 1.66-.35 4-.81 5.63a.16.16 0 0 0 .3.08c.52-1.73 1.41-3.45 1-5.27a17.73 17.73 0 0 0-1-2.14 8.66 8.66 0 0 1-.21-5.11c0-.11-.14-.15-.16 0a9.29 9.29 0 0 0 .12 5.22 8.39 8.39 0 0 0 .76 1.59z" fill="#7c1531"/><path class="cls-1" d="M114.45 118.77a6.56 6.56 0 0 0 1.54-3.53.11.11 0 0 0-.2-.06 8 8 0 0 1-1.46 3.47c-.08.08.04.2.12.12z" fill="#7c1531"/><path class="cls-1" d="M105.59 182.41c-1.29-.37-2.18-.88-2.3-2.3-.08-1 0-1.95-.18-2.92 0-.08-.13 0-.12 0 .19 1.2 0 2.43.2 3.62s1.35 1.57 2.32 1.83a.13.13 0 0 0 .08-.23z" fill="#7c1531"/><path class="cls-1" d="M91 162.71a9.82 9.82 0 0 1 1.09-8.21.09.09 0 0 0-.16-.09c-1 1.44-2.18 2.69-2.46 4.5s.74 3.31 1.53 4.75c.09.16.37 0 .29-.12s-.1-.28-.15-.42c.16-6.29 7.46-4.22 11.19-2.64 3.89 1.64 7.41 2.83 11.58 1.69a.13.13 0 0 0-.07-.25c-6.89 1.44-12-3.46-18.6-3.48-2.85-.01-4.1 1.82-4.24 4.27z" fill="#7c1531"/><path class="cls-1" d="M92 165.27c3 3.28 8 3.21 11.68 5.52.11.07.21-.1.1-.18-3.51-2.63-8.55-2.19-11.65-5.48-.13-.07-.22.05-.13.14z" fill="#7c1531"/><path class="cls-1" d="M107.34 171.65c-.4.49-1 .13-1.38-.19-.1-.09-.24 0-.14.14.46.46 1.15.75 1.62.15.06-.07-.04-.17-.1-.1z" fill="#7c1531"/><path class="cls-1" d="M110.05 172.35a.15.15 0 0 0 0-.29 14.06 14.06 0 0 1-2-.26.08.08 0 0 0 0 .15 6.88 6.88 0 0 0 2 .4z" fill="#7c1531"/><path class="cls-1" d="M112.59 172.26c4.15-2.5 11-1.71 13.22-6.84a.1.1 0 0 0-.17-.1c-3.17 4.74-8.75 4-13.12 6.82-.07.05-.01.17.07.12z" fill="#7c1531"/><path class="cls-1" d="M120.22 161.64a.06.06 0 0 0 0 .13h.67v-.1z" fill="#7c1531"/><path class="cls-1" d="M122.55 161.76a4.87 4.87 0 0 1 2.46.41 2.61 2.61 0 0 1 1.25 2.37.12.12 0 0 0 .08.11 14.25 14.25 0 0 1-.92 1.65c-.1.15.12.3.24.18 2.45-2.43 3.12-6.12.78-8.83-.06-.07-.17 0-.12.09a6.83 6.83 0 0 1 .18 6.55 2.7 2.7 0 0 0-1.07-2.22 4.27 4.27 0 0 0-2.87-.42c-.07.01-.07.11-.01.11z" fill="#7c1531"/><path class="cls-1" d="M75 172.74a.08.08 0 0 0-.13-.08c-2.17 3.73-4.74 7.55-5.28 11.94-.75 6.1.38 11.83 2.2 17.63.06.18.34.11.29-.08a49.34 49.34 0 0 1-2.44-14c-.12-5.86 2.62-10.48 5.36-15.41z" fill="#7c1531"/><path class="cls-1" d="M78 169.32c-.51.49-1 1-1.5 1.5a.07.07 0 0 0 .1.1l1.5-1.5a.07.07 0 0 0-.1-.1z" fill="#7c1531"/><path class="cls-1" d="M80.49 166.67c-.16.28-.35.54-.51.83 0 .09.09.16.13.08.15-.29.34-.55.49-.84.06-.08-.06-.15-.11-.07z" fill="#7c1531"/><path class="cls-1" d="M72.33 204.27a2.46 2.46 0 0 1 .74 1.44.07.07 0 0 0 .13 0 2.2 2.2 0 0 0-.76-1.56c-.07-.08-.19.04-.11.12z" fill="#7c1531"/><path class="cls-1" d="M73.64 208.61a.09.09 0 0 0 0 .19.09.09 0 0 0 0-.19z" fill="#7c1531"/><path class="cls-1" d="M76.34 213.63a1.44 1.44 0 0 0-.29.24c-.11.1.06.27.16.16a1.44 1.44 0 0 0 .24-.29.09.09 0 0 0-.11-.11z" fill="#7c1531"/><path class="cls-1" d="M74.43 207.71a.19.19 0 1 0-.37 0 .34.34 0 0 0 .3.28.17.17 0 0 0 .07-.28z" fill="#7c1531"/><path class="cls-1" d="M75.75 210.77a2.29 2.29 0 0 1-.28-.32c-.09-.11-.25 0-.16.16s.17.3.39.35a.1.1 0 0 0 .05-.19z" fill="#7c1531"/><path class="cls-1" d="M102.9 134.5c-.72 3.5-3.88 6.21-4.88 9.7h.06c1.36-4.25 4.89-7.09 5.43-11.64.42-3.59-.18-7.88-2.75-10.57 0 0-.12 0-.07.07 2.94 3.25 3.05 8.36 2.21 12.44z" fill="#7c1531"/><path class="cls-1" d="M99.1 152.32a7.3 7.3 0 0 1-1.48-2.14c0-.09-.18 0-.14 0a6.41 6.41 0 0 0 1.52 2.2.07.07 0 0 0 .1-.06z" fill="#7c1531"/><path class="cls-1" d="M136.82 176.25c1.5 2.2 1.9 4.88 2.23 7.46 0 .11.19.11.18 0a14.76 14.76 0 0 0-2.27-7.54c-.06-.09-.2-.01-.14.08z" fill="#7c1531"/><path class="cls-1" d="M96.87 200.4a.06.06 0 0 0 0 .12c4.08-.64 7.66.43 11.44 1.84.17.06.28-.21.12-.28-3.49-1.64-7.72-2.83-11.56-1.68z" fill="#7c1531"/><path class="cls-1" d="M107.95 200.85c-2.32-1.1-4.37-2.67-7.06-2.46-.07 0-.08.12 0 .12 2.64-.07 4.65 1.5 6.94 2.54.17.07.25-.13.12-.2z" fill="#7c1531"/><path class="cls-1" d="M124.43 123.77c.31-.24.72-.25 1-.5.09-.07 0-.21-.13-.13-.29.25-.7.26-1 .51-.03.06.06.17.13.12z" fill="#7c1531"/><path class="cls-1" d="M120.8 145.68c0 .12.14.16.18.05 1.68-4.44-3.57-8.13-2-12.75 0-.11-.13-.15-.17 0-1.71 4.63 3.46 8.24 1.99 12.7z" fill="#7c1531"/><path class="cls-1" d="M121.89 148.16v0z" fill="#7c1531"/><path class="cls-1" d="M121 153.46c0-.22-.21-.31-.25-.53s-.2-.07-.18.05.21.29.26.5.17.07.17-.02z" fill="#7c1531"/><path class="cls-1" d="M121.28 148.27a17.27 17.27 0 0 1 1.24 2.72.12.12 0 0 0 .23-.06 12.61 12.61 0 0 0-1.26-2.78c-.07-.15-.28-.02-.21.12z" fill="#7c1531"/><path class="cls-1" d="M138.44 140.61a46.76 46.76 0 0 1-4.85-3.48c-.09-.06-.17.08-.08.14 1.6 1.19 3 2.71 4.82 3.52.13.06.24-.11.11-.18z" fill="#7c1531"/><path class="cls-1" d="M131.8 124a15 15 0 0 1 3.32-2c.16-.07 0-.31-.14-.24a13.54 13.54 0 0 0-3.34 2c-.11.13.05.24.16.24z" fill="#7c1531"/><path class="cls-1" d="M128.11 116.07c2.3-.83 4.46-1.94 6.73-2.71a22.85 22.85 0 0 1 6.75-.71 16.28 16.28 0 0 1 4.56 1.53c.47.35.95.69 1.45 1l.16.36c.08.17.33.06.31-.11l.55.26c1.71 1.29 3.3 2.77 4.81 4 .43.35 1-.2.62-.62l-.4-.4a17.19 17.19 0 0 0-1.37-1.54 21.48 21.48 0 0 1-1.24-4.43c0-.15-.27-.11-.26 0a16.74 16.74 0 0 0 .73 3.69q-.67-.6-1.4-1.12c-.12-.33-.24-.66-.33-1-.22-.79-.42-1.59-.67-2.37-.08-.25-.48-.14-.4.11.26.84.42 1.82.67 2.75-.31-.21-.63-.4-1-.59a6.4 6.4 0 0 1-.54-2.42.21.21 0 0 0-.41 0 7.27 7.27 0 0 0 .26 2.07l-.32-.16a21.25 21.25 0 0 0-1.4-2.46.1.1 0 0 0-.18.1c.35.66.66 1.33 1 2l-.32-.17a15.35 15.35 0 0 0-4.36-2.42c-2.19-.69-4.79.4-7 1.34a42.24 42.24 0 0 0-7.14 3.68c-.22.08-.09.43.14.34z" fill="#7c1531"/><path class="cls-1" d="M154.62 122.9c.19.62.69 1.08.9 1.69a.21.21 0 0 0 .35.09l.52-.48c.14.2.18.48.34.67s.5-.06.36-.28-.21-.69-.58-.92a.24.24 0 0 0-.29 0l-.46.49c-.29-.48-.71-.87-1-1.37 0-.07-.17 0-.14.11z" fill="#7c1531"/><path class="cls-1" d="M157.22 128.09c.06.5.17 1 .2 1.48a.29.29 0 0 0 .57 0 16.27 16.27 0 0 0-.44-2.17c0-.14-.2-.27-.31-.13a1.51 1.51 0 0 0-.38.8c0 .16.33.21.36.02z" fill="#7c1531"/><path class="cls-1" d="M156.78 123.19a11.06 11.06 0 0 0-1.49-3c-.06-.09-.2 0-.14.08a17.21 17.21 0 0 1 1.51 3c.03.03.15 0 .12-.08z" fill="#7c1531"/><path class="cls-1" d="M158.65 130.54a4.52 4.52 0 0 0 1.13 3.1.14.14 0 0 0 .22-.17c-.23-.52-.56-1-.76-1.5s-.31-1-.46-1.44c-.02-.08-.13-.07-.13.01z" fill="#7c1531"/><path class="cls-1" d="M137 105.63a128.2 128.2 0 0 0 21.86 5.37c.13 0 .19-.18.06-.2a189.49 189.49 0 0 1-21.84-5.33c-.08-.06-.17.12-.08.16z" fill="#7c1531"/><path class="cls-1" d="M143 126.32a.11.11 0 0 0 0-.22 7.29 7.29 0 0 0-2.16-.12.11.11 0 0 0 0 .21z" fill="#7c1531"/><path class="cls-1" d="M140.76 127a22.63 22.63 0 0 1 2.6.37c.08 0 .15-.11.06-.14a7 7 0 0 0-2.67-.39.08.08 0 0 0 .01.16z" fill="#7c1531"/><path class="cls-1" d="M142.86 128.67c.12 0 .17-.14.05-.19-.39-.14-.74-.35-1.13-.49-.1 0-.14.12 0 .16.34.16.7.37 1.08.52z" fill="#7c1531"/><path class="cls-1" d="M141.49 128.91a2.77 2.77 0 0 1 1.58.86c.08.09.2 0 .13-.13a2.71 2.71 0 0 0-1.67-.89c-.1-.02-.14.14-.04.16z" fill="#7c1531"/><path class="cls-1" d="M140.83 129.76a18.75 18.75 0 0 0 2.25 1.78c.1.07.22-.09.13-.17-.71-.64-1.57-1.08-2.27-1.73a.08.08 0 0 0-.11.12z" fill="#7c1531"/><path class="cls-1" d="M140.34 130.75c.52.64 1.1 1.23 1.63 1.88.05.07.15 0 .1-.1-.52-.64-1.1-1.23-1.62-1.87-.07-.07-.16.03-.11.09z" fill="#7c1531"/><path class="cls-1" d="M140.1 132.65c-.26-.54-.5-1.08-.78-1.61 0-.08-.15 0-.12.07.24.55.46 1.1.72 1.64.08.13.24.02.18-.1z" fill="#7c1531"/><path class="cls-1" d="M138.66 131.68a2.57 2.57 0 0 0 .38 2 .12.12 0 0 0 .21-.12 3.08 3.08 0 0 1-.37-1.79c.01-.17-.2-.24-.22-.09z" fill="#7c1531"/><path class="cls-1" d="M137.85 133v-1.12a.09.09 0 0 0-.17 0v1.13a.09.09 0 0 0 .17-.01z" fill="#7c1531"/><path class="cls-1" d="M136.85 132.36c.15-.38.37-.74.52-1.12.06-.14-.17-.21-.22-.06-.14.39-.34.74-.48 1.13-.04.11.14.16.18.05z" fill="#7c1531"/><path class="cls-1" d="M136.07 130.67c.12-.06 0-.25-.11-.18-.33.18-.64.39-1 .54-.07 0 0 .14 0 .12a6.8 6.8 0 0 0 1.11-.48z" fill="#7c1531"/><path class="cls-1" d="M136.1 129.71a7.46 7.46 0 0 0-1.29.61c-.16.11 0 .37.15.26.4-.25.83-.41 1.24-.65.12-.06.04-.27-.1-.22z" fill="#7c1531"/><path class="cls-1" d="M131.94 130.32c.31-.29.62-.59.92-.89a3.39 3.39 0 0 1 .7-.63l.18-.12a11.51 11.51 0 0 0 1.07 3c0 .09.21 0 .17-.07a10.87 10.87 0 0 1-.45-1.37 4.64 4.64 0 0 0 .94-.59c.15-.12 0-.38-.16-.27a10 10 0 0 1-.85.54 7.17 7.17 0 0 1-.14-1 10.9 10.9 0 0 0 1.49-.71c.07 0 0-.17-.06-.14a12.07 12.07 0 0 0-1.45.64 5.16 5.16 0 0 1 0-.55.16.16 0 0 0 .12 0 4.73 4.73 0 0 0 1.42-.51v-.06a3.28 3.28 0 0 0 .63 2.57 1.94 1.94 0 0 0 .41.36.1.1 0 0 0-.13 0 1.34 1.34 0 0 1-.92.61c-.13 0-.13.21 0 .21a1.39 1.39 0 0 0 1.1-.67.11.11 0 0 0 0-.15 2.59 2.59 0 0 0 2.78 0 2.94 2.94 0 0 0 .29-4.36.34.34 0 0 0 .36-.28c.23-1 1.28-.94 2.06-.93a6.63 6.63 0 0 1 .92 7.12c-1.33 3.09-6.21 2.44-7.76-.16a.07.07 0 0 0-.12.07c1.51 3 6.22 4.15 8.34 1.24a8.87 8.87 0 0 0 .84-6.92 2.19 2.19 0 0 1 2.29-.45.19.19 0 0 0 .23-.12 25.14 25.14 0 0 1 6 6.59 3.67 3.67 0 0 1-.32 1 8.44 8.44 0 0 1-.63.89c-.06.08.07.15.13.07a5 5 0 0 0 1-1.78c.14.23.27.47.4.71-.18.21-.32.45-.51.66s.09.42.25.25a3 3 0 0 0 .44-.58l.23.42a2.8 2.8 0 0 0-.66.29c-1.62.82-2.58 1.72-4.19 2.17-1 .09-1.94.22-2.9.32-4.58.1-9.09-1-12.47-4.24-.08-.08-.19 0-.12.12a14.93 14.93 0 0 0 3.74 3 22.9 22.9 0 0 1-3.7-2.12c-.12-.08-.26.1-.15.2a14.17 14.17 0 0 0 11.62 4 21.32 21.32 0 0 0 5.19-.37 20.79 20.79 0 0 0 3-1.75c.32.12 1.07.3 1.39 0 .11.28.22.55.32.84s.66.3.64-.09c-.28-4.58-4.07-9-8.49-11.94a3.26 3.26 0 0 0-.63-.4 21.31 21.31 0 0 0-7.16-3 .15.15 0 0 0-.08.29q1.26.48 2.49 1.08a13.2 13.2 0 0 0-5.76 1.56 6.94 6.94 0 0 0-2.36 2.07 8.46 8.46 0 0 0-.79.91.12.12 0 0 0 0 .13 17.21 17.21 0 0 1-1.8 2.15.07.07 0 0 0-.12-.07 1.77 1.77 0 0 1-.8.65c-.07 0 0 .13.06.11a3.68 3.68 0 0 1-2.15.62.16.16 0 0 0 0 .32 3.24 3.24 0 0 0 2.85-.52c.63.77 1.61 1.13 2.12 2 .05.1.2 0 .15-.09a9 9 0 0 0-1.45-1.88zm22.63 5a1.65 1.65 0 0 1-.79.15c.46-.27.81-.44.88-.35a.23.23 0 0 0 .09 0v.09a1 1 0 0 0-.18.1zm-10.35-10.8h.11a.37.37 0 0 0 0 .08zm-5.09.12a2.24 2.24 0 0 0-.44.28l-.06-.07a4.47 4.47 0 0 1 .48-.18zm-.23 2.58v.06a1.24 1.24 0 0 0 0-.13zm-.72 1a1.7 1.7 0 0 1-.1.26l-.33-.2a1.81 1.81 0 0 0 .45-.23zm-1.46-1.09a1.57 1.57 0 0 1 0-.43 4.85 4.85 0 0 0 .84-.71h.1a.69.69 0 0 1 .76.65 3.79 3.79 0 0 1-.45.89 1 1 0 0 1-.84.27 1.08 1.08 0 0 1-.26-.08 1.67 1.67 0 0 1-.16-.56zm-.61-1.07h.06l-.06.15h-.17zm.3 2.14zm1.78 1.72v.08h-.28a.3.3 0 0 0 .27-.06zm6.83-4.49a1.71 1.71 0 0 1 1.1-.38 2 2 0 0 0-1.1.38zm-11.45 2.45l.09-.11v.09zm.78-.11c0-.13.05-.26.08-.4a.11.11 0 0 0 .2 0l.08-.13a.2.2 0 0 0 .11.08l.53.11a10 10 0 0 1-1.01.36zm1.39-.51a.21.21 0 0 0 0-.05.19.19 0 0 0-.06-.35l-.21-.08v-.05l.54-.07a2.21 2.21 0 0 0 0 .26c0 .14 0 .28-.06.42a.15.15 0 0 0-.21-.05zm.75 1.29a5.3 5.3 0 0 0 .6.72.36.36 0 0 0 0 .2.45.45 0 0 0 .09.17 1.74 1.74 0 0 1-.25-.21 2 2 0 0 1-.44-.85zm9.79-3.51h.12l.07.05zM132 129.59c-.1.16-.2.32-.29.49l-.11-.12z" fill="#7c1531"/><path class="cls-1" d="M152.73 132c0-.08-.13-.15-.18 0a1.13 1.13 0 0 0-.13.44 3 3 0 0 1-.38 1.2 6.23 6.23 0 0 1-1.35 1.63s0 .09.05.05a8.1 8.1 0 0 0 1.29-1.47 3.08 3.08 0 0 0 .7-1.85z" fill="#7c1531"/><path class="cls-1" d="M130.72 172.63c-1-1-2.23-1.76-3.28-2.72a.07.07 0 0 0-.1.1c1 1 2.18 1.82 3.22 2.78a.11.11 0 0 0 .16-.16z" fill="#7c1531"/><path class="cls-1" d="M136.59 188.23c2.38 3.37 2.37 8.33 1.4 12.18a.16.16 0 0 0 .3.08c1-3.87.94-9-1.61-12.33-.04-.04-.12.02-.09.07z" fill="#7c1531"/><path class="cls-1" d="M134.34 210.18c0 .06.06.12.1.06a18.59 18.59 0 0 0 2.46-4.78 26.74 26.74 0 0 1-2.56 4.72z" fill="#7c1531"/><path class="cls-1" d="M132.89 215a.17.17 0 0 0 0 .33.17.17 0 0 0 0-.33z" fill="#7c1531"/><path class="cls-1" d="M152.06 205.93c0 .1.12.14.16 0a27.42 27.42 0 0 0 1.49-9 .07.07 0 0 0-.13 0 34 34 0 0 1-1.52 9z" fill="#7c1531"/><path class="cls-1" d="M146.81 216.16c-.25.5-.54 1-.75 1.52 0 .08.1.13.14.06.29-.48.51-1 .76-1.5.04-.09-.1-.18-.15-.08z" fill="#7c1531"/><path class="cls-1" d="M149.28 210.46a4.77 4.77 0 0 1-.47 1.71c0 .1.1.18.15.09a4.29 4.29 0 0 0 .53-1.79c.01-.15-.2-.15-.21-.01z" fill="#7c1531"/><path class="cls-1" d="M158.54 207.18c-1.49 7.49-8.65 10.63-12.06 16.93a.19.19 0 0 0 .32.19c3.86-5.88 10.51-9.79 11.94-17.07.03-.13-.18-.23-.2-.05z" fill="#7c1531"/><path class="cls-1" d="M151.86 141.9a16.65 16.65 0 0 1-14.2 1.73.07.07 0 0 0 0 .13c5.21 1.58 9.72 1.38 14.3-1.77a.06.06 0 0 0-.1-.09z" fill="#7c1531"/><path class="cls-1" d="M154.87 141.46c0-.29.21-.38.48-.38s.15-.25 0-.23c-.41.04-.5.15-.48.61z" fill="#7c1531"/><path class="cls-1" d="M62 130.64a.09.09 0 0 0-.13.13 15.16 15.16 0 0 1 2.73 3.73c.05.11.22 0 .16-.09a15.33 15.33 0 0 0-2.76-3.77z" fill="#7c1531"/><path class="cls-1" d="M158.64 139.18z" fill="#7c1531"/><path class="cls-1" d="M158.77 124.21a9.86 9.86 0 0 0 .27 2.53.1.1 0 0 0 .19-.05 11.57 11.57 0 0 1-.23-2.47.11.11 0 0 0-.23-.01z" fill="#7c1531"/><path class="cls-1" d="M161.25 128a7.83 7.83 0 0 0 .26-3.57c0-.17-.28-.1-.25.07a11.82 11.82 0 0 1-.26 3.5c0 .09.21.11.25 0z" fill="#7c1531"/><path class="cls-1" d="M161.84 133.64c2.62.37 6-1.41 4.9-4.47 0-.12-.23-.07-.2.05.82 2.82-2.15 4.45-4.6 4-.25 0-.35.39-.1.42z" fill="#7c1531"/><path class="cls-1" d="M166.35 135.82a15.55 15.55 0 0 1-2.21.2.19.19 0 0 0 0 .39 5.22 5.22 0 0 0 2.32-.32c.16-.09.04-.29-.11-.27z" fill="#7c1531"/><path class="cls-1" d="M165.8 138.71c0-.21-.33-.21-.32 0a1.89 1.89 0 0 0 1.08 1.64c.18.09.34-.18.16-.28a1.6 1.6 0 0 1-.92-1.36z" fill="#7c1531"/><path class="cls-1" d="M103.15 163.48a8.53 8.53 0 0 0-4.88-2.5c-1.81-.27-3.43 1.12-2.35 3a.16.16 0 0 0 .29 0 6.86 6.86 0 0 1 .22-1.38.13.13 0 0 0 .2.06c.5-.37 1.73.72 2.29.84a4.46 4.46 0 0 0 1.16.07 5.67 5.67 0 0 0 1.5.32 6.25 6.25 0 0 1 1.09.54 5.78 5.78 0 0 1 2.24 2.93c0 .09.2.09.18 0a5.69 5.69 0 0 0-1.35-3.22 4.56 4.56 0 0 0-.59-.66z" fill="#7c1531"/><path class="cls-1" d="M112.88 167.73c-.05.15.16.22.25.1a7.77 7.77 0 0 1 2.48-2l.64-.36c.52.06 1 .21 1.57.27a3 3 0 0 0 1.05-.08.24.24 0 0 0 .23.11 1.62 1.62 0 0 0 1.3-.76 1 1 0 0 0 .42-.53 7.89 7.89 0 0 1 1.11.13.13.13 0 0 0 .1-.24 3.81 3.81 0 0 0-2.79-.61 6.19 6.19 0 0 0-4 1h-.09a.24.24 0 0 0-.14.16 4.36 4.36 0 0 0-.87.95 5.25 5.25 0 0 0-1.26 1.86z" fill="#7c1531"/><path class="cls-1" d="M43.89 52.16h-.67a.05.05 0 0 0 0 .11h.67v-.11z" fill="#7c1531"/><path class="cls-1" d="M43.51 198.37c.21 0 .31-.28.09-.33a6.85 6.85 0 0 1-4.6-2.89c-.07-.11-.25 0-.18.11a6.65 6.65 0 0 0 4.69 3.11z" fill="#7c1531"/><path class="cls-1" d="M17.1 191.09c-3.25-1.72 3.38-6.89 3.14-9.63 0-.13-.21-.14-.21 0 .08 3.2-7.18 6.88-3.86 10 2.07 2 6.05-1.34 7.47 1.17.94 1.65 1.41 2.37 3.55 1.78a.22.22 0 0 0-.06-.43c-1.38 0-2.13 0-2.75-1.39a2.51 2.51 0 0 0-1-1.25c-2-1.11-4.38.76-6.28-.25z" fill="#7c1531"/><path class="cls-1" d="M34.14 194.69a.23.23 0 0 0 0-.47.23.23 0 0 0 0 .47z" fill="#7c1531"/><path class="cls-1" d="M180.73 123.53c-4.62-2.54-1.73-9.78-.51-13.42 2-6 2.18-10.89-3.14-15.1-5.75-4.54-13.64 1.49-19.23 3.06a.14.14 0 0 0 .08.27c3.76-1 7.2-2.84 10.92-4 7.26-2.19 13.17 4.18 11.93 11.12-.95 5.33-4.39 9.9-3 15.51a6 6 0 0 0 3.2 3.73c1.77.95 5.14.35 3.11 3.51-3.69 5.75-6.87 8-2.67 14.39a.19.19 0 0 0 .33-.2c-3.83-6.66.17-9.44 3.54-14.72.41-.65.89-1.75.23-2.41-1.11-1.04-3.46-1.01-4.79-1.74z" fill="#7c1531"/><path class="cls-1" d="M174.36 196.27c.25-.6.59-1.16.81-1.77.07-.18-.2-.27-.3-.13a10.23 10.23 0 0 0-.93 1.72.23.23 0 1 0 .42.18z" fill="#7c1531"/><path class="cls-1" d="M46.53 108.92a10.67 10.67 0 0 1-.13-2.21.26.26 0 0 0-.53 0 5.94 5.94 0 0 0 .37 2.29.15.15 0 0 0 .29-.08z" fill="#7c1531"/><path class="cls-1" d="M156.92 98.1a.91.91 0 0 0-1.13.54.12.12 0 0 0 .2.12c.24-.38.52-.4.93-.46a.11.11 0 0 0 0-.2z" fill="#7c1531"/><path class="cls-1" d="M174 100.71c0-.13-.22-.14-.21 0a4 4 0 0 0 1.66 2.87c1.91 1.73 1.13 4.63 1 6.88 0 .2.31.2.32 0 0-2 .31-3.89-.31-5.78-.53-1.68-2.31-1.94-2.46-3.97z" fill="#7c1531"/><path class="cls-1" d="M178 127c-.07 2.77-.27 5.49-.52 8.25 0 .19.29.23.33 0a34.34 34.34 0 0 0 .48-8.29.15.15 0 0 0-.29.04z" fill="#7c1531"/><path class="cls-1" d="M182.55 143.3c.28-.37.66-.25 1-.15a.2.2 0 0 0 .15-.36 1 1 0 0 0-1.51.33.19.19 0 0 0 .36.18z" fill="#7c1531"/><path class="cls-1" d="M177.43 142.41a.06.06 0 0 0-.08.08 1.41 1.41 0 0 1 .47.73c0 .09.15.05.13 0a1.47 1.47 0 0 0-.52-.81z" fill="#7c1531"/><path class="cls-1" d="M181.85 145.09a5 5 0 0 1 3.56 2c.81 1.22.48 2.83.08 4.13-.06.2.24.27.3.08a4.33 4.33 0 0 0-3.87-6.42c-.17-.08-.24.18-.07.21z" fill="#7c1531"/><path class="cls-1" d="M194.24 83.29c.08.18.38 0 .31-.13-1.92-4.92-6-4-10.42-3-6.38 1.36-10.75-1-12.87-7.3-.73-2.18-1.44-3.86-3.38-5.18-5.45-3.72-13.12.54-17.87 3.35-5 3-23.49 15.73-24.52 2.63-.42-5.28 2.83-11.15-.67-15.93-3.3-4.51-9.74-1.36-13 1.33-5.93 4.93-10.73 14.59-18.41 16.68-5.33 1.45-11.54-4.44-15-7.55-4.86-4.33-8-9.87-8.34-16.44 0-.22-.35-.22-.34 0 .32 8.44 5.4 14.88 11.93 19.84 5.34 4.06 10.52 6.83 16.47 2.5 6.49-4.71 10.08-12.25 17.09-16.48 6.21-3.75 10.95.89 10.57 7.23-.2 3.26-1.08 6.39-.85 9.68.36 5.07 5.86 5.82 9.9 5.14 8.15-1.38 14.67-8.46 22.22-11.47 5.59-2.23 11.69-1.31 13.72 4.81.8 2.43 2.1 5.29 4.36 6.71 5.86 3.62 15.99-3.71 19.1 3.58z" fill="#7c1531"/><path class="cls-1" d="M194.89 86.3a.09.09 0 0 0 0-.19.09.09 0 0 0 0 .19z" fill="#7c1531"/><path class="cls-1" d="M201.89 111.41a.21.21 0 0 0 0-.41c-7.88-.25-3.06-6.86-1.29-10.17a.25.25 0 0 0-.14-.36c-4.82-2 2.4-10.34-2-13.84-.1-.08-.24 0-.14.14 3.69 3.6-.43 6.9-.48 10.78 0 1.83 2.3 3.16 1.58 4.46-2.49 4.44-4.94 9.81 2.47 9.4z" fill="#7c1531"/><path class="cls-1" d="M85.43 17.35c.17 0 .13-.32 0-.3-12.18 1.32-16.52 17-17.66 27.15 0 .21.3.21.33 0 1.18-10.29 5.41-24.99 17.33-26.85z" fill="#7c1531"/><path class="cls-1" d="M88.6 16.71c0-1.54 1.13-2.72 2.73-2.31a.2.2 0 0 0 .11-.38c-1.87-.65-3.24.91-3.27 2.69a.22.22 0 0 0 .43 0z" fill="#7c1531"/><path class="cls-1" d="M36.81 71.78a3.8 3.8 0 0 1 .73-1.73 2.09 2.09 0 0 0-.73 1.73z" fill="#7c1531"/><path class="cls-1" d="M42.08 49.26c.09-.24-.29-.34-.38-.11a9.89 9.89 0 0 0 0 7.27c1.2 3.59 6.08 9.71-.07 11.37a7.35 7.35 0 0 0-4.08 2.26c1.67-1.49 5.67-1.39 6.7-2.9 1.26-1.86 1.06-3.69.37-5.75-1.48-4.29-4.29-7.27-2.54-12.14z" fill="#7c1531"/><path class="cls-1" d="M38.26 79a.43.43 0 0 0-.41-.31c-7.27 0-8.75 5.31-12.7 10.31-.27.33.17.8.48.48 2.24-2.34 3.54-5.31 5.69-7.72a34 34 0 0 1 6.16-2.41.42.42 0 0 0 .81 0c.83-2.11.41-3.22-.67-5.16a5.45 5.45 0 0 1-.81-2.38c-.33 1.89.51 4.3 1.45 7.19z" fill="#7c1531"/><path class="cls-1" d="M51.77 34.09c-3 3.52-5.56 7.41-8.52 11-.15.18.11.45.27.27 3-3.52 5.52-7.45 8.48-11 .14-.2-.09-.43-.23-.27z" fill="#7c1531"/><path class="cls-1" d="M190 94.81a.12.12 0 0 0-.2.12c2.87 5.13-1 10.48 1.56 15.51 1.89 3.65 7.23 5.16 9.68 8.54a.22.22 0 0 0 .38-.22c-1.85-3.7-6.17-5.21-9-8-3.83-3.76.33-11.24-2.42-15.95z" fill="#7c1531"/><path class="cls-1" d="M178.55 336.59c-.15 0-.14.21 0 .22 11.77 1 18.9 11.53 20.14 22.56 1.12 9.86-8.75 21.43-18.83 22.2a37.08 37.08 0 0 0 2.1-3.87c2.92-.35 5.6-3.15 7.63-5.36a.1.1 0 0 0 .08-.09l.68-.75a.19.19 0 0 0-.27-.27l-.56.53a101.74 101.74 0 0 0-4-10.22c.11-1.05.21-2.11.33-3.17 1.51 3.76 2.7 7.63 4.16 11.4.08.19.39.11.32-.09-1.47-3.84-2.66-7.78-4.46-11.48v-.27a.75.75 0 0 0 .67 0 6.45 6.45 0 0 0 .7-.45 7.84 7.84 0 0 1 1.46 3c0 .12.23.07.19-.05a7.38 7.38 0 0 0-1.53-3 4.5 4.5 0 0 0 1.59-5c1.45 2.8 2.94 5.58 4.27 8.44 0 .09.18 0 .14-.08-1.68-3.69-3.67-7.22-5.5-10.83 0-.09-.17 0-.14.07a6.68 6.68 0 0 0-6.81-2.72c-.22.06-.12.36.09.33 4.13-.69 9 5.86 5.07 8.72.09-.66.19-1.32.3-2 .05-.31-.4-.45-.49-.13-1.75 6.15-2 12.57-3.81 18.71a36.29 36.29 0 0 1-4.26 8.75c-1.32 2.14-3.3 3.51-5.06 5.14a.43.43 0 0 0-.47.13c-.75.8-1.75 1.92-2.81.95a3.87 3.87 0 0 1-1-2.64 2.71 2.71 0 0 1 .88-.72 16.5 16.5 0 0 0 6.17-5.32c.07-.1-.09-.23-.18-.14a16 16 0 0 1-6.86 4.53h-.1c-.58.13-1.42.54-2 .21-.35-.2-.41-.84-.45-1.19s0-.43-.05-.65a.45.45 0 0 0 0-.23l-.07-.28a3.89 3.89 0 0 0-.16-.8v-.31c3.44-2 7.4-4.34 8.59-8.33 0-.16-.2-.27-.27-.11-1.79 4-5.73 5.31-9.32 7.22a.41.41 0 0 0-.08-.13c-.41-.35-.83-.47-1.07-.75-.21-.72.15-1.38.09-2.26a28.07 28.07 0 0 0 4.71-3.82c1.22-1.12 2.5-2.33 2.78-4 0-.15-.19-.21-.22-.06-.4 1.87-2.28 2.92-3.73 4a43.28 43.28 0 0 1-3.7 2.38 4 4 0 0 1-1.5-.72c-.46-.47-.73-.93-.3-1.31a.64.64 0 0 0 .21-.48l.15-.13a9.56 9.56 0 0 0 1.86-2c1.39-1.84 2.12-4.07 3.49-5.92.13-.18-.15-.38-.3-.23a17.37 17.37 0 0 0-1.23 1.33c-.21-3.76 2.2-6.27 4.43-9.13 1.95-2.51 4.73-3.47 7.39-5 .22-.13.07-.51-.18-.42-.73.27-1.5.46-2.26.67-.09-1 .6-1.4 1.58-1.84s2.1-.83 2.59-1.83a.21.21 0 0 0-.33-.26c-1 .86-2.48 1-3.7 1.51a2.33 2.33 0 0 0-1.33 2.76 11 11 0 0 0-1.76.67 13 13 0 0 0-4.13 3.91 25 25 0 0 0-2.89 4.13c-.88-1.56-1.8-3.08-2.62-4.68-.05-.1-.21 0-.16.09a35.19 35.19 0 0 0 2.61 4.92 6.45 6.45 0 0 0-.69 3.48 14.14 14.14 0 0 1-2.42-4.64.09.09 0 0 0-.12-.05 50.27 50.27 0 0 1 1.21-8.74c0-.23-.29-.33-.35-.1-.92 3.89-4.12 14.7 1.93 16.12q-.39.54-.76 1.09a25.41 25.41 0 0 1-1.77 2.36 4.81 4.81 0 0 1-.93.75 22.1 22.1 0 0 1-2.77-20.53c2.32-6.71 8.58-10.47 14.74-13.08.21-.09.06-.42-.15-.36-13.16 3.51-20.38 17.55-15.39 29.61a21.13 21.13 0 0 0 2 4.35c.73 1.29-.43 1.65.15 2.82a3.84 3.84 0 0 0 1 1.26c1.07.93.78 1.38.72 2.81a3.15 3.15 0 0 0 1.84 3 44.31 44.31 0 0 0-2.59 6.89c-1.48 4.33-3.21 8.56-4.85 12.83-4.15 10.77-8.34 21.48-13.51 31.81-.18.35.34.66.53.31 8.79-16.1 14.19-33.48 21.27-50.28.5 1.17.36 2.66.79 3.84a2.71 2.71 0 0 0 .24.49c-2.11 3.61-3.25 8-5 11.66a149.67 149.67 0 0 0-6.47 15.11c-1.54 4.31-3.44 8.5-5 12.8-.47 1.3-3.67 10.57-5.89 6.91a.28.28 0 0 0-.51.22c1.88 6.81 6.81-4.26 7.56-6.21 2.36-6.19 4.39-12.46 6.66-18.68a113.48 113.48 0 0 1 6-12.59c1.4-2.74 2.27-5.73 3.77-8.4a1.3 1.3 0 0 0 .34 0h.09c.85 2.76 5.42 4.76 6.88 1.38a.89.89 0 0 0 .07-.27 22.12 22.12 0 0 0 4-3.43q.72-1 1.4-2a.66.66 0 0 0 .55.2c5.3-.34 10.65-4.32 14.4-7.85a19.91 19.91 0 0 0 6.12-15.92c-.73-11.92-9.39-22.72-21.59-22.93zm-16.69 22.85a10.38 10.38 0 0 0 2.43 4.72.12.12 0 0 0 .16 0 4.9 4.9 0 0 0 .4 1.22c-2.2-1.02-2.93-3.32-2.99-5.94zm2.79 21.49a3.3 3.3 0 0 0 .1.32 1.56 1.56 0 0 0-.19-.11zm19.93-11.72c.14.47.27.94.42 1.4a7.41 7.41 0 0 0 1.8 3.39c.11.09.29 0 .21-.16a20.35 20.35 0 0 1-2.32-5.18q.21-1.25.37-2.5c.56 1.46 1 3 1.57 4.43a7.56 7.56 0 0 0 1.28 2.67 20.5 20.5 0 0 1-2.23 1.77c-.3-.73-.69-1.41-1-2.14-.19-.49-.37-1-.57-1.49q.28-1.09.48-2.19zm4.74 2.74l-1.19 1.11c-.95-.83-1.45-3.07-1.81-4s-.77-2.2-1.22-3.28c.16-1.27.29-2.55.42-3.84 1.48 3.22 2.57 6.65 3.81 10.01zm-5.3-.06a9.07 9.07 0 0 0 1.44 3.27 11.37 11.37 0 0 1-1.3.74l-.1-.21c-.1-.22-.18-.54-.43-.64a.13.13 0 0 0-.17.13v.23c0 .08.06.07.1 0 .06.16.11.33.16.5v.13a8.82 8.82 0 0 1-1.25.42v-.06a31.43 31.43 0 0 0 1.53-4.52z" fill="#7c1531"/><path class="cls-1" d="M175.26 336.58c-.16-.17-.42.09-.25.25a.71.71 0 0 0 .62.27.15.15 0 0 0 0-.29.54.54 0 0 1-.37-.23z" fill="#7c1531"/><path class="cls-1" d="M145.32 379.37c1.5 2.76 2.67 5.63 4.33 8.3.1.16.39.2.47 0 5.08-12-.85-25.19 4.7-37.31.17-.37-.38-.69-.55-.32-3.5 7.69-3 15.37-2.64 23.62a55.19 55.19 0 0 1-.08 6.3c0-.57-1.15 7.89-2.28 6.08-2.16-3.45-3.42-7.32-5.84-10.63a.25.25 0 0 0-.34-.09c-6.11 3.73-9.92 10.43-13.25 16.55-4.22 7.76-7.47 16.05-12.06 23.61a.12.12 0 0 0 .2.12c4.85-7.92 8.35-16.6 12.88-24.71a56.83 56.83 0 0 1 8.55-12.08c2.74-2.81 3.99-2.97 5.91.56z" fill="#7c1531"/><path class="cls-1" d="M156.64 345.63c7.32-5.86 15.11-11.08 22.67-16.61.17-.13 0-.42-.17-.29-7.64 5.47-15.39 10.78-22.67 16.73-.13.09.05.26.17.17z" fill="#7c1531"/><path class="cls-1" d="M46.07 378.1a.22.22 0 0 0-.34 0c-.88.73-3.3 3.36-4.89 2a40.48 40.48 0 0 1-5.46-6.16A57.3 57.3 0 0 1 28 360.17c-.06-.16-.32-.09-.26.07 3.11 8 7.51 15.4 14 21.11a.21.21 0 0 0 .29 0c2-1.61 3.51-3.47 5.12-.7a54.52 54.52 0 0 1 3.85 9.52c1.74 5 3.58 9.81 6.65 14.16.19.26.62 0 .44-.25-5.58-7.95-6.64-17.96-12.02-25.98z" fill="#7c1531"/><path class="cls-1" d="M167 351.06v.83a.06.06 0 0 0 .12 0v-.83a.08.08 0 0 0-.12 0z" fill="#7c1531"/><path class="cls-1" d="M173.41 357.83c-.08 0-.12.1 0 .13 3.12 1.16 3.36 5.74 4.75 8.33.07.13.26 0 .2-.12-1.31-2.65-1.73-7.23-4.95-8.34z" fill="#7c1531"/><path class="cls-1" d="M180.18 364.33a61.6 61.6 0 0 0-4.71-8.14c-.07-.1-.22 0-.16.09a61.68 61.68 0 0 1 4.63 8.19c.06.16.31.02.24-.14z" fill="#7c1531"/><path class="cls-1" d="M180.29 360a12.12 12.12 0 0 0-2.67-3.86c-.08-.07-.21.05-.12.12 1.28 1 1.8 2.49 2.66 3.81a.08.08 0 0 0 .13-.07z" fill="#7c1531"/><path class="cls-1" d="M180.62 356.19c-.46-.64-1-1.21-1.5-1.83-.06-.08-.19 0-.13.08.48.63 1 1.23 1.51 1.85.06.06.17-.03.12-.1z" fill="#7c1531"/><path class="cls-1" d="M181.06 353.3a.1.1 0 0 0 0 .19.1.1 0 0 0 0-.19z" fill="#7c1531"/><path class="cls-1" d="M193.32 363.13c.14.17.17.31.38.36a.1.1 0 0 0 .05-.2c-.07 0-.23-.24-.29-.3s-.22.01-.14.14z" fill="#7c1531"/><path class="cls-1" d="M163.82 353.77c.93 1.33 1.49 2.88 2.46 4.19.1.14.34 0 .24-.14-.94-1.33-1.57-2.84-2.54-4.14-.08-.08-.23 0-.16.09z" fill="#7c1531"/></g></g><metadata><rdf:RDF xmlns:rdf="http://www.w3.org/1999/02/22-rdf-syntax-ns#" xmlns:rdfs="http://www.w3.org/2000/01/rdf-schema#" xmlns:dc="http://purl.org/dc/elements/1.1/"><rdf:Description about="https://iconscout.com/legal#licenses" dc:title="tyrion,lannister,house,of,dwarf" dc:description="tyrion,lannister,house,of,dwarf" dc:publisher="Iconscout" dc:date="2018-03-26" dc:format="image/svg+xml" dc:language="en"><dc:creator><rdf:Bag><rdf:li>Roundicons.com</rdf:li></rdf:Bag></dc:creator></rdf:Description></rdf:RDF></metadata></svg>